<?xml version="1.0" encoding="UTF-8"?>
<svg width="101px" height="94px" viewBox="0 0 101 94" version="1.1" xmlns="http://www.w3.org/2000/svg" xmlns:xlink="http://www.w3.org/1999/xlink">
    <!-- Generator: Sketch 55 (78076) - https://sketchapp.com -->
    <title>Speech bubble - Blue/green@3x</title>
    <desc>Created with Sketch.</desc>
    <g id="Speech-bubble---Blue/green" stroke="none" stroke-width="1" fill="none" fill-rule="evenodd">
        <g id="Group-19" transform="translate(3.000000, 3.000000)">
            <path d="M53.6412516,57.1208733 C18.9113159,50.4561643 19.5858397,5.81081791 54.9076107,0.539970463 C91.6948056,-4.94964108 109.096907,32.716523 77.6691516,54.6164801 C79.7348328,58.9423882 82.8540268,62.7684811 86.6867919,65.6769801 C79.8626937,67.8228432 61.5096749,58.6309532 53.6412516,57.1208733 Z" id="Stroke-1" stroke="#003DD4" stroke-width="4.53" fill="#00D79B" stroke-linejoin="round"></path>
            <path d="M22.9155935,82.20417 C22.8475574,83.6076066 22.8158072,84.9129167 22.7742296,86.0927162 C22.7122412,87.8308477 24.8606697,88.6729096 25.987801,87.3554288 C29.0728597,83.7521339 31.8751907,80.3055371 35.1877923,77.999185 C41.8281147,73.3773527 49.8646889,73.9060185 56.7015601,68.331827 C70.6474467,56.9620891 72.9652095,37.7878746 56.3644034,27.0852444 C16.7953692,1.57464692 -24.8782481,63.8864702 18.295187,73.9889315 C20.3302221,74.4651111 22.4695791,73.9607867 24.5545073,74.082494 C25.4200776,74.1334589 26.3015229,74.1829024 27.1421466,73.9683934 C27.9827703,73.7554058 28.7908879,73.2328253 29.1340922,72.4310789 C29.5098026,71.5517441 29.2648727,70.541574 29.015407,69.6173597 C28.05761,69.2628874 27.4188267,68.2177265 26.4111366,68.052661 C25.6876862,67.9339965 24.9521405,68.329545 24.4834474,68.897005 C24.0147543,69.464465 23.7668006,70.181777 23.5672281,70.892243 C22.3645012,75.1565603 23.1295292,77.7770693 22.9155935,82.20417" id="Fill-3" fill="#FFFFFF"></path>
            <path d="M22.9155935,82.20417 C22.8475574,83.6076066 22.8158072,84.9129167 22.7742296,86.0927162 C22.7122412,87.8308477 24.8606697,88.6729096 25.987801,87.3554288 C29.0728597,83.7521339 31.8751907,80.3055371 35.1877923,77.999185 C41.8281147,73.3773527 49.8646889,73.9060185 56.7015601,68.331827 C70.6474467,56.9620891 72.9652095,37.7878746 56.3644034,27.0852444 C16.7953692,1.57464692 -24.8782481,63.8864702 18.295187,73.9889315 C20.3302221,74.4651111 22.4695791,73.9607867 24.5545073,74.082494 C25.4200776,74.1334589 26.3015229,74.1829024 27.1421466,73.9683934 C27.9827703,73.7554058 28.7908879,73.2328253 29.1340922,72.4310789 C29.5098026,71.5517441 29.2648727,70.541574 29.015407,69.6173597 C28.05761,69.2628874 27.4188267,68.2177265 26.4111366,68.052661 C25.6876862,67.9339965 24.9521405,68.329545 24.4834474,68.897005 C24.0147543,69.464465 23.7668006,70.181777 23.5672281,70.892243 C22.3645012,75.1565603 23.1295292,77.7770693 22.9155935,82.20417 Z" id="Stroke-5" stroke="#003DD4" stroke-width="4.53" stroke-linejoin="round"></path>
            <g id="Group-10" transform="translate(22.000000, 52.000000)">
                <path d="M1.8387,2.45066667 C1.69395,1.80483333 0.7422,1.869 0.42795,2.43566667 C0.11445,3.00316667 0.24195,3.73066667 0.37845,4.37816667 C1.31295,4.49316667 2.26545,3.70316667 2.4327,2.67483333 C2.59845,1.6465 1.9542,0.537333333 1.0422,0.282333333 C0.81945,1.50483333 0.5967,2.72733333 0.3732,3.94983333 C1.07295,4.36566667 1.98495,3.25316667 1.5477,2.519" id="Fill-7"></path>
                <path d="M1.8387,2.45066667 C1.69395,1.80483333 0.7422,1.869 0.42795,2.43566667 C0.11445,3.00316667 0.24195,3.73066667 0.37845,4.37816667 C1.31295,4.49316667 2.26545,3.70316667 2.4327,2.67483333 C2.59845,1.6465 1.9542,0.537333333 1.0422,0.282333333 C0.81945,1.50483333 0.5967,2.72733333 0.3732,3.94983333 C1.07295,4.36566667 1.98495,3.25316667 1.5477,2.519" id="Stroke-9" stroke="#003DD4" stroke-width="4.53" stroke-linejoin="round"></path>
            </g>
            <g id="Group-14" transform="translate(34.000000, 47.000000)">
                <path d="M1.859175,2.88483333 C1.714425,2.239 0.762675,2.30316667 0.448425,2.86983333 C0.134925,3.43733333 0.262425,4.16483333 0.399675,4.81316667 C1.334175,4.92733333 2.285925,4.13733333 2.453175,3.109 C2.619675,2.08066667 1.974675,0.9715 1.062675,0.7165 L0.393675,4.384 C1.093425,4.79983333 2.006175,3.68816667 1.568925,2.95316667" id="Fill-11"></path>
                <path d="M1.859175,2.88483333 C1.714425,2.239 0.762675,2.30316667 0.448425,2.86983333 C0.134925,3.43733333 0.262425,4.16483333 0.399675,4.81316667 C1.334175,4.92733333 2.285925,4.13733333 2.453175,3.109 C2.619675,2.08066667 1.974675,0.9715 1.062675,0.7165 L0.393675,4.384 C1.093425,4.79983333 2.006175,3.68816667 1.568925,2.95316667" id="Stroke-13" stroke="#003DD4" stroke-width="4.53" stroke-linejoin="round"></path>
            </g>
            <g id="Group-18" transform="translate(45.000000, 42.000000)">
                <path d="M2.08515,2.3905 C1.9404,1.74466667 0.98865,1.80883333 0.67515,2.3755 C0.3609,2.943 0.4884,3.6705 0.62565,4.31883333 C1.56015,4.433 2.5119,3.643 2.67915,2.61466667 C2.84565,1.58633333 2.20065,0.477166667 1.28865,0.222166667 C1.0659,1.44466667 0.84315,2.66716667 0.61965,3.88966667 C1.3194,4.3055 2.23215,3.19383333 1.7949,2.45883333" id="Fill-15"></path>
                <path d="M2.08515,2.3905 C1.9404,1.74466667 0.98865,1.80883333 0.67515,2.3755 C0.3609,2.943 0.4884,3.6705 0.62565,4.31883333 C1.56015,4.433 2.5119,3.643 2.67915,2.61466667 C2.84565,1.58633333 2.20065,0.477166667 1.28865,0.222166667 C1.0659,1.44466667 0.84315,2.66716667 0.61965,3.88966667 C1.3194,4.3055 2.23215,3.19383333 1.7949,2.45883333" id="Stroke-17" stroke="#003DD4" stroke-width="4.53" stroke-linejoin="round"></path>
            </g>
        </g>
    </g>
</svg>