<?xml version="1.0" encoding="UTF-8"?>
<svg width="100px" height="97px" viewBox="0 0 100 97" version="1.1" xmlns="http://www.w3.org/2000/svg" xmlns:xlink="http://www.w3.org/1999/xlink">
    <!-- Generator: Sketch 55.2 (78181) - https://sketchapp.com -->
    <title>Shape</title>
    <desc>Created with Sketch.</desc>
    <g id="Symbols" stroke="none" stroke-width="1" fill="none" fill-rule="evenodd">
        <g id="Desktop-/-Headers-/-Field_1" fill="#01A9B8" fill-rule="nonzero">
            <path d="M67.7944862,96.2406015 L75.9398496,90.726817 L81.4536341,81.0776942 L63.5338346,93.2330827 L67.7944862,96.2406015 Z M59.7744361,90.6015038 L86.0902256,72.8070175 L91.60401,63.1578947 L55.5137845,87.593985 L59.7744361,90.6015038 Z M99.122807,47.1177945 L47.6190476,82.0802005 L51.8796992,85.0877193 L96.3659148,55.0125313 L100,48.6215539 L99.122807,47.1177945 Z M94.6115288,39.3483709 L39.7243108,76.4411028 L43.9849624,79.4486216 L97.1177945,43.6090226 L94.6115288,39.3483709 Z M89.9749373,31.4536341 L31.7042607,70.802005 L35.9649123,73.8095238 L92.481203,35.5889724 L89.9749373,31.4536341 Z M85.4636591,23.5588972 L23.8095238,65.2882206 L28.0701754,68.2957393 L87.8446115,27.8195489 L85.4636591,23.5588972 Z M80.8270677,15.6641604 L15.914787,59.6491228 L20.1754386,62.6566416 L83.3333333,19.924812 L80.8270677,15.6641604 Z M76.3157895,7.89473684 L7.89473684,54.1353383 L12.1553885,57.1428571 L78.6967419,12.1553885 L76.3157895,7.89473684 Z M71.8045113,0 L0,48.4962406 L4.26065163,51.5037594 L74.1854637,4.26065163 L71.8045113,0 Z" id="Shape"></path>
        </g>
    </g>
</svg>