<svg width="162" height="48" viewBox="0 0 136 41" xmlns="http://www.w3.org/2000/svg"><title>Springster_Logo_Horizontal_White_RGB</title><g fill="none" fill-rule="evenodd"><path d="M70.675-17.28a.388.388 0 0 1-.368-.263.619.619 0 0 1-.031-.1v-.006a3.627 3.627 0 0 0-.25-.627c-.28-.52-.754-.866-1.297-.947a.385.385 0 0 1-.324-.445.384.384 0 0 1 .442-.326c.786.119 1.466.608 1.866 1.341.156.289.25.571.311.76v.005c.013.032.02.063.032.088a.388.388 0 0 1-.244.495.376.376 0 0 1-.137.026zM69.758-.313a4.86 4.86 0 0 0 .424-.15c.2-.075.3-.307.225-.508a.394.394 0 0 0-.505-.226 4.16 4.16 0 0 1-.38.132 5.726 5.726 0 0 1-1.735.276c-2.021 0-3.35-1.097-3.6-1.323-.112-.094-.218-.2-.33-.307a.385.385 0 0 0-.549.006.39.39 0 0 0 .006.552 18 18 0 0 0 .356.332c.28.25 1.809 1.517 4.11 1.517a6.11 6.11 0 0 0 1.978-.3zm5.371-10.22c0 .013-.006.026-.006.032 0 .013-.006.031-.006.05-.038.213-.119.715-.337 1.436-.268.878-.643 1.8-1.117 2.734-.642 1.266-1.285 2.232-1.965 2.94-.717.746-1.503 1.254-2.408 1.542a5.017 5.017 0 0 1-1.503.239c-1.765 0-2.926-.985-3.082-1.123-1.715-1.51-2.638-3.743-3.031-4.702l-.05-.125c-.306-.74-1.597-4.17-1.653-4.314-.007-.019-.013-.031-.019-.05-.044-.113-.106-.27-.137-.445-.069-.42.106-.809.443-1.01a.94.94 0 0 1 .48-.131c.187 0 .468.056.736.338.1.1.175.214.23.301.02.025.032.044.045.063.112.157.941 1.392 1.528 2.263l-1.447-5.01-.02-.056c-.043-.15-.105-.338-.118-.532-.03-.483.225-.89.655-1.029a.924.924 0 0 1 .294-.044c.193 0 .555.063.848.477.1.144.175.3.243.439.006.019.019.037.025.05l.006.012.007.013 1.902 4.276-1.129-5.26c-.075-.333-.118-.558-.118-.759.006-.558.355-.865.686-.965a1.09 1.09 0 0 1 .28-.044c.213 0 .618.075.893.583.093.169.162.363.262.645.118.326.948 2.74 1.578 4.571-.262-1.618-.568-3.53-.587-3.68a.772.772 0 0 1-.012-.12 2.583 2.583 0 0 1-.037-.614c.05-.464.349-.802.78-.884a.947.947 0 0 1 .186-.019c.175 0 .606.057.88.558.087.157.143.326.193.49.013.037.025.08.038.119.125.363 1.59 5.053 2.252 7.172l1.26-1.241h.006l.037-.038c.213-.22.574-.577 1.067-.577.119 0 .23.019.343.063.368.144.605.476.637.896.018.17-.013.352-.038.47zm-4.91 3.092a.427.427 0 0 1-.274.113.391.391 0 0 1-.274-.671l1.528-1.505c-.368-1.172-2.233-7.135-2.364-7.536-.106-.314-.181-.633-.374-.633-.013 0-.025 0-.038.006-.224.044-.156.338-.106.752.031.232.917 5.75.917 5.75l-1.129.37s-2.102-6.12-2.29-6.64c-.168-.477-.261-.709-.423-.709-.02 0-.038.007-.063.013-.18.05-.156.257-.031.796l1.49 6.966-1.134.37-2.608-5.863c-.125-.257-.237-.52-.412-.52-.018 0-.037 0-.056.013-.206.069-.08.4-.006.652l1.778 6.15-1.148.376s-1.928-2.871-2.096-3.103c-.112-.157-.23-.37-.374-.37a.17.17 0 0 0-.088.025c-.162.094-.012.389.05.558 0 0 1.335 3.555 1.64 4.289l.05.125c.375.903 1.248 3.028 2.833 4.414.05.044 1.042.921 2.564.921.386 0 .81-.056 1.266-.2 1.535-.49 2.707-1.712 3.911-4.088 1.117-2.2 1.329-3.668 1.385-3.994.031-.17.106-.483-.1-.564a.184.184 0 0 0-.062-.013c-.193 0-.455.301-.562.402l-3.4 3.348zm-87.512 24.238a.39.39 0 0 1-.262.37.61.61 0 0 1-.1.031h-.006c-.181.057-.4.132-.624.251-.518.282-.86.759-.942 1.304a.384.384 0 0 1-.443.326.385.385 0 0 1-.324-.445c.112-.777.599-1.46 1.328-1.862a4.53 4.53 0 0 1 .755-.313h.006c.032-.013.063-.02.088-.032a.385.385 0 0 1 .493.245.234.234 0 0 1 .03.125zm16.88.922a4.917 4.917 0 0 0-.15-.426.394.394 0 0 0-.505-.226c-.2.075-.3.307-.225.508.05.125.094.25.131.382.181.577.275 1.16.275 1.743 0 2.031-1.092 3.367-1.316 3.618-.094.113-.2.22-.306.332a.39.39 0 0 0 .555.545c.112-.119.225-.238.33-.357.25-.282 1.51-1.818 1.51-4.132a6.198 6.198 0 0 0-.3-1.987zm-10.168-5.398c.012 0 .025.006.031.006.013 0 .031.006.05.006.212.038.711.12 1.428.339.874.27 1.79.646 2.72 1.122 1.26.646 2.221 1.292 2.926 1.975.742.721 1.247 1.511 1.534 2.42a5.09 5.09 0 0 1 .237 1.511c0 1.774-.979 2.94-1.116 3.097-1.503 1.724-3.724 2.652-4.679 3.047l-.124.05c-.736.308-4.149 1.606-4.292 1.662-.019.006-.031.012-.05.019-.112.044-.268.106-.443.138-.418.069-.805-.107-1.004-.445a.952.952 0 0 1-.131-.483c0-.188.056-.47.337-.74.1-.1.212-.176.299-.232.025-.019.044-.031.062-.044.156-.113 1.385-.947 2.252-1.536l-4.984 1.455-.056.018c-.15.044-.337.107-.53.12-.48.03-.886-.226-1.023-.659a.937.937 0 0 1-.044-.294c0-.195.062-.558.474-.853.144-.1.3-.176.437-.245.019-.006.037-.018.05-.025l.012-.006.013-.006 4.254-1.913-5.234 1.135c-.33.076-.555.12-.754.12-.556-.007-.861-.358-.961-.69a1.106 1.106 0 0 1-.044-.282c0-.214.075-.621.58-.897.169-.094.362-.163.643-.263.324-.12 2.726-.953 4.547-1.587-1.609.264-3.512.571-3.661.59a.76.76 0 0 1-.119.012 2.545 2.545 0 0 1-.611.038c-.462-.05-.799-.351-.88-.784a.962.962 0 0 1-.018-.188c0-.175.056-.608.555-.884a2.44 2.44 0 0 1 .486-.194l.119-.038c.362-.125 5.028-1.599 7.136-2.263l-1.235-1.267v-.006l-.037-.038c-.219-.213-.574-.576-.574-1.072 0-.119.018-.232.062-.344.143-.37.474-.609.892-.64.168-.013.35.019.468.038zm3.075 4.94a.432.432 0 0 1 .113.276c0 .1-.038.2-.119.282-.156.15-.4.15-.549-.006l-1.497-1.536c-1.167.37-7.099 2.244-7.498 2.376-.312.107-.63.182-.63.376 0 .013 0 .025.006.038.044.226.337.157.749.106.23-.03 5.72-.921 5.72-.921l.368 1.135s-6.088 2.112-6.606 2.3c-.474.17-.705.264-.705.427 0 .019.006.037.012.063.05.181.256.156.793.03l6.93-1.498.368 1.142-5.832 2.62c-.256.126-.518.239-.518.414 0 .019 0 .038.012.056.069.207.4.082.65.007l6.119-1.787.374 1.154s-2.857 1.937-3.088 2.106c-.156.113-.368.232-.368.376a.17.17 0 0 0 .025.088c.093.163.387.013.555-.05 0 0 3.537-1.342 4.267-1.649l.125-.05c.898-.376 3.013-1.254 4.391-2.847.044-.05.917-1.047.917-2.576 0-.39-.056-.815-.2-1.273-.486-1.542-1.702-2.721-4.067-3.931-2.19-1.123-3.649-1.336-3.973-1.392-.169-.031-.48-.107-.562.1a.196.196 0 0 0-.012.063c0 .194.3.458.4.564l3.33 3.417zm159.8 5.95a.39.39 0 0 1 .261-.37.61.61 0 0 1 .1-.031h.006c.181-.057.4-.132.624-.251.518-.282.86-.759.942-1.304a.384.384 0 0 1 .443-.326.385.385 0 0 1 .324.445c-.118.79-.605 1.473-1.335 1.875a4.53 4.53 0 0 1-.754.313h-.007c-.03.013-.062.019-.087.032a.385.385 0 0 1-.493-.245.432.432 0 0 1-.025-.138zm-16.887-.922c.044.145.093.289.15.427.074.2.305.3.505.225.2-.075.3-.307.224-.507a3.94 3.94 0 0 1-.13-.383 5.809 5.809 0 0 1-.275-1.743c0-2.031 1.092-3.367 1.316-3.617.094-.113.2-.22.306-.333a.39.39 0 0 0-.555-.545 13.41 13.41 0 0 0-.33.357c-.25.282-1.51 1.818-1.51 4.132-.007.665.1 1.335.299 1.987zm10.174 5.392c-.012 0-.025-.006-.031-.006-.013 0-.031-.006-.05-.006-.212-.038-.711-.12-1.428-.339a17.08 17.08 0 0 1-2.72-1.122c-1.26-.646-2.221-1.292-2.926-1.975-.742-.721-1.247-1.511-1.534-2.42a5.09 5.09 0 0 1-.237-1.511c0-1.774.979-2.94 1.116-3.097 1.503-1.724 3.724-2.652 4.679-3.047l.124-.05c.736-.308 4.149-1.606 4.292-1.662.019-.006.031-.012.05-.019.112-.044.268-.106.443-.138.418-.069.805.107 1.004.445.088.15.131.314.131.483 0 .188-.056.47-.337.74-.1.1-.212.176-.299.232-.025.019-.044.031-.062.044-.156.113-1.385.947-2.252 1.536l4.984-1.455.056-.018c.15-.044.337-.107.53-.12.48-.03.886.226 1.023.659a.937.937 0 0 1 .044.294c0 .195-.062.558-.474.853-.144.1-.3.176-.437.245-.019.006-.037.018-.05.025l-.012.006-.013.006-4.254 1.913 5.234-1.135c.33-.076.555-.12.754-.12.556.007.861.358.961.69.025.094.044.188.044.282 0 .214-.075.621-.58.897-.169.094-.362.163-.643.263-.324.12-2.726.953-4.547 1.587 1.609-.264 3.512-.571 3.661-.59a.76.76 0 0 1 .119-.012c.212-.032.412-.057.611-.038.462.05.799.351.88.784a.962.962 0 0 1 .018.188c0 .175-.056.608-.555.884a2.463 2.463 0 0 1-.486.194l-.119.038c-.362.125-5.028 1.599-7.136 2.263l1.235 1.267v.006l.037.038c.219.213.574.576.574 1.072a.923.923 0 0 1-.062.344c-.143.37-.474.609-.892.64a1.52 1.52 0 0 1-.468-.038zm-3.081-4.934a.432.432 0 0 1-.113-.276c0-.1.038-.2.119-.282a.386.386 0 0 1 .549.006l1.497 1.536c1.166-.37 7.099-2.244 7.498-2.376.312-.106.63-.182.63-.376 0-.012 0-.025-.006-.038-.044-.225-.337-.156-.749-.106-.23.031-5.72.922-5.72.922l-.368-1.135s6.088-2.113 6.606-2.301c.474-.17.705-.264.705-.427 0-.018-.006-.037-.013-.062-.05-.182-.255-.157-.792-.032l-6.918 1.511-.368-1.14 5.833-2.621c.255-.126.517-.239.517-.414 0-.02 0-.038-.012-.057-.069-.207-.4-.081-.649-.006l-6.12 1.787-.374-1.154s2.857-1.937 3.088-2.106c.156-.113.368-.232.368-.377a.172.172 0 0 0-.025-.087c-.093-.163-.386-.013-.555.05 0 0-3.537 1.342-4.267 1.649l-.124.05c-.899.376-3.013 1.254-4.392 2.846-.044.05-.917 1.047-.917 2.577 0 .389.056.815.2 1.273.486 1.542 1.703 2.721 4.067 3.931 2.19 1.122 3.65 1.335 3.973 1.392.169.031.48.106.562-.1.006-.02.012-.038.012-.063 0-.194-.3-.458-.399-.564l-3.343-3.43zM64.3 57.28c.162 0 .312.1.368.264a.619.619 0 0 1 .031.1v.006c.056.182.131.402.25.627.28.52.754.866 1.297.947a.385.385 0 0 1 .325.445.384.384 0 0 1-.443.326c-.786-.119-1.466-.608-1.866-1.341a4.61 4.61 0 0 1-.311-.76v-.005c-.013-.032-.02-.063-.032-.088a.388.388 0 0 1 .244-.495.376.376 0 0 1 .137-.026zm.917-16.965a4.86 4.86 0 0 0-.424.15c-.2.075-.3.307-.225.508.075.2.306.301.505.226.125-.05.25-.094.38-.132a5.726 5.726 0 0 1 1.735-.276c2.021 0 3.35 1.097 3.6 1.323.112.094.218.2.33.307a.39.39 0 0 0 .543-.558 18 18 0 0 0-.356-.332c-.28-.25-1.809-1.517-4.11-1.517a6.11 6.11 0 0 0-1.978.3zm-5.371 10.22c0-.013.006-.026.006-.032 0-.013.006-.031.006-.05.038-.213.119-.715.337-1.436.269-.878.643-1.8 1.117-2.734.642-1.266 1.285-2.232 1.965-2.94.717-.746 1.503-1.254 2.408-1.542a5.017 5.017 0 0 1 1.503-.239c1.765 0 2.926.985 3.082 1.123 1.715 1.51 2.638 3.743 3.031 4.702l.05.125c.306.74 1.597 4.17 1.653 4.314.007.019.013.031.019.05.044.113.106.27.137.445.069.42-.106.809-.443 1.01a.94.94 0 0 1-.48.131c-.187 0-.468-.056-.736-.338a1.77 1.77 0 0 1-.23-.301c-.02-.025-.032-.044-.045-.063-.112-.157-.941-1.392-1.528-2.263l1.447 5.01.02.056c.043.15.105.338.118.532.03.483-.225.89-.655 1.029a.924.924 0 0 1-.294.044c-.193 0-.555-.063-.848-.477-.1-.144-.175-.3-.243-.439-.006-.019-.019-.037-.025-.05l-.006-.012-.007-.013-1.902-4.276 1.129 5.26c.075.333.118.558.118.759-.006.558-.355.865-.686.965a1.09 1.09 0 0 1-.28.044c-.213 0-.618-.075-.893-.583-.093-.169-.162-.363-.262-.645-.118-.326-.948-2.74-1.578-4.571.262 1.618.568 3.53.587 3.68a.772.772 0 0 1 .012.12c.031.213.056.413.038.614-.05.464-.35.802-.78.884a.947.947 0 0 1-.187.019c-.175 0-.605-.057-.88-.558a2.49 2.49 0 0 1-.193-.49c-.013-.037-.025-.08-.038-.119-.124-.363-1.59-5.053-2.252-7.172l-1.26 1.241h-.006l-.037.038c-.212.22-.574.577-1.067.577a.924.924 0 0 1-.343-.063c-.368-.144-.605-.476-.636-.896-.02-.17.012-.352.037-.47zm4.91-3.092a.427.427 0 0 1 .274-.113.391.391 0 0 1 .274.671l-1.528 1.505c.368 1.172 2.233 7.135 2.364 7.536.106.314.181.633.374.633.013 0 .025 0 .038-.006.224-.044.156-.338.106-.752-.031-.232-.917-5.75-.917-5.75l1.129-.37s2.102 6.12 2.29 6.64c.168.477.261.709.423.709.02 0 .038-.007.063-.013.18-.05.156-.257.031-.796l-1.49-6.966L69.32 50l2.608 5.863c.125.257.237.52.412.52.018 0 .037 0 .056-.013.206-.069.08-.4.006-.652l-1.778-6.15 1.148-.376s1.928 2.871 2.096 3.103c.112.157.23.37.374.37a.17.17 0 0 0 .088-.025c.162-.094.012-.389-.05-.558 0 0-1.335-3.555-1.64-4.289l-.05-.125c-.375-.903-1.248-3.028-2.833-4.414-.05-.044-1.042-.921-2.564-.921-.386 0-.81.056-1.266.2-1.535.49-2.707 1.712-3.911 4.088-1.117 2.2-1.329 3.668-1.385 3.994-.031.17-.106.483.1.564a.184.184 0 0 0 .062.013c.194 0 .456-.301.562-.402l3.4-3.348z"/><path d="M86.675 33.31c2.855 0 5.616-2.094 6.595-5.228l2.761-8.759c.268-.808-.206-1.705-1.01-1.974-.685-.207-1.427.087-1.813.69-2.587 4.306-4.843 6.488-6.27 7.02-.032-.087-.032-.206-.032-.3 0-3.975 3.06-8.338 7.012-8.338.567 0 1.16.062 1.814.3.804.239 1.695-.206 1.963-1.015.237-.809-.205-1.705-1.01-1.975a9.482 9.482 0 0 0-2.76-.42c-5.38 0-10.16 5.83-10.16 11.536 0 2.896 1.514 3.554 2.642 3.554 1.247 0 2.674-.808 4.638-3.14l-.567 1.855c-.568 1.762-2.051 3.078-3.803 3.078-.71 0-1.483-.207-2.106-.658-.655-.508-1.665-.326-2.138.357-.505.659-.324 1.674.355 2.15 1.097.822 2.58 1.267 3.89 1.267m-43.62-9.623c0-1.586-.772-3.078-1.663-4.182-.505-.627-1.041-1.348-1.041-2.15 0-.627.536-1.135 1.277-1.135.418 0 .86.182 1.278.54.623.476 1.546.357 2.05-.27.475-.627.356-1.555-.267-2.063-1.01-.777-2.17-1.135-3.148-1.135-2.375 0-4.282 1.737-4.282 4.063 0 1.523.742 2.896 1.664 4.062.474.627 1.01 1.436 1.01 2.333 0 .959-.686 1.736-1.577 1.736-.592 0-1.097-.326-1.458-.834-.474-.627-1.428-.777-2.051-.326-.623.477-.773 1.436-.324 2.063.953 1.285 2.35 2.031 3.833 2.031 2.5-.006 4.7-1.925 4.7-4.733m61.033 0c0-1.586-.772-3.078-1.664-4.182-.505-.627-1.04-1.348-1.04-2.15 0-.627.448-1.135 1.071-1.135.356 0 .773.12 1.16.452.623.476 1.546.357 2.05-.27.474-.627.356-1.555-.268-2.063-.978-.746-2.05-1.047-2.942-1.047-2.318 0-4.157 1.737-4.157 4.063 0 1.523.773 2.896 1.695 4.062.474.627.979 1.436.979 2.333 0 .959-.686 1.736-1.602 1.736-.592 0-1.19-.357-1.546-.865-.473-.627-1.427-.777-2.05-.326-.624.476-.773 1.436-.324 2.063.953 1.285 2.437 2.062 3.92 2.062 2.518-.006 4.718-1.925 4.718-4.733m-22.88 3.348l2.467-7.774c.568-1.762.71-2.508.71-3.198 0-1.673-1.19-2.601-2.555-2.601-1.932 0-3.983 1.824-6.57 5.918l1.16-3.674c.237-.746-.206-1.611-.954-1.88-.741-.239-1.633.206-1.87.984l-2.673 8.369-.923 2.896c-.355 1.104.505 2.032 1.484 2.032.473 0 .89-.239 1.215-.69 3.653-5.442 6.42-8.965 8.29-10.219-.062.301-.15.658-.3 1.104l-2.468 7.773c-.268.81.206 1.706 1.01 1.975.817.238 1.708-.207 1.976-1.015m-22.021 0l.773-2.364c1.365-4.006 3.715-6.846 6.688-8.1.804-.357 1.19-1.316.86-2.119-.355-.809-1.31-1.197-2.107-.865-1.215.477-2.2 1.523-3.179 3.436l.418-1.317c.237-.746-.206-1.611-.954-1.88-.741-.239-1.633.206-1.87.984l-2.05 6.394-1.546 4.871c-.268.81.206 1.706 1.01 1.975.797.238 1.689-.207 1.957-1.015m67.84 0l.773-2.389c1.365-3.943 3.746-6.783 6.806-8.069.892-.388 1.31-1.285.979-2.119-.355-.808-1.396-1.197-2.231-.865-1.31.508-2.35 1.643-3.36 3.649l.474-1.523c.236-.746-.206-1.612-.954-1.881-.742-.238-1.633.207-1.87.984l-2.05 6.395-1.546 4.87c-.268.81.205 1.706 1.01 1.976.81.225 1.701-.22 1.969-1.028m-82.07 5.203l1.365-4.307c2.02-5.68 5.41-10.727 7.934-11.21.063.208.088.39.088.596 0 3.141-2.761 7.385-5.529 8.012-.829.182-1.365 1.047-1.19 1.856.18.834 1.04 1.373 1.845 1.197 3.982-.896 7.965-6.513 7.965-11.209 0-2.777-1.34-3.705-2.792-3.705-1.602 0-3.266 1.166-4.874 3.229l.299-.985c.237-.746-.206-1.61-.979-1.88-.741-.239-1.633.206-1.87.984l-2.973 9.322-2.262 7.14c-.237.81.205 1.706 1.01 1.976.803.238 1.695-.213 1.963-1.016m77.258-16.168c.062 0 .15 0 .206.031.031.12.062.27.062.42 0 1.88-2.138 3.316-4.488 4.125.773-2.489 2.375-4.576 4.22-4.576m-13.818 12.344c1.159 0 2.88-.508 4.843-3.348.473-.715.299-1.705-.387-2.182-.71-.476-1.695-.3-2.169.389-.623.928-1.19 1.523-1.695 1.856 0-.301.062-.627.15-.928l2.374-7.504h3.123c.804 0 1.483-.69 1.483-1.467 0-.778-.685-1.467-1.483-1.467h-2.2l1.159-3.65c.268-.808-.206-1.704-1.01-1.974-.804-.238-1.695.207-1.963 1.016l-1.459 4.601h-1.072c-.804 0-1.483.69-1.483 1.467 0 .778.685 1.467 1.483 1.467h.15l-2.17 6.815c-.299.897-.417 1.737-.417 2.244.006 1.618 1.047 2.665 2.743 2.665M70.632 13.825c-.804-.238-1.696.207-1.964 1.016l-3.565 11.24c-.268.81.206 1.706 1.01 1.975.804.239 1.695-.206 1.963-1.015l3.565-11.24c.268-.81-.212-1.706-1.01-1.976m47.421 14.589c1.247 0 2.618-.57 4.607-2.332.623-.57.685-1.586.118-2.213-.567-.627-1.577-.69-2.2-.12-1.01.928-1.845 1.524-2.618 1.794-.418-.54-.505-1.317-.505-1.944 4.756-1.016 7.966-3.887 7.966-6.846 0-1.88-1.278-3.285-3.36-3.285-4.014 0-7.697 4.934-7.697 10.52.006 3.078 1.67 4.426 3.69 4.426M71.76 12.239c1.16 0 2.107-.959 2.107-2.15a2.122 2.122 0 0 0-2.107-2.12 2.13 2.13 0 0 0-2.138 2.12c0 1.197.947 2.15 2.138 2.15M22.307 6.095a.775.775 0 0 1-.736-.533c-.024-.069-.043-.131-.068-.2l-.006-.013c-.119-.357-.262-.808-.505-1.254-.567-1.034-1.515-1.724-2.6-1.893a.784.784 0 0 1-.654-.89.78.78 0 0 1 .885-.658c1.571.238 2.93 1.216 3.728 2.683.318.577.498 1.147.617 1.523l.006.019c.019.063.037.12.062.182a.784.784 0 0 1-.486.99m-2.076 33.967c.287-.094.574-.194.854-.3a.786.786 0 0 0 .443-1.016.779.779 0 0 0-1.01-.445c-.25.094-.505.188-.76.27a11.466 11.466 0 0 1-3.472.545c-4.039 0-6.694-2.195-7.187-2.64a19.815 19.815 0 0 1-.654-.608.781.781 0 0 0-1.103.013.792.792 0 0 0 .012 1.11c.237.231.474.45.71.664.568.508 3.622 3.034 8.222 3.034m14.673-21.058c-.007.025-.007.044-.013.069a1.242 1.242 0 0 0-.019.094c-.074.426-.243 1.43-.673 2.865-.53 1.761-1.278 3.598-2.225 5.467-1.29 2.539-2.574 4.463-3.927 5.88-1.433 1.498-3.004 2.502-4.805 3.078a9.94 9.94 0 0 1-2.999.477c-3.534 0-5.846-1.969-6.152-2.245-3.428-3.015-5.273-7.485-6.058-9.397l-.106-.251c-.61-1.473-3.191-8.332-3.297-8.626-.013-.032-.025-.07-.044-.107-.087-.226-.212-.533-.268-.89-.13-.84.206-1.618.885-2.019.293-.176.63-.27.96-.27.38 0 .941.12 1.465.671.193.207.343.427.461.602.031.05.062.094.087.132.225.32 1.883 2.777 3.06 4.526L4.644 9.631a2.44 2.44 0 0 1-.038-.119c-.093-.3-.205-.67-.237-1.072-.068-.972.443-1.774 1.303-2.05.193-.063.393-.094.592-.094.38 0 1.11.125 1.69.947.199.282.348.601.486.877.018.038.03.07.05.107l.012.019.006.018 3.802 8.545-2.25-10.52c-.156-.67-.237-1.109-.237-1.51.006-1.122.717-1.73 1.378-1.925a1.94 1.94 0 0 1 .56-.081c.43 0 1.229.15 1.783 1.166.181.332.324.727.53 1.291.23.652 1.895 5.48 3.154 9.134-.517-3.228-1.134-7.065-1.172-7.36-.012-.081-.018-.156-.03-.232-.057-.426-.113-.827-.07-1.235.094-.928.692-1.605 1.559-1.774.124-.025.25-.037.368-.037.342 0 1.203.106 1.757 1.115.175.314.28.652.387.978.025.076.05.157.075.239.249.733 3.178 10.1 4.5 14.337l2.518-2.488.006-.007.006-.006c.025-.019.05-.05.081-.081.43-.433 1.141-1.16 2.126-1.16.237 0 .467.044.68.125.729.282 1.202.953 1.265 1.793m-9.892 7.197a.853.853 0 0 1-.549.226.766.766 0 0 1-.555-.232.787.787 0 0 1 .013-1.11l3.048-3.009c-.73-2.338-4.457-14.269-4.731-15.071-.212-.633-.355-1.273-.748-1.273-.025 0-.05 0-.075.006-.442.088-.318.671-.212 1.505.056.464 1.833 11.492 1.833 11.492l-2.256.733S12.957 6.804 12.583 5.763c-.342-.96-.517-1.417-.841-1.417a.39.39 0 0 0-.118.019c-.356.107-.306.514-.063 1.592l2.98 13.93-2.263.74L7.08 8.91c-.25-.514-.474-1.047-.823-1.047a.421.421 0 0 0-.118.019c-.412.132-.163.802-.013 1.298l3.553 12.3-2.294.752s-3.852-5.736-4.188-6.206c-.225-.314-.462-.746-.748-.746a.324.324 0 0 0-.175.05c-.324.194-.031.777.094 1.11 0 0 2.667 7.109 3.278 8.576l.106.25c.748 1.812 2.5 6.05 5.653 8.828.1.094 2.082 1.85 5.118 1.85.779 0 1.627-.114 2.53-.402 3.067-.978 5.404-3.417 7.817-8.175 2.231-4.395 2.655-7.329 2.773-7.98.063-.34.212-.966-.2-1.123a.39.39 0 0 0-.118-.019c-.392 0-.916.596-1.128.803" fill="#FFF" fill-rule="nonzero" class="icon"/></g></svg>