<?xml version="1.0" encoding="UTF-8"?>
<svg width="1440px" height="1017px" viewBox="0 0 1440 1017" version="1.1" xmlns="http://www.w3.org/2000/svg" xmlns:xlink="http://www.w3.org/1999/xlink">
    <!-- Generator: Sketch 53.2 (72643) - https://sketchapp.com -->
    <title>bg</title>
    <desc>Created with Sketch.</desc>
    <defs>
        <rect id="path-1" x="0" y="0" width="1440" height="1523"></rect>
    </defs>
    <g id="Yegna-UI" stroke="none" stroke-width="1" fill="none" fill-rule="evenodd">
        <g id="Yegna-D-1-Home" transform="translate(0.000000, -1242.000000)">
            <g id="bg" transform="translate(0.000000, 831.000000)">
                <mask id="mask-2" fill="white">
                    <use xlink:href="#path-1"></use>
                </mask>
                <g id="Mask"></g>
                <g id="shape-3d" mask="url(#mask-2)" fill="#00FF00">
                    <g transform="translate(-115.000000, 411.000000)">
                        <path d="M281.805609,143.101364 C276.444017,144.299825 271.03719,145.32267 265.732737,146.732345 C257.778439,148.839738 249.85033,151.042058 242.010311,153.514922 C232.887033,156.395975 223.720901,159.236683 214.840466,162.77511 C202.876878,167.542849 190.546645,170.912779 178.011662,173.653813 C172.964337,174.7526 167.926535,176.038869 162.814929,176.646406 C153.508328,177.749939 144.570754,169.147125 145.015966,159.886937 C145.242144,155.180901 147.020611,151.139359 151.263221,148.922799 C156.505773,146.181765 161.85308,143.44785 167.452753,141.620493 C187.308738,135.117952 207.438517,129.455521 227.163557,122.615987 C245.993412,116.087341 264.406624,108.391085 283.076964,101.399667 C290.590811,98.5850638 298.307028,96.3068013 305.908966,93.7461291 C307.901707,93.0721432 309.806358,92.1323599 311.811003,91.5034645 C318.684411,89.3391151 325.281646,88.9570315 331.250345,94.1424519 C336.321478,98.5518391 336.8524,104.095611 335.073932,109.862463 C333.452598,115.126199 331.207491,120.23805 328.848104,125.233615 C321.734233,140.272521 314.451325,155.233112 307.18032,170.193702 C306.266088,172.073269 304.889978,173.717889 303.925748,175.576097 C298.561775,185.916087 293.36684,196.341511 287.902873,206.626917 C281.527054,218.611527 275.308369,230.71005 268.320681,242.338681 C262.228179,252.481696 255.233349,262.085996 248.486124,271.827942 C244.853002,277.077438 239.19857,279.744904 233.613181,282.324562 C230.813345,283.615577 227.839708,282.922605 225.32795,281.370539 C218.228364,276.977764 214.866655,269.815476 219.723515,260.64547 C223.935174,252.704776 228.563476,244.987162 233.02274,237.176993 C241.465104,222.396765 250.188405,207.773167 258.27841,192.805457 C266.539833,177.510247 274.179863,161.88279 282.096069,146.400098 C282.448429,145.7095 282.80317,145.018901 283.160292,144.330676 C282.710318,143.922488 282.255583,143.509553 281.805609,143.101364" id="Fill-115"></path>
                        <path d="M181.839629,220.727391 C179.780744,221.150904 177.68561,221.456774 175.667806,222.012046 C166.557481,224.546062 157.519651,227.36242 148.339246,229.661152 C140.833498,231.534019 133.107845,232.550449 125.604513,234.423315 C116.791421,236.620875 108.106405,239.326649 99.3658089,241.815962 C92.8266734,243.672358 86.2561229,245.476992 79.3641737,245.168769 C69.2389047,244.709964 61.8443168,234.449197 64.5701649,224.971928 C65.4304503,221.962636 67.7986516,220.950912 70.3650086,219.906247 C82.2567625,215.06644 94.8686429,212.763003 107.292034,209.720771 C123.506963,205.746812 139.562402,201.10935 155.668588,196.709526 C169.698972,192.876738 183.700359,188.923954 197.735576,185.107636 C208.774294,182.105403 219.849261,179.225517 230.897645,176.270341 C236.513665,174.77393 242.468,179.736085 240.674933,185.084107 C238.654712,191.130925 235.863618,197.034219 232.64963,202.57988 C226.545471,213.122989 219.585859,223.197881 213.546945,233.773929 C205.608638,247.686316 198.165719,261.838692 188.690497,274.892289 C181.085671,285.374224 173.97865,296.194968 166.729054,306.926305 C162.98343,312.460202 159.75011,318.363496 155.649255,323.62211 C153.271388,326.680811 149.786749,329.05954 146.444685,331.207689 C145.052763,332.099418 142.430825,332.250001 140.879412,331.600615 C136.201006,329.647751 131.882663,326.91139 129.630455,322.20099 C128.95866,320.793987 129.009407,318.864652 129.284891,317.264716 C130.099263,312.540199 132.097735,308.387423 135.094234,304.432287 C153.092564,280.713233 167.891406,255.173076 180.128724,228.216504 C181.10742,226.05659 182.020869,223.861384 182.965733,221.687353 C182.59117,221.365013 182.211775,221.049731 181.839629,220.727391" id="Fill-117"></path>
                        <path d="M86.2440789,294.351564 C79.5818583,296.723599 72.8552108,298.916658 66.2836651,301.503465 C53.8110909,306.41458 41.5246389,311.836375 28.2741693,314.449432 C23.5877076,315.370564 18.9155629,316.358514 14.2267149,317.253397 C10.2656525,318.005098 7.01090005,316.062607 4.11884726,313.891025 C-0.720330173,310.256609 -1.42664009,304.223908 2.69906887,299.756654 C5.25466997,296.986098 8.41636134,294.392132 11.8142848,292.850548 C21.0726716,288.676816 30.510022,284.870583 40.0332751,281.350712 C52.109743,276.888231 64.3150648,272.771771 76.5180004,268.660085 C87.2605925,265.035214 98.1439694,261.794546 108.841224,258.03604 C115.548782,255.678323 121.938978,252.442428 128.629833,250.048915 C132.003894,248.843807 135.709635,248.392786 139.305612,248.063469 C143.390756,247.686426 146.960484,248.948806 148.972036,252.938789 C150.93825,256.852409 149.857309,260.606142 147.63816,263.830106 C143.612671,269.676671 139.446397,275.451646 134.893561,280.8806 C120.695777,297.802231 106.760473,314.893293 93.9991709,332.972306 C85.7024156,344.720323 76.4416426,355.816866 67.290634,366.930113 C64.9163827,369.808056 61.4540324,371.888956 58.2422312,373.941219 C55.5697071,375.645076 52.6394754,375.239396 50.2079558,373.105996 C43.280869,367.018409 43.6984509,363.028426 47.5235009,357.322655 C57.5788725,342.343515 66.8014666,326.801196 76.4631182,311.554785 C79.3336953,307.0231 82.5932202,302.734823 85.6284439,298.303365 C86.2369204,297.415642 86.6592746,296.396669 87.1651452,295.437355 C86.8597139,295.081788 86.5495102,294.716676 86.2440789,294.351564" id="Fill-119"></path>
                        <path d="M268.211098,46 C269.584904,47.2249167 272.447784,49.0428487 274.296777,51.6360752 C276.131655,54.2049978 277.030275,57.5176199 278.185308,60.562899 C280.184855,65.805251 278.491121,68.6293646 273.242898,70.7462345 C257.394725,77.1405916 241.619477,83.7731268 226.135927,91.0302724 C216.7804,95.4122662 208.130596,101.374014 198.94209,106.181326 C189.553629,111.093145 185.180503,109.698101 180.028729,101.109101 C175.455648,93.4898274 175.716765,90.0119389 183.190365,84.5605733 C206.36629,67.654778 231.664086,55.177154 259.039058,47.3367147 C261.30678,46.6853701 263.741522,46.6294711 268.211098,46" id="Fill-121"></path>
                        <path d="M234.544461,0.022015772 C241.963722,-0.284342599 245.936406,2.62255401 248.122668,7.74645623 C250.252812,12.7487506 248.302713,16.9301915 244.442265,20.3445673 C243.56776,21.120987 242.58102,21.8202324 241.535823,22.3417432 C223.292811,31.4646746 205.096564,40.6811504 186.753007,49.5982838 C178.73983,53.4920753 176.682172,52.7694437 173.193506,46.5627635 C169.445294,39.8930377 170.443726,34.0301336 176.628392,30.5806786 C193.426367,21.2145315 210.366975,12.1056318 227.302906,3.0014094 C230.024627,1.53977595 233.040967,0.630055287 234.544461,0.022015772" id="Fill-123"></path>
                    </g>
                </g>
                <g id="shape-3b" mask="url(#mask-2)" fill="#00FF00">
                    <g transform="translate(623.000000, 1073.000000)">
                        <path d="M795.163648,330.97074 C769.055375,330.132911 748.501081,309.275891 749.009222,284.126228 C749.54277,257.670537 777.729338,232.964431 804.894544,235.13293 C824.269951,236.68045 844.76835,261.445697 844.997013,283.579175 C845.291735,311.385249 823.741485,331.882496 795.163648,330.97074" id="Fill-99"></path>
                        <path d="M679.703993,125.929879 C661.996597,127.33906 642.694168,107.286574 641.094072,85.80331 C639.352195,62.478932 662.11306,32.572976 683.405482,30.2081432 C704.120654,27.9134995 724.167431,44.9100602 724.977607,65.4646683 C725.88399,88.5892774 699.082376,124.391118 679.703993,125.929879" id="Fill-101"></path>
                        <path d="M420.022307,53.2792296 C419.299284,32.7450331 436.258354,12.9955518 455.46519,12.0256242 C471.961919,11.1921688 492.01966,30.8490439 491.999986,47.8349625 C491.98523,65.36677 468.154982,88.9959617 449.499021,89.9756373 C434.871331,90.7457306 420.730575,73.145687 420.022307,53.2792296" id="Fill-103"></path>
                        <path d="M46.1611051,95.9707336 C20.0515001,95.1378279 -0.503842771,74.2757594 0.00940559352,49.1259517 C0.542980626,22.6701086 28.7259057,-2.03121139 55.8924973,0.13237191 C75.2688935,1.67990074 95.7683381,26.4452904 95.9970131,48.5788954 C96.2917498,76.3900583 74.7404001,96.8824942 46.1611051,95.9707336" id="Fill-105"></path>
                        <path d="M206.703993,245.92988 C188.996597,247.339048 169.699232,227.286744 168.094072,205.803675 C166.352195,182.47411 189.11306,152.579223 210.410545,150.209013 C231.120654,147.908991 251.172495,164.910797 251.977607,185.465218 C252.88399,208.589617 226.082376,244.385733 206.703993,245.92988" id="Fill-107"></path>
                        <path d="M504,307.505929 C503.9389,328.561628 477.935769,351.424271 456.326744,354.734469 C441.749308,356.961515 425.415248,344.905102 421.224808,328.875439 C417.278768,313.777085 422.899966,300.581843 437.619968,293.941199 C451.678054,287.604244 469.183197,281.277411 483.516233,283.428534 C492.844163,284.83056 499.218927,301.416985 504,307.505929" id="Fill-109"></path>
                    </g>
                </g>
            </g>
        </g>
    </g>
</svg>