<?xml version="1.0" standalone="no"?>
<!DOCTYPE svg PUBLIC "-//W3C//DTD SVG 1.1//EN" "http://www.w3.org/Graphics/SVG/1.1/DTD/svg11.dtd" >
<svg>
<metadata>
Created by FontForge 20090622 at Tue Jul  2 07:42:08 2019
 By deploy user
Copyright 2009, 2015 Indian Type Foundry. All rights reserved.
</metadata>
<defs>
<font id="FedraSansDevanagariB-Medium" horiz-adv-x="245" >
  <font-face 
    font-family="Fedra Sans Devanagari B Medium"
    font-weight="600"
    font-stretch="normal"
    units-per-em="1000"
    panose-1="2 0 0 0 0 0 0 0 0 0"
    ascent="780"
    descent="-220"
    x-height="467"
    cap-height="605"
    bbox="-497 -494 2064 982"
    underline-thickness="50"
    underline-position="-50"
    unicode-range="U+000D-U+FB02"
  />
<missing-glyph horiz-adv-x="712" 
d="M305 375v27h27v-27h-27zM380 525v27h27v-27h-27zM305 525v27h27v-27h-27zM230 525v27h27v-27h-27zM80 0v27h27v-27h-27zM155 0v27h27v-27h-27zM230 0v27h27v-27h-27zM305 0v27h27v-27h-27zM380 0v27h27v-27h-27zM80 75v27h27v-27h-27zM80 150v27h27v-27h-27zM80 225v27
h27v-27h-27zM80 300v27h27v-27h-27zM80 375v27h27v-27h-27zM80 450v27h27v-27h-27zM80 525v27h27v-27h-27zM80 600v27h27v-27h-27zM80 675v27h27v-27h-27zM155 675v27h27v-27h-27zM230 675v27h27v-27h-27zM305 675v27h27v-27h-27zM380 675v27h27v-27h-27zM455 675v27h27v-27
h-27zM530 675v27h27v-27h-27zM530 0v27h27v-27h-27zM455 0v27h27v-27h-27zM605 0v27h27v-27h-27zM605 675v27h27v-27h-27zM305 300v27h27v-27h-27zM305 150v27h27v-27h-27zM380 375v27h27v-27h-27zM455 375v27h27v-27h-27zM455 450v27h27v-27h-27zM455 525v27h27v-27h-27z
M605 600v27h27v-27h-27zM605 525v27h27v-27h-27zM605 375v27h27v-27h-27zM605 300v27h27v-27h-27zM605 150v27h27v-27h-27zM605 75v27h27v-27h-27zM605 225v27h27v-27h-27zM605 450v27h27v-27h-27z" />
    <glyph glyph-name=".notdef" horiz-adv-x="712" 
d="M305 375v27h27v-27h-27zM380 525v27h27v-27h-27zM305 525v27h27v-27h-27zM230 525v27h27v-27h-27zM80 0v27h27v-27h-27zM155 0v27h27v-27h-27zM230 0v27h27v-27h-27zM305 0v27h27v-27h-27zM380 0v27h27v-27h-27zM80 75v27h27v-27h-27zM80 150v27h27v-27h-27zM80 225v27
h27v-27h-27zM80 300v27h27v-27h-27zM80 375v27h27v-27h-27zM80 450v27h27v-27h-27zM80 525v27h27v-27h-27zM80 600v27h27v-27h-27zM80 675v27h27v-27h-27zM155 675v27h27v-27h-27zM230 675v27h27v-27h-27zM305 675v27h27v-27h-27zM380 675v27h27v-27h-27zM455 675v27h27v-27
h-27zM530 675v27h27v-27h-27zM530 0v27h27v-27h-27zM455 0v27h27v-27h-27zM605 0v27h27v-27h-27zM605 675v27h27v-27h-27zM305 300v27h27v-27h-27zM305 150v27h27v-27h-27zM380 375v27h27v-27h-27zM455 375v27h27v-27h-27zM455 450v27h27v-27h-27zM455 525v27h27v-27h-27z
M605 600v27h27v-27h-27zM605 525v27h27v-27h-27zM605 375v27h27v-27h-27zM605 300v27h27v-27h-27zM605 150v27h27v-27h-27zM605 75v27h27v-27h-27zM605 225v27h27v-27h-27zM605 450v27h27v-27h-27z" />
    <glyph glyph-name=".null" horiz-adv-x="0" 
 />
    <glyph glyph-name="nonmarkingreturn" horiz-adv-x="333" 
 />
    <glyph glyph-name="NULL" horiz-adv-x="0" 
 />
    <glyph glyph-name="NULL" horiz-adv-x="0" 
 />
    <glyph glyph-name="CR" unicode="&#xd;" horiz-adv-x="194" 
 />
    <glyph glyph-name="space" unicode=" " horiz-adv-x="237" 
 />
    <glyph glyph-name="exclam" unicode="!" horiz-adv-x="261" 
d="M97 165l-4 140v342h98v-342l-6 -140h-88zM89 0v95h104v-95h-104z" />
    <glyph glyph-name="quotedbl" unicode="&#x22;" horiz-adv-x="354" 
d="M52 478l-6 238h85l-7 -238h-72zM223 478l-6 238h85l-6 -238h-73z" />
    <glyph glyph-name="numbersign" unicode="#" horiz-adv-x="617" 
d="M360 0l8 133h-146l-8 -133h-89l7 133h-71v80h77l11 186h-88v79h92l9 132h90l-8 -132h145l8 132h91l-9 -132h77v-79h-82l-11 -186h93v-80h-98l-8 -133h-90zM239 399l-11 -186h146l10 186h-145z" />
    <glyph glyph-name="dollar" unicode="$" horiz-adv-x="497" 
d="M283 -74h-62v64q-101 1 -179 43l31 78q81 -36 148 -36v201q-37 15 -60 27t-50 33t-40 50.5t-13 68.5q0 67 46 109t117 52v60h62v-60q78 -2 139 -37l-29 -75q-61 26 -110 28v-181q42 -19 63 -30t52 -33.5t45 -51.5t14 -67q0 -75 -49.5 -118.5t-124.5 -55.5v-69zM354 164
q0 50 -71 85v-166q71 20 71 81zM158 455q0 -43 63 -77v151q-63 -17 -63 -74z" />
    <glyph glyph-name="percent" unicode="%" horiz-adv-x="697" 
d="M176 320q-63 0 -103.5 35.5t-40.5 107.5q0 71 42 112t104 41q63 0 104 -35.5t41 -111.5q0 -70 -42.5 -109.5t-104.5 -39.5zM176 389q28 0 46 20.5t18 59.5q0 77 -62 77q-26 0 -44 -20t-18 -63q0 -74 60 -74zM515 -8q-63 0 -103 35t-40 108q0 70 42 111t102 41
q64 0 105.5 -35.5t41.5 -111.5q0 -69 -42.5 -108.5t-105.5 -39.5zM515 62q28 0 46.5 20t18.5 58q0 78 -64 78q-25 0 -42.5 -20t-17.5 -63q0 -73 59 -73zM129 42l-53 54l477 458l53 -54z" />
    <glyph glyph-name="ampersand" unicode="&#x26;" horiz-adv-x="611" 
d="M189 444q0 -44 28 -94q37 23 56.5 37.5t36.5 36t17 43.5q0 26 -19 44t-49 18t-50 -21t-20 -64zM215 75q51 0 101 32q-72 53 -131 123q-51 -41 -51 -84q0 -34 22.5 -52.5t58.5 -18.5zM487 320l69 -51q-46 -88 -93 -144q72 -38 140 -48l-17 -84q-85 4 -191 63
q-84 -66 -185 -66q-86 0 -132.5 37t-46.5 108q0 87 106 162q-47 77 -47 144q0 68 46.5 120t129.5 52q77 0 116.5 -44.5t39.5 -101.5q0 -25 -10 -48t-22.5 -39.5t-38.5 -36.5t-41 -30l-47 -30q51 -61 126 -113q57 63 98 150z" />
    <glyph glyph-name="quotesingle" unicode="'" horiz-adv-x="195" 
d="M59 478l-6 238h90l-7 -238h-77z" />
    <glyph glyph-name="parenleft" unicode="(" horiz-adv-x="336" 
d="M263 -190q-58 45 -104.5 106.5t-83 166t-36.5 225.5q0 91 20.5 172.5t54.5 140.5t71 101t77 70l54 -55q-180 -155 -180 -429q0 -142 50 -254.5t128 -186.5z" />
    <glyph glyph-name="parenright" unicode=")" horiz-adv-x="336" 
d="M73 -190l-51 58q77 72 127 184t50 254q0 275 -179 431l53 55q89 -61 156 -186.5t67 -299.5q0 -93 -20 -174.5t-54 -142t-70.5 -104t-78.5 -75.5z" />
    <glyph glyph-name="asterisk" unicode="*" horiz-adv-x="467" 
d="M105 440l-37 65l115 43l18 -32zM183 572l-115 46l38 65l96 -78zM203 383l22 120h35l19 -120h-76zM223 618l-19 120h76l-19 -120h-38zM378 437l-95 78l18 33l115 -45zM300 573l-17 32l95 77l37 -65z" />
    <glyph glyph-name="plus" unicode="+" horiz-adv-x="474" 
d="M196 67v171l-171 -1v78l171 -2v174h77l-2 -176l177 4v-78l-177 1l2 -171h-77z" />
    <glyph glyph-name="comma" unicode="," horiz-adv-x="252" 
d="M48 -128q27 59 27 146v91h103v-62q0 -101 -44 -175h-86z" />
    <glyph glyph-name="hyphen" unicode="-" horiz-adv-x="448" 
d="M75 239v82h298v-82h-298z" />
    <glyph glyph-name="period" unicode="." horiz-adv-x="263" 
d="M75 0v113h113v-113h-113z" />
    <glyph glyph-name="slash" unicode="/" horiz-adv-x="388" 
d="M33 -62l233 829h90l-232 -829h-91z" />
    <glyph glyph-name="zero" unicode="0" horiz-adv-x="545" 
d="M507 311q0 -147 -57 -233t-182 -86q-230 0 -230 301q0 64 11.5 117.5t38 100t76 73t118.5 26.5q225 0 225 -299zM402 307q0 35 -1.5 60.5t-9 57.5t-20 52t-36.5 34t-58 14q-35 0 -61 -14.5t-40 -35.5t-22 -53.5t-10 -60.5t-2 -65q0 -46 5 -81t18 -68t40 -51t66 -18
q43 0 70.5 18.5t40 54.5t16.5 70.5t4 85.5z" />
    <glyph glyph-name="one" unicode="1" horiz-adv-x="393" 
d="M48 0v84h119v406l-123 -40v84l85.5 33.5l93.5 36.5h47v-520h113v-84h-335z" />
    <glyph glyph-name="two" unicode="2" horiz-adv-x="437" 
d="M414 0h-401v73q146 140 205 217q67 88 67 139q0 98 -98 98q-60 0 -124 -31l-33 71q72 45 167 45q191 0 191 -178q0 -45 -19.5 -90.5t-60 -93.5t-75 -82t-89.5 -84h270v-84z" />
    <glyph glyph-name="three" unicode="3" horiz-adv-x="416" 
d="M385 170q0 -178 -217 -178q-95 0 -155 20q0 1 5 21.5l10 40.5t5 21q60 -16 128 -16q58 0 89 21t31 71q0 53 -38 77t-122 29v75q134 8 134 97q0 37 -23 57t-64 20q-25 0 -51 -4t-39.5 -7.5t-16.5 -5.5q-1 1 -14.5 36t-14.5 36q64 31 140 31q81 0 132 -38t51 -111
q0 -56 -29 -90t-69 -49q55 -17 91.5 -56t36.5 -98z" />
    <glyph glyph-name="four" unicode="4" horiz-adv-x="470" 
d="M457 143h-90v-143h-102v143h-264v84l221 378h145v-378h90v-84zM265 227v291l-166 -291h166z" />
    <glyph glyph-name="five" unicode="5" horiz-adv-x="428" 
d="M410 188q0 -91 -61.5 -143.5t-157.5 -52.5q-95 0 -159 19l24 85q60 -15 134 -15q53 0 85 27t32 72q0 106 -108 106q-26 0 -39 -1q-36 0 -107 -6v326h328v-83h-229v-156q42 2 57 2q92 0 146.5 -47t54.5 -133z" />
    <glyph glyph-name="six" unicode="6" horiz-adv-x="485" 
d="M258 -10q-110 0 -164.5 63t-54.5 207q0 171 73.5 260.5t201.5 89.5q65 0 108 -15q0 -14 -22 -80q-43 9 -86 9q-63 0 -105 -41.5t-57 -124.5q56 26 115 26q97 0 148 -47.5t51 -139.5q0 -98 -59 -152.5t-149 -54.5zM257 304q-60 0 -116 -27v-21q0 -101 27.5 -142t94.5 -41
q45 0 72 32t27 85q0 114 -105 114z" />
    <glyph glyph-name="seven" unicode="7" horiz-adv-x="377" 
d="M388 533l-268 -542l-87 26l254 502h-282v86h383v-72z" />
    <glyph glyph-name="eight" unicode="8" horiz-adv-x="488" 
d="M241 -10q-95 0 -152.5 40t-57.5 117q0 59 35 98t95 72q-51 32 -79.5 65.5t-28.5 79.5q0 73 54 112.5t142 39.5q84 0 136 -42t52 -102q0 -50 -31 -83.5t-90 -67.5q66 -35 103.5 -72t37.5 -91q0 -81 -58.5 -123.5t-157.5 -42.5zM246 68q50 0 79 23.5t29 66.5q0 34 -31 62.5
t-87 59.5q-105 -58 -105 -124q0 -42 31 -65t84 -23zM241 352q93 50 93 106q0 36 -22 57t-64 21q-47 0 -70.5 -21.5t-23.5 -57.5q0 -56 87 -105z" />
    <glyph glyph-name="nine" unicode="9" horiz-adv-x="486" 
d="M169 -8q-62 0 -108 16l24 81q47 -10 85 -10q73 0 112.5 40.5t52.5 123.5q-64 -22 -117 -22q-198 0 -198 188q0 97 59 150.5t149 53.5q219 0 219 -271q0 -350 -278 -350zM229 301q50 0 114 22v40q-1 88 -30 127t-90 39q-46 0 -73 -30t-27 -82q0 -116 106 -116z" />
    <glyph glyph-name="colon" unicode=":" horiz-adv-x="298" 
d="M93 0v113h112v-113h-112zM93 433v113h112v-113h-112z" />
    <glyph glyph-name="semicolon" unicode=";" horiz-adv-x="296" 
d="M65 -128q29 59 29 132v105h108v-76q0 -91 -48 -161h-89zM91 433v113h113v-113h-113z" />
    <glyph glyph-name="less" unicode="&#x3c;" horiz-adv-x="427" 
d="M382 71l-352 160v89l352 165v-85l-274 -124l274 -120v-85z" />
    <glyph glyph-name="equal" unicode="=" horiz-adv-x="517" 
d="M65 138l-3 77h392v-77h-389zM65 336l-3 77h392v-77h-389z" />
    <glyph glyph-name="greater" unicode="&#x3e;" horiz-adv-x="427" 
d="M44 71v85l274 120l-274 124v85l352 -165v-89z" />
    <glyph glyph-name="question" unicode="?" horiz-adv-x="381" 
d="M105 148q-20 40 -20 82q0 34 15.5 63.5t38 51t45 40.5t38 39t15.5 39q0 48 -44 71.5t-127 31.5l16 85q112 -7 183.5 -52.5t71.5 -131.5q0 -37 -25.5 -72.5t-55.5 -58t-55.5 -52t-25.5 -55.5q0 -36 12 -67zM97 0v95h104v-95h-104z" />
    <glyph glyph-name="at" unicode="@" horiz-adv-x="695" 
d="M328 -63q-135 0 -212 72t-77 219q0 96 30 171.5t82.5 121.5t119 69.5t143.5 23.5q116 0 180.5 -62.5t64.5 -189.5q0 -113 -58 -178.5t-145 -65.5q-36 0 -58 16.5t-24 38.5q-14 -19 -37.5 -33t-43.5 -14q-47 0 -72 26t-25 90q0 79 48 130.5t128 51.5q57 0 111 -21
l-20 -170q-6 -35 20 -35q29 0 59 45t30 120q0 88 -43.5 132t-119.5 44q-124 0 -203 -76.5t-79 -230.5q0 -107 56 -161t152 -54q63 0 142 15l11 -72q-84 -23 -160 -23zM319 207q8 0 14 1t12 4l9 4.5t9.5 6.5t7.5 6l17 125q-6 3 -15 3q-35 0 -57 -29.5t-22 -77.5q0 -43 25 -43
z" />
    <glyph glyph-name="A" unicode="A" horiz-adv-x="591" 
d="M-10 0l237 605h150l211 -605h-122l-66 196h-218l-74 -196h-118zM214 282h157l-74 248z" />
    <glyph glyph-name="B" unicode="B" horiz-adv-x="560" 
d="M74 0v605h193q215 0 215 -162q0 -40 -20.5 -71.5t-52.5 -45.5v-1q45 -10 81 -47.5t36 -96.5q0 -181 -233 -181h-219zM409 178q0 49 -33 69.5t-105 20.5h-80v-175h93q63 0 94 19t31 66zM367 432q0 45 -29 64t-89 19h-58v-165h72q53 0 78.5 19t25.5 63z" />
    <glyph glyph-name="C" unicode="C" horiz-adv-x="570" 
d="M363 -10q-158 0 -243 81.5t-85 227.5q0 145 87 230t237 85q105 0 183 -35l-31 -86q-85 23 -150 23q-93 2 -149.5 -52.5t-56.5 -157.5t60 -159.5t161 -56.5q75 0 143 19l26 -89q-82 -30 -182 -30z" />
    <glyph glyph-name="D" unicode="D" horiz-adv-x="654" 
d="M74 0v605h197q161 0 253.5 -74t92.5 -226q0 -154 -89 -229.5t-252 -75.5h-202zM191 93h93q217 0 217 204q0 215 -233 215h-77v-419z" />
    <glyph glyph-name="E" unicode="E" horiz-adv-x="504" 
d="M74 0v605h377v-92h-260v-165h239v-87h-239v-168h278v-93h-395z" />
    <glyph glyph-name="F" unicode="F" horiz-adv-x="500" 
d="M74 0v605h398v-92h-281v-181h262v-87h-262v-245h-117z" />
    <glyph glyph-name="G" unicode="G" horiz-adv-x="599" 
d="M362 -9q-153 0 -240 79.5t-87 228.5q0 155 84.5 235t243.5 80q98 0 178 -35l-32 -86q-87 23 -147 23q-94 0 -151 -52.5t-57 -157.5t61.5 -160.5t158.5 -55.5q33 0 61 5v203h117v-274q-89 -33 -190 -33z" />
    <glyph glyph-name="H" unicode="H" horiz-adv-x="668" 
d="M74 0v605h117v-255h285v255h117v-605h-117v259h-285v-259h-117z" />
    <glyph glyph-name="I" unicode="I" horiz-adv-x="267" 
d="M75 0v605h117v-605h-117z" />
    <glyph glyph-name="J" unicode="J" horiz-adv-x="270" 
d="M-3 -166l-44 84q76 42 101 86t25 125v476h118v-474q0 -42 -3.5 -73t-15.5 -66.5t-33 -62t-58.5 -51.5t-89.5 -44z" />
    <glyph glyph-name="K" unicode="K" horiz-adv-x="580" 
d="M433 0l-242 316v-316h-117v605h117v-273l228 273h149l-250 -282l265 -323h-150z" />
    <glyph glyph-name="L" unicode="L" horiz-adv-x="459" 
d="M74 0v605h117v-511h263v-94h-380z" />
    <glyph glyph-name="M" unicode="M" horiz-adv-x="823" 
d="M191 0h-117v605h145l185 -505l206 505h139v-605h-117v289l5 129h-3l-165 -418h-137l-146 419h-2l7 -129v-290z" />
    <glyph glyph-name="N" unicode="N" horiz-adv-x="669" 
d="M191 0h-117v605h138l268 -456h2l-4 74v382h117v-605h-142l-262 448h-3l3 -80v-368z" />
    <glyph glyph-name="O" unicode="O" horiz-adv-x="702" 
d="M344 -10q-149 0 -229 84t-80 230q0 143 87.5 226.5t236.5 83.5q151 0 229.5 -85.5t78.5 -226.5q0 -145 -84.5 -228.5t-238.5 -83.5zM347 83q101 0 151 60t50 160q0 98 -50 158t-145 60q-99 0 -149.5 -59t-50.5 -157t49.5 -160t144.5 -62z" />
    <glyph glyph-name="P" unicode="P" horiz-adv-x="529" 
d="M76 0v605h219q100 0 160 -55t60 -151q0 -90 -69 -151t-195 -61h-59v-187h-116zM192 513v-235h64q70 0 104.5 32t34.5 86q0 117 -116 117h-87z" />
    <glyph glyph-name="Q" unicode="Q" horiz-adv-x="715" 
d="M684 17l-57 -50l-79 78q-82 -55 -204 -55q-149 0 -229 84t-80 230q0 143 87.5 226.5t236.5 83.5q151 0 229.5 -85.5t78.5 -226.5q0 -124 -63 -205zM347 83q78 0 126 37l-96 95l58 50l87 -86q26 49 26 124q0 98 -50 158t-145 60q-99 0 -149.5 -59t-50.5 -157t49.5 -160
t144.5 -62z" />
    <glyph glyph-name="R" unicode="R" horiz-adv-x="614" 
d="M72 0v605h218q101 0 161.5 -47t60.5 -142q0 -112 -104 -163l190 -253h-149l-157 226q-26 -2 -43 -2h-59v-224h-118zM190 308h64q137 0 137 104q0 55 -27.5 77.5t-90.5 22.5h-83v-204z" />
    <glyph glyph-name="S" unicode="S" horiz-adv-x="477" 
d="M214 -10q-105 0 -189 45l34 88q88 -35 154 -35q54 0 87.5 20.5t33.5 59.5q0 32 -30 54t-73 37.5t-86 35.5t-73 58.5t-30 94.5q0 78 60 122t144 44q101 0 174 -41l-34 -87q-72 31 -136 31q-42 0 -68 -19t-26 -52q0 -28 30.5 -49t74 -38t87 -37.5t74 -59t30.5 -90.5
q0 -61 -36 -103.5t-88.5 -60.5t-113.5 -18z" />
    <glyph glyph-name="T" unicode="T" horiz-adv-x="520" 
d="M202 0v512h-197v93h510v-93h-197v-512h-116z" />
    <glyph glyph-name="U" unicode="U" horiz-adv-x="658" 
d="M331 -11q-52 0 -97 12.5t-84.5 39t-62 76t-22.5 117.5v371h118v-367q0 -152 148 -152q149 0 149 171v348h115v-350q0 -74 -23 -127.5t-62.5 -82.5t-83.5 -42.5t-95 -13.5z" />
    <glyph glyph-name="V" unicode="V" horiz-adv-x="591" 
d="M213 0l-210 605h124l165 -516l190 516h119l-236 -605h-152z" />
    <glyph glyph-name="W" unicode="W" horiz-adv-x="888" 
d="M878 605l-174 -605h-156l-113 445l-123 -445h-158l-144 605h121l108 -532l150 532h109l131 -528l131 527z" />
    <glyph glyph-name="X" unicode="X" horiz-adv-x="555" 
d="M-2 0l215 311l-191 294h134l124 -205l132 205h130l-200 -292l203 -313h-135l-136 226l-145 -226h-131z" />
    <glyph glyph-name="Y" unicode="Y" horiz-adv-x="559" 
d="M220 0v205l-215 400h134l143 -300l152 300h130l-227 -397v-208h-117z" />
    <glyph glyph-name="Z" unicode="Z" horiz-adv-x="506" 
d="M27 0v83l293 424h-273v98h414v-77l-296 -430h312v-98h-450z" />
    <glyph glyph-name="bracketleft" unicode="[" horiz-adv-x="318" 
d="M87 -190v974h199v-79h-104v-816h104v-79h-199z" />
    <glyph glyph-name="backslash" unicode="\" horiz-adv-x="384" 
d="M259 -62l-233 829h89l233 -829h-89z" />
    <glyph glyph-name="bracketright" unicode="]" horiz-adv-x="318" 
d="M32 -190v79h105v816h-105v79h198v-974h-198z" />
    <glyph glyph-name="asciicircum" unicode="^" horiz-adv-x="457" 
d="M25 252l144 353h129l136 -353h-111l-90 267l-100 -267h-108z" />
    <glyph glyph-name="underscore" unicode="_" horiz-adv-x="469" 
d="M18 -159v93h433v-93h-433z" />
    <glyph glyph-name="grave" unicode="`" horiz-adv-x="493" 
d="M328 521l-190 93l39 81l186 -105z" />
    <glyph glyph-name="a" unicode="a" horiz-adv-x="490" 
d="M177 -8q-72 0 -112 36t-40 103q0 41 17.5 70.5t47.5 44t61 21t67 6.5h92v43q0 37 -22 51t-73 14q-64 0 -134 -21l-23 85q92 34 175 34q99 0 144 -33t45 -107v-228q0 -26 45 -28l-4 -86q-15 -2 -31 0q-98 2 -112 51q-72 -56 -143 -56zM310 110v94l-84 -2q-41 -2 -65 -18
t-24 -46q0 -28 18 -42t46 -14q51 0 109 28z" />
    <glyph glyph-name="b" unicode="b" horiz-adv-x="526" 
d="M246 -9q-100 0 -186 28v626h113v-192q60 25 108 25q211 0 211 -221q0 -72 -20 -125.5t-55.5 -83t-77.5 -43.5t-93 -14zM261 391q-43 0 -88 -19v-281q54 -9 74 -9q60 0 94.5 47t34.5 124q0 72 -26 105t-89 33z" />
    <glyph glyph-name="c" unicode="c" horiz-adv-x="437" 
d="M290 -9q-137 0 -198 57.5t-61 187.5q0 111 65.5 177t176.5 66q84 0 141 -31l-31 -84q-49 21 -106 21t-92.5 -36.5t-35.5 -113.5q0 -81 31.5 -116.5t116.5 -35.5q30 0 96 12l17 -87q-68 -17 -120 -17z" />
    <glyph glyph-name="d" unicode="d" horiz-adv-x="523" 
d="M236 -8q-38 0 -70.5 10.5t-64.5 35.5t-50.5 76t-18.5 123q0 117 68 179.5t174 62.5q36 0 74 -7v173h114v-645h-114v38q-56 -46 -112 -46zM257 88q45 0 91 29v262q-36 9 -72 9q-65 0 -97.5 -40.5t-32.5 -112.5q0 -147 111 -147z" />
    <glyph glyph-name="e" unicode="e" horiz-adv-x="483" 
d="M273 -10q-118 0 -179 52.5t-61 183.5q0 253 227 253q99 0 145.5 -62.5t46.5 -173.5v-41h-305q0 -68 36.5 -94t108.5 -26q56 0 129 20l18 -86q-75 -26 -166 -26zM150 278h185q0 53 -21 85.5t-64 32.5t-69.5 -30t-30.5 -88z" />
    <glyph glyph-name="f" unicode="f" horiz-adv-x="315" 
d="M88 0v386h-68v81h68v23q0 168 173 168q40 0 79 -12l-19 -86q-28 7 -56 7q-62 0 -62 -77v-23h99v-81h-99v-386h-115z" />
    <glyph glyph-name="g" unicode="g" horiz-adv-x="520" 
d="M245 -196q-105 0 -180 28l19 97q75 -26 146 -26q59 0 88 21t29 76v19q-38 -24 -90 -24q-50 0 -87.5 9.5t-70 34t-50 73t-17.5 120.5q0 116 70.5 181.5t175.5 65.5q91 0 183 -23v-467q0 -91 -64.5 -138t-151.5 -47zM266 81q41 0 80 17v277q-42 10 -69 10q-66 0 -99 -41
t-33 -113q0 -82 31.5 -116t89.5 -34z" />
    <glyph glyph-name="h" unicode="h" horiz-adv-x="540" 
d="M61 0v645h114v-229q77 62 157 62q51 0 83 -13.5t46 -42t18 -55.5t4 -72v-295h-113v284q0 54 -14.5 74t-60.5 20q-55 0 -120 -37v-341h-114z" />
    <glyph glyph-name="i" unicode="i" horiz-adv-x="241" 
d="M64 0v467h114v-467h-114zM63 559v110h114v-110h-114z" />
    <glyph glyph-name="j" unicode="j" horiz-adv-x="240" 
d="M0 -189q-44 0 -91 15l21 90q1 0 13 -2t28 -4t26 -2q36 0 51 19.5t15 68.5v471h114v-472q0 -105 -47.5 -144.5t-129.5 -39.5zM61 559v110h114v-110h-114z" />
    <glyph glyph-name="k" unicode="k" horiz-adv-x="488" 
d="M482 0h-142l-162 222v-222h-115v645h115v-374l159 196h125l-183 -216z" />
    <glyph glyph-name="l" unicode="l" horiz-adv-x="237" 
d="M61 0v645h114v-645h-114z" />
    <glyph glyph-name="m" unicode="m" horiz-adv-x="825" 
d="M61 0v467h114v-50q83 62 153 62q99 0 130 -70q79 70 163 70q42 0 71 -12t44 -28t22.5 -44.5t8.5 -47t1 -51.5v-296h-115v285q0 51 -14.5 72.5t-57.5 21.5q-50 0 -112 -36q2 -15 2 -46v-297h-114v285q0 54 -14 73.5t-57 19.5q-55 0 -111 -36v-342h-114z" />
    <glyph glyph-name="n" unicode="n" horiz-adv-x="540" 
d="M61 0v467h114v-50q79 62 157 62q51 0 83 -13.5t46.5 -42t18.5 -56t4 -71.5v-296h-114v285q0 55 -14.5 75t-60.5 20q-57 0 -120 -37v-343h-114z" />
    <glyph glyph-name="o" unicode="o" horiz-adv-x="525" 
d="M258 -10q-108 0 -167.5 63.5t-59.5 175.5q0 116 63.5 183t169.5 67q114 0 171.5 -63.5t57.5 -181.5q0 -117 -65 -180.5t-170 -63.5zM263 82q113 0 113 152q0 153 -114 153q-116 0 -116 -154q0 -151 117 -151z" />
    <glyph glyph-name="p" unicode="p" horiz-adv-x="527" 
d="M61 -188v655h113v-35q20 16 54.5 31.5t65.5 15.5q201 0 201 -226q0 -137 -70.5 -199.5t-179.5 -62.5q-19 0 -71 5v-184h-113zM248 80q62 0 97 44.5t35 121.5q0 71 -28 104t-90 33q-32 0 -88 -25v-272q2 0 29 -3t45 -3z" />
    <glyph glyph-name="q" unicode="q" horiz-adv-x="522" 
d="M348 -188v206q-46 -26 -100 -26q-216 0 -216 247q0 115 68.5 177.5t173.5 62.5q102 0 188 -24v-643h-114zM257 88q44 0 91 17v274q-38 9 -72 9q-65 0 -97.5 -40.5t-32.5 -111.5q0 -148 111 -148z" />
    <glyph glyph-name="r" unicode="r" horiz-adv-x="360" 
d="M61 0v467h114v-62q21 29 54 50.5t72 21.5q36 0 60 -8l-16 -94q-29 5 -58 5q-33 0 -64 -15t-48 -36v-329h-114z" />
    <glyph glyph-name="s" unicode="s" horiz-adv-x="410" 
d="M188 -10q-91 0 -157 19l14 88q90 -15 133 -15q94 0 94 48q0 17 -17.5 29t-43.5 19.5t-56.5 20t-56.5 27.5t-43.5 44t-17.5 68q0 67 52.5 104t128.5 37q73 0 143 -24l-20 -85q-63 17 -120 17q-70 0 -70 -43q0 -20 24 -34.5t58.5 -26.5t68.5 -27.5t58 -46t24 -73.5
q0 -40 -19 -70.5t-50 -46t-63 -22.5t-64 -7z" />
    <glyph glyph-name="t" unicode="t" horiz-adv-x="384" 
d="M248 -10q-83 0 -123.5 33.5t-40.5 117.5v240h-68v86h68v96h114v-96h145v-86h-145v-234q0 -36 14 -48t50 -12q37 0 93 13l12 -91q-52 -19 -119 -19z" />
    <glyph glyph-name="u" unicode="u" horiz-adv-x="538" 
d="M207 -10q-41 0 -70 10.5t-44.5 25.5t-24 41.5t-10.5 49t-2 57.5v293h114v-282q0 -54 14.5 -74.5t59.5 -20.5q60 0 119 36v341h114v-467h-114v51q-79 -61 -156 -61z" />
    <glyph glyph-name="v" unicode="v" horiz-adv-x="479" 
d="M167 0l-165 467h122l87 -276l27 -96l29 96l95 276h120l-177 -467h-138z" />
    <glyph glyph-name="w" unicode="w" horiz-adv-x="763" 
d="M142 0l-129 467h120l83 -375l101 375h137l89 -375l97 375h117l-145 -467h-143l-70 285l-17 75l-18 -75l-78 -285h-144z" />
    <glyph glyph-name="x" unicode="x" horiz-adv-x="478" 
d="M5 0l169 239l-158 228h132l91 -158l92 158h129l-157 -228l170 -239h-136l-99 167l-99 -167h-134z" />
    <glyph glyph-name="y" unicode="y" horiz-adv-x="477" 
d="M139 -188l63 188h-43l-157 467h122l88 -295l23 -83l26 83l100 295h116l-229 -655h-109z" />
    <glyph glyph-name="z" unicode="z" horiz-adv-x="437" 
d="M28 0v78l239 297h-222v92h356v-75l-236 -300h240v-92h-377z" />
    <glyph glyph-name="braceleft" unicode="{" horiz-adv-x="326" 
d="M311 -191h-31q-92 0 -140 33t-47 113q0 11 5 56q0 2 8 82.5t8 81.5q3 34 -18 60.5t-62 26.5v82q41 0 61.5 26.5t18.5 61.5q0 2 -8 83.5t-8 82.5q-5 45 -5 60q1 143 187 143h31v-84h-30q-100 0 -91 -93l19 -174q3 -27 0 -48q-7 -75 -72 -98v-1q69 -26 73 -105
q2 -20 -1 -40l-19 -175q-10 -91 91 -91h30v-83z" />
    <glyph glyph-name="bar" unicode="|" horiz-adv-x="247" 
d="M78 -190v974h90v-974h-90z" />
    <glyph glyph-name="braceright" unicode="}" horiz-adv-x="326" 
d="M47 -191h-32v83h30q101 0 91 91l-19 175q-3 30 1 50q9 71 71 95v1q-58 20 -70 87q-5 27 -2 59l19 174q11 93 -91 93h-30v84h32q185 0 186 -143q0 -24 -4 -60q0 -1 -9 -82.5t-9 -83.5q-2 -35 19 -61.5t62 -26.5v-82q-41 0 -62 -26.5t-19 -60.5q0 -2 9 -82.5t9 -81.5
q4 -36 4 -56q1 -80 -47 -113t-139 -33z" />
    <glyph glyph-name="asciitilde" unicode="~" horiz-adv-x="470" 
d="M312 220q-41 0 -91 25.5t-71 25.5q-36 0 -70 -28l-53 72q61 70 127 70q41 0 88 -25.5t71 -25.5h8h9t9 1t11.5 2.5t11.5 4.5t14 8t15 12l53 -67q-20 -30 -58.5 -52.5t-73.5 -22.5z" />
    <glyph glyph-name="uni00A0" unicode="&#xa0;" horiz-adv-x="237" 
 />
    <glyph glyph-name="exclamdown" unicode="&#xa1;" horiz-adv-x="248" 
d="M75 295h101l6 -146v-287h-114v287zM67 467h117v-107h-117v107z" />
    <glyph glyph-name="cent" unicode="&#xa2;" horiz-adv-x="424" 
d="M211 0l1 88q-94 13 -136.5 70.5t-42.5 168.5q0 95 47.5 158.5t130.5 78.5l-2 86h92l-3 -82q60 -5 101 -29l-27 -74q-55 22 -104 22q-59 0 -96 -40.5t-37 -120.5q0 -87 33 -124.5t123 -37.5q17 0 33 2t34 5.5t24 4.5l14 -78q-54 -12 -89 -13q-2 -1 -8 -1l2 -84h-90z" />
    <glyph glyph-name="sterling" unicode="&#xa3;" horiz-adv-x="439" 
d="M354 208h-156q-14 -89 -45 -127h264v-81h-373v81q47 24 61 127h-76v80h82v25v31.5v27.5v61q0 48 15.5 81.5t37.5 51.5t58 28.5t64.5 13t70.5 2.5l3 -82q-36 -2 -53 -4t-39.5 -7.5t-32 -15.5t-17 -27.5t-7.5 -43.5q2 -26 0 -50q0 -48 -3 -92h146v-80z" />
    <glyph glyph-name="currency" unicode="&#xa4;" horiz-adv-x="463" 
d="M83 105l-45 44l58 59q-35 40 -35 93q0 56 35 94l-58 59l44 43l64 -65q40 19 85 19q46 0 86 -19l64 65l44 -43l-58 -59q34 -37 34 -94q0 -56 -35 -93l59 -59l-44 -44l-64 66q-39 -18 -86 -18q-48 0 -84 18zM231 235q34 0 50 18.5t16 47.5q1 30 -15.5 48.5t-50.5 18.5
q-33 0 -50 -19t-17 -48q0 -28 17.5 -47t49.5 -19z" />
    <glyph glyph-name="yen" unicode="&#xa5;" horiz-adv-x="582" 
d="M557 610l-181 -321h151v-81h-192v-82h192v-82h-191l-1 -44h-101v44h-181v82h181v82h-181v81h142l-169 321h116l146 -306l157 306h112z" />
    <glyph glyph-name="brokenbar" unicode="&#xa6;" horiz-adv-x="261" 
d="M79 -188v309h103v-309h-103zM79 336v309h103v-309h-103z" />
    <glyph glyph-name="section" unicode="&#xa7;" horiz-adv-x="458" 
d="M95 -184q-65 0 -102 32q1 3 15 41.5t15 41.5l3 -3l9 -4.5l12 -6t14 -6.5t15.5 -5t16.5 -2q34 0 34 65q0 28 -11 96q-2 8 -28 128.5t-29 137.5q-9 50 -9 84q0 103 80 168.5t194 65.5q86 0 141 -49q-42 -64 -49 -71q-40 34 -89 34q-40 0 -40 -51q0 -11 9 -71l57 -255
q17 -82 17 -141q0 -98 -80.5 -163.5t-194.5 -65.5zM205 550q-55 -36 -55 -124q-1 -31 6 -77l61 -286q6 -38 7 -72q0 -29 -14 -80h1q62 46 62 126q0 30 -10 84l-59 284q-7 32 -7 77q0 36 8 68z" />
    <glyph glyph-name="dieresis" unicode="&#xa8;" horiz-adv-x="359" 
d="M126 555h-107v111h107v-111zM338 555h-107v111h107v-111z" />
    <glyph glyph-name="copyright" unicode="&#xa9;" horiz-adv-x="682" 
d="M357 69q-80 0 -126.5 48.5t-46.5 122.5q0 79 45.5 126.5t125.5 47.5q69 0 108 -24l-21 -56q-41 14 -85 14q-45 0 -73 -26.5t-28 -78.5q0 -51 29.5 -77.5t78.5 -26.5q46 0 81 12l19 -62q-49 -20 -107 -20zM334 -67q-139 0 -217 84t-78 225q0 142 85 224t226 82t217 -84.5
t76 -222.5q0 -141 -82.5 -224.5t-226.5 -83.5zM337 -14q118 0 180.5 70.5t62.5 185.5q0 112 -63.5 182.5t-174.5 70.5q-114 0 -177 -70t-63 -182q0 -111 62 -184t173 -73z" />
    <glyph glyph-name="ordfeminine" unicode="&#xaa;" horiz-adv-x="358" 
d="M139 332q-42 0 -66 20.5t-24 59.5q0 80 113 80l49 1v25q0 18 -11 24t-40 6q-24 0 -78 -12l-16 54q51 20 106 20q34 0 55 -3.5t39 -22t18 -53.5v-127q0 -12 24 -14l-4 -56q-73 -2 -86 28q-41 -30 -79 -30zM149 390q10 0 35 8t27 8v40l-45 -2q-44 0 -44 -27t27 -27zM50 249
v57h262v-57h-262z" />
    <glyph glyph-name="guillemotleft" unicode="&#xab;" horiz-adv-x="452" 
d="M152 57l-112 223l112 221l67 -26l-90 -195l89 -192zM337 57l-111 223l111 221l66 -26l-88 -195l88 -192z" />
    <glyph glyph-name="logicalnot" unicode="&#xac;" horiz-adv-x="510" 
d="M360 87v133h-316v89h411v-222h-95z" />
    <glyph glyph-name="uni00AD" unicode="&#xad;" horiz-adv-x="448" 
d="M75 239v82h298v-82h-298z" />
    <glyph glyph-name="registered" unicode="&#xae;" horiz-adv-x="466" 
d="M436 455q0 -89 -57 -140.5t-145 -51.5q-37 0 -71 10.5t-65 32t-49.5 60t-18.5 89.5q0 90 57.5 142t146.5 52q84 0 143 -48.5t59 -145.5zM394 455q0 76 -46.5 116t-113.5 40q-70 0 -116 -38.5t-46 -115.5q0 -37 12 -66t29.5 -45.5t41.5 -27t44 -14t40 -3.5
q68 0 111.5 40.5t43.5 113.5zM205 355h-52v216h84q37 0 59.5 -18t22.5 -52q0 -39 -37 -59q20 -30 28 -39q7 -7 33 -20l-6 -33q-42 2 -65 23q-14 11 -39 60h-28v-78zM270 501q0 19 -7.5 27.5t-28.5 8.5h-30v-74h28q38 0 38 38z" />
    <glyph glyph-name="macron" unicode="&#xaf;" horiz-adv-x="466" 
d="M99 562v90h262v-90h-262z" />
    <glyph glyph-name="degree" unicode="&#xb0;" horiz-adv-x="330" 
d="M164 349q-64 0 -99 34.5t-35 98.5q0 59 38.5 95.5t96.5 36.5q61 0 98 -35.5t37 -96.5t-38 -97t-98 -36zM165 420q50 0 50 62q0 60 -50 60q-51 0 -51 -60q0 -62 51 -62z" />
    <glyph glyph-name="plusminus" unicode="&#xb1;" horiz-adv-x="450" 
d="M180 110l1 142l-142 -1v88l142 -2l-1 142h89l-3 -144l145 4v-88l-143 1l1 -142h-89zM39 0v88h372v-88h-372z" />
    <glyph glyph-name="twosuperior" unicode="&#xb2;" horiz-adv-x="258" 
d="M12 354v55q139 101 139 150q0 16 -11 26t-30 10q-34 0 -63 -19l-14 27t-14 28q44 36 107 36q51 0 81 -28t30 -70q0 -79 -125 -148h128v-67h-228z" />
    <glyph glyph-name="threesuperior" unicode="&#xb3;" horiz-adv-x="256" 
d="M111 349q-51 0 -97 14l14 62q39 -10 75 -10q52 0 52 39q0 22 -18 31t-59 11v38q37 4 50 14t13 30q-3 27 -35 27q-33 0 -63 -12l-18 55q37 20 90 20q110 0 110 -82q0 -46 -42 -65q57 -18 57 -75q0 -51 -36 -74t-93 -23z" />
    <glyph glyph-name="acute" unicode="&#xb4;" horiz-adv-x="473" 
d="M165 521l-34 69l185 105l40 -81z" />
    <glyph glyph-name="uni00B5" unicode="&#xb5;" horiz-adv-x="561" 
d="M61 -188v655h113v-294q0 -48 16 -66.5t58 -18.5q49 0 117 37v342h115v-356q0 -21 24 -26q3 -1 26 -1l-3 -87q-22 -2 -43 -2q-99 0 -112 60q-88 -67 -161 -67q-29 0 -37 11v-187h-113z" />
    <glyph glyph-name="paragraph" unicode="&#xb6;" horiz-adv-x="520" 
d="M278 -192q-48 0 -88 15l21 95q42 -10 68 -10q36 0 51 19t15 68v610h114v-611q0 -186 -181 -186zM193 208q-86 0 -130 52t-44 149q0 59 16.5 99t48.5 60t69 28.5t87 8.5h51v-397h-98z" />
    <glyph glyph-name="periodcentered" unicode="&#xb7;" horiz-adv-x="209" 
d="M159 267h-108v118h108v-118z" />
    <glyph glyph-name="cedilla" unicode="&#xb8;" horiz-adv-x="392" 
d="M162 -229l-39 68q1 1 10.5 6.5t12 7.5t10.5 7.5t11 9l7.5 9t6 11t1.5 11.5q0 19 -14 55h92q19 -36 19 -67q0 -67 -117 -118z" />
    <glyph glyph-name="onesuperior" unicode="&#xb9;" horiz-adv-x="201" 
d="M77 354v241h-64v66q137 3 149 4v-311h-85z" />
    <glyph glyph-name="ordmasculine" unicode="&#xba;" horiz-adv-x="366" 
d="M313 249h-261v57h261v-57zM183 389q34 0 47.5 20.5t13.5 60.5q0 82 -61 82t-61 -83q0 -80 61 -80zM181 328q-64 0 -99.5 37t-35.5 102q0 68 37.5 107t100.5 39q137 0 137 -143q0 -68 -38.5 -105t-101.5 -37z" />
    <glyph glyph-name="guillemotright" unicode="&#xbb;" horiz-adv-x="452" 
d="M114 57l-65 31l88 192l-90 195l67 26l112 -221zM300 57l-66 31l87 192l-88 195l67 26l111 -221z" />
    <glyph glyph-name="onequarter" unicode="&#xbc;" horiz-adv-x="645" 
d="M103 341v238h-63v62q3 0 142 3v-303h-79zM500 0v68h-133v58l100 176h106v-176h44v-58h-44v-68h-73zM426 126h74v130zM97 53l-41 44l443 450l42 -42z" />
    <glyph glyph-name="onehalf" unicode="&#xbd;" horiz-adv-x="650" 
d="M98 341v238h-65v62q19 1 71.5 2t71.5 1v-303h-78zM87 53l-43 44l442 450l42 -42zM380 0v54q139 97 139 150q0 16 -11.5 25.5t-28.5 9.5q-30 0 -64 -21q-24 45 -26 51q40 35 102 35q49 0 77 -26.5t28 -67.5q0 -75 -115 -146h119v-64h-220z" />
    <glyph glyph-name="threequarters" unicode="&#xbe;" horiz-adv-x="655" 
d="M127 336q-50 0 -93 13q0 3 1.5 10t5 20t5.5 25q35 -9 75 -9q24 0 38 10.5t14 29.5q0 23 -18 31.5t-60 11.5v40q36 4 50 13t14 29q0 14 -10.5 22.5t-27.5 8.5q-20 0 -58 -14l-18 49q39 21 86 21q49 0 77.5 -20t28.5 -60q0 -20 -13.5 -38t-36.5 -27q28 -7 46 -26t18 -46
q0 -50 -34.5 -72t-89.5 -22zM501 0v68h-133v58l100 176h106v-176h44v-58h-44v-68h-73zM427 126h74v122zM110 53l-43 44l445 450l40 -42z" />
    <glyph glyph-name="questiondown" unicode="&#xbf;" horiz-adv-x="325" 
d="M281 -140q-261 19 -261 176q0 29 16.5 56.5t39.5 47.5t46 38t39.5 36t16.5 35q0 32 -10 53l93 16q17 -38 17 -76q0 -37 -22 -70.5t-48 -53t-48 -41t-22 -37.5q0 -71 163 -86zM150 360v107h115v-107h-115z" />
    <glyph glyph-name="Agrave" unicode="&#xc0;" horiz-adv-x="591" 
d="M378 636l-217 50l21 91l214 -62zM-10 0l237 605h150l211 -605h-122l-66 196h-218l-74 -196h-118zM214 282h157l-74 248z" />
    <glyph glyph-name="Aacute" unicode="&#xc1;" horiz-adv-x="591" 
d="M222 636l-18 78l214 63l21 -90zM-10 0l237 605h150l211 -605h-122l-66 196h-218l-74 -196h-118zM214 282h157l-74 248z" />
    <glyph glyph-name="Acircumflex" unicode="&#xc2;" horiz-adv-x="591" 
d="M185 636l-40 74l154 78l152 -78l-41 -74l-112 53zM-10 0l237 605h150l211 -605h-122l-66 196h-218l-74 -196h-118zM214 282h157l-74 248z" />
    <glyph glyph-name="Atilde" unicode="&#xc3;" horiz-adv-x="591" 
d="M352 647q-21 0 -56 16.5t-51 16.5q-30 0 -60 -24l-44 53q53 59 111 59q28 0 60 -15.5t44 -15.5q33 0 69 22l38 -53q-50 -59 -111 -59zM-10 0l237 605h150l211 -605h-122l-66 196h-218l-74 -196h-118zM214 282h157l-74 248z" />
    <glyph glyph-name="Adieresis" unicode="&#xc4;" horiz-adv-x="591" 
d="M-10 0l237 605h150l211 -605h-122l-66 196h-218l-74 -196h-118zM214 282h157l-74 248zM244 651h-107v111h107v-111zM456 651h-107v111h107v-111z" />
    <glyph glyph-name="Aring" unicode="&#xc5;" horiz-adv-x="591" 
d="M303 636q-43 0 -73.5 21t-30.5 68q0 44 30 68.5t71 24.5q39 0 71 -22t32 -70q0 -43 -29 -66.5t-71 -23.5zM301 682q44 0 47 43q0 20 -13.5 32t-33.5 12q-46 0 -46 -42q0 -21 12.5 -33t33.5 -12zM-10 0l237 605h150l211 -605h-122l-66 196h-218l-74 -196h-118zM214 282
h157l-74 248z" />
    <glyph glyph-name="AE" unicode="&#xc6;" horiz-adv-x="809" 
d="M-20 0l300 605h474v-92h-258v-165h239v-87h-239v-168h277v-93h-394v230h-159l-107 -230h-133zM257 317h122v196h-31z" />
    <glyph glyph-name="Ccedilla" unicode="&#xc7;" horiz-adv-x="570" 
d="M363 -10q-158 0 -243 81.5t-85 227.5q0 145 87 230t237 85q105 0 183 -35l-31 -86q-85 23 -150 23q-93 2 -149.5 -52.5t-56.5 -157.5t60 -159.5t161 -56.5q75 0 143 19l26 -89q-82 -30 -182 -30zM293 -229l-39 68q1 1 10.5 6.5t12 7.5t10.5 7.5t11 9l7.5 9t6 11t1.5 11.5
q0 19 -14 55h92q19 -36 19 -67q0 -67 -117 -118z" />
    <glyph glyph-name="Egrave" unicode="&#xc8;" horiz-adv-x="504" 
d="M346 636l-217 50l21 91l213 -62zM74 0v605h377v-92h-260v-165h239v-87h-239v-168h278v-93h-395z" />
    <glyph glyph-name="Eacute" unicode="&#xc9;" horiz-adv-x="504" 
d="M410 690l-208 -52l-24 73l205 64zM74 0v605h377v-92h-260v-165h239v-87h-239v-168h278v-93h-395z" />
    <glyph glyph-name="Ecircumflex" unicode="&#xca;" horiz-adv-x="504" 
d="M114 710l153 78l153 -78l-41 -74l-112 53l-113 -53zM74 0v605h377v-92h-260v-165h239v-87h-239v-168h278v-93h-395z" />
    <glyph glyph-name="Edieresis" unicode="&#xcb;" horiz-adv-x="504" 
d="M74 0v605h377v-92h-260v-165h239v-87h-239v-168h278v-93h-395zM208 651h-107v111h107v-111zM420 651h-107v111h107v-111z" />
    <glyph glyph-name="Igrave" unicode="&#xcc;" horiz-adv-x="267" 
d="M195 636l-216 50l20 91l215 -62zM75 0v605h117v-605h-117z" />
    <glyph glyph-name="Iacute" unicode="&#xcd;" horiz-adv-x="267" 
d="M72 636l-17 78l214 63l20 -90zM75 0v605h117v-605h-117z" />
    <glyph glyph-name="Icircumflex" unicode="&#xce;" horiz-adv-x="267" 
d="M19 636l-40 74l154 78l152 -78l-40 -74l-112 53zM75 0v605h117v-605h-117z" />
    <glyph glyph-name="Idieresis" unicode="&#xcf;" horiz-adv-x="267" 
d="M75 0v605h117v-605h-117zM82 651h-107v111h107v-111zM294 651h-107v111h107v-111z" />
    <glyph glyph-name="Eth" unicode="&#xd0;" horiz-adv-x="679" 
d="M34 263v73h65v269h197q161 0 253.5 -74t92.5 -226q0 -154 -89 -229.5t-252 -75.5h-202v263h-65zM216 93h93q217 0 217 204q0 215 -233 215h-77v-176h124v-73h-124v-170z" />
    <glyph glyph-name="Ntilde" unicode="&#xd1;" horiz-adv-x="669" 
d="M391 647q-22 0 -57 16.5t-50 16.5q-31 0 -60 -24l-44 53q51 59 110 59q28 0 60 -15.5t44 -15.5q32 0 69 22l39 -53q-50 -59 -111 -59zM191 0h-117v605h138l268 -456h2l-4 74v382h117v-605h-142l-262 448h-3l3 -80v-368z" />
    <glyph glyph-name="Ograve" unicode="&#xd2;" horiz-adv-x="702" 
d="M430 636l-217 50l21 91l214 -62zM344 -10q-149 0 -229 84t-80 230q0 143 87.5 226.5t236.5 83.5q151 0 229.5 -85.5t78.5 -226.5q0 -145 -84.5 -228.5t-238.5 -83.5zM347 83q101 0 151 60t50 160q0 98 -50 158t-145 60q-99 0 -149.5 -59t-50.5 -157t49.5 -160t144.5 -62z
" />
    <glyph glyph-name="Oacute" unicode="&#xd3;" horiz-adv-x="702" 
d="M276 636l-17 78l213 63l21 -90zM344 -10q-149 0 -229 84t-80 230q0 143 87.5 226.5t236.5 83.5q151 0 229.5 -85.5t78.5 -226.5q0 -145 -84.5 -228.5t-238.5 -83.5zM347 83q101 0 151 60t50 160q0 98 -50 158t-145 60q-99 0 -149.5 -59t-50.5 -157t49.5 -160t144.5 -62z
" />
    <glyph glyph-name="Ocircumflex" unicode="&#xd4;" horiz-adv-x="702" 
d="M239 636l-41 74l154 78l153 -78l-41 -74l-112 53zM344 -10q-149 0 -229 84t-80 230q0 143 87.5 226.5t236.5 83.5q151 0 229.5 -85.5t78.5 -226.5q0 -145 -84.5 -228.5t-238.5 -83.5zM347 83q101 0 151 60t50 160q0 98 -50 158t-145 60q-99 0 -149.5 -59t-50.5 -157
t49.5 -160t144.5 -62z" />
    <glyph glyph-name="Otilde" unicode="&#xd5;" horiz-adv-x="702" 
d="M406 647q-22 0 -57 16.5t-50 16.5q-31 0 -60 -24l-44 53q51 59 111 59q28 0 59.5 -15.5t43.5 -15.5q33 0 69 22l40 -53q-53 -59 -112 -59zM344 -10q-149 0 -229 84t-80 230q0 143 87.5 226.5t236.5 83.5q151 0 229.5 -85.5t78.5 -226.5q0 -145 -84.5 -228.5t-238.5 -83.5
zM347 83q101 0 151 60t50 160q0 98 -50 158t-145 60q-99 0 -149.5 -59t-50.5 -157t49.5 -160t144.5 -62z" />
    <glyph glyph-name="Odieresis" unicode="&#xd6;" horiz-adv-x="702" 
d="M344 -10q-149 0 -229 84t-80 230q0 143 87.5 226.5t236.5 83.5q151 0 229.5 -85.5t78.5 -226.5q0 -145 -84.5 -228.5t-238.5 -83.5zM347 83q101 0 151 60t50 160q0 98 -50 158t-145 60q-99 0 -149.5 -59t-50.5 -157t49.5 -160t144.5 -62zM299 651h-107v111h107v-111z
M511 651h-107v111h107v-111z" />
    <glyph glyph-name="multiply" unicode="&#xd7;" horiz-adv-x="466" 
d="M370 65l-138 140l-134 -137l-63 63l136 135l-135 134l61 64l134 -138l136 137l63 -63l-141 -136l141 -135z" />
    <glyph glyph-name="Oslash" unicode="&#xd8;" horiz-adv-x="725" 
d="M354 -10q-121 0 -197 56l-76 -78l-50 49l76 78q-62 80 -62 209q0 143 87.5 226.5t236.5 83.5q114 0 190 -52l73 76l51 -48l-73 -75q67 -82 67 -213q0 -145 -84.5 -228.5t-238.5 -83.5zM163 305q0 -70 26 -125l294 304q-46 37 -120 37q-99 0 -149.5 -59t-50.5 -157z
M357 83q101 0 151 60t50 160q0 75 -29 128l-297 -307q49 -41 125 -41z" />
    <glyph glyph-name="Ugrave" unicode="&#xd9;" horiz-adv-x="660" 
d="M408 636l-216 50l21 91l214 -62zM332 -11q-52 0 -97 12.5t-84.5 39t-62 76t-22.5 117.5v371h118v-367q0 -152 148 -152q149 0 149 171v348h115v-350q0 -74 -23 -127.5t-62.5 -82.5t-83.5 -42.5t-95 -13.5z" />
    <glyph glyph-name="Uacute" unicode="&#xda;" horiz-adv-x="660" 
d="M266 636l-17 78l214 63l20 -90zM332 -11q-52 0 -97 12.5t-84.5 39t-62 76t-22.5 117.5v371h118v-367q0 -152 148 -152q149 0 149 171v348h115v-350q0 -74 -23 -127.5t-62.5 -82.5t-83.5 -42.5t-95 -13.5z" />
    <glyph glyph-name="Ucircumflex" unicode="&#xdb;" horiz-adv-x="660" 
d="M221 636l-40 74l154 78l152 -78l-40 -74l-112 53zM332 -11q-52 0 -97 12.5t-84.5 39t-62 76t-22.5 117.5v371h118v-367q0 -152 148 -152q149 0 149 171v348h115v-350q0 -74 -23 -127.5t-62.5 -82.5t-83.5 -42.5t-95 -13.5z" />
    <glyph glyph-name="Udieresis" unicode="&#xdc;" horiz-adv-x="660" 
d="M332 -11q-52 0 -97 12.5t-84.5 39t-62 76t-22.5 117.5v371h118v-367q0 -152 148 -152q149 0 149 171v348h115v-350q0 -74 -23 -127.5t-62.5 -82.5t-83.5 -42.5t-95 -13.5zM281 651h-107v111h107v-111zM493 651h-107v111h107v-111z" />
    <glyph glyph-name="Yacute" unicode="&#xdd;" horiz-adv-x="559" 
d="M221 636l-18 78l214 63l21 -90zM220 0v205l-215 400h134l143 -300l152 300h130l-227 -397v-208h-117z" />
    <glyph glyph-name="Thorn" unicode="&#xde;" horiz-adv-x="535" 
d="M76 0v605h118v-94h101q101 0 161 -53.5t60 -151.5q0 -92 -69.5 -150t-194.5 -58h-58v-98h-118zM194 418v-229h63q68 0 103.5 30t35.5 85q0 114 -117 114h-85z" />
    <glyph glyph-name="germandbls" unicode="&#xdf;" horiz-adv-x="544" 
d="M61 0v469q0 97 54.5 143t147.5 46q27 0 55 -6.5t58.5 -21t50 -45t19.5 -73.5q0 -39 -23 -72.5t-46 -59.5t-23 -47q0 -20 17.5 -37t43 -30.5t50.5 -29.5t42.5 -43t17.5 -62q0 -73 -52 -107t-118 -34q-85 0 -136 18l15 89q60 -15 99 -15q34 0 57 10.5t23 31.5q0 18 -18 33
t-43.5 28t-50.5 29.5t-43 46t-18 68.5t42.5 93t42.5 83q0 27 -21 43.5t-49 16.5q-81 0 -81 -97v-468h-113z" />
    <glyph glyph-name="agrave" unicode="&#xe0;" horiz-adv-x="490" 
d="M177 -8q-72 0 -112 36t-40 103q0 41 17.5 70.5t47.5 44t61 21t67 6.5h92v43q0 37 -22 51t-73 14q-64 0 -134 -21l-23 85q92 34 175 34q99 0 144 -33t45 -107v-228q0 -26 45 -28l-4 -86q-15 -2 -31 0q-98 2 -112 51q-72 -56 -143 -56zM310 110v94l-84 -2q-41 -2 -65 -18
t-24 -46q0 -28 18 -42t46 -14q51 0 109 28zM296 522l-190 93l39 81l186 -105z" />
    <glyph glyph-name="aacute" unicode="&#xe1;" horiz-adv-x="490" 
d="M177 -8q-72 0 -112 36t-40 103q0 41 17.5 70.5t47.5 44t61 21t67 6.5h92v43q0 37 -22 51t-73 14q-64 0 -134 -21l-23 85q92 34 175 34q99 0 144 -33t45 -107v-228q0 -26 45 -28l-4 -86q-15 -2 -31 0q-98 2 -112 51q-72 -56 -143 -56zM310 110v94l-84 -2q-41 -2 -65 -18
t-24 -46q0 -28 18 -42t46 -14q51 0 109 28zM181 522l-34 69l185 105l40 -81z" />
    <glyph glyph-name="acircumflex" unicode="&#xe2;" horiz-adv-x="490" 
d="M177 -8q-72 0 -112 36t-40 103q0 41 17.5 70.5t47.5 44t61 21t67 6.5h92v43q0 37 -22 51t-73 14q-64 0 -134 -21l-23 85q92 34 175 34q99 0 144 -33t45 -107v-228q0 -26 45 -28l-4 -86q-15 -2 -31 0q-98 2 -112 51q-72 -56 -143 -56zM310 110v94l-84 -2q-41 -2 -65 -18
t-24 -46q0 -28 18 -42t46 -14q51 0 109 28zM343 524l-107 78l-109 -77l-50 63l160 108l154 -107z" />
    <glyph glyph-name="atilde" unicode="&#xe3;" horiz-adv-x="490" 
d="M177 -8q-72 0 -112 36t-40 103q0 41 17.5 70.5t47.5 44t61 21t67 6.5h92v43q0 37 -22 51t-73 14q-64 0 -134 -21l-23 85q92 34 175 34q99 0 144 -33t45 -107v-228q0 -26 45 -28l-4 -86q-15 -2 -31 0q-98 2 -112 51q-72 -56 -143 -56zM310 110v94l-84 -2q-41 -2 -65 -18
t-24 -46q0 -28 18 -42t46 -14q51 0 109 28zM283 549q-22 0 -56.5 15.5t-50.5 15.5q-33 0 -59 -23l-44 54q50 59 111 59q28 0 59.5 -16t43.5 -16q32 0 70 23l39 -54q-55 -58 -113 -58z" />
    <glyph glyph-name="adieresis" unicode="&#xe4;" horiz-adv-x="490" 
d="M177 -8q-72 0 -112 36t-40 103q0 41 17.5 70.5t47.5 44t61 21t67 6.5h92v43q0 37 -22 51t-73 14q-64 0 -134 -21l-23 85q92 34 175 34q99 0 144 -33t45 -107v-228q0 -26 45 -28l-4 -86q-15 -2 -31 0q-98 2 -112 51q-72 -56 -143 -56zM310 110v94l-84 -2q-41 -2 -65 -18
t-24 -46q0 -28 18 -42t46 -14q51 0 109 28zM183 558h-107v111h107v-111zM395 558h-107v111h107v-111z" />
    <glyph glyph-name="aring" unicode="&#xe5;" horiz-adv-x="490" 
d="M177 -8q-72 0 -112 36t-40 103q0 41 17.5 70.5t47.5 44t61 21t67 6.5h92v43q0 37 -22 51t-73 14q-64 0 -134 -21l-23 85q92 34 175 34q99 0 144 -33t45 -107v-228q0 -26 45 -28l-4 -86q-15 -2 -31 0q-98 2 -112 51q-72 -56 -143 -56zM310 110v94l-84 -2q-41 -2 -65 -18
t-24 -46q0 -28 18 -42t46 -14q51 0 109 28zM245 509q-48 0 -82.5 24t-34.5 76q0 51 34 78.5t81 27.5q44 0 80 -25t36 -79q0 -50 -32.5 -76t-81.5 -26zM244 560q51 0 53 50q0 22 -15 36t-38 14q-54 0 -54 -48q0 -24 14.5 -38t39.5 -14z" />
    <glyph glyph-name="ae" unicode="&#xe6;" horiz-adv-x="759" 
d="M550 -8q-145 0 -200 74q-89 -73 -174 -73q-73 0 -112 34.5t-39 101.5q0 42 17 71t47.5 42.5t60 19t68.5 6.5q73 2 92 2v50q0 37 -22 49.5t-74 12.5q-47 0 -133 -21l-22 84q91 34 174 34q118 0 156 -50q54 50 149 50q190 0 190 -233v-37l-304 -8q0 -67 36 -92.5t108 -25.5
q46 0 129 17l17 -84q-76 -24 -164 -24zM195 82q57 0 130 35q-11 31 -14 81l-85 -2q-89 -3 -89 -60q0 -54 58 -54zM427 278l183 7q1 49 -21 80t-60 31q-43 0 -72 -29t-30 -89z" />
    <glyph glyph-name="ccedilla" unicode="&#xe7;" horiz-adv-x="437" 
d="M290 -9q-137 0 -198 57.5t-61 187.5q0 111 65.5 177t176.5 66q84 0 141 -31l-31 -84q-49 21 -106 21t-92.5 -36.5t-35.5 -113.5q0 -81 31.5 -116.5t116.5 -35.5q30 0 96 12l17 -87q-68 -17 -120 -17zM209 -229l-39 68q1 1 10.5 6.5t12 7.5t10.5 7.5t11 9l7.5 9t6 11
t1.5 11.5q0 19 -14 55h92q19 -36 19 -67q0 -67 -117 -118z" />
    <glyph glyph-name="egrave" unicode="&#xe8;" horiz-adv-x="483" 
d="M273 -10q-118 0 -179 52.5t-61 183.5q0 253 227 253q99 0 145.5 -62.5t46.5 -173.5v-41h-305q0 -68 36.5 -94t108.5 -26q56 0 129 20l18 -86q-75 -26 -166 -26zM150 278h185q0 53 -21 85.5t-64 32.5t-69.5 -30t-30.5 -88zM304 522l-190 93l39 81l186 -105z" />
    <glyph glyph-name="eacute" unicode="&#xe9;" horiz-adv-x="483" 
d="M273 -10q-118 0 -179 52.5t-61 183.5q0 253 227 253q99 0 145.5 -62.5t46.5 -173.5v-41h-305q0 -68 36.5 -94t108.5 -26q56 0 129 20l18 -86q-75 -26 -166 -26zM150 278h185q0 53 -21 85.5t-64 32.5t-69.5 -30t-30.5 -88zM191 522l-34 69l185 105l40 -81z" />
    <glyph glyph-name="ecircumflex" unicode="&#xea;" horiz-adv-x="483" 
d="M273 -10q-118 0 -179 52.5t-61 183.5q0 253 227 253q99 0 145.5 -62.5t46.5 -173.5v-41h-305q0 -68 36.5 -94t108.5 -26q56 0 129 20l18 -86q-75 -26 -166 -26zM150 278h185q0 53 -21 85.5t-64 32.5t-69.5 -30t-30.5 -88zM351 524l-107 78l-109 -77l-50 63l160 108
l154 -107z" />
    <glyph glyph-name="edieresis" unicode="&#xeb;" horiz-adv-x="483" 
d="M273 -10q-118 0 -179 52.5t-61 183.5q0 253 227 253q99 0 145.5 -62.5t46.5 -173.5v-41h-305q0 -68 36.5 -94t108.5 -26q56 0 129 20l18 -86q-75 -26 -166 -26zM150 278h185q0 53 -21 85.5t-64 32.5t-69.5 -30t-30.5 -88zM190 558h-107v111h107v-111zM402 558h-107v111
h107v-111z" />
    <glyph glyph-name="igrave" unicode="&#xec;" horiz-adv-x="237" 
d="M166 522l-190 93l39 81l186 -105zM61 0v467h114v-467h-114z" />
    <glyph glyph-name="iacute" unicode="&#xed;" horiz-adv-x="237" 
d="M62 522l-34 69l185 105l40 -81zM61 0v467h114v-467h-114z" />
    <glyph glyph-name="icircumflex" unicode="&#xee;" horiz-adv-x="237" 
d="M61 0v467h114v-467h-114zM226 524l-107 78l-109 -77l-50 63l160 108l154 -107z" />
    <glyph glyph-name="idieresis" unicode="&#xef;" horiz-adv-x="237" 
d="M65 558h-107v111h107v-111zM277 558h-107v111h107v-111zM61 0v467h114v-467h-114z" />
    <glyph glyph-name="eth" unicode="&#xf0;" horiz-adv-x="533" 
d="M258 -10q-109 0 -167 61.5t-58 171.5q0 103 64 171t162 68q46 0 84 -27q-22 48 -71 93l-63 -48l-36 41l53 39q-20 14 -60 33l59 72q44 -15 79 -40l61 47l37 -41l-52 -38q66 -58 104 -142t38 -217q0 -113 -63 -178.5t-171 -65.5zM264 83q63 0 87.5 37t24.5 106
q0 145 -119 145q-109 0 -109 -145q0 -143 116 -143z" />
    <glyph glyph-name="ntilde" unicode="&#xf1;" horiz-adv-x="540" 
d="M61 0v467h114v-50q79 62 157 62q51 0 83 -13.5t46.5 -42t18.5 -56t4 -71.5v-296h-114v285q0 55 -14.5 75t-60.5 20q-57 0 -120 -37v-343h-114zM320 549q-22 0 -56.5 15.5t-50.5 15.5q-33 0 -59 -23l-44 54q50 59 111 59q27 0 59 -16t44 -16q32 0 70 23l39 -54
q-55 -58 -113 -58z" />
    <glyph glyph-name="ograve" unicode="&#xf2;" horiz-adv-x="525" 
d="M258 -10q-108 0 -167.5 63.5t-59.5 175.5q0 116 63.5 183t169.5 67q114 0 171.5 -63.5t57.5 -181.5q0 -117 -65 -180.5t-170 -63.5zM263 82q113 0 113 152q0 153 -114 153q-116 0 -116 -154q0 -151 117 -151zM325 522l-190 93l39 81l186 -105z" />
    <glyph glyph-name="oacute" unicode="&#xf3;" horiz-adv-x="525" 
d="M258 -10q-108 0 -167.5 63.5t-59.5 175.5q0 116 63.5 183t169.5 67q114 0 171.5 -63.5t57.5 -181.5q0 -117 -65 -180.5t-170 -63.5zM263 82q113 0 113 152q0 153 -114 153q-116 0 -116 -154q0 -151 117 -151zM195 522l-34 69l185 105l40 -81z" />
    <glyph glyph-name="ocircumflex" unicode="&#xf4;" horiz-adv-x="525" 
d="M258 -10q-108 0 -167.5 63.5t-59.5 175.5q0 116 63.5 183t169.5 67q114 0 171.5 -63.5t57.5 -181.5q0 -117 -65 -180.5t-170 -63.5zM263 82q113 0 113 152q0 153 -114 153q-116 0 -116 -154q0 -151 117 -151zM369 524l-107 78l-109 -77l-50 63l160 108l154 -107z" />
    <glyph glyph-name="otilde" unicode="&#xf5;" horiz-adv-x="525" 
d="M258 -10q-108 0 -167.5 63.5t-59.5 175.5q0 116 63.5 183t169.5 67q114 0 171.5 -63.5t57.5 -181.5q0 -117 -65 -180.5t-170 -63.5zM263 82q113 0 113 152q0 153 -114 153q-116 0 -116 -154q0 -151 117 -151zM309 549q-22 0 -56.5 15.5t-50.5 15.5q-33 0 -59 -23l-44 54
q50 59 111 59q28 0 59 -16t44 -16q32 0 70 23l39 -54q-55 -58 -113 -58z" />
    <glyph glyph-name="odieresis" unicode="&#xf6;" horiz-adv-x="525" 
d="M258 -10q-108 0 -167.5 63.5t-59.5 175.5q0 116 63.5 183t169.5 67q114 0 171.5 -63.5t57.5 -181.5q0 -117 -65 -180.5t-170 -63.5zM263 82q113 0 113 152q0 153 -114 153q-116 0 -116 -154q0 -151 117 -151zM208 558h-107v111h107v-111zM420 558h-107v111h107v-111z" />
    <glyph glyph-name="divide" unicode="&#xf7;" horiz-adv-x="507" 
d="M209 71v87h86v-87h-86zM42 237v77h424v-77h-424zM209 393v89h86v-89h-86z" />
    <glyph glyph-name="oslash" unicode="&#xf8;" horiz-adv-x="540" 
d="M265 -10q-90 0 -148 46l-52 -56l-38 36l54 57q-43 61 -43 156q0 116 63.5 183t169.5 67q95 0 151 -44l49 52l37 -36l-51 -54q43 -61 43 -163q0 -117 -65 -180.5t-170 -63.5zM153 233q0 -41 9 -73l186 197q-28 30 -79 30q-116 0 -116 -154zM270 82q113 0 113 152
q0 41 -9 74l-185 -196q30 -30 81 -30z" />
    <glyph glyph-name="ugrave" unicode="&#xf9;" horiz-adv-x="538" 
d="M207 -10q-41 0 -70 10.5t-44.5 25.5t-24 41.5t-10.5 49t-2 57.5v293h114v-282q0 -54 14.5 -74.5t59.5 -20.5q60 0 119 36v341h114v-467h-114v51q-79 -61 -156 -61zM315 522l-190 93l39 81l186 -105z" />
    <glyph glyph-name="uacute" unicode="&#xfa;" horiz-adv-x="538" 
d="M207 -10q-41 0 -70 10.5t-44.5 25.5t-24 41.5t-10.5 49t-2 57.5v293h114v-282q0 -54 14.5 -74.5t59.5 -20.5q60 0 119 36v341h114v-467h-114v51q-79 -61 -156 -61zM222 525l-34 69l185 105l40 -81z" />
    <glyph glyph-name="ucircumflex" unicode="&#xfb;" horiz-adv-x="538" 
d="M207 -10q-41 0 -70 10.5t-44.5 25.5t-24 41.5t-10.5 49t-2 57.5v293h114v-282q0 -54 14.5 -74.5t59.5 -20.5q60 0 119 36v341h114v-467h-114v51q-79 -61 -156 -61zM375 524l-107 78l-109 -77l-50 63l160 108l154 -107z" />
    <glyph glyph-name="udieresis" unicode="&#xfc;" horiz-adv-x="538" 
d="M207 -10q-41 0 -70 10.5t-44.5 25.5t-24 41.5t-10.5 49t-2 57.5v293h114v-282q0 -54 14.5 -74.5t59.5 -20.5q60 0 119 36v341h114v-467h-114v51q-79 -61 -156 -61zM214 558h-107v111h107v-111zM426 558h-107v111h107v-111z" />
    <glyph glyph-name="yacute" unicode="&#xfd;" horiz-adv-x="477" 
d="M139 -188l63 188h-43l-157 467h122l88 -295l23 -83l26 83l100 295h116l-229 -655h-109zM193 522l-34 69l185 105l40 -81z" />
    <glyph glyph-name="thorn" unicode="&#xfe;" horiz-adv-x="527" 
d="M61 -188v833h113v-213q20 16 54.5 31t65.5 15q201 0 201 -225q0 -137 -70.5 -199.5t-179.5 -62.5q-21 0 -71 5v-184h-113zM248 80q62 0 96.5 44.5t34.5 121.5q0 71 -27.5 103.5t-89.5 32.5q-34 0 -88 -24v-272q2 0 29 -3t45 -3z" />
    <glyph glyph-name="ydieresis" unicode="&#xff;" horiz-adv-x="477" 
d="M139 -188l63 188h-43l-157 467h122l88 -295l23 -83l26 83l100 295h116l-229 -655h-109zM184 558h-107v111h107v-111zM396 558h-107v111h107v-111z" />
    <glyph glyph-name="dotlessi" unicode="&#x131;" horiz-adv-x="237" 
d="M61 0v467h114v-467h-114z" />
    <glyph glyph-name="Lslash" unicode="&#x141;" horiz-adv-x="477" 
d="M30 202l-1 80l63 37v286h117v-219l101 59v-80l-101 -59v-212h263v-94h-380v238z" />
    <glyph glyph-name="lslash" unicode="&#x142;" horiz-adv-x="301" 
d="M286 376l-79 -45v-331h-114v266l-73 -42v80l73 42v299h114v-234l79 45v-80z" />
    <glyph glyph-name="OE" unicode="&#x152;" horiz-adv-x="938" 
d="M347 -10q-150 0 -230 83.5t-80 230.5q0 148 87 229.5t237 81.5q89 0 146 -35v25h375v-92h-258v-165h239v-87h-239v-168h278v-93h-395v29q-61 -39 -160 -39zM350 83q106 0 157 69v300q-51 69 -152 69q-99 0 -149 -59.5t-50 -156.5q0 -98 49 -160t145 -62z" />
    <glyph glyph-name="oe" unicode="&#x153;" horiz-adv-x="827" 
d="M258 -10q-108 0 -167.5 63.5t-59.5 175.5q0 116 63.5 183t169.5 67q116 0 170 -72q55 72 171 72q190 0 190 -236v-41h-305q1 -65 34.5 -92.5t105.5 -27.5q63 0 134 20l19 -90q-67 -20 -166 -20q-135 0 -189 70q-60 -72 -170 -72zM263 82q113 0 113 152q0 153 -114 153
q-116 0 -116 -154q0 -151 117 -151zM494 278h183q0 54 -21.5 86.5t-62.5 32.5q-42 0 -69 -30.5t-30 -88.5z" />
    <glyph glyph-name="Scaron" unicode="&#x160;" horiz-adv-x="477" 
d="M391 712l-155 -78l-153 78l40 74l113 -52l114 52zM214 -10q-105 0 -189 45l34 88q88 -35 154 -35q54 0 87.5 20.5t33.5 59.5q0 32 -30 54t-73 37.5t-86 35.5t-73 58.5t-30 94.5q0 78 60 122t144 44q101 0 174 -41l-34 -87q-72 31 -136 31q-42 0 -68 -19t-26 -52
q0 -28 30.5 -49t74 -38t87 -37.5t74 -59t30.5 -90.5q0 -61 -36 -103.5t-88.5 -60.5t-113.5 -18z" />
    <glyph glyph-name="scaron" unicode="&#x161;" horiz-adv-x="410" 
d="M188 -10q-91 0 -157 19l14 88q90 -15 133 -15q94 0 94 48q0 17 -17.5 29t-43.5 19.5t-56.5 20t-56.5 27.5t-43.5 44t-17.5 68q0 67 52.5 104t128.5 37q73 0 143 -24l-20 -85q-63 17 -120 17q-70 0 -70 -43q0 -20 24 -34.5t58.5 -26.5t68.5 -27.5t58 -46t24 -73.5
q0 -40 -19 -70.5t-50 -46t-63 -22.5t-64 -7zM205 520l-156 107l46 64l111 -77l109 77l50 -64z" />
    <glyph glyph-name="Ydieresis" unicode="&#x178;" horiz-adv-x="559" 
d="M220 0v205l-215 400h134l143 -300l152 300h130l-227 -397v-208h-117zM230 651h-107v111h107v-111zM442 651h-107v111h107v-111z" />
    <glyph glyph-name="Zcaron" unicode="&#x17d;" horiz-adv-x="506" 
d="M405 712l-154 -78l-153 78l40 74l113 -52l114 52zM27 0v83l293 424h-273v98h414v-77l-296 -430h312v-98h-450z" />
    <glyph glyph-name="zcaron" unicode="&#x17e;" horiz-adv-x="437" 
d="M28 0v78l239 297h-222v92h356v-75l-236 -300h240v-92h-377zM215 520l-156 107l46 64l111 -77l109 77l50 -64z" />
    <glyph glyph-name="florin" unicode="&#x192;" horiz-adv-x="421" 
d="M1 -22l-3 95q74 5 97 15q44 19 47 76l6 97h-87v93h93l5 84q3 47 19 81t39 53.5t57.5 31t68 15t77.5 3.5l8 -98q-4 0 -20.5 -1t-22 -1.5t-20 -2.5t-20.5 -3.5t-18 -5.5t-17 -8l-13 -10.5t-12 -14.5t-7 -18.5t-4 -22.5l-6 -82h94v-93h-99l-6 -99q-6 -98 -65 -141t-191 -43z
" />
    <glyph glyph-name="circumflex" unicode="&#x2c6;" horiz-adv-x="473" 
d="M337 523l-107 78l-109 -77l-50 63l160 108l154 -107z" />
    <glyph glyph-name="caron" unicode="&#x2c7;" horiz-adv-x="472" 
d="M233 519l-156 107l46 64l111 -77l109 77l50 -64z" />
    <glyph glyph-name="breve" unicode="&#x2d8;" horiz-adv-x="435" 
d="M230 535q-103 0 -156 86l60 52q51 -53 100 -53t95 53l57 -51q-57 -87 -156 -87z" />
    <glyph glyph-name="dotaccent" unicode="&#x2d9;" horiz-adv-x="239" 
d="M65 559v110h113v-110h-113z" />
    <glyph glyph-name="ring" unicode="&#x2da;" horiz-adv-x="456" 
d="M229 509q-48 0 -82.5 24t-34.5 76q0 51 34 78.5t81 27.5q44 0 80 -25t36 -79q0 -50 -32.5 -76t-81.5 -26zM228 560q51 0 53 50q0 22 -15 36t-38 14q-54 0 -54 -48q0 -24 14.5 -38t39.5 -14z" />
    <glyph glyph-name="ogonek" unicode="&#x2db;" horiz-adv-x="487" 
d="M437 -190q-38 -23 -88 -23q-54 0 -88.5 28t-34.5 77q0 52 49 96.5t117 73.5l36 -49q-103 -57 -103 -105q0 -19 11.5 -30t29.5 -11q27 0 51 13z" />
    <glyph glyph-name="tilde" unicode="&#x2dc;" horiz-adv-x="467" 
d="M280 548q-22 0 -56.5 15.5t-50.5 15.5q-33 0 -59 -23l-44 54q50 59 111 59q27 0 59 -16t44 -16q32 0 70 23l39 -54q-55 -58 -113 -58z" />
    <glyph glyph-name="hungarumlaut" unicode="&#x2dd;" horiz-adv-x="534" 
d="M108 516l-50 58l157 142l57 -68zM292 516l-34 67l185 104l40 -80z" />
    <glyph glyph-name="pi" unicode="&#x3c0;" horiz-adv-x="568" 
d="M458 -10q-101 0 -101 118v269h-162v-377h-115v377h-55v90h503v-90h-57v-251q0 -38 40 -42q4 0 11.5 1t9.5 1l7 -84q-34 -12 -81 -12z" />
    <glyph glyph-name="dvCandrabindu" unicode="&#x901;" horiz-adv-x="0" 
d="M-124 847l-67 68l67 67l68 -67zM-121 687q-75 0 -126 35t-74 94l72 38q45 -83 128 -83q87 0 129 83l69 -37q-49 -130 -198 -130z" />
    <glyph glyph-name="dvAnusvara" unicode="&#x902;" horiz-adv-x="0" 
d="M-122 670l-78 78l78 78l78 -78z" />
    <glyph glyph-name="dvVisarga" unicode="&#x903;" horiz-adv-x="282" 
d="M148 367l-74 75l73 74l74 -75zM148 64l-74 75l73 74l74 -75z" />
    <glyph glyph-name="dvA" unicode="&#x905;" horiz-adv-x="644" 
d="M357 227q0 -87 -53.5 -126t-142.5 -39q-86 0 -149 23l15 78q60 -20 116 -20q114 0 114 86q0 44 -26 62t-84 18h-37l-3 72h13q105 3 105 79q0 71 -76 71q-35 0 -75 -8l-13 73q51 16 108 16q72 0 114.5 -32t42.5 -99q0 -100 -86 -125q48 -5 76 -27q38 -25 80 -25
q47 0 76 23v197h-84v81h273v-81h-90v-524h-99v233q-23 -10 -54 -10q-35 0 -61 14v-10z" />
    <glyph glyph-name="dvAA" unicode="&#x906;" horiz-adv-x="888" 
d="M356 227q0 -87 -53.5 -126t-142.5 -39q-86 0 -149 23l15 78q60 -20 116 -20q114 0 114 86q0 44 -26 62t-84 18h-37l-3 72h13q105 3 105 79q0 71 -76 71q-35 0 -75 -8l-13 73q51 16 108 16q72 0 114.5 -32t42.5 -99q0 -100 -86 -125q48 -5 76 -27q37 -25 80 -25
q47 0 76 23v197h-84v81h518v-81h-90v-524h-99v524h-146v-524h-99v233q-23 -10 -54 -10q-35 0 -61 14v-10z" />
    <glyph glyph-name="dvI" unicode="&#x907;" horiz-adv-x="441" 
d="M249 206l-82 11q-118 16 -118 121q0 56 40 87t102 31q39 0 78 -6v74h-286v81h475v-81h-91v-152q-108 9 -148 9q-71 0 -71 -43q0 -22 12.5 -31t40.5 -14l88 -13q54 -7 86.5 -38.5t32.5 -86.5q0 -65 -43 -101t-110 -36q-76 0 -113 40l66 -138l-88 -34l-92 242l87 32
q1 -1 6 -8.5t5 -8.5q40 -50 108 -50q76 0 76 58q0 25 -14 38t-47 17z" />
    <glyph glyph-name="dvII" unicode="&#x908;" horiz-adv-x="441" 
d="M249 206l-82 11q-118 16 -118 121q0 56 40 87t102 31q39 0 78 -6v74h-286v81h256q-39 43 -39 102q0 64 42.5 105t110.5 41q46 0 82 -13l-14 -72q-38 7 -56 7q-33 0 -54.5 -20.5t-21.5 -54.5q0 -55 54 -95h115v-81h-91v-152q-108 9 -148 9q-71 0 -71 -43q0 -22 12.5 -31
t40.5 -14l88 -13q54 -7 86.5 -38.5t32.5 -86.5q0 -65 -43 -101t-110 -36q-76 0 -113 40l66 -138l-88 -34l-92 242l87 32q1 -1 6 -8.5t5 -8.5q40 -50 108 -50q76 0 76 58q0 25 -14 38t-47 17z" />
    <glyph glyph-name="dvU" unicode="&#x909;" horiz-adv-x="405" 
d="M-17 524v81h439v-81h-129q34 -34 34 -89q0 -49 -24.5 -77.5t-62.5 -34.5q55 -7 89 -45.5t34 -100.5q0 -84 -58 -128t-149 -44q-93 0 -150 20l16 81q63 -19 113 -19q124 0 124 94q0 86 -113 86q-29 0 -36 -1l-13 77q78 5 104 27t26 66q0 55 -39 88h-205z" />
    <glyph glyph-name="dvUU" unicode="&#x90a;" horiz-adv-x="631" 
d="M411 11l-8 81q111 0 111 105q0 45 -19.5 70.5t-54.5 25.5q-33 0 -54.5 -23.5t-24.5 -61.5q2 -20 2 -31q0 -84 -58 -128t-149 -44q-93 0 -150 20l16 81q63 -19 113 -19q124 0 124 94q0 86 -113 86q-29 0 -36 -1l-13 77q78 5 104 27t26 66q0 55 -39 88h-205v81h665v-81
h-355q34 -34 34 -90q0 -49 -24.5 -76.5t-62.5 -34.5q50 -6 84 -40q11 36 45.5 64t89.5 28q68 0 110 -47t42 -127q0 -91 -54.5 -141.5t-145.5 -48.5z" />
    <glyph glyph-name="dvvR" unicode="&#x90b;" horiz-adv-x="743" 
d="M311 0v202l-223 -182l-60 77l224 159q-48 76 -135 76q-43 0 -81 -15l-24 87q44 18 105 18q136 0 194 -120v222h-328v81h777v-81h-349v-168h14q81 0 111 81l11 29l84 -26q-11 -33 -11 -52q0 -72 89 -72v-73q-126 -11 -126 -77q0 -59 74 -59q32 0 69 11l17 -71
q-45 -15 -100 -15q-72 0 -115.5 32.5t-43.5 97.5q0 48 34.5 82t88.5 50q-21 4 -37 21.5t-20 36.5q-31 -77 -127 -77h-12v-275h-100z" />
    <glyph glyph-name="dvEcandra" unicode="&#x90d;" horiz-adv-x="542" 
d="M279 687q-74 0 -124.5 34.5t-72.5 92.5l71 38q43 -82 126 -82q85 0 126 82l68 -37q-22 -58 -71 -93t-123 -35zM559 524h-76v-125q0 -83 -42.5 -123t-130.5 -53l-22 80q54 12 74.5 32t20.5 65v124h-217v-287q0 -78 38 -110t115 -32q58 0 130 19l15 -84q-85 -25 -166 -25
q-232 0 -232 227v292h-83v81h576v-81z" />
    <glyph glyph-name="dvEshort" unicode="&#x90e;" horiz-adv-x="542" 
d="M305 693l-58 27q-69 35 -83 104l-6 31l90 14l5 -24q5 -24 17 -35t39 -24l63 -30q54 -26 81.5 -58.5t28.5 -92.5h77v-81h-76v-125q0 -83 -42.5 -123t-130.5 -53l-22 80q54 12 74.5 32t20.5 65v124h-217v-287q0 -78 38 -110t115 -32q58 0 130 19l15 -84q-85 -25 -166 -25
q-232 0 -232 227v292h-83v81h403q-2 37 -17.5 51.5t-63.5 36.5z" />
    <glyph glyph-name="dvE" unicode="&#x90f;" horiz-adv-x="542" 
d="M559 524h-76v-125q0 -83 -42.5 -123t-130.5 -53l-22 80q54 12 74.5 32t20.5 65v124h-217v-287q0 -78 38 -110t115 -32q58 0 130 19l15 -84q-85 -25 -166 -25q-232 0 -232 227v292h-83v81h576v-81z" />
    <glyph glyph-name="dvAI" unicode="&#x910;" horiz-adv-x="542" 
d="M477 605h82v-81h-76v-125q0 -83 -42.5 -123t-130.5 -53l-22 80q54 12 74.5 32t20.5 65v124h-217v-287q0 -78 38 -110t115 -32q58 0 130 19l15 -84q-85 -25 -166 -25q-232 0 -232 227v292h-83v81h411l-188 185l66 68l70 -73l27 -28l28.5 -30t23.5 -27t23.5 -31t17 -29.5
t15.5 -34.5z" />
    <glyph glyph-name="dvOcandra" unicode="&#x911;" horiz-adv-x="888" 
d="M657 687q-74 0 -124.5 34.5t-72.5 92.5l71 38q43 -82 126 -82q84 0 127 82l68 -37q-22 -58 -71 -93t-124 -35zM356 227q0 -87 -53.5 -126t-142.5 -39q-86 0 -149 23l15 78q60 -20 116 -20q114 0 114 86q0 44 -26 62t-84 18h-37l-3 72h13q105 3 105 79q0 71 -76 71
q-35 0 -75 -8l-13 73q51 16 108 16q72 0 114.5 -32t42.5 -99q0 -100 -86 -125q48 -5 76 -27q37 -25 80 -25q47 0 76 23v197h-84v81h518v-81h-90v-524h-99v524h-146v-524h-99v233q-23 -10 -54 -10q-35 0 -61 14v-10z" />
    <glyph glyph-name="dvOshort" unicode="&#x912;" horiz-adv-x="888" 
d="M638 693l-57 27q-70 34 -83 104l-6 31l90 14l4 -24q6 -24 17.5 -35t38.5 -24l64 -30q54 -26 81.5 -58.5t28.5 -92.5h89v-81h-90v-524h-99v524h-146v-524h-99v233q-23 -10 -54 -10q-35 0 -61 14v-10q0 -87 -53.5 -126t-142.5 -39q-86 0 -149 23l15 78q60 -20 116 -20
q114 0 114 86q0 44 -26 62t-84 18h-37l-3 72h13q105 3 105 79q0 71 -76 71q-35 0 -75 -8l-13 73q51 16 108 16q72 0 114.5 -32t42.5 -99q0 -100 -86 -125q48 -5 76 -27q37 -25 80 -25q47 0 76 23v197h-84v81h333q-3 37 -18.5 51.5t-63.5 36.5z" />
    <glyph glyph-name="dvO" unicode="&#x913;" horiz-adv-x="888" 
d="M807 605h98v-81h-90v-524h-99v524h-146v-524h-99v233q-23 -10 -54 -10q-35 0 -61 14v-10q0 -87 -53.5 -126t-142.5 -39q-86 0 -149 23l15 78q60 -20 116 -20q114 0 114 86q0 44 -26 62t-84 18h-37l-3 72h13q105 3 105 79q0 71 -76 71q-35 0 -75 -8l-13 73q51 16 108 16
q72 0 114.5 -32t42.5 -99q0 -100 -86 -125q48 -5 76 -27q37 -25 80 -25q47 0 76 23v197h-84v81h337l-187 185l66 68q4 -5 36 -37.5t34 -35.5l31 -32.5t34.5 -37.5l25 -31t27 -40.5t16.5 -38.5z" />
    <glyph glyph-name="dvAU" unicode="&#x914;" horiz-adv-x="888" 
d="M356 227q0 -87 -53.5 -126t-142.5 -39q-86 0 -149 23l15 78q60 -20 116 -20q114 0 114 86q0 44 -26 62t-84 18h-37l-3 72h13q105 3 105 79q0 71 -76 71q-35 0 -75 -8l-13 73q51 16 108 16q72 0 114.5 -32t42.5 -99q0 -100 -86 -125q48 -5 76 -27q37 -25 80 -25
q47 0 76 23v197h-84v81h322l-200 182l62 64l128 -128q44 -44 65 -94l3 1l-59 222l89 17l25 -142q6 -36 6 -57q0 -30 -11 -65h88v-81h-90v-524h-99v524h-146v-524h-99v233q-23 -10 -54 -10q-35 0 -61 14v-10z" />
    <glyph glyph-name="dvKA" unicode="&#x915;" horiz-adv-x="748" 
d="M418 524v-152q13 25 47 44.5t78 19.5q79 0 127 -45.5t48 -125.5q0 -85 -50.5 -131t-130.5 -46q-26 0 -50 4l5 81q15 -3 30 -3q44 0 70 24.5t26 68.5q0 43 -24.5 67.5t-68.5 24.5t-71.5 -29.5t-30.5 -77.5v-248h-91v151q-13 -25 -47.5 -43.5t-79.5 -18.5q-79 0 -127 46
t-48 126q0 83 52 129t130 46q24 0 52 -6l-7 -78q-14 2 -31 2q-44 0 -70 -23t-26 -68q0 -43 25 -67.5t71 -24.5q44 0 71 27t30 73v253h-344v81h782v-81h-347z" />
    <glyph glyph-name="dvKHA" unicode="&#x916;" horiz-adv-x="746" 
d="M574 524h-322q40 -52 40 -118t-39.5 -108t-110.5 -53q55 -153 206 -153q55 0 100 19q-60 4 -99.5 48.5t-39.5 103.5q0 73 49.5 115t120.5 42q21 0 46 -5l-7 -73q-24 2 -32 2q-37 0 -61 -22t-24 -61t24 -63.5t60 -24.5q61 0 89 37v314zM763 524h-90v-524h-95v103
q-43 -43 -104 -68.5t-126 -25.5q-100 0 -179 50.5t-116 156.5l-44 24l24 74h34q62 0 93.5 28t31.5 78q0 54 -35 104h-174v81h780v-81z" />
    <glyph glyph-name="dvGA" unicode="&#x917;" horiz-adv-x="535" 
d="M54 307l58 40v177h-129v81h569v-81h-90v-524h-99v524h-151v-339h-100q-19 21 -35.5 56.5t-22.5 65.5z" />
    <glyph glyph-name="dvGHA" unicode="&#x918;" horiz-adv-x="579" 
d="M407 524h-214q-33 -31 -33 -74q0 -65 82 -65h47v-81h-40q-88 0 -88 -65q0 -73 104 -73q41 0 81 16.5t61 34.5v307zM596 524h-90v-524h-95v135q-66 -53 -172 -53q-86 0 -134 39t-48 109q0 99 98 119q-44 3 -70 27.5t-26 69.5q0 48 35 78h-111v81h613v-81z" />
    <glyph glyph-name="dvNGA" unicode="&#x919;" horiz-adv-x="494" 
d="M437 237l-64 65l65 65l65 -64zM28 69l50 67q64 -51 139 -51q88 0 88 59q0 24 -12.5 36t-48.5 19l-83 14q-113 21 -113 121q0 59 40.5 89t99.5 30q39 0 79 -6v77h-284v81h524v-81h-140v-158q-129 14 -163 14q-60 0 -60 -45q0 -21 12.5 -31.5t41.5 -15.5l84 -16
q122 -21 122 -127q0 -69 -50 -105t-134 -36q-114 0 -192 65z" />
    <glyph glyph-name="dvCA" unicode="&#x91a;" horiz-adv-x="592" 
d="M420 223v301h-437v81h626v-81h-90v-524h-94v141q-65 -60 -172 -60q-81 0 -131.5 41.5t-50.5 111.5q0 42 18.5 71t37.5 41h-120v81h324v-81h-99q-62 -27 -62 -93q0 -43 29 -65.5t80 -22.5q81 0 141 58z" />
    <glyph glyph-name="dvCHA" unicode="&#x91b;" horiz-adv-x="620" 
d="M154 190q0 -48 40 -72t102 -24q94 0 145.5 50.5t51.5 123.5q0 39 -13.5 64.5t-37.5 25.5q-18 0 -28 -13t-10 -33q0 -29 20 -65l-82 -28q-28 47 -28 96q0 41 23.5 72t61.5 43v94h-200q-39 -37 -39 -89q0 -33 23 -56.5t88 -30.5l-9 -78h-20q-40 0 -64 -20.5t-24 -59.5z
M637 524h-152v-95q48 -15 75.5 -59.5t27.5 -106.5q0 -114 -84.5 -183.5t-204.5 -69.5q-110 0 -178.5 48.5t-68.5 132.5q0 47 25 82t69 52q-85 25 -85 111q0 51 35 88h-113v81h654v-81z" />
    <glyph glyph-name="dvJA" unicode="&#x91c;" horiz-adv-x="597" 
d="M2 78l16 77q52 -12 97 -12q113 0 113 90q0 64 -52 96h-79v80h327v115h-441v81h631v-81h-90v-524h-100v329h-142q17 -9 32.5 -39t15.5 -71q0 -77 -51.5 -117.5t-147.5 -40.5q-70 0 -129 17z" />
    <glyph glyph-name="dvJHA" unicode="&#x91d;" horiz-adv-x="683" 
d="M137 68l66 -137l-87 -34l-91 238l87 33q43 -69 119 -69q72 0 72 56q0 50 -54 57l-91 11q-52 7 -81 38t-29 81q0 54 39.5 84.5t100.5 30.5q36 0 74 -6v73h-279v81h717v-81h-90v-524h-99v195q-26 -8 -53 -8q-42 0 -69 16q11 -22 11 -46q0 -58 -40.5 -95.5t-107.5 -37.5
q-78 0 -115 44zM216 382q-69 0 -69 -40q0 -37 46 -42l90 -13q16 -2 61 -11t74 -9q59 0 93 19v238h-151v-151q-110 9 -144 9z" />
    <glyph glyph-name="dvNYA" unicode="&#x91e;" horiz-adv-x="649" 
d="M97 348l-7 78q40 6 74 6q137 0 176 -99q30 -40 83 -40q32 0 54 14v217h-494v81h683v-81h-89v-524h-100v214q-18 -6 -41 -6q-50 0 -83 36q-5 -74 -58.5 -119t-139.5 -45q-89 0 -147 20l17 82q57 -19 108 -19q126 0 126 98q0 44 -32 67.5t-86 23.5q-23 0 -44 -4z" />
    <glyph glyph-name="dvTTA" unicode="&#x91f;" horiz-adv-x="440" 
d="M29 219q0 93 61 145.5t156 58.5q2 0 12 0.5t12 0.5v100h-287v81h474v-81h-88v-176q-15 1 -51 1q-83 0 -136 -30.5t-53 -99.5q0 -65 39.5 -96.5t108.5 -31.5q60 0 118 22l16 -80q-69 -26 -155 -26q-96 0 -161.5 57.5t-65.5 154.5z" />
    <glyph glyph-name="dvTTHA" unicode="&#x920;" horiz-adv-x="519" 
d="M254 0q-98 0 -161.5 51t-63.5 154q0 78 49 127.5t113 67.5q31 9 42.5 21.5t11.5 34.5v68h-262v81h553v-81h-191v-95q0 -9 -2 -21q148 -63 148 -194q0 -102 -68.5 -158t-168.5 -56zM399 212q0 88 -103 135q-22 -13 -50 -19q-56 -12 -89 -43t-33 -80q0 -56 32.5 -91
t95.5 -35q67 0 107 38t40 95z" />
    <glyph glyph-name="dvDDA" unicode="&#x921;" horiz-adv-x="453" 
d="M24 72l46 70q69 -57 151 -57q90 0 90 59q0 23 -13.5 35t-50.5 19l-87 16q-116 23 -116 120q0 59 40.5 89t100.5 30q48 0 88 -6v77h-290v81h487v-81h-97v-158q-123 14 -173 14q-60 0 -60 -45q0 -21 13 -31.5t43 -15.5l89 -16q125 -21 125 -127q0 -68 -51.5 -104.5
t-135.5 -36.5q-121 0 -199 68z" />
    <glyph glyph-name="dvDDHA" unicode="&#x922;" horiz-adv-x="481" 
d="M498 524h-90v-181q-67 7 -123 7q-159 0 -159 -125q0 -66 43 -103t100 -37q49 0 71.5 21.5t22.5 50.5q0 19 -10.5 31.5t-26.5 12.5q-35 0 -45 -35l-60 28q11 40 41 62t72 22q47 0 82 -32t35 -85q0 -68 -49.5 -112t-135.5 -44q-99 0 -169.5 63t-70.5 161q0 92 61 144.5
t151 52.5q58 0 70 -3v101h-325v81h515v-81z" />
    <glyph glyph-name="dvNNA" unicode="&#x923;" horiz-adv-x="707" 
d="M724 524h-90v-524h-100v524h-128v-198q0 -185 -175 -185q-89 0 -131.5 49t-42.5 136v198h-74v81h741v-81zM157 524v-204q0 -98 75 -98t75 98v204h-150z" />
    <glyph glyph-name="dvTA" unicode="&#x924;" horiz-adv-x="527" 
d="M544 524h-89v-524h-100v314q-53 8 -107 8q-50 0 -82 -29t-32 -84q0 -81 61 -174l-75 -45q-36 41 -61 100t-25 122q0 88 58 143t153 55q57 0 110 -12v126h-372v81h561v-81z" />
    <glyph glyph-name="dvTHA" unicode="&#x925;" horiz-adv-x="605" 
d="M333 461q0 -64 -46.5 -107t-149.5 -51q1 -65 43 -101.5t105 -36.5q94 0 147 67v292h-63v81h253v-81h-90v-524h-98v141q-67 -62 -168 -62q-106 0 -171 69t-65 188v24l94 14q68 9 92 31t24 61q0 67 -46 67q-19 0 -29.5 -12.5t-10.5 -32.5q0 -17 5 -35l-77 -20
q-10 21 -10 59q0 51 34 84.5t88 33.5q68 0 103.5 -40t35.5 -109z" />
    <glyph glyph-name="dvDA" unicode="&#x926;" horiz-adv-x="507" 
d="M347 124q-13 -24 -47 -40.5t-80 -16.5q-83 0 -134.5 51t-51.5 131q0 88 58 138t153 50q57 0 90 -5v92h-352v81h541v-81h-90v-180q-115 10 -176 10q-60 0 -90.5 -28.5t-30.5 -75.5q0 -48 28 -75.5t77 -27.5q44 0 72.5 24.5t32.5 58.5h92v-230h-92v124z" />
    <glyph glyph-name="dvDHA" unicode="&#x927;" horiz-adv-x="582" 
d="M216 605l21 -73q-77 -37 -77 -84q0 -66 78 -66h53v-82h-44q-86 0 -86 -65q0 -35 25 -52t81 -17q43 0 82.5 17t59.5 37v304h-77v81h267v-81h-90v-524h-96v138q-62 -56 -172 -56q-88 0 -136 38t-48 108q0 100 98 119q-44 2 -69.5 26.5t-25.5 71.5q0 25 13.5 46.5t33.5 32.5
h-124v81h233z" />
    <glyph glyph-name="dvNA" unicode="&#x928;" horiz-adv-x="500" 
d="M16 315l49 45h263v164h-345v81h534v-81h-89v-524h-100v274h-175v-93h-92q-37 63 -45 134z" />
    <glyph glyph-name="dvPA" unicode="&#x92a;" horiz-adv-x="520" 
d="M537 605v-81h-89v-524h-98v176q-57 -30 -128 -30q-84 0 -124 46.5t-40 120.5v211h-75v81h554zM348 524h-190v-204q0 -48 16.5 -69.5t65.5 -21.5q50 0 108 20v275z" />
    <glyph glyph-name="dvPHA" unicode="&#x92b;" horiz-adv-x="766" 
d="M783 605v-81h-349v-138q51 47 126 47q81 0 128 -47.5t47 -128.5q0 -82 -51.5 -131t-134.5 -47q-25 0 -41 4l6 80q12 -2 21 -2q45 0 72.5 25t27.5 71q0 41 -24.5 66.5t-65.5 25.5q-40 0 -69 -21t-42 -51v-277h-96v186q-50 -32 -119 -32q-71 0 -116 40t-45 125v205h-75v81
h800zM338 524h-181v-204q0 -88 84 -88q54 0 97 28v264z" />
    <glyph glyph-name="dvBA" unicode="&#x92c;" horiz-adv-x="536" 
d="M238 156q34 0 60 12l-161 149q-12 -23 -12 -53q0 -49 32 -78.5t81 -29.5zM553 524h-89v-524h-96v152q-11 -26 -50.5 -49.5t-95.5 -23.5q-85 0 -139.5 53t-54.5 132q0 88 56.5 137t140.5 49q42 0 80 -12l-12 -74q-23 6 -60 6q-32 0 -55 -13l165 -151q19 29 21 69v249h-381
v81h570v-81z" />
    <glyph glyph-name="dvBHA" unicode="&#x92d;" horiz-adv-x="640" 
d="M287 462v-130h180v192h-90v81h280v-81h-90v-524h-100v252h-180v-96h-113q-45 71 -50 147q33 14 65 20v144q0 67 -45 67q-18 0 -29 -13t-11 -32q0 -22 15 -54l-74 -26q-24 36 -24 85q0 52 34.5 84.5t92.5 32.5q68 0 103.5 -40t35.5 -109z" />
    <glyph glyph-name="dvMA" unicode="&#x92e;" horiz-adv-x="553" 
d="M381 0v252h-185v-96h-115q-43 68 -52 147q35 15 67 20v201h-113v81h587v-81h-89v-524h-100zM196 524v-192h185v192h-185z" />
    <glyph glyph-name="dvYA" unicode="&#x92f;" horiz-adv-x="589" 
d="M606 524h-90v-524h-99v133q-57 -52 -147 -52q-100 0 -163.5 60.5t-65.5 181.5q0 20 1 30q146 3 146 72q0 56 -37 99h-168v81h623v-81zM282 165q78 0 135 55v304h-176q44 -46 44 -107q0 -50 -38 -85t-104 -40q4 -65 41.5 -96t97.5 -31z" />
    <glyph glyph-name="dvRA" unicode="&#x930;" horiz-adv-x="349" 
d="M366 524h-114q40 -52 40 -118q0 -67 -39.5 -108.5t-111.5 -52.5l156 -205l-81 -55l-161 227l-45 29l24 73h34q62 0 93 28t31 78q0 54 -35 104h-174v81h383v-81z" />
    <glyph glyph-name="dvRxA" unicode="&#x931;" horiz-adv-x="349" 
d="M366 524h-114q40 -52 40 -118q0 -67 -39.5 -108.5t-111.5 -52.5l156 -205l-81 -55l-161 227l-45 29l24 73h34q62 0 93 28t31 78q0 54 -35 104h-174v81h383v-81zM32 -62l-70 69l70 71l70 -69z" />
    <glyph glyph-name="dvLA" unicode="&#x932;" horiz-adv-x="666" 
d="M317 338q8 38 37.5 61.5t70.5 23.5q39 0 69 -12v113h-511v81h700v-81h-89v-524h-100v327q-28 11 -63 11q-68 0 -68 -91v-75h-92v70q0 97 -70 97q-34 0 -53 -27.5t-19 -79.5q0 -99 88 -177l-64 -60q-51 38 -87 101.5t-36 140.5q0 84 43.5 134.5t118.5 50.5q53 0 84 -24.5
t41 -59.5z" />
    <glyph glyph-name="dvLLA" unicode="&#x933;" horiz-adv-x="696" 
d="M213 75q-80 0 -131.5 45.5t-51.5 132.5q0 86 51.5 134t131.5 48q47 0 84.5 -19t57.5 -47q37 51 95 63v92h-467v81h730v-81h-165v-97q55 -15 88 -58t33 -112q0 -86 -51.5 -134t-131.5 -48q-48 0 -86 19.5t-55 45.5q-40 -65 -132 -65zM308 263q1 5 5 19.5t6 22.5
q-43 49 -98 49q-42 0 -67.5 -27t-25.5 -73q0 -49 23 -73.5t64 -24.5q38 0 59 28.5t34 78.5zM394 255q-13 -48 -14 -50q35 -48 96 -48q43 0 69 27t26 72q0 49 -23 73t-62 24q-38 0 -58.5 -26t-33.5 -72z" />
    <glyph glyph-name="dvVA" unicode="&#x935;" horiz-adv-x="533" 
d="M550 524h-89v-524h-96v158q-13 -27 -51 -50.5t-94 -23.5q-84 0 -137 52t-53 131q0 86 54.5 133.5t135.5 47.5q40 0 81 -13l-18 -75q-23 7 -47 7q-46 0 -76.5 -25.5t-30.5 -74.5q0 -48 29.5 -75.5t77.5 -27.5q59 0 91 36.5t34 90.5v233h-378v81h567v-81z" />
    <glyph glyph-name="dvSHA" unicode="&#x936;" horiz-adv-x="626" 
d="M458 0v524h-65v81h250v-81h-89v-524h-96zM152 244l153 -205l-82 -54l-158 228l-45 28l24 73q10 -1 62 -1q72 1 112.5 28.5t40.5 93.5q0 92 -57 92q-23 0 -35 -15t-12 -39q0 -23 7 -45l-80 -17q-15 30 -15 68q0 60 38 96t97 36q74 0 114 -43t40 -127q0 -93 -54 -143.5
t-150 -53.5z" />
    <glyph glyph-name="dvSSA" unicode="&#x937;" horiz-adv-x="526" 
d="M231 143q-82 0 -127.5 38.5t-45.5 130.5v212h-75v81h560v-81h-89v-524h-96v173q-58 -30 -127 -30zM358 524h-202l190 -196l4 -5q4 -5 8 -8v209zM252 221q48 0 92 19l-182 189q-1 2 -6 7v-125q0 -90 96 -90z" />
    <glyph glyph-name="dvSA" unicode="&#x938;" horiz-adv-x="627" 
d="M354 307q64 0 101 22v195h-203q40 -52 40 -118q0 -45 -18 -78q36 -21 80 -21zM644 524h-89v-524h-100v234q-36 -13 -86 -13q-80 0 -149 51q-33 -20 -79 -27l156 -205l-81 -55l-161 227l-45 29l24 73h34q62 0 93 28t31 78q0 54 -35 104h-174v81h661v-81z" />
    <glyph glyph-name="dvHA" unicode="&#x939;" horiz-adv-x="461" 
d="M182 450q57 0 103 -8v82h-302v81h495v-81h-92v-159q-110 11 -167 11q-65 0 -65 -46q0 -33 22 -51q37 11 79 11q81 0 120.5 -35.5t39.5 -97.5q0 -25 -9 -50l-88 24q5 27 5 32q0 55 -75 55q-45 0 -72 -21t-27 -62q0 -97 134 -97q31 0 67 6l7 -77q-32 -8 -84 -8
q-105 0 -165.5 45.5t-60.5 126.5q0 38 16.5 70t48.5 49q-57 33 -57 98q0 47 35.5 74.5t91.5 27.5z" />
    <glyph glyph-name="dvNukta" unicode="&#x93c;" horiz-adv-x="0" 
d="M-248 -146l-70 69l70 71l70 -69z" />
    <glyph glyph-name="dvAvagraha" unicode="&#x93d;" horiz-adv-x="471" 
d="M206 -11q-114 0 -188 37q5 13 16.5 39.5l15.5 35.5q68 -25 154 -25q67 0 100.5 23t33.5 63q0 8 -1.5 15t-6 14t-8.5 12t-12 12t-13.5 11t-17 11t-17.5 11t-19.5 11.5t-19.5 11.5q-41 24 -61 37.5t-45.5 37t-36 49t-10.5 58.5q0 76 54 114t131 38h153v-85h-130
q-110 0 -110 -67q0 -9 3 -18t10.5 -17.5t14 -15t19.5 -15l20.5 -13.5t23.5 -14.5l23 -13.5q34 -21 50.5 -32t41 -30t35.5 -34.5t19.5 -38t8.5 -48.5q0 -87 -66 -130.5t-165 -43.5z" />
    <glyph glyph-name="dvmAA" unicode="&#x93e;" 
d="M73 0v524h-90v81h279v-81h-90v-524h-99z" />
    <glyph glyph-name="dvmI" unicode="&#x93f;" 
d="M307 762q-135 0 -135 -110v-47h90v-81h-90v-524h-99v524h-90v81h90v47q0 90 59 144.5t158 54.5q201 0 376 -128l-44 -72q-154 111 -315 111z" />
    <glyph glyph-name="dvmII" unicode="&#x940;" 
d="M73 0v524h-90v81h89v86q0 72 -62 72q-80 0 -112 -114l-85 39q50 163 205 163q77 0 115 -43.5t38 -110.5v-92h91v-81h-90v-524h-99z" />
    <glyph glyph-name="dvmU" unicode="&#x941;" horiz-adv-x="0" 
d="M-216 -71l-22 70q49 19 105 19q59 0 102 -31.5t43 -95.5q0 -67 -44.5 -104.5t-130.5 -37.5q-77 0 -147 46t-118 108l58 59q111 -135 209 -135q81 0 81 61q0 26 -18 40.5t-49 14.5q-29 0 -69 -14z" />
    <glyph glyph-name="dvmUU" unicode="&#x942;" horiz-adv-x="0" 
d="M-86 -181l8 -74q-22 -4 -50 -4q-66 0 -114.5 34t-48.5 103q0 63 44 101.5t113 38.5q43 0 82.5 -15.5t67 -38t53.5 -55.5t41 -59.5t31 -59.5l-75 -41q-1 1 -13 24t-15.5 28.5l-16.5 27t-20 29.5t-20 24.5t-24 24l-25 17t-29 13t-31 3.5q-31 0 -50.5 -16.5t-19.5 -44.5
q0 -63 75 -63q19 0 37 3z" />
    <glyph glyph-name="dvmvR" unicode="&#x943;" horiz-adv-x="0" 
d="M-73 79v-87q-69 -28 -101 -54t-32 -58q0 -55 77 -55q46 0 104 15l12 -82q-49 -16 -125 -16q-64 0 -113 33t-49 103q0 68 60 115.5t167 85.5z" />
    <glyph glyph-name="dvmEcandra" unicode="&#x945;" horiz-adv-x="0" 
d="M-122 687q-74 0 -124.5 34.5t-72.5 92.5l71 38q43 -82 126 -82q84 0 127 82l68 -37q-22 -58 -71 -93t-124 -35z" />
    <glyph glyph-name="dvmEshort" unicode="&#x946;" horiz-adv-x="0" 
d="M-254 693l-57 27q-70 34 -83 104l-6 31l90 14l4 -24q6 -24 17.5 -35t38.5 -24l64 -30q55 -26 82 -59t28 -95h-96q-2 39 -17 53.5t-65 37.5z" />
    <glyph glyph-name="dvmE" unicode="&#x947;" horiz-adv-x="0" 
d="M-79 605h-83l-187 185l66 68q4 -5 36 -37.5t34 -35.5l31 -32.5t34.5 -37.5l25 -31t27 -40.5t16.5 -38.5z" />
    <glyph glyph-name="dvmAI" unicode="&#x948;" horiz-adv-x="0" 
d="M-126 629l3 1l-59 222l89 17l25 -142q6 -36 6 -57q0 -30 -11 -65h-108l-200 182l62 64l128 -128q44 -44 65 -94z" />
    <glyph glyph-name="dvmOcandra" unicode="&#x949;" 
d="M73 0v524h-90v81h279v-81h-90v-524h-99zM121 687q-74 0 -124.5 34.5t-72.5 92.5l71 38q43 -82 126 -82q84 0 127 82l68 -37q-22 -58 -71 -93t-124 -35z" />
    <glyph glyph-name="dvmOshort" unicode="&#x94a;" 
d="M73 0v524h-90v81h91q-3 37 -18.5 51.5t-63.5 36.5l-57 27q-70 34 -83 104l-6 31l90 14l4 -24q6 -24 17.5 -35t38.5 -24l64 -30q54 -26 81.5 -58.5t28.5 -92.5h92v-81h-90v-524h-99z" />
    <glyph glyph-name="dvmO" unicode="&#x94b;" 
d="M73 0v524h-90v81h100l-187 185l66 68q4 -5 36 -37.5t34 -35.5l31 -32.5t34.5 -37.5l25 -31t27 -40.5t16.5 -38.5h96v-81h-90v-524h-99z" />
    <glyph glyph-name="dvmAU" unicode="&#x94c;" 
d="M73 0v524h-90v81h81l-200 182l62 64l128 -128q44 -44 65 -94l3 1l-59 222l89 17l25 -142q6 -36 6 -57q0 -30 -11 -65h90v-81h-90v-524h-99z" />
    <glyph glyph-name="dvVirama" unicode="&#x94d;" horiz-adv-x="0" 
d="M-121 -18l199 -172l-58 -63l-198 171z" />
    <glyph glyph-name="dvOm" unicode="&#x950;" horiz-adv-x="848" 
d="M673 12l-64 67q117 89 117 213q0 43 -18.5 70t-52.5 27q-40 0 -60 -55q-4 -12 -17 -63q-9 -32 -15 -49t-18 -38.5t-30 -30.5t-43 -9t-45 11q-9 -71 -63.5 -117.5t-149.5 -46.5q-76 0 -131.5 24.5t-84.5 51.5l50 73q29 -24 73 -43t89 -19q51 0 84 26.5t33 76.5
q0 46 -28 68.5t-77 22.5q-28 0 -58 -5l-11 83q76 8 107 29.5t31 69.5q0 37 -23.5 58t-69.5 21q-42 0 -76 -12l-15 81q43 15 105 15q74 0 124 -38t50 -114q0 -102 -89 -132q98 -10 124 -96q11 -5 26 -5q11 0 19 6t14 19.5t9 24.5t8.5 33.5t8.5 33.5q15 60 45.5 96t94.5 36
q74 0 124.5 -52.5t50.5 -142.5q0 -89 -46 -160t-102 -109zM558 691l-63 61l61 60l62 -61zM558 534q-72 0 -121.5 33.5t-70.5 90.5l69 36q42 -80 123 -80q82 0 124 80l66 -35q-49 -125 -190 -125z" />
    <glyph glyph-name="dvKxA" unicode="&#x958;" horiz-adv-x="748" 
d="M418 524v-152q13 25 47 44.5t78 19.5q79 0 127 -45.5t48 -125.5q0 -85 -50.5 -131t-130.5 -46q-26 0 -50 4l5 81q15 -3 30 -3q44 0 70 24.5t26 68.5q0 43 -24.5 67.5t-68.5 24.5t-71.5 -29.5t-30.5 -77.5v-248h-91v151q-13 -25 -47.5 -43.5t-79.5 -18.5q-79 0 -127 46
t-48 126q0 83 52 129t130 46q24 0 52 -6l-7 -78q-14 2 -31 2q-44 0 -70 -23t-26 -68q0 -43 25 -67.5t71 -24.5q44 0 71 27t30 73v253h-344v81h782v-81h-347zM176 -97l-70 69l70 71l70 -69z" />
    <glyph glyph-name="dvKHxA" unicode="&#x959;" horiz-adv-x="746" 
d="M574 524h-322q40 -52 40 -118t-39.5 -108t-110.5 -53q55 -153 206 -153q55 0 100 19q-60 4 -99.5 48.5t-39.5 103.5q0 73 49.5 115t120.5 42q21 0 46 -5l-7 -73q-24 2 -32 2q-37 0 -61 -22t-24 -61t24 -63.5t60 -24.5q61 0 89 37v314zM763 524h-90v-524h-95v103
q-43 -43 -104 -68.5t-126 -25.5q-100 0 -179 50.5t-116 156.5l-44 24l24 74h34q62 0 93.5 28t31.5 78q0 54 -35 104h-174v81h780v-81zM120 -114l-70 69l70 71l70 -69z" />
    <glyph glyph-name="dvGxA" unicode="&#x95a;" horiz-adv-x="535" 
d="M54 307l58 40v177h-129v81h569v-81h-90v-524h-99v524h-151v-339h-100q-19 21 -35.5 56.5t-22.5 65.5zM163 -87l-70 69l70 71l70 -69z" />
    <glyph glyph-name="dvJxA" unicode="&#x95b;" horiz-adv-x="597" 
d="M2 78l16 77q52 -12 97 -12q113 0 113 90q0 64 -52 96h-79v80h327v115h-441v81h631v-81h-90v-524h-100v329h-142q17 -9 32.5 -39t15.5 -71q0 -77 -51.5 -117.5t-147.5 -40.5q-70 0 -129 17zM295 -98l-70 69l70 71l70 -69z" />
    <glyph glyph-name="dvDDxA" unicode="&#x95c;" horiz-adv-x="453" 
d="M24 72l46 70q69 -57 151 -57q90 0 90 59q0 23 -13.5 35t-50.5 19l-87 16q-116 23 -116 120q0 59 40.5 89t100.5 30q48 0 88 -6v77h-290v81h487v-81h-97v-158q-123 14 -173 14q-60 0 -60 -45q0 -21 13 -31.5t43 -15.5l89 -16q125 -21 125 -127q0 -68 -51.5 -104.5
t-135.5 -36.5q-121 0 -199 68zM231 -173l-70 69l70 71l70 -69z" />
    <glyph glyph-name="dvDDHxA" unicode="&#x95d;" horiz-adv-x="481" 
d="M498 524h-90v-181q-67 7 -123 7q-159 0 -159 -125q0 -66 43 -103t100 -37q49 0 71.5 21.5t22.5 50.5q0 19 -10.5 31.5t-26.5 12.5q-35 0 -45 -35l-60 28q11 40 41 62t72 22q47 0 82 -32t35 -85q0 -68 -49.5 -112t-135.5 -44q-99 0 -169.5 63t-70.5 161q0 92 61 144.5
t151 52.5q58 0 70 -3v101h-325v81h515v-81zM274 -179l-70 69l70 71l70 -69z" />
    <glyph glyph-name="dvPHxA" unicode="&#x95e;" horiz-adv-x="766" 
d="M783 605v-81h-349v-138q51 47 126 47q81 0 128 -47.5t47 -128.5q0 -82 -51.5 -131t-134.5 -47q-25 0 -41 4l6 80q12 -2 21 -2q45 0 72.5 25t27.5 71q0 41 -24.5 66.5t-65.5 25.5q-40 0 -69 -21t-42 -51v-277h-96v186q-50 -32 -119 -32q-71 0 -116 40t-45 125v205h-75v81
h800zM338 524h-181v-204q0 -88 84 -88q54 0 97 28v264zM176 -64l-70 69l70 71l70 -69z" />
    <glyph glyph-name="danda" unicode="&#x964;" horiz-adv-x="368" 
d="M196 0v605h100v-605h-100z" />
    <glyph glyph-name="doubledanda" unicode="&#x965;" horiz-adv-x="602" 
d="M196 0v605h100v-605h-100zM430 0v605h100v-605h-100z" />
    <glyph glyph-name="dvZero" unicode="&#x966;" horiz-adv-x="515" 
d="M150 304q0 -228 107 -228t107 228q0 113 -24 170.5t-83 57.5q-107 0 -107 -228zM468 304q0 -66 -11 -120t-35 -98t-66 -68.5t-99 -24.5q-210 0 -210 311q0 139 50 225t160 86q211 0 211 -311z" />
    <glyph glyph-name="dvOne" unicode="&#x967;" horiz-adv-x="457" 
d="M74 471q0 65 42.5 106.5t115.5 41.5q82 0 124.5 -46t42.5 -113q0 -83 -50.5 -150t-133.5 -106q90 -47 90 -148v-56h-95v36q0 41 -17 70t-37.5 42t-64.5 36l13 70q80 29 126 66q-71 10 -113.5 51t-42.5 100zM169 468q0 -34 28 -58t86 -28q20 37 20 81q0 34 -17.5 54.5
t-49.5 20.5q-30 0 -48.5 -20t-18.5 -50z" />
    <glyph glyph-name="dvTwo" unicode="&#x968;" horiz-adv-x="483" 
d="M45 247l35 84q55 -10 91 -10q76 0 119 24.5t43 87.5q0 49 -29 72.5t-78 23.5q-63 0 -131 -19l-25 81q77 23 156 23q104 0 157.5 -50t53.5 -131q0 -86 -54.5 -140t-163.5 -54q-1 0 -29 4l202 -210l-75 -69l-217 238z" />
    <glyph glyph-name="dvThree" unicode="&#x969;" horiz-adv-x="475" 
d="M194 48l48 -59l-77 -61l-153 206l72 61q50 -57 130 -57q109 0 109 89q0 83 -95 83l-103 -13l-13 83l38 5q81 12 110.5 27t29.5 60q0 65 -83 65q-73 0 -129 -19l-24 75q69 24 149 24q87 0 138.5 -35.5t51.5 -107.5q0 -42 -24.5 -72t-63.5 -38q62 -7 91.5 -44t29.5 -93
q-1 -76 -51 -118.5t-127 -42.5q-59 0 -90 20z" />
    <glyph glyph-name="dvFour" unicode="&#x96a;" horiz-adv-x="522" 
d="M260 -7q-89 0 -142.5 47.5t-53.5 121.5q0 51 31.5 102t100.5 123l-164 163l68 64l161 -161l161 161l68 -63l-165 -164q69 -72 100.5 -123t31.5 -102q0 -74 -54 -121.5t-143 -47.5zM260 74q45 0 70 24t25 63q0 35 -20.5 69.5t-73.5 90.5q-54 -56 -74.5 -90t-20.5 -70
q0 -39 24.5 -63t69.5 -24z" />
    <glyph glyph-name="dvFive" unicode="&#x96b;" horiz-adv-x="554" 
d="M420 387l135 -388l-90 -31l-62 179q-56 -32 -127 -32q-97 0 -162 61.5t-65 161.5q0 144 138 290l78 -55q-115 -131 -115 -234q0 -66 36.5 -98.5t94.5 -32.5q47 0 93 25l-43 124z" />
    <glyph glyph-name="dvSix" unicode="&#x96c;" horiz-adv-x="501" 
d="M416 -42l-43 144q-46 -63 -147 -63q-80 0 -128.5 43.5t-48.5 123.5q0 54 32.5 89.5t80.5 44.5q-42 8 -68 42t-26 81q0 154 199 154q80 0 149 -26l-23 -77q-62 21 -129 21q-45 0 -69 -18.5t-24 -53.5q0 -36 23.5 -57.5t53.5 -25.5l117 12l8 -82l-84 -9
q-70 -8 -103.5 -30.5t-33.5 -64.5q0 -40 23 -63t68 -23q49 0 78 22t40 47l75 18l68 -226z" />
    <glyph glyph-name="dvSeven" unicode="&#x96d;" horiz-adv-x="580" 
d="M214 445q0 77 40.5 124t107.5 47q171 0 171 -289q0 -170 -65 -251.5t-161 -81.5q-111 0 -185.5 97.5t-74.5 286.5q0 117 30 217l93 -14q-26 -120 -26 -203q0 -153 47.5 -226.5t114.5 -73.5q49 0 83.5 40.5t43.5 120.5q-106 0 -162.5 61.5t-56.5 144.5zM438 360
q0 177 -75 177q-19 0 -37 -22.5t-18 -73.5q0 -55 34 -88.5t89 -36.5h6q1 14 1 44z" />
    <glyph glyph-name="dvEight" unicode="&#x96e;" horiz-adv-x="468" 
d="M401 120l37 -78q-76 -49 -173 -49q-93 0 -151 51.5t-58 132.5q0 47 17.5 92t62 102t90 106l132.5 136l72 -58q-154 -152 -214.5 -232.5t-60.5 -140.5q0 -51 32 -76.5t81 -25.5q73 0 133 40z" />
    <glyph glyph-name="dvNine" unicode="&#x96f;" horiz-adv-x="479" 
d="M205 18q40 43 40 74q0 21 -23 52l-79 96q-47 55 -72.5 101.5t-25.5 100.5q0 73 49.5 123t136.5 50q89 0 139.5 -49.5t50.5 -124.5q0 -74 -48.5 -124t-124.5 -55l72 -86q32 -39 32 -84q0 -62 -59 -119zM198 337q53 0 88 25.5t35 80.5q0 41 -24.5 65.5t-63.5 24.5
t-63.5 -23.5t-24.5 -66.5q0 -55 40 -105q5 -1 13 -1z" />
    <glyph glyph-name="dvAbbreviationsign" unicode="&#x970;" horiz-adv-x="354" 
d="M321 266q0 -63 -42 -102t-105 -39q-64 0 -103 37.5t-39 102.5q0 61 41.5 100t106.5 39q64 0 102.5 -38t38.5 -100zM178 196q25 0 41.5 18.5t16.5 49.5q0 32 -17 50.5t-43 18.5t-42 -18t-16 -50t16.5 -50.5t43.5 -18.5z" />
    <glyph glyph-name="swastika" unicode="&#xfd5;" horiz-adv-x="764" 
d="M693 343v-343h-88v259h-176v-259h-357v81h265v180h-266v344h89v-262h177v262h356v-81h-264v-181h264z" />
    <glyph glyph-name="zerowidthnonjoiner" unicode="&#x200c;" horiz-adv-x="0" 
d="M-75 732l-28 28l76 74l-76 75l28 28l75 -76l74 76l28 -28l-76 -75l76 -74l-28 -28l-74 75z" />
    <glyph glyph-name="zerowidthjoiner" unicode="&#x200d;" horiz-adv-x="0" 
d="M135 835h-36v46h-200v-46h-36v81h272v-81z" />
    <glyph glyph-name="endash" unicode="&#x2013;" horiz-adv-x="525" 
d="M64 205v80h396v-80h-396z" />
    <glyph glyph-name="emdash" unicode="&#x2014;" horiz-adv-x="807" 
d="M64 205v80h679v-80h-679z" />
    <glyph glyph-name="quoteleft" unicode="&#x2018;" horiz-adv-x="196" 
d="M47 495v70q0 87 44 153h67q-29 -55 -29 -122v-101h-82z" />
    <glyph glyph-name="quoteright" unicode="&#x2019;" horiz-adv-x="205" 
d="M49 495q29 55 29 122v101h83v-70q0 -86 -45 -153h-67z" />
    <glyph glyph-name="quotesinglbase" unicode="&#x201a;" horiz-adv-x="203" 
d="M28 -104q26 48 26 109v103h93v-73q0 -79 -47 -139h-72z" />
    <glyph glyph-name="quotedblleft" unicode="&#x201c;" horiz-adv-x="355" 
d="M47 495v70q0 87 44 153h67q-29 -58 -29 -122v-101h-82zM204 495v70q0 88 45 153h67q-29 -55 -29 -122v-101h-83z" />
    <glyph glyph-name="quotedblright" unicode="&#x201d;" horiz-adv-x="364" 
d="M51 495q28 56 28 122v101h84v-70q0 -87 -46 -153h-66zM208 495q29 58 29 122v101h83v-70q0 -86 -45 -153h-67z" />
    <glyph glyph-name="quotedblbase" unicode="&#x201e;" horiz-adv-x="333" 
d="M24 -104q26 48 26 109v103h89v-73q0 -80 -46 -139h-69zM171 -104q25 47 25 109v103h90v-73q0 -79 -47 -139h-68z" />
    <glyph glyph-name="dagger" unicode="&#x2020;" horiz-adv-x="451" 
d="M167 0l7 412l-144 -6v103l143 -6l-8 142h121l-7 -142l143 6v-103l-145 6l7 -412h-117z" />
    <glyph glyph-name="daggerdbl" unicode="&#x2021;" horiz-adv-x="478" 
d="M180 0l7 142l-144 -6v104l144 -6v178l-144 -6v103l143 -6l-7 142h120l-6 -142l143 6v-103l-144 6v-178l144 6v-104l-144 6l6 -142h-118z" />
    <glyph glyph-name="bullet" unicode="&#x2022;" horiz-adv-x="396" 
d="M198 157q-60 0 -101 39.5t-41 100.5t41.5 101.5t100.5 40.5q60 0 100.5 -39.5t40.5 -102.5q0 -59 -41.5 -99.5t-99.5 -40.5z" />
    <glyph glyph-name="ellipsis" unicode="&#x2026;" horiz-adv-x="733" 
d="M57 0v109h117v-109h-117zM308 0v109h117v-109h-117zM559 0v109h118v-109h-118z" />
    <glyph glyph-name="perthousand" unicode="&#x2030;" horiz-adv-x="1047" 
d="M180 312q-65 0 -106.5 36t-41.5 109q0 71 43.5 112.5t106.5 41.5q66 0 109.5 -35.5t43.5 -112.5q0 -71 -44.5 -111t-110.5 -40zM180 392q26 0 42.5 17.5t16.5 53.5q0 69 -57 69q-23 0 -38.5 -17.5t-15.5 -57.5q0 -65 52 -65zM525 -9q-64 0 -106.5 36t-42.5 109
q0 71 44.5 113t107.5 42q65 0 108 -36.5t43 -112.5q0 -71 -44.5 -111t-109.5 -40zM525 71q26 0 42 17.5t16 53.5q0 69 -55 69q-24 0 -40 -17.5t-16 -57.5q0 -65 53 -65zM860 -9q-65 0 -107 36t-42 109q0 71 44 113t108 42q65 0 108 -36.5t43 -112.5q0 -71 -44.5 -111
t-109.5 -40zM860 71q26 0 42 17.5t16 53.5q0 69 -55 69q-56 0 -56 -75q0 -65 53 -65zM139 38l-61 62l483 455l60 -62z" />
    <glyph glyph-name="guilsinglleft" unicode="&#x2039;" horiz-adv-x="267" 
d="M152 57l-112 223l112 221l67 -26l-90 -195l89 -192z" />
    <glyph glyph-name="guilsinglright" unicode="&#x203a;" horiz-adv-x="266" 
d="M113 57l-65 31l87 192l-89 195l67 26l111 -221z" />
    <glyph glyph-name="fraction" unicode="&#x2044;" horiz-adv-x="154" 
d="M-131 56l-42 45l458 463l42 -44z" />
    <glyph glyph-name="Euro" unicode="&#x20ac;" horiz-adv-x="568" 
d="M378 -7q-228 0 -279 199h-75v67h66q-2 15 -2 42q0 17 2 47h-66v66h76q51 200 276 200q92 0 162 -32l-27 -74q-73 21 -134 22q-127 0 -167 -116h206v-66h-223q-2 -12 -2 -40q0 -15 2 -49h223v-67h-201q42 -114 177 -114q53 0 124 19l24 -78q-73 -26 -162 -26z" />
    <glyph glyph-name="trademark" unicode="&#x2122;" horiz-adv-x="713" 
d="M307 301v304h89l88 -221l91 221h85v-304h-77l2 166l-65 -166h-78l-60 163l2 -163h-77zM116 301v237h-95v67h267v-67h-95v-237h-77z" />
    <glyph glyph-name="uni2126" unicode="&#x2126;" horiz-adv-x="726" 
d="M44 0v98h126q-48 26 -84.5 83t-36.5 129q0 144 85 224.5t234 80.5q152 0 230 -82t78 -222q0 -68 -36.5 -127.5t-85.5 -85.5h128v-98h-254v94q129 89 129 217q0 95 -50 152t-145 57q-94 0 -144 -56t-50 -151q0 -125 128 -219v-94h-252z" />
    <glyph glyph-name="partialdiff" unicode="&#x2202;" horiz-adv-x="518" 
d="M254 -11q-45 0 -80 8t-67.5 28.5t-50 61t-17.5 99.5q0 79 57 141t153 62q29 0 93 -8q-40 108 -195 145l36 95q297 -72 297 -341q0 -291 -226 -291zM248 84q31 0 52.5 12t33.5 29.5t18.5 45.5t8 50.5t1.5 54.5v17q-73 10 -95 10q-52 0 -82.5 -32t-30.5 -87q0 -48 24.5 -74
t69.5 -26z" />
    <glyph glyph-name="uni2206" unicode="&#x2206;" horiz-adv-x="624" 
d="M467 98l-110 311l-36 121l-41 -122l-120 -310h307zM624 0h-622l247 605h152z" />
    <glyph glyph-name="product" unicode="&#x220f;" horiz-adv-x="662" 
d="M96 -188v701h-86v92h643v-92h-87v-701h-117v701h-236v-701h-117z" />
    <glyph glyph-name="summation" unicode="&#x2211;" horiz-adv-x="463" 
d="M24 -188v75l154 321l-155 322v75h419v-93h-307l149 -304l-146 -303h304v-93h-418z" />
    <glyph glyph-name="minus" unicode="&#x2212;" horiz-adv-x="485" 
d="M32 237v77h423v-77h-423z" />
    <glyph glyph-name="radical" unicode="&#x221a;" horiz-adv-x="605" 
d="M222 0l-104 374h-121v93h217l70 -277l21 -97l27 97l166 526h116l-237 -716h-155z" />
    <glyph glyph-name="infinity" unicode="&#x221e;" horiz-adv-x="827" 
d="M208 109q-75 0 -113 40.5t-38 109.5t41.5 111.5t112.5 42.5q16 0 33 -4.5t29.5 -9.5t33.5 -17.5t31.5 -20l37 -26.5l38.5 -27l45.5 31.5t44.5 30t36.5 21.5t40 17t37.5 5q73 0 113 -41t40 -108q0 -69 -42 -112t-115 -43q-24 0 -50.5 10.5t-44.5 21.5t-54 36l-55 38
l-44.5 -31.5l-44 -30.5t-36 -22t-40.5 -17.5t-37 -4.5zM212 195q11 0 22.5 3t27.5 12l23.5 13t30 19.5t26.5 18.5l-27.5 18.5l-30 20t-24.5 14t-28 12t-23 3.5q-30 0 -48 -20.5t-18 -46.5q0 -29 18 -48t51 -19zM617 195q31 0 48.5 20t17.5 47q0 28 -18 47.5t-50 19.5
q-7 0 -15.5 -1.5t-18.5 -6t-17.5 -8.5l-20.5 -11.5t-19 -11.5l-21.5 -14.5t-20.5 -13.5q10 -6 29 -19t29.5 -19l25.5 -14t27.5 -11.5t23.5 -3.5z" />
    <glyph glyph-name="integral" unicode="&#x222b;" horiz-adv-x="350" 
d="M-52 -198l-8 95l34.5 3t31.5 3t24.5 4t21.5 6.5t15 9.5t12.5 14.5t5.5 21t3 28.5v444q0 47 15 81.5t38.5 54t59.5 30.5t69.5 14.5t77.5 3.5l8 -97q-92 -6 -110 -12q-39 -13 -43 -63v-12v-444q0 -47 -14.5 -81.5t-37 -54t-57.5 -31t-68.5 -15t-77.5 -3.5z" />
    <glyph glyph-name="approxequal" unicode="&#x2248;" horiz-adv-x="504" 
d="M329 98q-41 0 -91 26t-71 26q-37 0 -69 -28l-53 58q61 71 126 71q41 0 88 -26t70 -26h5.5h6.5h6.5t6.5 0.5t7 1.5t8 2.5t8 3.5t9 5t9.5 6.5t10.5 8.5l53 -54q-21 -30 -58.5 -52.5t-71.5 -22.5zM329 292q-41 0 -91 26t-71 26q-38 0 -69 -28l-53 59q61 71 126 71
q41 0 88 -26.5t70 -26.5q15 0 21.5 0.5t22.5 7t33 20.5l53 -53q-21 -31 -58.5 -53.5t-71.5 -22.5z" />
    <glyph glyph-name="notequal" unicode="&#x2260;" horiz-adv-x="494" 
d="M34 16l74 102h-57l-2 88h123l84 115h-205l-2 87h271l66 91h75l-67 -91h50v-87h-113l-84 -115h197v-88h-260l-75 -102h-75z" />
    <glyph glyph-name="lessequal" unicode="&#x2264;" horiz-adv-x="500" 
d="M437 111l-375 137v109l375 138v-98l-259 -95l259 -94v-97zM61 0v93h377v-93h-377z" />
    <glyph glyph-name="greaterequal" unicode="&#x2265;" horiz-adv-x="500" 
d="M62 111v97l259 94l-259 95v98l375 -138v-109zM61 0v93h377v-93h-377z" />
    <glyph glyph-name="lozenge" unicode="&#x25ca;" horiz-adv-x="519" 
d="M184 0l-166 304l173 301h143l167 -303l-174 -302h-143zM256 91l114 210l-109 214l-113 -210z" />
    <glyph glyph-name="dottedcircle" unicode="&#x25cc;" horiz-adv-x="582" 
d="M257 72q0 14 10 24t24 10t24 -10t10 -24t-10 -24.5t-24 -10.5t-24 10.5t-10 24.5zM342 89q0 14 10 24t24 10t24 -10t10 -24t-10 -24.5t-24 -10.5q-13 0 -23.5 10.5t-10.5 24.5zM418 138q0 14 10 24.5t24 10.5t24 -10.5t10 -24.5t-10 -24t-24 -10t-24 10t-10 24zM466 211
q0 14 10.5 24t24.5 10q13 0 23.5 -10.5t10.5 -23.5q0 -15 -10 -25t-24 -10t-24.5 10t-10.5 25zM484 299q0 14 10.5 24t24.5 10t24 -10t10 -24q0 -13 -10.5 -23.5t-23.5 -10.5q-14 0 -24.5 10t-10.5 24zM467 384q0 14 10.5 24t24.5 10t24 -10t10 -24q0 -13 -10 -23t-24 -10
t-24.5 10t-10.5 23zM419 459q0 14 10 24.5t24 10.5t24.5 -10.5t10.5 -24.5q0 -13 -10.5 -23.5t-24.5 -10.5t-24 10t-10 24zM347 508q0 14 10 24t24 10t24 -10t10 -24t-10 -24.5t-24 -10.5q-13 0 -23.5 10.5t-10.5 24.5zM258 526q0 14 10 24t24 10t24 -10t10 -24t-10 -24
t-24 -10t-24 10t-10 24zM173 511q0 14 10 24t24 10t24.5 -10t10.5 -24t-10.5 -24.5t-24.5 -10.5t-24 10.5t-10 24.5zM97 458q0 14 10.5 24.5t23.5 10.5q14 0 24 -10.5t10 -24.5t-10 -24t-24 -10q-13 0 -23.5 10t-10.5 24zM48 389q0 13 10.5 23t24.5 10t24 -9.5t10 -23.5
t-10 -24t-24 -10t-24.5 10t-10.5 24zM30 299q0 14 10 24t24 10t24.5 -10t10.5 -24t-10.5 -24t-24.5 -10t-24 10.5t-10 23.5zM46 215q0 14 10.5 24t24.5 10t24 -10t10 -24q0 -15 -10 -25t-24 -10t-24.5 10t-10.5 25zM97 137q0 14 10 24.5t24 10.5t24 -10.5t10 -24.5t-10 -24
t-24 -10q-13 0 -23.5 10.5t-10.5 23.5zM170 90q0 14 10 24t24 10t24.5 -10t10.5 -24t-10.5 -24.5t-24.5 -10.5t-24 10.5t-10 24.5z" />
    <glyph glyph-name="fi" unicode="&#xfb01;" horiz-adv-x="553" 
d="M88 0v386h-68v81h68v27q0 93 49.5 133.5t130.5 40.5q18 0 52.5 -2.5t50.5 -2.5q69 0 107 5l17 -87q-54 -18 -126 -18q-13 0 -46.5 2.5t-56.5 2.5q-34 0 -48.5 -16.5t-14.5 -57.5v-27h288v-467h-115v386h-174v-386h-114z" />
    <glyph glyph-name="fl" unicode="&#xfb02;" horiz-adv-x="553" 
d="M88 0v386h-68v81h68v27q0 91 49 132.5t131 41.5q19 0 53 -3t50 -3q44 0 120 8v-670h-115v563q-16 0 -50.5 2.5t-58.5 2.5q-35 0 -49.5 -16.5t-14.5 -56.5v-28h99v-81h-100v-386h-114z" />
    <glyph glyph-name="dvK_SSA" horiz-adv-x="721" 
d="M423 0h-92v104q-15 -20 -46.5 -36t-74.5 -16q-84 0 -135 46.5t-51 127.5q0 66 41.5 109t101.5 59q-44 37 -44 100q0 54 37 88t96 34q63 0 97 -34t34 -89q0 -77 -67 -110q35 -12 100 -12q74 0 128 32v121h-87v81h277v-81h-90v-524h-100v310q-61 -22 -124 -22
q-109 0 -184 49q-48 -7 -80.5 -34t-32.5 -73q0 -47 29.5 -72.5t76.5 -25.5q42 0 68.5 24t29.5 58h92v-214zM206 487q0 -45 41 -66q55 17 55 67q0 24 -12 39.5t-35 15.5q-24 0 -36.5 -15.5t-12.5 -40.5z" />
    <glyph glyph-name="dvJ_NYA" horiz-adv-x="626" 
d="M454 0v350h-205q52 -30 87.5 -76t35.5 -103q0 -62 -40 -104.5t-105 -42.5q-68 0 -110 42l-2 -2q39 -61 77 -140l-93 -38l-108 262l82 34q56 -82 130 -82q36 0 56.5 21t20.5 54q0 88 -151 181l22 74h303v94h-471v81h660v-81h-90v-524h-99z" />
    <glyph glyph-name="ITF" horiz-adv-x="1461" 
d="M74 0v605h187v-605h-187zM299 428v177h187v-177h-187zM524 0v605h187v-605h-187zM750 428v177h187v-177h-187zM975 0v605h187v-605h-187zM1200 428v177h187v-177h-187zM1200 214v176h187v-176h-187z" />
    <glyph glyph-name="dvReph" horiz-adv-x="0" 
d="M-51 589l-87 -16q-17 9 -33 22.5t-32 44t-16 67.5q0 64 42.5 105t110.5 41q46 0 82 -13l-14 -72q-38 7 -56 7q-33 0 -54.5 -20.5t-21.5 -54.5q0 -69 79 -111z" />
    <glyph glyph-name="dvEyelash" horiz-adv-x="216" 
d="M296 254q-55 -34 -131 -34q-101 0 -176 56l34 66q65 -36 129 -36q67 0 113 24zM233 524h-250v81h250v-81z" />
    <glyph glyph-name="dvRAc2" horiz-adv-x="0" 
d="M-221 -91l-127 -131l-68 67l195 179l196 -179l-68 -68z" />
    <glyph glyph-name="dvK" horiz-adv-x="561" 
d="M687 368l-63 -57q-30 43 -88 43q-46 0 -76 -27t-33 -74v-253h-95v151q-13 -25 -47.5 -43.5t-79.5 -18.5q-79 0 -127 46t-48 126q0 83 52 129t130 46q24 0 52 -6l-7 -78q-14 2 -31 2q-44 0 -70 -23t-26 -68q0 -43 25 -67.5t71 -24.5q44 0 71 27t30 73v253h-344v81h595v-81
h-151v-142q14 22 46.5 38.5t71.5 16.5q89 0 142 -69z" />
    <glyph glyph-name="dvKH" horiz-adv-x="528" 
d="M596 227l43 -53q-39 -73 -119.5 -119t-171.5 -46q-100 0 -179 50.5t-116 156.5l-44 24l24 74h34q62 0 93.5 28t31.5 78q0 54 -35 104h-174v81h576v-81h-307q40 -52 40 -118t-39.5 -108t-110.5 -53q55 -153 206 -153q55 0 100 19q-60 4 -99.5 48.5t-39.5 103.5
q0 73 49.5 115t120.5 42q21 0 46 -5l-7 -73q-24 2 -32 2q-37 0 -61 -22t-24 -61t24 -63.5t60 -24.5q74 0 111 54z" />
    <glyph glyph-name="dvG" horiz-adv-x="300" 
d="M54 307l58 40v177h-129v81h343v-81h-114v-339h-100q-19 21 -35.5 56.5t-22.5 65.5z" />
    <glyph glyph-name="dvGH" horiz-adv-x="386" 
d="M94 524h-111v81h420v-81h-210q-33 -30 -33 -74q0 -65 82 -65h47v-81h-40q-88 0 -88 -65q0 -73 104 -73q100 0 169 83l54 -55q-57 -65 -116.5 -90.5t-132.5 -25.5q-86 0 -134 41t-48 111q0 52 28 81t70 38q-44 3 -70 27.5t-26 69.5q0 51 35 78z" />
    <glyph glyph-name="dvC" horiz-adv-x="409" 
d="M426 524h-443v81h443v-81zM499 200q-98 -120 -240 -120q-83 0 -135.5 41t-52.5 114q0 42 18.5 70.5t37.5 40.5h-120v81h323v-81h-99q-61 -29 -61 -91q0 -44 28 -67t79 -23t90.5 20.5t79.5 68.5z" />
    <glyph glyph-name="dvJ" horiz-adv-x="410" 
d="M282 329q18 -10 33 -40t15 -70q0 -77 -51.5 -117.5t-147.5 -40.5q-70 0 -129 17l16 77q52 -12 97 -12q113 0 113 90q0 63 -52 96h-78v80h390v-80h-206zM427 524h-444v81h444v-81z" />
    <glyph glyph-name="dvJH" horiz-adv-x="478" 
d="M524 267l21 -79q-41 -26 -89 -26q-32 0 -64 13q8 -16 8 -32q-6 -56 -47 -87.5t-101 -31.5q-78 0 -115 44l66 -137l-87 -34l-91 238l87 33q3 -6 12 -15q16 -22 44.5 -38t62.5 -16q72 0 72 56q0 50 -54 57l-91 11q-52 7 -81 38t-29 81q0 54 39.5 84.5t100.5 30.5
q36 0 74 -6v73h-279v81h512v-81h-135v-151q-110 9 -144 9q-69 0 -69 -40q0 -37 46 -42l92 -13q32 -4 75.5 -24.5t78.5 -20.5q50 0 85 25z" />
    <glyph glyph-name="dvNY" horiz-adv-x="443" 
d="M98 348l-7 78q40 6 74 6q67 0 111.5 -26t61.5 -70q35 -43 85 -43q43 0 78 31l27 -80q-31 -36 -92 -36q-51 0 -82 36q-4 -73 -57 -118.5t-141 -45.5q-91 0 -147 20l15 82q67 -19 110 -19q118 0 118 98q0 91 -110 91q-23 0 -44 -4zM459 524h-476v81h476v-81z" />
    <glyph glyph-name="dvNN" horiz-adv-x="444" 
d="M461 524h-56v-198q0 -87 -42.5 -136t-132.5 -49q-173 0 -173 185v198h-74v81h478v-81zM157 524v-201q0 -50 16 -75.5t58 -25.5q41 0 57.5 26t16.5 75v201h-148z" />
    <glyph glyph-name="dvT" horiz-adv-x="321" 
d="M338 524h-355v81h355v-81zM416 381l-16 -76q-84 17 -150 17q-52 0 -84.5 -29t-32.5 -82q0 -87 62 -176l-76 -45q-85 99 -85 222q0 88 58 143t154 55q80 0 170 -29z" />
    <glyph glyph-name="dvTH" horiz-adv-x="399" 
d="M451 269l62 -54q-56 -82 -117.5 -110.5t-134.5 -28.5q-104 0 -167.5 71t-63.5 191v23l94 12q68 8 92 30.5t24 62.5q0 67 -46 67q-19 0 -29.5 -12.5t-10.5 -32.5q0 -17 5 -35l-77 -20q-10 21 -10 59q0 51 34 84.5t88 33.5q68 0 103.5 -40t35.5 -109q0 -141 -193 -156
q1 -67 38.5 -104t99.5 -37q31 0 58 8t44 18.5t33 27.5t22.5 27z" />
    <glyph glyph-name="dvD" horiz-adv-x="507" 
d="M347 124q-13 -24 -47 -40.5t-80 -16.5q-83 0 -134.5 51t-51.5 131q0 88 58 138t153 50q57 0 90 -5v92h-352v81h541v-81h-90v-180q-115 10 -176 10q-60 0 -90.5 -28.5t-30.5 -75.5q0 -48 28 -75.5t77 -27.5q44 0 72.5 24.5t32.5 58.5h92v-230h-92v124zM389 -18l199 -172
l-58 -63l-198 171z" />
    <glyph glyph-name="dvDH" horiz-adv-x="378" 
d="M216 605l21 -73q-77 -38 -77 -84q0 -66 78 -66h53v-82h-43q-41 0 -64 -16t-23 -45q0 -38 24.5 -55.5t79.5 -17.5q54 0 92.5 22.5t74.5 60.5l53 -54q-50 -58 -106 -86t-139 -28q-87 0 -135 39t-48 110q0 51 27.5 80t70.5 37q-44 2 -69.5 26.5t-25.5 71.5q0 25 13.5 46.5
t33.5 32.5h-124v81h233zM395 524h-63v81h63v-81z" />
    <glyph glyph-name="dvN" horiz-adv-x="271" 
d="M344 524h-361v81h361v-81zM16 315l49 45h319v-86h-231v-93h-92q-37 63 -45 134z" />
    <glyph glyph-name="dvP" horiz-adv-x="293" 
d="M379 278l42 -62q-87 -74 -199 -74q-84 0 -124 47.5t-40 121.5v213h-75v81h370v-81h-195v-204q0 -48 16.5 -69.5t65.5 -21.5q76 0 139 49z" />
    <glyph glyph-name="dvPH" horiz-adv-x="577" 
d="M705 362l-59 -59q-35 47 -99 47q-41 0 -71 -21.5t-42 -51.5v-277h-96v186q-50 -32 -119 -32q-71 0 -116 40t-45 125v205h-75v81h611v-81h-160v-139q17 18 50 33t75 15q93 0 146 -71zM338 524h-181v-204q0 -88 84 -88q54 0 97 28v264z" />
    <glyph glyph-name="dvB" horiz-adv-x="322" 
d="M377 249l58 -46q-80 -123 -211 -123q-88 0 -142 52.5t-54 132.5q0 87 56.5 135.5t139.5 48.5q46 0 80 -12l-12 -75q-21 7 -59 7q-25 0 -49 -8l163 -153q14 15 30 41zM235 159q38 0 65 12l-160 153q-14 -23 -14 -59q0 -49 30.5 -77.5t78.5 -28.5zM339 524h-356v81h356v-81
z" />
    <glyph glyph-name="dvBH" horiz-adv-x="414" 
d="M429 524h-52v81h52v-81zM287 462v-130h193v-80h-193v-96h-113q-45 71 -50 147q33 14 65 20v144q0 67 -45 67q-18 0 -29 -13t-11 -32q0 -22 15 -54l-74 -26q-24 36 -24 85q0 52 34.5 84.5t92.5 32.5q68 0 103.5 -40t35.5 -109z" />
    <glyph glyph-name="dvM" horiz-adv-x="354" 
d="M419 252h-223v-96h-115q-43 68 -52 147q35 15 67 20v201h-113v81h404v-81h-191v-192h223v-80z" />
    <glyph glyph-name="dvY" horiz-adv-x="395" 
d="M501 209q-81 -128 -227 -128q-105 0 -168 62t-66 184q0 4 0.5 12.5t0.5 13.5q147 3 147 72q0 56 -37 99h-168v81h429v-81h-171q43 -45 43 -107q0 -51 -38 -85.5t-103 -39.5q4 -61 40 -94t100 -33q49 0 89 25t64 66z" />
    <glyph glyph-name="dvL" horiz-adv-x="465" 
d="M484 524h-501v81h501v-81zM540 383l-22 -68q-44 23 -81 23q-74 0 -74 -91v-75h-92v70q0 97 -70 97q-34 0 -53 -27.5t-19 -79.5q0 -99 88 -177l-64 -60q-51 38 -87 101.5t-36 140.5q0 84 43.5 134.5t118.5 50.5q53 0 84 -24.5t41 -59.5q9 38 38 61.5t71 23.5q62 0 114 -40
z" />
    <glyph glyph-name="dvV" horiz-adv-x="330" 
d="M372 251l55 -39q-67 -129 -198 -129q-91 0 -145 50.5t-54 130.5q0 87 55.5 135.5t138.5 48.5q43 0 77 -13l-18 -75q-23 7 -49 7q-44 0 -74.5 -26.5t-30.5 -75.5q0 -47 29.5 -74t77.5 -27q86 0 136 87zM360 524h-377v81h377v-81z" />
    <glyph glyph-name="dvSH" horiz-adv-x="385" 
d="M148 244l153 -205l-82 -54l-158 228l-45 28l24 73q11 -1 62 -1q72 1 112.5 28.5t40.5 93.5q0 92 -57 92q-23 0 -35 -15t-12 -39q0 -19 8 -45l-81 -17q-14 33 -14 68q0 60 37.5 96t96.5 36q74 0 114.5 -43t40.5 -127q0 -93 -54.5 -143.5t-150.5 -53.5z" />
    <glyph glyph-name="dvSS" horiz-adv-x="343" 
d="M395 275l34 -62q-50 -42 -96.5 -58t-108.5 -16q-83 0 -124.5 49t-41.5 123v213h-75v81h377v-81h-203l172 -180q31 -32 61 -72q1 0 2.5 1t2.5 2zM245 222q52 0 94 20l-147 154q-24 26 -35 39v-121q0 -48 18.5 -70t69.5 -22z" />
    <glyph glyph-name="dvS" horiz-adv-x="410" 
d="M508 266q-55 -45 -139 -45q-80 0 -149 51q-33 -20 -79 -27l156 -205l-81 -55l-161 227l-45 29l24 73h34q62 0 93 28t31 78q0 54 -35 104h-174v81h444v-81h-175q40 -52 40 -118q0 -45 -18 -78q38 -21 80 -21q71 0 108 30z" />
    <glyph glyph-name="dvH" horiz-adv-x="396" 
d="M183 450q56 0 102 -8v82h-302v81h484v-81h-81v-159q-110 11 -166 11q-65 0 -65 -46q0 -37 24 -57q16 4 41 4h259v-77h-238q-92 0 -92 -66q0 -96 134 -96q32 0 68 6l7 -77q-32 -8 -84 -8q-106 0 -166.5 45t-60.5 126t68 116q-60 35 -60 102q0 46 36 74t92 28z" />
    <glyph glyph-name="dvLL" horiz-adv-x="688" 
d="M208 75q-80 0 -131.5 45.5t-51.5 132.5q0 86 51.5 134t131.5 48q47 0 84.5 -19t57.5 -47q47 66 131 66q80 0 131.5 -45.5t51.5 -132.5q0 -86 -51.5 -134t-131.5 -48q-48 0 -86 19.5t-55 45.5q-40 -65 -132 -65zM301 258q6 20 13 47q-43 49 -98 49q-42 0 -67.5 -27
t-25.5 -73q0 -49 23 -73.5t64 -24.5q37 0 57.5 26.5t33.5 75.5zM389 253q-13 -44 -14 -48q35 -48 96 -48q43 0 69 27t26 72q0 49 -23 73t-62 24q-38 0 -58.5 -26.5t-33.5 -73.5zM705 524h-722v81h722v-81z" />
    <glyph glyph-name="dvK_SS" horiz-adv-x="483" 
d="M424 0h-92v104q-16 -20 -47.5 -36t-73.5 -16q-84 0 -135 46.5t-51 127.5q0 66 40.5 108.5t101.5 60.5q-44 34 -44 99q0 54 37 88t97 34q63 0 97 -34t34 -89q0 -77 -68 -110q39 -13 100 -13q84 0 136 40l46 -75q-83 -48 -178 -48q-108 0 -184 50q-49 -6 -80.5 -33.5
t-31.5 -73.5q0 -47 29 -72.5t76 -25.5q42 0 68.5 23.5t30.5 58.5h92v-214zM207 487q0 -45 40 -66q23 5 39 23t16 44q0 55 -47 55q-23 0 -35.5 -15.5t-12.5 -40.5zM545 524h-84v81h84v-81z" />
    <glyph glyph-name="dvJ_NY" horiz-adv-x="421" 
d="M447 605v-81h-464v81h464zM99 -114l-108 262l82 34q56 -82 130 -82q36 0 56.5 21t20.5 54q0 88 -151 181l22 74h360v-80h-262q52 -30 87.5 -76t35.5 -103q0 -62 -40 -104.5t-105 -42.5q-68 0 -110 42l-2 -2q18 -22 77 -140z" />
    <glyph glyph-name="dvKx" horiz-adv-x="561" 
d="M687 368l-63 -57q-30 43 -88 43q-46 0 -76 -27t-33 -74v-253h-95v151q-13 -25 -47.5 -43.5t-79.5 -18.5q-79 0 -127 46t-48 126q0 83 52 129t130 46q24 0 52 -6l-7 -78q-14 2 -31 2q-44 0 -70 -23t-26 -68q0 -43 25 -67.5t71 -24.5q44 0 71 27t30 73v253h-344v81h595v-81
h-151v-142q14 22 46.5 38.5t71.5 16.5q89 0 142 -69zM178 -87l-70 69l70 71l70 -69z" />
    <glyph glyph-name="dvKHx" horiz-adv-x="528" 
d="M596 227l43 -53q-39 -73 -119.5 -119t-171.5 -46q-100 0 -179 50.5t-116 156.5l-44 24l24 74h34q62 0 93.5 28t31.5 78q0 54 -35 104h-174v81h576v-81h-307q40 -52 40 -118t-39.5 -108t-110.5 -53q55 -153 206 -153q55 0 100 19q-60 4 -99.5 48.5t-39.5 103.5
q0 73 49.5 115t120.5 42q21 0 46 -5l-7 -73q-24 2 -32 2q-37 0 -61 -22t-24 -61t24 -63.5t60 -24.5q74 0 111 54zM120 -114l-70 69l70 71l70 -69z" />
    <glyph glyph-name="dvGx" horiz-adv-x="300" 
d="M54 307l58 40v177h-129v81h343v-81h-114v-339h-100q-19 21 -35.5 56.5t-22.5 65.5zM163 -87l-70 69l70 71l70 -69z" />
    <glyph glyph-name="dvJx" horiz-adv-x="410" 
d="M282 329q18 -10 33 -40t15 -70q0 -77 -51.5 -117.5t-147.5 -40.5q-70 0 -129 17l16 77q52 -12 97 -12q113 0 113 90q0 63 -52 96h-78v80h390v-80h-206zM427 524h-444v81h444v-81zM302 -87l-70 69l70 71l70 -69z" />
    <glyph glyph-name="dvPHx" horiz-adv-x="589" 
d="M705 362l-59 -59q-35 47 -99 47q-41 0 -71 -21.5t-42 -51.5v-277h-96v186q-50 -32 -119 -32q-71 0 -116 40t-45 125v205h-75v81h611v-81h-160v-139q17 18 50 33t75 15q93 0 146 -71zM338 524h-181v-204q0 -88 84 -88q54 0 97 28v264zM195 -87l-70 69l70 71l70 -69z" />
    <glyph glyph-name="dvK_RA" horiz-adv-x="748" 
d="M418 524v-152q13 25 47 44.5t78 19.5q79 0 127 -45.5t48 -125.5q0 -85 -50.5 -131t-130.5 -46q-26 0 -50 4l5 81q15 -3 30 -3q44 0 70 24.5t26 68.5q0 43 -24.5 67.5t-68.5 24.5t-71.5 -29.5t-30.5 -77.5v-248h-91v140l-243 -190l-60 77l112 71q-52 17 -81.5 59
t-29.5 104q0 83 52 129t130 46q24 0 52 -6l-7 -78q-14 2 -31 2q-44 0 -70 -23t-26 -68q0 -43 25 -67.5t71 -24.5q44 0 71 27t30 73v253h-344v81h782v-81h-347z" />
    <glyph glyph-name="dvKH_RA" horiz-adv-x="746" 
d="M574 524h-322q40 -52 40 -118t-39.5 -108t-110.5 -53q55 -153 206 -153q55 0 100 19q-60 4 -99.5 48.5t-39.5 103.5q0 73 49.5 115t120.5 42q21 0 46 -5l-7 -73q-24 2 -32 2q-37 0 -61 -22t-24 -61t24 -63.5t60 -24.5q61 0 89 37v314zM763 524h-90v-524h-95v102
q-40 -40 -100 -66l-336 -142l-38 87l154 46q-151 31 -205 189l-44 24l24 74h34q62 0 93.5 28t31.5 78q0 54 -35 104h-174v81h780v-81z" />
    <glyph glyph-name="dvG_RA" horiz-adv-x="535" 
d="M54 335l58 40v149h-129v81h569v-81h-90v-524h-99v134l-201 -162l-59 74l260 189v289h-151v-311h-100q-19 21 -35.5 56.5t-22.5 65.5z" />
    <glyph glyph-name="dvGH_RA" horiz-adv-x="579" 
d="M407 524h-214q-33 -31 -33 -74q0 -65 82 -65h47v-81h-40q-88 0 -88 -65q0 -73 104 -73q41 0 81 16.5t61 34.5v307zM596 524h-90v-524h-95v134l-260 -204l-59 78l121 75q-74 6 -115 44.5t-41 102.5q0 99 98 119q-44 3 -70 27.5t-26 69.5q0 48 35 78h-111v81h613v-81z" />
    <glyph glyph-name="dvC_RA" horiz-adv-x="592" 
d="M420 223v301h-437v81h626v-81h-90v-524h-94v141q-20 -18 -49 -34l-227 -172l-59 78l115 72q-62 11 -98 50.5t-36 98.5q0 42 18.5 71t37.5 41h-120v81h324v-81h-99q-62 -27 -62 -93q0 -43 29 -65.5t80 -22.5q81 0 141 58z" />
    <glyph glyph-name="dvJ_RA" horiz-adv-x="652" 
d="M-3 91l16 78q46 -13 97 -13q58 0 85 19.5t27 64.5q0 62 -53 89h-76v80h387v115h-497v81h686v-81h-90v-524h-99v106l-221 -172l-58 79l279 183v133h-203q17 -9 32.5 -37t15.5 -67q0 -74 -51.5 -112t-147.5 -38q-75 0 -129 16z" />
    <glyph glyph-name="dvJH_RA" horiz-adv-x="748" 
d="M428 266q97 0 148 49v209h-216v-151q-110 9 -144 9q-69 0 -69 -40q0 -37 46 -42l92 -13q8 -1 59 -11t84 -10zM252 24q-78 0 -115 44l66 -137l-87 -34l-91 238l87 33q48 -69 119 -69q72 0 72 56q0 50 -54 57l-91 11q-52 7 -81 38t-29 81q0 54 39.5 84.5t100.5 30.5
q36 0 74 -6v73h-279v81h782v-81h-90v-524h-99v86l-148 -148l-68 69l216 174v35q-50 -30 -116 -30q-40 0 -69 8q9 -20 9 -35q0 -63 -42 -99t-106 -36z" />
    <glyph glyph-name="dvT_RA" horiz-adv-x="492" 
d="M320 0v206l-238 -182l-61 82l238 163q-48 73 -139 73q-46 0 -89 -16l-24 97q46 18 109 18q70 0 124 -33.5t80 -96.5v213h-337v81h526v-81h-89v-524h-100z" />
    <glyph glyph-name="dvTH_RA" horiz-adv-x="605" 
d="M333 461q0 -64 -46.5 -107t-149.5 -51q1 -65 43 -101.5t105 -36.5q94 0 147 67v292h-63v81h253v-81h-90v-524h-98v137l-311 -216l-57 85l138 80q-80 18 -127 84t-47 166v24l94 14q68 9 92 31t24 61q0 67 -46 67q-19 0 -29.5 -12.5t-10.5 -32.5q0 -17 5 -35l-77 -20
q-10 21 -10 59q0 51 34 84.5t88 33.5q68 0 103.5 -40t35.5 -109z" />
    <glyph glyph-name="dvD_RA" horiz-adv-x="507" 
d="M347 0v106l-235 -181l-59 75l116 73q-62 15 -98.5 62.5t-36.5 113.5q0 88 58 138t153 50q57 0 90 -5v92h-352v81h541v-81h-90v-180q-115 10 -176 10q-60 0 -90.5 -28.5t-30.5 -75.5q0 -48 28 -75.5t77 -27.5q44 0 72.5 24.5t32.5 58.5h92v-230h-92z" />
    <glyph glyph-name="dvDH_RA" horiz-adv-x="582" 
d="M216 605l21 -73q-77 -37 -77 -84q0 -66 78 -66h53v-82h-44q-86 0 -86 -65q0 -35 25 -52t81 -17q43 0 82.5 17t59.5 37v304h-77v81h267v-81h-90v-524h-96v130l-260 -200l-59 78l122 75q-77 5 -118 42.5t-41 102.5q0 100 98 119q-44 2 -69.5 26.5t-25.5 71.5
q0 25 13.5 46.5t33.5 32.5h-124v81h233z" />
    <glyph glyph-name="dvN_RA" horiz-adv-x="500" 
d="M16 343l49 45h263v136h-345v81h534v-81h-89v-524h-100v148l-227 -156l-58 84l285 168v58h-175v-93h-92q-37 63 -45 134z" />
    <glyph glyph-name="dvP_RA" horiz-adv-x="520" 
d="M537 605v-81h-89v-524h-98v164l-249 -201l-59 73l156 111q-72 7 -106 52.5t-34 113.5v211h-75v81h554zM348 524h-190v-204q0 -48 16.5 -69.5t65.5 -21.5q50 0 108 20v275z" />
    <glyph glyph-name="dvPH_RA" horiz-adv-x="766" 
d="M783 605v-81h-349v-138q51 47 126 47q81 0 128 -47.5t47 -128.5q0 -82 -51.5 -131t-134.5 -47q-25 0 -41 4l6 80q12 -2 21 -2q45 0 72.5 25t27.5 71q0 41 -24.5 66.5t-65.5 25.5q-40 0 -69 -21t-42 -51v-277h-96v176l-244 -197l-59 76l149 102q-57 9 -91.5 49t-34.5 113
v205h-75v81h800zM338 524h-181v-204q0 -88 84 -88q54 0 97 28v264z" />
    <glyph glyph-name="dvB_RA" horiz-adv-x="536" 
d="M238 156q34 0 60 12l-161 149q-12 -23 -12 -53q0 -49 32 -78.5t81 -29.5zM553 524h-89v-524h-96v131l-246 -193l-60 77l112 69q-66 14 -106 63.5t-40 116.5q0 88 56.5 137t140.5 49q42 0 80 -12l-12 -74q-23 6 -60 6q-32 0 -55 -13l165 -151q19 29 21 69v249h-381v81h570
v-81z" />
    <glyph glyph-name="dvBH_RA" horiz-adv-x="640" 
d="M467 0v134l-246 -204l-64 78l310 224v30h-180v-96h-113q-45 71 -50 147q31 13 65 21v133q0 67 -45 67q-18 0 -29 -13t-11 -32q0 -22 15 -54l-74 -26q-24 36 -24 85q0 52 34.5 84.5t92.5 32.5q68 0 103.5 -40t35.5 -109v-119h180v181h-90v81h280v-81h-90v-524h-100z" />
    <glyph glyph-name="dvM_RA" horiz-adv-x="553" 
d="M381 0v151l-209 -199l-70 74l279 225v1h-185v-96h-115q-43 68 -52 147q35 15 67 20v201h-113v81h587v-81h-89v-524h-100zM196 524v-192h185v192h-185z" />
    <glyph glyph-name="dvY_RA" horiz-adv-x="589" 
d="M606 524h-90v-524h-99v99l-263 -176l-57 85l134 75q-84 11 -136 71t-54 169q0 20 1 30q146 3 146 72q0 56 -37 99h-168v81h623v-81zM282 165q78 0 135 55v304h-176q44 -46 44 -107q0 -50 -38 -85t-104 -40q4 -65 41.5 -96t97.5 -31z" />
    <glyph glyph-name="dvL_RA" horiz-adv-x="666" 
d="M317 338q8 38 37.5 61.5t70.5 23.5q39 0 69 -12v113h-511v81h700v-81h-89v-524h-100v107l-168 -120l-54 80l222 133v127q-28 11 -63 11q-68 0 -68 -91v-66h-92v61q0 97 -70 97q-34 0 -53 -27.5t-19 -79.5q0 -99 88 -177l-64 -60q-51 38 -87 101.5t-36 140.5
q0 84 43.5 134.5t118.5 50.5q53 0 84 -24.5t41 -59.5z" />
    <glyph glyph-name="dvV_RA" horiz-adv-x="533" 
d="M550 524h-89v-524h-96v145l-30 -23q-6 -4 -9 -7l-228 -172l-58 78l116 72q-58 18 -92 64.5t-34 109.5q0 86 54.5 133.5t135.5 47.5q40 0 81 -13l-18 -75q-23 7 -47 7q-46 0 -76.5 -25.5t-30.5 -74.5q0 -48 29.5 -75.5t77.5 -27.5q59 0 91 36.5t34 90.5v233h-378v81h567
v-81z" />
    <glyph glyph-name="dvSH_RA" horiz-adv-x="653" 
d="M480 0v179l-296 -208l-52 84l233 145q-72 21 -137 64q-77 -36 -216 -62l-19 90q110 18 157 34q-66 61 -66 144q0 63 41.5 102t105.5 39q70 0 110 -38.5t40 -108.5q0 -91 -75 -150q67 -43 143 -62l31 18v254h-62v81h252v-81h-90v-524h-100zM177 467q0 -54 57 -100
q55 38 55 99q0 30 -16.5 46t-40.5 16t-39.5 -17t-15.5 -44z" />
    <glyph glyph-name="dvSS_RA" horiz-adv-x="526" 
d="M358 173l-252 -210l-59 73l155 108q-144 12 -144 168v212h-75v81h560v-81h-89v-524h-96v173zM358 524h-202l190 -196l4 -5q4 -5 8 -8v209zM252 221q48 0 92 19l-182 189q-1 2 -6 7v-125q0 -90 96 -90z" />
    <glyph glyph-name="dvS_RA" horiz-adv-x="644" 
d="M661 524h-91v-524h-100v205l-140 -120l-51 66l170 130q-40 -20 -93 -20q-59 0 -112 28q-39 -33 -103 -44l156 -205l-81 -55l-161 227l-45 29l24 73h34q62 0 93 28t31 78q0 54 -35 104h-174v81h678v-81zM355 337q70 0 115 24v163h-218q40 -52 40 -118q0 -28 -8 -55
q35 -14 71 -14z" />
    <glyph glyph-name="dvH_RA" horiz-adv-x="495" 
d="M181 450q78 0 126 -8v82h-324v81h529v-81h-105v-159q-108 11 -166 11q-43 0 -65.5 -9.5t-22.5 -36.5q0 -32 21 -50q64 16 112 16q83 0 124 -37.5t41 -95.5q0 -36 -9 -56l-77 17q7 21 7 40q0 22 -11 36l-83 -107l-58 44l84 90q-8 1 -26 1q-65 0 -98 -24t-33 -68
q0 -98 137 -98q46 0 95 11l10 -77q-55 -13 -119 -13q-96 0 -160.5 42.5t-64.5 131.5q0 81 66 117q-58 32 -58 98q0 47 36 74.5t92 27.5z" />
    <glyph glyph-name="dvK_SS_RA" horiz-adv-x="779" 
d="M208 487q0 -45 40 -66q23 5 39 23t16 44q0 55 -47 55q-23 0 -35.5 -15.5t-12.5 -40.5zM606 0v238l-119 -110l-61 71l175 129q-91 -40 -176 -40q-110 0 -183 49q-49 -6 -82 -34.5t-33 -74.5q0 -48 25 -72t70 -24q38 0 58.5 22.5t24.5 59.5h92v-214h-92v104
q-26 -52 -110 -52q-77 0 -124 46.5t-47 123.5q0 67 42 111t103 62q-45 33 -45 99q0 54 37 88t97 34q63 0 97 -34t34 -89q0 -77 -68 -110q36 -12 100 -12q106 0 185 49v104h-153v81h343v-81h-90v-524h-100z" />
    <glyph glyph-name="dvKx_RA" horiz-adv-x="748" 
d="M418 524v-152q13 25 47 44.5t78 19.5q79 0 127 -45.5t48 -125.5q0 -85 -50.5 -131t-130.5 -46q-26 0 -50 4l5 81q15 -3 30 -3q44 0 70 24.5t26 68.5q0 43 -24.5 67.5t-68.5 24.5t-71.5 -29.5t-30.5 -77.5v-248h-91v140l-248 -192l-59 78l116 72q-52 17 -81.5 59
t-29.5 104q0 83 52 129t130 46q24 0 52 -6l-7 -78q-14 2 -31 2q-44 0 -70 -23t-26 -68q0 -43 25 -67.5t71 -24.5q44 0 71 27t30 73v253h-344v81h782v-81h-347zM253 -131l-70 69l70 71l70 -69z" />
    <glyph glyph-name="dvKHx_RA" horiz-adv-x="746" 
d="M574 524h-322q40 -52 40 -118t-39.5 -108t-110.5 -53q55 -153 206 -153q55 0 100 19q-60 4 -99.5 48.5t-39.5 103.5q0 73 49.5 115t120.5 42q21 0 46 -5l-7 -73q-24 2 -32 2q-37 0 -61 -22t-24 -61t24 -63.5t60 -24.5q61 0 89 37v314zM163 -97l-36 85l131 39
q-151 31 -205 189l-44 24l24 74h34q62 0 93.5 28t31.5 78q0 54 -35 104h-174v81h780v-81h-90v-524h-95v102q-40 -40 -100 -66zM93 -226l-70 69l70 71l70 -69z" />
    <glyph glyph-name="dvGx_RA" horiz-adv-x="535" 
d="M54 335l58 40v149h-129v81h569v-81h-90v-524h-99v130l-195 -158l-59 74l254 184v294h-151v-311h-100q-19 21 -35.5 56.5t-22.5 65.5zM293 -136l-70 69l70 71l70 -69z" />
    <glyph glyph-name="dvJx_RA" horiz-adv-x="652" 
d="M106 -107l-70 69l70 71l70 -69zM-3 91l16 78q46 -13 97 -13q58 0 85 19.5t27 64.5q0 62 -53 89h-76v80h387v115h-497v81h686v-81h-90v-524h-99v106l-221 -172l-58 79l279 183v133h-203q17 -9 32.5 -37t15.5 -67q0 -74 -51.5 -112t-147.5 -38q-75 0 -129 16z" />
    <glyph glyph-name="dvPHx_RA" horiz-adv-x="766" 
d="M783 605v-81h-349v-138q51 47 126 47q81 0 128 -47.5t47 -128.5q0 -82 -51.5 -131t-134.5 -47q-25 0 -41 4l6 80q12 -2 21 -2q45 0 72.5 25t27.5 71q0 41 -24.5 66.5t-65.5 25.5q-40 0 -69 -21t-42 -51v-277h-96v182l-241 -201l-60 73l143 103q-56 10 -89 50t-33 112v205
h-75v81h800zM338 524h-181v-204q0 -88 84 -88q54 0 97 28v264zM246 -122l-70 69l70 71l70 -69z" />
    <glyph glyph-name="dvK_R" horiz-adv-x="561" 
d="M687 368l-63 -57q-30 43 -88 43q-46 0 -76 -27t-33 -74v-253h-95v136l-239 -186l-60 77l111 70q-53 16 -83.5 58.5t-30.5 105.5q0 83 52 129t130 46q24 0 52 -6l-7 -78q-14 2 -31 2q-44 0 -70 -23t-26 -68q0 -43 25 -67.5t71 -24.5q44 0 71 27t30 73v253h-344v81h595v-81
h-151v-142q14 22 46.5 38.5t71.5 16.5q89 0 142 -69z" />
    <glyph glyph-name="dvG_R" horiz-adv-x="306" 
d="M432 182l-264 -210l-59 74l274 199zM54 335l58 40v149h-129v81h340v-81h-111v-311h-100q-19 21 -35.5 56.5t-22.5 65.5z" />
    <glyph glyph-name="dvGH_R" horiz-adv-x="386" 
d="M94 524h-111v81h420v-81h-210q-33 -30 -33 -74q0 -65 82 -65h47v-81h-40q-88 0 -88 -65q0 -73 104 -73q100 0 169 83l54 -55q-31 -35 -61 -57l-259 -207l-59 78l111 71q-77 4 -120 44.5t-43 106.5q0 52 28 81t70 38q-44 3 -70 27.5t-26 69.5q0 51 35 78z" />
    <glyph glyph-name="dvT_R" horiz-adv-x="303" 
d="M320 524h-337v81h337v-81zM364 339l45 -68l-327 -247l-61 82l239 162q-48 74 -139 74q-47 0 -90 -16l-24 97q46 18 109 18q71 0 125 -34t79 -98z" />
    <glyph glyph-name="dvD_R" horiz-adv-x="507" 
d="M347 0v113l-236 -188l-59 75l117 73q-62 15 -98.5 62t-36.5 114q0 88 58 138t153 50q57 0 90 -5v92h-352v81h541v-81h-90v-180q-115 10 -176 10q-60 0 -90.5 -28.5t-30.5 -75.5q0 -48 28 -75.5t77 -27.5q44 0 72.5 24.5t32.5 58.5h92v-230h-92zM376 -18l199 -172l-58 -63
l-198 171z" />
    <glyph glyph-name="dvDH_R" horiz-adv-x="388" 
d="M216 605l21 -73q-77 -38 -77 -84q0 -66 78 -66h53v-82h-43q-41 0 -64 -16t-23 -45q0 -38 24.5 -55.5t79.5 -17.5q54 0 92.5 22.5t74.5 60.5l53 -54q-37 -43 -69 -64l-252 -201l-59 78l116 74q-78 4 -121 42.5t-43 105.5q0 51 27.5 80t70.5 37q-44 2 -69.5 26.5
t-25.5 71.5q0 25 13.5 46.5t33.5 32.5h-124v81h233zM395 524h-63v81h63v-81z" />
    <glyph glyph-name="dvP_R" horiz-adv-x="306" 
d="M395 195l-290 -232l-59 73l160 107q-76 4 -112 51t-36 117v213h-75v81h370v-81h-195v-204q0 -48 16.5 -69.5t65.5 -21.5q76 0 139 49l42 -62q-4 -4 -8.5 -7.5l-10 -7.5t-8.5 -6h1z" />
    <glyph glyph-name="dvBH_R" horiz-adv-x="446" 
d="M515 167l-294 -244l-64 78l351 254h-221v-96h-113q-45 71 -50 147q31 13 65 21v140q0 67 -45 67q-18 0 -29 -13t-11 -32q0 -22 15 -54l-74 -26q-24 36 -24 85q0 52 34.5 84.5t92.5 32.5q68 0 103.5 -40t35.5 -109v-126h228v-169zM448 524h-71v81h71v-81z" />
    <glyph glyph-name="dvV_R" horiz-adv-x="333" 
d="M360 112l-234 -181l-58 79l118 76q-73 12 -114.5 60t-41.5 118q0 87 55.5 135.5t138.5 48.5q43 0 77 -13l-18 -75q-23 7 -49 7q-44 0 -74.5 -26.5t-30.5 -75.5q0 -47 29.5 -74t77.5 -27q86 0 136 87l55 -39q-7 -14 -15 -26l2 -1zM360 524h-377v81h377v-81z" />
    <glyph glyph-name="dvSH_R" horiz-adv-x="457" 
d="M524 299l38 -64l-378 -264l-52 84l233 145q-69 19 -137 64q-77 -36 -216 -62l-19 90q110 18 157 34q-66 61 -66 144q0 63 41.5 102t105.5 39q70 0 110 -38.5t40 -108.5q0 -91 -75 -150q67 -43 143 -62zM177 467q0 -54 57 -100q55 38 55 99q0 30 -16.5 46t-40.5 16
t-39.5 -17t-15.5 -44zM474 605v-81h-56v81h56z" />
    <glyph glyph-name="dvSS_R" horiz-adv-x="343" 
d="M409 197l-287 -235l-58 76l152 101q-79 3 -118.5 51.5t-39.5 120.5v213h-75v81h377v-81h-203l172 -180q31 -32 61 -72q1 0 2.5 1t2.5 2l34 -62q-12 -10 -20 -16zM245 222q52 0 94 20l-147 154q-24 26 -35 39v-121q0 -48 18.5 -70t69.5 -22z" />
    <glyph glyph-name="dvS_R" horiz-adv-x="411" 
d="M428 524h-175q40 -52 40 -118q0 -30 -7 -52q37 -14 71 -14q65 0 110 23l64 -108l-196 -163l-51 66l164 124q-41 -18 -90 -18q-58 0 -111 28q-38 -36 -105 -47l156 -205l-81 -55l-161 227l-45 29l24 73h34q62 0 93 28t31 78q0 54 -35 104h-175v81h445v-81z" />
    <glyph glyph-name="dvK_KA" horiz-adv-x="1295" 
d="M874 524h-447v-142q14 22 46.5 38.5t71.5 16.5q63 0 104 -31q47 30 110 30q24 0 52 -6l-7 -78q-14 2 -31 2q-44 0 -70 -23t-26 -68q0 -43 25 -67.5t71 -24.5q44 0 71 27t30 73v253zM965 524v-152q13 25 47 44.5t78 19.5q79 0 127 -45.5t48 -125.5q0 -85 -50.5 -131
t-130.5 -46q-26 0 -50 4l5 81q15 -3 30 -3q44 0 70 24.5t26 68.5q0 43 -24.5 67.5t-68.5 24.5t-71.5 -29.5t-30.5 -77.5v-248h-91v151q-13 -25 -47.5 -43.5t-79.5 -18.5q-79 0 -127 46t-48 126q0 42 16 79q-26 14 -57 14q-46 0 -76 -27t-33 -74v-253h-95v151
q-13 -25 -47.5 -43.5t-79.5 -18.5q-79 0 -127 46t-48 126q0 83 52 129t130 46q24 0 52 -6l-7 -78q-14 2 -31 2q-44 0 -70 -23t-26 -68q0 -43 25 -67.5t71 -24.5q44 0 71 27t30 73v253h-344v81h1329v-81h-347z" />
    <glyph glyph-name="dvKx_KxA" horiz-adv-x="1297" 
d="M877 524h-450v-142q13 23 42.5 39t70.5 16q58 0 97 -42q50 41 125 41q24 0 52 -6l-7 -78q-14 2 -31 2q-44 0 -70 -23t-26 -68q0 -43 25 -67.5t71 -24.5q44 0 71 27t30 73v253zM968 524v-152q13 25 47 44.5t78 19.5q79 0 127 -45.5t48 -125.5q0 -85 -50.5 -131t-130.5 -46
q-26 0 -50 4l5 81q15 -3 30 -3q44 0 70 24.5t26 68.5q0 43 -24.5 67.5t-68.5 24.5t-71.5 -29.5t-30.5 -77.5v-248h-91v151q-13 -25 -47.5 -43.5t-79.5 -18.5q-79 0 -127 46t-48 126q0 39 12 71q-24 22 -58 22q-45 0 -74.5 -26.5t-32.5 -74.5v-253h-95v151
q-13 -25 -47.5 -43.5t-79.5 -18.5q-79 0 -127 46t-48 126q0 83 52 129t130 46q24 0 52 -6l-7 -78q-14 2 -31 2q-44 0 -70 -23t-26 -68q0 -43 25 -67.5t71 -24.5q44 0 71 27t30 73v253h-344v81h1332v-81h-347zM152 -100l-70 69l70 71l70 -69zM704 -100l-70 69l70 71l70 -69z
" />
    <glyph glyph-name="dvK_KHA" horiz-adv-x="1323" 
d="M540 435q54 0 90 -33t49 -85q90 15 90 103q0 54 -35 104h-307v-143q13 22 43.5 38t69.5 16zM1151 524h-322q40 -52 40 -118t-39.5 -108t-110.5 -53q55 -153 206 -153q55 0 100 19q-60 4 -99.5 48.5t-39.5 103.5q0 73 49.5 115t120.5 42q21 0 46 -5l-7 -73q-24 2 -32 2
q-37 0 -61 -22t-24 -61t24 -63.5t60 -24.5q61 0 89 37v314zM1340 524h-90v-524h-95v103q-43 -43 -104 -68.5t-126 -25.5q-100 0 -179 50.5t-116 156.5l-44 24l20 62q-25 50 -76 50q-45 0 -73 -26t-30 -74v-252h-95v151q-13 -25 -47.5 -43.5t-79.5 -18.5q-79 0 -127 46
t-48 126q0 83 52 129t130 46q24 0 52 -6l-7 -78q-14 2 -31 2q-44 0 -70 -23t-26 -68q0 -43 25 -67.5t71 -24.5q44 0 71 27t30 73v253h-344v81h1357v-81z" />
    <glyph glyph-name="dvK_CA" horiz-adv-x="1115" 
d="M594 228q0 73 55 113h-70q-23 13 -52 13q-43 0 -70 -28t-30 -75v-251h-95v151q-13 -25 -47.5 -43.5t-79.5 -18.5q-79 0 -127 46t-48 126q0 83 52 129t130 46q24 0 52 -6l-7 -78q-14 2 -31 2q-44 0 -70 -23t-26 -68q0 -43 25 -67.5t71 -24.5q44 0 71 27t30 73v253h-344v81
h1149v-81h-90v-524h-94v136q-65 -60 -172 -60q-81 0 -131.5 41t-50.5 111zM942 218v306h-515v-142q35 55 109 55q42 0 74 -15h234v-81h-90q-62 -29 -62 -94q0 -43 29 -65t80 -22q83 0 141 58z" />
    <glyph glyph-name="dvK_JA" horiz-adv-x="1130" 
d="M536 78l16 77q50 -12 96 -12q113 0 113 90q0 59 -52 89h-97q-24 32 -75 32q-47 0 -77.5 -29t-33.5 -77v-248h-95v151q-12 -25 -47 -43.5t-80 -18.5q-78 0 -126.5 46t-48.5 126q0 83 52 129t131 46q23 0 51 -6l-6 -78q-16 2 -32 2q-44 0 -70 -23t-26 -68q0 -42 25.5 -67
t70.5 -25q44 0 71 27t30 73v253h-343v81h1164v-81h-90v-524h-100v322h-142q17 -9 32.5 -36.5t15.5 -66.5q0 -77 -51.5 -117.5t-147.5 -40.5q-70 0 -128 17zM544 436q61 0 102 -33h311v121h-531v-147q14 24 44.5 41.5t73.5 17.5z" />
    <glyph glyph-name="dvK_TTA" horiz-adv-x="990" 
d="M427 382q14 22 46.5 38.5t71.5 16.5q78 0 126 -50q52 31 125 36q2 0 12 0.5t12 0.5v100h-393v-142zM579 219q0 63 30 109q-29 26 -73 26q-46 0 -76 -27t-33 -74v-253h-95v151q-13 -25 -47.5 -43.5t-79.5 -18.5q-79 0 -127 46t-48 126q0 83 52 129t130 46q24 0 52 -6
l-7 -78q-14 2 -31 2q-44 0 -70 -23t-26 -68q0 -43 25 -67.5t71 -24.5q44 0 71 27t30 73v253h-344v81h1024v-81h-88v-176q-15 1 -51 1q-83 0 -136 -30.5t-53 -99.5q0 -65 39.5 -96.5t108.5 -31.5q60 0 118 22l16 -80q-69 -26 -155 -26q-96 0 -161.5 57.5t-65.5 154.5z" />
    <glyph glyph-name="dvK_NNA" horiz-adv-x="1245" 
d="M1262 524h-90v-524h-100v524h-128v-198q0 -185 -175 -185q-89 0 -131.5 49t-42.5 136v12q-25 16 -59 16q-46 0 -76 -27t-33 -74v-253h-95v151q-13 -25 -47.5 -43.5t-79.5 -18.5q-79 0 -127 46t-48 126q0 83 52 129t130 46q24 0 52 -6l-7 -78q-14 2 -31 2q-44 0 -70 -23
t-26 -68q0 -43 25 -67.5t71 -24.5q44 0 71 27t30 73v253h-344v81h1279v-81zM595 524h-168v-142q14 22 46.5 38.5t71.5 16.5q27 0 50 -6v93zM845 524h-150v-204q0 -98 75 -98t75 98v204z" />
    <glyph glyph-name="dvK_TA" horiz-adv-x="832" 
d="M20 325v81h235q100 0 117 -1v119h-389v81h866v-81h-377v-168q17 24 54 42t86 18q86 0 142 -54.5t56 -146.5q0 -93 -58.5 -148t-146.5 -55q-23 0 -37 2l6 80q6 -1 17 -1q54 0 86 31.5t32 88.5q0 59 -30.5 90.5t-84.5 31.5q-48 0 -83.5 -29.5t-38.5 -73.5v-232h-100v318
q-36 5 -85 5q-59 0 -91.5 -29.5t-32.5 -84.5q0 -33 12.5 -67t22 -49.5t31.5 -47.5l-75 -47q-90 96 -90 207q0 81 51 120h-95z" />
    <glyph glyph-name="dvKx_TA" horiz-adv-x="1076" 
d="M1093 524h-89v-524h-100v314q-53 8 -107 8q-50 0 -82 -29t-32 -84q0 -81 61 -174l-75 -45q-36 41 -61 100t-25 122t31 111q-30 31 -78 31q-46 0 -76 -27t-33 -74v-253h-95v151q-13 -25 -47.5 -43.5t-79.5 -18.5q-79 0 -127 46t-48 126q0 83 52 129t130 46q24 0 52 -6
l-7 -78q-14 2 -31 2q-44 0 -70 -23t-26 -68q0 -43 25 -67.5t71 -24.5q44 0 71 27t30 73v253h-344v81h1110v-81zM904 524h-477v-142q14 22 46.5 38.5t71.5 16.5q81 0 131 -56q50 29 118 29q57 0 110 -12v126zM153 -113l-70 69l70 71l70 -69z" />
    <glyph glyph-name="dvK_T_YA" horiz-adv-x="1421" 
d="M804 402q93 0 156 -38q60 17 60 61q0 56 -37 99h-557v-142q15 22 47.5 38.5t71.5 16.5q89 0 138 -66q51 31 121 31zM1438 524h-90v-524h-99v133q-57 -52 -147 -52q-97 0 -160 57t-69 171q-28 4 -64 4q-51 0 -81 -27t-30 -79q0 -81 59 -172l-79 -45q-82 102 -82 216
q0 57 27 105q-30 43 -87 43q-46 0 -76.5 -26t-33.5 -72v-256h-95v151q-12 -25 -46.5 -43.5t-79.5 -18.5q-79 0 -127.5 46t-48.5 126q0 83 52 129t131 46q24 0 52 -6l-7 -78q-16 2 -31 2q-44 0 -70 -23t-26 -68q0 -43 25 -67.5t70 -24.5q44 0 71 27t30 73v253h-343v81h1455
v-81zM1114 165q78 0 135 55v304h-176q44 -46 44 -107q0 -50 -38 -85t-104 -40q4 -65 41.5 -96t97.5 -31z" />
    <glyph glyph-name="dvK_T_RA" horiz-adv-x="981" 
d="M536 348q-46 0 -76.5 -25t-33.5 -72v-251h-95v151q-12 -25 -46.5 -43.5t-79.5 -18.5q-79 0 -127.5 46t-48.5 126q0 83 52 129t131 46q24 0 52 -6l-7 -78q-16 2 -31 2q-44 0 -70 -23t-26 -68q0 -43 25 -67.5t70 -24.5q44 0 71 27t30 73v253h-343v81h1015v-81h-96v-524
h-100v202l-228 -184l-60 76l234 165q-50 89 -143 89h-69zM605 435q140 0 197 -128v217h-376v-144q15 22 48 38.5t72 16.5h59z" />
    <glyph glyph-name="dvK_T_VA" horiz-adv-x="1377" 
d="M1080 164q59 0 91 36.5t34 90.5v233h-779v-142q15 22 47.5 38.5t71.5 16.5q85 0 132 -58q51 31 122 31q58 0 123 -16q54 54 142 54q40 0 81 -13l-18 -75q-23 7 -47 7q-46 0 -76.5 -25.5t-30.5 -74.5q0 -48 29.5 -75.5t77.5 -27.5zM1394 524h-89v-524h-96v158
q-13 -27 -51 -50.5t-94 -23.5q-84 0 -137 52t-53 131q0 27 6 51q-36 4 -77 4q-52 0 -84.5 -29t-32.5 -82q0 -87 62 -176l-76 -45q-85 99 -85 222q0 62 29 108q-30 34 -80 34q-46 0 -76.5 -26t-33.5 -72v-256h-95v151q-12 -25 -46.5 -43.5t-79.5 -18.5q-79 0 -127.5 46
t-48.5 126q0 83 52 129t131 46q24 0 52 -6l-7 -78q-16 2 -31 2q-44 0 -70 -23t-26 -68q0 -43 25 -67.5t70 -24.5q44 0 71 27t30 73v253h-343v81h1411v-81z" />
    <glyph glyph-name="dvK_THA" horiz-adv-x="1171" 
d="M582 524h-155v-140q12 20 40.5 36.5t64.5 16.5q83 0 120 -69l39 6q68 9 92 31t24 61q0 67 -46 67q-19 0 -29.5 -12.5t-10.5 -32.5q0 -17 5 -35l-77 -20q-10 21 -10 59q0 51 34 84.5t88 33.5q68 0 103.5 -40t35.5 -109q0 -64 -46.5 -107t-149.5 -51q1 -65 43 -101.5
t105 -36.5q94 0 147 67v292h-63v81h253v-81h-90v-524h-98v141q-67 -62 -168 -62q-100 0 -164 61t-71 169q-22 45 -75 45q-41 0 -68 -26.5t-28 -73.5v-254h-95v151q-13 -25 -47.5 -43.5t-79.5 -18.5q-79 0 -127 46t-48 126q0 83 52 129t130 46q24 0 52 -6l-7 -78q-14 2 -31 2
q-44 0 -70 -23t-26 -68q0 -43 25 -67.5t71 -24.5q44 0 71 27t30 73v253h-344v81h599v-81z" />
    <glyph glyph-name="dvK_DA" horiz-adv-x="1055" 
d="M427 382q14 22 46.5 38.5t71.5 16.5q68 0 112 -37q55 37 136 37q57 0 90 -5v92h-456v-142zM895 124q-13 -24 -47 -40.5t-80 -16.5q-83 0 -134.5 51t-51.5 131q0 49 18 86q-26 19 -64 19q-46 0 -76 -27t-33 -74v-253h-95v151q-13 -25 -47.5 -43.5t-79.5 -18.5
q-79 0 -127 46t-48 126q0 83 52 129t130 46q24 0 52 -6l-7 -78q-14 2 -31 2q-44 0 -70 -23t-26 -68q0 -43 25 -67.5t71 -24.5q44 0 71 27t30 73v253h-344v81h1089v-81h-90v-180q-115 10 -176 10q-60 0 -90.5 -28.5t-30.5 -75.5q0 -48 28 -75.5t77 -27.5q44 0 72.5 24.5
t32.5 58.5h92v-230h-92v124z" />
    <glyph glyph-name="dvK_NA" horiz-adv-x="985" 
d="M813 0v285l-155 -78l33 -68l-74 -36q-57 35 -91 90l21 56l78 38q-16 67 -91 67q-44 0 -74 -26t-33 -72v-256h-95v151q-13 -25 -47.5 -43.5t-79.5 -18.5q-79 0 -127 46t-48 126q0 83 52 129t130 46q24 0 52 -6l-7 -78q-14 2 -31 2q-44 0 -70 -23t-26 -68q0 -43 25 -67.5
t71 -24.5q44 0 71 27t30 73v253h-344v81h1019v-81h-89v-524h-100zM545 437q120 0 155 -114l113 56v145h-386v-142q14 22 46.5 38.5t71.5 16.5z" />
    <glyph glyph-name="dvK_PA" horiz-adv-x="1059" 
d="M427 382q14 22 46.5 38.5t71.5 16.5q28 0 52 -6v93h-170v-142zM1076 605v-81h-89v-524h-98v176q-57 -30 -128 -30q-84 0 -124 46.5t-40 120.5v24q-28 17 -61 17q-46 0 -76 -27t-33 -74v-253h-95v151q-13 -25 -47.5 -43.5t-79.5 -18.5q-79 0 -127 46t-48 126q0 83 52 129
t130 46q24 0 52 -6l-7 -78q-14 2 -31 2q-44 0 -70 -23t-26 -68q0 -43 25 -67.5t71 -24.5q44 0 71 27t30 73v253h-344v81h1093zM887 524h-190v-204q0 -48 16.5 -69.5t65.5 -21.5q51 0 108 20v275z" />
    <glyph glyph-name="dvK_P_RA" horiz-adv-x="1067" 
d="M427 382q14 22 46.5 38.5t71.5 16.5q31 0 60 -8v95h-178v-142zM1084 605v-81h-89v-524h-98v175l-248 -212l-59 73l155 111q-72 7 -106 52.5t-34 113.5v18q-27 23 -69 23q-46 0 -76 -27t-33 -74v-253h-95v151q-13 -25 -47.5 -43.5t-79.5 -18.5q-79 0 -127 46t-48 126
q0 83 52 129t130 46q24 0 52 -6l-7 -78q-14 2 -31 2q-44 0 -70 -23t-26 -68q0 -43 25 -67.5t71 -24.5q44 0 71 27t30 73v253h-344v81h1101zM895 524h-190v-204q0 -48 16.5 -69.5t65.5 -21.5q51 0 108 20v275z" />
    <glyph glyph-name="dvK_PHA" horiz-adv-x="1305" 
d="M427 382q14 22 46.5 38.5t71.5 16.5q29 0 51 -6v93h-169v-142zM1321 605v-81h-349v-138q51 47 126 47q81 0 128 -47.5t47 -128.5q0 -82 -51.5 -131t-134.5 -47q-25 0 -41 4l6 80q12 -2 21 -2q45 0 72.5 25t27.5 71q0 41 -24.5 66.5t-65.5 25.5q-40 0 -69 -21t-42 -51
v-277h-96v186q-50 -32 -119 -32q-71 0 -116 40t-45 125v19q-26 16 -60 16q-46 0 -76 -27t-33 -74v-253h-95v151q-13 -25 -47.5 -43.5t-79.5 -18.5q-79 0 -127 46t-48 126q0 83 52 129t130 46q24 0 52 -6l-7 -78q-14 2 -31 2q-44 0 -70 -23t-26 -68q0 -43 25 -67.5t71 -24.5
q44 0 71 27t30 73v253h-344v81h1338zM876 524h-181v-204q0 -88 84 -88q54 0 97 28v264z" />
    <glyph glyph-name="dvKx_PHA" horiz-adv-x="1318" 
d="M427 382q14 22 46.5 38.5t71.5 16.5q38 0 65 -10v97h-183v-142zM1335 605v-81h-349v-138q51 47 126 47q81 0 128 -47.5t47 -128.5q0 -82 -51.5 -131t-134.5 -47q-25 0 -41 4l6 80q12 -2 21 -2q45 0 72.5 25t27.5 71q0 41 -24.5 66.5t-65.5 25.5q-40 0 -69 -21t-42 -51
v-277h-96v186q-50 -32 -119 -32q-71 0 -116 40t-45 125v8q-30 27 -74 27q-46 0 -76 -27t-33 -74v-253h-95v151q-13 -25 -47.5 -43.5t-79.5 -18.5q-79 0 -127 46t-48 126q0 83 52 129t130 46q24 0 52 -6l-7 -78q-14 2 -31 2q-44 0 -70 -23t-26 -68q0 -43 25 -67.5t71 -24.5
q44 0 71 27t30 73v253h-344v81h1352zM890 524h-181v-204q0 -88 84 -88q54 0 97 28v264zM153 -113l-70 69l70 71l70 -69z" />
    <glyph glyph-name="dvKx_PHxA" horiz-adv-x="1319" 
d="M427 382q13 22 43 38.5t70 16.5q39 0 71 -21v108h-184v-142zM1336 605v-81h-349v-138q51 47 126 47q81 0 128 -47.5t47 -128.5q0 -82 -51.5 -131t-134.5 -47q-25 0 -41 4l6 80q12 -2 21 -2q45 0 72.5 25t27.5 71q0 41 -24.5 66.5t-65.5 25.5q-40 0 -69 -21t-42 -51v-277
h-96v186q-50 -32 -119 -32t-114 38.5t-47 119.5q-19 42 -77 42q-45 0 -74.5 -26.5t-32.5 -74.5v-253h-95v151q-13 -25 -47.5 -43.5t-79.5 -18.5q-79 0 -127 46t-48 126q0 83 52 129t130 46q24 0 52 -6l-7 -78q-14 2 -31 2q-44 0 -70 -23t-26 -68q0 -43 25 -67.5t71 -24.5
q44 0 71 27t30 73v253h-344v81h1353zM891 524h-181v-204q0 -88 84 -88q54 0 97 28v264zM128 -92l-70 69l70 71l70 -69zM711 -58l-70 69l70 71l70 -69z" />
    <glyph glyph-name="dvKx_BA" horiz-adv-x="1088" 
d="M785 370q-32 0 -55 -13l165 -151q19 29 21 69v249h-489v-142q14 22 46.5 38.5t71.5 16.5q61 0 101 -28q53 41 131 41q42 0 80 -12l-12 -74q-23 6 -60 6zM790 156q34 0 60 12l-161 149q-12 -23 -12 -53q0 -49 32 -78.5t81 -29.5zM1105 524h-89v-524h-96v152
q-11 -26 -50.5 -49.5t-95.5 -23.5q-85 0 -139.5 53t-54.5 132q0 41 14 75q-26 15 -58 15q-46 0 -76 -27t-33 -74v-253h-95v151q-13 -25 -47.5 -43.5t-79.5 -18.5q-79 0 -127 46t-48 126q0 83 52 129t130 46q24 0 52 -6l-7 -78q-14 2 -31 2q-44 0 -70 -23t-26 -68
q0 -43 25 -67.5t71 -24.5q44 0 71 27t30 73v253h-344v81h1122v-81zM128 -113l-70 69l70 71l70 -69z" />
    <glyph glyph-name="dvK_MA" horiz-adv-x="1105" 
d="M933 524h-185v-192h185v192zM933 0v252h-185v-96h-115q-43 68 -52 147q10 4 16 6q-24 45 -74 45q-41 0 -67 -27.5t-29 -73.5v-253h-95v151q-13 -25 -47.5 -43.5t-79.5 -18.5q-79 0 -127 46t-48 126q0 83 52 129t130 46q24 0 52 -6l-7 -78q-14 2 -31 2q-44 0 -70 -23
t-26 -68q0 -43 25 -67.5t71 -24.5q44 0 71 27t30 73v253h-344v81h1139v-81h-89v-524h-100zM648 524h-221v-142q13 22 44 38.5t71 16.5q71 0 106 -51v138zM623 317q11 4 25 6v16z" />
    <glyph glyph-name="dvKx_MA" horiz-adv-x="1105" 
d="M933 524h-185v-192h185v192zM933 0v252h-185v-96h-115q-43 68 -52 147q10 4 16 6q-24 45 -74 45q-41 0 -67 -27.5t-29 -73.5v-253h-95v151q-13 -25 -47.5 -43.5t-79.5 -18.5q-79 0 -127 46t-48 126q0 83 52 129t130 46q24 0 52 -6l-7 -78q-14 2 -31 2q-44 0 -70 -23
t-26 -68q0 -43 25 -67.5t71 -24.5q44 0 71 27t30 73v253h-344v81h1139v-81h-89v-524h-100zM648 524h-221v-142q13 22 44 38.5t71 16.5q72 0 106 -52v139zM152 -113l-70 69l70 71l70 -69zM622 317q14 5 26 6v16z" />
    <glyph glyph-name="dvK_YA" horiz-adv-x="1125" 
d="M523 435q96 0 126 -75q75 16 75 65q0 56 -37 99h-260v-140q10 20 36 35.5t60 15.5zM1142 524h-90v-524h-99v133q-57 -52 -147 -52q-100 0 -163.5 59.5t-65.5 177.5q-18 36 -65 36q-33 0 -58.5 -24t-26.5 -68v-262h-95v151q-13 -25 -47.5 -43.5t-79.5 -18.5q-79 0 -127 46
t-48 126q0 83 52 129t130 46q24 0 52 -6l-7 -78q-14 2 -31 2q-44 0 -70 -23t-26 -68q0 -43 25 -67.5t71 -24.5q44 0 71 27t30 73v253h-344v81h1159v-81zM818 165q78 0 135 55v304h-176q44 -46 44 -107q0 -50 -38 -85t-104 -40q4 -65 41.5 -96t97.5 -31z" />
    <glyph glyph-name="dvK_LA" horiz-adv-x="1216" 
d="M867 338q8 38 37.5 61.5t70.5 23.5q39 0 69 -12v113h-617v-142q14 22 46.5 38.5t71.5 16.5q69 0 112 -37q38 22 85 22q53 0 84 -24.5t41 -59.5zM767 55l-64 -60q-51 38 -87 101.5t-36 140.5q0 56 20 98q-26 19 -64 19q-46 0 -76 -27t-33 -74v-253h-95v151
q-13 -25 -47.5 -43.5t-79.5 -18.5q-79 0 -127 46t-48 126q0 83 52 129t130 46q24 0 52 -6l-7 -78q-14 2 -31 2q-44 0 -70 -23t-26 -68q0 -43 25 -67.5t71 -24.5q44 0 71 27t30 73v253h-344v81h1250v-81h-89v-524h-100v327q-28 11 -63 11q-68 0 -68 -91v-75h-92v70
q0 97 -70 97q-34 0 -53 -27.5t-19 -79.5q0 -99 88 -177z" />
    <glyph glyph-name="dvK_VA" horiz-adv-x="1079" 
d="M781 164q59 0 91 36.5t34 90.5v233h-479v-142q14 22 46.5 38.5t71.5 16.5q57 0 97 -26q52 37 123 37q40 0 81 -13l-18 -75q-23 7 -47 7q-46 0 -76.5 -25.5t-30.5 -74.5q0 -48 29.5 -75.5t77.5 -27.5zM1095 524h-89v-524h-96v158q-13 -27 -51 -50.5t-94 -23.5
q-84 0 -137 52t-53 131q0 41 14 75q-24 12 -53 12q-46 0 -76 -27t-33 -74v-253h-95v151q-13 -25 -47.5 -43.5t-79.5 -18.5q-79 0 -127 46t-48 126q0 83 52 129t130 46q24 0 52 -6l-7 -78q-14 2 -31 2q-44 0 -70 -23t-26 -68q0 -43 25 -67.5t71 -24.5q44 0 71 27t30 73v253
h-344v81h1112v-81z" />
    <glyph glyph-name="dvK_V_YA" horiz-adv-x="1428" 
d="M769 164q77 0 125 69q-11 37 -13 90q0 20 1 30q146 3 146 72q0 56 -37 99h-564v-142q14 22 46.5 38.5t71.5 16.5q54 0 92 -23q53 34 120 34q43 0 77 -13l-18 -75q-23 7 -49 7q-44 0 -74.5 -26.5t-30.5 -75.5q0 -47 29.5 -74t77.5 -27zM1446 524h-90v-524h-99v133
q-57 -52 -147 -52q-122 0 -182 82q-65 -80 -166 -80q-91 0 -145 50.5t-54 130.5q0 45 17 82q-22 8 -44 8q-46 0 -76 -27t-33 -74v-253h-95v151q-13 -25 -47.5 -43.5t-79.5 -18.5q-79 0 -127 46t-48 126q0 83 52 129t130 46q24 0 52 -6l-7 -78q-14 2 -31 2q-44 0 -70 -23
t-26 -68q0 -43 25 -67.5t71 -24.5q44 0 71 27t30 73v253h-344v81h1463v-81zM1122 165q78 0 135 55v304h-176q44 -46 44 -107q0 -50 -38 -85t-104 -40q4 -65 41.5 -96t97.5 -31z" />
    <glyph glyph-name="dvK_SHA" horiz-adv-x="1207" 
d="M600 524h-173v-147q13 21 44 37t69 16q55 0 93.5 -33t48.5 -84h4q72 1 112.5 28.5t40.5 93.5q0 92 -57 92q-23 0 -35 -15t-12 -39q0 -23 7 -45l-80 -17q-15 30 -15 68q0 60 38 96t97 36q74 0 114 -43t40 -127q0 -93 -54 -143.5t-150 -53.5l153 -205l-82 -54l-158 228
l-45 28l16 49q-29 57 -84 57q-45 0 -73.5 -26t-31.5 -74v-247h-95v151q-13 -25 -47.5 -43.5t-79.5 -18.5q-79 0 -127 46t-48 126q0 83 52 129t130 46q24 0 52 -6l-7 -78q-14 2 -31 2q-44 0 -70 -23t-26 -68q0 -43 25 -67.5t71 -24.5q44 0 71 27t30 73v253h-344v81h617v-81z
M1038 0v524h-65v81h250v-81h-89v-524h-96z" />
    <glyph glyph-name="dvK_SS_MA" horiz-adv-x="1012" 
d="M206 487q0 -45 41 -66q23 5 39 23t16 44q0 24 -12 39.5t-35 15.5q-24 0 -36.5 -15.5t-12.5 -40.5zM840 0v252h-185v-96h-115q-38 60 -50 131q-76 -2 -83 -2q-101 0 -165 53q-50 -7 -82.5 -34t-32.5 -74t29.5 -72.5t76.5 -25.5q42 0 68.5 24t29.5 58h92v-214h-92v104
q-15 -20 -46.5 -36t-74.5 -16q-84 0 -135 46.5t-51 127.5q0 66 41 108.5t102 60.5q-44 34 -44 99q0 54 37 88t96 34q63 0 97 -34t34 -89q0 -78 -67 -112q35 -15 99 -15q95 0 136 -19v177h-90v81h564v-81h-90v-524h-99zM655 524v-192h185v192h-185z" />
    <glyph glyph-name="dvK_SS_M_YA" horiz-adv-x="1338" 
d="M423 0h-92v104q-15 -20 -46.5 -36t-74.5 -16q-84 0 -135 46.5t-51 127.5q0 66 41 108.5t102 60.5q-44 34 -44 99q0 54 37 88t96 34q63 0 97 -34t34 -89q0 -78 -70 -113q41 -14 102 -14h19h21.5t20 -0.5t22 -1.5t19.5 -3t21 -5t19 -7v175h-98v81h892v-81h-89v-524h-100
v133q-55 -52 -146 -52q-85 0 -144.5 43t-77.5 130h-138v-96h-115q-37 58 -49 130q-60 -3 -89 -3q-101 0 -165 53q-50 -7 -82.5 -34t-32.5 -74t29.5 -72.5t76.5 -25.5q42 0 68 23.5t30 58.5h92v-214zM206 487q0 -45 41 -66q23 5 39 23t16 44q0 24 -12 39.5t-35 15.5
q-24 0 -36.5 -15.5t-12.5 -40.5zM660 524v-190h131v19q147 3 147 72q0 53 -37 99h-241zM1031 165q78 0 135 55v304h-175q43 -45 43 -107q0 -50 -38 -85t-103 -40q4 -65 41 -96t97 -31z" />
    <glyph glyph-name="dvK_SS_YA" horiz-adv-x="1040" 
d="M387 493q0 -81 -70 -113q39 -14 101 -14q60 0 95 -12q126 7 126 71q0 56 -37 99h-143v81h598v-81h-90v-524h-100v133q-55 -52 -146 -52q-92 0 -154 51t-73 154q-40 -1 -89 -1q-99 0 -163 53q-50 -7 -82.5 -34t-32.5 -74t29.5 -72.5t76.5 -25.5q42 0 68 23.5t30 58.5h92
v-214h-92v104q-15 -20 -46.5 -36t-74.5 -16q-84 0 -135 46.5t-51 127.5q0 66 41 108.5t102 60.5q-44 34 -44 99q0 54 37 88t96 34q63 0 97 -34t34 -89zM206 487q0 -45 41 -66q23 5 39 23t16 44q0 24 -12 39.5t-35 15.5q-24 0 -36.5 -15.5t-12.5 -40.5zM733 165q79 0 134 55
v304h-175q43 -45 43 -107q0 -51 -38 -85.5t-103 -39.5q4 -65 41.5 -96t97.5 -31z" />
    <glyph glyph-name="dvK_SS_VA" horiz-adv-x="1007" 
d="M423 0h-92v104q-15 -20 -46.5 -36t-74.5 -16q-84 0 -135 46.5t-51 127.5q0 66 41 108.5t102 60.5q-44 34 -44 99q0 54 37 88t96 34q63 0 97 -34t34 -89q0 -77 -67 -110q30 -19 93 -19q67 0 138 29q53 55 143 55q40 0 81 -13l-18 -75q-23 7 -47 7q-46 0 -76.5 -25.5
t-30.5 -74.5q0 -48 29.5 -75.5t77.5 -27.5q59 0 91 36.5t34 90.5v233h-378v81h567v-81h-89v-524h-96v158q-13 -27 -51 -50.5t-94 -23.5q-84 0 -137 52t-53 131q0 19 3 36q-43 -16 -102 -16q-95 5 -166 50q-49 -7 -80.5 -34t-31.5 -73q0 -47 29.5 -72.5t76.5 -25.5
q42 0 68.5 23.5t29.5 58.5h92v-214zM206 487q0 -45 41 -66q23 5 39 23t16 44q0 24 -12 39.5t-35 15.5q-24 0 -36.5 -15.5t-12.5 -40.5z" />
    <glyph glyph-name="dvK_SA" horiz-adv-x="1190" 
d="M540 430q53 0 91 -30.5t50 -79.5q74 21 74 100q0 54 -35 104h-293v-147q13 21 44 37t69 16zM917 307q64 0 101 22v195h-203q40 -52 40 -118q0 -45 -18 -78q36 -21 80 -21zM1207 524h-89v-524h-100v234q-36 -13 -86 -13q-80 0 -149 51q-33 -20 -79 -27l156 -205l-81 -55
l-161 227l-45 29l24 73h3q-28 33 -68 33q-45 0 -73.5 -26t-31.5 -74v-247h-95v151q-13 -25 -47.5 -43.5t-79.5 -18.5q-79 0 -127 46t-48 126q0 83 52 129t130 46q24 0 52 -6l-7 -78q-14 2 -31 2q-44 0 -70 -23t-26 -68q0 -43 25 -67.5t71 -24.5q44 0 71 27t30 73v253h-344
v81h1224v-81z" />
    <glyph glyph-name="dvK_S_TTA" horiz-adv-x="1400" 
d="M542 427q55 0 93 -29t48 -78q75 19 75 100q0 54 -35 104h-296v-152q13 22 44.5 38.5t70.5 16.5zM989 219v7q-27 -5 -54 -5q-80 0 -149 51q-33 -20 -79 -27l156 -205l-81 -55l-161 227l-45 29l24 73h2q-25 30 -68 30q-45 0 -74.5 -26t-32.5 -72v-246h-95v151
q-13 -25 -47.5 -43.5t-79.5 -18.5q-79 0 -127 46t-48 126q0 83 52 129t130 46q24 0 52 -6l-7 -78q-14 2 -31 2q-44 0 -70 -23t-26 -68q0 -43 25 -67.5t71 -24.5q44 0 71 27t30 73v253h-344v81h1434v-81h-88v-176q-15 1 -51 1q-83 0 -136 -30.5t-53 -99.5q0 -65 39.5 -96.5
t108.5 -31.5q60 0 118 22l16 -80q-69 -26 -155 -26q-96 0 -161.5 57.5t-65.5 154.5zM920 307q67 0 101 25q58 83 185 91q2 0 12 0.5t12 0.5v100h-412q40 -52 40 -118q0 -45 -18 -78q38 -21 80 -21z" />
    <glyph glyph-name="dvK_S_DDA" horiz-adv-x="1398" 
d="M542 427q54 0 92 -29t49 -77q71 21 71 99q0 54 -35 104h-293v-152q14 22 46 38.5t70 16.5zM970 72l46 70q69 -57 151 -57q90 0 90 59q0 23 -13.5 35t-50.5 19l-87 16q-45 9 -72 28q-44 -21 -103 -21q-80 0 -149 51q-33 -20 -79 -27l156 -205l-81 -55l-161 227l-45 29
l24 73h6q-27 30 -69 30q-45 0 -74.5 -26t-32.5 -72v-246h-95v151q-12 -25 -46.5 -43.5t-79.5 -18.5q-79 0 -127.5 46t-48.5 126q0 83 52 129t131 46q24 0 52 -6l-7 -78q-16 2 -31 2q-44 0 -70 -23t-26 -68q0 -43 25 -67.5t70 -24.5q44 0 71 27t30 73v253h-343v81h1433v-81
h-97v-158q-123 14 -173 14q-60 0 -60 -45q0 -21 13 -31.5t43 -15.5l89 -16q125 -21 125 -127q0 -68 -51.5 -104.5t-135.5 -36.5q-121 0 -199 68zM916 307q46 0 75 11q-1 5 -1 16q0 59 40.5 89t100.5 30q48 0 88 -6v77h-405q40 -52 40 -118q0 -45 -18 -78q38 -21 80 -21z" />
    <glyph glyph-name="dvK_S_TA" horiz-adv-x="1465" 
d="M542 427q54 0 91.5 -28.5t48.5 -76.5q68 22 68 98q0 54 -35 104h-289v-152q14 22 46 38.5t70 16.5zM1482 524h-89v-524h-100v314q-53 8 -107 8q-50 0 -82 -29t-32 -84q0 -81 61 -174l-75 -45q-36 41 -61 100t-25 122v12q-21 -3 -45 -3q-80 0 -149 51q-33 -20 -79 -27
l156 -205l-81 -55l-161 227l-45 29l24 73h10q-27 30 -69 30q-45 0 -74.5 -26t-32.5 -72v-246h-95v151q-12 -25 -46.5 -43.5t-79.5 -18.5q-79 0 -127.5 46t-48.5 126q0 83 52 129t131 46q24 0 52 -6l-7 -78q-16 2 -31 2q-44 0 -70 -23t-26 -68q0 -43 25 -67.5t70 -24.5
q44 0 71 27t30 73v253h-343v81h1499v-81zM1293 524h-483q40 -52 40 -118q0 -45 -18 -78q39 -21 80 -21q61 0 94 20q57 83 177 83q57 0 110 -12v126z" />
    <glyph glyph-name="dvK_S_P_RA" horiz-adv-x="1477" 
d="M545 427q54 0 91 -29t47 -77q72 21 72 99q0 54 -35 104h-293v-152q14 22 46.5 38.5t71.5 16.5zM917 307q65 0 98 23v194h-200q40 -52 40 -118q0 -45 -18 -78q39 -21 80 -21zM1494 605v-81h-89v-524h-98v176l-248 -213l-60 73l156 111q-96 10 -128 92q-41 -18 -95 -18
q-80 0 -149 51q-33 -20 -79 -27l156 -205l-81 -55l-161 227l-45 29l24 73h8q-27 30 -69 30q-45 0 -75.5 -26.5t-33.5 -72.5v-245h-95v151q-13 -25 -47.5 -43.5t-79.5 -18.5q-79 0 -127 46t-48 126q0 83 52 129t130 46q24 0 52 -6l-7 -78q-14 2 -31 2q-44 0 -70 -23t-26 -68
q0 -43 25 -67.5t71 -24.5q44 0 71 27t30 73v253h-344v81h1511zM1305 524h-190v-204q0 -48 16.5 -69.5t65.5 -21.5q51 0 108 20v275z" />
    <glyph glyph-name="dvK_S_P_LA" horiz-adv-x="1925" 
d="M1576 338q8 38 37.5 61.5t70.5 23.5q39 0 69 -12v113h-644v-204q0 -48 16.5 -69.5t65.5 -21.5q53 0 98 24q5 77 48 123t114 46q53 0 84 -24.5t41 -59.5zM860 40l-81 -55l-161 227l-45 29l24 73h8q-27 30 -69 30q-46 0 -76.5 -26.5t-33.5 -72.5v-245h-95v151
q-12 -25 -46.5 -43.5t-79.5 -18.5q-79 0 -127.5 46t-48.5 126q0 83 52 129t131 46q24 0 52 -6l-7 -78q-16 2 -31 2q-44 0 -70 -23t-26 -68q0 -43 25 -67.5t70 -24.5q44 0 71 27t30 73v253h-343v81h1959v-81h-89v-524h-100v327q-28 11 -63 11q-68 0 -68 -91v-75h-92v70
q0 97 -70 97q-34 0 -53 -27.5t-19 -79.5q0 -99 88 -177l-64 -60q-87 64 -115 173q-55 -26 -124 -26q-116 0 -152 94q-37 -15 -89 -15q-80 0 -149 51q-33 -20 -79 -27zM917 307q58 0 92 19v198h-194q40 -52 40 -118q0 -45 -18 -78q39 -21 80 -21zM545 427q54 0 90.5 -29
t47.5 -78q72 22 72 100q0 54 -35 104h-294v-152q15 22 47.5 38.5t71.5 16.5z" />
    <glyph glyph-name="dvKH_KHA" horiz-adv-x="1274" 
d="M348 92q55 0 100 19q-60 4 -99.5 48.5t-39.5 103.5q0 73 49.5 115t120.5 42q21 0 46 -5l-7 -73q-24 2 -32 2q-37 0 -61 -22t-24 -61t24 -63.5t60 -24.5q62 0 98 38l-2 5l-44 24l24 74h34q62 0 93.5 28t31.5 78q0 54 -35 104h-433q40 -52 40 -118t-39.5 -108t-110.5 -53
q55 -153 206 -153zM1102 524h-322q40 -52 40 -118t-39.5 -108t-110.5 -53q55 -153 206 -153q55 0 100 19q-60 4 -99.5 48.5t-39.5 103.5q0 73 49.5 115t120.5 42q21 0 46 -5l-7 -73q-24 2 -32 2q-37 0 -61 -22t-24 -61t24 -63.5t60 -24.5q61 0 89 37v314zM1291 524h-90v-524
h-95v103q-43 -43 -104 -68.5t-126 -25.5q-172 0 -258 132q-45 -60 -118 -96t-152 -36q-100 0 -179 50.5t-116 156.5l-44 24l24 74h34q62 0 93.5 28t31.5 78q0 54 -35 104h-174v81h1308v-81z" />
    <glyph glyph-name="dvKH_TA" horiz-adv-x="1053" 
d="M1070 524h-89v-524h-100v314q-53 8 -107 8q-50 0 -82 -29t-32 -84q0 -81 61 -174l-75 -45q-40 45 -65 110q-99 -91 -233 -91q-100 0 -179 50.5t-116 156.5l-44 24l24 74h34q62 0 93.5 28t31.5 78q0 54 -35 104h-174v81h1087v-81zM881 524h-629q40 -52 40 -118t-39.5 -108
t-110.5 -53q55 -153 206 -153q55 0 100 19q-60 4 -99.5 48.5t-39.5 103.5q0 73 49.5 115t120.5 42q21 0 46 -5l-7 -73q-24 2 -32 2q-37 0 -61 -22t-24 -61t24 -63.5t60 -24.5q45 0 76 20q-1 6 -1 19q0 88 58 143t153 55q57 0 110 -12v126z" />
    <glyph glyph-name="dvKHx_TA" horiz-adv-x="1053" 
d="M120 -114l-70 69l70 71l70 -69zM1070 524h-89v-524h-100v314q-53 8 -107 8q-50 0 -82 -29t-32 -84q0 -81 61 -174l-75 -45q-40 45 -65 110q-99 -91 -233 -91q-100 0 -179 50.5t-116 156.5l-44 24l24 74h34q62 0 93.5 28t31.5 78q0 54 -35 104h-174v81h1087v-81zM881 524
h-629q40 -52 40 -118t-39.5 -108t-110.5 -53q55 -153 206 -153q55 0 100 19q-60 4 -99.5 48.5t-39.5 103.5q0 73 49.5 115t120.5 42q21 0 46 -5l-7 -73q-24 2 -32 2q-37 0 -61 -22t-24 -61t24 -63.5t60 -24.5q45 0 76 20q-1 6 -1 19q0 88 58 143t153 55q57 0 110 -12v126z
" />
    <glyph glyph-name="dvKH_NA" horiz-adv-x="746" 
d="M574 524h-322q40 -52 40 -118t-39.5 -108t-110.5 -53q55 -153 206 -153q55 0 100 19q-60 4 -99.5 48.5t-39.5 103.5q0 73 49.5 115t120.5 42q21 0 46 -5l-7 -73q-24 2 -32 2q-37 0 -61 -22t-24 -61t24 -63.5t60 -24.5q61 0 89 37v314zM763 524h-90v-524h-95v103
q-45 -43 -126 -78l-217 -92l29 -78l-77 -29q-53 42 -83 99l27 54l125 49q-150 29 -203 188l-44 24l24 74h34q62 0 93.5 28t31.5 78q0 54 -35 104h-174v81h780v-81z" />
    <glyph glyph-name="dvKH_MA" horiz-adv-x="1075" 
d="M903 524h-185v-192h185v192zM903 0v252h-185v-96h-90q-42 -66 -118.5 -106.5t-161.5 -40.5q-100 0 -179 50.5t-116 156.5l-44 24l24 74h34q62 0 93.5 28t31.5 78q0 54 -35 104h-174v81h1109v-81h-89v-524h-100zM618 524h-366q40 -52 40 -118t-39.5 -108t-110.5 -53
q55 -153 206 -153q55 0 100 19q-60 4 -99.5 48.5t-39.5 103.5q0 73 49.5 115t120.5 42q21 0 46 -5l-7 -73q-24 2 -32 2q-37 0 -61 -22t-24 -61t24 -63.5t60 -24.5q57 0 92 32q-22 55 -26 98q35 15 67 20v201z" />
    <glyph glyph-name="dvKHx_MA" horiz-adv-x="1068" 
d="M896 524h-185v-192h185v192zM896 0v252h-185v-96h-83q-42 -66 -118.5 -106.5t-161.5 -40.5q-100 0 -179 50.5t-116 156.5l-44 24l24 74h34q62 0 93.5 28t31.5 78q0 54 -35 104h-174v81h1102v-81h-89v-524h-100zM611 524h-359q40 -52 40 -118t-39.5 -108t-110.5 -53
q55 -153 206 -153q55 0 100 19q-60 4 -99.5 48.5t-39.5 103.5q0 73 49.5 115t120.5 42q21 0 46 -5l-7 -73q-24 2 -32 2q-37 0 -61 -22t-24 -61t24 -63.5t60 -24.5q52 0 87 28q-23 53 -28 102q35 15 67 20v201zM120 -114l-70 69l70 71l70 -69z" />
    <glyph glyph-name="dvKH_YA" horiz-adv-x="1117" 
d="M348 92q55 0 100 19q-60 4 -99.5 48.5t-39.5 103.5q0 73 49.5 115t120.5 42q21 0 46 -5l-7 -73q-24 2 -32 2q-37 0 -61 -22t-24 -61t24 -63.5t60 -24.5q65 0 103 43q-17 44 -19 107q0 20 1 30q146 3 146 72q0 56 -37 99h-427q40 -52 40 -118t-39.5 -108t-110.5 -53
q55 -153 206 -153zM1134 524h-90v-524h-99v133q-57 -52 -147 -52q-112 0 -173 70q-43 -64 -118.5 -103t-158.5 -39q-100 0 -179 50.5t-116 156.5l-44 24l24 74h34q62 0 93.5 28t31.5 78q0 54 -35 104h-174v81h1151v-81zM810 165q78 0 135 55v304h-176q44 -46 44 -107
q0 -50 -38 -85t-104 -40q4 -65 41.5 -96t97.5 -31z" />
    <glyph glyph-name="dvKHx_YA" horiz-adv-x="1117" 
d="M348 92q55 0 100 19q-60 4 -99.5 48.5t-39.5 103.5q0 73 49.5 115t120.5 42q21 0 46 -5l-7 -73q-24 2 -32 2q-37 0 -61 -22t-24 -61t24 -63.5t60 -24.5q65 0 103 43q-17 44 -19 107q0 20 1 30q146 3 146 72q0 56 -37 99h-427q40 -52 40 -118t-39.5 -108t-110.5 -53
q55 -153 206 -153zM1134 524h-90v-524h-99v133q-57 -52 -147 -52q-112 0 -173 70q-43 -64 -118.5 -103t-158.5 -39q-100 0 -179 50.5t-116 156.5l-44 24l24 74h34q62 0 93.5 28t31.5 78q0 54 -35 104h-174v81h1151v-81zM810 165q78 0 135 55v304h-176q44 -46 44 -107
q0 -50 -38 -85t-104 -40q4 -65 41.5 -96t97.5 -31zM120 -114l-70 69l70 71l70 -69z" />
    <glyph glyph-name="dvKH_VA" horiz-adv-x="1067" 
d="M348 92q55 0 100 19q-60 4 -99.5 48.5t-39.5 103.5q0 73 49.5 115t120.5 42q21 0 46 -5l-7 -73q-24 2 -32 2q-37 0 -61 -22t-24 -61t24 -63.5t60 -24.5q53 0 90 30q-11 31 -11 64q0 86 54.5 133.5t135.5 47.5q40 0 81 -13l-18 -75q-23 7 -47 7q-46 0 -76.5 -25.5
t-30.5 -74.5q0 -48 29.5 -75.5t77.5 -27.5q59 0 91 36.5t34 90.5v233h-643q40 -52 40 -118t-39.5 -108t-110.5 -53q55 -153 206 -153zM1084 524h-89v-524h-96v158q-13 -27 -51 -50.5t-94 -23.5q-85 0 -139 54q-45 -59 -117 -94t-150 -35q-100 0 -179 50.5t-116 156.5l-44 24
l24 74h34q62 0 93.5 28t31.5 78q0 54 -35 104h-174v81h1101v-81z" />
    <glyph glyph-name="dvKHx_VA" horiz-adv-x="1067" 
d="M120 -114l-70 69l70 71l70 -69zM348 92q55 0 100 19q-60 4 -99.5 48.5t-39.5 103.5q0 73 49.5 115t120.5 42q21 0 46 -5l-7 -73q-24 2 -32 2q-37 0 -61 -22t-24 -61t24 -63.5t60 -24.5q53 0 90 30q-11 31 -11 64q0 86 54.5 133.5t135.5 47.5q40 0 81 -13l-18 -75
q-23 7 -47 7q-46 0 -76.5 -25.5t-30.5 -74.5q0 -48 29.5 -75.5t77.5 -27.5q59 0 91 36.5t34 90.5v233h-643q40 -52 40 -118t-39.5 -108t-110.5 -53q55 -153 206 -153zM1084 524h-89v-524h-96v158q-13 -27 -51 -50.5t-94 -23.5q-85 0 -139 54q-45 -59 -117 -94t-150 -35
q-100 0 -179 50.5t-116 156.5l-44 24l24 74h34q62 0 93.5 28t31.5 78q0 54 -35 104h-174v81h1101v-81z" />
    <glyph glyph-name="dvKH_SHA" horiz-adv-x="1163" 
d="M559 524h-307q40 -52 40 -118t-39.5 -108t-110.5 -53q55 -153 206 -153q55 0 100 19q-60 4 -99.5 48.5t-39.5 103.5q0 73 49.5 115t120.5 42q21 0 46 -5l-7 -73q-24 2 -32 2q-37 0 -61 -22t-24 -61t24 -63.5t60 -24.5q68 0 106 47l-34 21l24 73q10 -1 62 -1
q72 1 112.5 28.5t40.5 93.5q0 92 -57 92q-23 0 -35 -15t-12 -39q0 -23 7 -45l-80 -17q-15 30 -15 68q0 60 38 96t97 36q74 0 114 -43t40 -127q0 -93 -54 -143.5t-150 -53.5l153 -205l-82 -54l-125 181q-42 -70 -120.5 -113.5t-166.5 -43.5q-100 0 -179 50.5t-116 156.5
l-44 24l24 74h34q62 0 93.5 28t31.5 78q0 54 -35 104h-174v81h576v-81zM995 0v524h-65v81h250v-81h-89v-524h-96z" />
    <glyph glyph-name="dvKHx_SHA" horiz-adv-x="1164" 
d="M559 524h-307q40 -52 40 -118t-39.5 -108t-110.5 -53q55 -153 206 -153q55 0 100 19q-60 4 -99.5 48.5t-39.5 103.5q0 73 49.5 115t120.5 42q21 0 46 -5l-7 -73q-24 2 -32 2q-37 0 -61 -22t-24 -61t24 -63.5t60 -24.5q69 0 106 47l-33 21l24 73q10 -1 62 -1
q72 1 112.5 28.5t40.5 93.5q0 92 -57 92q-23 0 -35 -15t-12 -39q0 -23 7 -45l-80 -17q-15 30 -15 68q0 60 38 96t97 36q74 0 114 -43t40 -127q0 -93 -54 -143.5t-150 -53.5l153 -205l-82 -54l-126 182q-41 -70 -120 -114t-167 -44q-100 0 -179 50.5t-116 156.5l-44 24l24 74
h34q62 0 93.5 28t31.5 78q0 54 -35 104h-174v81h576v-81zM996 0v524h-65v81h250v-81h-89v-524h-96zM120 -114l-70 69l70 71l70 -69z" />
    <glyph glyph-name="dvKHx_SA" horiz-adv-x="1166" 
d="M893 307q64 0 101 22v195h-203q40 -52 40 -118q0 -45 -18 -78q36 -21 80 -21zM1183 524h-89v-524h-100v234q-36 -13 -86 -13q-80 0 -149 51q-33 -20 -79 -27l156 -205l-81 -55l-124 175q-42 -68 -119.5 -109.5t-163.5 -41.5q-100 0 -179 50.5t-116 156.5l-44 24l24 74h34
q62 0 93.5 28t31.5 78q0 54 -35 104h-174v81h1200v-81zM348 92q55 0 100 19q-60 4 -99.5 48.5t-39.5 103.5q0 73 49.5 115t120.5 42q21 0 46 -5l-7 -73q-24 2 -32 2q-37 0 -61 -22t-24 -61t24 -63.5t60 -24.5q65 0 103 43l-39 25l24 73h34q62 0 93 28t31 78q0 54 -35 104
h-444q40 -52 40 -118t-39.5 -108t-110.5 -53q55 -153 206 -153zM120 -114l-70 69l70 71l70 -69z" />
    <glyph glyph-name="dvG_GA" horiz-adv-x="809" 
d="M54 307l58 40v177h-129v81h843v-81h-90v-524h-99v524h-151v-339h-100q-19 21 -35.5 56.5t-22.5 65.5l58 40v177h-174v-339h-100q-19 21 -35.5 56.5t-22.5 65.5z" />
    <glyph glyph-name="dvG_GHA" horiz-adv-x="857" 
d="M685 524h-214q-33 -31 -33 -74q0 -65 82 -65h47v-81h-40q-89 0 -89 -65q0 -73 105 -73q41 0 81 16.5t61 34.5v307zM874 524h-90v-524h-95v135q-66 -53 -172 -53q-86 0 -134 39t-48 109q0 99 98 119q-44 3 -70 27.5t-26 69.5q0 48 35 78h-160v-339h-100q-19 21 -35.5 56.5
t-22.5 65.5l58 40v177h-129v81h891v-81z" />
    <glyph glyph-name="dvG_JA" horiz-adv-x="872" 
d="M278 78l16 77q50 -12 97 -12q112 0 112 90q0 64 -52 96h-78v80h327v115h-488v-339h-100q-19 21 -35.5 56.5t-22.5 65.5l58 40v177h-129v81h906v-81h-90v-524h-99v329h-142q16 -10 31.5 -39.5t15.5 -70.5q0 -77 -51.5 -117.5t-146.5 -40.5q-71 0 -129 17z" />
    <glyph glyph-name="dvG_NNA" horiz-adv-x="1012" 
d="M1029 524h-89v-524h-100v524h-128v-198q0 -185 -175 -185q-89 0 -131.5 49t-42.5 136v198h99v-204q0 -98 75 -98t75 98v204h-400v-339h-100q-19 21 -35.5 56.5t-22.5 65.5l58 40v177h-129v81h1046v-81z" />
    <glyph glyph-name="dvG_DA" horiz-adv-x="808" 
d="M647 124q-12 -24 -46 -40.5t-80 -16.5q-83 0 -134.5 51t-51.5 131q0 88 58 138t153 50q57 0 89 -5v92h-423v-339h-100q-19 21 -35.5 56.5t-22.5 65.5l58 40v177h-129v81h842v-81h-90v-180q-115 10 -177 10q-59 0 -89.5 -28.5t-30.5 -75.5q0 -48 27.5 -75.5t76.5 -27.5
q45 0 73.5 24.5t32.5 58.5h91v-230h-92v124z" />
    <glyph glyph-name="dvG_DHA" horiz-adv-x="863" 
d="M498 605l21 -73q-78 -37 -78 -84q0 -66 79 -66h52v-82h-44q-86 0 -86 -65q0 -69 106 -69q43 0 82.5 17t60.5 37v304h-78v81h267v-81h-89v-524h-96v138q-65 -56 -173 -56q-87 0 -135.5 38t-48.5 108q0 99 98 119q-43 2 -69 26.5t-26 71.5q0 25 13.5 46.5t33.5 32.5h-176
v-339h-100q-19 21 -35.5 56.5t-22.5 65.5l58 40v177h-129v81h515z" />
    <glyph glyph-name="dvG_DH_YA" horiz-adv-x="1221" 
d="M54 307l58 40v177h-129v81h520l21 -73q-77 -38 -77 -84q0 -66 78 -66h52v-82h-42q-42 0 -65 -16t-23 -45q0 -38 24.5 -55.5t79.5 -17.5q76 0 139 55q-16 46 -16 102v30q147 3 147 72q0 53 -37 99h-168v81h622v-81h-89v-524h-100v133q-55 -52 -146 -52q-113 0 -174 71
q-80 -71 -202 -71q-88 0 -136 39t-48 110q0 51 27.5 80t70.5 37q-43 2 -69 26.5t-26 71.5q0 25 13.5 46.5t33.5 32.5h-181v-339h-100q-19 21 -35.5 56.5t-22.5 65.5zM915 165q79 0 134 55v304h-175q43 -45 43 -107q0 -51 -38 -85.5t-103 -39.5q4 -65 41 -96t98 -31z" />
    <glyph glyph-name="dvG_DH_VA" horiz-adv-x="1183" 
d="M54 307l58 40v177h-129v81h520l21 -73q-77 -38 -77 -84q0 -66 78 -66h53v-82h-43q-41 0 -64 -16t-23 -45q0 -38 24.5 -55.5t79.5 -17.5q75 0 133 51q-6 23 -6 50q0 86 54.5 133.5t135.5 47.5q40 0 81 -13l-18 -75q-23 7 -47 7q-46 0 -76.5 -25.5t-30.5 -74.5
q0 -48 29.5 -75.5t77.5 -27.5q59 0 91 36.5t34 90.5v233h-391v81h580v-81h-89v-524h-96v158q-13 -27 -51 -50.5t-94 -23.5q-94 0 -146 62q-79 -65 -196 -65q-87 0 -135 39t-48 110q0 51 27.5 80t70.5 37q-44 2 -69.5 26.5t-25.5 71.5q0 25 13.5 46.5t33.5 32.5h-182v-339
h-100q-19 21 -35.5 56.5t-22.5 65.5z" />
    <glyph glyph-name="dvG_NA" horiz-adv-x="535" 
d="M54 349l58 40v135h-129v81h569v-81h-90v-524h-99v161l-134 -107l42 -62l-67 -50q-63 30 -106 76l13 59l252 185v262h-151v-297h-100q-19 21 -35.5 56.5t-22.5 65.5z" />
    <glyph glyph-name="dvG_N_YA" horiz-adv-x="883" 
d="M164 2l21 55l199 104q-48 60 -49 162q0 20 1 30q147 3 147 72q0 55 -38 99h-221v-214q0 -67 -37.5 -99.5t-104.5 -32.5q-38 0 -72 12l13 78q23 -5 42 -5q30 0 44.5 10.5t14.5 38.5v212h-141v81h917v-81h-90v-524h-99v133q-57 -52 -146 -52q-62 0 -109 22l-159 -87l33 -68
l-73 -37q-58 36 -93 91zM576 165q78 0 135 55v304h-176q44 -44 44 -107q0 -50 -38 -85t-103 -40q4 -65 41 -96t97 -31z" />
    <glyph glyph-name="dvG_BA" horiz-adv-x="835" 
d="M537 156q35 0 60 12l-161 149q-12 -23 -12 -53q0 -49 32 -78.5t81 -29.5zM852 524h-90v-524h-96v152q-11 -26 -50 -49.5t-96 -23.5q-84 0 -138.5 53t-54.5 132q0 88 56.5 137t140.5 49q42 0 80 -12l-12 -74q-23 6 -60 6q-32 0 -55 -13l165 -151q19 29 21 69v249h-451
v-339h-100q-19 21 -35.5 56.5t-22.5 65.5l58 40v177h-129v81h869v-81z" />
    <glyph glyph-name="dvG_BHA" horiz-adv-x="940" 
d="M54 307l58 40v177h-129v81h331v-81h-102v-339h-100q-19 21 -35.5 56.5t-22.5 65.5zM587 462v-130h181v192h-91v81h280v-81h-90v-524h-99v252h-181v-96h-113q-46 72 -49 147q34 15 64 20v144q0 67 -45 67q-18 0 -28.5 -13t-10.5 -32q0 -24 14 -54l-73 -26q-24 34 -24 85
q0 52 34.5 84.5t92.5 32.5q67 0 102.5 -40t35.5 -109z" />
    <glyph glyph-name="dvG_BH_YA" horiz-adv-x="1294" 
d="M587 462v-116h160q146 3 146 79q0 56 -37 99h-179v81h634v-81h-90v-524h-100v133q-55 -52 -146 -52q-89 0 -149.5 45.5t-75.5 138.5h-163v-96h-113q-46 72 -49 147q32 14 64 21v130q0 67 -45 67q-18 0 -28.5 -13t-10.5 -32q0 -24 14 -54l-73 -26q-24 34 -24 85
q0 52 34.5 84.5t92.5 32.5q67 0 102.5 -40t35.5 -109zM987 165q79 0 134 55v304h-175q43 -45 43 -107q0 -53 -38 -90t-103 -42q4 -62 41.5 -91t97.5 -29zM54 307l58 40v177h-129v81h331v-81h-102v-339h-100q-19 21 -35.5 56.5t-22.5 65.5z" />
    <glyph glyph-name="dvG_MA" horiz-adv-x="855" 
d="M683 0v252h-185v-96h-115q-44 70 -51 147q34 14 67 21v200h99v-192h185v192h-471v-339h-100q-19 21 -35.5 56.5t-22.5 65.5l58 40v177h-129v81h889v-81h-89v-524h-100z" />
    <glyph glyph-name="dvG_YA" horiz-adv-x="884" 
d="M901 524h-90v-524h-99v133q-57 -52 -146 -52q-101 0 -164.5 60.5t-65.5 181.5q0 20 1 30q147 3 147 72q0 55 -38 99h-234v-339h-100q-19 21 -35.5 56.5t-22.5 65.5l58 40v177h-129v81h918v-81zM577 165q78 0 135 55v304h-176q44 -44 44 -107q0 -50 -38 -85t-103 -40
q4 -65 41 -96t97 -31z" />
    <glyph glyph-name="dvG_R_YA" horiz-adv-x="883" 
d="M900 524h-90v-524h-99v133q-57 -52 -146 -52q-92 0 -150 48l-214 -181l-66 77l229 167q-28 54 -29 131q0 20 1 30q147 3 147 72q0 55 -38 99h-233v-339h-100q-19 21 -35.5 56.5t-22.5 65.5l58 40v177h-129v81h917v-81zM576 165q78 0 135 55v304h-176q44 -44 44 -107
q0 -50 -38 -85t-103 -40q4 -65 41 -96t97 -31z" />
    <glyph glyph-name="dvG_LA" horiz-adv-x="973" 
d="M623 338q9 38 38 61.5t71 23.5q38 0 69 -12v113h-589v-339h-100q-19 21 -35.5 56.5t-22.5 65.5l58 40v177h-129v81h1007v-81h-89v-524h-100v327q-28 11 -64 11q-67 0 -67 -91v-75h-93v70q0 97 -70 97q-33 0 -52.5 -28t-19.5 -79q0 -98 89 -177l-64 -60
q-51 38 -87.5 101.5t-36.5 140.5q0 84 43.5 134.5t118.5 50.5q54 0 84.5 -24.5t40.5 -59.5z" />
    <glyph glyph-name="dvG_VA" horiz-adv-x="838" 
d="M855 524h-89v-524h-96v158q-13 -27 -51.5 -50.5t-94.5 -23.5q-83 0 -136.5 52t-53.5 131q0 85 55 133t136 48q39 0 80 -13l-17 -75q-26 7 -47 7q-46 0 -77 -25.5t-31 -74.5q0 -47 29.5 -75t78.5 -28q59 0 91 36.5t34 90.5v233h-454v-339h-100q-19 21 -35.5 56.5
t-22.5 65.5l58 40v177h-129v81h872v-81z" />
    <glyph glyph-name="dvG_SA" horiz-adv-x="934" 
d="M660 307q64 0 101 22v195h-203q40 -52 40 -118q0 -45 -18 -78q36 -21 80 -21zM951 524h-90v-524h-100v234q-36 -13 -85 -13q-82 0 -149 51q-33 -19 -80 -27l157 -205l-81 -55l-161 227l-46 29l24 73h34q62 0 93.5 28t31.5 78q0 54 -35 104h-252v-339h-100
q-19 21 -35.5 56.5t-22.5 65.5l58 40v177h-129v81h968v-81z" />
    <glyph glyph-name="dvGH_NA" horiz-adv-x="579" 
d="M407 216v308h-214q-33 -31 -33 -74q0 -65 82 -65h47v-81h-40q-88 0 -88 -65q0 -73 104 -73q72 0 142 50zM596 524h-90v-524h-95v129l-199 -126l36 -67l-74 -39q-56 36 -90 87l16 48l104 58q-71 5 -109 41.5t-38 98.5q0 99 98 119q-44 3 -70 27.5t-26 69.5q0 48 35 78
h-111v81h613v-81z" />
    <glyph glyph-name="dvGH_MA" horiz-adv-x="897" 
d="M725 524h-185v-192h185v192zM725 0v252h-185v-96h-89q-87 -78 -212 -78q-86 0 -134 41t-48 111q0 52 28 81t70 38q-44 3 -70 27.5t-26 69.5q0 51 35 78h-111v81h931v-81h-89v-524h-100zM440 524h-247q-33 -30 -33 -74q0 -65 82 -65h47v-81h-40q-88 0 -88 -65
q0 -73 104 -73q73 0 132 46q-19 46 -24 91q35 15 67 20v201z" />
    <glyph glyph-name="dvGH_YA" horiz-adv-x="929" 
d="M623 165q78 0 135 55v304h-176q44 -46 44 -107q0 -50 -38 -85t-104 -40q4 -65 41.5 -96t97.5 -31zM94 524h-111v81h964v-81h-90v-524h-99v133q-57 -52 -147 -52q-109 0 -170 67q-83 -70 -202 -70q-86 0 -134 41t-48 111q0 52 28 81t70 38q-44 3 -70 27.5t-26 69.5
q0 51 35 78zM193 524q-33 -30 -33 -74q0 -65 82 -65h47v-81h-40q-88 0 -88 -65q0 -73 104 -73q75 0 136 49q-18 45 -19 108q0 20 1 30q146 3 146 72q0 56 -37 99h-299z" />
    <glyph glyph-name="dvNG_KA" horiz-adv-x="516" 
d="M450 267l-64 65l65 65l65 -64zM274 -274h-69v84q-25 -32 -70 -32q-52 0 -83.5 31t-31.5 85q0 55 34 85.5t85 30.5q11 0 39 -5l-5 -57q-13 2 -25 2q-53 0 -53 -55q0 -26 13.5 -41t38.5 -15q24 0 38 16t16 44v161q-103 8 -178 65l43 66q72 -55 161 -55q85 0 85 53
q0 18 -13 27t-45 15l-96 18q-54 10 -84 34.5t-30 73.5q0 55 42 81.5t114 26.5q36 0 76 -5v64h-293v80h550v-80h-160v-143q-88 13 -172 13q-58 0 -58 -37q0 -26 42 -34l105 -19q120 -23 120 -115q0 -54 -36.5 -87t-104.5 -41v-85q9 13 29 23.5t42 10.5q50 0 81.5 -30.5
t31.5 -83.5q0 -57 -32.5 -87.5t-84.5 -30.5q-17 0 -38 3l5 60q11 -3 24 -3q52 0 52 57q0 55 -51 55q-24 0 -38 -17.5t-16 -47.5v-159z" />
    <glyph glyph-name="dvNG_K_SSA" horiz-adv-x="516" 
d="M244 -274h-69v55q-19 -28 -68 -28q-54 0 -85 29.5t-31 76.5q0 77 84 104q-14 6 -24.5 22.5t-10.5 34.5q0 50 45 69q-38 17 -62 36l43 66q72 -55 161 -55q85 0 85 53q0 17 -12.5 26t-45.5 16l-96 18q-54 10 -84 34.5t-30 73.5q0 55 42 81.5t114 26.5q36 0 76 -5v64h-293
v80h550v-80h-160v-143q-96 13 -172 13q-58 0 -58 -37q0 -26 42 -34l105 -19q120 -23 120 -115q0 -52 -31 -83v-380h-77v182q-32 -13 -68 -13q-62 0 -107 28q-23 -5 -41 -20.5t-18 -40.5q0 -51 56 -51q41 0 51 40h69v-125zM104 20q0 -26 26 -40q29 11 29 40q0 31 -28 31
q-27 0 -27 -31zM450 267l-64 65l65 65l65 -64zM222 59h-7q10 -14 10 -37t-14 -40.5t-32 -22.5q21 -8 47 -8q43 0 76 22v94q-37 -8 -80 -8z" />
    <glyph glyph-name="dvNG_GA" horiz-adv-x="516" 
d="M78 -156q-34 0 -59 10l11 70q25 -5 31 -5q48 0 48 38v122q-47 16 -86 46l43 66q72 -55 161 -55q85 0 85 53q0 18 -13 27t-45 15l-96 18q-54 10 -84 34.5t-30 73.5q0 55 42 81.5t114 26.5q36 0 76 -5v64h-293v80h550v-80h-160v-143q-96 13 -172 13q-58 0 -58 -37
q0 -26 42 -34l105 -19q120 -23 120 -115q0 -58 -41 -91v-372h-81v338q-32 -5 -62 -5q-12 0 -36 2v-115q0 -50 -30 -76t-82 -26zM450 267l-64 65l65 65l65 -64z" />
    <glyph glyph-name="dvNG_GHA" horiz-adv-x="516" 
d="M291 -131v196q-30 -6 -69 -6q-35 0 -64 7q-21 -19 -21 -41q0 -42 52 -42h32v-61h-29q-55 0 -55 -42q0 -45 63 -45q57 0 91 34zM450 267l-64 65l65 65l65 -64zM372 -274h-78v77q-37 -31 -109 -31q-61 0 -98 27.5t-37 76.5q0 62 62 80q-26 4 -43 21.5t-17 45.5q0 38 38 64
q-37 15 -67 38l43 66q72 -55 161 -55q85 0 85 53q0 18 -13 27t-45 15l-96 18q-54 10 -84 34.5t-30 73.5q0 55 42 81.5t114 26.5q36 0 76 -5v64h-293v80h550v-80h-160v-143q-96 13 -172 13q-58 0 -58 -37q0 -26 42 -34l105 -19q120 -23 120 -115q0 -57 -38 -90v-373z" />
    <glyph glyph-name="dvNG_MA" horiz-adv-x="516" 
d="M291 -274v162h-105v-68h-85q-16 21 -27.5 54.5t-12.5 59.5q23 10 45 15v131q-44 15 -83 45l43 66q72 -55 161 -55q85 0 85 53q0 18 -13 27t-45 15l-96 18q-54 10 -84 34.5t-30 73.5q0 55 42 81.5t114 26.5q36 0 76 -5v64h-293v80h550v-80h-160v-143q-96 13 -172 13
q-58 0 -58 -37q0 -26 42 -34l105 -19q120 -23 120 -115q0 -56 -39 -89v-374h-80zM450 267l-64 65l65 65l65 -64zM226 59q-14 0 -40 2v-105h105v109q-30 -6 -65 -6z" />
    <glyph glyph-name="dvNG_YA" horiz-adv-x="987" 
d="M35 69l50 67q64 -51 139 -51q88 0 88 59q0 23 -12.5 34.5t-48.5 17.5l-83 15q-113 19 -113 119q0 59 40 88t100 29q28 0 79 -6v83h-291v81h1021v-81h-90v-524h-93v94q-46 -46 -125 -46q-87 0 -142.5 49.5t-57.5 141.5q0 18 1 28q66 9 93 23.5t27 39.5q0 41 -107 41h-138
q-9 0 -80 1t-81 1q-60 0 -60 -42q0 -21 12 -31t42 -15l84 -15q122 -21 122 -126q0 -68 -50 -104t-134 -36q-114 0 -192 65zM705 126q69 0 116 51v347h-447v-91q50 11 162 11q170 0 170 -119q0 -41 -29.5 -72t-83.5 -42q3 -38 32 -61.5t80 -23.5zM420 233l-60 61l60 60
l61 -61z" />
    <glyph glyph-name="dvC_CA" horiz-adv-x="943" 
d="M277 165q83 0 145 62v7q0 42 18.5 71t37.5 41h-247q-61 -29 -61 -91q0 -44 28 -67t79 -23zM771 223v301h-788v81h977v-81h-90v-524h-94v141q-65 -60 -172 -60q-108 0 -156 67q-80 -68 -189 -68q-83 0 -135.5 41t-52.5 114q0 42 18.5 70.5t37.5 40.5h-120v81h675v-81h-99
q-62 -27 -62 -93q0 -43 29 -65.5t80 -22.5q81 0 141 58z" />
    <glyph glyph-name="dvC_CHA" horiz-adv-x="989" 
d="M524 190q0 -48 40 -72t102 -24q94 0 145.5 50.5t51.5 123.5q0 39 -13.5 64.5t-37.5 25.5q-18 0 -28 -13t-10 -33q0 -29 20 -65l-82 -28q-28 47 -28 96q0 41 23.5 72t61.5 43v94h-200q-39 -37 -39 -89q0 -33 23 -56.5t88 -30.5l-9 -78h-20q-40 0 -64 -20.5t-24 -59.5z
M1007 524h-152v-95q48 -15 75.5 -59.5t27.5 -106.5q0 -114 -84.5 -183.5t-204.5 -69.5q-89 0 -152 32t-85 91q-66 -57 -174 -57q-82 0 -134.5 43.5t-52.5 113.5q0 44 18.5 72t37.5 41h-120v81h323v-81h-101q-60 -28 -60 -93q0 -44 28.5 -68t79.5 -24q94 0 154 81
q21 58 85 83q-85 25 -85 111q0 51 35 88h-483v81h1024v-81z" />
    <glyph glyph-name="dvC_CH_VA" horiz-adv-x="994" 
d="M646 13q-44 0 -69.5 -23.5t-25.5 -67.5q0 -36 25.5 -59.5t72.5 -23.5q57 0 91 36.5t36 88.5v63q-51 -14 -130 -14zM670 96q94 0 145.5 49.5t51.5 122.5q0 39 -13.5 64.5t-37.5 25.5q-18 0 -28 -13t-10 -33q0 -29 20 -65l-82 -28q-28 47 -28 96q0 41 23.5 72t61.5 43v94
h-200q-39 -37 -39 -89q0 -33 23 -56.5t88 -30.5l-9 -78h-20q-40 0 -64 -20t-24 -58q0 -48 40 -72t102 -24zM1011 524h-152v-95q48 -15 75.5 -59.5t27.5 -106.5q0 -118 -97 -192v-345h-89v103q-14 -28 -51 -50t-91 -22q-86 0 -135 45.5t-49 114.5q0 87 71 129q-64 31 -86 92
q-74 -58 -176 -58q-83 0 -135.5 41t-52.5 114q0 42 18.5 70.5t37.5 40.5h-120v81h323v-81h-99q-61 -29 -61 -91q0 -44 28 -67t79 -23q89 0 156 73q22 62 87 87q-85 25 -85 111q0 51 35 88h-487v81h1028v-81z" />
    <glyph glyph-name="dvC_NA" horiz-adv-x="592" 
d="M238 -56l-74 -37q-57 36 -92 91l22 58l94 42q-53 11 -85 48.5t-32 90.5q0 72 56 109h-120v81h324v-81h-99q-62 -27 -62 -93q0 -43 29 -65.5t80 -22.5q81 0 141 58v301h-437v81h626v-81h-90v-524h-94v138q-17 -17 -48 -32l-174 -89z" />
    <glyph glyph-name="dvC_MA" horiz-adv-x="926" 
d="M754 0v252h-185v-96h-112q-83 -76 -198 -76q-83 0 -135.5 41t-52.5 114q0 42 18.5 70.5t37.5 40.5h-120v81h323v-81h-99q-61 -29 -61 -91q0 -44 28 -67t79 -23q81 0 144 60q-14 38 -19 78q35 15 67 20v201h100v-192h185v192h-771v81h960v-81h-89v-524h-100z" />
    <glyph glyph-name="dvC_YA" horiz-adv-x="944" 
d="M961 524h-90v-524h-99v133q-57 -52 -147 -52q-112 0 -173 70q-82 -71 -193 -71q-83 0 -135.5 41t-52.5 114q0 42 18.5 70.5t37.5 40.5h-120v81h323v-81h-99q-61 -29 -61 -91q0 -44 28 -67t79 -23q78 0 137 53q-16 45 -18 105q0 20 1 30q146 3 146 72q0 56 -37 99h-523v81
h978v-81zM637 165q78 0 135 55v304h-176q44 -46 44 -107q0 -50 -38 -85t-104 -40q4 -65 41.5 -96t97.5 -31z" />
    <glyph glyph-name="dvCH_YA" horiz-adv-x="1160" 
d="M1177 524h-90v-531h-93v74q-17 -22 -53 -35t-77 -13q-85 0 -138 49t-56 140v9.5v12v9.5q125 14 125 64q0 55 -133 55q-36 0 -93 -3q19 -41 19 -92q0 -114 -84.5 -183.5t-204.5 -69.5q-110 0 -178.5 48.5t-68.5 132.5q0 47 25 82t69 52q-85 25 -85 111q0 51 35 88h-113v81
h1194v-81zM154 190q0 -48 40 -72t102 -24q94 0 145.5 50.5t51.5 123.5q0 39 -13.5 64.5t-37.5 25.5q-18 0 -28 -13t-10 -33q0 -29 20 -65l-82 -28q-28 47 -28 96q0 52 36.5 86.5t89.5 34.5q31 0 54 -10q95 8 188 8q89 0 147 -32.5t58 -102.5q0 -41 -31 -72t-88 -41
q4 -39 30.5 -63.5t77.5 -24.5q43 0 74.5 19.5t43.5 44.5v362h-795q-39 -37 -39 -89q0 -33 23 -56.5t88 -30.5l-9 -78h-20q-40 0 -64 -20.5t-24 -59.5z" />
    <glyph glyph-name="dvCH_R_YA" horiz-adv-x="1160" 
d="M1177 524h-90v-531h-93v74q-17 -22 -53 -35t-77 -13q-85 0 -138 49t-56 140v9.5v12v9.5q125 14 125 64q0 55 -133 55q-36 0 -93 -3q19 -41 19 -92q0 -110 -79.5 -179t-194.5 -74l188 -171l-68 -68l-128 132l-127 -131l-68 67l186 171q-109 1 -177 49t-68 132q0 47 25 82
t69 52q-85 25 -85 111q0 51 35 88h-113v81h1194v-81zM154 190q0 -48 40 -72t102 -24q94 0 145.5 50.5t51.5 123.5q0 39 -13.5 64.5t-37.5 25.5q-18 0 -28 -13t-10 -33q0 -29 20 -65l-82 -28q-28 47 -28 96q0 52 36.5 86.5t89.5 34.5q31 0 54 -10q95 8 188 8q89 0 147 -32.5
t58 -102.5q0 -41 -31 -72t-88 -41q4 -39 30.5 -63.5t77.5 -24.5q43 0 74.5 19.5t43.5 44.5v362h-795q-39 -37 -39 -89q0 -33 23 -56.5t88 -30.5l-9 -78h-20q-40 0 -64 -20.5t-24 -59.5z" />
    <glyph glyph-name="dvCH_VA" horiz-adv-x="620" 
d="M272 13q-44 0 -69.5 -23.5t-25.5 -67.5q0 -36 25.5 -59.5t72.5 -23.5q57 0 91 36.5t36 88.5v63q-51 -14 -130 -14zM296 96q94 0 145.5 49.5t51.5 122.5q0 39 -13.5 64.5t-37.5 25.5q-18 0 -28 -13t-10 -33q0 -29 20 -65l-82 -28q-28 47 -28 96q0 41 23.5 72t61.5 43v94
h-200q-39 -37 -39 -89q0 -33 23 -56.5t88 -30.5l-9 -78h-20q-40 0 -64 -20t-24 -58q0 -48 40 -72t102 -24zM637 524h-152v-95q48 -15 75.5 -59.5t27.5 -106.5q0 -118 -97 -192v-345h-89v103q-14 -28 -51 -50t-91 -22q-86 0 -135 45.5t-49 114.5q0 87 71 129q-95 48 -95 147
q0 46 25.5 80.5t68.5 51.5q-85 25 -85 111q0 51 35 88h-113v81h654v-81z" />
    <glyph glyph-name="dvJ_KA" horiz-adv-x="1120" 
d="M282 329q18 -10 33 -40t15 -70q0 -77 -51.5 -117.5t-147.5 -40.5q-70 0 -129 17l16 77q52 -12 97 -12q113 0 113 90q0 63 -52 96h-78v80h382q45 27 105 27q24 0 52 -6l-7 -78q-14 2 -31 2q-44 0 -70 -23t-26 -68q0 -43 25 -67.5t71 -24.5q44 0 71 27t30 73v253h-717v81
h1155v-81h-347v-152q13 25 47 44.5t78 19.5q79 0 127 -45.5t48 -125.5q0 -85 -50.5 -131t-130.5 -46q-26 0 -50 4l5 81q15 -3 30 -3q44 0 70 24.5t26 68.5q0 43 -24.5 67.5t-68.5 24.5t-71.5 -29.5t-30.5 -77.5v-248h-91v151q-13 -25 -47.5 -43.5t-79.5 -18.5q-79 0 -127 46
t-48 126q0 37 11 68h-132z" />
    <glyph glyph-name="dvJ_JA" horiz-adv-x="881" 
d="M898 524h-90v-524h-100v333h-142q18 -10 33 -39.5t15 -69.5q0 -76 -51 -117t-143 -41q-71 0 -145 38q-52 -38 -143 -38q-76 0 -129 17l16 77q50 -12 97 -12q58 0 85 22t27 68q0 43 -18 66.5t-43 28.5h-68v81h609v110h-725v81h915v-81zM512 238q0 44 -19 67.5t-45 27.5
h-165q17 -10 32.5 -39.5t15.5 -69.5q0 -34 -11 -61q49 -15 84 -15q108 0 108 90z" />
    <glyph glyph-name="dvJx_JxA" horiz-adv-x="881" 
d="M808 0h-100v333h-142q18 -10 33 -39.5t15 -69.5q0 -76 -51 -117t-143 -41q-71 0 -145 38q-52 -38 -143 -38q-76 0 -129 17l16 77q50 -12 97 -12q58 0 85 22t27 68q0 43 -18 66.5t-43 28.5h-68v81h609v110h-725v81h915v-81h-90v-524zM320 163q49 -15 84 -15q108 0 108 90
q0 44 -19 67.5t-45 27.5h-165q17 -10 32.5 -39.5t15.5 -69.5q0 -34 -11 -61zM166 -108l-70 69l70 71l70 -69zM457 -108l-70 69l70 71l70 -69z" />
    <glyph glyph-name="dvJ_J_NYA" horiz-adv-x="987" 
d="M815 0v350h-204q52 -30 87 -76t35 -103q0 -62 -40 -104.5t-105 -42.5q-66 0 -110 42l-2 -2q4 -5 21 -35.5l36 -66t21 -38.5l-94 -38l-107 262l81 34q56 -82 130 -82q36 0 56.5 21t20.5 54q0 86 -141 175h-218q17 -11 32 -40.5t15 -69.5q0 -77 -51.5 -117.5t-146.5 -40.5
q-71 0 -129 17l16 77q50 -12 97 -12q112 0 112 91q0 62 -52 95h-78v80h718v94h-832v81h1021v-81h-89v-524h-100z" />
    <glyph glyph-name="dvJ_J_YA" horiz-adv-x="1238" 
d="M614 333h-48q17 -10 32.5 -39.5t15.5 -69.5q0 -76 -51 -117t-143 -41q-73 0 -145 38q-52 -38 -144 -38q-75 0 -128 17l16 77q50 -12 96 -12q113 0 113 90q0 43 -18 66.5t-43 28.5h-69v81h496q120 0 186 -49q57 17 57 60q0 56 -37 99h-817v81h1272v-81h-90v-524h-99v133
q-57 -52 -147 -52q-100 0 -163.5 60.5t-65.5 181.5v1q-36 9 -76 9zM511 238q0 43 -18 66.5t-43 28.5h-168q18 -10 33 -39.5t15 -69.5q0 -34 -11 -61q49 -15 85 -15q107 0 107 90zM931 165q78 0 135 55v304h-176q44 -46 44 -107q0 -50 -38 -85t-104 -40q4 -65 41.5 -96
t97.5 -31z" />
    <glyph glyph-name="dvJ_J_VA" horiz-adv-x="1196" 
d="M508 238q0 44 -19 67.5t-44 27.5h-165q17 -10 32 -39.5t15 -69.5q0 -38 -11 -61q49 -15 85 -15q107 0 107 90zM1213 524h-89v-524h-96v158q-13 -27 -51 -50.5t-94 -23.5q-84 0 -137 52t-53 131q0 33 10 66h-140q17 -10 32.5 -39.5t15.5 -69.5q0 -76 -51 -117t-143 -41
q-71 0 -145 38q-52 -38 -143 -38q-76 0 -129 17l16 77q50 -12 97 -12q112 0 112 90q0 43 -18 66.5t-43 28.5h-69v81h670q49 34 118 34q40 0 81 -13l-18 -75q-23 7 -47 7q-46 0 -76.5 -25.5t-30.5 -74.5q0 -48 29.5 -75.5t77.5 -27.5q59 0 91 36.5t34 90.5v233h-1040v81h1229
v-81z" />
    <glyph glyph-name="dvJ_JHA" horiz-adv-x="1053" 
d="M282 329q18 -10 33 -40t15 -70q0 -77 -51.5 -117.5t-147.5 -40.5q-70 0 -129 17l16 77q52 -12 97 -12q113 0 113 90q0 63 -52 96h-78v80h342q39 48 118 48q36 0 74 -6v73h-649v81h1087v-81h-90v-524h-99v195q-26 -8 -53 -8q-42 0 -69 16q11 -22 11 -46q0 -58 -40.5 -95.5
t-107.5 -37.5q-78 0 -115 44l66 -137l-87 -34l-91 238l87 33q43 -69 119 -69q72 0 72 56q0 50 -54 57l-91 11q-48 6 -76.5 33.5t-32.5 72.5h-137zM586 382q-69 0 -69 -40q0 -37 46 -42l90 -13q16 -2 60.5 -11t74.5 -9q59 0 93 19v238h-151v-151q-110 9 -144 9z" />
    <glyph glyph-name="dvJ_NY_YA" horiz-adv-x="989" 
d="M1006 524h-90v-524h-100v133q-55 -52 -146 -52q-99 0 -161.5 58t-67.5 175q-37 36 -120 36h-72q52 -30 87.5 -76t35.5 -103q0 -62 -40 -104.5t-105 -42.5q-68 0 -110 42l-2 -2q18 -22 77 -140l-93 -38l-108 262l82 34q56 -82 130 -82q36 0 56.5 21t20.5 54q0 88 -151 181
l22 74h174q127 0 188 -70q75 16 75 65q0 56 -37 99h-568v81h1023v-81zM682 165q79 0 134 55v304h-175q44 -46 44 -107q0 -50 -38 -85t-104 -40q4 -65 41.5 -96t97.5 -31z" />
    <glyph glyph-name="dvJ_TTA" horiz-adv-x="829" 
d="M371 329h-89q17 -10 32.5 -40t15.5 -70q0 -77 -51.5 -117.5t-147.5 -40.5q-70 0 -129 17l16 77q52 -12 97 -12q113 0 113 90q0 63 -52 96h-78v80h271q85 0 143 -21q50 30 123 35q3 0 12 0.5t12 0.5v100h-676v81h863v-81h-88v-176q-15 1 -51 1q-83 0 -136 -30.5t-53 -99.5
q0 -65 39.5 -96.5t108.5 -31.5q60 0 118 22l16 -80q-69 -26 -155 -26q-96 0 -161.5 57.5t-65.5 154.5q0 57 26 104q-32 6 -73 6z" />
    <glyph glyph-name="dvJ_DDA" horiz-adv-x="828" 
d="M399 72l46 70q69 -57 151 -57q90 0 90 59q0 23 -13.5 35t-50.5 19l-87 16q-116 23 -116 115h-137q18 -10 33 -40t15 -70q0 -77 -51.5 -117.5t-147.5 -40.5q-70 0 -129 17l16 77q52 -12 97 -12q113 0 113 90q0 63 -52 96h-78v80h347q38 44 115 44q48 0 88 -6v77h-665v81
h862v-81h-97v-158q-123 14 -173 14q-60 0 -60 -45q0 -21 13 -31.5t43 -15.5l89 -16q125 -23 125 -127q0 -68 -51.5 -104.5t-135.5 -36.5q-121 0 -199 68z" />
    <glyph glyph-name="dvJ_TA" horiz-adv-x="903" 
d="M920 524h-89v-524h-100v314q-53 8 -107 8q-50 0 -82 -29t-32 -84q0 -81 61 -174l-75 -45q-36 41 -61 100t-25 122t31 111q-30 6 -70 6h-89q17 -10 32.5 -40t15.5 -70q0 -77 -51.5 -117.5t-147.5 -40.5q-70 0 -129 17l16 77q52 -12 97 -12q113 0 113 90q0 63 -52 96h-78
v80h271q89 0 146 -22q46 23 106 23q57 0 110 -12v126h-748v81h937v-81z" />
    <glyph glyph-name="dvJ_DA" horiz-adv-x="892" 
d="M732 124q-13 -24 -47 -40.5t-80 -16.5q-83 0 -134.5 51t-51.5 131q0 40 14 76q-38 4 -62 4h-89q17 -10 32.5 -40t15.5 -70q0 -77 -51.5 -117.5t-147.5 -40.5q-70 0 -129 17l16 77q52 -12 97 -12q113 0 113 90q0 63 -52 96h-78v80h271q67 0 119 -13q55 41 142 41
q57 0 90 -5v92h-737v81h926v-81h-90v-180q-115 10 -176 10q-60 0 -90.5 -28.5t-30.5 -75.5q0 -48 28 -75.5t77 -27.5q44 0 72.5 24.5t32.5 58.5h92v-230h-92v124z" />
    <glyph glyph-name="dvJ_NA" horiz-adv-x="748" 
d="M575 196l-101 -55l34 -73l-73 -34q-57 38 -89 89l22 55l205 100q-74 65 -200 65h-89q17 -10 32 -40t15 -70q0 -77 -51.5 -117.5t-146.5 -40.5q-71 0 -129 17l16 77q50 -12 97 -12q112 0 112 90q0 63 -52 96h-78v80h258q146 0 218 -57v158h-592v81h782v-81h-91v-524h-99
v196z" />
    <glyph glyph-name="dvJ_BA" horiz-adv-x="916" 
d="M282 329q18 -10 33 -40t15 -70q0 -77 -51.5 -117.5t-147.5 -40.5q-70 0 -129 17l16 77q52 -12 97 -12q113 0 113 90q0 63 -52 96h-78v80h375q55 41 131 41q42 0 80 -12l-12 -74q-23 6 -60 6q-32 0 -55 -13l165 -151q19 29 21 69v249h-760v81h949v-81h-89v-524h-96v152
q-11 -26 -50.5 -49.5t-95.5 -23.5q-85 0 -139.5 53t-54.5 132q0 33 10 65h-135zM617 156q35 0 60 12l-161 149q-12 -23 -12 -53q0 -49 32 -78.5t81 -29.5z" />
    <glyph glyph-name="dvJ_MA" horiz-adv-x="939" 
d="M282 329q18 -10 33 -40t15 -70q0 -77 -51.5 -117.5t-147.5 -40.5q-70 0 -129 17l16 77q52 -12 97 -12q113 0 113 90q0 63 -52 96h-78v80h384v115h100v-192h185v192h-784v81h973v-81h-89v-524h-100v252h-185v-96h-115q-43 68 -52 147q35 15 67 20v6h-200z" />
    <glyph glyph-name="dvJ_YA" horiz-adv-x="963" 
d="M980 524h-89v-524h-100v133q-55 -52 -146 -52q-101 0 -164.5 60.5t-64.5 181.5v14q-24 3 -53 3h-81q17 -10 32.5 -39.5t15.5 -69.5q0 -77 -51.5 -117.5t-147.5 -40.5q-75 0 -129 17l16 77q52 -12 97 -12q113 0 113 90q0 65 -52 95h-78v81h264q99 0 163 -49q38 18 38 53
q0 53 -37 99h-543v81h997v-81zM657 165q79 0 134 55v304h-175q43 -45 43 -107q0 -51 -38 -85.5t-103 -39.5q4 -65 41 -96t98 -31z" />
    <glyph glyph-name="dvJx_YA" horiz-adv-x="945" 
d="M363 340h-81q17 -10 32.5 -39.5t15.5 -69.5q0 -77 -51.5 -117.5t-147.5 -40.5q-75 0 -129 17l16 77q52 -12 97 -12q113 0 113 90q0 65 -52 95h-78v81h264q96 0 155 -43q27 17 27 47q0 56 -37 99h-524v81h979v-81h-90v-524h-99v133q-57 -52 -147 -52q-100 0 -163.5 60.5
t-65.5 181.5v16q-10 1 -34 1zM638 165q78 0 135 55v304h-176q44 -46 44 -107q0 -50 -38 -85t-104 -40q4 -65 41.5 -96t97.5 -31zM304 -82l-70 69l70 71l70 -69z" />
    <glyph glyph-name="dvJ_VA" horiz-adv-x="918" 
d="M282 329q18 -10 33 -40t15 -70q0 -77 -51.5 -117.5t-147.5 -40.5q-70 0 -129 17l16 77q52 -12 97 -12q113 0 113 90q0 63 -52 96h-78v80h381q51 39 125 39q40 0 81 -13l-18 -75q-23 7 -47 7q-46 0 -76.5 -25.5t-30.5 -74.5q0 -48 29.5 -75.5t77.5 -27.5q59 0 91 36.5
t34 90.5v233h-762v81h951v-81h-89v-524h-96v158q-13 -27 -51 -50.5t-94 -23.5q-84 0 -137 52t-53 131q0 33 9 62h-141z" />
    <glyph glyph-name="dvJH_NA" horiz-adv-x="762" 
d="M216 382q-69 0 -69 -40q0 -37 46 -42l90 -13q19 -3 46 -9.5t57.5 -10t79.5 -3.5q82 0 124 25v235h-230v-151q-110 9 -144 9zM252 24q-78 0 -115 44l66 -137l-87 -34l-91 238l87 33q48 -69 119 -69q72 0 72 56q0 50 -54 57l-91 11q-52 7 -81 38t-29 81q0 54 39.5 84.5
t100.5 30.5q36 0 74 -6v73h-279v81h796v-81h-90v-524h-99v91l-88 -68l44 -66l-65 -47q-63 29 -103 74l12 58l200 141v23q-43 -16 -102 -16q-58 0 -99 13q11 -22 11 -46q0 -58 -40.5 -95.5t-107.5 -37.5z" />
    <glyph glyph-name="dvJH_MA" horiz-adv-x="995" 
d="M823 524h-185v-192h185v192zM823 0v252h-185v-96h-115q-2 3 -5.5 9t-5.5 9q-25 -10 -58 -10q-38 0 -62 12q8 -14 8 -31q-5 -57 -46 -89t-102 -32q-78 0 -115 44l66 -137l-87 -34l-91 238l87 33q48 -69 119 -69q72 0 72 56q0 50 -54 57l-91 11q-52 7 -81 38t-29 81
q0 54 39.5 84.5t100.5 30.5q36 0 74 -6v73h-279v81h1029v-81h-89v-524h-100zM538 524h-178v-151q-110 9 -144 9q-69 0 -69 -40q0 -37 46 -42l92 -13q31 -4 73.5 -24.5t77.5 -20.5q22 0 46 7q-8 32 -11 54q35 15 67 20v201z" />
    <glyph glyph-name="dvJH_YA" horiz-adv-x="1032" 
d="M439 242q29 0 53 9q-8 35 -8 72q0 20 1 30q146 3 146 72q0 56 -37 99h-234v-151q-110 9 -144 9q-69 0 -69 -40q0 -37 46 -42l92 -13q32 -4 75.5 -24.5t78.5 -20.5zM1049 524h-90v-524h-99v133q-57 -52 -147 -52q-132 0 -191 95q-32 -14 -66 -14q-32 0 -64 13q8 -16 8 -32
q-6 -56 -47 -87.5t-101 -31.5q-78 0 -115 44l66 -137l-87 -34l-91 238l87 33q3 -6 12 -15q16 -22 44.5 -38t62.5 -16q72 0 72 56q0 50 -54 57l-91 11q-52 7 -81 38t-29 81q0 54 39.5 84.5t100.5 30.5q36 0 74 -6v73h-279v81h1066v-81zM725 165q78 0 135 55v304h-176
q44 -46 44 -107q0 -50 -38 -85t-104 -40q4 -65 41.5 -96t97.5 -31z" />
    <glyph glyph-name="dvNY_CA" horiz-adv-x="1020" 
d="M90 428q30 6 73 6q72 0 117.5 -29.5t60.5 -79.5q38 -47 105 -47q37 0 65 14q18 38 44 54h-120v81h324v-81h-99q-62 -27 -62 -93q0 -43 29 -65.5t80 -22.5q81 0 141 58v301h-865v81h1054v-81h-90v-524h-94v141q-65 -60 -172 -60q-71 0 -119.5 32t-59.5 89q-24 -8 -47 -8
q-70 0 -104 42q-7 -69 -60 -111t-137 -42q-90 0 -146 20l15 81q70 -18 110 -18q118 0 118 98q0 90 -111 90q-27 0 -44 -4z" />
    <glyph glyph-name="dvNY_C_YA" horiz-adv-x="1369" 
d="M90 428q30 6 73 6q72 0 117.5 -29.5t60.5 -79.5q38 -47 105 -47q37 0 65 14q14 33 44 54h-120v81h323v-81h-99q-61 -29 -61 -91q0 -44 28 -67t79 -23q77 0 134 51q-16 45 -18 107q0 20 1 30q146 3 146 72q0 56 -37 99h-948v81h1403v-81h-90v-524h-99v133
q-57 -52 -147 -52q-111 0 -171 69q-83 -70 -192 -70q-73 0 -123 32t-62 90q-24 -9 -53 -9q-65 0 -97 44q-7 -69 -60 -111.5t-138 -42.5q-90 0 -146 20l15 81q70 -18 110 -18q118 0 118 98q0 90 -111 90q-27 0 -44 -4zM1062 165q78 0 135 55v304h-176q44 -46 44 -107
q0 -50 -38 -85t-104 -40q4 -65 41.5 -96t97.5 -31z" />
    <glyph glyph-name="dvNY_CHA" horiz-adv-x="1014" 
d="M97 348l-7 78q40 6 74 6q68 0 112.5 -26.5t62.5 -72.5q29 -49 94 -49q31 0 63 15q21 18 44 26q-85 25 -85 111q0 51 35 88h-507v81h1048v-81h-152v-95q48 -15 75.5 -59.5t27.5 -106.5q0 -114 -84.5 -183.5t-204.5 -69.5q-110 0 -178.5 48.5t-68.5 132.5v12h-7
q-53 0 -87 34q-5 -70 -58 -113.5t-139 -43.5q-89 0 -147 20l16 82q67 -19 109 -19q119 0 119 98q0 45 -29 68t-82 23q-23 0 -44 -4zM548 190q0 -48 40 -72t102 -24q94 0 145.5 50.5t51.5 123.5q0 39 -13.5 64.5t-37.5 25.5q-18 0 -28 -13t-10 -33q0 -29 20 -65l-82 -28
q-28 47 -28 96q0 41 23.5 72t61.5 43v94h-200q-39 -37 -39 -89q0 -33 23 -56.5t88 -30.5l-9 -78h-20q-40 0 -64 -20.5t-24 -59.5z" />
    <glyph glyph-name="dvNY_JA" horiz-adv-x="1021" 
d="M427 78l16 77q50 -12 97 -12q58 0 85 22t27 68q0 63 -52 96h-29q-9 -45 -43 -73t-89 -28q-51 0 -86 28q0 -7 -1 -10q-5 -72 -58 -117.5t-140 -45.5q-90 0 -146 20l15 81q70 -18 110 -18q118 0 118 98q0 90 -111 90q-27 0 -44 -4l-6 78q30 6 73 6q111 0 160 -69
q35 -52 105 -52q92 0 116 96h305v115h-866v81h1055v-81h-89v-524h-100v329h-142q17 -10 32.5 -40t15.5 -70q0 -77 -52 -117.5t-147 -40.5q-71 0 -129 17z" />
    <glyph glyph-name="dvNY_J_YA" horiz-adv-x="1388" 
d="M90 428q30 6 73 6q111 0 160 -69q37 -52 105 -52q75 0 110 83q1 2 3 6.5t3 6.5h209q102 0 159 -49q76 16 76 65q0 55 -38 99h-967v81h1422v-81h-89v-524h-100v133q-57 -52 -146 -52q-101 0 -164.5 60.5t-64.5 181.5q-23 6 -53 6h-81q17 -10 32.5 -40t15.5 -70
q0 -77 -52 -117.5t-147 -40.5q-71 0 -129 17l16 77q50 -12 97 -12q58 0 85 22t27 68q0 63 -52 96h-29q-9 -44 -46 -72.5t-92 -28.5q-48 0 -80 27q-2 -76 -55.5 -124t-143.5 -48t-146 20l15 81q70 -18 110 -18q118 0 118 98q0 90 -111 90q-27 0 -44 -4zM1081 165q78 0 135 55
v304h-176q44 -44 44 -107q0 -50 -38 -85t-103 -40q4 -65 41 -96t97 -31z" />
    <glyph glyph-name="dvNY_SHA" horiz-adv-x="1046" 
d="M419 300q27 0 44 14l1 -1v1q10 -1 62 -1q72 1 112.5 28.5t40.5 93.5q0 92 -57 92q-23 0 -35 -15t-12 -39q0 -23 7 -45l-80 -17q-15 30 -15 68q0 60 38 96t97 36q74 0 114 -43t40 -127q0 -93 -54 -143.5t-150 -53.5l153 -205l-82 -54l-158 228l-20 12q-18 -4 -32 -4
q-50 0 -80 25q-2 -73 -55.5 -119.5t-142.5 -46.5t-147 20l16 82q67 -19 109 -19q119 0 119 98q0 45 -29 68t-82 23q-23 0 -44 -4l-7 78q40 6 74 6q132 0 173 -94q28 -38 82 -38zM431 524h-448v81h448v-81zM878 0v524h-65v81h250v-81h-89v-524h-96z" />
    <glyph glyph-name="dvTT_TTA" horiz-adv-x="441" 
d="M26 -100q0 75 56.5 119.5t154.5 44.5q3 0 18 -0.5t18 -0.5v47q-5 -1 -32 -1q-97 0 -156 47.5t-59 127.5q0 75 56.5 119t154.5 44q3 0 16.5 -0.5t16.5 -0.5v78h-287v81h475v-81h-88v-154q-58 4 -104 4q-141 0 -141 -89q0 -45 32.5 -70t99.5 -25q53 0 133 22l14 -82
q-28 -8 -37 -9v-134q-60 4 -102 4q-140 0 -140 -89q0 -45 32.5 -70t99.5 -25q53 0 133 22l14 -82q-74 -21 -163 -21q-97 0 -156 47.5t-59 126.5z" />
    <glyph glyph-name="dvTT_TT_YA" horiz-adv-x="967" 
d="M984 524h-90v-524h-92v83q-45 -50 -127 -50q-86 0 -141 51t-57 141v28q122 18 122 69q0 26 -17.5 38.5t-69.5 12.5q-86 0 -142 -3v0h-1q-58 4 -103 4q-141 0 -141 -89q0 -45 32.5 -70t99.5 -25q53 0 133 22l14 -82q-28 -8 -37 -9v-134q-60 4 -102 4q-140 0 -140 -89
q0 -45 32.5 -70t99.5 -25q53 0 133 22l14 -82q-74 -21 -163 -21q-97 0 -156 47.5t-59 126.5q0 75 56.5 119.5t154.5 44.5q3 0 18 -0.5t18 -0.5v47q-5 -1 -32 -1q-97 0 -156 47.5t-59 127.5q0 75 56.5 119t154.5 44q3 0 16.5 -0.5t16.5 -0.5v78h-287v81h1001v-81zM684 111
q40 0 72.5 17t45.5 42v354h-432v-81q60 6 150 6q81 0 126 -32.5t45 -94.5q0 -42 -29.5 -74.5t-87.5 -46.5q4 -41 32 -65.5t78 -24.5z" />
    <glyph glyph-name="dvTT_TTHA" horiz-adv-x="462" 
d="M314 95q0 -21 -9 -38q69 -16 109 -53t40 -110q0 -83 -61.5 -125.5t-154.5 -42.5q-91 0 -149 41.5t-58 125.5q0 66 39 103t110 57q19 6 30 14q13 9 13 32v12q-89 5 -141.5 51.5t-52.5 121.5q0 76 54.5 119.5t152.5 43.5q3 0 17 -0.5t17 -0.5v78h-287v81h496v-81h-109v-154
q-58 4 -104 4q-69 0 -103.5 -20t-34.5 -68q0 -94 129 -94q53 0 133 22l14 -82q-39 -12 -90 -18v-19zM362 -104q0 49 -26.5 70t-76.5 34q-11 -8 -37 -13q-53 -14 -74.5 -33t-21.5 -61q0 -43 30.5 -68t86.5 -25q119 0 119 96z" />
    <glyph glyph-name="dvTT_YA" horiz-adv-x="938" 
d="M955 524h-89v-523h-93v66q-17 -22 -53 -35t-77 -13q-85 0 -138.5 49t-56.5 141q0 20 1 30q65 9 92 24t27 40q0 48 -99 48q-50 0 -100 -2v-1q-15 1 -51 1q-83 0 -136 -30.5t-53 -99.5q0 -65 39.5 -96.5t108.5 -31.5q60 0 118 22l16 -80q-69 -26 -155 -26
q-96 0 -161.5 57.5t-65.5 154.5q0 93 61 145.5t156 58.5q2 0 12 0.5t12 0.5v100h-287v81h972v-81zM654 97q42 0 73.5 18t45.5 44v365h-404v-109q50 8 119 8q78 0 125 -30.5t47 -93.5q0 -40 -30.5 -71.5t-83.5 -41.5q4 -39 31 -64t77 -25z" />
    <glyph glyph-name="dvTT_VA" horiz-adv-x="442" 
d="M206 -247q-79 0 -124 45.5t-45 115.5q0 92 82 132q-90 58 -90 173q0 93 61 145.5t156 58.5q2 0 12 0.5t12 0.5v100h-287v81h474v-81h-88v-176q-15 1 -51 1q-83 0 -136 -30.5t-53 -99.5q0 -65 39.5 -96.5t108.5 -31.5q60 0 118 22l16 -80q-7 -3 -21 -7v-300h-82v69
q-36 -42 -102 -42zM223 -166q36 0 57 17.5t28 36.5v121q-32 -2 -52 -2q-15 0 -23 1q-46 -1 -72 -25.5t-26 -64.5q0 -41 23.5 -62.5t64.5 -21.5z" />
    <glyph glyph-name="dvTTH_TTHA" horiz-adv-x="494" 
d="M368 -103q0 49 -26 70.5t-80 34.5q-12 -8 -35 -13q-52 -13 -74.5 -33t-22.5 -62q0 -43 31 -68.5t86 -25.5q60 0 90.5 26t30.5 71zM318 91q-2 -17 -9 -32q151 -33 151 -163q0 -83 -62 -126.5t-155 -43.5q-91 0 -149.5 42.5t-58.5 125.5q0 67 39.5 104.5t110.5 56.5
q41 14 42 37q1 2 1 18q-9 0 -25 2q-75 8 -121.5 50t-46.5 116q0 121 150 161q23 8 32.5 17.5t9.5 29.5v38h-244v81h528v-81h-192v-43q0 -20 -10 -38q151 -34 151 -163q0 -65 -38.5 -106t-102.5 -56q0 -26 -1 -27zM368 281q0 48 -27.5 69.5t-78.5 34.5q-10 -7 -36 -12
q-51 -13 -73.5 -33t-22.5 -62q0 -43 31 -69t86 -26q60 0 90.5 26t30.5 72z" />
    <glyph glyph-name="dvTTH_TTH_YA" horiz-adv-x="1012" 
d="M1029 524h-90v-522h-93v82q-47 -51 -130 -51q-85 0 -140 50t-59 138v32q129 22 129 71q0 27 -20 40t-77 13q-69 0 -113 -9q24 -35 24 -88q0 -65 -38.5 -106t-102.5 -56q0 -26 -1 -27q-2 -17 -9 -32q151 -33 151 -163q0 -83 -62 -126.5t-155 -43.5q-91 0 -149.5 42.5
t-58.5 125.5q0 67 39.5 104.5t110.5 56.5q41 14 42 37q1 2 1 18q-9 0 -25 2q-75 8 -121.5 50t-46.5 116q0 121 150 161q23 8 32.5 17.5t9.5 29.5v38h-244v81h1046v-81zM368 -103q0 49 -26 70.5t-80 34.5q-12 -8 -35 -13q-52 -13 -74.5 -33t-22.5 -62q0 -43 31 -68.5
t86 -25.5q60 0 90.5 26t30.5 71zM726 112q41 0 74.5 18t45.5 43v351h-527v-43q0 -20 -10 -38q29 -7 51 -16q81 22 185 22q192 0 192 -124q0 -43 -31.5 -75.5t-91.5 -48.5q10 -89 112 -89zM368 281q0 48 -27.5 69.5t-78.5 34.5q-10 -7 -36 -12q-51 -13 -73.5 -33t-22.5 -62
q0 -43 31 -69t86 -26q60 0 90.5 26t30.5 72z" />
    <glyph glyph-name="dvTTH_YA" horiz-adv-x="1053" 
d="M984 0h-92v87q-19 -22 -55.5 -36.5t-78.5 -14.5q-82 0 -136.5 51t-58.5 142v9v11.5v9.5q69 12 97 26t28 39q0 23 -27.5 33.5t-102.5 10.5q-64 0 -133 -11q66 -57 66 -143q0 -102 -68.5 -158t-168.5 -56q-98 0 -161.5 51t-63.5 154q0 78 49 127.5t113 67.5q31 9 42.5 21.5
t11.5 34.5v68h-262v81h1087v-81h-86v-524zM769 113q81 0 123 62v349h-547v-95q0 -8 -1 -11q113 24 240 24q193 0 193 -123q0 -89 -116 -114q1 -37 29.5 -64.5t78.5 -27.5zM399 212q0 88 -103 135q-22 -13 -50 -19q-56 -12 -89 -43t-33 -80q0 -56 32.5 -91t95.5 -35
q67 0 107 38t40 95z" />
    <glyph glyph-name="dvDD_DDA" horiz-adv-x="449" 
d="M223 -274q-119 0 -203 65l43 66q71 -55 160 -55q86 0 86 54q0 17 -13.5 26.5t-45.5 14.5l-95 17q-110 21 -110 106q0 40 33 70q-32 15 -58 35l43 66q71 -55 160 -55q86 0 86 53q0 18 -13 27t-46 15l-96 18q-114 21 -114 108q0 55 42 81.5t114 26.5q37 0 77 -5v64h-290v80
h483v-80h-96v-143q-96 13 -173 13q-58 0 -58 -37q0 -27 43 -34l104 -19q120 -23 120 -115q0 -63 -47.5 -96.5t-135.5 -33.5q-38 0 -70 7q-20 -18 -20 -40q0 -28 49 -37l104 -19q120 -21 120 -114q0 -63 -47.5 -96.5t-135.5 -33.5z" />
    <glyph glyph-name="dvDD_DD_YA" horiz-adv-x="968" 
d="M223 -274q-119 0 -203 65l43 66q71 -55 160 -55q86 0 86 54q0 17 -13.5 26.5t-45.5 14.5l-95 17q-110 21 -110 106q0 40 34 70q-33 13 -59 35l43 66q71 -55 160 -55q86 0 86 53q0 18 -13 27t-46 15l-96 18q-114 21 -114 108q0 55 42 81.5t114 26.5q37 0 77 -5v64h-290v81
h1002v-81h-90v-524h-93v99q-43 -50 -127 -50q-87 0 -141 52t-55 143v27q122 18 122 69q0 26 -19.5 40t-69.5 14q-45 0 -145 -8q-94 8 -170 8q-58 0 -58 -37q0 -27 43 -34l104 -19q120 -23 120 -115q0 -63 -47.5 -96.5t-135.5 -33.5q-32 0 -69 7q-21 -16 -21 -40
q0 -28 49 -37l104 -19q120 -21 120 -114q0 -63 -47.5 -96.5t-135.5 -33.5zM802 524h-432v-68q88 8 153 8q170 0 170 -123q0 -42 -29.5 -75t-87.5 -48q4 -41 31 -66t77 -25q40 0 72.5 17.5t45.5 41.5v338z" />
    <glyph glyph-name="dvDD_DDHA" horiz-adv-x="449" 
d="M223 59h-3q-45 -14 -71.5 -48t-26.5 -85q0 -57 36 -90.5t87 -33.5q45 0 66.5 23.5t21.5 52.5q0 18 -11 29.5t-27 11.5q-31 0 -40 -31l-62 32q10 35 39.5 54t69.5 19q46 0 80 -30.5t34 -82.5q0 -66 -46 -110t-128 -44q-90 0 -151 55.5t-61 142.5q0 99 78 154
q-50 18 -88 47l43 66q71 -55 160 -55q86 0 86 53q0 18 -13 27t-46 15l-96 18q-114 21 -114 108q0 55 42 81.5t114 26.5q37 0 77 -5v64h-290v80h483v-80h-96v-143q-96 13 -173 13q-58 0 -58 -37q0 -27 43 -34l104 -19q120 -23 120 -115q0 -63 -47.5 -96.5t-135.5 -33.5z" />
    <glyph glyph-name="dvDD_YA" horiz-adv-x="966" 
d="M24 69l50 67q64 -51 139 -51q88 0 88 59q0 23 -12.5 34.5t-48.5 17.5l-84 15q-112 19 -112 119q0 59 40 88t100 29q28 0 79 -6v83h-280v81h1000v-81h-90v-524h-93v94q-46 -46 -125 -46q-87 0 -142.5 50t-57.5 142q0 18 1 27q66 9 93 23.5t27 39.5q0 41 -107 41h-138
q-9 0 -75 1t-77 1q-59 0 -59 -42q0 -21 12 -31t42 -15l84 -15q122 -21 122 -126q0 -68 -50.5 -104t-133.5 -36q-114 0 -192 65zM684 126q69 0 116 51v347h-437v-91q48 11 152 11q170 0 170 -119q0 -41 -29.5 -72t-83.5 -42q3 -38 32 -61.5t80 -23.5z" />
    <glyph glyph-name="dvDDH_DDHA" horiz-adv-x="485" 
d="M264 -274q-101 0 -166.5 53.5t-65.5 150.5q0 67 33 108t79 59q-51 17 -82.5 60.5t-31.5 109.5q0 89 59.5 139t148.5 50q62 0 72 -2v70h-327v81h517v-81h-91v-150q-66 7 -123 7q-157 0 -157 -118q0 -62 41 -95t97 -33q50 0 71 19.5t21 46.5q0 18 -10 29t-26 11
q-31 0 -44 -34l-63 32q10 37 41 58t72 21q47 0 82.5 -30.5t35.5 -82.5q0 -67 -48.5 -108t-134.5 -42q-60 0 -96 -32.5t-36 -93.5q0 -64 38.5 -94t96.5 -30q50 0 73 21.5t23 52.5q0 19 -11.5 30.5t-28.5 11.5q-30 0 -44 -35l-64 31q10 38 41 59t72 21q50 0 86.5 -30t36.5 -84
q0 -70 -50 -113.5t-137 -43.5z" />
    <glyph glyph-name="dvDDH_YA" horiz-adv-x="1017" 
d="M308 429v95h-325v81h1051v-81h-90v-533h-92v82q-19 -23 -54 -37.5t-76 -14.5q-84 0 -136 46.5t-56 130.5q-3 18 -3 41q69 11 94.5 24.5t25.5 39.5q0 47 -106 47h-256q-159 0 -159 -123q0 -65 42 -103.5t97 -38.5q51 0 75 22t24 51q0 19 -10.5 31t-27.5 12q-33 0 -45 -35
l-63 32q11 39 42 59.5t74 20.5q46 0 81 -33t35 -87q0 -67 -49.5 -110t-132.5 -43q-103 0 -172.5 63t-69.5 163q0 92 61 145t151 53h70zM852 524h-444v-110q61 9 159 9q77 0 123 -31t46 -92q0 -41 -29.5 -73t-83.5 -42q8 -86 109 -86q83 0 120 57v368z" />
    <glyph glyph-name="dvDDH_R_YA" horiz-adv-x="1010" 
d="M308 429v95h-325v81h1044v-81h-90v-533h-92v82q-19 -23 -54 -37.5t-76 -14.5q-84 0 -136 46.5t-56 130.5q-3 18 -3 41q69 11 94.5 24.5t25.5 39.5q0 47 -106 47h-249q-159 0 -159 -123q0 -65 42 -103.5t97 -38.5q51 0 75 22t24 51q0 19 -10.5 31t-27.5 12q-33 0 -45 -35
l-63 32q11 39 42 59.5t74 20.5q46 0 81 -33t35 -87q0 -67 -49 -110t-130 -43l187 -171l-68 -68l-128 132l-127 -131l-68 67l187 171q-98 5 -163 67.5t-65 158.5q0 92 61 145t151 53h70zM845 524h-437v-110q61 9 152 9q77 0 123 -31t46 -92q0 -41 -29.5 -73t-83.5 -42
q8 -86 109 -86q83 0 120 57v368z" />
    <glyph glyph-name="dvNN_TTA" horiz-adv-x="904" 
d="M230 141q-173 0 -173 185v198h-74v81h937v-81h-88v-176q-15 1 -51 1q-83 0 -136 -30.5t-53 -99.5q0 -65 39.5 -96.5t108.5 -31.5q60 0 118 22l16 -80q-69 -26 -155 -26q-96 0 -161.5 57.5t-65.5 154.5q0 93 61 145.5t156 58.5q3 0 12 0.5t12 0.5v100h-328v-198
q0 -87 -42.5 -136t-132.5 -49zM157 524v-201q0 -50 16 -75.5t58 -25.5q41 0 57.5 26t16.5 75v201h-148z" />
    <glyph glyph-name="dvNN_TTHA" horiz-adv-x="979" 
d="M230 141q-173 0 -173 185v198h-74v81h1013v-81h-191v-95q0 -9 -2 -21q148 -63 148 -194q0 -102 -68.5 -158t-168.5 -56q-98 0 -161.5 51t-63.5 154q0 78 49 127.5t113 67.5q31 9 42.5 21.5t11.5 34.5v68h-300v-198q0 -87 -42.5 -136t-132.5 -49zM157 524v-201
q0 -50 16 -75.5t58 -25.5q41 0 57.5 26t16.5 75v201h-148zM859 212q0 88 -103 135q-22 -13 -50 -19q-56 -12 -89 -43t-33 -80q0 -56 32.5 -91t95.5 -35q67 0 107 38t40 95z" />
    <glyph glyph-name="dvNN_DDA" horiz-adv-x="906" 
d="M478 72l46 70q69 -57 150 -57q91 0 91 59q0 23 -13.5 35t-50.5 19l-88 16q-116 23 -116 120q0 59 41 89t101 30q48 0 88 -6v77h-322v-198q0 -87 -42.5 -136t-132.5 -49q-173 0 -173 185v198h-74v81h940v-81h-96v-158q-123 14 -173 14q-61 0 -61 -45q0 -21 13.5 -31
t42.5 -16l90 -16q125 -23 125 -127q0 -68 -51.5 -104.5t-135.5 -36.5q-121 0 -199 68zM157 524v-201q0 -50 16 -75.5t58 -25.5q41 0 57.5 26t16.5 75v201h-148z" />
    <glyph glyph-name="dvNN_DDHA" horiz-adv-x="941" 
d="M230 141q-173 0 -173 185v198h-74v81h975v-81h-90v-181q-67 7 -123 7q-159 0 -159 -125q0 -66 43 -103t100 -37q49 0 71.5 21.5t22.5 50.5q0 19 -10.5 31.5t-26.5 12.5q-35 0 -45 -35l-60 28q11 40 41 62t72 22q47 0 82 -32t35 -85q0 -68 -49.5 -112t-135.5 -44
q-99 0 -169.5 63t-70.5 161q0 92 61 144.5t151 52.5q58 0 70 -3v101h-363v-198q0 -87 -42.5 -136t-132.5 -49zM157 524v-201q0 -50 16 -75.5t58 -25.5q41 0 57.5 26t16.5 75v201h-148z" />
    <glyph glyph-name="dvNN_NNA" horiz-adv-x="1177" 
d="M230 141q-173 0 -173 185v198h-74v81h1211v-81h-90v-524h-100v524h-128v-198q0 -185 -175 -185q-89 0 -131.5 49t-42.5 136v198h100v-204q0 -98 75 -98t75 98v204h-372v-198q0 -87 -42.5 -136t-132.5 -49zM157 524v-201q0 -50 16 -75.5t58 -25.5q41 0 57.5 26t16.5 75
v201h-148z" />
    <glyph glyph-name="dvNN_MA" horiz-adv-x="1012" 
d="M230 141q-173 0 -173 185v198h-74v81h1046v-81h-89v-524h-100v252h-185v-96h-115q-43 68 -52 147q35 15 67 20v201h100v-192h185v192h-435v-198q0 -87 -42.5 -136t-132.5 -49zM157 524v-201q0 -50 16 -75.5t58 -25.5q41 0 57.5 26t16.5 75v201h-148z" />
    <glyph glyph-name="dvNN_YA" horiz-adv-x="1046" 
d="M230 141q-173 0 -173 185v198h-74v81h1080v-81h-90v-524h-99v133q-57 -52 -147 -52q-100 0 -163.5 60.5t-65.5 181.5q0 20 1 30q146 3 146 72q0 56 -37 99h-203v-198q0 -87 -42.5 -136t-132.5 -49zM157 524v-201q0 -50 16 -75.5t58 -25.5q41 0 57.5 26t16.5 75v201h-148z
M739 165q78 0 135 55v304h-176q44 -46 44 -107q0 -50 -38 -85t-104 -40q4 -65 41.5 -96t97.5 -31z" />
    <glyph glyph-name="dvNN_VA" horiz-adv-x="989" 
d="M230 141q-173 0 -173 185v198h-74v81h1023v-81h-89v-524h-96v158q-13 -27 -51 -50.5t-94 -23.5q-84 0 -137 52t-53 131q0 86 54.5 133.5t135.5 47.5q40 0 81 -13l-18 -75q-23 7 -47 7q-46 0 -76.5 -25.5t-30.5 -74.5q0 -48 29.5 -75.5t77.5 -27.5q59 0 91 36.5t34 90.5
v233h-412v-198q0 -87 -42.5 -136t-132.5 -49zM157 524v-201q0 -50 16 -75.5t58 -25.5q41 0 57.5 26t16.5 75v201h-148z" />
    <glyph glyph-name="dvT_KA" horiz-adv-x="1047" 
d="M718 524v-152q13 25 47 44.5t78 19.5q79 0 127 -45.5t48 -125.5q0 -85 -50.5 -131t-130.5 -46q-26 0 -50 4l5 81q15 -3 30 -3q44 0 70 24.5t26 68.5q0 43 -24.5 67.5t-68.5 24.5t-71.5 -29.5t-30.5 -77.5v-248h-91v151q-13 -25 -47.5 -43.5t-79.5 -18.5q-79 0 -127 46
t-48 126q0 27 7 55q-37 6 -87 6q-52 0 -84.5 -29t-32.5 -82q0 -87 62 -176l-76 -45q-85 99 -85 222q0 88 58 143t154 55q66 0 137 -19q49 45 129 45q24 0 52 -6l-7 -78q-14 2 -31 2q-44 0 -70 -23t-26 -68q0 -43 25 -67.5t71 -24.5q44 0 71 27t30 73v253h-644v81h1082v-81
h-347z" />
    <glyph glyph-name="dvT_K_YA" horiz-adv-x="1434" 
d="M832 435q96 0 126 -75q75 16 75 65q0 56 -37 99h-260v-139q10 19 36.5 34.5t59.5 15.5zM1451 524h-90v-524h-99v133q-57 -52 -147 -52q-100 0 -163.5 59.5t-65.5 177.5q-18 36 -65 36q-34 0 -59 -23t-26 -68v-263h-95v151q-12 -25 -47 -43.5t-80 -18.5q-79 0 -127 46
t-48 126q0 32 7 54q-42 7 -96 7q-52 0 -84.5 -29t-32.5 -82q0 -87 62 -176l-76 -45q-85 99 -85 222q0 88 58 143t154 55q67 0 144 -21q50 47 132 47q23 0 51 -6l-6 -78q-16 2 -32 2q-44 0 -70 -23t-26 -68q0 -43 25 -67.5t71 -24.5q44 0 71 27t30 73v253h-653v81h1468v-81z
M1127 165q78 0 135 55v304h-176q44 -46 44 -107q0 -50 -38 -85t-104 -40q4 -65 41.5 -96t97.5 -31z" />
    <glyph glyph-name="dvT_K_RA" horiz-adv-x="1059" 
d="M729 524v-152q13 25 47 44.5t78 19.5q79 0 127 -45.5t48 -125.5q0 -85 -50.5 -131t-130.5 -46q-26 0 -50 4l5 81q15 -3 30 -3q44 0 70 24.5t26 68.5q0 43 -24.5 67.5t-68.5 24.5t-71.5 -29.5t-30.5 -77.5v-248h-91v144l-13 -11q-7 -9 -23 -19l-199 -164l-59 77l108 70
q-54 15 -85 57.5t-31 106.5q0 30 7 54q-52 7 -98 7q-52 0 -84.5 -29t-32.5 -82q0 -87 62 -176l-76 -45q-85 99 -85 222q0 88 58 143t154 55q68 0 145 -21q52 47 132 47q24 0 52 -6l-7 -78q-14 2 -31 2q-44 0 -70 -23t-26 -68q0 -43 25 -67.5t71 -24.5q44 0 71 27t30 73v253
h-655v81h1093v-81h-347z" />
    <glyph glyph-name="dvT_K_VA" horiz-adv-x="1398" 
d="M1100 164q59 0 91 36.5t34 90.5v233h-489v-142q14 22 46.5 38.5t71.5 16.5q61 0 103 -30q52 41 127 41q40 0 81 -13l-18 -75q-23 7 -47 7q-46 0 -76.5 -25.5t-30.5 -74.5q0 -48 29.5 -75.5t77.5 -27.5zM1414 524h-89v-524h-96v158q-13 -27 -51 -50.5t-94 -23.5
q-84 0 -137 52t-53 131q0 40 12 70q-28 17 -61 17q-46 0 -76 -27t-33 -74v-253h-95v151q-13 -25 -47.5 -43.5t-79.5 -18.5q-79 0 -127 46t-48 126q0 32 7 54q-42 7 -96 7q-52 0 -84.5 -29t-32.5 -82q0 -87 62 -176l-76 -45q-85 99 -85 222q0 88 58 143t154 55q67 0 144 -21
q50 47 131 47q24 0 52 -6l-7 -78q-14 2 -31 2q-44 0 -70 -23t-26 -68q0 -43 25 -67.5t71 -24.5q44 0 71 27t30 73v253h-653v81h1431v-81z" />
    <glyph glyph-name="dvT_K_SSA" horiz-adv-x="1022" 
d="M354 524h-371v81h371v-81zM724 0h-92v104q-15 -20 -46.5 -36t-74.5 -16q-84 0 -135 46.5t-51 127.5q0 47 23 85q-44 10 -97 10q-52 0 -85 -28.5t-33 -81.5q0 -87 62 -176l-76 -45q-85 99 -85 222q0 88 58.5 143t154.5 55q92 0 174 -34q22 12 47 18q-44 37 -44 100
q0 54 37 88t96 34q63 0 97 -34t34 -89q0 -77 -67 -110q35 -12 100 -12q74 0 128 32v121h-87v81h277v-81h-90v-524h-100v310q-61 -22 -124 -22q-109 0 -184 49q-48 -7 -80.5 -34t-32.5 -73q0 -47 29.5 -72.5t76.5 -25.5q42 0 68.5 24t29.5 58h92v-214zM507 487q0 -45 41 -66
q55 17 55 67q0 24 -12 39.5t-35 15.5q-24 0 -36.5 -15.5t-12.5 -40.5z" />
    <glyph glyph-name="dvT_KHA" horiz-adv-x="1063" 
d="M424 318l-1 -1q87 16 87 103q0 54 -35 104h-492v81h1098v-81h-90v-524h-95v103q-43 -43 -104 -68.5t-126 -25.5q-100 0 -179 50.5t-116 156.5l-44 24l14 43q-46 32 -96 32t-80.5 -28.5t-30.5 -81.5q0 -86 61 -170l-76 -45q-85 99 -85 216q0 88 57 143t150 55
q108 0 183 -86zM892 524h-322q40 -52 40 -118t-39.5 -108t-110.5 -53q55 -153 206 -153q55 0 100 19q-60 4 -99.5 48.5t-39.5 103.5q0 73 49.5 115t120.5 42q21 0 46 -5l-7 -73q-24 2 -32 2q-37 0 -61 -22t-24 -61t24 -63.5t60 -24.5q61 0 89 37v314z" />
    <glyph glyph-name="dvT_KH_NA" horiz-adv-x="1062" 
d="M890 524h-322q41 -53 41 -118q0 -66 -39.5 -108t-111.5 -53q55 -153 206 -153q54 0 101 19q-60 4 -100 48.5t-40 103.5q0 73 49.5 115t120.5 42q21 0 46 -5l-7 -73q-22 2 -31 2q-38 0 -61.5 -22t-23.5 -61t24 -63.5t60 -24.5q60 0 88 37v314zM1079 524h-89v-524h-95v104
q-44 -44 -126 -79l-217 -92l28 -78l-77 -29q-52 40 -82 99l26 54l125 49q-149 29 -202 188l-44 24l14 44q-48 29 -95 29q-50 0 -81 -29t-31 -82q0 -81 62 -167l-76 -45q-85 99 -85 213q0 89 57 144t150 55q107 0 188 -83q80 19 80 101q0 54 -35 104h-491v81h1096v-81z" />
    <glyph glyph-name="dvT_KH_RA" horiz-adv-x="1062" 
d="M890 524h-322q40 -52 40 -118t-39.5 -108t-110.5 -53q55 -153 206 -153q55 0 100 19q-60 4 -99.5 48.5t-39.5 103.5q0 73 49.5 115t120.5 42q21 0 46 -5l-7 -73q-24 2 -32 2q-37 0 -61 -22t-24 -61t24 -63.5t60 -24.5q61 0 89 37v314zM1079 524h-90v-524h-95v102
q-40 -40 -100 -66l-336 -142l-38 87l154 46q-151 31 -205 189l-44 24l14 45q-49 28 -94 28q-50 0 -81 -29t-31 -82q0 -81 62 -167l-76 -45q-85 99 -85 213q0 89 57 144t150 55q107 0 188 -83q79 19 79 101q0 54 -35 104h-490v81h1096v-81z" />
    <glyph glyph-name="dvT_TA" horiz-adv-x="553" 
d="M381 0v310q-60 8 -89 8q-59 0 -96 -25.5t-37 -96.5q0 -72 61 -161l-76 -45q-84 98 -84 210q0 84 53 126h-99v82h198q109 0 169 -13v129h-398v81h587v-81h-89v-524h-100z" />
    <glyph glyph-name="dvT_T" horiz-adv-x="312" 
d="M329 524h-346v81h346v-81zM412 406l-1 -80q-28 2 -117 2q-65 0 -102.5 -32t-37.5 -94q0 -73 61 -167l-76 -45q-33 37 -58.5 93.5t-25.5 114.5q0 91 60 130h-106v82h254q84 0 149 -4z" />
    <glyph glyph-name="dvT_T_YA" horiz-adv-x="885" 
d="M903 524h-90v-524h-99v133q-57 -52 -147 -52q-97 0 -160 57t-69 172q-27 6 -56 6q-54 0 -90.5 -30t-36.5 -95q0 -18 3.5 -36t6.5 -29.5t11.5 -28.5l11 -22t13.5 -23l11 -17l-79 -45q-79 96 -79 192q0 86 54 132h-100v88h242q116 0 180 -37q55 17 55 60q0 56 -37 99h-465
v81h920v-81zM579 165q78 0 135 55v304h-176q44 -46 44 -107q0 -50 -38 -85t-104 -40q4 -65 41.5 -96t97.5 -31z" />
    <glyph glyph-name="dvT_T_VA" horiz-adv-x="842" 
d="M859 524h-89v-524h-96v158q-13 -27 -51 -50.5t-94 -23.5q-84 0 -137 52t-53 131q0 33 9 60q-26 1 -54 1q-65 0 -102.5 -32t-37.5 -94q0 -73 61 -167l-76 -45q-33 37 -58.5 93.5t-25.5 114.5q0 91 60 130h-106v82h254q72 0 138 -3q52 41 128 41q40 0 81 -13l-18 -75
q-23 7 -47 7q-46 0 -76.5 -25.5t-30.5 -74.5q0 -48 29.5 -75.5t77.5 -27.5q59 0 91 36.5t34 90.5v233h-687v81h876v-81z" />
    <glyph glyph-name="dvT_THA" horiz-adv-x="919" 
d="M337 524h-354v81h354v-81zM647 461q0 -64 -46.5 -107t-149.5 -51q1 -65 43 -101.5t105 -36.5q94 0 147 67v292h-63v81h253v-81h-90v-524h-98v141q-67 -62 -168 -62q-100 0 -164 61t-71 168q-42 14 -99 14q-52 0 -83 -28t-31 -81q0 -84 58 -178l-78 -45q-83 100 -83 222
q0 88 58.5 143t153.5 55q102 0 163 -41l34 5q68 9 92 31t24 61q0 67 -46 67q-19 0 -29.5 -12.5t-10.5 -32.5q0 -17 5 -35l-77 -20q-10 21 -10 59q0 51 34 84.5t88 33.5q68 0 103.5 -40t35.5 -109z" />
    <glyph glyph-name="dvT_NA" horiz-adv-x="574" 
d="M591 524h-89v-524h-100v230l-91 -56l31 -54l-58 -33q-50 30 -80 70l16 46l182 108v4q-61 9 -133 9q-63 0 -99 -30t-36 -88q0 -82 61 -171l-76 -45q-35 40 -60 99t-25 122q0 94 62.5 146.5t170.5 52.5q82 0 135 -12v126h-419v81h608v-81z" />
    <glyph glyph-name="dvT_N_YA" horiz-adv-x="891" 
d="M908 524h-89v-524h-100v133q-57 -52 -146 -52q-39 0 -67 8l-136 -76l33 -68l-74 -37q-57 36 -92 91l21 56l156 81q-64 59 -70 175q-49 11 -98 11q-52 0 -83 -28t-31 -81q0 -84 58 -178l-78 -45q-83 100 -83 222q0 88 58.5 143t153.5 55q104 0 172 -51q78 16 78 66
q0 55 -38 99h-470v81h925v-81zM584 165q78 0 135 55v304h-176q44 -44 44 -107q0 -50 -38 -85t-103 -40q4 -65 41 -96t97 -31z" />
    <glyph glyph-name="dvT_PA" horiz-adv-x="811" 
d="M828 605v-81h-89v-524h-98v176q-57 -30 -128 -30q-84 0 -124 46.5t-40 120.5v1q-51 8 -99 8q-52 0 -84.5 -29t-32.5 -82q0 -87 62 -176l-76 -45q-85 99 -85 222q0 88 58 143t154 55q48 0 103 -11v125h-366v81h845zM639 524h-190v-204q0 -48 16.5 -69.5t65.5 -21.5
q51 0 108 20v275z" />
    <glyph glyph-name="dvT_P_RA" horiz-adv-x="824" 
d="M841 605v-81h-89v-524h-98v174l-247 -211l-59 73l153 111q-71 7 -105 52.5t-34 112.5q-56 10 -112 10q-52 0 -84.5 -29t-32.5 -82q0 -87 62 -176l-76 -45q-85 99 -85 222q0 88 58 143t154 55q57 0 116 -14v128h-379v81h858zM652 524h-190v-204q0 -48 16.5 -69.5
t65.5 -21.5q50 0 108 20v275z" />
    <glyph glyph-name="dvT_P_LA" horiz-adv-x="1290" 
d="M941 338q8 38 37.5 61.5t70.5 23.5q39 0 69 -12v113h-663v-204q0 -48 16.5 -69.5t66.5 -21.5q64 0 117 35q8 73 50 115.5t111 42.5q53 0 84 -24.5t41 -59.5zM195 35l-76 -45q-85 99 -85 222q0 88 58 143t154 55q54 0 110 -13v127h-373v81h1324v-81h-89v-524h-100v327
q-28 11 -63 11q-68 0 -68 -91v-75h-92v70q0 97 -70 97q-34 0 -53 -27.5t-19 -79.5q0 -99 88 -177l-64 -60q-40 30 -72 77t-45 105q-61 -35 -141 -35q-83 0 -123 47.5t-40 121.5v2q-53 9 -106 9q-52 0 -84.5 -29t-32.5 -82q0 -87 62 -176z" />
    <glyph glyph-name="dvT_PHA" horiz-adv-x="1056" 
d="M1072 605v-81h-349v-138q51 47 126 47q81 0 128 -47.5t47 -128.5q0 -82 -51.5 -131t-134.5 -47q-25 0 -41 4l6 80q12 -2 21 -2q45 0 72.5 25t27.5 71q0 41 -24.5 66.5t-65.5 25.5q-40 0 -69 -21t-42 -51v-277h-96v186q-50 -32 -119 -32q-70 0 -115.5 39.5t-45.5 121.5
q-42 7 -97 7q-52 0 -84.5 -29t-32.5 -82q0 -87 62 -176l-76 -45q-85 99 -85 222q0 88 58 143t154 55q46 0 101 -11v125h-364v81h1089zM627 524h-181v-204q0 -88 84 -88q54 0 97 28v264z" />
    <glyph glyph-name="dvT_MA" horiz-adv-x="845" 
d="M672 0v252h-184v-96h-115q-44 70 -51 146l3 1q-28 19 -74 19q-52 0 -84.5 -28.5t-32.5 -82.5q0 -81 60 -176l-75 -45q-35 41 -60 99t-25 120q0 92 59 146.5t151 54.5q87 0 144 -54v168h100v-192h184v192h-689v81h879v-81h-90v-524h-100z" />
    <glyph glyph-name="dvT_M_YA" horiz-adv-x="1187" 
d="M1204 524h-90v-524h-99v133q-57 -52 -147 -52q-85 0 -144 43t-77 130h-151v-96h-115q-44 69 -51 147l22 9q-52 8 -102 8q-52 0 -84.5 -29t-32.5 -82q0 -87 62 -176l-76 -45q-85 99 -85 222q0 88 58 143t154 55q72 0 151 -23v137h-414v81h1221v-81zM786 425q0 56 -37 99
h-253v-189h143q0 12 1 18q146 3 146 72zM880 165q78 0 135 55v304h-176q44 -46 44 -107q0 -50 -38 -85t-104 -40q4 -65 41.5 -96t97.5 -31z" />
    <glyph glyph-name="dvT_YA" horiz-adv-x="876" 
d="M894 524h-90v-524h-99v133q-57 -52 -147 -52q-98 0 -161.5 58.5t-67.5 176.5q-36 6 -78 6q-51 0 -82.5 -28t-31.5 -81q0 -87 59 -178l-79 -45q-82 102 -82 222q0 88 58 143t154 55q106 0 168 -47q61 17 61 62q0 56 -37 99h-456v81h911v-81zM570 165q78 0 135 55v304h-176
q44 -46 44 -107q0 -50 -38 -85t-104 -40q4 -65 41.5 -96t97.5 -31z" />
    <glyph glyph-name="dvT_R_YA" horiz-adv-x="796" 
d="M814 524h-90v-524h-99v133q-57 -52 -147 -52q-136 0 -194 100l-200 -156l-62 79l232 161q-50 75 -132 75q-47 0 -90 -16l-24 97q44 18 109 18q115 0 170 -84q109 10 109 70q0 56 -37 99h-376v81h831v-81zM490 165q78 0 135 55v304h-176q44 -46 44 -107q0 -50 -38 -85
t-104 -40q4 -65 41.5 -96t97.5 -31z" />
    <glyph glyph-name="dvT_LA" horiz-adv-x="973" 
d="M624 338q8 38 37.5 61.5t70.5 23.5q39 0 69 -12v113h-818v81h1007v-81h-89v-524h-100v327q-28 11 -63 11q-68 0 -68 -91v-75h-92v70q0 97 -70 97q-34 0 -53 -27.5t-19 -79.5q0 -99 88 -177l-64 -60q-51 38 -87 101.5t-36 140.5q0 41 10 71q-41 14 -96 14q-53 0 -85 -29
t-32 -82q0 -89 61 -176l-76 -45q-85 101 -85 222q0 88 58 143t154 55q93 0 144 -28q43 40 109 40q53 0 84 -24.5t41 -59.5z" />
    <glyph glyph-name="dvT_VA" horiz-adv-x="833" 
d="M850 524h-89v-524h-96v158q-13 -27 -51 -50.5t-94 -23.5q-84 0 -137 52t-53 131q0 27 6 49q-37 6 -86 6q-52 0 -84.5 -29t-32.5 -82q0 -87 62 -176l-76 -45q-85 99 -85 222q0 88 58 143t154 55q63 0 131 -18q53 56 143 56q40 0 81 -13l-18 -75q-23 7 -47 7
q-46 0 -76.5 -25.5t-30.5 -74.5q0 -48 29.5 -75.5t77.5 -27.5q59 0 91 36.5t34 90.5v233h-678v81h867v-81z" />
    <glyph glyph-name="dvT_SA" horiz-adv-x="924" 
d="M651 307q64 0 101 22v195h-203q40 -52 40 -118q0 -45 -18 -78q36 -21 80 -21zM941 524h-89v-524h-100v234q-36 -13 -86 -13q-80 0 -149 51q-33 -20 -79 -27l156 -205l-81 -55l-161 227l-45 29l21 64q-32 17 -77 17q-52 0 -84.5 -29t-32.5 -82q0 -89 61 -176l-76 -45
q-85 101 -85 222q0 88 58.5 143t154.5 55q62 0 111.5 -23t73.5 -61q57 23 57 94q0 54 -35 104h-471v81h958v-81z" />
    <glyph glyph-name="dvT_S_NA" horiz-adv-x="1036" 
d="M863 307l-119 -62l30 -68l-74 -36q-53 36 -85 86l13 28q-48 3 -85 25q-35 -27 -95 -35l157 -205l-81 -55l-161 227l-46 29l14 44q-45 28 -91 28q-48 0 -77.5 -28t-29.5 -79q0 -82 62 -171l-76 -45q-85 99 -85 217q0 87 55 141t146 54q106 0 182 -84q83 18 83 102
q0 52 -35 104h-482v81h1070v-81h-90v-524h-100v307zM666 326q46 0 79 16l118 57v125h-303q40 -55 40 -118q0 -32 -12 -63q30 -17 78 -17z" />
    <glyph glyph-name="dvT_S_YA" horiz-adv-x="1278" 
d="M731 352v1q146 3 146 72q0 56 -37 99h-280q40 -52 40 -118q0 -42 -15 -74q27 -18 64 -18q56 0 82 38zM1295 524h-90v-524h-100v133q-55 -52 -146 -52q-86 0 -145.5 44t-76.5 133q-33 -27 -82 -27q-65 0 -119 45q-38 -24 -87 -31l157 -205l-81 -55l-162 227l-45 29l19 58
q-36 23 -86 23q-52 0 -84.5 -29t-32.5 -82q0 -89 61 -176l-76 -45q-85 101 -85 222q0 88 58.5 143t154.5 55q62 0 111.5 -24.5t72.5 -63.5q70 21 70 98q0 54 -35 104h-483v81h1312v-81zM971 165q79 0 134 55v304h-175q44 -46 44 -107q0 -50 -38 -85t-104 -40q4 -65 41.5 -96
t97.5 -31z" />
    </font>
</defs>
</svg>
