<?xml version="1.0" standalone="no"?>
<!DOCTYPE svg PUBLIC "-//W3C//DTD SVG 1.1//EN" "http://www.w3.org/Graphics/SVG/1.1/DTD/svg11.dtd" >
<svg>
<metadata>
Created by FontForge 20090622 at Mon Jul  1 11:03:41 2019
 By deploy user
Copyright 2009, 2015 Indian Type Foundry. All rights reserved.
</metadata>
<defs>
<font id="FedraSansDevanagariB-Light" horiz-adv-x="221" >
  <font-face 
    font-family="Fedra Sans Devanagari B Light"
    font-weight="300"
    font-stretch="normal"
    units-per-em="1000"
    panose-1="2 0 0 0 0 0 0 0 0 0"
    ascent="780"
    descent="-220"
    x-height="467"
    cap-height="605"
    bbox="-475 -436 1917 937"
    underline-thickness="50"
    underline-position="-50"
    unicode-range="U+000D-U+FB02"
  />
<missing-glyph horiz-adv-x="712" 
d="M305 375v27h27v-27h-27zM380 525v27h27v-27h-27zM305 525v27h27v-27h-27zM230 525v27h27v-27h-27zM80 0v27h27v-27h-27zM155 0v27h27v-27h-27zM230 0v27h27v-27h-27zM305 0v27h27v-27h-27zM380 0v27h27v-27h-27zM80 75v27h27v-27h-27zM80 150v27h27v-27h-27zM80 225v27
h27v-27h-27zM80 300v27h27v-27h-27zM80 375v27h27v-27h-27zM80 450v27h27v-27h-27zM80 525v27h27v-27h-27zM80 600v27h27v-27h-27zM80 675v27h27v-27h-27zM155 675v27h27v-27h-27zM230 675v27h27v-27h-27zM305 675v27h27v-27h-27zM380 675v27h27v-27h-27zM455 675v27h27v-27
h-27zM530 675v27h27v-27h-27zM530 0v27h27v-27h-27zM455 0v27h27v-27h-27zM605 0v27h27v-27h-27zM605 675v27h27v-27h-27zM305 300v27h27v-27h-27zM305 150v27h27v-27h-27zM380 375v27h27v-27h-27zM455 375v27h27v-27h-27zM455 450v27h27v-27h-27zM455 525v27h27v-27h-27z
M605 600v27h27v-27h-27zM605 525v27h27v-27h-27zM605 375v27h27v-27h-27zM605 300v27h27v-27h-27zM605 150v27h27v-27h-27zM605 75v27h27v-27h-27zM605 225v27h27v-27h-27zM605 450v27h27v-27h-27z" />
    <glyph glyph-name=".notdef" horiz-adv-x="712" 
d="M305 375v27h27v-27h-27zM380 525v27h27v-27h-27zM305 525v27h27v-27h-27zM230 525v27h27v-27h-27zM80 0v27h27v-27h-27zM155 0v27h27v-27h-27zM230 0v27h27v-27h-27zM305 0v27h27v-27h-27zM380 0v27h27v-27h-27zM80 75v27h27v-27h-27zM80 150v27h27v-27h-27zM80 225v27
h27v-27h-27zM80 300v27h27v-27h-27zM80 375v27h27v-27h-27zM80 450v27h27v-27h-27zM80 525v27h27v-27h-27zM80 600v27h27v-27h-27zM80 675v27h27v-27h-27zM155 675v27h27v-27h-27zM230 675v27h27v-27h-27zM305 675v27h27v-27h-27zM380 675v27h27v-27h-27zM455 675v27h27v-27
h-27zM530 675v27h27v-27h-27zM530 0v27h27v-27h-27zM455 0v27h27v-27h-27zM605 0v27h27v-27h-27zM605 675v27h27v-27h-27zM305 300v27h27v-27h-27zM305 150v27h27v-27h-27zM380 375v27h27v-27h-27zM455 375v27h27v-27h-27zM455 450v27h27v-27h-27zM455 525v27h27v-27h-27z
M605 600v27h27v-27h-27zM605 525v27h27v-27h-27zM605 375v27h27v-27h-27zM605 300v27h27v-27h-27zM605 150v27h27v-27h-27zM605 75v27h27v-27h-27zM605 225v27h27v-27h-27zM605 450v27h27v-27h-27z" />
    <glyph glyph-name=".null" horiz-adv-x="0" 
 />
    <glyph glyph-name="nonmarkingreturn" horiz-adv-x="333" 
 />
    <glyph glyph-name="NULL" horiz-adv-x="0" 
 />
    <glyph glyph-name="NULL" horiz-adv-x="0" 
 />
    <glyph glyph-name="CR" unicode="&#xd;" horiz-adv-x="200" 
 />
    <glyph glyph-name="space" unicode=" " horiz-adv-x="230" 
 />
    <glyph glyph-name="exclam" unicode="!" horiz-adv-x="220" 
d="M96 137l-2 111v407h42v-407l-1 -111h-39zM89 0v63h51v-63h-51z" />
    <glyph glyph-name="quotedbl" unicode="&#x22;" horiz-adv-x="278" 
d="M48 485l-1 237h39l-3 -237h-35zM195 485l-2 237h40l-4 -237h-34z" />
    <glyph glyph-name="numbersign" unicode="#" horiz-adv-x="544" 
d="M333 0l7 138h-155l-7 -138h-40l7 138h-75v39h77l12 248h-89v39h91l7 133h42l-7 -133h153l7 133h42l-7 -133h75v-39h-77l-14 -248h91v-39h-93l-7 -138h-40zM201 425l-14 -248h155l12 248h-153z" />
    <glyph glyph-name="dollar" unicode="$" horiz-adv-x="430" 
d="M233 -78h-39v69q-88 0 -153 34l15 36q73 -31 138 -31v266q-33 16 -53.5 28t-43.5 32t-34 46t-11 60q0 61 39.5 98t102.5 43v66h39v-64q63 -2 118 -27l-13 -36q-52 23 -105 26v-244q38 -18 58.5 -29.5t47.5 -33t39.5 -49t12.5 -62.5q0 -69 -45.5 -108.5t-112.5 -47.5v-72z
M348 146q0 48 -29.5 77t-85.5 55v-245q48 9 81.5 36t33.5 77zM94 465q0 -43 26 -70.5t74 -50.5v222q-46 -6 -73 -32t-27 -69z" />
    <glyph glyph-name="percent" unicode="%" horiz-adv-x="609" 
d="M150 334q-52 0 -85 33t-33 99q0 64 35 100.5t85 36.5q54 0 87.5 -32t33.5 -101q0 -64 -35 -100t-88 -36zM150 367q39 0 62.5 26.5t23.5 76.5q0 48 -22 75t-62 27q-35 0 -59 -27.5t-24 -78.5q0 -49 21.5 -74t59.5 -25zM455 -7q-53 0 -86 33t-33 98t35 102t85 37
q54 0 87.5 -32.5t33.5 -101.5q0 -64 -35 -100t-87 -36zM455 26q38 0 62 27t24 76q0 48 -22.5 75t-62.5 27q-35 0 -59 -27.5t-24 -79.5q0 -48 22 -73t60 -25zM89 53l-24 25l437 449l23 -24z" />
    <glyph glyph-name="ampersand" unicode="&#x26;" horiz-adv-x="575" 
d="M157 451q0 -59 30 -127l29 17l30 18l26 17t25.5 19l19.5 19t17 21.5t9 22t4 25.5q0 38 -27 63.5t-67 25.5q-43 0 -69.5 -32.5t-26.5 -88.5zM195 33q61 0 131 49q-101 77 -160 182q-84 -59 -84 -128q0 -54 34 -78.5t79 -24.5zM485 293l35 -23q-51 -113 -123 -184
q85 -52 160 -55l-6 -39q-88 0 -188 64q-82 -65 -171 -65q-66 0 -110.5 34.5t-44.5 108.5q0 92 111 166q-36 77 -36 148t39.5 117.5t104.5 46.5q61 0 97.5 -38.5t36.5 -92.5q0 -19 -5 -36.5t-17.5 -33.5t-23 -27.5t-31.5 -26l-33.5 -23t-38 -23.5t-36.5 -22q58 -105 156 -178
q80 72 124 182z" />
    <glyph glyph-name="quotesingle" unicode="'" horiz-adv-x="132" 
d="M48 485l-1 237h39l-3 -237h-35z" />
    <glyph glyph-name="parenleft" unicode="(" horiz-adv-x="296" 
d="M248 -190q-202 193 -202 505q0 85 16.5 161.5t38.5 126.5t53 93.5t52 65t42 37.5l25 -31q-184 -165 -184 -452q0 -292 184 -476z" />
    <glyph glyph-name="parenright" unicode=")" horiz-adv-x="296" 
d="M48 -190l-24 31q182 179 182 467q0 291 -183 461l25 30q27 -21 55.5 -54.5t64.5 -92.5t59 -149t23 -195q0 -305 -202 -498z" />
    <glyph glyph-name="asterisk" unicode="*" horiz-adv-x="407" 
d="M62 469l-22 38l101 51l15 -27zM141 594l-101 51l23 38l94 -61zM181 400l8 113h30l7 -113h-45zM189 640l-7 113h44l-6 -113h-31zM344 469l-93 61l16 28l100 -49zM266 595l-15 27l94 62l23 -38z" />
    <glyph glyph-name="plus" unicode="+" horiz-adv-x="430" 
d="M192 109v169h-168v37l168 -1v173h38v-173l175 1v-37h-175v-169h-38z" />
    <glyph glyph-name="comma" unicode="," horiz-adv-x="217" 
d="M62 -122q24 55 24 119v66h44v-48q0 -73 -31 -137h-37z" />
    <glyph glyph-name="hyphen" unicode="-" horiz-adv-x="454" 
d="M78 291v40h298v-40h-298z" />
    <glyph glyph-name="period" unicode="." horiz-adv-x="226" 
d="M87 0v72h52v-72h-52z" />
    <glyph glyph-name="slash" unicode="/" horiz-adv-x="363" 
d="M46 -62l233 828h41l-232 -828h-42z" />
    <glyph glyph-name="zero" unicode="0" horiz-adv-x="482" 
d="M441 307q0 -149 -50 -232t-155 -83q-196 0 -196 296q0 66 10.5 120t33.5 99t65.5 70t100.5 25q191 0 191 -295zM397 304q0 261 -150 261q-165 0 -165 -274q0 -75 13.5 -130.5t49.5 -93.5t93 -38q61 0 97.5 39t49 96.5t12.5 139.5z" />
    <glyph glyph-name="one" unicode="1" horiz-adv-x="329" 
d="M40 0v38h116v514l-123 -58v40l129 62h35v-558h118v-38h-275z" />
    <glyph glyph-name="two" unicode="2" horiz-adv-x="393" 
d="M373 0h-361v37l24 25l33.5 32.5l34.5 36t39 42.5l37 43t37 47l30.5 45.5t26.5 46.5t15.5 42.5t6.5 41.5q0 66 -28.5 96.5t-91.5 30.5q-70 0 -129 -42l-18 29q63 51 150 51q158 0 158 -161q0 -83 -69.5 -179t-201.5 -226h307v-38z" />
    <glyph glyph-name="three" unicode="3" horiz-adv-x="375" 
d="M340 159q0 -83 -50 -124t-134 -41q-81 0 -141 24q3 6 7 19t5 16q61 -21 123 -21q148 0 148 127q0 59 -49 93.5t-122 40.5v39q56 4 101 41.5t45 87.5q0 53 -31.5 78.5t-83.5 25.5q-57 0 -101 -20l-6 15.5t-7 15.5q50 25 116 25q71 0 111.5 -35t40.5 -102
q0 -56 -40.5 -97.5t-87.5 -50.5q61 -10 108.5 -50.5t47.5 -106.5z" />
    <glyph glyph-name="four" unicode="4" horiz-adv-x="413" 
d="M410 172h-102v-172h-41v172h-266v42l242 383h65v-386h102v-39zM267 211v358l-225 -358h225z" />
    <glyph glyph-name="five" unicode="5" horiz-adv-x="380" 
d="M357 175q0 -84 -52 -132.5t-133 -48.5q-72 0 -134 15l10 40q60 -15 124 -15q63 0 103 37t40 98q0 71 -40 105.5t-103 34.5q-15 0 -43 -2q-32 0 -70 -5v295h275v-37h-235v-216q36 4 81 4q78 0 127.5 -45.5t49.5 -127.5z" />
    <glyph glyph-name="six" unicode="6" horiz-adv-x="422" 
d="M225 -10q-93 0 -138 58t-45 205q0 168 66.5 258.5t176.5 90.5q44 0 72 -8q-1 -7 -3.5 -19l-3.5 -17q-30 6 -65 6q-90 0 -139 -67.5t-59 -181.5q69 44 147 44q83 0 124 -48.5t41 -125.5q0 -95 -47 -145t-127 -50zM230 320q-77 0 -146 -43q-1 -9 -1 -27q0 -119 33 -171.5
t114 -52.5q59 0 93.5 41.5t34.5 111.5q0 68 -34 104.5t-94 36.5z" />
    <glyph glyph-name="seven" unicode="7" horiz-adv-x="327" 
d="M335 557l-261 -564l-37 16l256 549h-298v39h340v-40z" />
    <glyph glyph-name="eight" unicode="8" horiz-adv-x="438" 
d="M217 -9q-85 0 -134 40t-49 106q0 60 39 99t109 77q-61 38 -92.5 72.5t-31.5 83.5q0 62 44.5 99t120.5 37q73 0 115 -38.5t42 -93.5q0 -28 -9.5 -50.5t-30 -43t-38.5 -33l-49 -32.5q35 -20 55.5 -33.5t46 -35t37.5 -47.5t12 -56q0 -69 -50 -110t-137 -41zM220 27
q66 0 103 30t37 87q0 32 -22 60.5t-48 46t-74 44.5q-34 -20 -54.5 -33.5t-43 -33.5t-32.5 -41.5t-10 -47.5q0 -52 38.5 -82t105.5 -30zM219 332q27 16 44.5 27.5t37.5 29t29.5 37.5t9.5 42q0 44 -30 73t-87 29q-59 0 -91.5 -27.5t-32.5 -74.5q0 -42 32 -73.5t88 -62.5z" />
    <glyph glyph-name="nine" unicode="9" horiz-adv-x="429" 
d="M136 -7q-40 0 -69 9l10 36q1 0 10.5 -1.5t23.5 -3t25 -1.5q108 0 152.5 57.5t52.5 172.5q-86 -33 -151 -33q-78 0 -120.5 48.5t-42.5 137.5q0 91 48.5 140.5t127.5 49.5q86 0 134.5 -65.5t48.5 -200.5q0 -185 -58 -265.5t-192 -80.5zM199 267q71 0 143 34q1 11 1 47
q0 103 -36 161t-109 58q-59 0 -94 -40.5t-35 -106.5q0 -153 130 -153z" />
    <glyph glyph-name="colon" unicode=":" horiz-adv-x="272" 
d="M110 0v72h52v-72h-52zM110 474v72h52v-72h-52z" />
    <glyph glyph-name="semicolon" unicode=";" horiz-adv-x="269" 
d="M89 -122q24 62 24 118v67h44v-48q0 -73 -31 -137h-37zM107 474v72h52v-72h-52z" />
    <glyph glyph-name="less" unicode="&#x3c;" horiz-adv-x="407" 
d="M364 116l-327 150v60l327 150v-41l-303 -138l303 -140v-41z" />
    <glyph glyph-name="equal" unicode="=" horiz-adv-x="504" 
d="M61 195v37h382v-37h-382zM61 364v37h382v-37h-382z" />
    <glyph glyph-name="greater" unicode="&#x3e;" horiz-adv-x="407" 
d="M43 116v41l302 140l-302 138v41l326 -150v-60z" />
    <glyph glyph-name="question" unicode="?" horiz-adv-x="335" 
d="M106 137q-19 38 -19 78q0 36 16.5 67.5t40 54.5l47 44t40 46t16.5 51q0 42 -30 73.5t-70.5 46t-86.5 18.5l9 39q54 -4 101.5 -22t83.5 -58t36 -94q0 -32 -16.5 -61.5t-40.5 -52l-47.5 -44.5t-40 -49t-16.5 -56q0 -37 17 -73zM97 0v63h51v-63h-51z" />
    <glyph glyph-name="at" unicode="@" horiz-adv-x="649" 
d="M300 -62q-122 0 -188.5 77.5t-66.5 209.5q0 191 97 289.5t245 98.5q102 0 161 -58.5t59 -181.5q0 -120 -53.5 -179.5t-122.5 -59.5q-32 0 -48.5 15.5t-14.5 44.5q-20 -22 -50 -38.5t-54 -16.5q-77 0 -77 102q0 87 44.5 138.5t118.5 51.5q42 0 82 -18l-23 -195
q-6 -46 26 -46q50 0 89.5 47t39.5 154q0 201 -180 201q-127 0 -210 -84.5t-83 -259.5q0 -124 55.5 -186.5t159.5 -62.5q54 0 129 17l8 -37q-61 -23 -143 -23zM271 179q45 0 97 56l19 153q-19 7 -38 7q-57 0 -88 -41t-31 -111q0 -64 41 -64z" />
    <glyph glyph-name="A" unicode="A" horiz-adv-x="536" 
d="M-5 0l246 605h64l227 -605h-54l-89 239h-246l-95 -239h-53zM158 281h216l-104 285z" />
    <glyph glyph-name="B" unicode="B" horiz-adv-x="507" 
d="M80 0v605h149q94 0 142.5 -39t48.5 -111q0 -110 -89 -137v-1q59 -9 96 -45.5t37 -103.5q0 -82 -54 -125t-154 -43h-176zM413 166q0 68 -47 96t-137 28h-98v-247h116q166 0 166 123zM370 447q0 63 -38.5 90.5t-114.5 27.5h-86v-233h116q123 0 123 115z" />
    <glyph glyph-name="C" unicode="C" horiz-adv-x="548" 
d="M352 -9q-143 0 -226 85.5t-83 222.5q0 141 82 227.5t223 86.5q113 0 172 -31l-15 -41q-77 27 -156 27q-111 1 -182.5 -67.5t-71.5 -195.5q0 -130 74 -199.5t192 -69.5q81 0 150 23l12 -40q-69 -28 -171 -28z" />
    <glyph glyph-name="D" unicode="D" horiz-adv-x="606" 
d="M80 0v605h151q153 0 242 -74t89 -227q0 -155 -86.5 -229.5t-240.5 -74.5h-155zM131 43h110q128 0 199 63t71 192q0 134 -74.5 199t-207.5 65h-98v-519z" />
    <glyph glyph-name="E" unicode="E" horiz-adv-x="458" 
d="M80 0v605h332v-41h-281v-238h255v-43h-255v-240h294v-43h-345z" />
    <glyph glyph-name="F" unicode="F" horiz-adv-x="447" 
d="M80 0v605h339v-41h-288v-256h270v-43h-270v-265h-51z" />
    <glyph glyph-name="G" unicode="G" horiz-adv-x="580" 
d="M352 -9q-146 0 -228.5 85t-82.5 223q0 140 80.5 227t220.5 87q108 0 168 -29l-14 -41q-75 25 -152 25q-111 0 -181.5 -68.5t-70.5 -194.5q0 -129 73 -199.5t193 -70.5q57 0 115 14v245h48v-278q-82 -25 -169 -25z" />
    <glyph glyph-name="H" unicode="H" horiz-adv-x="615" 
d="M80 0v605h51v-278h352v278h50v-605h-50v283h-352v-283h-51z" />
    <glyph glyph-name="I" unicode="I" horiz-adv-x="218" 
d="M84 0v605h50v-605h-50z" />
    <glyph glyph-name="J" unicode="J" horiz-adv-x="227" 
d="M-15 -159l-22 37q77 42 103 99.5t26 152.5v475h51v-474q0 -110 -32 -178t-126 -112z" />
    <glyph glyph-name="K" unicode="K" horiz-adv-x="489" 
d="M422 0l-269 319v9l255 277h65l-264 -280l279 -325h-66zM80 0v605h51v-605h-51z" />
    <glyph glyph-name="L" unicode="L" horiz-adv-x="393" 
d="M80 0v605h51v-561h263v-44h-314z" />
    <glyph glyph-name="M" unicode="M" horiz-adv-x="759" 
d="M131 0h-51v605h72l221 -576l238 576h68v-605h-51v437l3 99h-3l-219 -536h-75l-205 537h-1l3 -94v-443z" />
    <glyph glyph-name="N" unicode="N" horiz-adv-x="621" 
d="M131 0h-51v605h68l343 -551h1l-2 86v465h50v-605h-70l-340 547h-1l2 -75v-472z" />
    <glyph glyph-name="O" unicode="O" horiz-adv-x="676" 
d="M333 -10q-134 0 -213 86.5t-79 226.5q0 141 82.5 225.5t218.5 84.5t214.5 -87t78.5 -224q0 -140 -81.5 -226t-220.5 -86zM336 33q117 0 183.5 75t66.5 194t-67 194t-179 75q-117 0 -183 -74t-66 -193q0 -118 65.5 -194.5t179.5 -76.5z" />
    <glyph glyph-name="P" unicode="P" horiz-adv-x="466" 
d="M86 0v605h183q87 0 137.5 -49t50.5 -136q0 -84 -59 -140t-174 -56h-89v-224h-49zM135 564v-297h94q83 0 129.5 39.5t46.5 111.5q0 146 -148 146h-122z" />
    <glyph glyph-name="Q" unicode="Q" horiz-adv-x="693" 
d="M668 -5l-31 -28l-98 95q-81 -72 -206 -72q-134 0 -213 86.5t-79 226.5q0 141 82.5 225.5t218.5 84.5t214.5 -87t78.5 -224q0 -128 -68 -210zM336 33q104 0 169 60l-99 96l31 28l96 -93q53 71 53 178q0 119 -67 194t-179 75q-117 0 -183 -74t-66 -193q0 -118 65.5 -194.5
t179.5 -76.5z" />
    <glyph glyph-name="R" unicode="R" horiz-adv-x="544" 
d="M85 0v605h178q88 0 140.5 -40.5t52.5 -128.5q0 -123 -118 -161l179 -275h-62l-167 264q-27 -5 -59 -5h-94v-259h-50zM135 302h97q81 0 126.5 28.5t45.5 101.5t-39 102.5t-115 29.5h-115v-262z" />
    <glyph glyph-name="S" unicode="S" horiz-adv-x="421" 
d="M188 -9q-91 0 -157 35l17 42q77 -33 142 -33q57 0 104.5 28t47.5 87q0 38 -22 66.5t-55.5 44.5l-72.5 35t-72.5 37.5t-55.5 53t-22 80.5q0 68 49 107t123 39q75 0 139 -28l-16 -41q-61 26 -121 26q-55 0 -89.5 -26.5t-34.5 -75.5q0 -42 31 -72t75 -49.5t88 -41.5t75 -60
t31 -92q0 -80 -62 -121t-142 -41z" />
    <glyph glyph-name="T" unicode="T" horiz-adv-x="467" 
d="M208 0v562h-211v43h473v-43h-212v-562h-50z" />
    <glyph glyph-name="U" unicode="U" horiz-adv-x="609" 
d="M305 -10q-45 0 -83.5 10t-73.5 32.5t-55 66t-20 104.5v402h50v-399q0 -50 15.5 -85t42.5 -53.5t57.5 -26.5t66.5 -8t66.5 9t57.5 30t42.5 61t15.5 95v377h50v-379q0 -67 -21.5 -116t-57 -73.5t-73.5 -35.5t-80 -11z" />
    <glyph glyph-name="V" unicode="V" horiz-adv-x="528" 
d="M225 0l-220 605h55l202 -564l217 564h51l-234 -605h-71z" />
    <glyph glyph-name="W" unicode="W" horiz-adv-x="841" 
d="M835 605l-193 -605h-74l-152 541l-161 -541h-74l-176 605h53l163 -574l169 574h55l161 -574l179 574h50z" />
    <glyph glyph-name="X" unicode="X" horiz-adv-x="474" 
d="M0 0l211 314l-186 291h57l156 -250l163 250h55l-191 -290l201 -315h-59l-171 276l-178 -276h-58z" />
    <glyph glyph-name="Y" unicode="Y" horiz-adv-x="470" 
d="M209 0v229l-195 376h55l166 -329l174 329h53l-203 -376v-229h-50z" />
    <glyph glyph-name="Z" unicode="Z" horiz-adv-x="442" 
d="M25 0v47l326 515h-312v43h366v-43l-330 -518h342v-44h-392z" />
    <glyph glyph-name="bracketleft" unicode="[" horiz-adv-x="283" 
d="M100 -190v974h142v-38h-99v-898h99v-38h-142z" />
    <glyph glyph-name="backslash" unicode="\" horiz-adv-x="355" 
d="M265 -62l-233 828h41l233 -828h-41z" />
    <glyph glyph-name="bracketright" unicode="]" horiz-adv-x="283" 
d="M41 -190v38h99v898h-99v38h141v-974h-141z" />
    <glyph glyph-name="asciicircum" unicode="^" horiz-adv-x="409" 
d="M38 252l137 353h66l131 -353h-53l-111 320l-121 -320h-49z" />
    <glyph glyph-name="underscore" unicode="_" horiz-adv-x="454" 
d="M21 -132v44h412v-44h-412z" />
    <glyph glyph-name="grave" unicode="`" horiz-adv-x="476" 
d="M301 536l-147 102l23 36l144 -107z" />
    <glyph glyph-name="a" unicode="a" horiz-adv-x="449" 
d="M161 -8q-60 0 -95 34.5t-35 97.5q0 40 16.5 68.5t44 43.5t55.5 21.5t58 7.5l118 2v75q0 52 -27.5 73t-91.5 21q-60 0 -120 -22l-11 39q64 26 140 26q157 0 157 -123v-276q0 -45 53 -47l-3 -37q-9 -2 -27 2q-62 10 -67 57q-25 -19 -38 -28t-50 -22t-77 -13zM323 90v141
l-119 -4q-57 -2 -92 -28t-35 -71q0 -47 25 -71t70 -24q76 0 151 57z" />
    <glyph glyph-name="b" unicode="b" horiz-adv-x="483" 
d="M228 -8q-82 0 -153 22v631h47v-208q80 40 138 40q87 0 134.5 -60t47.5 -165q0 -136 -60 -198t-154 -62zM253 436q-60 0 -131 -39v-352q46 -11 107 -11q76 0 120 54.5t44 152.5q0 195 -140 195z" />
    <glyph glyph-name="c" unicode="c" horiz-adv-x="395" 
d="M267 -9q-115 0 -171.5 58t-56.5 181q0 114 56 181t151 67q75 0 122 -27l-14 -38q-57 22 -109 22q-72 0 -114.5 -53.5t-42.5 -149.5q0 -103 43 -151t140 -48q41 0 90 14l9 -40q-51 -16 -103 -16z" />
    <glyph glyph-name="d" unicode="d" horiz-adv-x="471" 
d="M230 -9q-191 0 -191 236q0 120 61.5 186t152.5 66q50 0 101 -13v179h47v-645h-47v51q-60 -60 -124 -60zM234 33q32 0 65.5 19t54.5 43v328q-53 15 -101 15q-78 0 -121.5 -59t-43.5 -154q0 -103 40.5 -147.5t105.5 -44.5z" />
    <glyph glyph-name="e" unicode="e" horiz-adv-x="437" 
d="M250 -9q-104 0 -157 53.5t-53 180.5q0 130 53.5 192t142.5 62q161 0 161 -232v-18h-308q1 -106 43 -151t132 -45q56 0 119 23l9 -40q-64 -25 -142 -25zM89 268h259q-2 172 -118 172q-59 0 -97 -42.5t-44 -129.5z" />
    <glyph glyph-name="f" unicode="f" horiz-adv-x="250" 
d="M87 0v426h-68v41h68v36q0 79 39 115.5t103 36.5q34 0 65 -9l-7 -40q-35 7 -58 7q-48 0 -71.5 -25.5t-23.5 -83.5v-37h99v-41h-99v-426h-47z" />
    <glyph glyph-name="g" unicode="g" horiz-adv-x="469" 
d="M223 -195q-87 0 -150 29l12 43q23 -11 63 -20t69 -9q66 0 101 28.5t35 102.5v50q-49 -35 -116 -35q-40 0 -72 9.5t-62 33.5t-46.5 74t-16.5 122q0 117 61 181.5t152 64.5q71 0 146 -20v-487q0 -84 -47 -125.5t-129 -41.5zM241 33q53 0 111 39v351q-51 14 -99 14
q-79 0 -122 -56t-43 -149q0 -199 153 -199z" />
    <glyph glyph-name="h" unicode="h" horiz-adv-x="487" 
d="M70 0v645h48v-235q83 67 164 67q39 0 66.5 -10.5t41.5 -25.5t22 -41t9.5 -46t1.5 -51v-303h-46v294q0 75 -19 107.5t-86 32.5q-69 0 -154 -64v-370h-48z" />
    <glyph glyph-name="i" unicode="i" horiz-adv-x="199" 
d="M75 0v467h48v-467h-48zM74 580v69h48v-69h-48z" />
    <glyph glyph-name="j" unicode="j" horiz-adv-x="196" 
d="M-29 -190q-32 0 -46 6l7 40q24 -4 39 -4q53 0 77 32t24 96v487h48v-487q0 -170 -149 -170zM71 580v69h49v-69h-49z" />
    <glyph glyph-name="k" unicode="k" horiz-adv-x="436" 
d="M412 0h-62l-204 249l208 218h56l-210 -217zM123 0h-48v645h48v-645z" />
    <glyph glyph-name="l" unicode="l" horiz-adv-x="188" 
d="M70 0v645h48v-645h-48z" />
    <glyph glyph-name="m" unicode="m" horiz-adv-x="772" 
d="M70 0v467h48v-58q81 69 153 69q99 0 127 -70q88 70 168 70q48 0 78 -14t43 -43t16.5 -53.5t3.5 -64.5v-303h-48v294q0 35 -3 56.5t-12.5 43t-31 31t-56.5 9.5q-66 0 -149 -62q6 -31 6 -69v-303h-48v294q0 29 -1 46t-6.5 37.5t-16 31.5t-30 18.5t-47.5 7.5q-66 0 -146 -66
v-369h-48z" />
    <glyph glyph-name="n" unicode="n" horiz-adv-x="488" 
d="M70 0v467h48v-56q87 67 164 67q39 0 66.5 -11t42 -26t22.5 -41t9.5 -46t1.5 -51v-303h-47v294q0 75 -19 108t-86 33q-71 0 -154 -65v-370h-48z" />
    <glyph glyph-name="o" unicode="o" horiz-adv-x="487" 
d="M241 -9q-92 0 -147 62.5t-55 176.5q0 118 57.5 183t149.5 65q95 0 148 -63.5t53 -180.5q0 -118 -57.5 -180.5t-148.5 -62.5zM245 31q77 0 115 56t38 147q0 88 -38.5 145.5t-115.5 57.5t-116.5 -58t-39.5 -146q0 -91 40 -146.5t117 -55.5z" />
    <glyph glyph-name="p" unicode="p" horiz-adv-x="479" 
d="M70 -188v655h47v-41q71 52 134 52q89 0 138 -61.5t49 -169.5q0 -138 -60.5 -197t-159.5 -59q-43 0 -101 7v-186h-47zM221 33q80 0 124.5 51t44.5 151q0 201 -148 201q-53 0 -125 -51v-343q72 -9 104 -9z" />
    <glyph glyph-name="q" unicode="q" horiz-adv-x="469" 
d="M354 -188v207q-56 -28 -121 -28q-37 0 -68 10.5t-61 35.5t-47.5 76t-17.5 123q0 113 62 178t152 65q82 0 148 -25v-642h-47zM235 33q63 0 119 29v360q-39 16 -101 16q-79 0 -122.5 -57t-43.5 -146q0 -202 148 -202z" />
    <glyph glyph-name="r" unicode="r" horiz-adv-x="298" 
d="M70 0v467h48v-63q19 29 55 51t80 22q32 0 53 -7l-9 -41q-35 5 -51 5q-41 0 -74 -22.5t-54 -55.5v-356h-48z" />
    <glyph glyph-name="s" unicode="s" horiz-adv-x="360" 
d="M160 -9q-71 0 -127 19l11 41q66 -19 114 -19q55 0 89.5 22t34.5 60q0 34 -24 56.5t-58.5 36t-69 28.5t-58.5 45t-24 74q0 57 41 90.5t103 33.5q60 0 112 -20l-11 -39q-49 18 -100 18q-48 0 -73.5 -21.5t-25.5 -57.5q0 -34 24 -56.5t58 -36.5l68.5 -29.5t58.5 -45
t24 -72.5q0 -63 -51 -95t-116 -32z" />
    <glyph glyph-name="t" unicode="t" horiz-adv-x="313" 
d="M223 -9q-71 0 -104.5 28t-33.5 109v297h-68v42h68v96h46v-96h147v-42h-146v-296q0 -58 21.5 -76.5t74.5 -18.5q37 0 72 14l9 -41q-34 -16 -86 -16z" />
    <glyph glyph-name="u" unicode="u" horiz-adv-x="482" 
d="M201 -9q-37 0 -64 11t-41 26.5t-22 41t-9.5 46t-1.5 50.5v301h49v-292q0 -37 2.5 -57t11.5 -42t30 -31.5t56 -9.5q69 0 154 65v367h47v-467h-47v58q-85 -67 -165 -67z" />
    <glyph glyph-name="v" unicode="v" horiz-adv-x="398" 
d="M163 0l-155 467h52l104 -330l33 -103l34 103l115 330h49l-165 -467h-67z" />
    <glyph glyph-name="w" unicode="w" horiz-adv-x="718" 
d="M159 0l-150 467h50l135 -432l137 432h63l127 -432l145 432h48l-162 -467h-66l-105 354l-20 70l-19 -70l-117 -354h-66z" />
    <glyph glyph-name="x" unicode="x" horiz-adv-x="390" 
d="M9 0l159 238l-152 229h56l124 -194l122 194h54l-149 -227l160 -240h-59l-129 203l-130 -203h-56z" />
    <glyph glyph-name="y" unicode="y" horiz-adv-x="396" 
d="M117 -189l64 189h-24l-149 467h52l103 -336l30 -99l34 97l116 338h50l-229 -656h-47z" />
    <glyph glyph-name="z" unicode="z" horiz-adv-x="401" 
d="M27 0v43l284 382h-261v42h316v-41l-286 -383h293v-43h-346z" />
    <glyph glyph-name="braceleft" unicode="{" horiz-adv-x="281" 
d="M271 -190h-9q-79 0 -122 29t-41 104q0 30 7 79q0 3 7 71.5t7 70.5q2 46 -21.5 82t-61.5 36v43q38 0 61.5 35.5t21.5 83.5q0 3 -7 73.5t-7 73.5q-8 67 -6 84q1 128 162 128h9v-38h-13q-67 0 -94.5 -26t-21.5 -89l18 -176q2 -33 0 -47q-5 -103 -83 -122v-1q79 -25 83 -122
q3 -21 0 -46l-18 -178q-6 -59 23 -85t93 -26h13v-37z" />
    <glyph glyph-name="bar" unicode="|" horiz-adv-x="211" 
d="M84 -190v974h43v-974h-43z" />
    <glyph glyph-name="braceright" unicode="}" horiz-adv-x="281" 
d="M19 -190h-10v37h14q64 0 92.5 26t23.5 85l-18 178q-3 28 0 52q9 92 83 116v1q-71 17 -82 110q-4 24 -1 59l18 176q6 63 -21.5 89t-94.5 26h-14v38h10q159 0 162 -128q0 -36 -6 -84q0 -3 -7.5 -74t-7.5 -73q-2 -48 21.5 -83.5t62.5 -35.5v-43q-38 0 -62 -36t-22 -82
q0 -2 7.5 -71t7.5 -71q6 -42 6 -79q2 -75 -41 -104t-121 -29z" />
    <glyph glyph-name="asciitilde" unicode="~" horiz-adv-x="448" 
d="M312 255q-40 0 -93 23.5t-82 23.5q-43 0 -86 -25l-23 37q53 37 112 37q41 0 91 -24.5t81 -24.5q42 0 83 28l25 -34q-43 -41 -108 -41z" />
    <glyph glyph-name="uni00A0" unicode="&#xa0;" horiz-adv-x="230" 
 />
    <glyph glyph-name="exclamdown" unicode="&#xa1;" horiz-adv-x="195" 
d="M79 333h43l2 -102v-370h-48v370zM73 467h55v-66h-55v66z" />
    <glyph glyph-name="cent" unicode="&#xa2;" horiz-adv-x="388" 
d="M217 0l1 89q-91 10 -133.5 66t-42.5 166q0 99 47.5 162t127.5 73l-2 81h43l-1 -80q59 -2 102 -25l-14 -35q-56 24 -104 24q-71 0 -113.5 -54t-42.5 -145q0 -103 41.5 -150t141.5 -47q16 0 34.5 2.5t33.5 5.5t17 3l6 -35q-40 -12 -83 -13q-5 -1 -18 -1l2 -87h-43z" />
    <glyph glyph-name="sterling" unicode="&#xa3;" horiz-adv-x="401" 
d="M318 222h-167q-16 -142 -60 -184h288v-38h-339v40q32 13 49 68.5t22 113.5h-82v37h87q1 16 1.5 49.5t0.5 50.5v74q0 43 14 74.5t33.5 48.5t50 27t52 12.5t50.5 3.5l1 -37q-35 -1 -60 -6t-50 -18t-38 -40t-13 -67q2 -35 0 -70q0 -61 -4 -102h164v-37z" />
    <glyph glyph-name="currency" unicode="&#xa4;" horiz-adv-x="441" 
d="M61 107l-26 27l78 80q-30 37 -30 87q0 55 31 88l-79 81l25 26l80 -83q41 23 80 23q46 0 80 -22l80 82l25 -26l-78 -81q30 -29 30 -88q0 -56 -31 -87l78 -81l-24 -27l-80 83q-37 -21 -80 -21q-47 0 -79 22zM220 207q45 0 69.5 26.5t24.5 67.5q1 45 -23.5 70t-70.5 25
q-45 0 -70 -26t-25 -69q0 -42 25.5 -68t69.5 -26z" />
    <glyph glyph-name="yen" unicode="&#xa5;" horiz-adv-x="499" 
d="M461 597l-180 -334h165v-38h-180v-89h180v-38h-180v-98h-42v98h-175v38h175v89h-175v38h161l-170 334h48l159 -320l169 320h45z" />
    <glyph glyph-name="brokenbar" unicode="&#xa6;" horiz-adv-x="211" 
d="M82 -188v310h47v-310h-47zM82 336v309h47v-309h-47z" />
    <glyph glyph-name="section" unicode="&#xa7;" horiz-adv-x="379" 
d="M86 -175q-56 0 -89 29q5 13 17 41q42 -28 72 -28q25 0 35 23t10 50q0 33 -12 105l-52 300q-9 49 -9 85q0 100 50.5 157t144.5 57q68 0 124 -38l-21 -39q-56 34 -107 34q-43 0 -43 -66q0 -27 8 -77l56 -308q13 -69 13 -115q0 -91 -52.5 -150.5t-144.5 -59.5zM177 593
q-73 -31 -73 -150q0 -35 7 -79l56 -318q7 -40 9 -94q0 -42 -21 -75l1 -1q82 39 82 152q0 35 -9 87l-57 317q-9 54 -9 93q0 42 14 68z" />
    <glyph glyph-name="dieresis" unicode="&#xa8;" horiz-adv-x="333" 
d="M104 568h-48v71h48v-71zM274 568h-48v71h48v-71z" />
    <glyph glyph-name="copyright" unicode="&#xa9;" horiz-adv-x="693" 
d="M368 82q-84 0 -131 49.5t-47 127.5q0 82 46.5 131.5t129.5 49.5q67 0 101 -21l-13 -30q-43 16 -87 16q-61 0 -99.5 -37.5t-38.5 -105.5t40.5 -105.5t105.5 -37.5q38 0 85 15l10 -33q-49 -19 -102 -19zM342 -59q-140 0 -218.5 87t-78.5 229q0 143 83.5 228t224.5 85
q140 0 218 -87t78 -227q0 -142 -82.5 -228.5t-224.5 -86.5zM343 -22q129 0 197.5 77t68.5 202q0 123 -69.5 200.5t-191.5 77.5q-125 0 -193.5 -76.5t-68.5 -200.5q0 -122 67.5 -201t189.5 -79z" />
    <glyph glyph-name="ordfeminine" unicode="&#xaa;" horiz-adv-x="347" 
d="M138 330q-35 0 -56 20t-21 57q0 43 29 61t71 18l64 3v40q0 30 -14 39.5t-50 9.5q-19 0 -69 -13l-9 31q41 15 86 15t69 -16t24 -57v-149q0 -16 8.5 -22.5t17.5 -6.5l-5 -30q-52 4 -57 36q-46 -36 -88 -36zM145 361q7 0 15.5 2.5t16.5 6.5l16.5 8.5t14.5 8.5t12 7l5 4v61
l-62 -4q-65 0 -65 -44q0 -50 47 -50zM49 265v35h252v-35h-252z" />
    <glyph glyph-name="guillemotleft" unicode="&#xab;" horiz-adv-x="392" 
d="M146 80l-98 217l98 217l37 -13l-88 -204l87 -202zM302 80l-97 217l98 217l36 -13l-87 -204l87 -202z" />
    <glyph glyph-name="logicalnot" unicode="&#xac;" horiz-adv-x="461" 
d="M363 116v135h-318v42h362v-177h-44z" />
    <glyph glyph-name="uni00AD" unicode="&#xad;" horiz-adv-x="454" 
d="M78 291v40h298v-40h-298z" />
    <glyph glyph-name="registered" unicode="&#xae;" horiz-adv-x="435" 
d="M401 455q0 -84 -50.5 -133t-131.5 -49q-76 0 -131 46t-55 136q0 84 51.5 133.5t133.5 49.5q78 0 130.5 -46.5t52.5 -136.5zM372 455q0 73 -44 113.5t-109 40.5q-68 0 -110.5 -39.5t-42.5 -113.5q0 -56 26.5 -92.5t60 -49t70.5 -12.5q66 0 107.5 41t41.5 112zM180 363h-31
v204h70q31 0 49.5 -16t18.5 -48q0 -42 -40 -55q23 -33 34 -44q9 -12 38 -22l-4 -22q-36 0 -56 24q-20 20 -44 59q-4 -1 -19 -1h-16v-79zM257 502q0 21 -10 30.5t-33 9.5h-34v-75h30q47 0 47 35z" />
    <glyph glyph-name="macron" unicode="&#xaf;" horiz-adv-x="441" 
d="M110 584v41h218v-41h-218z" />
    <glyph glyph-name="degree" unicode="&#xb0;" horiz-adv-x="312" 
d="M154 360q-60 0 -91.5 33t-31.5 95q0 57 34 92t91 35q59 0 92 -33.5t33 -93.5t-34 -94t-93 -34zM156 395q40 0 61 24t21 69q0 43 -21.5 67.5t-60.5 24.5q-40 0 -61.5 -24.5t-21.5 -67.5q0 -46 22 -69.5t61 -23.5z" />
    <glyph glyph-name="plusminus" unicode="&#xb1;" horiz-adv-x="423" 
d="M189 122v152l-151 -1v43l151 -1v152h46l-1 -152l153 1v-43l-152 1v-152h-46zM38 0v42h349v-42h-349z" />
    <glyph glyph-name="twosuperior" unicode="&#xb2;" horiz-adv-x="247" 
d="M19 350v36q92 71 117 100q35 39 35 76q0 25 -14.5 40t-40.5 15q-39 0 -68 -24l-18 27q36 33 90 33q42 0 67 -24t25 -63q0 -29 -12 -55.5t-37.5 -51t-43.5 -38.5t-50 -36h148v-35h-198z" />
    <glyph glyph-name="threesuperior" unicode="&#xb3;" horiz-adv-x="244" 
d="M107 345q-46 0 -84 12q0 1 4 16t5 16q38 -10 72 -10q73 0 73 51q0 32 -22.5 45.5t-68.5 16.5v27q77 8 77 58q0 21 -16 32t-40 11q-22 0 -56 -12q0 5 -11 27q38 18 74 18q37 0 63 -18t26 -53q0 -53 -54 -73q32 -6 51 -26.5t19 -51.5q0 -45 -32.5 -65.5t-79.5 -20.5z" />
    <glyph glyph-name="acute" unicode="&#xb4;" horiz-adv-x="409" 
d="M145 536l-19 31l144 106l23 -34z" />
    <glyph glyph-name="uni00B5" unicode="&#xb5;" horiz-adv-x="506" 
d="M69 -188v655h48v-297q0 -71 20 -103t77 -32q11 0 22.5 2t21.5 5t22.5 8.5l20 9t19.5 10.5t16.5 10l15.5 10t12 8v369h48v-385q0 -26 9 -36.5t28 -12.5q1 0 33 4v-39q-3 0 -11 -2t-16.5 -3t-16.5 -1q-69 0 -72 64l-47 -31t-48 -22t-66 -13q-64 0 -88 37v-215h-48z" />
    <glyph glyph-name="paragraph" unicode="&#xb6;" horiz-adv-x="478" 
d="M259 -189q-35 0 -47 7l9 42q5 0 17.5 -2t20.5 -2q53 0 77 31t24 95v623h47v-624q0 -170 -148 -170zM217 240q-196 0 -196 185q0 87 45 133.5t133 46.5h70v-365h-52z" />
    <glyph glyph-name="periodcentered" unicode="&#xb7;" horiz-adv-x="162" 
d="M106 261h-51v71h51v-71z" />
    <glyph glyph-name="cedilla" unicode="&#xb8;" horiz-adv-x="372" 
d="M163 -198l-17 29q46 29 46 64q0 26 -23 62h49q19 -32 19 -62q2 -56 -74 -93z" />
    <glyph glyph-name="onesuperior" unicode="&#xb9;" horiz-adv-x="191" 
d="M91 350v263h-70v34q3 0 56 1.5t56 1.5v-300h-42z" />
    <glyph glyph-name="ordmasculine" unicode="&#xba;" horiz-adv-x="352" 
d="M302 265h-252v35h252v-35zM175 362q80 0 80 109q0 108 -80 108t-80 -111q0 -106 80 -106zM173 328q-57 0 -87 36t-30 103q0 70 32 108t88 38q118 0 118 -142q0 -69 -33 -106t-88 -37z" />
    <glyph glyph-name="guillemotright" unicode="&#xbb;" horiz-adv-x="392" 
d="M89 80l-36 15l87 202l-88 204l37 13l98 -217zM246 80l-36 15l86 202l-87 204l37 13l98 -217z" />
    <glyph glyph-name="onequarter" unicode="&#xbc;" horiz-adv-x="594" 
d="M111 345v262h-69v30q2 0 53.5 1.5t52.5 1.5v-295h-37zM469 0v74h-140v37l118 182h58v-188h51v-31h-51v-74h-36zM359 105h110v166zM65 62l-24 23l436 452l22 -23z" />
    <glyph glyph-name="onehalf" unicode="&#xbd;" horiz-adv-x="601" 
d="M118 345v262h-69v30q1 0 53 1.5t53 1.5v-295h-37zM60 62l-24 23l435 452l23 -23zM358 0v34q89 69 113 95q38 42 38 82q0 25 -15 39.5t-41 14.5q-40 0 -67 -22q0 1 -8 12l-8 11q32 32 85 32q41 0 66 -23.5t25 -61.5q0 -29 -12 -55t-38.5 -51.5t-43 -38t-49.5 -35.5h147
v-33h-192z" />
    <glyph glyph-name="threequarters" unicode="&#xbe;" horiz-adv-x="607" 
d="M123 340q-43 0 -81 12l4 14q4 14 4 15q32 -9 70 -9q75 0 75 50q0 32 -22 45.5t-68 17.5v26q77 9 77 58q0 22 -16.5 33t-40.5 11t-55 -12q-1 1 -6 12t-5 12q36 18 71 18q36 0 61.5 -18t25.5 -51q0 -52 -55 -73q32 -5 51 -25t19 -52q0 -45 -31.5 -64.5t-77.5 -19.5zM484 0
v74h-141v37l119 182h59v-188h49v-31h-49v-74h-37zM374 105h110v166zM90 62l-24 23l435 452l22 -23z" />
    <glyph glyph-name="questiondown" unicode="&#xbf;" horiz-adv-x="273" 
d="M238 -140q-39 3 -74 13.5t-67.5 29t-51.5 50.5t-19 72q0 29 15.5 55.5t37.5 47.5l44 41.5t37.5 45t15.5 49.5q0 11 -5.5 34.5t-9.5 31.5l42 8q6 -11 12 -36t6 -38q0 -33 -15 -61.5t-36.5 -49.5l-43.5 -40.5t-37 -41.5t-15 -44q0 -55 50.5 -85.5t123.5 -39.5zM158 401v66
h54v-66h-54z" />
    <glyph glyph-name="Agrave" unicode="&#xc0;" horiz-adv-x="536" 
d="M315 635l-174 67l15 41l173 -74zM-5 0l246 605h64l227 -605h-54l-89 239h-246l-95 -239h-53zM158 281h216l-104 285z" />
    <glyph glyph-name="Aacute" unicode="&#xc1;" horiz-adv-x="536" 
d="M223 635l-13 32l171 78l15 -41zM-5 0l246 605h64l227 -605h-54l-89 239h-246l-95 -239h-53zM158 281h216l-104 285z" />
    <glyph glyph-name="Acircumflex" unicode="&#xc2;" horiz-adv-x="536" 
d="M161 639l-17 33l130 68l125 -67l-18 -34l-108 56zM-5 0l246 605h64l227 -605h-54l-89 239h-246l-95 -239h-53zM158 281h216l-104 285z" />
    <glyph glyph-name="Atilde" unicode="&#xc3;" horiz-adv-x="536" 
d="M325 650q-18 0 -51.5 15.5t-49.5 15.5q-31 0 -61 -23l-19 30q44 34 80 34q22 0 54 -15t46 -15q35 0 58 22l19 -28q-33 -36 -76 -36zM-5 0l246 605h64l227 -605h-54l-89 239h-246l-95 -239h-53zM158 281h216l-104 285z" />
    <glyph glyph-name="Adieresis" unicode="&#xc4;" horiz-adv-x="536" 
d="M-5 0l246 605h64l227 -605h-54l-89 239h-246l-95 -239h-53zM158 281h216l-104 285zM208 651h-48v71h48v-71zM378 651h-48v71h48v-71z" />
    <glyph glyph-name="Aring" unicode="&#xc5;" horiz-adv-x="536" 
d="M275 635q-32 0 -54 17.5t-22 50.5q0 32 22 50.5t52 18.5q29 0 52 -17.5t23 -50.5q0 -31 -21.5 -50t-51.5 -19zM274 660q20 0 32.5 12t12.5 32q0 19 -13.5 31.5t-32.5 12.5q-20 0 -32.5 -11.5t-12.5 -31.5t13 -32.5t33 -12.5zM-5 0l246 605h64l227 -605h-54l-89 239h-246
l-95 -239h-53zM158 281h216l-104 285z" />
    <glyph glyph-name="AE" unicode="&#xc6;" horiz-adv-x="747" 
d="M-16 0l334 605h371v-41h-274v-238h255v-43h-255v-240h294v-43h-343v279h-173l-153 -279h-56zM215 322h151v242h-19z" />
    <glyph glyph-name="Ccedilla" unicode="&#xc7;" horiz-adv-x="548" 
d="M352 -9q-143 0 -226 85.5t-83 222.5q0 141 82 227.5t223 86.5q113 0 172 -31l-15 -41q-77 27 -156 27q-111 1 -182.5 -67.5t-71.5 -195.5q0 -130 74 -199.5t192 -69.5q81 0 150 23l12 -40q-69 -28 -171 -28zM313 -198l-17 29q46 29 46 64q0 26 -23 62h49q19 -32 19 -62
q2 -56 -74 -93z" />
    <glyph glyph-name="Egrave" unicode="&#xc8;" horiz-adv-x="458" 
d="M304 635l-174 67l15 41l172 -74zM80 0v605h332v-41h-281v-238h255v-43h-255v-240h294v-43h-345z" />
    <glyph glyph-name="Eacute" unicode="&#xc9;" horiz-adv-x="458" 
d="M360 716l-145 -76l-36 17l143 81zM80 0v605h332v-41h-281v-238h255v-43h-255v-240h294v-43h-345z" />
    <glyph glyph-name="Ecircumflex" unicode="&#xca;" horiz-adv-x="458" 
d="M116 672l131 68l125 -67l-18 -34l-108 56l-112 -56zM80 0v605h332v-41h-281v-238h255v-43h-255v-240h294v-43h-345z" />
    <glyph glyph-name="Edieresis" unicode="&#xcb;" horiz-adv-x="458" 
d="M80 0v605h332v-41h-281v-238h255v-43h-255v-240h294v-43h-345zM189 651h-48v71h48v-71zM359 651h-48v71h48v-71z" />
    <glyph glyph-name="Igrave" unicode="&#xcc;" horiz-adv-x="218" 
d="M138 635l-174 67l15 41l173 -74zM84 0v605h50v-605h-50z" />
    <glyph glyph-name="Iacute" unicode="&#xcd;" horiz-adv-x="218" 
d="M75 635l-12 32l172 78l14 -41zM84 0v605h50v-605h-50z" />
    <glyph glyph-name="Icircumflex" unicode="&#xce;" horiz-adv-x="218" 
d="M-2 639l-18 33l131 68l126 -67l-19 -34l-107 56zM84 0v605h50v-605h-50z" />
    <glyph glyph-name="Idieresis" unicode="&#xcf;" horiz-adv-x="218" 
d="M84 0v605h50v-605h-50zM48 651h-48v71h48v-71zM218 651h-48v71h48v-71z" />
    <glyph glyph-name="Eth" unicode="&#xd0;" horiz-adv-x="633" 
d="M37 280v41h64v284h151q153 0 242 -74t89 -227q0 -155 -86.5 -229.5t-240.5 -74.5h-155v280h-64zM152 43h110q128 0 199 63t71 192q0 134 -74.5 199t-207.5 65h-98v-241h156v-41h-156v-237z" />
    <glyph glyph-name="Ntilde" unicode="&#xd1;" horiz-adv-x="621" 
d="M367 650q-18 0 -51 15.5t-49 15.5q-33 0 -61 -23l-19 30q41 34 80 34q22 0 54 -15t46 -15q34 0 57 22l19 -28q-30 -36 -76 -36zM131 0h-51v605h68l343 -551h1l-2 86v465h50v-605h-70l-340 547h-1l2 -75v-472z" />
    <glyph glyph-name="Ograve" unicode="&#xd2;" horiz-adv-x="676" 
d="M394 635l-174 67l15 41l172 -74zM333 -10q-134 0 -213 86.5t-79 226.5q0 141 82.5 225.5t218.5 84.5t214.5 -87t78.5 -224q0 -140 -81.5 -226t-220.5 -86zM336 33q117 0 183.5 75t66.5 194t-67 194t-179 75q-117 0 -183 -74t-66 -193q0 -118 65.5 -194.5t179.5 -76.5z
" />
    <glyph glyph-name="Oacute" unicode="&#xd3;" horiz-adv-x="676" 
d="M274 635l-14 32l171 78l16 -41zM333 -10q-134 0 -213 86.5t-79 226.5q0 141 82.5 225.5t218.5 84.5t214.5 -87t78.5 -224q0 -140 -81.5 -226t-220.5 -86zM336 33q117 0 183.5 75t66.5 194t-67 194t-179 75q-117 0 -183 -74t-66 -193q0 -118 65.5 -194.5t179.5 -76.5z" />
    <glyph glyph-name="Ocircumflex" unicode="&#xd4;" horiz-adv-x="676" 
d="M229 639l-18 33l130 68l126 -67l-18 -34l-108 56zM333 -10q-134 0 -213 86.5t-79 226.5q0 141 82.5 225.5t218.5 84.5t214.5 -87t78.5 -224q0 -140 -81.5 -226t-220.5 -86zM336 33q117 0 183.5 75t66.5 194t-67 194t-179 75q-117 0 -183 -74t-66 -193q0 -118 65.5 -194.5
t179.5 -76.5z" />
    <glyph glyph-name="Otilde" unicode="&#xd5;" horiz-adv-x="676" 
d="M395 650q-19 0 -52 15.5t-49 15.5q-33 0 -61 -23l-19 30q37 34 80 34q22 0 54 -15t45 -15q35 0 58 22l19 -28q-30 -36 -75 -36zM333 -10q-134 0 -213 86.5t-79 226.5q0 141 82.5 225.5t218.5 84.5t214.5 -87t78.5 -224q0 -140 -81.5 -226t-220.5 -86zM336 33
q117 0 183.5 75t66.5 194t-67 194t-179 75q-117 0 -183 -74t-66 -193q0 -118 65.5 -194.5t179.5 -76.5z" />
    <glyph glyph-name="Odieresis" unicode="&#xd6;" horiz-adv-x="676" 
d="M333 -10q-134 0 -213 86.5t-79 226.5q0 141 82.5 225.5t218.5 84.5t214.5 -87t78.5 -224q0 -140 -81.5 -226t-220.5 -86zM336 33q117 0 183.5 75t66.5 194t-67 194t-179 75q-117 0 -183 -74t-66 -193q0 -118 65.5 -194.5t179.5 -76.5zM278 651h-48v71h48v-71zM448 651
h-48v71h48v-71z" />
    <glyph glyph-name="multiply" unicode="&#xd7;" horiz-adv-x="423" 
d="M356 99l-145 147l-143 -142l-30 30l141 142l-140 140l29 30l141 -142l144 145l30 -31l-145 -144l146 -146z" />
    <glyph glyph-name="Oslash" unicode="&#xd8;" horiz-adv-x="698" 
d="M342 -10q-124 0 -202 75l-78 -81l-25 25l79 82q-66 83 -66 212q0 141 82.5 225.5t218.5 84.5q123 0 202 -74l78 81l26 -24l-80 -83q67 -84 67 -211q0 -140 -81.5 -226t-220.5 -86zM100 304q0 -105 52 -177l367 378q-66 66 -170 66q-117 0 -183 -74t-66 -193zM345 33
q117 0 183.5 75t66.5 194q0 104 -52 176l-369 -378q67 -67 171 -67z" />
    <glyph glyph-name="Ugrave" unicode="&#xd9;" horiz-adv-x="610" 
d="M351 635l-173 67l15 41l172 -74zM305 -10q-45 0 -83.5 10t-73.5 32.5t-55 66t-20 104.5v402h50v-399q0 -50 15.5 -85t42.5 -53.5t57.5 -26.5t66.5 -8t66.5 9t57.5 30t42.5 61t15.5 95v377h50v-379q0 -67 -21.5 -116t-57 -73.5t-73.5 -35.5t-80 -11z" />
    <glyph glyph-name="Uacute" unicode="&#xda;" horiz-adv-x="610" 
d="M255 635l-13 32l171 78l15 -41zM305 -10q-45 0 -83.5 10t-73.5 32.5t-55 66t-20 104.5v402h50v-399q0 -50 15.5 -85t42.5 -53.5t57.5 -26.5t66.5 -8t66.5 9t57.5 30t42.5 61t15.5 95v377h50v-379q0 -67 -21.5 -116t-57 -73.5t-73.5 -35.5t-80 -11z" />
    <glyph glyph-name="Ucircumflex" unicode="&#xdb;" horiz-adv-x="610" 
d="M199 639l-19 33l131 68l125 -67l-18 -34l-108 56zM305 -10q-45 0 -83.5 10t-73.5 32.5t-55 66t-20 104.5v402h50v-399q0 -50 15.5 -85t42.5 -53.5t57.5 -26.5t66.5 -8t66.5 9t57.5 30t42.5 61t15.5 95v377h50v-379q0 -67 -21.5 -116t-57 -73.5t-73.5 -35.5t-80 -11z" />
    <glyph glyph-name="Udieresis" unicode="&#xdc;" horiz-adv-x="610" 
d="M305 -10q-45 0 -83.5 10t-73.5 32.5t-55 66t-20 104.5v402h50v-399q0 -50 15.5 -85t42.5 -53.5t57.5 -26.5t66.5 -8t66.5 9t57.5 30t42.5 61t15.5 95v377h50v-379q0 -67 -21.5 -116t-57 -73.5t-73.5 -35.5t-80 -11zM244 651h-48v71h48v-71zM414 651h-48v71h48v-71z" />
    <glyph glyph-name="Yacute" unicode="&#xdd;" horiz-adv-x="470" 
d="M189 635l-13 32l172 78l14 -41zM209 0v229l-195 376h55l166 -329l174 329h53l-203 -376v-229h-50z" />
    <glyph glyph-name="Thorn" unicode="&#xde;" horiz-adv-x="482" 
d="M88 0v605h51v-118h131q191 0 191 -180q0 -88 -61 -136t-170 -48h-91v-123h-51zM139 445v-279h95q175 0 175 139q0 73 -37 106.5t-114 33.5h-119z" />
    <glyph glyph-name="germandbls" unicode="&#xdf;" horiz-adv-x="477" 
d="M70 0v488q0 81 38.5 124.5t108.5 43.5q33 0 61.5 -10t50.5 -39t22 -73q0 -32 -14.5 -61.5t-32 -48t-32 -40.5t-14.5 -41q0 -29 20 -52.5t48 -40l56 -34.5t48 -45t20 -62q0 -60 -39 -88t-95 -28q-70 0 -121 19l9 40q59 -17 104 -17q97 0 97 69q0 29 -20 51t-48.5 38.5
l-57 34t-48.5 46.5t-20 68q0 32 22.5 62l45 62t22.5 69q0 39 -23 58.5t-62 19.5q-99 0 -99 -126v-487h-47z" />
    <glyph glyph-name="agrave" unicode="&#xe0;" horiz-adv-x="449" 
d="M161 -8q-60 0 -95 34.5t-35 97.5q0 40 16.5 68.5t44 43.5t55.5 21.5t58 7.5l118 2v75q0 52 -27.5 73t-91.5 21q-60 0 -120 -22l-11 39q64 26 140 26q157 0 157 -123v-276q0 -45 53 -47l-3 -37q-9 -2 -27 2q-62 10 -67 57q-25 -19 -38 -28t-50 -22t-77 -13zM323 90v141
l-119 -4q-57 -2 -92 -28t-35 -71q0 -47 25 -71t70 -24q76 0 151 57zM266 536l-147 102l23 36l144 -107z" />
    <glyph glyph-name="aacute" unicode="&#xe1;" horiz-adv-x="449" 
d="M161 -8q-60 0 -95 34.5t-35 97.5q0 40 16.5 68.5t44 43.5t55.5 21.5t58 7.5l118 2v75q0 52 -27.5 73t-91.5 21q-60 0 -120 -22l-11 39q64 26 140 26q157 0 157 -123v-276q0 -45 53 -47l-3 -37q-9 -2 -27 2q-62 10 -67 57q-25 -19 -38 -28t-50 -22t-77 -13zM323 90v141
l-119 -4q-57 -2 -92 -28t-35 -71q0 -47 25 -71t70 -24q76 0 151 57zM176 536l-19 31l144 106l23 -34z" />
    <glyph glyph-name="acircumflex" unicode="&#xe2;" horiz-adv-x="449" 
d="M161 -8q-60 0 -95 34.5t-35 97.5q0 40 16.5 68.5t44 43.5t55.5 21.5t58 7.5l118 2v75q0 52 -27.5 73t-91.5 21q-60 0 -120 -22l-11 39q64 26 140 26q157 0 157 -123v-276q0 -45 53 -47l-3 -37q-9 -2 -27 2q-62 10 -67 57q-25 -19 -38 -28t-50 -22t-77 -13zM323 90v141
l-119 -4q-57 -2 -92 -28t-35 -71q0 -47 25 -71t70 -24q76 0 151 57zM315 536l-101 79l-107 -79l-22 29l131 98l121 -97z" />
    <glyph glyph-name="atilde" unicode="&#xe3;" horiz-adv-x="449" 
d="M161 -8q-60 0 -95 34.5t-35 97.5q0 40 16.5 68.5t44 43.5t55.5 21.5t58 7.5l118 2v75q0 52 -27.5 73t-91.5 21q-60 0 -120 -22l-11 39q64 26 140 26q157 0 157 -123v-276q0 -45 53 -47l-3 -37q-9 -2 -27 2q-62 10 -67 57q-25 -19 -38 -28t-50 -22t-77 -13zM323 90v141
l-119 -4q-57 -2 -92 -28t-35 -71q0 -47 25 -71t70 -24q76 0 151 57zM269 562q-20 0 -51.5 14.5t-49.5 14.5q-31 0 -58 -20l-21 29q40 33 82 33q22 0 53.5 -15t47.5 -15q33 0 57 24l21 -29q-36 -36 -81 -36z" />
    <glyph glyph-name="adieresis" unicode="&#xe4;" horiz-adv-x="449" 
d="M161 -8q-60 0 -95 34.5t-35 97.5q0 40 16.5 68.5t44 43.5t55.5 21.5t58 7.5l118 2v75q0 52 -27.5 73t-91.5 21q-60 0 -120 -22l-11 39q64 26 140 26q157 0 157 -123v-276q0 -45 53 -47l-3 -37q-9 -2 -27 2q-62 10 -67 57q-25 -19 -38 -28t-50 -22t-77 -13zM323 90v141
l-119 -4q-57 -2 -92 -28t-35 -71q0 -47 25 -71t70 -24q76 0 151 57zM153 578h-48v71h48v-71zM323 578h-48v71h48v-71z" />
    <glyph glyph-name="aring" unicode="&#xe5;" horiz-adv-x="449" 
d="M161 -8q-60 0 -95 34.5t-35 97.5q0 40 16.5 68.5t44 43.5t55.5 21.5t58 7.5l118 2v75q0 52 -27.5 73t-91.5 21q-60 0 -120 -22l-11 39q64 26 140 26q157 0 157 -123v-276q0 -45 53 -47l-3 -37q-9 -2 -27 2q-62 10 -67 57q-25 -19 -38 -28t-50 -22t-77 -13zM323 90v141
l-119 -4q-57 -2 -92 -28t-35 -71q0 -47 25 -71t70 -24q76 0 151 57zM228 526q-38 0 -64.5 22t-26.5 61t26.5 61.5t63.5 22.5q35 0 62 -21t27 -62q0 -39 -25 -61.5t-63 -22.5zM227 556q25 0 41 14.5t16 38.5q0 25 -16.5 40.5t-40.5 15.5q-25 0 -40.5 -14.5t-15.5 -39.5
t15.5 -40t40.5 -15z" />
    <glyph glyph-name="ae" unicode="&#xe6;" horiz-adv-x="717" 
d="M531 -8q-129 0 -180 82q-1 -1 -11.5 -8.5l-14 -10t-15 -10t-18 -11t-18.5 -10.5t-21 -10.5l-21.5 -8t-24 -7t-25 -4t-26.5 -1.5q-59 0 -92 34t-33 96q0 40 16 69t43 43.5t55 21t60 7.5q114 2 117 2v78q0 54 -28 73.5t-94 19.5q-16 0 -35.5 -2.5t-32.5 -5.5t-28.5 -7
l-19.5 -5l-10 37q61 25 139 25q62 0 99 -19.5t49 -69.5q48 89 158 89q157 0 157 -222v-19l-307 -9q1 -106 43 -150t132 -44q51 0 119 19l10 -39q-53 -23 -142 -23zM167 34q72 0 171 70q-16 43 -16 125l-117 -3q-60 -2 -94.5 -28t-34.5 -70q0 -94 91 -94zM371 268l256 9
q0 73 -28 119t-87 46q-58 0 -97 -42.5t-44 -131.5z" />
    <glyph glyph-name="ccedilla" unicode="&#xe7;" horiz-adv-x="395" 
d="M267 -9q-115 0 -171.5 58t-56.5 181q0 114 56 181t151 67q75 0 122 -27l-14 -38q-57 22 -109 22q-72 0 -114.5 -53.5t-42.5 -149.5q0 -103 43 -151t140 -48q41 0 90 14l9 -40q-51 -16 -103 -16zM211 -198l-17 29q46 29 46 64q0 26 -23 62h49q19 -32 19 -62q2 -56 -74 -93
z" />
    <glyph glyph-name="egrave" unicode="&#xe8;" horiz-adv-x="437" 
d="M250 -9q-104 0 -157 53.5t-53 180.5q0 130 53.5 192t142.5 62q161 0 161 -232v-18h-308q1 -106 43 -151t132 -45q56 0 119 23l9 -40q-64 -25 -142 -25zM89 268h259q-2 172 -118 172q-59 0 -97 -42.5t-44 -129.5zM272 536l-147 102l23 36l144 -107z" />
    <glyph glyph-name="eacute" unicode="&#xe9;" horiz-adv-x="437" 
d="M250 -9q-104 0 -157 53.5t-53 180.5q0 130 53.5 192t142.5 62q161 0 161 -232v-18h-308q1 -106 43 -151t132 -45q56 0 119 23l9 -40q-64 -25 -142 -25zM89 268h259q-2 172 -118 172q-59 0 -97 -42.5t-44 -129.5zM184 536l-19 31l144 106l23 -34z" />
    <glyph glyph-name="ecircumflex" unicode="&#xea;" horiz-adv-x="437" 
d="M250 -9q-104 0 -157 53.5t-53 180.5q0 130 53.5 192t142.5 62q161 0 161 -232v-18h-308q1 -106 43 -151t132 -45q56 0 119 23l9 -40q-64 -25 -142 -25zM89 268h259q-2 172 -118 172q-59 0 -97 -42.5t-44 -129.5zM325 536l-101 79l-107 -79l-22 29l131 98l121 -97z" />
    <glyph glyph-name="edieresis" unicode="&#xeb;" horiz-adv-x="437" 
d="M250 -9q-104 0 -157 53.5t-53 180.5q0 130 53.5 192t142.5 62q161 0 161 -232v-18h-308q1 -106 43 -151t132 -45q56 0 119 23l9 -40q-64 -25 -142 -25zM89 268h259q-2 172 -118 172q-59 0 -97 -42.5t-44 -129.5zM159 578h-48v71h48v-71zM329 578h-48v71h48v-71z" />
    <glyph glyph-name="igrave" unicode="&#xec;" horiz-adv-x="189" 
d="M124 536l-147 102l23 36l144 -107zM70 0v467h48v-467h-48z" />
    <glyph glyph-name="iacute" unicode="&#xed;" horiz-adv-x="189" 
d="M57 536l-19 31l144 106l23 -34zM70 0v467h48v-467h-48z" />
    <glyph glyph-name="icircumflex" unicode="&#xee;" horiz-adv-x="189" 
d="M70 0v467h48v-467h-48zM196 536l-101 79l-107 -79l-22 29l131 98l121 -97z" />
    <glyph glyph-name="idieresis" unicode="&#xef;" horiz-adv-x="189" 
d="M33 578h-48v71h48v-71zM203 578h-48v71h48v-71zM70 0v467h48v-467h-48z" />
    <glyph glyph-name="eth" unicode="&#xf0;" horiz-adv-x="490" 
d="M242 -9q-96 0 -146.5 65t-50.5 171q0 107 53.5 172.5t147.5 65.5q78 0 121 -62q-25 93 -79 154l-86 -49l-20 28l78 44q-31 27 -70 47l27 32q1 0 13 -6t20.5 -11t22.5 -15t26 -22l87 50l19 -28l-79 -44q117 -121 117 -347q0 -106 -50 -175.5t-151 -69.5zM246 33
q80 0 114.5 56.5t34.5 139.5q0 38 -7.5 71t-24 62t-47 46t-72.5 17q-80 0 -115.5 -57.5t-35.5 -138.5q0 -83 36 -139.5t117 -56.5z" />
    <glyph glyph-name="ntilde" unicode="&#xf1;" horiz-adv-x="488" 
d="M70 0v467h48v-56q87 67 164 67q39 0 66.5 -11t42 -26t22.5 -41t9.5 -46t1.5 -51v-303h-47v294q0 75 -19 108t-86 33q-71 0 -154 -65v-370h-48zM298 562q-20 0 -51.5 14.5t-49.5 14.5q-31 0 -58 -20l-21 29q40 33 82 33q22 0 53.5 -15t47.5 -15q33 0 57 24l21 -29
q-36 -36 -81 -36z" />
    <glyph glyph-name="ograve" unicode="&#xf2;" horiz-adv-x="487" 
d="M241 -9q-92 0 -147 62.5t-55 176.5q0 118 57.5 183t149.5 65q95 0 148 -63.5t53 -180.5q0 -118 -57.5 -180.5t-148.5 -62.5zM245 31q77 0 115 56t38 147q0 88 -38.5 145.5t-115.5 57.5t-116.5 -58t-39.5 -146q0 -91 40 -146.5t117 -55.5zM293 536l-147 102l23 36
l144 -107z" />
    <glyph glyph-name="oacute" unicode="&#xf3;" horiz-adv-x="487" 
d="M241 -9q-92 0 -147 62.5t-55 176.5q0 118 57.5 183t149.5 65q95 0 148 -63.5t53 -180.5q0 -118 -57.5 -180.5t-148.5 -62.5zM245 31q77 0 115 56t38 147q0 88 -38.5 145.5t-115.5 57.5t-116.5 -58t-39.5 -146q0 -91 40 -146.5t117 -55.5zM196 536l-19 31l144 106l23 -34z
" />
    <glyph glyph-name="ocircumflex" unicode="&#xf4;" horiz-adv-x="487" 
d="M241 -9q-92 0 -147 62.5t-55 176.5q0 118 57.5 183t149.5 65q95 0 148 -63.5t53 -180.5q0 -118 -57.5 -180.5t-148.5 -62.5zM245 31q77 0 115 56t38 147q0 88 -38.5 145.5t-115.5 57.5t-116.5 -58t-39.5 -146q0 -91 40 -146.5t117 -55.5zM343 536l-101 79l-107 -79
l-22 29l131 98l121 -97z" />
    <glyph glyph-name="otilde" unicode="&#xf5;" horiz-adv-x="487" 
d="M241 -9q-92 0 -147 62.5t-55 176.5q0 118 57.5 183t149.5 65q95 0 148 -63.5t53 -180.5q0 -118 -57.5 -180.5t-148.5 -62.5zM245 31q77 0 115 56t38 147q0 88 -38.5 145.5t-115.5 57.5t-116.5 -58t-39.5 -146q0 -91 40 -146.5t117 -55.5zM293 562q-20 0 -51.5 14.5
t-49.5 14.5q-31 0 -58 -20l-21 29q40 33 82 33q22 0 53.5 -15t47.5 -15q33 0 57 24l21 -29q-36 -36 -81 -36z" />
    <glyph glyph-name="odieresis" unicode="&#xf6;" horiz-adv-x="487" 
d="M241 -9q-92 0 -147 62.5t-55 176.5q0 118 57.5 183t149.5 65q95 0 148 -63.5t53 -180.5q0 -118 -57.5 -180.5t-148.5 -62.5zM245 31q77 0 115 56t38 147q0 88 -38.5 145.5t-115.5 57.5t-116.5 -58t-39.5 -146q0 -91 40 -146.5t117 -55.5zM179 578h-48v71h48v-71zM349 578
h-48v71h48v-71z" />
    <glyph glyph-name="divide" unicode="&#xf7;" horiz-adv-x="470" 
d="M210 116v57h44v-57h-44zM45 277v37h381v-37h-381zM210 420v57h44v-57h-44z" />
    <glyph glyph-name="oslash" unicode="&#xf8;" horiz-adv-x="500" 
d="M247 -9q-83 0 -136 51l-54 -64l-24 22l56 67q-44 63 -44 163q0 118 57.5 183t149.5 65q87 0 138 -53l49 58l25 -22l-52 -62q41 -62 41 -165q0 -118 -57.5 -180.5t-148.5 -62.5zM94 233q0 -77 28 -127l237 282q-41 49 -109 49q-77 0 -116.5 -58t-39.5 -146zM251 31
q77 0 115 56t38 147q0 74 -26 125l-237 -281q41 -47 110 -47z" />
    <glyph glyph-name="ugrave" unicode="&#xf9;" horiz-adv-x="482" 
d="M201 -9q-37 0 -64 11t-41 26.5t-22 41t-9.5 46t-1.5 50.5v301h49v-292q0 -37 2.5 -57t11.5 -42t30 -31.5t56 -9.5q69 0 154 65v367h47v-467h-47v58q-85 -67 -165 -67zM276 536l-147 102l23 36l144 -107z" />
    <glyph glyph-name="uacute" unicode="&#xfa;" horiz-adv-x="482" 
d="M201 -9q-37 0 -64 11t-41 26.5t-22 41t-9.5 46t-1.5 50.5v301h49v-292q0 -37 2.5 -57t11.5 -42t30 -31.5t56 -9.5q69 0 154 65v367h47v-467h-47v58q-85 -67 -165 -67zM204 536l-19 31l144 106l23 -34z" />
    <glyph glyph-name="ucircumflex" unicode="&#xfb;" horiz-adv-x="482" 
d="M201 -9q-37 0 -64 11t-41 26.5t-22 41t-9.5 46t-1.5 50.5v301h49v-292q0 -37 2.5 -57t11.5 -42t30 -31.5t56 -9.5q69 0 154 65v367h47v-467h-47v58q-85 -67 -165 -67zM341 536l-101 79l-107 -79l-22 29l131 98l121 -97z" />
    <glyph glyph-name="udieresis" unicode="&#xfc;" horiz-adv-x="482" 
d="M201 -9q-37 0 -64 11t-41 26.5t-22 41t-9.5 46t-1.5 50.5v301h49v-292q0 -37 2.5 -57t11.5 -42t30 -31.5t56 -9.5q69 0 154 65v367h47v-467h-47v58q-85 -67 -165 -67zM177 578h-48v71h48v-71zM347 578h-48v71h48v-71z" />
    <glyph glyph-name="yacute" unicode="&#xfd;" horiz-adv-x="396" 
d="M117 -189l64 189h-24l-149 467h52l103 -336l30 -99l34 97l116 338h50l-229 -656h-47zM162 536l-19 31l144 106l23 -34z" />
    <glyph glyph-name="thorn" unicode="&#xfe;" horiz-adv-x="479" 
d="M70 -188v833h47v-219q66 50 134 50q89 0 138 -60.5t49 -168.5q0 -138 -60.5 -197t-159.5 -59q-45 0 -101 7v-186h-47zM221 33q80 0 124 51t44 151q0 199 -147 199q-56 0 -125 -49v-343q69 -9 104 -9z" />
    <glyph glyph-name="ydieresis" unicode="&#xff;" horiz-adv-x="396" 
d="M117 -189l64 189h-24l-149 467h52l103 -336l30 -99l34 97l116 338h50l-229 -656h-47zM133 578h-48v71h48v-71zM303 578h-48v71h48v-71z" />
    <glyph glyph-name="dotlessi" unicode="&#x131;" horiz-adv-x="189" 
d="M70 0v467h48v-467h-48z" />
    <glyph glyph-name="Lslash" unicode="&#x141;" horiz-adv-x="405" 
d="M22 241l-1 41l70 41v282h51v-253l122 71v-42l-122 -71v-266h263v-44h-314v281z" />
    <glyph glyph-name="lslash" unicode="&#x142;" horiz-adv-x="230" 
d="M210 360l-75 -42v-318h-48v290l-66 -37v41l66 38v313h48v-286l75 43v-42z" />
    <glyph glyph-name="OE" unicode="&#x152;" horiz-adv-x="915" 
d="M340 -10q-135 0 -214 86.5t-79 226.5q0 141 83.5 226t219.5 85q107 0 182 -61v52h323v-41h-272v-238h253v-43h-253v-240h293v-43h-344v56q-81 -66 -192 -66zM342 34q122 0 190 84v367q-67 84 -187 84q-115 0 -181 -73.5t-66 -191.5q0 -117 65 -193.5t179 -76.5z" />
    <glyph glyph-name="oe" unicode="&#x153;" horiz-adv-x="795" 
d="M241 -9q-92 0 -147 62.5t-55 176.5q0 118 57.5 183t149.5 65q131 0 177 -120q42 121 173 121q159 0 159 -232v-18h-308q1 -106 43 -151t131 -45q62 0 119 21l11 -40q-57 -23 -143 -23q-150 0 -189 116q-23 -58 -70 -87t-108 -29zM245 31q77 0 115 56t38 147
q0 88 -38.5 145.5t-115.5 57.5t-116.5 -58t-39.5 -146q0 -91 40 -146.5t117 -55.5zM447 268h257q0 77 -27.5 125.5t-88.5 48.5q-59 0 -97 -43.5t-44 -130.5z" />
    <glyph glyph-name="Scaron" unicode="&#x160;" horiz-adv-x="421" 
d="M341 704l-132 -69l-127 69l16 34l111 -57l114 57zM188 -9q-91 0 -157 35l17 42q77 -33 142 -33q57 0 104.5 28t47.5 87q0 38 -22 66.5t-55.5 44.5l-72.5 35t-72.5 37.5t-55.5 53t-22 80.5q0 68 49 107t123 39q75 0 139 -28l-16 -41q-61 26 -121 26q-55 0 -89.5 -26.5
t-34.5 -75.5q0 -42 31 -72t75 -49.5t88 -41.5t75 -60t31 -92q0 -80 -62 -121t-142 -41z" />
    <glyph glyph-name="scaron" unicode="&#x161;" horiz-adv-x="360" 
d="M160 -9q-71 0 -127 19l11 41q66 -19 114 -19q55 0 89.5 22t34.5 60q0 34 -24 56.5t-58.5 36t-69 28.5t-58.5 45t-24 74q0 57 41 90.5t103 33.5q60 0 112 -20l-11 -39q-49 18 -100 18q-48 0 -73.5 -21.5t-25.5 -57.5q0 -34 24 -56.5t58 -36.5l68.5 -29.5t58.5 -45
t24 -72.5q0 -63 -51 -95t-116 -32zM178 533l-127 96l19 29l108 -78l109 79l21 -29z" />
    <glyph glyph-name="Ydieresis" unicode="&#x178;" horiz-adv-x="470" 
d="M209 0v229l-195 376h55l166 -329l174 329h53l-203 -376v-229h-50zM173 651h-48v71h48v-71zM343 651h-48v71h48v-71z" />
    <glyph glyph-name="Zcaron" unicode="&#x17d;" horiz-adv-x="442" 
d="M356 704l-132 -69l-127 69l18 34l110 -57l113 57zM25 0v47l326 515h-312v43h366v-43l-330 -518h342v-44h-392z" />
    <glyph glyph-name="zcaron" unicode="&#x17e;" horiz-adv-x="401" 
d="M27 0v43l284 382h-261v42h316v-41l-286 -383h293v-43h-346zM200 533l-127 96l19 29l108 -78l109 79l21 -29z" />
    <glyph glyph-name="florin" unicode="&#x192;" horiz-adv-x="366" 
d="M-3 -27l-1 42q24 2 33.5 2.5t29.5 4t28.5 8t22.5 13.5t20 22t11.5 32t6.5 44l6 140h-88v44h92l7 126q3 53 19.5 88.5t46 52t60.5 23t73 6.5l2 -45q-32 -2 -46.5 -3.5t-38.5 -9t-35.5 -20t-21.5 -36.5t-12 -58l-6 -124h94v-44h-97l-7 -141q-3 -43 -15.5 -74.5t-30 -49
t-44.5 -27.5t-51.5 -13t-57.5 -3z" />
    <glyph glyph-name="circumflex" unicode="&#x2c6;" horiz-adv-x="467" 
d="M312 536l-101 79l-107 -79l-22 29l131 98l121 -97z" />
    <glyph glyph-name="caron" unicode="&#x2c7;" horiz-adv-x="462" 
d="M230 533l-127 96l19 29l108 -78l109 79l21 -29z" />
    <glyph glyph-name="breve" unicode="&#x2d8;" horiz-adv-x="417" 
d="M219 557q-79 0 -121 66l29 25q38 -50 94 -50q59 0 92 50l27 -23q-42 -68 -121 -68z" />
    <glyph glyph-name="dotaccent" unicode="&#x2d9;" horiz-adv-x="210" 
d="M80 580v69h48v-69h-48z" />
    <glyph glyph-name="ring" unicode="&#x2da;" horiz-adv-x="415" 
d="M209 526q-38 0 -64.5 22t-26.5 61t26.5 61.5t63.5 22.5q35 0 62 -21t27 -62q0 -39 -25 -61.5t-63 -22.5zM208 556q25 0 41 14.5t16 38.5q0 25 -16.5 40.5t-40.5 15.5q-25 0 -40.5 -14.5t-15.5 -39.5t15.5 -40t40.5 -15z" />
    <glyph glyph-name="ogonek" unicode="&#x2db;" horiz-adv-x="463" 
d="M395 -174q-28 -14 -62 -14q-49 0 -70.5 24t-21.5 60q0 42 41.5 79.5t87.5 58.5l19 -25q-103 -50 -103 -107q0 -50 56 -50q23 0 42 8z" />
    <glyph glyph-name="tilde" unicode="&#x2dc;" horiz-adv-x="445" 
d="M273 562q-20 0 -51.5 14.5t-49.5 14.5q-31 0 -58 -20l-21 29q40 33 82 33q22 0 53.5 -15t47.5 -15q33 0 57 24l21 -29q-36 -36 -81 -36z" />
    <glyph glyph-name="hungarumlaut" unicode="&#x2dd;" horiz-adv-x="477" 
d="M100 532l-22 31l143 112l26 -36zM268 533l-21 31l145 110l27 -38z" />
    <glyph glyph-name="pi" unicode="&#x3c0;" horiz-adv-x="511" 
d="M431 -9q-73 0 -73 84v350h-225v-425h-47v425h-63v42h454v-42h-70v-338q0 -54 42 -54q6 0 16 2.5t12 2.5l3 -39q-44 -8 -49 -8z" />
    <glyph glyph-name="dvCandrabindu" unicode="&#x901;" horiz-adv-x="0" 
d="M-110 706q-58 0 -100.5 29.5t-60.5 76.5l33 15q38 -84 128 -84t128 84l33 -15q-18 -47 -60.5 -76.5t-100.5 -29.5zM-110 834l-44 44l44 45l44 -44z" />
    <glyph glyph-name="dvAnusvara" unicode="&#x902;" horiz-adv-x="0" 
d="M-110 682l-44 44l44 45l44 -44z" />
    <glyph glyph-name="dvVisarga" unicode="&#x903;" horiz-adv-x="222" 
d="M119 376l-46 46l45 45l46 -46zM119 73l-46 46l45 45l46 -46z" />
    <glyph glyph-name="dvA" unicode="&#x905;" horiz-adv-x="569" 
d="M301 226q0 -81 -49 -119t-125 -38q-77 0 -128 22l11 36q45 -20 119 -20q129 0 129 119q0 55 -29.5 80.5t-101.5 25.5h-37v36h13q61 0 93 24.5t32 89.5q0 43 -26 67.5t-70 24.5q-38 0 -77 -14l-10 36q40 16 87 16q61 0 100 -33.5t39 -96.5q0 -102 -74 -127q43 -4 69 -29
q18 -14 45.5 -23t47.5 -9q50 0 79 22v253h-100v36h241v-36h-100v-569h-41v270q-27 -14 -74 -14q-40 0 -68 14q5 -22 5 -44z" />
    <glyph glyph-name="dvAA" unicode="&#x906;" horiz-adv-x="790" 
d="M301 226q0 -81 -49 -119t-125 -38q-77 0 -128 22l11 36q45 -20 119 -20q129 0 129 119q0 55 -29.5 80.5t-101.5 25.5h-37v36h13q61 0 93 24.5t32 89.5q0 43 -26 67.5t-70 24.5q-38 0 -77 -14l-10 36q40 16 87 16q61 0 100 -33.5t39 -96.5q0 -102 -74 -127q43 -4 69 -29
q18 -14 45.5 -23t47.5 -9q50 0 79 22v253h-100v36h462v-36h-100v-569h-41v569h-180v-569h-41v270q-27 -14 -74 -14q-40 0 -68 14q5 -22 5 -44z" />
    <glyph glyph-name="dvI" unicode="&#x907;" horiz-adv-x="409" 
d="M236 239l-70 13q-51 9 -79.5 33.5t-28.5 74.5q0 52 37 80.5t99 28.5q47 0 94 -4v104h-298v36h429v-36h-91v-143q-63 6 -124 6q-103 0 -103 -72q0 -32 17.5 -47t64.5 -25l78 -16q104 -20 104 -109q0 -61 -38.5 -92.5t-105.5 -31.5q-70 0 -116 37l67 -152l-39 -16l-94 228
l37 16q1 -2 5 -8l6 -9q44 -58 132 -58q103 0 103 87q0 31 -19 48.5t-67 26.5z" />
    <glyph glyph-name="dvII" unicode="&#x908;" horiz-adv-x="409" 
d="M236 239l-70 13q-51 9 -79.5 33.5t-28.5 74.5q0 52 37 80.5t99 28.5q47 0 94 -4v104h-298v36h270q-18 16 -32.5 46.5t-14.5 65.5q0 55 37 92t94 37q32 0 61 -9l-9 -35q-23 7 -52 7q-37 0 -63.5 -25t-26.5 -66q0 -39 19 -68.5t44 -44.5h102v-36h-91v-143q-63 6 -124 6
q-103 0 -103 -72q0 -32 17.5 -47t64.5 -25l78 -16q104 -20 104 -109q0 -61 -38.5 -92.5t-105.5 -31.5q-70 0 -116 37l67 -152l-39 -16l-94 228l37 16q1 -2 5 -8l6 -9q44 -58 132 -58q103 0 103 87q0 31 -19 48.5t-67 26.5z" />
    <glyph glyph-name="dvU" unicode="&#x909;" horiz-adv-x="370" 
d="M-10 569v36h390v-36h-144q44 -35 44 -109q0 -55 -24 -84t-55 -37q45 -2 79.5 -36.5t34.5 -106.5q0 -82 -51.5 -121t-136.5 -39q-69 0 -129 20l11 38q60 -20 115 -20q64 0 106 28t42 94q0 63 -33 89.5t-113 26.5h-41l-3 36q91 2 123 29.5t32 82.5q0 73 -51 109h-196z" />
    <glyph glyph-name="dvUU" unicode="&#x90a;" horiz-adv-x="560" 
d="M354 42l-4 37q59 1 98 33.5t39 108.5q0 57 -23 88t-65 31t-65.5 -25t-26.5 -59l-1 2q9 -25 9 -62q0 -82 -51.5 -121t-136.5 -39q-69 0 -129 20l11 38q60 -20 115 -20q64 0 106 28t42 94q0 63 -33 89.5t-113 26.5h-41l-3 36q91 2 123 29.5t32 82.5q0 73 -51 109h-196v36
h580v-36h-334q44 -35 44 -109q0 -55 -24 -84t-55 -37q51 -2 83 -41q4 24 34.5 52t80.5 28q59 0 95 -40.5t36 -116.5q0 -51 -17.5 -88.5t-45.5 -56t-56 -27t-57 -7.5z" />
    <glyph glyph-name="dvvR" unicode="&#x90b;" horiz-adv-x="689" 
d="M311 0v232l-245 -195l-26 33l253 196q-51 129 -173 129q-50 0 -95 -20l-15 39q51 21 110 21q134 0 191 -120v254h-321v36h709v-36h-347v-209h18q98 0 120 94l6 27l42 -6q-3 -16 -3 -32q0 -116 111 -116v-36q-79 -13 -120 -41.5t-41 -79.5q0 -92 111 -92q37 0 70 11
l10 -36q-38 -11 -81 -11q-69 0 -110.5 33t-41.5 95q0 63 43 96.5t95 45.5q-31 1 -54.5 29.5t-23.5 62.5q-13 -38 -48 -59.5t-83 -21.5h-20v-323h-41z" />
    <glyph glyph-name="dvEcandra" unicode="&#x90d;" horiz-adv-x="505" 
d="M252 706q-58 0 -100.5 29.5t-60.5 76.5l33 15q38 -84 128 -84t128 84l33 -15q-18 -47 -60.5 -76.5t-100.5 -29.5zM515 569h-75v-139q0 -72 -38 -107.5t-119 -44.5l-6 36q72 11 97 35.5t25 83.5v136h-278v-315q0 -89 40 -129.5t131 -40.5q76 0 142 24l10 -34
q-65 -28 -154 -28q-210 0 -210 209v314h-90v36h525v-36z" />
    <glyph glyph-name="dvEshort" unicode="&#x90e;" horiz-adv-x="505" 
d="M322 714l-96 47q-66 31 -78 90l-2 10l39 7l2 -10q5 -26 19 -38t43 -27l96 -48q47 -24 70 -54t26 -86h74v-36h-75v-139q0 -72 -38 -107.5t-119 -44.5l-6 36q72 11 97 35.5t25 83.5v136h-278v-315q0 -89 40 -129.5t131 -40.5q76 0 142 24l10 -34q-65 -28 -154 -28
q-210 0 -210 209v314h-90v36h410q-2 43 -18 65.5t-60 43.5z" />
    <glyph glyph-name="dvE" unicode="&#x90f;" horiz-adv-x="505" 
d="M515 569h-75v-139q0 -72 -38 -107.5t-119 -44.5l-6 36q72 11 97 35.5t25 83.5v136h-278v-315q0 -89 40 -129.5t131 -40.5q76 0 142 24l10 -34q-65 -28 -154 -28q-210 0 -210 209v314h-90v36h525v-36z" />
    <glyph glyph-name="dvAI" unicode="&#x910;" horiz-adv-x="505" 
d="M439 605h76v-36h-75v-139q0 -72 -38 -107.5t-119 -44.5l-6 36q72 11 97 35.5t25 83.5v136h-278v-315q0 -89 40 -129.5t131 -40.5q76 0 142 24l10 -34q-65 -28 -154 -28q-210 0 -210 209v314h-90v36h413l-196 226l31 26l68 -78q75 -86 98.5 -116t34.5 -58z" />
    <glyph glyph-name="dvOcandra" unicode="&#x911;" horiz-adv-x="790" 
d="M562 706q-58 0 -100.5 29.5t-60.5 76.5l33 15q38 -84 128 -84t128 84l33 -15q-18 -47 -60.5 -76.5t-100.5 -29.5zM301 226q0 -81 -49 -119t-125 -38q-77 0 -128 22l11 36q45 -20 119 -20q129 0 129 119q0 55 -29.5 80.5t-101.5 25.5h-37v36h13q61 0 93 24.5t32 89.5
q0 43 -26 67.5t-70 24.5q-38 0 -77 -14l-10 36q40 16 87 16q61 0 100 -33.5t39 -96.5q0 -102 -74 -127q43 -4 69 -29q18 -14 45.5 -23t47.5 -9q50 0 79 22v253h-100v36h462v-36h-100v-569h-41v569h-180v-569h-41v270q-27 -14 -74 -14q-40 0 -68 14q5 -22 5 -44z" />
    <glyph glyph-name="dvOshort" unicode="&#x912;" horiz-adv-x="790" 
d="M581 714l-96 47q-66 31 -78 90l-2 10l39 7l2 -10q5 -26 19 -38t43 -27l96 -48q47 -24 70 -54t26 -86h100v-36h-100v-569h-41v569h-180v-569h-41v270q-27 -14 -74 -14q-40 0 -68 14q5 -22 5 -44q0 -81 -49 -119t-125 -38q-77 0 -128 22l11 36q45 -20 119 -20
q129 0 129 119q0 55 -29.5 80.5t-101.5 25.5h-37v36h13q61 0 93 24.5t32 89.5q0 43 -26 67.5t-70 24.5q-38 0 -77 -14l-10 36q40 16 87 16q61 0 100 -33.5t39 -96.5q0 -102 -74 -127q43 -4 69 -29q18 -14 45.5 -23t47.5 -9q50 0 79 22v253h-100v36h321q-2 43 -18 65.5
t-60 43.5z" />
    <glyph glyph-name="dvO" unicode="&#x913;" horiz-adv-x="790" 
d="M693 605h107v-36h-100v-569h-41v569h-180v-569h-41v270q-27 -14 -74 -14q-40 0 -68 14q5 -22 5 -44q0 -81 -49 -119t-125 -38q-77 0 -128 22l11 36q45 -20 119 -20q129 0 129 119q0 55 -29.5 80.5t-101.5 25.5h-37v36h13q61 0 93 24.5t32 89.5q0 43 -26 67.5t-70 24.5
q-38 0 -77 -14l-10 36q40 16 87 16q61 0 100 -33.5t39 -96.5q0 -102 -74 -127q43 -4 69 -29q18 -14 45.5 -23t47.5 -9q50 0 79 22v253h-100v36h319l-196 226l31 26l68 -78q75 -86 98.5 -116t34.5 -58z" />
    <glyph glyph-name="dvAU" unicode="&#x914;" horiz-adv-x="790" 
d="M301 226q0 -81 -49 -119t-125 -38q-77 0 -128 22l11 36q45 -20 119 -20q129 0 129 119q0 55 -29.5 80.5t-101.5 25.5h-37v36h13q61 0 93 24.5t32 89.5q0 43 -26 67.5t-70 24.5q-38 0 -77 -14l-10 36q40 16 87 16q61 0 100 -33.5t39 -96.5q0 -102 -74 -127q43 -4 69 -29
q18 -14 45.5 -23t47.5 -9q50 0 79 22v253h-100v36h328l-240 221l26 28l159 -149q43 -41 64 -75l3 1l-61 234l37 8l41 -176q9 -40 9 -75q0 -9 -1 -17h97v-36h-100v-569h-41v569h-180v-569h-41v270q-27 -14 -74 -14q-40 0 -68 14q5 -22 5 -44z" />
    <glyph glyph-name="dvKA" unicode="&#x915;" horiz-adv-x="701" 
d="M374 569v-182q15 26 48.5 45.5t76.5 19.5q73 0 117.5 -45t44.5 -118t-45 -118t-113 -45q-28 0 -45 4l6 37q19 -3 35 -3q53 0 86 33.5t33 91.5q0 55 -32 90t-88 35q-48 0 -80 -28.5t-44 -68.5v-317h-41v193q-41 -66 -130 -66q-74 0 -118.5 45t-44.5 118q0 71 48 116
t116 45q24 0 43 -4l-5 -37q-15 3 -37 3q-53 0 -87.5 -33.5t-34.5 -89.5t32 -90.5t91 -34.5q50 0 82 28.5t45 64.5v311h-343v36h721v-36h-337z" />
    <glyph glyph-name="dvKHA" unicode="&#x916;" horiz-adv-x="715" 
d="M584 569h-367q52 -60 52 -137q0 -82 -55 -124.5t-128 -42.5q64 -194 245 -194q109 0 191 69q-27 -9 -61 -9q-65 0 -112.5 44.5t-47.5 109.5t44.5 109t111.5 44q26 0 56 -7l-8 -37q-28 6 -49 6q-47 0 -79.5 -31.5t-32.5 -83.5t34.5 -84.5t84.5 -32.5q41 0 74 13.5t47 32.5
v355zM725 569h-100v-569h-41v155q-44 -56 -108.5 -89t-139.5 -33q-217 0 -292 220l-32 18l8 32h46q71 0 115.5 31.5t44.5 97.5q0 76 -55 137h-181v36h735v-36z" />
    <glyph glyph-name="dvGA" unicode="&#x917;" horiz-adv-x="476" 
d="M59 326l47 32v211h-116v36h496v-36h-100v-569h-41v569h-198v-332h-43q-15 15 -28.5 41t-16.5 48z" />
    <glyph glyph-name="dvGHA" unicode="&#x918;" horiz-adv-x="532" 
d="M401 569h-241q-50 -39 -50 -94q0 -80 110 -80h35v-36h-25q-54 0 -88 -24t-34 -71q0 -99 126 -99q57 0 102.5 24.5t64.5 49.5v330zM542 569h-100v-569h-37v190q-66 -63 -171 -63q-81 0 -125 35.5t-44 101.5q0 47 26.5 76t59.5 36q-35 3 -59.5 28t-24.5 71q0 57 40 94h-117
v36h552v-36z" />
    <glyph glyph-name="dvNGA" unicode="&#x919;" horiz-adv-x="448" 
d="M387 294l-44 44l44 45l44 -44zM38 76l21 35q68 -51 149 -51q121 0 121 94q0 34 -19 51t-64 25l-98 18q-93 16 -93 108q0 53 37 83t95 30q55 0 106 -8v108h-303v36h468v-36h-124v-149q-116 11 -148 11q-43 0 -65.5 -20t-22.5 -55t19.5 -50t58.5 -22l97 -18q42 -8 70.5 -35
t28.5 -77q0 -62 -43.5 -97t-120.5 -35q-87 0 -170 54z" />
    <glyph glyph-name="dvCA" unicode="&#x91a;" horiz-adv-x="545" 
d="M414 247v322h-424v36h565v-36h-100v-569h-41v193q-69 -67 -171 -67q-69 0 -116.5 38.5t-47.5 111.5q0 43 18.5 74t39.5 46h-127v36h305v-36h-119q-74 -47 -74 -120q0 -56 34 -84t87 -28q105 0 171 83z" />
    <glyph glyph-name="dvCHA" unicode="&#x91b;" horiz-adv-x="593" 
d="M107 213q0 -59 51.5 -93t123.5 -34q89 0 156.5 55t67.5 157q0 44 -19.5 79.5t-61.5 35.5q-28 0 -47.5 -20t-19.5 -52q0 -39 29 -76l-34 -17q-37 43 -37 94q0 40 24.5 70t63.5 37v120h-241q-49 -36 -49 -105q0 -47 29 -71.5t94 -33.5l-4 -37h-11q-52 0 -83.5 -28
t-31.5 -81zM603 569h-161v-119q50 -7 78 -49.5t28 -101.5q0 -81 -40.5 -140t-99.5 -85t-127 -26q-90 0 -153.5 44t-63.5 121q0 56 29 90t69 44q-34 8 -62.5 36.5t-28.5 81.5q0 62 42 104h-123v36h613v-36z" />
    <glyph glyph-name="dvJA" unicode="&#x91c;" horiz-adv-x="565" 
d="M1 120l9 36q49 -14 115 -14q76 0 108.5 29.5t32.5 88.5q0 75 -66 121h-97v36h331v152h-444v36h585v-36h-100v-569h-41v381h-177q17 -13 34.5 -46.5t17.5 -74.5q0 -156 -184 -156q-76 0 -124 16z" />
    <glyph glyph-name="dvJHA" unicode="&#x91d;" horiz-adv-x="600" 
d="M88 111l67 -149l-38 -16l-88 215l40 18q23 -38 59.5 -60.5t78.5 -22.5q45 0 67.5 22t22.5 61q0 67 -63 78l-98 16q-34 6 -57.5 32t-23.5 67q0 45 35 72.5t95 27.5q42 0 78 -5v102h-273v36h620v-36h-100v-569h-40v250q-36 -14 -84 -14q-42 0 -72 10q26 -28 26 -69
q0 -54 -36.5 -86t-94.5 -32q-42 0 -75 16.5t-46 35.5zM191 435q-93 0 -93 -63q0 -53 58 -62l91 -15q13 -2 34.5 -8t42.5 -9.5t47 -3.5q64 0 99 22v273h-167v-140q-84 6 -112 6z" />
    <glyph glyph-name="dvNYA" unicode="&#x91e;" horiz-adv-x="586" 
d="M74 400l-11 36q35 11 73 11q67 0 110.5 -31.5t53.5 -88.5q41 -39 98 -39q37 0 57 12v269h-465v36h606v-36h-100v-569h-41v257q-22 -8 -55 -8q-55 0 -97 32q-5 -68 -51.5 -113t-131.5 -45q-76 0 -125 18l9 37q57 -17 116 -17q69 0 104.5 37.5t35.5 95.5q0 53 -32.5 84
t-91.5 31q-34 0 -62 -9z" />
    <glyph glyph-name="dvTTA" unicode="&#x91f;" horiz-adv-x="413" 
d="M40 236q0 86 56.5 139.5t161.5 53.5h29v140h-297v36h433v-36h-95v-179q-40 2 -65 2q-93 0 -136.5 -42t-43.5 -114q0 -73 44 -116t123 -43q63 0 117 21l10 -35q-52 -24 -127 -24q-100 0 -155 55.5t-55 141.5z" />
    <glyph glyph-name="dvTTHA" unicode="&#x920;" horiz-adv-x="479" 
d="M242 29q-81 0 -141.5 49t-60.5 142q0 122 132 183q40 18 51 32t11 46v88h-244v36h499v-36h-214v-98q0 -30 -16 -54q77 -14 129 -64t52 -133q0 -89 -57 -140t-141 -51zM397 220q0 75 -50 116.5t-124 47.5q-6 -4 -20 -10q-120 -45 -120 -154q0 -71 44 -112t116 -41
q68 0 111 41.5t43 111.5z" />
    <glyph glyph-name="dvDDA" unicode="&#x921;" horiz-adv-x="424" 
d="M38 76l21 35q24 -20 64.5 -35.5t84.5 -15.5q121 0 121 93q0 33 -20.5 50.5t-66.5 26.5l-86 18q-102 20 -102 108q0 53 37.5 83t95.5 30q55 0 106 -8v108h-303v36h444v-36h-100v-149q-101 11 -148 11q-43 0 -66 -20t-23 -55q0 -34 21.5 -49t62.5 -24l87 -17
q43 -9 73.5 -36t30.5 -77q0 -62 -43.5 -96.5t-120.5 -34.5q-95 0 -170 54z" />
    <glyph glyph-name="dvDDHA" unicode="&#x922;" horiz-adv-x="442" 
d="M452 569h-100v-182q-75 10 -115 10q-65 0 -109 -36t-44 -108q0 -78 49 -126t116 -48q50 0 79 25t29 65q0 29 -16.5 47.5t-41.5 18.5q-35 0 -50 -27l-28 26q26 39 77 39q42 0 71 -28.5t29 -75.5q0 -53 -40 -90.5t-109 -37.5q-88 0 -148 62t-60 150q0 84 55 133t133 49
q40 0 82 -6v140h-321v36h462v-36z" />
    <glyph glyph-name="dvNNA" unicode="&#x923;" horiz-adv-x="645" 
d="M655 569h-100v-569h-41v569h-156v-221q0 -80 -36.5 -122t-107.5 -42t-107.5 42.5t-36.5 121.5v221h-80v36h665v-36zM111 569v-225q0 -122 103 -122t103 122v225h-206z" />
    <glyph glyph-name="dvTA" unicode="&#x924;" horiz-adv-x="478" 
d="M488 569h-100v-569h-41v377q-46 7 -106 7q-67 0 -111 -35.5t-44 -112.5q0 -66 29 -125.5t58 -93.5l-31 -24q-34 37 -66 105t-32 138q0 88 54.5 137.5t139.5 49.5q53 0 109 -7v153h-357v36h498v-36z" />
    <glyph glyph-name="dvTHA" unicode="&#x925;" horiz-adv-x="545" 
d="M288 490q0 -30 -7 -51.5t-27.5 -44t-64 -36t-109.5 -17.5q3 -90 46 -133t117 -43q64 0 107 28.5t64 70.5v305h-68v36h209v-36h-100v-569h-41v203q-58 -76 -172 -76q-89 0 -147 57t-58 178v13l57 5q51 4 82.5 14t46 26t19 31t4.5 39q0 81 -59 81q-27 0 -41.5 -16.5
t-14.5 -46.5q0 -17 5 -34l-40 -10q-7 17 -7 42q0 46 27 74.5t71 28.5q48 0 74.5 -32.5t26.5 -86.5z" />
    <glyph glyph-name="dvDA" unicode="&#x926;" horiz-adv-x="460" 
d="M343 156q-11 -21 -45.5 -40t-81.5 -19q-79 0 -128 50t-49 128q0 82 54.5 129.5t131.5 47.5q44 0 104 -4v121h-339v36h480v-36h-100v-160q-90 6 -139 6q-70 0 -109.5 -38.5t-39.5 -100.5q0 -65 37 -103t98 -38q52 0 84.5 25.5t44.5 61.5h38v-222h-41v156z" />
    <glyph glyph-name="dvDHA" unicode="&#x927;" horiz-adv-x="541" 
d="M182 605l7 -36q-78 -36 -78 -93q0 -83 98 -83h51v-38h-41q-111 0 -111 -91q0 -99 133 -99q63 0 105 26t64 57v321h-98v36h239v-36h-100v-569h-37v197q-66 -70 -173 -70q-176 0 -176 137q0 49 25.5 77t59.5 33q-35 4 -58.5 29t-23.5 73q0 34 18.5 58.5t37.5 34.5h-134v36
h192z" />
    <glyph glyph-name="dvNA" unicode="&#x928;" horiz-adv-x="456" 
d="M33 335l27 25h265v209h-335v36h476v-36h-100v-569h-41v322h-213v-82h-44q-28 43 -35 95z" />
    <glyph glyph-name="dvPA" unicode="&#x92a;" horiz-adv-x="477" 
d="M487 605v-36h-100v-569h-41v226q-66 -32 -129 -32q-142 0 -142 148v227h-85v36h497zM346 569h-230v-219q0 -60 20.5 -89t80.5 -29q63 0 129 36v301z" />
    <glyph glyph-name="dvPHA" unicode="&#x92b;" horiz-adv-x="720" 
d="M730 605v-36h-340v-174q15 21 48.5 38.5t77.5 17.5q72 0 118 -46t46 -119q0 -82 -57.5 -128.5t-141.5 -40.5q-1 0 -4 0.5t-5 0.5l4 38q18 -2 26 -1q59 0 97 35.5t38 95.5q0 56 -34 91.5t-87 35.5q-47 0 -81.5 -24.5t-44.5 -51.5v-337h-41v234q-64 -42 -140 -42
q-134 0 -134 151v226h-85v36h740zM349 569h-233v-217q0 -60 18.5 -91t74.5 -31q77 0 140 48v291z" />
    <glyph glyph-name="dvBA" unicode="&#x92c;" horiz-adv-x="497" 
d="M221 147q40 0 74 17l-178 220q-34 -37 -34 -96q0 -61 38 -101t100 -40zM507 569h-100v-569h-40v181q-16 -27 -54 -49.5t-92 -22.5q-80 0 -130.5 51.5t-50.5 127.5q0 82 54.5 130.5t128.5 48.5q35 0 60 -8l-8 -35q-22 5 -47 5q-47 0 -84 -22l181 -223q34 31 42 68v317
h-377v36h517v-36z" />
    <glyph glyph-name="dvBHA" unicode="&#x92d;" horiz-adv-x="559" 
d="M209 491v-180q8 1 27 1h192v257h-105v36h246v-36h-100v-569h-41v276h-219v-77h-43q-39 39 -46 93q23 11 48 15v184q0 81 -59 81q-27 0 -41.5 -16.5t-14.5 -44.5q0 -29 12 -56l-36 -13q-17 34 -17 72q0 43 26.5 69.5t70.5 26.5q48 0 74 -32.5t26 -86.5z" />
    <glyph glyph-name="dvMA" unicode="&#x92e;" horiz-adv-x="497" 
d="M366 0v276h-228v-77h-43q-39 39 -46 93q23 11 48 15v262h-107v36h517v-36h-100v-569h-41zM138 569v-258q8 1 27 1h201v257h-228z" />
    <glyph glyph-name="dvYA" unicode="&#x92f;" horiz-adv-x="530" 
d="M540 569h-100v-569h-41v184q-55 -57 -151 -57q-92 0 -146 55.5t-60 160.5q-1 9 -1 27q89 1 124.5 23.5t35.5 66.5q0 67 -42 109h-169v36h550v-36zM249 165q53 0 91.5 21t58.5 47v336h-195q40 -46 40 -109q0 -54 -41 -88t-117 -34q4 -86 47 -129.5t116 -43.5z" />
    <glyph glyph-name="dvRA" unicode="&#x930;" horiz-adv-x="334" 
d="M344 569h-127q52 -60 52 -137q0 -87 -56 -127t-132 -39l191 -255l-34 -24l-187 253l-37 33l8 30h48q70 0 113 31t43 98q0 76 -55 137h-181v36h354v-36z" />
    <glyph glyph-name="dvRxA" unicode="&#x931;" horiz-adv-x="334" 
d="M344 569h-127q52 -60 52 -137q0 -87 -56 -127t-132 -39l191 -255l-34 -24l-187 253l-37 33l8 30h48q70 0 113 31t43 98q0 76 -55 137h-181v36h354v-36zM63 -19l-44 44l44 45l44 -44z" />
    <glyph glyph-name="dvLA" unicode="&#x932;" horiz-adv-x="602" 
d="M285 338q8 35 37 56t69 21q42 0 80 -15v169h-481v36h622v-36h-100v-569h-41v362q-37 15 -81 15q-84 0 -84 -119v-68h-41v69q0 52 -22 85t-69 33q-40 0 -65.5 -32.5t-25.5 -96.5q0 -44 11 -81.5t31.5 -66t34 -44t34.5 -33.5l-27 -29q-49 39 -88 103.5t-39 150.5
q0 79 38 123t96 44q49 0 76.5 -23t34.5 -54z" />
    <glyph glyph-name="dvLLA" unicode="&#x933;" horiz-adv-x="711" 
d="M206 88q-71 0 -118.5 49.5t-47.5 135.5q0 87 47.5 140t124.5 53q98 0 155 -81q37 72 117 80v104h-494v36h731v-36h-200v-104q66 -6 108 -53t42 -131q0 -85 -47.5 -139t-124.5 -54q-97 0 -157 82q-36 -82 -136 -82zM337 285q7 37 14 58q-55 86 -141 86q-56 0 -92 -41.5
t-36 -113.5q0 -73 37 -111t91 -38q59 0 84.5 39t42.5 121zM376 280q-9 -45 -17 -68q18 -26 33 -42.5t44 -30.5t65 -14q56 0 92 42.5t36 112.5q0 76 -36.5 112.5t-91.5 36.5q-58 0 -83.5 -37t-41.5 -112z" />
    <glyph glyph-name="dvVA" unicode="&#x935;" horiz-adv-x="497" 
d="M507 569h-100v-569h-40v181q-16 -27 -54 -49.5t-92 -22.5q-80 0 -130.5 51.5t-50.5 127.5q0 82 54.5 130.5t128.5 48.5q35 0 60 -8l-8 -35q-22 5 -47 5q-61 0 -103 -36t-42 -105q0 -61 38 -101t100 -40q64 0 101 34.5t45 70.5v317h-377v36h517v-36z" />
    <glyph glyph-name="dvSHA" unicode="&#x936;" horiz-adv-x="585" 
d="M454 0v569h-88v36h229v-36h-100v-569h-41zM86 264l178 -254l-35 -23l-179 257l-36 28l8 33q47 -4 74 -4q185 3 185 149q0 58 -23.5 89.5t-65.5 31.5q-34 0 -54.5 -21.5t-20.5 -59.5q0 -27 10 -47l-39 -15q-14 26 -14 62q0 54 33.5 86.5t84.5 32.5q62 0 97 -43t35 -112
q0 -100 -64 -147.5t-174 -42.5z" />
    <glyph glyph-name="dvSSA" unicode="&#x937;" horiz-adv-x="494" 
d="M225 170q-73 0 -111.5 39t-38.5 113v247h-85v36h514v-36h-100v-569h-40v208q-71 -38 -139 -38zM364 569h-248l191 -231q40 -50 57 -77v308zM225 208q59 0 117 29l-174 209q-29 35 -52 70v-186q0 -61 23 -91.5t86 -30.5z" />
    <glyph glyph-name="dvSA" unicode="&#x938;" horiz-adv-x="598" 
d="M363 301q59 0 104 24v244h-250q52 -60 52 -137q0 -60 -31 -101q52 -30 125 -30zM608 569h-100v-569h-41v282q-43 -20 -102 -20q-85 0 -153 42q-52 -41 -130 -39l190 -254l-34 -24l-187 253l-37 33l8 30h48q70 0 113 31t43 98q0 76 -55 137h-181v36h618v-36z" />
    <glyph glyph-name="dvHA" unicode="&#x939;" horiz-adv-x="447" 
d="M209 472q69 0 115 -10v107h-334v36h467v-36h-91v-146q-115 11 -158 11q-97 0 -97 -68q0 -51 36 -78q38 16 88 16q80 0 116.5 -33t36.5 -89q0 -21 -6 -39l-42 10q5 20 5 30q0 41 -24.5 62t-85.5 21q-62 0 -97 -28.5t-35 -84.5q0 -62 41 -98.5t121 -36.5q54 0 100 12l7 -38
q-59 -11 -107 -11q-89 0 -147 43.5t-58 128.5q0 77 55 117q-47 33 -47 96q0 53 38 79.5t103 26.5z" />
    <glyph glyph-name="dvNukta" unicode="&#x93c;" horiz-adv-x="0" 
d="M0 -123l-44 44l44 45l44 -44z" />
    <glyph glyph-name="dvAvagraha" unicode="&#x93d;" horiz-adv-x="466" 
d="M208 -10q-103 0 -171 32l14 36q74 -30 155 -30q90 0 137 32.5t47 89.5q0 17 -4.5 31.5t-18.5 29.5l-22 24t-33 24.5l-32.5 20l-37.5 22.5q-35 20 -55.5 34t-45 35.5t-36 46.5t-11.5 54q0 70 54 101.5t127 31.5h133v-38h-121q-151 0 -151 -95q0 -22 9.5 -40.5t33 -38
t39 -29.5t51.5 -31l15 -9q34 -20 55.5 -34.5t45.5 -36.5t35.5 -48t11.5 -56q0 -81 -63 -120t-161 -39z" />
    <glyph glyph-name="dvmAA" unicode="&#x93e;" 
d="M90 0v569h-100v36h241v-36h-100v-569h-41z" />
    <glyph glyph-name="dvmI" unicode="&#x93f;" 
d="M285 809q-80 0 -117 -38.5t-37 -103.5v-62h100v-36h-100v-569h-41v569h-100v36h100v64q0 81 50.5 129.5t143.5 48.5q94 0 186.5 -45.5t138.5 -105.5l-29 -24q-40 53 -123.5 95t-171.5 42z" />
    <glyph glyph-name="dvmII" unicode="&#x940;" 
d="M90 0v569h-100v36h99v120q0 84 -68 84q-50 0 -79.5 -37.5t-34.5 -107.5l-39 4q3 78 44 128.5t110 50.5q56 0 82 -33.5t26 -87.5v-121h101v-36h-100v-569h-41z" />
    <glyph glyph-name="dvmU" unicode="&#x941;" horiz-adv-x="0" 
d="M-178 -42l-14 35q36 18 79 18q55 0 93 -29.5t38 -90.5q0 -56 -39.5 -92.5t-107.5 -36.5q-145 0 -267 180l35 23q45 -69 104.5 -117t127.5 -48q53 0 78.5 26t25.5 65q0 81 -90 81q-32 0 -63 -14z" />
    <glyph glyph-name="dvmUU" unicode="&#x942;" horiz-adv-x="0" 
d="M-94 -199l4 -38q-10 -2 -28 -2q-55 0 -95.5 31.5t-40.5 93.5q0 53 39 89.5t100 36.5q152 0 257 -232l-36 -16q-16 37 -36 69.5t-48 66.5t-63.5 54t-73.5 20q-47 0 -71.5 -25.5t-24.5 -62.5q0 -40 25 -63t70 -23q15 0 22 1z" />
    <glyph glyph-name="dvmvR" unicode="&#x943;" horiz-adv-x="0" 
d="M-91 40v-40q-130 -41 -130 -132q0 -86 96 -86q43 0 76 11l6 -36q-39 -11 -83 -11q-66 0 -102 32.5t-36 89.5q0 65 49 107.5t124 64.5z" />
    <glyph glyph-name="dvmEcandra" unicode="&#x945;" horiz-adv-x="0" 
d="M-110 706q-58 0 -100.5 29.5t-60.5 76.5l33 15q38 -84 128 -84t128 84l33 -15q-18 -47 -60.5 -76.5t-100.5 -29.5z" />
    <glyph glyph-name="dvmEshort" unicode="&#x946;" horiz-adv-x="0" 
d="M-209 714l-96 47q-66 31 -78 90l-2 10l39 7l2 -10q5 -26 18.5 -38t43.5 -27l96 -48q50 -24 72.5 -56.5t23.5 -93.5h-41q-1 48 -16.5 72.5t-61.5 46.5z" />
    <glyph glyph-name="dvmE" unicode="&#x947;" horiz-adv-x="0" 
d="M-95 605h-36l-196 226l31 26l68 -78q75 -86 98.5 -116t34.5 -58z" />
    <glyph glyph-name="dvmAI" unicode="&#x948;" horiz-adv-x="0" 
d="M-120 630l3 1l-61 234l37 8l41 -176q9 -41 9 -75q0 -9 -1 -17h-37l-240 221l26 28l159 -149q43 -41 64 -75z" />
    <glyph glyph-name="dvmOcandra" unicode="&#x949;" 
d="M90 0v569h-100v36h241v-36h-100v-569h-41zM102 706q-58 0 -100.5 29.5t-60.5 76.5l33 15q38 -84 128 -84t128 84l33 -15q-18 -47 -60.5 -76.5t-100.5 -29.5z" />
    <glyph glyph-name="dvmOshort" unicode="&#x94a;" 
d="M90 0v569h-100v36h101q-2 43 -18 65.5t-60 43.5l-96 47q-66 31 -78 90l-2 10l39 7l2 -10q5 -26 19 -38t43 -27l96 -48q47 -24 70 -54t26 -86h99v-36h-100v-569h-41z" />
    <glyph glyph-name="dvmO" unicode="&#x94b;" 
d="M90 0v569h-100v36h99l-196 226l31 26l68 -78q75 -86 98.5 -116t34.5 -58h106v-36h-100v-569h-41z" />
    <glyph glyph-name="dvmAU" unicode="&#x94c;" 
d="M90 0v569h-100v36h102l-240 221l26 28l159 -149q43 -41 64 -75l3 1l-61 234l37 8l41 -176q9 -41 9 -75q0 -9 -1 -17h102v-36h-100v-569h-41z" />
    <glyph glyph-name="dvVirama" unicode="&#x94d;" horiz-adv-x="0" 
d="M-111 -30l174 -150l-25 -27l-174 147z" />
    <glyph glyph-name="dvOm" unicode="&#x950;" horiz-adv-x="821" 
d="M589 0l-17 39q25 9 51.5 29t53.5 51t44.5 78.5t17.5 101.5q0 72 -27 111.5t-75 39.5q-25 0 -42 -8t-27.5 -28t-16 -36t-13.5 -50l-12.5 -50t-13.5 -39.5t-19.5 -35t-27 -18.5t-39.5 -9q-21 0 -40 11q1 -6 1 -19q0 -80 -53.5 -129t-145.5 -49q-56 0 -112 18.5t-84 40.5
l22 37q30 -23 79.5 -38.5t95.5 -15.5q67 0 111 34.5t44 101.5q0 126 -168 126h-30l-4 41q80 3 123.5 31t43.5 96q0 54 -33.5 82.5t-94.5 28.5q-51 0 -84 -11l-8 37q48 12 95 12q70 0 119 -37t49 -113q0 -60 -32 -95t-78 -44q88 -4 126 -72q23 -35 59 -35q16 0 27.5 8.5
t19.5 27.5t12 33t10 42q8 37 15.5 58.5t22.5 49t41 41t62 13.5q65 0 105 -48.5t40 -141.5q0 -112 -62.5 -191.5t-130.5 -106.5zM524 693l-44 44l44 45l44 -44zM525 561q-58 0 -100.5 29.5t-60.5 76.5l33 15q38 -84 128 -84t128 84l33 -15q-18 -47 -60.5 -76.5t-100.5 -29.5z
" />
    <glyph glyph-name="dvKxA" unicode="&#x958;" horiz-adv-x="701" 
d="M374 569v-182q15 26 48.5 45.5t76.5 19.5q73 0 117.5 -45t44.5 -118t-45 -118t-113 -45q-28 0 -45 4l6 37q19 -3 35 -3q53 0 86 33.5t33 91.5q0 55 -32 90t-88 35q-48 0 -80 -28.5t-44 -68.5v-317h-41v193q-41 -66 -130 -66q-74 0 -118.5 45t-44.5 118q0 71 48 116
t116 45q24 0 43 -4l-5 -37q-15 3 -37 3q-53 0 -87.5 -33.5t-34.5 -89.5t32 -90.5t91 -34.5q50 0 82 28.5t45 64.5v311h-343v36h721v-36h-337zM151 -43l-44 44l44 45l44 -44z" />
    <glyph glyph-name="dvKHxA" unicode="&#x959;" horiz-adv-x="715" 
d="M584 569h-367q52 -60 52 -137q0 -82 -55 -124.5t-128 -42.5q64 -194 245 -194q109 0 191 69q-27 -9 -61 -9q-65 0 -112.5 44.5t-47.5 109.5t44.5 109t111.5 44q26 0 56 -7l-8 -37q-28 6 -49 6q-47 0 -79.5 -31.5t-32.5 -83.5t34.5 -84.5t84.5 -32.5q41 0 74 13.5t47 32.5
v355zM725 569h-100v-569h-41v155q-44 -56 -108.5 -89t-139.5 -33q-217 0 -292 220l-32 18l8 32h46q71 0 115.5 31.5t44.5 97.5q0 76 -55 137h-181v36h735v-36zM92 -63l-44 44l44 45l44 -44z" />
    <glyph glyph-name="dvGxA" unicode="&#x95a;" horiz-adv-x="476" 
d="M59 326l47 32v211h-116v36h496v-36h-100v-569h-41v569h-198v-332h-43q-15 15 -28.5 41t-16.5 48zM123 -12l-44 44l44 45l44 -44z" />
    <glyph glyph-name="dvJxA" unicode="&#x95b;" horiz-adv-x="565" 
d="M1 120l9 36q49 -14 115 -14q76 0 108.5 29.5t32.5 88.5q0 75 -66 121h-97v36h331v152h-444v36h585v-36h-100v-569h-41v381h-177q17 -13 34.5 -46.5t17.5 -74.5q0 -156 -184 -156q-76 0 -124 16zM294 -47l-44 44l44 45l44 -44z" />
    <glyph glyph-name="dvDDxA" unicode="&#x95c;" horiz-adv-x="424" 
d="M38 76l21 35q24 -20 64.5 -35.5t84.5 -15.5q121 0 121 93q0 33 -20.5 50.5t-66.5 26.5l-86 18q-102 20 -102 108q0 53 37.5 83t95.5 30q55 0 106 -8v108h-303v36h444v-36h-100v-149q-101 11 -148 11q-43 0 -66 -20t-23 -55q0 -34 21.5 -49t62.5 -24l87 -17
q43 -9 73.5 -36t30.5 -77q0 -62 -43.5 -96.5t-120.5 -34.5q-95 0 -170 54zM216 -133l-44 44l44 45l44 -44z" />
    <glyph glyph-name="dvDDHxA" unicode="&#x95d;" horiz-adv-x="442" 
d="M452 569h-100v-182q-75 10 -115 10q-65 0 -109 -36t-44 -108q0 -78 49 -126t116 -48q50 0 79 25t29 65q0 29 -16.5 47.5t-41.5 18.5q-35 0 -50 -27l-28 26q26 39 77 39q42 0 71 -28.5t29 -75.5q0 -53 -40 -90.5t-109 -37.5q-88 0 -148 62t-60 150q0 84 55 133t133 49
q40 0 82 -6v140h-321v36h462v-36zM271 -131l-44 44l44 45l44 -44z" />
    <glyph glyph-name="dvPHxA" unicode="&#x95e;" horiz-adv-x="720" 
d="M730 605v-36h-340v-174q15 21 48.5 38.5t77.5 17.5q72 0 118 -46t46 -119q0 -82 -57.5 -128.5t-141.5 -40.5q-1 0 -4 0.5t-5 0.5l4 38q18 -2 26 -1q59 0 97 35.5t38 95.5q0 56 -34 91.5t-87 35.5q-47 0 -81.5 -24.5t-44.5 -51.5v-337h-41v234q-64 -42 -140 -42
q-134 0 -134 151v226h-85v36h740zM349 569h-233v-217q0 -60 18.5 -91t74.5 -31q77 0 140 48v291zM164 -26l-44 44l44 45l44 -44z" />
    <glyph glyph-name="danda" unicode="&#x964;" horiz-adv-x="331" 
d="M200 0v605h41v-605h-41z" />
    <glyph glyph-name="doubledanda" unicode="&#x965;" horiz-adv-x="550" 
d="M200 0v605h41v-605h-41zM419 0v605h41v-605h-41z" />
    <glyph glyph-name="dvZero" unicode="&#x966;" horiz-adv-x="456" 
d="M93 301q0 -119 33 -192.5t102 -73.5t102 73.5t33 192.5t-33 192.5t-102 73.5t-102 -73.5t-33 -192.5zM406 301q0 -132 -43.5 -218t-134.5 -86t-134.5 86t-43.5 218t43.5 218t134.5 86t134.5 -86t43.5 -218z" />
    <glyph glyph-name="dvOne" unicode="&#x967;" horiz-adv-x="409" 
d="M70 478q0 56 38 94t99 38q66 0 101.5 -41.5t35.5 -95.5q0 -164 -207 -265q61 -33 83.5 -72.5t22.5 -95.5v-40h-44v39q0 55 -22 84t-90 70l6 39q104 49 152 100q-86 6 -130.5 49.5t-44.5 96.5zM112 478q0 -47 39.5 -78t121.5 -33q29 45 29 106q0 44 -26.5 71.5t-67.5 27.5
t-68.5 -26t-27.5 -68z" />
    <glyph glyph-name="dvTwo" unicode="&#x968;" horiz-adv-x="443" 
d="M60 264l12 38q50 -3 84 -3q77 0 126.5 30.5t49.5 100.5q0 64 -36 98t-93 34q-67 0 -108 -14l-12 35q50 18 120 18q84 0 128 -48t44 -123q0 -81 -59 -126t-152 -45q-18 0 -41 2l210 -264l-34 -26l-202 258z" />
    <glyph glyph-name="dvThree" unicode="&#x969;" horiz-adv-x="434" 
d="M144 48l61 -79l-34 -25l-134 181l34 29q42 -46 126 -46q57 0 95.5 27.5t38.5 88.5q0 52 -31.5 83t-87.5 32l-93 -14l-7 40l32 5q29 4 47 8t40 12t34 19t20.5 29.5t8.5 43.5q0 91 -105 91q-64 0 -112 -17l-12 37q63 19 120 19q68 0 110 -33t42 -97q0 -89 -75 -117
q45 -2 78.5 -41t33.5 -100q0 -78 -51.5 -117t-122.5 -39q-60 0 -95 24z" />
    <glyph glyph-name="dvFour" unicode="&#x96a;" horiz-adv-x="462" 
d="M231 -2q-73 0 -120 42.5t-47 103.5q0 54 29.5 107t109.5 139l-184 184l29 27l183 -181l183 181l29 -27l-184 -184q80 -86 109.5 -139t29.5 -107q0 -61 -47 -103.5t-120 -42.5zM231 36q60 0 92 32t32 75q0 46 -23 89.5t-101 127.5q-78 -84 -101 -127.5t-23 -89.5
q0 -43 32 -75t92 -32z" />
    <glyph glyph-name="dvFive" unicode="&#x96b;" horiz-adv-x="490" 
d="M356 386l135 -381l-41 -13l-70 201q-65 -46 -146 -46q-80 0 -133.5 53t-53.5 140q0 76 33 142t89 136l32 -22q-113 -131 -113 -256q0 -78 42 -116.5t101 -38.5q78 0 136 48l-49 140z" />
    <glyph glyph-name="dvSix" unicode="&#x96c;" horiz-adv-x="453" 
d="M412 -51l-56 174q-18 -23 -55.5 -41.5t-83.5 -18.5q-70 0 -114.5 40t-44.5 110q0 60 33.5 93t73.5 42q-24 2 -55.5 35.5t-31.5 92.5q0 63 45.5 99.5t114.5 36.5q63 0 120 -17l-10 -38q-46 16 -115 16q-51 0 -81.5 -27t-30.5 -70q0 -48 28.5 -75.5t67.5 -32.5l116 14
l4 -38l-75 -9q-84 -11 -122.5 -38.5t-38.5 -83.5q0 -54 31.5 -82t85.5 -28q48 0 80.5 18.5t46.5 42.5l35 9l70 -213z" />
    <glyph glyph-name="dvSeven" unicode="&#x96d;" horiz-adv-x="511" 
d="M173 462q0 74 38.5 110t83.5 36q166 0 166 -287q0 -75 -12 -133.5t-31 -93t-45 -56.5t-50.5 -30t-50.5 -8q-97 0 -159.5 97t-62.5 275q0 110 26 210l42 -5q-25 -107 -25 -205q0 -167 52 -249.5t128 -82.5q50 0 90.5 48t51.5 161q-109 0 -175.5 63.5t-66.5 149.5zM418 321
q0 249 -122 249q-27 0 -53.5 -24.5t-26.5 -82.5q0 -84 57 -129t138 -45h6q1 10 1 32z" />
    <glyph glyph-name="dvEight" unicode="&#x96e;" horiz-adv-x="416" 
d="M362 77l19 -35q-70 -44 -153 -44q-78 0 -130.5 45.5t-52.5 120.5q0 82 64 174t240 266l31 -25q-168 -167 -230 -256t-62 -161q0 -58 40 -92t97 -34q78 0 137 41z" />
    <glyph glyph-name="dvNine" unicode="&#x96f;" horiz-adv-x="438" 
d="M178 312q66 0 114.5 33.5t48.5 100.5q0 56 -34 89.5t-89 33.5q-56 0 -88.5 -34t-32.5 -83q0 -40 13 -71t43 -67l1 -2h24zM217 9q42 47 42 81q0 26 -20 51l-121 151q-63 78 -63 158q0 66 44.5 111.5t117.5 45.5q74 0 120 -44.5t46 -115.5q0 -82 -58 -127t-130 -45h-11
l93 -114q27 -33 27 -72q0 -49 -47 -101z" />
    <glyph glyph-name="dvAbbreviationsign" unicode="&#x970;" horiz-adv-x="370" 
d="M312 261q0 -59 -38 -95t-92 -36t-90.5 36t-36.5 95q0 58 38.5 94t92.5 36t90 -36t36 -94zM184 166q38 0 64 25.5t26 68.5q0 44 -26 69.5t-64 25.5t-64 -25.5t-26 -69.5q0 -43 26 -68.5t64 -25.5z" />
    <glyph glyph-name="swastika" unicode="&#xfd5;" horiz-adv-x="749" 
d="M677 322v-322h-41v283h-241v-283h-323v39h282v244h-282v322h41v-283h241v283h323v-39h-282v-244h282z" />
    <glyph glyph-name="zerowidthnonjoiner" unicode="&#x200c;" horiz-adv-x="0" 
d="M-75 732l-28 28l76 74l-76 75l28 28l75 -76l74 76l28 -28l-76 -75l76 -74l-28 -28l-74 75z" />
    <glyph glyph-name="zerowidthjoiner" unicode="&#x200d;" horiz-adv-x="0" 
d="M135 835h-36v46h-200v-46h-36v81h272v-81z" />
    <glyph glyph-name="endash" unicode="&#x2013;" horiz-adv-x="542" 
d="M69 224v41h404v-41h-404z" />
    <glyph glyph-name="emdash" unicode="&#x2014;" horiz-adv-x="787" 
d="M69 224v41h648v-41h-648z" />
    <glyph glyph-name="quoteleft" unicode="&#x2018;" horiz-adv-x="157" 
d="M57 542v46q0 78 30 138h38q-26 -56 -26 -113v-71h-42z" />
    <glyph glyph-name="quoteright" unicode="&#x2019;" horiz-adv-x="157" 
d="M41 541q25 59 25 112v72h43v-47q0 -75 -30 -137h-38z" />
    <glyph glyph-name="quotesinglbase" unicode="&#x201a;" horiz-adv-x="175" 
d="M39 -104q22 46 22 98v68h46v-46q0 -62 -29 -120h-39z" />
    <glyph glyph-name="quotedblleft" unicode="&#x201c;" horiz-adv-x="279" 
d="M57 542v46q0 78 30 138h38q-26 -56 -26 -113v-71h-42zM179 542v46q0 78 30 138h38q-26 -56 -26 -113v-71h-42z" />
    <glyph glyph-name="quotedblright" unicode="&#x201d;" horiz-adv-x="283" 
d="M45 541q25 59 25 112v72h43v-47q0 -75 -30 -137h-38zM167 541q25 59 25 112v72h43v-47q0 -77 -31 -137h-37z" />
    <glyph glyph-name="quotedblbase" unicode="&#x201e;" horiz-adv-x="244" 
d="M27 -104q22 50 22 98v68h44v-46q0 -66 -29 -120h-37zM139 -104q21 48 21 98v68h45v-46q0 -70 -30 -120h-36z" />
    <glyph glyph-name="dagger" unicode="&#x2020;" horiz-adv-x="376" 
d="M163 0l5 451l-142 -3v45l141 -3l-4 155h50l-3 -155l141 3v-45l-141 3l3 -451h-50z" />
    <glyph glyph-name="daggerdbl" unicode="&#x2021;" horiz-adv-x="400" 
d="M175 0l3 155l-141 -3v46l141 -4v257l-141 -3v45l141 -3l-3 155h49l-2 -155l141 3v-45l-141 3v-257l141 4v-46l-141 3l2 -155h-49z" />
    <glyph glyph-name="bullet" unicode="&#x2022;" horiz-adv-x="418" 
d="M209 193q-59 0 -98.5 37.5t-39.5 99.5t40 100t98 38q60 0 99 -36.5t39 -101.5q0 -59 -40 -98t-98 -39z" />
    <glyph glyph-name="ellipsis" unicode="&#x2026;" horiz-adv-x="628" 
d="M71 0v68h56v-68h-56zM284 0v68h56v-68h-56zM502 0v68h55v-68h-55z" />
    <glyph glyph-name="perthousand" unicode="&#x2030;" horiz-adv-x="922" 
d="M155 336q-54 0 -88 34t-34 100t36 103.5t88 37.5q55 0 90 -33.5t35 -103.5q0 -64 -36.5 -101t-90.5 -37zM155 374q38 0 61.5 26t23.5 74t-22 74.5t-61 26.5q-35 0 -58.5 -27t-23.5 -78q0 -96 80 -96zM467 -8q-54 0 -88.5 34t-34.5 101q0 66 36 104t88 38q56 0 90.5 -33.5
t34.5 -103.5q0 -65 -36 -102.5t-90 -37.5zM467 30q37 0 60.5 26.5t23.5 75.5q0 48 -22 74t-61 26q-35 0 -58 -27t-23 -78q0 -48 21 -72.5t59 -24.5zM764 -8q-54 0 -88 34t-34 101q0 66 35.5 104t88.5 38q55 0 89.5 -33.5t34.5 -103.5q0 -65 -36 -102.5t-90 -37.5zM764 30
q37 0 61 26.5t24 75.5q0 48 -22 74t-61 26q-35 0 -58.5 -27t-23.5 -78q0 -48 21 -72.5t59 -24.5zM94 52l-27 28l446 457l27 -29z" />
    <glyph glyph-name="guilsinglleft" unicode="&#x2039;" horiz-adv-x="236" 
d="M146 80l-98 217l98 217l37 -13l-88 -204l87 -202z" />
    <glyph glyph-name="guilsinglright" unicode="&#x203a;" horiz-adv-x="236" 
d="M87 80l-36 16l87 201l-88 204l37 13l98 -217z" />
    <glyph glyph-name="fraction" unicode="&#x2044;" horiz-adv-x="111" 
d="M-152 62l-26 26l443 458l24 -26z" />
    <glyph glyph-name="Euro" unicode="&#x20ac;" horiz-adv-x="485" 
d="M316 -6q-103 0 -158.5 58t-73.5 149h-67v37h63q-2 21 -2 57q0 32 3 62h-64v38h70q20 93 77.5 149t151.5 56q73 0 134 -28l-13 -34q-56 25 -121 25q-149 0 -186 -168h219v-38h-225q-3 -27 -3 -57q0 -29 3 -62h225v-37h-218q33 -169 195 -169q22 0 43.5 3t33.5 6t23 7t12 4
l14 -34q-62 -24 -136 -24z" />
    <glyph glyph-name="trademark" unicode="&#x2122;" horiz-adv-x="657" 
d="M282 300v304h55l99 -272l105 272h53v-304h-38v252l-98 -252h-48l-90 252v-252h-38zM122 300v269h-102v35h242v-35h-101v-269h-39z" />
    <glyph glyph-name="uni2126" unicode="&#x2126;" horiz-adv-x="705" 
d="M29 0v45h208q-68 27 -120.5 101.5t-52.5 167.5q0 140 78.5 220t214.5 80q137 0 211 -83t74 -219q0 -86 -53.5 -161t-122.5 -106h210v-45h-259v48q75 45 124.5 116t49.5 149q0 116 -63.5 185.5t-175.5 69.5q-116 0 -176 -68t-60 -186q0 -62 27 -115.5t61 -85.5t83 -65v-48
h-258z" />
    <glyph glyph-name="partialdiff" unicode="&#x2202;" horiz-adv-x="460" 
d="M227 -11q-84 0 -133 40.5t-49 144.5q0 77 49 134t135 57q59 0 133 -17q-15 95 -71 149.5t-128 75.5l15 42q29 -8 55.5 -19.5t62 -38t61 -61t43.5 -92t18 -127.5q0 -288 -191 -288zM223 31q77 0 111 61t34 184q0 4 -0.5 15t-0.5 15q-82 17 -141 17q-64 0 -98.5 -43.5
t-34.5 -111.5q0 -69 34 -103t96 -34z" />
    <glyph glyph-name="uni2206" unicode="&#x2206;" horiz-adv-x="555" 
d="M484 44l-157 409l-43 115l-48 -119l-165 -405h413zM555 0h-552l249 605h68z" />
    <glyph glyph-name="product" unicode="&#x220f;" horiz-adv-x="562" 
d="M80 -187v751h-86v41h576v-41h-87v-751h-50v751h-303v-751h-50z" />
    <glyph glyph-name="summation" unicode="&#x2211;" horiz-adv-x="394" 
d="M18 -188v41l161 356l-162 354v42h367v-43h-318l161 -352l-159 -354h316v-44h-366z" />
    <glyph glyph-name="minus" unicode="&#x2212;" horiz-adv-x="437" 
d="M28 277v37h381v-37h-381z" />
    <glyph glyph-name="radical" unicode="&#x221a;" horiz-adv-x="484" 
d="M214 0l-105 424h-118v43h159l84 -353l18 -75l21 77l173 600h47l-206 -716h-73z" />
    <glyph glyph-name="infinity" unicode="&#x221e;" horiz-adv-x="794" 
d="M181 135q-66 0 -100 39t-34 91q0 56 36.5 96t100.5 40q22 0 43.5 -5.5t47 -20t39 -23t45 -31.5l39.5 -29l32.5 24l35.5 26t33.5 21.5t37.5 20t35 12t39 5.5q66 0 100.5 -39t34.5 -92q0 -54 -36 -94t-102 -40q-22 0 -44 5.5t-48 20.5l-39 23t-44.5 31.5l-38.5 28.5
l-37.5 -28t-45.5 -32l-39 -23t-48.5 -21.5t-42.5 -5.5zM185 175q14 0 31 5t29.5 10.5t33 18t29 18.5l30.5 22t25 18q-2 2 -18.5 14t-22.5 16l-21.5 15t-24 16t-23 12.5t-25 11t-23 6.5t-23.5 3q-43 0 -67.5 -28t-24.5 -65q0 -39 25 -66t70 -27zM611 175q43 0 67.5 28
t24.5 65q0 39 -25.5 66t-68.5 27q-10 0 -20 -1.5t-21.5 -6l-20 -8t-22 -11.5l-20 -12t-21.5 -14.5t-19 -13t-19.5 -14t-16.5 -12.5q2 -2 21.5 -16t26.5 -18.5l25 -16.5t28.5 -17l26 -12t28.5 -10t26 -3z" />
    <glyph glyph-name="integral" unicode="&#x222b;" horiz-adv-x="269" 
d="M-45 -198l-4 43q26 1 33.5 1.5t30 3.5t30.5 7.5l23 13.5t20.5 21.5t11 32t5.5 44.5v480q0 42 12 72.5t30 48t46 28t54 14t59 3.5l2 -43q-26 -1 -32.5 -1.5t-29.5 -3.5t-30.5 -7.5l-23 -13.5t-21.5 -21.5t-11.5 -32t-5.5 -44.5v-478q0 -52 -16.5 -87.5t-47 -52t-62 -22.5
t-73.5 -6z" />
    <glyph glyph-name="approxequal" unicode="&#x2248;" horiz-adv-x="481" 
d="M328 149q-40 0 -93.5 25.5t-82.5 25.5q-43 0 -81 -26l-23 32q51 41 108 41q40 0 90.5 -25.5t81.5 -25.5q41 0 78 27l25 -30q-47 -44 -103 -44zM328 313q-40 0 -93.5 26t-82.5 26q-44 0 -81 -27l-23 33q48 41 108 41q40 0 90.5 -26t81.5 -26q39 0 78 27l25 -30
q-49 -44 -103 -44z" />
    <glyph glyph-name="notequal" unicode="&#x2260;" horiz-adv-x="446" 
d="M28 31l100 137h-99v41h130l96 133h-226v41h258l86 117h44l-87 -117h87v-41h-118l-95 -133h213v-41h-244l-100 -137h-45z" />
    <glyph glyph-name="lessequal" unicode="&#x2264;" horiz-adv-x="467" 
d="M407 135l-346 135v65l346 135v-46l-314 -122l314 -121v-46zM57 0v43h352v-43h-352z" />
    <glyph glyph-name="greaterequal" unicode="&#x2265;" horiz-adv-x="467" 
d="M61 135v46l312 121l-312 122v46l346 -135v-65zM57 0v43h352v-43h-352z" />
    <glyph glyph-name="lozenge" unicode="&#x25ca;" horiz-adv-x="424" 
d="M175 0l-156 304l164 302h62l157 -304l-163 -302h-64zM208 36l141 265l-136 270l-141 -266z" />
    <glyph glyph-name="dottedcircle" unicode="&#x25cc;" horiz-adv-x="593" 
d="M264 70q0 13 9.5 22t22.5 9t22 -9t9 -22t-9 -22.5t-22 -9.5q-14 0 -23 9t-9 23zM350 87q0 13 9.5 22.5t22.5 9.5t22 -9.5t9 -22.5t-9 -22.5t-22 -9.5t-22.5 9.5t-9.5 22.5zM427 137q0 13 9 22.5t22 9.5t22.5 -9.5t9.5 -22.5t-9.5 -22.5t-22.5 -9.5t-22 9.5t-9 22.5z
M476 210q0 13 9 22t22 9t22.5 -9t9.5 -22q0 -14 -9.5 -23t-22.5 -9t-22 9.5t-9 22.5zM494 300q0 13 9.5 22t22.5 9t22.5 -9t9.5 -22t-9.5 -22.5t-22.5 -9.5q-14 0 -23 9t-9 23zM477 385q0 13 9 22.5t22 9.5q14 0 23 -9.5t9 -22.5t-9.5 -22t-22.5 -9t-22 9t-9 22zM428 461
q0 13 9 22.5t22 9.5t22.5 -9.5t9.5 -22.5t-9.5 -22.5t-22.5 -9.5t-22 9.5t-9 22.5zM355 510q0 14 9.5 23t22.5 9t22 -9.5t9 -22.5t-9 -22t-22 -9t-22.5 9t-9.5 22zM265 529q0 13 9.5 22t22.5 9t22.5 -9t9.5 -22t-9.5 -22.5t-22.5 -9.5t-22.5 9.5t-9.5 22.5zM179 513
q0 13 9.5 22.5t22.5 9.5t22.5 -9.5t9.5 -22.5t-9.5 -22t-22.5 -9t-22.5 9t-9.5 22zM103 460q0 13 9 22.5t22 9.5t22.5 -9.5t9.5 -22.5t-9.5 -22.5t-22.5 -9.5t-22 9.5t-9 22.5zM53 390q0 13 9.5 22t22.5 9t22.5 -9t9.5 -22q0 -14 -9.5 -23t-22.5 -9t-22.5 9.5t-9.5 22.5z
M35 300q0 13 9.5 22t22.5 9t22 -9t9 -22t-9 -22.5t-22 -9.5t-22.5 9t-9.5 23zM51 214q0 13 9.5 22t22.5 9t22.5 -9t9.5 -22q0 -14 -9.5 -23t-22.5 -9t-22.5 9.5t-9.5 22.5zM103 136q0 13 9 22.5t22 9.5t22.5 -9.5t9.5 -22.5t-9.5 -22.5t-22.5 -9.5t-22 9.5t-9 22.5zM176 88
q0 13 9.5 22.5t22.5 9.5t22.5 -9.5t9.5 -22.5t-9.5 -22.5t-22.5 -9.5t-22.5 9.5t-9.5 22.5z" />
    <glyph glyph-name="fi" unicode="&#xfb01;" horiz-adv-x="465" 
d="M87 0v426h-68v41h68v37q0 88 36.5 124.5t105.5 36.5q14 0 51.5 -2.5t55.5 -2.5q37 -2 53 0l6 -38q-26 -7 -76 -7q-12 1 -45.5 3.5t-45.5 2.5q-53 0 -73.5 -29t-20.5 -89v-36h261v-467h-49v426h-212v-426h-47z" />
    <glyph glyph-name="fl" unicode="&#xfb02;" horiz-adv-x="466" 
d="M87 0v426h-68v41h68v35q0 162 144 162q15 0 51 -3t53 -3q9 0 31 1t28 1v-660h-49v615q-18 0 -56 3t-58 3q-56 0 -76.5 -29t-20.5 -86v-39h101v-41h-101v-426h-47z" />
    <glyph glyph-name="dvK_SSA" horiz-adv-x="645" 
d="M354 0h-41v133q-13 -21 -42.5 -39t-75.5 -18q-72 0 -116.5 41.5t-44.5 112.5q0 63 43 104t110 59q-20 8 -41 35.5t-21 68.5q0 47 31.5 80t79.5 33t79 -32t31 -80q0 -45 -23.5 -73t-54.5 -39q44 -17 116 -17t130 23v177h-102v36h243v-36h-100v-569h-41v353
q-60 -21 -128 -21q-99 0 -164 34q-145 -34 -145 -137q0 -55 33.5 -85t84.5 -30q47 0 77.5 25.5t40.5 63.5h41v-203zM167 497q0 -35 19 -56.5t43 -30.5q28 5 51.5 26.5t23.5 61.5q0 33 -18 54t-50 21q-33 0 -51 -21.5t-18 -54.5z" />
    <glyph glyph-name="dvJ_NYA" horiz-adv-x="572" 
d="M441 0v407h-242q137 -71 137 -178q0 -58 -39 -99.5t-107 -41.5q-38 0 -72 15t-50 31l-1 -1q31 -39 96 -162l-40 -20l-119 235l32 19q71 -79 154 -79q51 0 77 30.5t26 72.5q0 46 -34.5 88t-127.5 89l11 37h299v126h-451v36h592v-36h-100v-569h-41z" />
    <glyph glyph-name="ITF" horiz-adv-x="1475" 
d="M80 0v605h187v-605h-187zM305 428v177h187v-177h-187zM530 0v605h187v-605h-187zM756 428v177h187v-177h-187zM981 0v605h187v-605h-187zM1206 428v177h187v-177h-187zM1206 214v176h187v-176h-187z" />
    <glyph glyph-name="dvReph" horiz-adv-x="0" 
d="M-89 604h-58q-18 15 -33 46t-15 67q0 55 37 92t94 37q32 0 61 -9l-9 -35q-23 7 -52 7q-37 0 -63.5 -25t-26.5 -66q0 -39 19.5 -68.5t45.5 -45.5z" />
    <glyph glyph-name="dvEyelash" horiz-adv-x="229" 
d="M292 305q-43 -16 -102 -16q-58 0 -105 14.5t-70 32.5l17 30q65 -39 154 -39q51 0 96 14zM239 569h-249v36h249v-36z" />
    <glyph glyph-name="dvRAc2" horiz-adv-x="0" 
d="M-224 -34l-152 -150l-28 28l180 176l180 -176l-28 -28z" />
    <glyph glyph-name="dvK" horiz-adv-x="520" 
d="M627 396l-32 -28q-33 46 -97 46q-48 0 -80 -28.5t-44 -68.5v-317h-41v193q-41 -66 -130 -66q-74 0 -118.5 45t-44.5 118q0 71 48 116t116 45q24 0 43 -4l-5 -37q-15 3 -37 3q-53 0 -87.5 -33.5t-34.5 -89.5t32 -90.5t91 -34.5q50 0 82 28.5t45 64.5v311h-343v36h540v-36
h-156v-182q15 26 48.5 45.5t76.5 19.5q84 0 128 -56z" />
    <glyph glyph-name="dvKH" horiz-adv-x="520" 
d="M594 223l25 -18q-44 -77 -118.5 -124.5t-164.5 -47.5q-217 0 -292 220l-32 18l8 32h46q71 0 115.5 31.5t44.5 97.5q0 76 -55 137h-181v36h540v-36h-313q52 -60 52 -137q0 -82 -55 -124.5t-128 -42.5q64 -194 245 -194q109 0 191 69q-27 -9 -61 -9q-65 0 -112.5 44.5
t-47.5 109.5t44.5 109t111.5 44q26 0 56 -7l-8 -37q-28 6 -49 6q-47 0 -79.5 -31.5t-32.5 -83.5t34.5 -84.5t84.5 -32.5q87 0 131 55z" />
    <glyph glyph-name="dvG" horiz-adv-x="248" 
d="M59 326l47 32v211h-116v36h298v-36h-141v-332h-43q-15 15 -28.5 41t-16.5 48z" />
    <glyph glyph-name="dvGH" horiz-adv-x="369" 
d="M107 569h-117v36h389v-36h-219q-50 -39 -50 -94q0 -80 110 -80h35v-36h-25q-54 0 -88 -24t-34 -71q0 -99 126 -99q110 0 184 78l27 -27q-87 -89 -211 -89q-81 0 -125 35.5t-44 101.5q0 47 26.5 76t59.5 36q-35 3 -59.5 28t-24.5 71q0 57 40 94z" />
    <glyph glyph-name="dvC" horiz-adv-x="363" 
d="M373 569h-383v36h383v-36zM450 224q-76 -98 -202 -98q-72 0 -120.5 38.5t-48.5 111.5q0 43 18.5 74t39.5 46h-127v36h305v-36h-119q-74 -47 -74 -120q0 -56 35.5 -84t90.5 -28q106 0 174 84z" />
    <glyph glyph-name="dvJ" horiz-adv-x="397" 
d="M257 381q20 -15 36 -48.5t16 -72.5q0 -156 -184 -156q-76 0 -124 16l9 36q49 -14 115 -14q76 0 108.5 29.5t32.5 88.5q0 75 -66 121h-95v36h370v-36h-218zM407 569h-417v36h417v-36z" />
    <glyph glyph-name="dvJH" horiz-adv-x="421" 
d="M486 294l10 -35q-55 -21 -111 -21q-31 0 -71 8q26 -28 26 -69q0 -54 -36.5 -86t-94.5 -32q-42 0 -75 16.5t-46 35.5l67 -149l-38 -16l-88 215l40 18q3 -5 9 -13q50 -70 129 -70q45 0 67.5 22t22.5 61q0 67 -63 78l-98 16q-34 6 -57.5 32t-23.5 67q0 45 35 72.5t95 27.5
q42 0 78 -5v102h-273v36h441v-36h-128v-140q-84 6 -112 6q-93 0 -93 -63q0 -53 58 -62l91 -15q13 -2 38 -8.5t48 -9.5t56 -3q52 0 97 20z" />
    <glyph glyph-name="dvNY" horiz-adv-x="414" 
d="M74 400l-11 36q35 11 73 11q66 0 109.5 -30.5t53.5 -86.5q40 -42 99 -42q42 0 70 20l18 -33q-33 -26 -86 -26q-57 0 -97 33q-5 -68 -51 -113.5t-132 -45.5q-76 0 -125 18l9 37q57 -17 116 -17q69 0 104.5 37.5t35.5 95.5q0 53 -32.5 84t-91.5 31q-34 0 -62 -9zM424 569
h-434v36h434v-36z" />
    <glyph glyph-name="dvNN" horiz-adv-x="425" 
d="M435 569h-77v-220q0 -80 -37 -122.5t-108 -42.5t-107 43t-36 122v220h-80v36h445v-36zM111 569v-224q0 -123 102 -123q104 0 104 123v224h-206z" />
    <glyph glyph-name="dvT" horiz-adv-x="287" 
d="M297 569h-307v36h307v-36zM387 408l-7 -37q-77 13 -136 13q-68 0 -113.5 -35.5t-45.5 -112.5q0 -66 29 -126.5t57 -92.5l-31 -24q-34 36 -65.5 104t-31.5 139q0 88 56 137.5t142 49.5q72 0 146 -15z" />
    <glyph glyph-name="dvTH" horiz-adv-x="367" 
d="M417 258l32 -23q-80 -108 -199 -108q-92 0 -152.5 57t-60.5 178v13l57 5q51 4 82.5 14t46 26t19 31t4.5 39q0 81 -59 81q-27 0 -41.5 -16.5t-14.5 -46.5q0 -17 5 -34l-40 -10q-7 17 -7 42q0 46 27 74.5t71 28.5q48 0 74.5 -32.5t26.5 -86.5q0 -30 -7 -51.5t-27.5 -44
t-64 -36t-109.5 -17.5q3 -90 48.5 -133t122.5 -43q100 0 166 93z" />
    <glyph glyph-name="dvD" horiz-adv-x="460" 
d="M343 156q-11 -21 -45.5 -40t-81.5 -19q-79 0 -128 50t-49 128q0 82 54.5 129.5t131.5 47.5q44 0 104 -4v121h-339v36h480v-36h-100v-160q-90 6 -139 6q-70 0 -109.5 -38.5t-39.5 -100.5q0 -65 37 -103t98 -38q52 0 84.5 25.5t44.5 61.5h38v-222h-41v156zM362 -30
l174 -150l-25 -27l-174 147z" />
    <glyph glyph-name="dvDH" horiz-adv-x="383" 
d="M182 605l7 -36q-25 -14 -38.5 -23t-26.5 -28t-13 -42q0 -83 98 -83h51v-38h-41q-111 0 -111 -91q0 -99 133 -99q106 0 181 75l27 -28q-85 -85 -208 -85q-176 0 -176 137q0 49 25.5 77t59.5 33q-35 4 -58.5 29t-23.5 73q0 34 18.5 58.5t37.5 34.5h-134v36h192zM393 569
h-81v36h81v-36z" />
    <glyph glyph-name="dvN" horiz-adv-x="274" 
d="M284 569h-294v36h294v-36zM33 335l27 25h274v-38h-222v-82h-44q-28 43 -35 95z" />
    <glyph glyph-name="dvP" horiz-adv-x="314" 
d="M368 281l19 -31q-77 -56 -170 -56q-142 0 -142 148v227h-85v36h334v-36h-208v-219q0 -60 20.5 -89t80.5 -29q80 0 151 49z" />
    <glyph glyph-name="dvPH" horiz-adv-x="541" 
d="M640 396l-29 -27q-40 44 -95 44q-47 0 -80.5 -24t-45.5 -52v-337h-41v234q-64 -42 -140 -42q-134 0 -134 151v226h-85v36h561v-36h-161v-174q14 21 48 38.5t78 17.5q77 0 124 -55zM349 569h-233v-217q0 -60 18.5 -91t74.5 -31q77 0 140 48v291z" />
    <glyph glyph-name="dvB" horiz-adv-x="340" 
d="M380 243l32 -18q-62 -116 -188 -116q-82 0 -133 50t-51 128q0 82 54.5 131t128.5 49q35 0 60 -8l-8 -35q-22 5 -47 5q-44 0 -78 -19l170 -235q36 23 60 68zM224 147q34 0 64 11l-167 230q-38 -38 -38 -101t38 -101.5t103 -38.5zM350 569h-360v36h360v-36z" />
    <glyph glyph-name="dvBH" horiz-adv-x="401" 
d="M409 569h-86v36h86v-36zM209 491v-180q8 1 27 1h236v-36h-263v-77h-43q-39 39 -46 93q23 11 48 15v184q0 81 -59 81q-27 0 -41.5 -16.5t-14.5 -44.5q0 -29 12 -56l-36 -13q-17 34 -17 72q0 43 26.5 69.5t70.5 26.5q48 0 74 -32.5t26 -86.5z" />
    <glyph glyph-name="dvM" horiz-adv-x="340" 
d="M392 276h-254v-77h-43q-39 39 -46 93q23 11 48 15v262h-107v36h360v-36h-212v-258q8 1 27 1h227v-36z" />
    <glyph glyph-name="dvY" horiz-adv-x="363" 
d="M451 216q-82 -89 -195 -89q-93 0 -150.5 54.5t-66.5 158.5q0 5 -0.5 15t-0.5 15q89 1 124.5 23.5t35.5 66.5q0 67 -42 109h-166v36h383v-36h-172q40 -46 40 -109q0 -54 -41 -88t-117 -34q6 -86 52.5 -129.5t121.5 -43.5q98 0 166 78z" />
    <glyph glyph-name="dvL" horiz-adv-x="407" 
d="M417 569h-427v36h427v-36zM503 377l-21 -29q-43 29 -89 29q-87 0 -87 -119v-68h-41v69q0 52 -22 85t-69 33q-40 0 -65.5 -32.5t-25.5 -96.5q0 -44 11 -81.5t31.5 -66t34 -44t34.5 -33.5l-27 -29q-49 39 -88 103.5t-39 150.5q0 79 38 123t96 44q49 0 77.5 -23.5
t35.5 -53.5q9 35 38 56t69 21q59 0 109 -38z" />
    <glyph glyph-name="dvV" horiz-adv-x="335" 
d="M382 243l30 -18q-61 -116 -187 -116q-82 0 -133.5 50.5t-51.5 128.5q0 82 54.5 130.5t128.5 48.5q35 0 60 -8l-8 -35q-22 5 -47 5q-61 0 -103 -36.5t-42 -104.5q0 -63 38.5 -102t103.5 -39q104 0 157 96zM345 569h-355v36h355v-36z" />
    <glyph glyph-name="dvSH" horiz-adv-x="363" 
d="M86 264l178 -254l-35 -23l-179 257l-36 28l8 33q47 -4 74 -4q185 3 185 149q0 58 -23.5 89.5t-65.5 31.5q-34 0 -54.5 -21.5t-20.5 -59.5q0 -27 10 -47l-39 -15q-14 26 -14 62q0 54 33.5 86.5t84.5 32.5q62 0 97 -43t35 -112q0 -100 -64 -147.5t-174 -42.5z" />
    <glyph glyph-name="dvSS" horiz-adv-x="332" 
d="M385 267l22 -31q-91 -66 -182 -66q-73 0 -111.5 39t-38.5 113v247h-85v36h352v-36h-226l191 -231q34 -40 63 -82q10 8 15 11zM225 208q63 0 116 30l-173 208q-24 29 -52 71v-187q0 -61 23 -91.5t86 -30.5z" />
    <glyph glyph-name="dvS" horiz-adv-x="416" 
d="M449 275q-41 -13 -84 -13q-85 0 -153 42q-52 -41 -130 -39l190 -254l-34 -24l-187 253l-37 33l8 30h48q70 0 113 31t43 98q0 76 -55 137h-181v36h436v-36h-209q52 -60 52 -137q0 -60 -31 -101q52 -30 125 -30q40 0 75 11z" />
    <glyph glyph-name="dvH" horiz-adv-x="411" 
d="M208 472q69 0 115 -10v107h-333v36h431v-36h-56v-146q-116 11 -158 11q-97 0 -97 -69q0 -55 46 -90q22 6 48 6h262v-37h-260q-46 0 -75 -24.5t-29 -70.5q0 -62 40.5 -96.5t121.5 -34.5q54 0 100 12l7 -38q-59 -11 -107 -11q-90 0 -147.5 41.5t-57.5 126.5q0 72 62 110
q-54 41 -54 106q0 53 38 80t103 27z" />
    <glyph glyph-name="dvLL" horiz-adv-x="701" 
d="M201 88q-71 0 -118.5 49.5t-47.5 135.5q0 87 47.5 140t124.5 53q98 0 155 -81q40 81 138 81q72 0 119 -48t47 -137q0 -85 -47.5 -139t-124.5 -54q-97 0 -157 82q-36 -82 -136 -82zM332 285q7 37 14 58q-55 86 -141 86q-56 0 -92 -41.5t-36 -113.5q0 -73 37 -111t91 -38
q59 0 84.5 39t42.5 121zM371 280q-9 -45 -17 -68q18 -26 33 -42.5t44 -30.5t65 -14q56 0 92 42.5t36 112.5q0 76 -36.5 112.5t-91.5 36.5q-58 0 -83.5 -37t-41.5 -112zM711 569h-721v36h721v-36z" />
    <glyph glyph-name="dvK_SS" horiz-adv-x="446" 
d="M355 0h-41v133q-13 -21 -42.5 -39t-75.5 -18q-72 0 -116.5 41.5t-44.5 112.5q0 117 152 164q-20 8 -40.5 35t-20.5 68q0 47 31.5 80t79.5 33t79 -32t31 -80q0 -45 -23.5 -73t-54.5 -39q54 -21 115 -21q76 0 140 34l12 -35q-68 -36 -150 -36q-90 0 -161 37
q-147 -34 -147 -136q0 -55 33.5 -85t84.5 -30q47 0 78 24.5t40 64.5h41v-203zM168 497q0 -35 19 -56.5t43 -30.5q28 5 51.5 26.5t23.5 61.5q0 33 -18 54t-50 21q-33 0 -51 -21.5t-18 -54.5zM456 569h-43v36h43v-36z" />
    <glyph glyph-name="dvJ_NY" horiz-adv-x="415" 
d="M437 605v-36h-447v36h447zM123 -49l-119 235l32 19q71 -79 154 -79q51 0 77 30.5t26 72.5q0 46 -34.5 88t-127.5 89l11 37h363v-36h-306q137 -71 137 -178q0 -58 -39 -99.5t-107 -41.5q-38 0 -72 15t-50 31l-1 -1q31 -39 96 -162z" />
    <glyph glyph-name="dvKx" horiz-adv-x="520" 
d="M627 396l-32 -28q-33 46 -97 46q-48 0 -80 -28.5t-44 -68.5v-317h-41v193q-41 -66 -130 -66q-74 0 -118.5 45t-44.5 118q0 71 48 116t116 45q24 0 43 -4l-5 -37q-15 3 -37 3q-53 0 -87.5 -33.5t-34.5 -89.5t32 -90.5t91 -34.5q50 0 82 28.5t45 64.5v311h-343v36h540v-36
h-156v-182q15 26 48.5 45.5t76.5 19.5q84 0 128 -56zM158 -12l-44 44l44 45l44 -44z" />
    <glyph glyph-name="dvKHx" horiz-adv-x="520" 
d="M594 223l25 -18q-44 -77 -118.5 -124.5t-164.5 -47.5q-217 0 -292 220l-32 18l8 32h46q71 0 115.5 31.5t44.5 97.5q0 76 -55 137h-181v36h540v-36h-313q52 -60 52 -137q0 -82 -55 -124.5t-128 -42.5q64 -194 245 -194q109 0 191 69q-27 -9 -61 -9q-65 0 -112.5 44.5
t-47.5 109.5t44.5 109t111.5 44q26 0 56 -7l-8 -37q-28 6 -49 6q-47 0 -79.5 -31.5t-32.5 -83.5t34.5 -84.5t84.5 -32.5q87 0 131 55zM92 -63l-44 44l44 45l44 -44z" />
    <glyph glyph-name="dvGx" horiz-adv-x="248" 
d="M59 326l47 32v211h-116v36h298v-36h-141v-332h-43q-15 15 -28.5 41t-16.5 48zM123 -12l-44 44l44 45l44 -44z" />
    <glyph glyph-name="dvJx" horiz-adv-x="397" 
d="M257 381q20 -15 36 -48.5t16 -72.5q0 -156 -184 -156q-76 0 -124 16l9 36q49 -14 115 -14q76 0 108.5 29.5t32.5 88.5q0 75 -66 121h-95v36h370v-36h-218zM407 569h-417v36h417v-36zM269 -12l-44 44l44 45l44 -44z" />
    <glyph glyph-name="dvPHx" horiz-adv-x="541" 
d="M640 396l-29 -27q-40 44 -95 44q-47 0 -80.5 -24t-45.5 -52v-337h-41v234q-64 -42 -140 -42q-134 0 -134 151v226h-85v36h561v-36h-161v-174q14 21 48 38.5t78 17.5q77 0 124 -55zM349 569h-233v-217q0 -60 18.5 -91t74.5 -31q77 0 140 48v291zM164 -12l-44 44l44 45
l44 -44z" />
    <glyph glyph-name="dvK_RA" horiz-adv-x="701" 
d="M301 158l-232 -175l-26 33l158 111q-74 1 -117.5 45.5t-43.5 117.5q0 71 48 116t116 45q24 0 43 -4l-5 -37q-15 3 -37 3q-53 0 -87.5 -33.5t-34.5 -89.5t32 -90.5t91 -34.5q50 0 82 28.5t45 64.5v311h-343v36h721v-36h-337v-182q15 26 48.5 45.5t76.5 19.5
q73 0 117.5 -45t44.5 -118t-45 -118t-113 -45q-28 0 -45 4l6 37q19 -3 35 -3q53 0 86 33.5t33 91.5q0 55 -32 90t-88 35q-48 0 -80 -28.5t-44 -68.5v-317h-41v193q-12 -20 -32 -35z" />
    <glyph glyph-name="dvKH_RA" horiz-adv-x="715" 
d="M584 569h-367q52 -60 52 -137q0 -82 -55 -124.5t-128 -42.5q64 -194 245 -194q109 0 191 69q-27 -9 -61 -9q-65 0 -112.5 44.5t-47.5 109.5t44.5 109t111.5 44q26 0 56 -7l-8 -37q-28 6 -49 6q-47 0 -79.5 -31.5t-32.5 -83.5t34.5 -84.5t84.5 -32.5q41 0 74 13.5t47 32.5
v355zM725 569h-100v-569h-41v154q-53 -67 -140 -102l-320 -132l-20 41l211 75q-199 8 -271 217l-32 18l8 32h46q71 0 115.5 31.5t44.5 97.5q0 76 -55 137h-181v36h735v-36z" />
    <glyph glyph-name="dvG_RA" horiz-adv-x="476" 
d="M59 326l47 32v211h-116v36h496v-36h-100v-569h-41v164l-241 -181l-26 33l267 193v360h-198v-332h-43q-15 15 -28.5 41t-16.5 48z" />
    <glyph glyph-name="dvGH_RA" horiz-adv-x="532" 
d="M401 569h-241q-50 -39 -50 -94q0 -80 110 -80h35v-36h-25q-54 0 -88 -24t-34 -71q0 -99 126 -99q57 0 102.5 24.5t64.5 49.5v330zM542 569h-100v-569h-37v189l-7 -5q-14 -12 -22 -17l-244 -184l-26 33l160 113q-20 -2 -32 -2q-81 0 -125 35.5t-44 101.5q0 47 26.5 76
t59.5 36q-35 3 -59.5 28t-24.5 71q0 57 40 94h-117v36h552v-36z" />
    <glyph glyph-name="dvC_RA" horiz-adv-x="545" 
d="M391 173l-253 -190l-26 33l158 111q-8 -1 -27 -1q-69 0 -116.5 38.5t-47.5 111.5q0 43 18.5 74t39.5 46h-127v36h305v-36h-119q-74 -47 -74 -120q0 -56 34 -84t87 -28q105 0 171 83v322h-424v36h565v-36h-100v-569h-41v193q-11 -11 -23 -20z" />
    <glyph glyph-name="dvJ_RA" horiz-adv-x="577" 
d="M-26 120l9 36q49 -14 115 -14q76 0 108.5 29.5t32.5 88.5q0 75 -66 121h-95v36h368v152h-456v36h597v-36h-100v-569h-41v172l-250 -199l-26 33l276 212v163h-216q20 -15 36 -48.5t16 -72.5q0 -156 -184 -156q-76 0 -124 16z" />
    <glyph glyph-name="dvJH_RA" horiz-adv-x="600" 
d="M371 274q64 0 99 22v273h-167v-140q-84 6 -112 6q-93 0 -93 -63q0 -53 58 -62l91 -15q13 -2 34.5 -8t42.5 -9.5t47 -3.5zM209 59q-42 0 -75 16.5t-46 35.5l67 -149l-38 -16l-88 215l40 18q23 -38 59.5 -60.5t78.5 -22.5q45 0 67.5 22t22.5 61q0 67 -63 78l-98 16
q-34 6 -57.5 32t-23.5 67q0 45 35 72.5t95 27.5q42 0 78 -5v102h-273v36h620v-36h-100v-569h-40v89l-171 -120l-25 33l196 132v116q-36 -14 -84 -14q-42 0 -72 10q26 -28 26 -69q0 -54 -36.5 -86t-94.5 -32z" />
    <glyph glyph-name="dvT_RA" horiz-adv-x="443" 
d="M312 0v248l-250 -197l-27 33l249 191q-21 60 -65 95t-103 35q-49 0 -95 -20l-15 39q54 21 110 21q64 0 116.5 -33.5t79.5 -106.5v264h-322v36h463v-36h-100v-569h-41z" />
    <glyph glyph-name="dvTH_RA" horiz-adv-x="545" 
d="M373 164l-277 -195l-26 33l188 125h-16q-89 0 -147 57t-58 178v13l57 5q51 4 82.5 14t46 26t19 31t4.5 39q0 81 -59 81q-27 0 -41.5 -16.5t-14.5 -46.5q0 -17 5 -34l-40 -10q-7 17 -7 42q0 46 27 74.5t71 28.5q48 0 74.5 -32.5t26.5 -86.5q0 -30 -7 -51.5t-27.5 -44
t-64 -36t-109.5 -17.5q3 -90 46 -133t117 -43q64 0 107 28.5t64 70.5v305h-68v36h209v-36h-100v-569h-41v203q-15 -21 -41 -39z" />
    <glyph glyph-name="dvD_RA" horiz-adv-x="460" 
d="M343 156q-8 -16 -30 -31l-220 -167l-26 33l151 106h-2q-79 0 -128 50t-49 128q0 82 54.5 129.5t131.5 47.5q44 0 104 -4v121h-339v36h480v-36h-100v-160q-90 6 -139 6q-70 0 -109.5 -38.5t-39.5 -100.5q0 -65 37 -103t98 -38q52 0 84.5 25.5t44.5 61.5h38v-222h-41v156z
" />
    <glyph glyph-name="dvDH_RA" horiz-adv-x="541" 
d="M182 605l7 -36q-78 -36 -78 -93q0 -83 98 -83h51v-38h-41q-111 0 -111 -91q0 -99 133 -99q63 0 105 26t64 57v321h-98v36h239v-36h-100v-569h-37v197q-16 -18 -38 -31l-241 -183l-26 33l160 112q-9 -1 -28 -1q-176 0 -176 137q0 49 25.5 77t59.5 33q-35 4 -58.5 29
t-23.5 73q0 34 18.5 58.5t37.5 34.5h-134v36h192z" />
    <glyph glyph-name="dvN_RA" horiz-adv-x="456" 
d="M33 335l27 25h265v209h-335v36h476v-36h-100v-569h-41v215l-256 -190l-27 33l283 206v58h-213v-82h-44q-28 43 -35 95z" />
    <glyph glyph-name="dvP_RA" horiz-adv-x="477" 
d="M487 605v-36h-100v-569h-41v226l-260 -233l-28 30l198 174q-20 -3 -39 -3q-142 0 -142 148v227h-85v36h497zM346 569h-230v-219q0 -60 20.5 -89t80.5 -29q63 0 129 36v301z" />
    <glyph glyph-name="dvPH_RA" horiz-adv-x="720" 
d="M730 605v-36h-340v-174q15 21 48.5 38.5t77.5 17.5q72 0 118 -46t46 -119q0 -82 -57.5 -128.5t-141.5 -40.5q-1 0 -4 0.5t-5 0.5l4 38q18 -2 26 -1q59 0 97 35.5t38 95.5q0 56 -34 91.5t-87 35.5q-47 0 -81.5 -24.5t-44.5 -51.5v-337h-41v234l-273 -239l-28 31l200 169
q-20 -3 -39 -3q-134 0 -134 151v226h-85v36h740zM349 569h-233v-217q0 -60 18.5 -91t74.5 -31q77 0 140 48v291z" />
    <glyph glyph-name="dvB_RA" horiz-adv-x="497" 
d="M221 147q40 0 74 17l-178 220q-34 -37 -34 -96q0 -61 38 -101t100 -40zM507 569h-100v-569h-40v168l-265 -186l-25 34l143 93q-80 1 -130 52t-50 127q0 82 54.5 130.5t128.5 48.5q35 0 60 -8l-8 -35q-22 5 -47 5q-47 0 -84 -22l181 -223q34 31 42 68v317h-377v36h517v-36
z" />
    <glyph glyph-name="dvBH_RA" horiz-adv-x="559" 
d="M428 0v209l-270 -232l-27 32l297 248v19h-219v-77h-43q-39 39 -46 93q23 11 48 15v184q0 81 -59 81q-27 0 -41.5 -16.5t-14.5 -44.5q0 -29 12 -56l-36 -13q-17 34 -17 72q0 43 26.5 69.5t70.5 26.5q48 0 74 -32.5t26 -86.5v-180q8 1 27 1h192v257h-105v36h246v-36h-100
v-569h-41z" />
    <glyph glyph-name="dvM_RA" horiz-adv-x="497" 
d="M366 0v228l-285 -235l-27 32l312 251h-228v-77h-43q-39 39 -46 93q23 11 48 15v262h-107v36h517v-36h-100v-569h-41zM138 569v-258q8 1 27 1h201v257h-228z" />
    <glyph glyph-name="dvY_RA" horiz-adv-x="530" 
d="M380 167l-282 -198l-26 33l187 125h-11q-92 0 -146 55.5t-60 160.5q-1 9 -1 27q89 1 124.5 23.5t35.5 66.5q0 67 -42 109h-169v36h550v-36h-100v-569h-41v184q-2 -2 -19 -17zM249 165q53 0 91.5 21t58.5 47v336h-195q40 -46 40 -109q0 -54 -41 -88t-117 -34
q4 -86 47 -129.5t116 -43.5z" />
    <glyph glyph-name="dvL_RA" horiz-adv-x="602" 
d="M285 338q8 35 37 56t69 21q42 0 80 -15v169h-481v36h622v-36h-100v-569h-41v135l-171 -149l-29 29l200 167v180q-37 15 -81 15q-84 0 -84 -119v-68h-41v69q0 52 -22 85t-69 33q-40 0 -65.5 -32.5t-25.5 -96.5q0 -44 11 -81.5t31.5 -66t34 -44t34.5 -33.5l-27 -29
q-49 39 -88 103.5t-39 150.5q0 79 38 123t96 44q49 0 76.5 -23t34.5 -54z" />
    <glyph glyph-name="dvV_RA" horiz-adv-x="497" 
d="M507 569h-100v-569h-40v181q-15 -24 -43 -43l-227 -159l-25 34l145 96q-79 1 -128 52t-49 127q0 82 54.5 130.5t128.5 48.5q35 0 60 -8l-8 -35q-22 5 -47 5q-61 0 -103 -36t-42 -105q0 -61 38 -101t100 -40q64 0 101 34.5t45 70.5v317h-377v36h517v-36z" />
    <glyph glyph-name="dvSH_RA" horiz-adv-x="593" 
d="M462 0v213l-314 -224l-25 34l272 189q-44 11 -95 35t-82 47q-84 -39 -223 -56l-5 41q129 16 195 44q-85 58 -85 152q0 61 36 98t88 37q55 0 90.5 -36t35.5 -99q0 -105 -97 -158q39 -27 90 -48.5t86 -28.5l33 22v307h-73v36h214v-36h-100v-569h-41zM142 475q0 -80 80 -132
q86 45 86 132q0 47 -24.5 72t-59.5 25t-58.5 -25.5t-23.5 -71.5z" />
    <glyph glyph-name="dvSS_RA" horiz-adv-x="494" 
d="M225 170q-73 0 -111.5 39t-38.5 113v247h-85v36h514v-36h-100v-569h-40v207l-261 -215l-26 32l191 150q-19 -4 -43 -4zM364 569h-248l191 -231q40 -50 57 -77v308zM225 208q59 0 117 29l-174 209q-29 35 -52 70v-186q0 -61 23 -91.5t86 -30.5z" />
    <glyph glyph-name="dvS_RA" horiz-adv-x="598" 
d="M608 569h-100v-569h-41v260l-188 -172l-28 31l213 184q-45 -24 -99 -24q-76 0 -141 35q-54 -51 -142 -49l190 -254l-34 -24l-187 253l-37 33l8 30h48q70 0 113 31t43 98q0 76 -55 137h-181v36h618v-36zM363 318q56 0 104 23v228h-250q52 -60 52 -137q0 -51 -22 -89
q48 -25 116 -25z" />
    <glyph glyph-name="dvH_RA" horiz-adv-x="452" 
d="M209 472q69 0 115 -10v107h-334v36h472v-36h-96v-146q-115 11 -158 11q-97 0 -97 -68q0 -51 36 -78q38 16 88 16q80 0 116.5 -33t36.5 -89q0 -21 -6 -39l-42 10q5 20 5 30q0 27 -10 44l-122 -100l-25 29l121 97q-28 13 -74 13q-62 0 -97 -28.5t-35 -84.5q0 -62 41 -98.5
t121 -36.5q54 0 100 12l7 -38q-59 -11 -107 -11q-89 0 -147 43.5t-58 128.5q0 77 55 117q-47 33 -47 96q0 53 38 79.5t103 26.5z" />
    <glyph glyph-name="dvK_SS_RA" horiz-adv-x="645" 
d="M167 497q0 -35 19 -56.5t43 -30.5q28 5 51.5 26.5t23.5 61.5q0 33 -18 54t-50 21q-33 0 -51 -21.5t-18 -54.5zM514 0v310l-110 -96l-27 29l136 111q-56 -22 -128 -22q-98 0 -161 33q-147 -34 -147 -136q0 -55 33.5 -85t84.5 -30q47 0 77 24.5t41 64.5h41v-203h-41v133
q-13 -21 -42.5 -39t-75.5 -18q-72 0 -116.5 41.5t-44.5 112.5q0 117 152 164q-20 8 -40.5 35t-20.5 68q0 47 31.5 80t79.5 33t79 -32t31 -80q0 -45 -23.5 -73t-54.5 -39q44 -17 115 -17q76 0 131 26v174h-102v36h243v-36h-100v-569h-41z" />
    <glyph glyph-name="dvKx_RA" horiz-adv-x="701" 
d="M374 569v-182q15 26 48.5 45.5t76.5 19.5q73 0 117.5 -45t44.5 -118t-45 -118t-113 -45q-28 0 -45 4l6 37q19 -3 35 -3q53 0 86 33.5t33 91.5q0 55 -32 90t-88 35q-48 0 -80 -28.5t-44 -68.5v-317h-41v182l-262 -199l-26 33l158 111q-74 0 -118.5 45t-44.5 118
q0 71 48 116t116 45q24 0 43 -4l-5 -37q-15 3 -37 3q-53 0 -87.5 -33.5t-34.5 -89.5t32 -90.5t91 -34.5q50 0 82 28.5t45 64.5v311h-343v36h721v-36h-337zM234 -67l-44 44l44 45l44 -44z" />
    <glyph glyph-name="dvKHx_RA" horiz-adv-x="715" 
d="M584 569h-367q52 -60 52 -137q0 -82 -55 -124.5t-128 -42.5q64 -194 245 -194q109 0 191 69q-27 -9 -61 -9q-65 0 -112.5 44.5t-47.5 109.5t44.5 109t111.5 44q26 0 56 -7l-8 -37q-28 6 -49 6q-47 0 -79.5 -31.5t-32.5 -83.5t34.5 -84.5t84.5 -32.5q41 0 74 13.5t47 32.5
v355zM150 -69l-19 40l184 65q-200 8 -271 217l-32 18l8 32h46q71 0 115.5 31.5t44.5 97.5q0 76 -55 137h-181v36h735v-36h-100v-569h-41v154q-53 -67 -140 -102zM92 -175l-44 44l44 45l44 -44z" />
    <glyph glyph-name="dvGx_RA" horiz-adv-x="476" 
d="M59 326l47 32v211h-116v36h496v-36h-100v-569h-41v150l-222 -167l-26 33l248 179v374h-198v-332h-43q-15 15 -28.5 41t-16.5 48zM257 -75l-44 44l44 45l44 -44z" />
    <glyph glyph-name="dvJx_RA" horiz-adv-x="577" 
d="M84 -35l-44 44l44 45l44 -44zM-26 120l9 36q49 -14 115 -14q76 0 108.5 29.5t32.5 88.5q0 75 -66 121h-95v36h368v152h-456v36h597v-36h-100v-569h-41v172l-250 -199l-26 33l276 212v163h-216q20 -15 36 -48.5t16 -72.5q0 -156 -184 -156q-76 0 -124 16z" />
    <glyph glyph-name="dvPHx_RA" horiz-adv-x="720" 
d="M730 605v-36h-340v-174q15 21 48.5 38.5t77.5 17.5q72 0 118 -46t46 -119q0 -82 -57.5 -128.5t-141.5 -40.5q-1 0 -4 0.5t-5 0.5l4 38q18 -2 26 -1q59 0 97 35.5t38 95.5q0 56 -34 91.5t-87 35.5q-47 0 -81.5 -24.5t-44.5 -51.5v-337h-41v233l-267 -238l-28 31l201 170
q-20 -4 -46 -4q-134 0 -134 151v226h-85v36h740zM349 569h-233v-217q0 -60 18.5 -91t74.5 -31q77 0 140 48v291zM250 -42l-44 44l44 45l44 -44z" />
    <glyph glyph-name="dvK_R" horiz-adv-x="520" 
d="M627 396l-32 -28q-33 46 -97 46q-48 0 -80 -28.5t-44 -68.5v-317h-41v181l-264 -198l-26 33l158 111q-74 1 -117.5 45.5t-43.5 117.5q0 71 48 116t116 45q24 0 43 -4l-5 -37q-15 3 -37 3q-53 0 -87.5 -33.5t-34.5 -89.5t32 -90.5t91 -34.5q50 0 82 28.5t45 64.5v311h-343
v36h540v-36h-156v-182q15 26 48.5 45.5t76.5 19.5q84 0 128 -56z" />
    <glyph glyph-name="dvG_R" horiz-adv-x="268" 
d="M385 180l-262 -197l-26 33l267 193zM59 326l47 32v211h-116v36h288v-36h-131v-332h-43q-15 15 -28.5 41t-16.5 48z" />
    <glyph glyph-name="dvGH_R" horiz-adv-x="369" 
d="M107 569h-117v36h389v-36h-219q-50 -39 -50 -94q0 -80 110 -80h35v-36h-25q-54 0 -88 -24t-34 -71q0 -99 126 -99q110 0 184 78l27 -27q-20 -22 -43 -38l-260 -195l-26 33l162 114q-21 -3 -44 -3q-81 0 -125 35.5t-44 101.5q0 47 26.5 76t59.5 36q-35 3 -59.5 28
t-24.5 71q0 57 40 94z" />
    <glyph glyph-name="dvT_R" horiz-adv-x="320" 
d="M330 569h-340v36h340v-36zM359 333l23 -30l-320 -252l-27 33l249 191q-21 60 -64.5 95t-103.5 35q-49 0 -95 -20l-15 39q54 21 110 21q66 0 119 -35t79 -111z" />
    <glyph glyph-name="dvD_R" horiz-adv-x="461" 
d="M343 156q-8 -16 -30 -31l-220 -167l-26 33l151 106h-2q-79 0 -128 50t-49 128q0 82 54.5 129.5t131.5 47.5q44 0 104 -4v121h-339v36h480v-36h-100v-160q-90 6 -139 6q-70 0 -109.5 -38.5t-39.5 -100.5q0 -65 37 -103t98 -38q52 0 84.5 25.5t44.5 61.5h38v-222h-41v156z
M364 -30l174 -150l-25 -27l-174 147z" />
    <glyph glyph-name="dvDH_R" horiz-adv-x="376" 
d="M182 605l7 -36q-25 -14 -38.5 -23t-26.5 -28t-13 -42q0 -83 98 -83h51v-38h-41q-111 0 -111 -91q0 -99 133 -99q106 0 181 75l27 -28q-29 -28 -56 -46l-245 -183l-26 33l161 113q-26 -2 -42 -2q-176 0 -176 137q0 49 25.5 77t59.5 33q-35 4 -58.5 29t-23.5 73
q0 34 18.5 58.5t37.5 34.5h-134v36h192zM393 569h-81v36h81v-36z" />
    <glyph glyph-name="dvP_R" horiz-adv-x="314" 
d="M387 250l-288 -257l-28 30l204 177q-32 -6 -58 -6q-142 0 -142 148v227h-85v36h334v-36h-208v-219q0 -60 20.5 -89t80.5 -29q80 0 151 49z" />
    <glyph glyph-name="dvBH_R" horiz-adv-x="401" 
d="M472 247l-314 -270l-27 32l319 267h-241v-77h-43q-39 39 -46 93q23 11 48 15v184q0 81 -59 81q-27 0 -41.5 -16.5t-14.5 -44.5q0 -29 12 -56l-36 -13q-17 34 -17 72q0 43 26.5 69.5t70.5 26.5q48 0 74 -32.5t26 -86.5v-180q8 1 27 1h236v-65zM409 569h-86v36h86v-36z" />
    <glyph glyph-name="dvV_R" horiz-adv-x="338" 
d="M347 143l-234 -164l-25 34l145 96h-8q-82 0 -133.5 50.5t-51.5 128.5q0 82 54.5 130.5t128.5 48.5q35 0 60 -8l-8 -35q-22 5 -47 5q-61 0 -103 -36.5t-42 -104.5q0 -63 38.5 -102t103.5 -39q104 0 157 96l30 -18q-26 -50 -67 -79zM345 569h-355v36h355v-36z" />
    <glyph glyph-name="dvSH_R" horiz-adv-x="439" 
d="M498 288l23 -33l-373 -266l-25 34l272 189q-42 9 -94 33.5t-83 48.5q-84 -39 -223 -56l-5 41q129 16 195 44q-85 58 -85 152q0 61 36 98t88 37q55 0 90.5 -36t35.5 -99q0 -105 -97 -158q40 -28 90.5 -49t85.5 -28zM142 475q0 -80 80 -132q86 45 86 132q0 47 -24.5 72
t-59.5 25t-58.5 -25.5t-23.5 -71.5zM449 605v-36h-60v36h60z" />
    <glyph glyph-name="dvSS_R" horiz-adv-x="332" 
d="M385 267l22 -31q-2 -1 -5 -4l-272 -239l-28 30l181 153q-27 -6 -58 -6q-73 0 -111.5 39t-38.5 113v247h-85v36h352v-36h-226l191 -231q34 -40 63 -82q10 8 15 11zM225 208q63 0 116 30l-173 208q-24 29 -52 71v-187q0 -61 23 -91.5t86 -30.5z" />
    <glyph glyph-name="dvS_R" horiz-adv-x="416" 
d="M426 569h-209q52 -60 52 -137q0 -46 -17 -80q48 -24 115 -24q45 0 83 15l31 -70l-188 -162l-27 33l193 160q-40 -15 -90 -15q-77 0 -138 33q-52 -59 -149 -57l190 -254l-34 -24l-187 253l-37 33l8 30h48q70 0 113 31t43 98q0 76 -55 137h-181v36h436v-36z" />
    <glyph glyph-name="dvK_KA" horiz-adv-x="1205" 
d="M837 569h-463v-182q15 26 48.5 45.5t76.5 19.5q64 0 107 -34q44 33 102 33q24 0 43 -4l-5 -37q-15 3 -37 3q-53 0 -87.5 -33.5t-34.5 -89.5t32 -90.5t91 -34.5q50 0 82 28.5t45 64.5v311zM878 569v-182q15 26 48.5 45.5t76.5 19.5q73 0 117.5 -45t44.5 -118t-45 -118
t-113 -45q-28 0 -45 4l6 37q20 -3 35 -3q53 0 86 33.5t33 91.5q0 55 -32 90t-88 35q-48 0 -80 -28.5t-44 -68.5v-317h-41v193q-41 -66 -130 -66q-74 0 -118.5 45t-44.5 118q0 56 32 98q-32 26 -78 26q-48 0 -80 -28.5t-44 -68.5v-317h-41v193q-41 -66 -130 -66
q-74 0 -118.5 45t-44.5 118q0 71 48 116t116 45q24 0 43 -4l-5 -37q-15 3 -37 3q-53 0 -87.5 -33.5t-34.5 -89.5t32 -90.5t91 -34.5q50 0 82 28.5t45 64.5v311h-343v36h1225v-36h-337z" />
    <glyph glyph-name="dvKx_KxA" horiz-adv-x="1205" 
d="M837 569h-463v-182q15 26 48.5 45.5t76.5 19.5q65 0 105 -35q45 34 104 34q24 0 43 -4l-5 -37q-15 3 -37 3q-53 0 -87.5 -33.5t-34.5 -89.5t32 -90.5t91 -34.5q50 0 82 28.5t45 64.5v311zM878 569v-182q15 26 48.5 45.5t76.5 19.5q73 0 117.5 -45t44.5 -118t-45 -118
t-113 -45q-28 0 -45 4l6 37q20 -3 35 -3q53 0 86 33.5t33 91.5q0 55 -32 90t-88 35q-48 0 -80 -28.5t-44 -68.5v-317h-41v193q-41 -66 -130 -66q-74 0 -118.5 45t-44.5 118q0 56 32 98q-32 26 -78 26q-48 0 -80 -28.5t-44 -68.5v-317h-41v193q-41 -66 -130 -66
q-74 0 -118.5 45t-44.5 118q0 71 48 116t116 45q24 0 43 -4l-5 -37q-15 3 -37 3q-53 0 -87.5 -33.5t-34.5 -89.5t32 -90.5t91 -34.5q50 0 82 28.5t45 64.5v311h-343v36h1225v-36h-337zM158 -12l-44 44l44 45l44 -44zM663 -12l-44 44l44 45l44 -44z" />
    <glyph glyph-name="dvK_KHA" horiz-adv-x="1264" 
d="M494 452q63 0 100.5 -39.5t50.5 -108.5q59 6 94.5 37.5t35.5 90.5q0 76 -55 137h-346v-182q14 26 46.5 45.5t73.5 19.5zM1133 569h-367q52 -60 52 -137q0 -82 -55 -124.5t-128 -42.5q64 -194 245 -194q108 0 191 69q-27 -9 -61 -9q-65 0 -112.5 44.5t-47.5 109.5
t44.5 109t111.5 44q26 0 56 -7l-8 -37q-28 6 -49 6q-47 0 -79.5 -31.5t-32.5 -83.5t34.5 -84.5t84.5 -32.5q41 0 74 13.5t47 32.5v355zM1274 569h-100v-569h-41v155q-44 -56 -108.5 -89t-139.5 -33q-217 0 -292 220l-32 18l8 32h31q-19 111 -107 111q-46 0 -77 -29t-42 -68
v-317h-41v193q-41 -66 -130 -66q-74 0 -118.5 45t-44.5 118q0 71 48 116t116 45q24 0 43 -4l-5 -37q-15 3 -37 3q-53 0 -87.5 -33.5t-34.5 -89.5t32 -90.5t91 -34.5q50 0 82 28.5t45 64.5v311h-343v36h1284v-36z" />
    <glyph glyph-name="dvK_CA" horiz-adv-x="1074" 
d="M608 276q0 43 18.5 74t39.5 46h-114q-25 18 -60 18q-88 0 -118 -97v-317h-41v193q-41 -66 -130 -66q-74 0 -118.5 45t-44.5 118q0 71 48 116t116 45q24 0 43 -4l-5 -37q-15 3 -37 3q-53 0 -87.5 -33.5t-34.5 -89.5t32 -90.5t91 -34.5q50 0 82 28.5t45 64.5v311h-343v36
h1094v-36h-100v-569h-41v193q-69 -67 -171 -67q-69 0 -116.5 38.5t-47.5 111.5zM943 247v322h-569v-182q37 65 119 65q45 0 76 -20h275v-36h-119q-74 -47 -74 -120q0 -56 34 -84t87 -28q105 0 171 83z" />
    <glyph glyph-name="dvK_JA" horiz-adv-x="1033" 
d="M469 120l9 36q49 -14 115 -14q76 0 108.5 29.5t32.5 88.5q0 75 -66 121h-104q-24 33 -72 33q-88 0 -118 -97v-317h-41v193q-41 -66 -130 -66q-74 0 -118.5 45t-44.5 118q0 71 48 116t116 45q24 0 43 -4l-5 -37q-15 3 -37 3q-53 0 -87.5 -33.5t-34.5 -89.5t32 -90.5
t91 -34.5q50 0 82 28.5t45 64.5v311h-343v36h1053v-36h-100v-569h-41v381h-177q19 -16 35.5 -49.5t16.5 -71.5q0 -156 -184 -156q-76 0 -124 16zM493 452q52 0 89 -35h320v152h-528v-182q37 65 119 65z" />
    <glyph glyph-name="dvK_TTA" horiz-adv-x="914" 
d="M374 387q15 26 48.5 45.5t76.5 19.5q85 0 127 -55q56 32 133 32h29v140h-414v-182zM541 236q0 83 52 135q-33 43 -95 43q-48 0 -80 -28.5t-44 -68.5v-317h-41v193q-41 -66 -130 -66q-74 0 -118.5 45t-44.5 118q0 71 48 116t116 45q24 0 43 -4l-5 -37q-15 3 -37 3
q-53 0 -87.5 -33.5t-34.5 -89.5t32 -90.5t91 -34.5q50 0 82 28.5t45 64.5v311h-343v36h934v-36h-95v-179q-40 2 -65 2q-93 0 -136.5 -42t-43.5 -114q0 -73 44 -116t123 -43q63 0 117 21l10 -35q-52 -24 -127 -24q-100 0 -155 55.5t-55 141.5z" />
    <glyph glyph-name="dvK_NNA" horiz-adv-x="1163" 
d="M1173 569h-100v-569h-41v569h-156v-221q0 -80 -36.5 -122t-107.5 -42t-107.5 42.5t-36.5 121.5v29q-32 37 -90 37q-48 0 -80 -28.5t-44 -68.5v-317h-41v193q-41 -66 -130 -66q-74 0 -118.5 45t-44.5 118q0 71 48 116t116 45q24 0 43 -4l-5 -37q-15 3 -37 3
q-53 0 -87.5 -33.5t-34.5 -89.5t32 -90.5t91 -34.5q50 0 82 28.5t45 64.5v311h-343v36h1183v-36zM588 569h-214v-182q15 26 48.5 45.5t76.5 19.5q50 0 89 -22v139zM835 569h-206v-225q0 -122 103 -122t103 122v225z" />
    <glyph glyph-name="dvK_TA" horiz-adv-x="726" 
d="M42 375v38h138q120 0 175 -3v159h-365v36h746v-36h-340v-193q15 15 48 29t76 14q81 0 131 -50t50 -135q0 -84 -57 -137t-137 -53q-15 0 -23 1l4 38q2 0 7 -0.5t7 -0.5q67 0 111.5 40t44.5 112q0 69 -38 108t-100 39q-42 0 -76 -18t-48 -38v-325h-41v372q-51 3 -100 3
q-57 0 -100 -36t-43 -107q0 -94 99 -183l-28 -30q-43 35 -78 89.5t-35 123.5q0 57 22 93t52 50h-102z" />
    <glyph glyph-name="dvKx_TA" horiz-adv-x="977" 
d="M627 396l-2 -1q50 28 112 28q53 0 109 -7v153h-472v-182q15 26 48.5 45.5t76.5 19.5q84 0 128 -56zM987 569h-100v-569h-41v377q-46 7 -106 7q-67 0 -111 -35.5t-44 -112.5q0 -66 29 -125.5t58 -93.5l-31 -24q-34 37 -66 105t-32 138q0 83 51 134q-34 44 -96 44
q-48 0 -80 -28.5t-44 -68.5v-317h-41v193q-41 -66 -130 -66q-74 0 -118.5 45t-44.5 118q0 71 48 116t116 45q24 0 43 -4l-5 -37q-15 3 -37 3q-53 0 -87.5 -33.5t-34.5 -89.5t32 -90.5t91 -34.5q50 0 82 28.5t45 64.5v311h-343v36h997v-36zM158 -12l-44 44l44 45l44 -44z" />
    <glyph glyph-name="dvK_T_YA" horiz-adv-x="1270" 
d="M728 394q62 0 112 -20q55 7 78 28.5t23 57.5q0 67 -42 109h-526v-182q15 26 48.5 45.5t76.5 19.5q98 0 141 -75q40 17 89 17zM1280 569h-100v-569h-41v184q-55 -57 -151 -57q-92 0 -146 55.5t-60 160.5q0 1 -0.5 4t-0.5 5q-21 3 -50 3q-64 0 -105.5 -33t-41.5 -105
q0 -104 86 -200l-31 -24q-36 38 -66.5 98t-30.5 126q0 89 60 138q-31 59 -105 59q-48 0 -80 -28.5t-44 -68.5v-317h-41v193q-41 -66 -130 -66q-74 0 -118.5 45t-44.5 118q0 71 48 116t116 45q24 0 43 -4l-5 -37q-15 3 -37 3q-53 0 -87.5 -33.5t-34.5 -89.5t32 -90.5
t91 -34.5q50 0 82 28.5t45 64.5v311h-342v36h1290v-36zM989 165q53 0 91.5 21t58.5 47v336h-195q40 -46 40 -109q0 -54 -41 -88t-117 -34q4 -86 47 -129.5t116 -43.5z" />
    <glyph glyph-name="dvK_T_RA" horiz-adv-x="894" 
d="M500 414q-50 0 -82.5 -28.5t-44.5 -68.5v-317h-41v193q-41 -66 -130 -66q-74 0 -118.5 45t-44.5 118q0 71 48 116t116 45q24 0 43 -4l-5 -37q-15 3 -37 3q-53 0 -87.5 -33.5t-34.5 -89.5t32 -90.5t91 -34.5q50 0 82 28.5t45 64.5v311h-342v36h914v-36h-100v-569h-41v255
l-247 -186l-27 33l246 181q-21 60 -66.5 95.5t-108.5 35.5h-60zM559 452q151 0 204 -140v257h-390v-182q15 27 49 46t79 19h58z" />
    <glyph glyph-name="dvK_T_VA" horiz-adv-x="1291" 
d="M1015 147q64 0 101 34.5t45 70.5v317h-788v-182q15 26 48.5 45.5t76.5 19.5q91 0 135 -66q52 37 126 37q64 0 123 -11q53 55 135 55q35 0 60 -8l-8 -35q-22 5 -47 5q-61 0 -103 -36t-42 -105q0 -61 38 -101t100 -40zM1301 569h-100v-569h-40v181q-16 -27 -54 -49.5
t-92 -22.5q-80 0 -130.5 51.5t-50.5 127.5q0 51 22 90q-46 6 -94 6q-68 0 -113.5 -35.5t-45.5 -112.5q0 -66 29 -126.5t57 -92.5l-31 -24q-34 36 -65.5 104t-31.5 139t40 121q-33 57 -104 57q-48 0 -80 -28.5t-44 -68.5v-317h-41v193q-41 -66 -130 -66q-74 0 -118.5 45
t-44.5 118q0 71 48 116t116 45q24 0 43 -4l-5 -37q-15 3 -37 3q-53 0 -87.5 -33.5t-34.5 -89.5t32 -90.5t91 -34.5q50 0 82 28.5t45 64.5v311h-342v36h1311v-36z" />
    <glyph glyph-name="dvK_THA" horiz-adv-x="1062" 
d="M546 569h-172v-177q11 21 40 40.5t65 19.5q87 0 116 -73l16 1q51 4 82.5 14t46 26t19 31t4.5 39q0 81 -59 81q-27 0 -41.5 -16.5t-14.5 -46.5q0 -17 5 -34l-40 -10q-7 17 -7 42q0 46 27 74.5t71 28.5q48 0 74.5 -32.5t26.5 -86.5q0 -30 -7 -51.5t-27.5 -44t-64 -36
t-109.5 -17.5q3 -90 46 -133t117 -43q64 0 107 28.5t64 70.5v305h-68v36h209v-36h-100v-569h-41v203q-58 -76 -172 -76q-89 0 -147 57t-58 178v10q-21 42 -77 42q-36 0 -66.5 -29.5t-36.5 -64.5v-320h-41v193q-41 -66 -130 -66q-74 0 -118.5 45t-44.5 118q0 71 48 116
t116 45q24 0 43 -4l-5 -37q-15 3 -37 3q-53 0 -87.5 -33.5t-34.5 -89.5t32 -90.5t91 -34.5q50 0 82 28.5t45 64.5v311h-343v36h556v-36z" />
    <glyph glyph-name="dvK_DA" horiz-adv-x="977" 
d="M374 387q15 26 48.5 45.5t76.5 19.5q73 0 116 -43q54 43 127 43q44 0 104 -4v121h-472v-182zM860 156q-11 -21 -45.5 -40t-81.5 -19q-79 0 -128 50t-49 128q0 59 31 103q-34 36 -89 36q-48 0 -80 -28.5t-44 -68.5v-317h-41v193q-41 -66 -130 -66q-74 0 -118.5 45
t-44.5 118q0 71 48 116t116 45q24 0 43 -4l-5 -37q-15 3 -37 3q-53 0 -87.5 -33.5t-34.5 -89.5t32 -90.5t91 -34.5q50 0 82 28.5t45 64.5v311h-343v36h997v-36h-100v-160q-90 6 -139 6q-70 0 -109.5 -38.5t-39.5 -100.5q0 -65 37 -103t98 -38q52 0 84.5 25.5t44.5 61.5h38
v-222h-41v156z" />
    <glyph glyph-name="dvK_NA" horiz-adv-x="951" 
d="M820 0v389l-219 -133l42 -70l-38 -21q-43 20 -76 61l9 37l79 48q-7 46 -38.5 74.5t-80.5 28.5q-48 0 -80 -28.5t-44 -68.5v-317h-41v193q-41 -66 -130 -66q-74 0 -118.5 45t-44.5 118q0 71 48 116t116 45q24 0 43 -4l-5 -37q-15 3 -37 3q-53 0 -87.5 -33.5t-34.5 -89.5
t32 -90.5t91 -34.5q50 0 82 28.5t45 64.5v311h-343v36h971v-36h-100v-569h-41zM499 452q61 0 102.5 -31.5t54.5 -86.5l164 98v137h-446v-182q15 26 48.5 45.5t76.5 19.5z" />
    <glyph glyph-name="dvK_PA" horiz-adv-x="988" 
d="M374 387q15 26 48.5 45.5t76.5 19.5q51 0 87 -21v138h-212v-182zM998 605v-36h-100v-569h-41v226q-66 -32 -129 -32q-142 0 -142 148v37q-32 35 -88 35q-48 0 -80 -28.5t-44 -68.5v-317h-41v193q-41 -66 -130 -66q-74 0 -118.5 45t-44.5 118q0 71 48 116t116 45
q24 0 43 -4l-5 -37q-15 3 -37 3q-53 0 -87.5 -33.5t-34.5 -89.5t32 -90.5t91 -34.5q50 0 82 28.5t45 64.5v311h-343v36h1008zM857 569h-230v-219q0 -60 20.5 -89t80.5 -29q63 0 129 36v301z" />
    <glyph glyph-name="dvK_P_RA" horiz-adv-x="989" 
d="M374 387q15 26 48.5 45.5t76.5 19.5q51 0 88 -22v139h-213v-182zM999 605v-36h-100v-569h-41v223l-258 -230l-28 30l202 175q-20 -4 -45 -4q-142 0 -142 148v36q-33 36 -89 36q-48 0 -80 -28.5t-44 -68.5v-317h-41v193q-41 -66 -130 -66q-74 0 -118.5 45t-44.5 118
q0 71 48 116t116 45q24 0 43 -4l-5 -37q-15 3 -37 3q-53 0 -87.5 -33.5t-34.5 -89.5t32 -90.5t91 -34.5q50 0 82 28.5t45 64.5v311h-343v36h1009zM858 569h-230v-219q0 -60 20.5 -89t80.5 -29q63 0 129 36v301z" />
    <glyph glyph-name="dvK_PHA" horiz-adv-x="1231" 
d="M374 387q15 26 48.5 45.5t76.5 19.5q51 0 87 -21v138h-212v-182zM1241 605v-36h-340v-174q15 21 48.5 38.5t77.5 17.5q72 0 118 -46t46 -119q0 -82 -57.5 -128.5t-141.5 -40.5q-1 0 -4 0.5t-5 0.5l4 38q17 -2 26 -1q59 0 97 35.5t38 95.5q0 56 -34 91.5t-87 35.5
q-47 0 -81.5 -24.5t-44.5 -51.5v-337h-41v234q-64 -42 -140 -42q-134 0 -134 151v36q-32 35 -88 35q-48 0 -80 -28.5t-44 -68.5v-317h-41v193q-41 -66 -130 -66q-74 0 -118.5 45t-44.5 118q0 71 48 116t116 45q24 0 43 -4l-5 -37q-15 3 -37 3q-53 0 -87.5 -33.5t-34.5 -89.5
t32 -90.5t91 -34.5q50 0 82 28.5t45 64.5v311h-343v36h1251zM860 569h-233v-217q0 -60 18.5 -91t74.5 -31q77 0 140 48v291z" />
    <glyph glyph-name="dvKx_PHA" horiz-adv-x="1235" 
d="M374 387q15 26 48.5 45.5t76.5 19.5q53 0 91 -23v140h-216v-182zM1245 605v-36h-340v-174q15 21 48.5 38.5t77.5 17.5q72 0 118 -46t46 -119q0 -82 -57.5 -128.5t-141.5 -40.5q-2 0 -5 0.5t-4 0.5l4 38q17 -2 26 -1q59 0 97 35.5t38 95.5q0 56 -34 91.5t-87 35.5
q-47 0 -81.5 -24.5t-44.5 -51.5v-337h-41v234q-64 -42 -140 -42q-134 0 -134 151v31q-32 40 -92 40q-48 0 -80 -28.5t-44 -68.5v-317h-41v193q-41 -66 -130 -66q-74 0 -118.5 45t-44.5 118q0 71 48 116t116 45q24 0 43 -4l-5 -37q-15 3 -37 3q-53 0 -87.5 -33.5t-34.5 -89.5
t32 -90.5t91 -34.5q50 0 82 28.5t45 64.5v311h-343v36h1255zM864 569h-233v-217q0 -60 18.5 -91t74.5 -31q77 0 140 48v291zM158 -12l-44 44l44 45l44 -44z" />
    <glyph glyph-name="dvKx_PHxA" horiz-adv-x="1235" 
d="M374 387q15 26 48.5 45.5t76.5 19.5q54 0 91 -29v146h-216v-182zM1245 605v-36h-340v-174q15 21 48.5 38.5t77.5 17.5q72 0 118 -46t46 -119q0 -82 -57.5 -128.5t-141.5 -40.5q-2 0 -5 0.5t-4 0.5l4 38q17 -2 26 -1q59 0 97 35.5t38 95.5q0 56 -34 91.5t-87 35.5
q-47 0 -81.5 -24.5t-44.5 -51.5v-337h-41v234q-64 -42 -140 -42q-134 0 -134 151v31q-32 40 -92 40q-48 0 -80 -28.5t-44 -68.5v-317h-41v193q-41 -66 -130 -66q-74 0 -118.5 45t-44.5 118q0 71 48 116t116 45q24 0 43 -4l-5 -37q-15 3 -37 3q-53 0 -87.5 -33.5t-34.5 -89.5
t32 -90.5t91 -34.5q50 0 82 28.5t45 64.5v311h-343v36h1255zM864 569h-233v-217q0 -60 18.5 -91t74.5 -31q77 0 140 48v291zM158 -12l-44 44l44 45l44 -44zM687 -12l-44 44l44 45l44 -44z" />
    <glyph glyph-name="dvKx_BA" horiz-adv-x="1024" 
d="M755 429q-47 0 -84 -22l181 -223q34 31 42 68v317h-520v-182q15 26 48.5 45.5t76.5 19.5q71 0 115 -41q51 56 136 56q35 0 60 -8l-8 -35q-22 5 -47 5zM748 147q40 0 74 17l-178 220q-34 -37 -34 -96q0 -61 38 -101t100 -40zM1034 569h-100v-569h-40v181
q-16 -27 -54 -49.5t-92 -22.5q-80 0 -130.5 51.5t-50.5 127.5q0 49 21 88q-32 38 -90 38q-48 0 -80 -28.5t-44 -68.5v-317h-41v193q-41 -66 -130 -66q-74 0 -118.5 45t-44.5 118q0 71 48 116t116 45q24 0 43 -4l-5 -37q-15 3 -37 3q-53 0 -87.5 -33.5t-34.5 -89.5t32 -90.5
t91 -34.5q50 0 82 28.5t45 64.5v311h-343v36h1044v-36zM158 -12l-44 44l44 45l44 -44z" />
    <glyph glyph-name="dvK_MA" horiz-adv-x="990" 
d="M859 569h-228v-258q8 1 27 1h201v257zM859 0v276h-228v-77h-43q-39 39 -46 93q23 11 48 15v68q-31 39 -92 39q-48 0 -80 -28.5t-44 -68.5v-317h-41v193q-41 -66 -130 -66q-74 0 -118.5 45t-44.5 118q0 71 48 116t116 45q24 0 43 -4l-5 -37q-15 3 -37 3q-53 0 -87.5 -33.5
t-34.5 -89.5t32 -90.5t91 -34.5q50 0 82 28.5t45 64.5v311h-343v36h1010v-36h-100v-569h-41zM590 569h-216v-182q15 26 48.5 45.5t76.5 19.5q54 0 91 -29v146z" />
    <glyph glyph-name="dvKx_MA" horiz-adv-x="992" 
d="M861 569h-228v-258q8 1 27 1h201v257zM861 0v276h-228v-77h-43q-39 39 -46 93q23 11 48 15v65q-32 42 -94 42q-48 0 -80 -28.5t-44 -68.5v-317h-41v193q-41 -66 -130 -66q-74 0 -118.5 45t-44.5 118q0 71 48 116t116 45q24 0 43 -4l-5 -37q-15 3 -37 3q-53 0 -87.5 -33.5
t-34.5 -89.5t32 -90.5t91 -34.5q50 0 82 28.5t45 64.5v311h-343v36h1012v-36h-100v-569h-41zM592 569h-218v-182q15 26 48.5 45.5t76.5 19.5q57 0 93 -30v147zM158 -12l-44 44l44 45l44 -44z" />
    <glyph glyph-name="dvK_YA" horiz-adv-x="1045" 
d="M479 452q90 0 121 -80q64 6 90 27.5t26 60.5q0 67 -42 109h-300v-177q11 21 40 40.5t65 19.5zM1055 569h-100v-569h-41v184q-55 -57 -151 -57q-92 0 -146 55.5t-60 160.5q-1 9 -1 25q-20 46 -79 46q-36 0 -66.5 -29.5t-36.5 -64.5v-320h-41v193q-41 -66 -130 -66
q-74 0 -118.5 45t-44.5 118q0 71 48 116t116 45q24 0 43 -4l-5 -37q-15 3 -37 3q-53 0 -87.5 -33.5t-34.5 -89.5t32 -90.5t91 -34.5q50 0 82 28.5t45 64.5v311h-343v36h1065v-36zM764 165q53 0 91.5 21t58.5 47v336h-195q40 -46 40 -109q0 -54 -41 -88t-117 -34
q4 -86 47 -129.5t116 -43.5z" />
    <glyph glyph-name="dvK_LA" horiz-adv-x="1117" 
d="M800 338q8 35 37 56t69 21q42 0 80 -15v169h-612v-182q15 26 48.5 45.5t76.5 19.5q85 0 126 -54q29 17 64 17q49 0 76.5 -23t34.5 -54zM709 23l-27 -29q-49 39 -88 103.5t-39 150.5q0 77 38 123q-33 43 -95 43q-48 0 -80 -28.5t-44 -68.5v-317h-41v193q-41 -66 -130 -66
q-74 0 -118.5 45t-44.5 118q0 71 48 116t116 45q24 0 43 -4l-5 -37q-15 3 -37 3q-53 0 -87.5 -33.5t-34.5 -89.5t32 -90.5t91 -34.5q50 0 82 28.5t45 64.5v311h-343v36h1137v-36h-100v-569h-41v362q-37 15 -81 15q-84 0 -84 -119v-68h-41v69q0 52 -22 85t-69 33
q-40 0 -65.5 -32.5t-25.5 -96.5q0 -44 11 -81.5t31.5 -66t34 -44t34.5 -33.5z" />
    <glyph glyph-name="dvK_VA" horiz-adv-x="999" 
d="M723 147q64 0 101 34.5t45 70.5v317h-495v-182q15 26 48.5 45.5t76.5 19.5q58 0 101 -30q53 45 125 45q35 0 60 -8l-8 -35q-22 5 -47 5q-61 0 -103 -36t-42 -105q0 -61 38 -101t100 -40zM1009 569h-100v-569h-40v181q-16 -27 -54 -49.5t-92 -22.5q-80 0 -130.5 51.5
t-50.5 127.5q0 60 30 103q-29 23 -74 23q-48 0 -80 -28.5t-44 -68.5v-317h-41v193q-41 -66 -130 -66q-74 0 -118.5 45t-44.5 118q0 71 48 116t116 45q24 0 43 -4l-5 -37q-15 3 -37 3q-53 0 -87.5 -33.5t-34.5 -89.5t32 -90.5t91 -34.5q50 0 82 28.5t45 64.5v311h-343v36
h1019v-36z" />
    <glyph glyph-name="dvK_V_YA" horiz-adv-x="1338" 
d="M726 147q97 0 150 85q-23 46 -26 111q-1 9 -1 27q89 1 124.5 23.5t35.5 66.5q0 67 -42 109h-593v-182q15 26 48.5 45.5t76.5 19.5q61 0 101 -30q51 45 124 45q35 0 60 -8l-8 -35q-22 5 -47 5q-61 0 -103 -36.5t-42 -104.5q0 -63 38.5 -102t103.5 -39zM1348 569h-100v-569
h-41v184q-55 -57 -151 -57q-106 0 -159 71q-64 -89 -171 -89q-82 0 -133.5 50.5t-51.5 128.5q0 58 31 104q-30 22 -74 22q-48 0 -80 -28.5t-44 -68.5v-317h-41v193q-41 -66 -130 -66q-74 0 -118.5 45t-44.5 118q0 71 48 116t116 45q24 0 43 -4l-5 -37q-15 3 -37 3
q-53 0 -87.5 -33.5t-34.5 -89.5t32 -90.5t91 -34.5q50 0 82 28.5t45 64.5v311h-343v36h1358v-36zM1057 165q53 0 91.5 21t58.5 47v336h-195q40 -46 40 -109q0 -54 -41 -88t-117 -34q4 -86 47 -129.5t116 -43.5z" />
    <glyph glyph-name="dvK_SHA" horiz-adv-x="1145" 
d="M563 569h-189v-182q15 26 48.5 45.5t76.5 19.5q69 0 112 -41t48 -109l-4 -1h1q185 3 185 149q0 58 -23.5 89.5t-65.5 31.5q-34 0 -54.5 -21.5t-20.5 -59.5q0 -27 10 -47l-39 -15q-14 26 -14 62q0 54 33.5 86.5t84.5 32.5q62 0 97 -43t35 -112q0 -100 -64 -147.5
t-174 -42.5l178 -254l-35 -23l-179 257l-36 28l8 33q18 -1 36 -3q-5 50 -36.5 81t-83.5 31q-48 0 -80 -28.5t-44 -68.5v-317h-41v193q-41 -66 -130 -66q-74 0 -118.5 45t-44.5 118q0 71 48 116t116 45q24 0 43 -4l-5 -37q-15 3 -37 3q-53 0 -87.5 -33.5t-34.5 -89.5
t32 -90.5t91 -34.5q50 0 82 28.5t45 64.5v311h-343v36h573v-36zM1014 0v569h-88v36h229v-36h-100v-569h-41z" />
    <glyph glyph-name="dvK_SS_MA" horiz-adv-x="895" 
d="M167 497q0 -35 19 -56.5t43 -30.5q28 5 51.5 26.5t23.5 61.5q0 33 -18 54t-50 21q-33 0 -51 -21.5t-18 -54.5zM764 0v276h-228v-77h-43q-39 39 -46 93q23 11 48 15v40q-54 -19 -110 -19q-90 0 -161 37q-147 -34 -147 -136q0 -55 33.5 -85t84.5 -30q47 0 78 26t40 63h41
v-203h-41v133q-13 -21 -42.5 -39t-75.5 -18q-72 0 -116.5 41.5t-44.5 112.5q0 117 152 164q-20 8 -40.5 35t-20.5 68q0 47 31.5 80t79.5 33t79 -32t31 -80q0 -45 -23.5 -73t-54.5 -39q54 -21 115 -21t112 22v182h-83v36h493v-36h-100v-569h-41zM536 569v-258q8 1 27 1h201
v257h-228z" />
    <glyph glyph-name="dvK_SS_M_YA" horiz-adv-x="1248" 
d="M354 0h-41v133q-11 -21 -41.5 -39t-76.5 -18q-72 0 -116.5 41.5t-44.5 112.5q0 117 152 164q-20 8 -40.5 35t-20.5 68q0 47 31.5 80t79.5 33t79 -32t31 -80q0 -45 -23.5 -73t-54.5 -39q54 -21 115 -21q68 0 130 29v175h-107v36h852v-36h-100v-569h-41v184
q-55 -57 -151 -57q-156 0 -196 149h-216v-77h-43q-39 39 -46 93q23 11 48 15v47q-61 -26 -128 -26q-90 0 -161 37q-147 -34 -147 -136q0 -55 33.5 -85t84.5 -30q47 0 77 24.5t41 64.5h41v-203zM167 497q0 -35 19 -56.5t43 -30.5q28 5 51.5 26.5t23.5 61.5q0 33 -18 54
t-50 21q-33 0 -51 -21.5t-18 -54.5zM554 569v-258q8 1 27 1h182q-2 20 -3 31q-1 9 -1 27q89 1 124.5 23.5t35.5 66.5q0 67 -42 109h-323zM967 165q53 0 91.5 21t58.5 47v336h-195q40 -46 40 -109q0 -54 -41 -88t-117 -34q4 -86 47 -129.5t116 -43.5z" />
    <glyph glyph-name="dvK_SS_YA" horiz-adv-x="943" 
d="M346 498q0 -45 -23.5 -73t-54.5 -39q49 -21 110 -21q55 0 76 5q89 1 124.5 23.5t35.5 66.5q0 67 -42 109h-149v36h530v-36h-100v-569h-41v184q-55 -57 -151 -57q-89 0 -142 51t-63 149q0 7 -1 10q-35 -9 -75 -9q-85 0 -156 37q-147 -34 -147 -136q0 -55 33.5 -85
t84.5 -30q47 0 77 24.5t41 64.5h41v-203h-41v133q-13 -21 -42.5 -39t-75.5 -18q-72 0 -116.5 41.5t-44.5 112.5q0 117 152 164q-20 8 -40.5 35t-20.5 68q0 47 31.5 80t79.5 33t79 -32t31 -80zM167 497q0 -35 19 -56.5t43 -30.5q28 5 51.5 26.5t23.5 61.5q0 33 -18 54t-50 21
q-33 0 -51 -21.5t-18 -54.5zM662 165q53 0 91.5 21t58.5 47v336h-195q40 -46 40 -109q0 -54 -41 -88t-117 -34q4 -86 47 -129.5t116 -43.5z" />
    <glyph glyph-name="dvK_SS_VA" horiz-adv-x="902" 
d="M354 0h-41v133q-13 -21 -42.5 -39t-75.5 -18q-72 0 -116.5 41.5t-44.5 112.5q0 117 152 164q-20 8 -40.5 35t-20.5 68q0 47 31.5 80t79.5 33t79 -32t31 -80q0 -45 -23.5 -73t-54.5 -39q46 -21 96 -21q64 0 115 31q25 34 65 52.5t84 18.5q35 0 60 -8l-8 -35q-22 5 -47 5
q-61 0 -103 -36t-42 -105q0 -61 38 -101t100 -40q64 0 101 34.5t45 70.5v317h-377v36h517v-36h-100v-569h-40v181q-16 -27 -54 -49.5t-92 -22.5q-80 0 -130.5 51.5t-50.5 127.5q0 29 8 56q-44 -16 -87 -16q-71 0 -142 37q-147 -34 -147 -136q0 -55 33.5 -85t84.5 -30
q47 0 77.5 25t40.5 64h41v-203zM167 497q0 -35 19 -56.5t43 -30.5q28 5 51.5 26.5t23.5 61.5q0 33 -18 54t-50 21q-33 0 -51 -21.5t-18 -54.5z" />
    <glyph glyph-name="dvK_SA" horiz-adv-x="1132" 
d="M499 452q68 0 111.5 -39t49.5 -104q100 22 100 123q0 76 -55 137h-331v-182q15 26 48.5 45.5t76.5 19.5zM897 301q59 0 104 24v244h-250q52 -60 52 -137q0 -60 -31 -101q52 -30 125 -30zM1142 569h-100v-569h-41v282q-43 -20 -102 -20q-85 0 -153 42q-52 -41 -130 -39
l190 -254l-34 -24l-187 253l-37 33l8 30h48h13q-4 50 -35 80.5t-84 30.5q-48 0 -80 -28.5t-44 -68.5v-317h-41v193q-41 -66 -130 -66q-74 0 -118.5 45t-44.5 118q0 71 48 116t116 45q24 0 43 -4l-5 -37q-15 3 -37 3q-53 0 -87.5 -33.5t-34.5 -89.5t32 -90.5t91 -34.5
q50 0 82 28.5t45 64.5v311h-343v36h1152v-36z" />
    <glyph glyph-name="dvK_S_TTA" horiz-adv-x="1339" 
d="M499 452q70 0 114 -40.5t48 -104.5q107 21 107 125q0 76 -55 137h-339v-182q15 26 48.5 45.5t76.5 19.5zM966 236q0 11 2 33q-33 -7 -61 -7q-85 0 -153 42q-52 -41 -130 -39l190 -254l-34 -24l-187 253l-37 33l8 30h48h6q-5 49 -36.5 80t-83.5 31q-48 0 -80 -28.5
t-44 -68.5v-317h-41v193q-41 -66 -130 -66q-74 0 -118.5 45t-44.5 118q0 71 48 116t116 45q24 0 43 -4l-5 -37q-15 3 -37 3q-53 0 -87.5 -33.5t-34.5 -89.5t32 -90.5t91 -34.5q50 0 82 28.5t45 64.5v311h-343v36h1359v-36h-95v-179q-40 2 -65 2q-93 0 -136.5 -42t-43.5 -114
q0 -73 44 -116t123 -43q63 0 117 21l10 -35q-52 -24 -127 -24q-100 0 -155 55.5t-55 141.5zM905 301q40 0 75 11q21 54 73 85.5t131 31.5h29v140h-454q52 -60 52 -137q0 -60 -31 -101q52 -30 125 -30z" />
    <glyph glyph-name="dvK_S_DDA" horiz-adv-x="1317" 
d="M498 452q70 0 114 -40.5t48 -104.5q107 21 107 125q0 76 -55 137h-339v-182q15 26 48.5 45.5t76.5 19.5zM931 76l21 35q24 -20 64.5 -35.5t84.5 -15.5q121 0 121 93q0 33 -20.5 50.5t-66.5 26.5l-86 18q-40 8 -63 26q-36 -12 -80 -12q-85 0 -153 42q-52 -41 -130 -39
l190 -254l-34 -24l-187 253l-37 33l8 30h48h6q-5 49 -36.5 80t-83.5 31q-48 0 -80 -28.5t-44 -68.5v-317h-41v193q-41 -66 -130 -66q-74 0 -118.5 45t-44.5 118q0 71 48 116t116 45q24 0 43 -4l-5 -37q-15 3 -37 3q-53 0 -87.5 -33.5t-34.5 -89.5t32 -90.5t91 -34.5
q50 0 82 28.5t45 64.5v311h-342v36h1337v-36h-100v-149q-101 11 -148 11q-43 0 -66 -20t-23 -55q0 -34 21.5 -49t62.5 -24l87 -17q43 -9 73.5 -36t30.5 -77q0 -62 -43.5 -96.5t-120.5 -34.5q-95 0 -170 54zM904 301q27 0 54 5q-11 22 -11 50q0 53 37.5 83t95.5 30
q55 0 106 -8v108h-428q52 -60 52 -137q0 -60 -31 -101q52 -30 125 -30z" />
    <glyph glyph-name="dvK_S_TA" horiz-adv-x="1395" 
d="M498 452q70 0 114 -40.5t48 -104.5q107 21 107 125q0 76 -55 137h-339v-182q15 26 48.5 45.5t76.5 19.5zM1405 569h-100v-569h-41v377q-46 7 -106 7q-67 0 -111 -35.5t-44 -112.5q0 -66 29 -125.5t58 -93.5l-31 -24q-34 37 -66 105t-32 138q0 12 2 32q-27 -6 -57 -6
q-85 0 -153 42q-52 -41 -130 -39l190 -254l-34 -24l-187 253l-37 33l8 30h48h6q-5 49 -36.5 80t-83.5 31q-48 0 -80 -28.5t-44 -68.5v-317h-41v193q-41 -66 -130 -66q-74 0 -118.5 45t-44.5 118q0 71 48 116t116 45q24 0 43 -4l-5 -37q-15 3 -37 3q-53 0 -87.5 -33.5
t-34.5 -89.5t32 -90.5t91 -34.5q50 0 82 28.5t45 64.5v311h-342v36h1415v-36zM1264 569h-506q52 -60 52 -137q0 -60 -31 -101q52 -30 125 -30q36 0 70 9q20 55 68 84t113 29q53 0 109 -7v153z" />
    <glyph glyph-name="dvK_S_P_RA" horiz-adv-x="1370" 
d="M499 452q69 0 112.5 -39t48.5 -104q100 22 100 123q0 76 -55 137h-331v-182q15 26 48.5 45.5t76.5 19.5zM897 301q39 0 73 10q-2 20 -2 31v227h-217q52 -60 52 -137q0 -60 -31 -101q52 -30 125 -30zM1380 605v-36h-100v-569h-41v223l-258 -230l-28 30l202 175
q-20 -4 -45 -4q-105 0 -132 79q-38 -11 -79 -11q-85 0 -153 42q-52 -41 -130 -39l190 -254l-34 -24l-187 253l-37 33l8 30h48h13q-4 49 -35.5 80t-83.5 31q-48 0 -80 -28.5t-44 -68.5v-317h-41v193q-41 -66 -130 -66q-74 0 -118.5 45t-44.5 118q0 71 48 116t116 45
q24 0 43 -4l-5 -37q-15 3 -37 3q-53 0 -87.5 -33.5t-34.5 -89.5t32 -90.5t91 -34.5q50 0 82 28.5t45 64.5v311h-342v36h1389zM1239 569h-230v-219q0 -60 20.5 -89t80.5 -29q63 0 129 36v301z" />
    <glyph glyph-name="dvK_S_P_LA" horiz-adv-x="1781" 
d="M1464 338q8 35 37 56t69 21q42 0 80 -15v169h-641v-219q0 -60 20.5 -89t80.5 -29t109 25q2 75 40 116.5t94 41.5q49 0 76.5 -23t34.5 -54zM806 11l-34 -24l-187 253l-37 33l8 30h48h12q-4 49 -35.5 80t-83.5 31q-48 0 -80 -28.5t-44 -68.5v-317h-41v193q-41 -66 -130 -66
q-74 0 -118.5 45t-44.5 118q0 71 48 116t116 45q24 0 43 -4l-5 -37q-15 3 -37 3q-53 0 -87.5 -33.5t-34.5 -89.5t32 -90.5t91 -34.5q50 0 82 28.5t45 64.5v311h-342v36h1801v-36h-100v-569h-41v362q-38 15 -81 15q-84 0 -84 -119v-68h-41v69q0 52 -22 85t-69 33
q-40 0 -65.5 -32.5t-25.5 -96.5q0 -44 11 -81.5t31.5 -66t34 -44t34.5 -33.5l-27 -29q-44 35 -81 91.5t-44 131.5q-55 -23 -111 -23q-105 0 -132 79q-38 -11 -79 -11q-85 0 -153 42q-52 -41 -130 -39zM897 301q39 0 73 10q-2 20 -2 31v227h-217q52 -60 52 -137
q0 -60 -31 -101q52 -30 125 -30zM498 452q69 0 112.5 -39t49.5 -104q100 22 100 123q0 76 -55 137h-332v-182q15 26 48.5 45.5t76.5 19.5z" />
    <glyph glyph-name="dvKH_KHA" horiz-adv-x="1235" 
d="M331 71q109 0 191 69q-27 -9 -61 -9q-65 0 -112.5 44.5t-47.5 109.5t44.5 109t111.5 44q26 0 56 -7l-8 -37q-28 6 -49 6q-47 0 -79.5 -31.5t-32.5 -83.5t34.5 -84.5t84.5 -32.5q75 0 118 41q-12 28 -17 44l-32 18l8 32h46q71 0 115.5 31.5t44.5 97.5q0 76 -55 137h-474
q52 -60 52 -137q0 -82 -55 -124.5t-128 -42.5q64 -194 245 -194zM1104 569h-367q52 -60 52 -137q0 -82 -55 -124.5t-128 -42.5q64 -194 245 -194q109 0 191 69q-27 -9 -61 -9q-65 0 -112.5 44.5t-47.5 109.5t44.5 109t111.5 44q26 0 56 -7l-8 -37q-28 6 -49 6
q-47 0 -79.5 -31.5t-32.5 -83.5t34.5 -84.5t84.5 -32.5q41 0 74 13.5t47 32.5v355zM1245 569h-100v-569h-41v155q-44 -56 -108.5 -89t-139.5 -33q-174 0 -256 141q-46 -65 -114.5 -103t-149.5 -38q-217 0 -292 220l-32 18l8 32h46q71 0 115.5 31.5t44.5 97.5q0 76 -55 137
h-181v36h1255v-36z" />
    <glyph glyph-name="dvKH_TA" horiz-adv-x="1010" 
d="M1020 569h-100v-569h-41v377q-46 7 -106 7q-67 0 -111 -35.5t-44 -112.5q0 -66 29 -125.5t58 -93.5l-31 -24q-23 25 -48.5 69.5t-38.5 94.5q-46 -57 -111 -90.5t-140 -33.5q-217 0 -292 220l-32 18l8 32h46q71 0 115.5 31.5t44.5 97.5q0 76 -55 137h-181v36h1030v-36z
M879 569h-662q52 -60 52 -137q0 -82 -55 -124.5t-128 -42.5q64 -194 245 -194q109 0 191 69q-27 -9 -61 -9q-65 0 -112.5 44.5t-47.5 109.5t44.5 109t111.5 44q26 0 56 -7l-8 -37q-28 6 -49 6q-47 0 -79.5 -31.5t-32.5 -83.5t34.5 -84.5t84.5 -32.5q72 0 115 38q-2 20 -2 30
q0 88 54.5 137.5t139.5 49.5q53 0 109 -7v153z" />
    <glyph glyph-name="dvKHx_TA" horiz-adv-x="1010" 
d="M92 -63l-44 44l44 45l44 -44zM1020 569h-100v-569h-41v377q-46 7 -106 7q-67 0 -111 -35.5t-44 -112.5q0 -66 29 -125.5t58 -93.5l-31 -24q-23 25 -48.5 69.5t-38.5 94.5q-46 -57 -111 -90.5t-140 -33.5q-217 0 -292 220l-32 18l8 32h46q71 0 115.5 31.5t44.5 97.5
q0 76 -55 137h-181v36h1030v-36zM879 569h-662q52 -60 52 -137q0 -82 -55 -124.5t-128 -42.5q64 -194 245 -194q109 0 191 69q-27 -9 -61 -9q-65 0 -112.5 44.5t-47.5 109.5t44.5 109t111.5 44q26 0 56 -7l-8 -37q-28 6 -49 6q-47 0 -79.5 -31.5t-32.5 -83.5t34.5 -84.5
t84.5 -32.5q72 0 115 38q-2 20 -2 30q0 88 54.5 137.5t139.5 49.5q53 0 109 -7v153z" />
    <glyph glyph-name="dvKH_NA" horiz-adv-x="715" 
d="M584 569h-367q52 -60 52 -137q0 -82 -55 -124.5t-128 -42.5q64 -194 245 -194q109 0 191 69q-27 -9 -61 -9q-65 0 -112.5 44.5t-47.5 109.5t44.5 109t111.5 44q26 0 56 -7l-8 -37q-28 6 -49 6q-47 0 -79.5 -31.5t-32.5 -83.5t34.5 -84.5t84.5 -32.5q41 0 74 13.5t47 32.5
v355zM725 569h-100v-569h-41v155q-51 -66 -140 -103l-260 -108l26 -71l-40 -14q-37 26 -65 74l16 34l190 69q-196 9 -267 217l-32 18l8 32h46q71 0 115.5 31.5t44.5 97.5q0 76 -55 137h-181v36h735v-36z" />
    <glyph glyph-name="dvKH_MA" horiz-adv-x="997" 
d="M866 569h-228v-258q8 1 27 1h201v257zM866 0v276h-228v-77h-22q-44 -75 -118 -120.5t-162 -45.5q-217 0 -292 220l-32 18l8 32h46q71 0 115.5 31.5t44.5 97.5q0 76 -55 137h-181v36h1017v-36h-100v-569h-41zM597 569h-380q52 -60 52 -137q0 -82 -55 -124.5t-128 -42.5
q64 -194 245 -194q109 0 191 69q-27 -9 -61 -9q-65 0 -112.5 44.5t-47.5 109.5t44.5 109t111.5 44q26 0 56 -7l-8 -37q-28 6 -49 6q-47 0 -79.5 -31.5t-32.5 -83.5t34.5 -84.5t84.5 -32.5q79 0 121 44q-30 38 -35 80q23 11 48 15v262z" />
    <glyph glyph-name="dvKHx_MA" horiz-adv-x="997" 
d="M866 569h-228v-258q8 1 27 1h201v257zM866 0v276h-228v-77h-22q-44 -75 -118 -120.5t-162 -45.5q-217 0 -292 220l-32 18l8 32h46q71 0 115.5 31.5t44.5 97.5q0 76 -55 137h-181v36h1017v-36h-100v-569h-41zM597 569h-380q52 -60 52 -137q0 -82 -55 -124.5t-128 -42.5
q64 -194 245 -194q109 0 191 69q-27 -9 -61 -9q-65 0 -112.5 44.5t-47.5 109.5t44.5 109t111.5 44q26 0 56 -7l-8 -37q-28 6 -49 6q-47 0 -79.5 -31.5t-32.5 -83.5t34.5 -84.5t84.5 -32.5q79 0 121 44q-30 38 -35 80q23 11 48 15v262zM92 -63l-44 44l44 45l44 -44z" />
    <glyph glyph-name="dvKH_YA" horiz-adv-x="1032" 
d="M331 71q109 0 191 69q-27 -9 -61 -9q-65 0 -112.5 44.5t-47.5 109.5t44.5 109t111.5 44q26 0 56 -7l-8 -37q-28 6 -49 6q-47 0 -79.5 -31.5t-32.5 -83.5t34.5 -84.5t84.5 -32.5q75 0 119 42q-33 52 -38 133q-1 9 -1 27q89 1 124.5 23.5t35.5 66.5q0 67 -42 109h-444
q52 -60 52 -137q0 -82 -55 -124.5t-128 -42.5q64 -194 245 -194zM1042 569h-100v-569h-41v184q-55 -57 -151 -57q-93 0 -145 55q-46 -68 -116 -108.5t-153 -40.5q-217 0 -292 220l-32 18l8 32h46q71 0 115.5 31.5t44.5 97.5q0 76 -55 137h-181v36h1052v-36zM751 165
q53 0 91.5 21t58.5 47v336h-195q40 -46 40 -109q0 -54 -41 -88t-117 -34q4 -86 47 -129.5t116 -43.5z" />
    <glyph glyph-name="dvKHx_YA" horiz-adv-x="1032" 
d="M331 71q109 0 191 69q-27 -9 -61 -9q-65 0 -112.5 44.5t-47.5 109.5t44.5 109t111.5 44q26 0 56 -7l-8 -37q-28 6 -49 6q-47 0 -79.5 -31.5t-32.5 -83.5t34.5 -84.5t84.5 -32.5q75 0 119 42q-33 52 -38 133q-1 9 -1 27q89 1 124.5 23.5t35.5 66.5q0 67 -42 109h-444
q52 -60 52 -137q0 -82 -55 -124.5t-128 -42.5q64 -194 245 -194zM1042 569h-100v-569h-41v184q-55 -57 -151 -57q-93 0 -145 55q-46 -68 -116 -108.5t-153 -40.5q-217 0 -292 220l-32 18l8 32h46q71 0 115.5 31.5t44.5 97.5q0 76 -55 137h-181v36h1052v-36zM751 165
q53 0 91.5 21t58.5 47v336h-195q40 -46 40 -109q0 -54 -41 -88t-117 -34q4 -86 47 -129.5t116 -43.5zM92 -63l-44 44l44 45l44 -44z" />
    <glyph glyph-name="dvKH_VA" horiz-adv-x="1007" 
d="M331 71q109 0 191 69q-27 -9 -61 -9q-65 0 -112.5 44.5t-47.5 109.5t44.5 109t111.5 44q26 0 56 -7l-8 -37q-28 6 -49 6q-47 0 -79.5 -31.5t-32.5 -83.5t34.5 -84.5t84.5 -32.5q66 0 108 32q-21 39 -21 88q0 82 54.5 130.5t128.5 48.5q35 0 60 -8l-8 -35q-22 5 -47 5
q-61 0 -103 -36t-42 -105q0 -44 22 -80l4 -3l-1 -2q38 -56 113 -56q64 0 101 34.5t45 70.5v317h-660q52 -60 52 -137q0 -82 -55 -124.5t-128 -42.5q64 -194 245 -194zM1017 569h-100v-569h-40v181q-16 -27 -54 -49.5t-92 -22.5q-85 0 -137 58q-46 -61 -113 -97.5t-145 -36.5
q-217 0 -292 220l-32 18l8 32h46q71 0 115.5 31.5t44.5 97.5q0 76 -55 137h-181v36h1027v-36z" />
    <glyph glyph-name="dvKHx_VA" horiz-adv-x="1007" 
d="M92 -63l-44 44l44 45l44 -44zM331 71q109 0 191 69q-27 -9 -61 -9q-65 0 -112.5 44.5t-47.5 109.5t44.5 109t111.5 44q26 0 56 -7l-8 -37q-28 6 -49 6q-47 0 -79.5 -31.5t-32.5 -83.5t34.5 -84.5t84.5 -32.5q66 0 108 32q-21 39 -21 88q0 82 54.5 130.5t128.5 48.5
q35 0 60 -8l-8 -35q-22 5 -47 5q-61 0 -103 -36t-42 -105q0 -44 22 -80l4 -3l-1 -2q38 -56 113 -56q64 0 101 34.5t45 70.5v317h-660q52 -60 52 -137q0 -82 -55 -124.5t-128 -42.5q64 -194 245 -194zM1017 569h-100v-569h-40v181q-16 -27 -54 -49.5t-92 -22.5q-85 0 -137 58
q-46 -61 -113 -97.5t-145 -36.5q-217 0 -292 220l-32 18l8 32h46q71 0 115.5 31.5t44.5 97.5q0 76 -55 137h-181v36h1027v-36z" />
    <glyph glyph-name="dvKH_SHA" horiz-adv-x="1106" 
d="M530 569h-313q52 -60 52 -137q0 -82 -55 -124.5t-128 -42.5q64 -194 245 -194q109 0 191 69q-27 -9 -61 -9q-65 0 -112.5 44.5t-47.5 109.5t44.5 109t111.5 44q26 0 56 -7l-8 -37q-28 6 -49 6q-47 0 -79.5 -31.5t-32.5 -83.5t34.5 -84.5t84.5 -32.5q83 0 126 50l-18 26
l-36 28l8 33q47 -4 74 -4q185 3 185 149q0 58 -23.5 89.5t-65.5 31.5q-34 0 -54.5 -21.5t-20.5 -59.5q0 -27 10 -47l-39 -15q-14 26 -14 62q0 54 33.5 86.5t84.5 32.5q62 0 97 -43t35 -112q0 -100 -64 -147.5t-174 -42.5l178 -254l-35 -23l-141 202q-44 -71 -116 -113.5
t-157 -42.5q-217 0 -292 220l-32 18l8 32h46q71 0 115.5 31.5t44.5 97.5q0 76 -55 137h-181v36h540v-36zM975 0v569h-88v36h229v-36h-100v-569h-41z" />
    <glyph glyph-name="dvKHx_SHA" horiz-adv-x="1106" 
d="M530 569h-313q52 -60 52 -137q0 -82 -55 -124.5t-128 -42.5q64 -194 245 -194q109 0 191 69q-27 -9 -61 -9q-65 0 -112.5 44.5t-47.5 109.5t44.5 109t111.5 44q26 0 56 -7l-8 -37q-28 6 -49 6q-47 0 -79.5 -31.5t-32.5 -83.5t34.5 -84.5t84.5 -32.5q83 0 126 50l-18 26
l-36 28l8 33q47 -4 74 -4q185 3 185 149q0 58 -23.5 89.5t-65.5 31.5q-34 0 -54.5 -21.5t-20.5 -59.5q0 -27 10 -47l-39 -15q-14 26 -14 62q0 54 33.5 86.5t84.5 32.5q62 0 97 -43t35 -112q0 -100 -64 -147.5t-174 -42.5l178 -254l-35 -23l-141 202q-44 -71 -116 -113.5
t-157 -42.5q-217 0 -292 220l-32 18l8 32h46q71 0 115.5 31.5t44.5 97.5q0 76 -55 137h-181v36h540v-36zM975 0v569h-88v36h229v-36h-100v-569h-41zM92 -63l-44 44l44 45l44 -44z" />
    <glyph glyph-name="dvKHx_SA" horiz-adv-x="1119" 
d="M884 301q59 0 104 24v244h-250q52 -60 52 -137q0 -60 -31 -101q52 -30 125 -30zM1129 569h-100v-569h-41v282q-43 -20 -102 -20q-85 0 -153 42q-52 -41 -130 -39l190 -254l-34 -24l-149 202q-45 -71 -117 -113.5t-157 -42.5q-217 0 -292 220l-32 18l8 32h46
q71 0 115.5 31.5t44.5 97.5q0 76 -55 137h-181v36h1139v-36zM331 71q109 0 191 69q-27 -9 -61 -9q-65 0 -112.5 44.5t-47.5 109.5t44.5 109t111.5 44q26 0 56 -7l-8 -37q-28 6 -49 6q-47 0 -79.5 -31.5t-32.5 -83.5t34.5 -84.5t84.5 -32.5q82 0 126 49l-17 23l-37 33l8 30
h48q70 0 113 31t43 98q0 76 -55 137h-475q52 -60 52 -137q0 -82 -55 -124.5t-128 -42.5q64 -194 245 -194zM92 -63l-44 44l44 45l44 -44z" />
    <glyph glyph-name="dvG_GA" horiz-adv-x="715" 
d="M59 326l47 32v211h-116v36h735v-36h-100v-569h-41v569h-198v-332h-43q-15 15 -28.5 41t-16.5 48l47 32v211h-198v-332h-43q-15 15 -28.5 41t-16.5 48z" />
    <glyph glyph-name="dvG_GHA" horiz-adv-x="756" 
d="M625 569h-241q-50 -39 -50 -94q0 -80 110 -80h35v-36h-25q-54 0 -88 -24t-34 -71q0 -99 126 -99q57 0 102.5 24.5t64.5 49.5v330zM766 569h-100v-569h-37v190q-67 -63 -171 -63q-81 0 -125 35.5t-44 101.5q0 47 26.5 76t59.5 36q-35 3 -59.5 28t-24.5 71q0 57 40 94h-184
v-332h-43q-15 15 -28.5 41t-16.5 48l47 32v211h-116v36h776v-36z" />
    <glyph glyph-name="dvG_JA" horiz-adv-x="806" 
d="M242 120l9 36q49 -14 115 -14q76 0 108.5 29.5t32.5 88.5q0 75 -66 121h-97v36h331v152h-528v-332h-43q-15 15 -28.5 41t-16.5 48l47 32v211h-116v36h826v-36h-100v-569h-41v381h-177q17 -13 34.5 -46.5t17.5 -74.5q0 -156 -184 -156q-76 0 -124 16z" />
    <glyph glyph-name="dvG_NNA" horiz-adv-x="920" 
d="M930 569h-100v-569h-41v569h-156v-221q0 -80 -36.5 -122t-107.5 -42t-107.5 42.5t-36.5 121.5v221h41v-225q0 -122 103 -122t103 122v225h-445v-332h-43q-15 15 -28.5 41t-16.5 48l47 32v211h-116v36h940v-36z" />
    <glyph glyph-name="dvG_DA" horiz-adv-x="732" 
d="M615 156q-11 -21 -45.5 -40t-81.5 -19q-79 0 -128 50t-49 128q0 82 54.5 129.5t131.5 47.5q44 0 104 -4v121h-454v-332h-43q-15 15 -28.5 41t-16.5 48l47 32v211h-116v36h752v-36h-100v-160q-90 6 -139 6q-70 0 -109.5 -38.5t-39.5 -100.5q0 -65 37 -103t98 -38
q52 0 84.5 25.5t44.5 61.5h38v-222h-41v156z" />
    <glyph glyph-name="dvG_DHA" horiz-adv-x="765" 
d="M406 605l7 -36q-78 -36 -78 -93q0 -83 98 -83h51v-38h-41q-111 0 -111 -91q0 -99 133 -99q63 0 105 26t64 57v321h-98v36h239v-36h-100v-569h-37v197q-66 -70 -173 -70q-176 0 -176 137q0 49 25.5 77t59.5 33q-35 4 -58.5 29t-23.5 73q0 34 18.5 58.5t37.5 34.5h-201
v-332h-43q-15 15 -28.5 41t-16.5 48l47 32v211h-116v36h416z" />
    <glyph glyph-name="dvG_DH_YA" horiz-adv-x="1122" 
d="M59 326l47 32v211h-116v36h433l7 -36q-25 -14 -38.5 -23t-26.5 -28t-13 -42q0 -83 98 -83h51v-38h-41q-111 0 -111 -91q0 -99 133 -99q103 0 176 71q-21 47 -24 107q-1 9 -1 27q89 1 124.5 23.5t35.5 66.5q0 67 -42 109h-198v36h579v-36h-100v-569h-41v184
q-55 -57 -151 -57q-108 0 -162 74q-80 -74 -196 -74q-176 0 -176 137q0 49 25.5 77t59.5 33q-35 4 -58.5 29t-23.5 73q0 34 18.5 58.5t37.5 34.5h-218v-332h-43q-15 15 -28.5 41t-16.5 48zM841 165q53 0 91.5 21t58.5 47v336h-195q40 -46 40 -109q0 -54 -41 -88t-117 -34
q4 -86 47 -129.5t116 -43.5z" />
    <glyph glyph-name="dvG_DH_VA" horiz-adv-x="1103" 
d="M59 326l47 32v211h-116v36h433l7 -36q-25 -14 -38.5 -23t-26.5 -28t-13 -42q0 -83 98 -83h51v-38h-41q-111 0 -111 -91q0 -99 133 -99q99 0 172 67q-8 27 -8 56q0 82 54.5 130.5t128.5 48.5q35 0 60 -8l-8 -35q-22 5 -47 5q-61 0 -103 -36t-42 -105q0 -61 38 -101
t100 -40q64 0 101 34.5t45 70.5v317h-420v36h560v-36h-100v-569h-40v181q-16 -27 -54 -49.5t-92 -22.5q-52 0 -93 23t-63 62q-77 -67 -189 -67q-176 0 -176 137q0 49 25.5 77t59.5 33q-35 4 -58.5 29t-23.5 73q0 34 18.5 58.5t37.5 34.5h-218v-332h-43q-15 15 -28.5 41
t-16.5 48z" />
    <glyph glyph-name="dvG_NA" horiz-adv-x="476" 
d="M59 326l47 32v211h-116v36h496v-36h-100v-569h-41v204l-180 -134l46 -65l-35 -27q-47 19 -84 57l7 38l246 177v319h-198v-332h-43q-15 15 -28.5 41t-16.5 48z" />
    <glyph glyph-name="dvG_N_YA" horiz-adv-x="801" 
d="M143 40l8 37l204 127q-38 55 -42 139q-1 9 -1 27q89 1 124.5 23.5t35.5 66.5q0 67 -42 109h-243v-227q0 -116 -121 -116q-28 0 -50 6l7 37q20 -5 45 -5q42 0 60 19t18 58v228h-156v36h821v-36h-100v-569h-41v184q-55 -57 -151 -57q-87 0 -139 48l-163 -104l42 -69
l-36 -24q-48 22 -80 62zM520 165q53 0 91.5 21t58.5 47v336h-195q40 -46 40 -109q0 -54 -41 -88t-117 -34q4 -86 47 -129.5t116 -43.5z" />
    <glyph glyph-name="dvG_BA" horiz-adv-x="760" 
d="M484 147q40 0 74 17l-178 220q-34 -37 -34 -96q0 -61 38 -101t100 -40zM770 569h-100v-569h-40v181q-16 -27 -54 -49.5t-92 -22.5q-80 0 -130.5 51.5t-50.5 127.5q0 82 54.5 130.5t128.5 48.5q35 0 60 -8l-8 -35q-22 5 -47 5q-47 0 -84 -22l181 -223q34 31 42 68v317
h-483v-332h-43q-15 15 -28.5 41t-16.5 48l47 32v211h-116v36h780v-36z" />
    <glyph glyph-name="dvG_BHA" horiz-adv-x="809" 
d="M59 326l47 32v211h-116v36h260v-36h-103v-332h-43q-15 15 -28.5 41t-16.5 48zM459 491v-180q8 1 27 1h192v257h-105v36h246v-36h-100v-569h-41v276h-219v-77h-43q-39 39 -46 93q23 11 48 15v184q0 81 -59 81q-27 0 -41.5 -16.5t-14.5 -44.5q0 -29 12 -56l-36 -13
q-17 34 -17 72q0 43 26.5 69.5t70.5 26.5q48 0 74 -32.5t26 -86.5z" />
    <glyph glyph-name="dvG_BH_YA" horiz-adv-x="1148" 
d="M459 491v-144q8 1 27 1h173q89 1 124.5 29t35.5 83q0 67 -42 109h-204v36h585v-36h-100v-569h-41v184q-55 -57 -151 -57q-89 0 -143 47.5t-62 137.5h-202v-77h-43q-39 39 -46 93q23 11 48 15v148q0 81 -59 81q-27 0 -41.5 -16.5t-14.5 -44.5q0 -29 12 -56l-36 -13
q-17 34 -17 72q0 43 26.5 69.5t70.5 26.5q48 0 74 -32.5t26 -86.5zM867 165q53 0 91.5 21t58.5 47v336h-195q40 -46 40 -109t-41 -103.5t-117 -40.5q4 -75 47 -113t116 -38zM59 326l47 32v211h-116v36h260v-36h-103v-332h-43q-15 15 -28.5 41t-16.5 48z" />
    <glyph glyph-name="dvG_MA" horiz-adv-x="758" 
d="M627 0v276h-228v-77h-43q-39 39 -46 93q23 11 48 15v262h41v-258q8 1 27 1h201v257h-480v-332h-43q-15 15 -28.5 41t-16.5 48l47 32v211h-116v36h778v-36h-100v-569h-41z" />
    <glyph glyph-name="dvG_YA" horiz-adv-x="781" 
d="M791 569h-100v-569h-41v184q-55 -57 -151 -57q-92 0 -146 55.5t-60 160.5q-1 9 -1 27q89 1 124.5 23.5t35.5 66.5q0 67 -42 109h-263v-332h-43q-15 15 -28.5 41t-16.5 48l47 32v211h-116v36h801v-36zM500 165q53 0 91.5 21t58.5 47v336h-195q40 -46 40 -109
q0 -54 -41 -88t-117 -34q4 -86 47 -129.5t116 -43.5z" />
    <glyph glyph-name="dvG_R_YA" horiz-adv-x="801" 
d="M811 569h-100v-569h-41v184q-55 -57 -151 -57q-87 0 -139 49l-257 -193l-26 33l259 187q-39 54 -43 140q-1 9 -1 27q89 1 124.5 23.5t35.5 66.5q0 67 -42 109h-283v-332h-43q-15 15 -28.5 41t-16.5 48l47 32v211h-116v36h821v-36zM520 165q53 0 91.5 21t58.5 47v336h-195
q40 -46 40 -109q0 -54 -41 -88t-117 -34q4 -86 47 -129.5t116 -43.5z" />
    <glyph glyph-name="dvG_LA" horiz-adv-x="875" 
d="M558 338q8 35 37 56t69 21q42 0 80 -15v169h-597v-332h-43q-15 15 -28.5 41t-16.5 48l47 32v211h-116v36h895v-36h-100v-569h-41v362q-38 15 -81 15q-84 0 -84 -119v-68h-41v69q0 52 -22 85t-69 33q-40 0 -65.5 -32.5t-25.5 -96.5q0 -44 11 -81.5t31.5 -66t34 -44
t34.5 -33.5l-27 -29q-49 39 -88 103.5t-39 150.5q0 79 38 123t96 44q49 0 76.5 -23t34.5 -54z" />
    <glyph glyph-name="dvG_VA" horiz-adv-x="764" 
d="M774 569h-100v-569h-40v181q-16 -27 -54 -49.5t-92 -22.5q-80 0 -130.5 51.5t-50.5 127.5q0 82 54.5 130.5t128.5 48.5q35 0 60 -8l-8 -35q-22 5 -47 5q-61 0 -103 -36t-42 -105q0 -61 38 -101t100 -40q64 0 101 34.5t45 70.5v317h-487v-332h-43q-15 15 -28.5 41
t-16.5 48l47 32v211h-116v36h784v-36z" />
    <glyph glyph-name="dvG_SA" horiz-adv-x="877" 
d="M642 301q59 0 104 24v244h-250q52 -60 52 -137q0 -60 -31 -101q52 -30 125 -30zM887 569h-100v-569h-41v282q-43 -20 -102 -20q-85 0 -153 42q-52 -41 -130 -39l190 -254l-34 -24l-187 253l-37 33l8 30h48q70 0 113 31t43 98q0 76 -55 137h-303v-332h-43q-15 15 -28.5 41
t-16.5 48l47 32v211h-116v36h897v-36z" />
    <glyph glyph-name="dvGH_NA" horiz-adv-x="532" 
d="M401 235v334h-241q-50 -39 -50 -94q0 -80 110 -80h35v-36h-25q-54 0 -88 -24t-34 -71q0 -99 126 -99q56 0 101 23t66 47zM542 569h-100v-569h-37v188l-234 -139l38 -71l-36 -23q-47 24 -78 65l10 39l121 68q-78 2 -119.5 37t-41.5 100q0 47 26.5 76t59.5 36
q-35 3 -59.5 28t-24.5 71q0 57 40 94h-117v36h552v-36z" />
    <glyph glyph-name="dvGH_MA" horiz-adv-x="805" 
d="M674 569h-228v-258q8 1 27 1h201v257zM674 0v276h-228v-77h-19q-78 -72 -193 -72q-81 0 -125 35.5t-44 101.5q0 47 26.5 76t59.5 36q-35 3 -59.5 28t-24.5 71q0 57 40 94h-117v36h825v-36h-100v-569h-41zM405 569h-245q-50 -39 -50 -94q0 -80 110 -80h35v-36h-25
q-54 0 -88 -24t-34 -71q0 -99 126 -99q88 0 155 51q-27 36 -32 76q23 11 48 15v262z" />
    <glyph glyph-name="dvGH_YA" horiz-adv-x="860" 
d="M579 165q53 0 91.5 21t58.5 47v336h-195q40 -46 40 -109q0 -54 -41 -88t-117 -34q4 -86 47 -129.5t116 -43.5zM107 569h-117v36h880v-36h-100v-569h-41v184q-55 -57 -151 -57q-101 0 -156 67q-77 -67 -188 -67q-81 0 -125 35.5t-44 101.5q0 47 26.5 76t59.5 36
q-35 3 -59.5 28t-24.5 71q0 57 40 94zM160 569q-50 -39 -50 -94q0 -80 110 -80h35v-36h-25q-54 0 -88 -24t-34 -71q0 -99 126 -99q97 0 167 61q-24 46 -29 117q-1 9 -1 27q89 1 124.5 23.5t35.5 66.5q0 67 -42 109h-329z" />
    <glyph glyph-name="dvNG_KA" horiz-adv-x="442" 
d="M394 324l-44 44l44 45l44 -44zM242 -237h-38v101q-24 -38 -73 -38q-52 0 -82.5 31.5t-30.5 85.5q0 52 33 82.5t82 30.5q18 0 35 -4l-6 -35q-15 4 -28 4q-35 0 -56.5 -20t-21.5 -58q0 -37 19.5 -59.5t57.5 -22.5q29 0 48.5 18t22.5 40v188q-96 3 -166 49l21 35
q23 -18 66.5 -32t86.5 -14q117 0 117 75q0 26 -18.5 39.5t-64.5 21.5l-98 18q-93 17 -93 92q0 48 36.5 73t95.5 25q55 0 106 -8v88h-303v36h462v-36h-118v-129q-90 11 -148 11q-88 0 -88 -60q0 -26 16.5 -37t49.5 -17l109 -20q99 -19 99 -97q0 -48 -33.5 -77t-96.5 -35v-91
q7 15 27.5 27t45.5 12q52 0 82.5 -30.5t30.5 -84.5t-31.5 -85t-80.5 -31q-20 0 -36 4l6 34q13 -3 28 -3q34 0 55 21.5t21 59.5t-19.5 59t-55.5 21q-28 0 -47.5 -18t-25.5 -44v-196z" />
    <glyph glyph-name="dvNG_K_SSA" horiz-adv-x="442" 
d="M224 -237h-40v73q-21 -33 -70 -33q-47 0 -77.5 27t-30.5 68q0 38 24 64.5t64 33.5q-12 5 -22.5 20t-10.5 36q0 26 13.5 45t39.5 25q-41 12 -76 34l21 35q23 -18 66.5 -32t86.5 -14q117 0 117 75q0 26 -18.5 39.5t-64.5 21.5l-98 18q-93 17 -93 92q0 48 36.5 73t95.5 25
q55 0 106 -8v88h-303v36h462v-36h-118v-129q-116 11 -148 11q-88 0 -88 -60q0 -26 16.5 -37t49.5 -17l109 -20q99 -19 99 -97q0 -46 -30 -74v-383h-39v188q-32 -10 -63 -10q-61 0 -110 30q-83 -11 -83 -73q0 -27 19.5 -43.5t49.5 -16.5q27 0 45 15t24 37h39v-127zM100 53
q0 -32 33 -46q39 9 39 47q0 17 -10 27.5t-26 10.5q-36 0 -36 -39zM394 324l-44 44l44 45l44 -44zM212 107q-16 0 -25 1q25 -19 25 -55q0 -25 -14 -42.5t-32 -22.5q30 -13 68 -13t69 14v133q-36 -15 -91 -15z" />
    <glyph glyph-name="dvNG_GA" horiz-adv-x="442" 
d="M56 -113q-21 0 -41 6l7 35q17 -5 35 -5q33 0 45 16.5t12 49.5v133q-41 12 -76 34l21 35q23 -18 66.5 -32t86.5 -14q117 0 117 75q0 26 -18.5 39.5t-64.5 21.5l-98 18q-93 17 -93 92q0 48 36.5 73t95.5 25q55 0 106 -8v88h-303v36h462v-36h-118v-129q-116 11 -148 11
q-88 0 -88 -60q0 -26 16.5 -37t49.5 -17l109 -20q99 -19 99 -97q0 -60 -50 -89v-368h-40v352q-32 -8 -70 -8q-26 0 -58 5v-132q0 -46 -26 -69.5t-72 -23.5zM394 324l-44 44l44 45l44 -44z" />
    <glyph glyph-name="dvNG_GHA" horiz-adv-x="442" 
d="M292 -103v221q-35 -11 -80 -11q-36 0 -74 8q-40 -22 -40 -56q0 -54 68 -54h37v-36h-33q-73 0 -73 -59q0 -60 84 -60q66 0 111 47zM394 324l-44 44l44 45l44 -44zM331 -237h-38v93q-17 -17 -48 -29t-64 -12q-59 0 -92.5 25.5t-33.5 69.5q0 56 54 77q-54 15 -54 72
q0 20 11 39t31 29q-32 12 -59 29l21 35q23 -18 66.5 -32t86.5 -14q117 0 117 75q0 26 -18.5 39.5t-64.5 21.5l-98 18q-93 17 -93 92q0 48 36.5 73t95.5 25q55 0 106 -8v88h-303v36h462v-36h-118v-129q-116 11 -148 11q-88 0 -88 -60q0 -26 16.5 -37t49.5 -17l109 -20
q99 -19 99 -97q0 -54 -41 -83v-374z" />
    <glyph glyph-name="dvNG_MA" horiz-adv-x="442" 
d="M292 -237v173h-147v-59h-42q-32 36 -35 78q15 8 38 13v156q-37 12 -68 32l21 35q23 -18 66.5 -32t86.5 -14q117 0 117 75q0 26 -18.5 39.5t-64.5 21.5l-98 18q-93 17 -93 92q0 48 36.5 73t95.5 25q55 0 106 -8v88h-303v36h462v-36h-118v-129q-116 11 -148 11
q-88 0 -88 -60q0 -26 16.5 -37t49.5 -17l109 -20q99 -19 99 -97q0 -54 -41 -83v-374h-39zM394 324l-44 44l44 45l44 -44zM212 107q-36 0 -67 7v-142h16h131v146q-35 -11 -80 -11z" />
    <glyph glyph-name="dvNG_YA" horiz-adv-x="878" 
d="M38 76l21 35q68 -51 149 -51q121 0 121 94q0 34 -19 51t-64 25l-98 18q-93 16 -93 108q0 53 37 83t95 30q49 0 106 -6v106h-303v36h898v-36h-100v-569h-41v146q-46 -46 -118 -46q-70 0 -112.5 43t-49.5 113q-1 8 -1 24q61 18 78.5 37t17.5 47q0 61 -81 61h-109
q-28 0 -89.5 3t-96.5 3q-43 0 -65.5 -20t-22.5 -55t19.5 -50t58.5 -22l97 -18q42 -8 70.5 -35t28.5 -77q0 -62 -43.5 -97t-120.5 -35q-87 0 -170 54zM629 137q44 0 75 20t43 44v368h-413v-108h147q62 0 92.5 -27.5t30.5 -69.5q0 -78 -92 -110q0 -49 31.5 -83t85.5 -34z
M377 290l-44 44l44 45l44 -44z" />
    <glyph glyph-name="dvC_CA" horiz-adv-x="862" 
d="M450 224v-1q27 -59 110 -59q105 0 171 83v322h-741v36h882v-36h-100v-569h-41v193q-69 -67 -171 -67q-96 0 -140 65q-67 -65 -172 -65q-72 0 -120.5 38.5t-48.5 111.5q0 43 18.5 74t39.5 46h-127v36h622v-36h-119q-74 -47 -74 -120q0 -28 10 -51zM248 164q95 0 155 63
q-7 20 -7 49q0 43 18.5 74t39.5 46h-258q-74 -47 -74 -120q0 -56 35.5 -84t90.5 -28z" />
    <glyph glyph-name="dvC_CHA" horiz-adv-x="946" 
d="M460 213q0 -59 51.5 -93t123.5 -34q89 0 156.5 55t67.5 157q0 44 -19.5 79.5t-61.5 35.5q-28 0 -47.5 -20t-19.5 -52q0 -39 29 -76l-34 -17q-37 43 -37 94q0 40 24.5 70t63.5 37v120h-241q-49 -36 -49 -105q0 -47 29 -71.5t94 -33.5l-4 -37h-11q-52 0 -83.5 -28
t-31.5 -81zM956 569h-161v-119q50 -7 78 -49.5t28 -101.5q0 -81 -40.5 -140t-99.5 -85t-127 -26q-83 0 -145 38.5t-71 106.5q-59 -67 -170 -67q-72 0 -120.5 38.5t-48.5 111.5q0 43 18.5 74t39.5 46h-127v36h305v-36h-119q-74 -47 -74 -120q0 -56 35.5 -84t90.5 -28
q123 0 175 93q10 36 35.5 59t56.5 31q-34 8 -62.5 36.5t-28.5 81.5q0 62 42 104h-476v36h966v-36z" />
    <glyph glyph-name="dvC_CH_VA" horiz-adv-x="946" 
d="M603 55q-48 0 -79.5 -29.5t-31.5 -80.5t32 -84.5t88 -33.5q63 0 99 33.5t44 69.5v148q-59 -23 -152 -23zM635 92q89 0 156.5 53.5t67.5 152.5q0 44 -19.5 79.5t-61.5 35.5q-28 0 -47.5 -20t-19.5 -52q0 -39 29 -76l-34 -17q-37 43 -37 94q0 40 24.5 70t63.5 37v120h-241
q-49 -36 -49 -105q0 -47 29 -71.5t94 -33.5l-4 -37h-11q-52 0 -83.5 -26.5t-31.5 -76.5q0 -59 51.5 -93t123.5 -34zM956 569h-161v-119q50 -7 78 -49.5t28 -101.5q0 -131 -106 -199v-337h-40v95q-16 -27 -52.5 -48t-90.5 -21q-75 0 -119 45t-44 111q0 44 21 78t60 50
q-94 35 -110 117q-69 -64 -172 -64q-72 0 -120.5 38.5t-48.5 111.5q0 43 18.5 74t39.5 46h-127v36h305v-36h-119q-74 -47 -74 -120q0 -56 35.5 -84t90.5 -28q106 0 171 80q7 42 34 68.5t62 34.5q-34 8 -62.5 36.5t-28.5 81.5q0 62 42 104h-476v36h966v-36z" />
    <glyph glyph-name="dvC_NA" horiz-adv-x="545" 
d="M209 -13l-36 -23q-47 24 -78 65l11 44l116 54q-62 6 -102.5 44t-40.5 105q0 43 18.5 74t39.5 46h-127v36h305v-36h-119q-74 -47 -74 -120q0 -56 34 -84t87 -28q105 0 171 83v322h-424v36h565v-36h-100v-569h-41v193q-26 -26 -62 -44l-181 -91z" />
    <glyph glyph-name="dvC_MA" horiz-adv-x="831" 
d="M700 0v276h-228v-77h-43q-71 -73 -181 -73q-72 0 -120.5 38.5t-48.5 111.5q0 43 18.5 74t39.5 46h-127v36h305v-36h-119q-74 -47 -74 -120q0 -56 35.5 -84t90.5 -28q95 0 158 66q-18 30 -23 62q23 11 48 15v262h41v-258q8 1 27 1h201v257h-710v36h851v-36h-100v-569h-41z
" />
    <glyph glyph-name="dvC_YA" horiz-adv-x="871" 
d="M881 569h-100v-569h-41v184q-55 -57 -151 -57q-107 0 -160 72q-71 -73 -181 -73q-72 0 -120.5 38.5t-48.5 111.5q0 43 18.5 74t39.5 46h-127v36h305v-36h-119q-74 -47 -74 -120q0 -56 35.5 -84t90.5 -28q98 0 161 69q-23 46 -26 110q-1 9 -1 27q89 1 124.5 23.5
t35.5 66.5q0 67 -42 109h-510v36h891v-36zM590 165q53 0 91.5 21t58.5 47v336h-195q40 -46 40 -109q0 -54 -41 -88t-117 -34q4 -86 47 -129.5t116 -43.5z" />
    <glyph glyph-name="dvCH_YA" horiz-adv-x="1042" 
d="M1052 569h-100v-569h-41v115q-46 -46 -118 -46q-67 0 -109 39.5t-51 105.5q-3 17 -3 35q67 14 91 35t24 48q0 88 -195 88q-29 0 -46 -1q44 -42 44 -120q0 -81 -40.5 -140t-99.5 -85t-127 -26q-90 0 -153.5 44t-63.5 121q0 56 29 90t69 44q-34 8 -62.5 36.5t-28.5 81.5
q0 62 42 104h-123v36h1062v-36zM107 213q0 -59 51.5 -93t123.5 -34q89 0 156.5 55t67.5 157q0 44 -19.5 79.5t-61.5 35.5q-28 0 -47.5 -20t-19.5 -52q0 -39 29 -76l-34 -17q-37 43 -37 94q0 46 31 77.5t78 31.5q11 0 16 -1q56 5 111 5q235 0 235 -123q0 -33 -25.5 -62.5
t-85.5 -46.5q0 -49 31.5 -83t85.5 -34q51 0 83.5 26t34.5 49v388h-748q-49 -36 -49 -105q0 -47 29 -71.5t94 -33.5l-4 -37h-11q-52 0 -83.5 -28t-31.5 -81z" />
    <glyph glyph-name="dvCH_R_YA" horiz-adv-x="1042" 
d="M1052 569h-100v-569h-41v115q-46 -46 -118 -46q-67 0 -109 39.5t-51 105.5q-3 17 -3 35q67 14 91 35t24 48q0 88 -195 88q-29 0 -46 -1q44 -42 44 -120q0 -81 -40.5 -140t-99.5 -85t-127 -26q-90 0 -153.5 44t-63.5 121q0 56 29 90t69 44q-34 8 -62.5 36.5t-28.5 81.5
q0 62 42 104h-123v36h1062v-36zM107 213q0 -59 51.5 -93t123.5 -34q89 0 156.5 55t67.5 157q0 44 -19.5 79.5t-61.5 35.5q-28 0 -47.5 -20t-19.5 -52q0 -39 29 -76l-34 -17q-37 43 -37 94q0 46 31 77.5t78 31.5q11 0 16 -1q56 5 111 5q235 0 235 -123q0 -33 -25.5 -62.5
t-85.5 -46.5q0 -49 31.5 -83t85.5 -34q51 0 83.5 26t34.5 49v388h-748q-49 -36 -49 -105q0 -47 29 -71.5t94 -33.5l-4 -37h-11q-52 0 -83.5 -28t-31.5 -81zM290 -9l-152 -150l-28 28l180 176l180 -176l-28 -28z" />
    <glyph glyph-name="dvCH_VA" horiz-adv-x="593" 
d="M250 55q-48 0 -79.5 -29.5t-31.5 -80.5t32 -84.5t88 -33.5q63 0 99 33.5t44 69.5v148q-59 -23 -152 -23zM282 92q89 0 156.5 53.5t67.5 152.5q0 44 -19.5 79.5t-61.5 35.5q-28 0 -47.5 -20t-19.5 -52q0 -39 29 -76l-34 -17q-37 43 -37 94q0 40 24.5 70t63.5 37v120h-241
q-49 -36 -49 -105q0 -47 29 -71.5t94 -33.5l-4 -37h-11q-52 0 -83.5 -26.5t-31.5 -76.5q0 -59 51.5 -93t123.5 -34zM603 569h-161v-119q50 -7 78 -49.5t28 -101.5q0 -131 -106 -199v-337h-40v95q-16 -27 -52.5 -48t-90.5 -21q-75 0 -119 45t-44 111q0 44 21 78t60 50
q-51 19 -82 56.5t-31 89.5q0 53 29 86t69 42q-34 8 -62.5 36.5t-28.5 81.5q0 62 42 104h-123v36h613v-36z" />
    <glyph glyph-name="dvJ_KA" horiz-adv-x="1070" 
d="M257 381q20 -15 36 -48.5t16 -72.5q0 -156 -184 -156q-76 0 -124 16l9 36q49 -14 115 -14q76 0 108.5 29.5t32.5 88.5q0 75 -66 121h-95v36h365q43 34 103 34q24 0 43 -4l-5 -37q-15 3 -37 3q-53 0 -87.5 -33.5t-34.5 -89.5t32 -90.5t91 -34.5q50 0 82 28.5t45 64.5v311
h-712v36h1090v-36h-337v-182q15 26 48.5 45.5t76.5 19.5q73 0 117.5 -45t44.5 -118t-45 -118t-113 -45q-28 0 -45 4l6 37q20 -3 35 -3q53 0 86 33.5t33 91.5q0 55 -32 90t-88 35q-48 0 -80 -28.5t-44 -68.5v-317h-41v193q-41 -66 -130 -66q-74 0 -118.5 45t-44.5 118
q0 51 27 91h-179z" />
    <glyph glyph-name="dvJ_JA" horiz-adv-x="845" 
d="M855 569h-100v-569h-41v381h-177q19 -16 35.5 -49.5t16.5 -71.5q0 -77 -43 -116.5t-125 -39.5q-83 0 -155 41q-45 -41 -141 -41q-76 0 -124 16l9 36q49 -14 115 -14q76 0 108.5 29.5t32.5 88.5q0 75 -66 121h-95v36h609v152h-724v36h865v-36zM546 260q0 75 -66 121h-223
q19 -16 35.5 -49.5t16.5 -71.5q0 -50 -18 -84q71 -34 130 -34q125 0 125 118z" />
    <glyph glyph-name="dvJx_JxA" horiz-adv-x="845" 
d="M755 0h-41v381h-177q19 -16 35.5 -49.5t16.5 -71.5q0 -77 -43 -116.5t-125 -39.5q-83 0 -155 41q-45 -41 -141 -41q-76 0 -124 16l9 36q49 -14 115 -14q76 0 108.5 29.5t32.5 88.5q0 75 -66 121h-95v36h609v152h-724v36h865v-36h-100v-569zM291 176q71 -34 130 -34
q125 0 125 118q0 75 -66 121h-223q19 -16 35.5 -49.5t16.5 -71.5q0 -50 -18 -84zM179 -41l-44 44l44 45l44 -44zM479 -41l-44 44l44 45l44 -44z" />
    <glyph glyph-name="dvJ_J_NYA" horiz-adv-x="910" 
d="M779 0v407h-242q137 -71 137 -178q0 -58 -39 -99.5t-107 -41.5q-38 0 -72 15t-50 31l-1 -1q31 -39 96 -162l-40 -20l-119 235l32 19q71 -79 154 -79q51 0 77 30.5t26 72.5q0 46 -34.5 88t-127.5 89v1h-214q20 -16 36 -49.5t16 -71.5q0 -156 -184 -156q-76 0 -124 16l9 36
q49 -14 115 -14q76 0 108.5 29.5t32.5 88.5q0 75 -66 121h-95v36h676v126h-789v36h930v-36h-100v-569h-41z" />
    <glyph glyph-name="dvJ_J_YA" horiz-adv-x="1175" 
d="M591 381h-56q19 -16 35.5 -49.5t16.5 -71.5q0 -77 -43 -116.5t-125 -39.5q-83 0 -155 41q-45 -41 -141 -41q-76 0 -124 16l9 36q49 -14 115 -14q76 0 108.5 29.5t32.5 88.5q0 75 -66 121h-95v36h485q102 0 172 -41q47 9 66.5 29.5t19.5 54.5q0 67 -42 109h-814v36h1195
v-36h-100v-569h-41v184q-55 -57 -151 -57q-92 0 -146 55.5t-60 160.5q-1 9 -1 27q-38 11 -95 11zM544 260q0 75 -66 121h-223q19 -16 35.5 -49.5t16.5 -71.5q0 -50 -18 -84q71 -34 130 -34q125 0 125 118zM894 165q53 0 91.5 21t58.5 47v336h-195q40 -46 40 -109
q0 -54 -41 -88t-117 -34q4 -86 47 -129.5t116 -43.5z" />
    <glyph glyph-name="dvJ_J_VA" horiz-adv-x="1131" 
d="M535 260q0 75 -66 121h-223q19 -16 35.5 -49.5t16.5 -71.5q0 -50 -18 -84q71 -34 130 -34q125 0 125 118zM1141 569h-100v-569h-40v181q-16 -27 -54 -49.5t-92 -22.5q-80 0 -130.5 51.5t-50.5 127.5q0 51 24 93h-172q19 -16 35.5 -49.5t16.5 -71.5q0 -77 -43 -116.5
t-125 -39.5q-83 0 -155 41q-45 -41 -141 -41q-76 0 -124 16l9 36q49 -14 115 -14q76 0 108.5 29.5t32.5 88.5q0 75 -66 121h-95v36h633q52 50 130 50q35 0 60 -8l-8 -35q-22 5 -47 5q-61 0 -103 -36t-42 -105q0 -61 38 -101t100 -40q64 0 101 34.5t45 70.5v317h-1008v36
h1148v-36z" />
    <glyph glyph-name="dvJ_JHA" horiz-adv-x="978" 
d="M257 381q20 -15 36 -48.5t16 -72.5q0 -156 -184 -156q-76 0 -124 16l9 36q49 -14 115 -14q76 0 108.5 29.5t32.5 88.5q0 75 -66 121h-95v36h339q31 55 119 55q42 0 78 -5v102h-651v36h998v-36h-100v-569h-40v250q-36 -14 -84 -14q-42 0 -72 10q26 -28 26 -69
q0 -54 -36.5 -86t-94.5 -32q-42 0 -75 16.5t-46 35.5l67 -149l-38 -16l-88 215l40 18q23 -38 59.5 -60.5t78.5 -22.5q45 0 67.5 22t22.5 61q0 67 -63 78l-98 16q-34 6 -57.5 32t-23.5 67v9h-176zM569 435q-93 0 -93 -63q0 -53 58 -62l91 -15q13 -2 34.5 -8t42.5 -9.5
t47 -3.5q64 0 99 22v273h-167v-140q-84 6 -112 6z" />
    <glyph glyph-name="dvJ_NY_YA" horiz-adv-x="918" 
d="M928 569h-100v-569h-41v184q-55 -57 -151 -57q-92 0 -146 55.5t-60 160.5q-1 9 -1 26q-36 38 -119 38h-111q137 -71 137 -178q0 -58 -39 -99.5t-107 -41.5q-38 0 -72 15t-50 31l-1 -1q31 -39 96 -162l-40 -20l-119 235l32 19q71 -79 154 -79q51 0 77 30.5t26 72.5
q0 46 -34.5 88t-127.5 89l11 37h168q117 0 165 -71q62 6 88 28t26 60q0 67 -42 109h-558v36h939v-36zM637 165q53 0 91.5 21t58.5 47v336h-195q40 -46 40 -109q0 -54 -41 -88t-117 -34q4 -86 47 -129.5t116 -43.5z" />
    <glyph glyph-name="dvJ_TTA" horiz-adv-x="799" 
d="M358 381h-101q19 -16 35.5 -49.5t16.5 -71.5q0 -156 -184 -156q-76 0 -124 16l9 36q49 -14 115 -14q76 0 108.5 29.5t32.5 88.5q0 75 -66 121h-95v36h253q90 0 145 -26q55 38 141 38h29v140h-683v36h819v-36h-95v-179q-40 2 -65 2q-93 0 -136.5 -42t-43.5 -114
q0 -73 44 -116t123 -43q63 0 117 21l10 -35q-52 -24 -127 -24q-100 0 -155 55.5t-55 141.5q0 77 46 129q-46 16 -114 16z" />
    <glyph glyph-name="dvJ_DDA" horiz-adv-x="799" 
d="M413 76l21 35q24 -20 64.5 -35.5t84.5 -15.5q121 0 121 93q0 33 -20.5 50.5t-66.5 26.5l-86 18q-102 20 -102 108q0 13 3 25h-175q20 -15 36 -48.5t16 -72.5q0 -156 -184 -156q-76 0 -124 16l9 36q49 -14 115 -14q76 0 108.5 29.5t32.5 88.5q0 75 -66 121h-95v36h342
q34 52 115 52q55 0 106 -8v108h-678v36h819v-36h-100v-149q-101 11 -148 11q-43 0 -66 -20t-23 -55q0 -34 21.5 -49t62.5 -24l87 -17q43 -9 73.5 -36t30.5 -77q0 -62 -43.5 -96.5t-120.5 -34.5q-95 0 -170 54z" />
    <glyph glyph-name="dvJ_TA" horiz-adv-x="834" 
d="M844 569h-100v-569h-41v377q-46 7 -106 7q-67 0 -111 -35.5t-44 -112.5q0 -66 29 -125.5t58 -93.5l-31 -24q-34 37 -66 105t-32 138q0 85 52 135q-37 10 -94 10h-101q19 -16 35.5 -49.5t16.5 -71.5q0 -156 -184 -156q-76 0 -124 16l9 36q49 -14 115 -14q76 0 108.5 29.5
t32.5 88.5q0 75 -66 121h-95v36h253q80 0 130 -19q47 25 106 25q53 0 109 -7v153h-713v36h854v-36z" />
    <glyph glyph-name="dvJ_DA" horiz-adv-x="845" 
d="M728 156q-11 -21 -45.5 -40t-81.5 -19q-79 0 -128 50t-49 128q0 56 27 97q-39 9 -93 9h-101q19 -16 35.5 -49.5t16.5 -71.5q0 -156 -184 -156q-76 0 -124 16l9 36q49 -14 115 -14q76 0 108.5 29.5t32.5 88.5q0 75 -66 121h-95v36h253q70 0 118 -15q52 50 134 50
q44 0 104 -4v121h-724v36h865v-36h-100v-160q-90 6 -139 6q-70 0 -109.5 -38.5t-39.5 -100.5q0 -65 37 -103t98 -38q52 0 84.5 25.5t44.5 61.5h38v-222h-41v156z" />
    <glyph glyph-name="dvJ_NA" horiz-adv-x="670" 
d="M534 267l-106 -67l41 -70l-37 -23q-45 21 -79 63l9 37l164 98q-31 38 -75.5 57t-120.5 19h-73q19 -16 35.5 -49.5t16.5 -71.5q0 -156 -184 -156q-76 0 -124 16l9 36q49 -14 115 -14q76 0 108.5 29.5t32.5 88.5q0 75 -66 121h-95v36h225q138 0 204 -69v221h-544v36h690
v-36h-105v-569h-41v267z" />
    <glyph glyph-name="dvJ_BA" horiz-adv-x="870" 
d="M257 381q20 -15 36 -48.5t16 -72.5q0 -156 -184 -156q-76 0 -124 16l9 36q49 -14 115 -14q76 0 108.5 29.5t32.5 88.5q0 75 -66 121h-95v36h361q52 50 130 50q35 0 60 -8l-8 -35q-22 5 -47 5q-47 0 -84 -22l181 -223q34 31 42 68v317h-750v36h890v-36h-100v-569h-40v181
q-16 -27 -54 -49.5t-92 -22.5q-80 0 -130.5 51.5t-50.5 127.5q0 51 24 93h-180zM594 147q40 0 74 17l-178 220q-34 -37 -34 -96q0 -61 38 -101t100 -40z" />
    <glyph glyph-name="dvJ_MA" horiz-adv-x="870" 
d="M257 381q20 -15 36 -48.5t16 -72.5q0 -156 -184 -156q-76 0 -124 16l9 36q49 -14 115 -14q76 0 108.5 29.5t32.5 88.5q0 75 -66 121h-95v36h365v152h41v-258q8 1 27 1h201v257h-749v36h890v-36h-100v-569h-41v276h-228v-77h-43q-39 39 -46 93q23 11 48 15v74h-213z" />
    <glyph glyph-name="dvJ_YA" horiz-adv-x="920" 
d="M930 569h-100v-569h-41v184q-55 -57 -151 -57q-92 0 -146 55.5t-60 160.5q-1 9 -1 27h1q-33 11 -99 11h-76q19 -16 35.5 -49.5t16.5 -71.5q0 -156 -184 -156q-76 0 -124 16l9 36q49 -14 115 -14q76 0 108.5 29.5t32.5 88.5q0 75 -66 121h-95v36h228q103 0 173 -40
q46 9 65.5 29t19.5 54q0 67 -42 109h-559v36h940v-36zM639 165q53 0 91.5 21t58.5 47v336h-195q40 -46 40 -109q0 -54 -41 -88t-117 -34q4 -86 47 -129.5t116 -43.5z" />
    <glyph glyph-name="dvJx_YA" horiz-adv-x="920" 
d="M333 381h-76q19 -16 35.5 -49.5t16.5 -71.5q0 -156 -184 -156q-76 0 -124 16l9 36q49 -14 115 -14q76 0 108.5 29.5t32.5 88.5q0 75 -66 121h-95v36h228q103 0 173 -40q46 9 65.5 29t19.5 54q0 67 -42 109h-559v36h940v-36h-100v-569h-41v184q-55 -57 -151 -57
q-92 0 -146 55.5t-60 160.5q-1 9 -1 27h1q-33 11 -99 11zM639 165q53 0 91.5 21t58.5 47v336h-195q40 -46 40 -109q0 -54 -41 -88t-117 -34q4 -86 47 -129.5t116 -43.5zM270 -41l-44 44l44 45l44 -44z" />
    <glyph glyph-name="dvJ_VA" horiz-adv-x="870" 
d="M257 381q20 -15 36 -48.5t16 -72.5q0 -156 -184 -156q-76 0 -124 16l9 36q49 -14 115 -14q76 0 108.5 29.5t32.5 88.5q0 75 -66 121h-95v36h361q52 50 130 50q35 0 60 -8l-8 -35q-22 5 -47 5q-61 0 -103 -36t-42 -105q0 -61 38 -101t100 -40q64 0 101 34.5t45 70.5v317
h-750v36h890v-36h-100v-569h-40v181q-16 -27 -54 -49.5t-92 -22.5q-80 0 -130.5 51.5t-50.5 127.5q0 51 24 93h-180z" />
    <glyph glyph-name="dvJH_NA" horiz-adv-x="646" 
d="M191 435q-93 0 -93 -63q0 -53 58 -62l91 -15q15 -3 36.5 -9t41.5 -9t46 -3q41 0 85.5 6t59.5 16v273h-213v-140q-84 6 -112 6zM209 59q-42 0 -75 16.5t-46 35.5l67 -149l-38 -16l-88 215l40 18q23 -38 59.5 -60.5t78.5 -22.5q45 0 67.5 22t22.5 61q0 67 -63 78l-98 16
q-34 6 -57.5 32t-23.5 67q0 45 35 72.5t95 27.5q42 0 78 -5v102h-273v36h666v-36h-100v-569h-40v130l-110 -70l41 -70l-37 -23q-45 21 -79 63l9 36l176 106v78q-46 -13 -119 -13q-53 0 -83 9q26 -28 26 -69q0 -54 -36.5 -86t-94.5 -32z" />
    <glyph glyph-name="dvJH_MA" horiz-adv-x="907" 
d="M463 294q20 8 44 13v262h-204v-140q-84 6 -112 6q-93 0 -93 -63q0 -53 58 -62l91 -15q14 -2 35 -8t42 -8.5t55 -2.5q48 0 80 16q1 0 1 0.5t1 0.5zM776 569h-228v-258q8 1 27 1h201v257zM776 0v276h-228v-77h-43q-24 24 -37 60q-36 -17 -90 -17q-41 0 -64 7q26 -28 26 -72
q0 -54 -36.5 -86t-94.5 -32q-42 0 -75 16.5t-46 35.5l67 -149l-38 -16l-88 215l40 18q23 -38 59.5 -60.5t78.5 -22.5q45 0 67.5 22t22.5 61q0 67 -63 78l-98 16q-34 6 -57.5 32t-23.5 67q0 45 35 72.5t95 27.5q42 0 78 -5v102h-273v36h927v-36h-100v-569h-41z" />
    <glyph glyph-name="dvJH_YA" horiz-adv-x="934" 
d="M389 274q37 0 65 9q-7 30 -8 60q-1 9 -1 27q89 1 124.5 23.5t35.5 66.5q0 67 -42 109h-260v-140q-84 6 -112 6q-93 0 -93 -63q0 -53 58 -62l91 -15q13 -2 38 -8.5t48 -9.5t56 -3zM944 569h-100v-569h-41v184q-55 -57 -151 -57q-140 0 -187 122q-42 -11 -80 -11
q-31 0 -71 8q26 -28 26 -69q0 -54 -36.5 -86t-94.5 -32q-42 0 -75 16.5t-46 35.5l67 -149l-38 -16l-88 215l40 18q3 -5 9 -13q50 -70 129 -70q45 0 67.5 22t22.5 61q0 67 -63 78l-98 16q-34 6 -57.5 32t-23.5 67q0 45 35 72.5t95 27.5q42 0 78 -5v102h-273v36h954v-36z
M653 165q53 0 91.5 21t58.5 47v336h-195q40 -46 40 -109q0 -54 -41 -88t-117 -34q4 -86 47 -129.5t116 -43.5z" />
    <glyph glyph-name="dvNY_CA" horiz-adv-x="929" 
d="M63 436q35 11 73 11q66 0 110 -32t54 -89q40 -38 98 -38q42 0 68 19q12 57 55 89h-127v36h305v-36h-119q-74 -47 -74 -120q0 -56 34 -84t87 -28q105 0 171 83v322h-808v36h949v-36h-100v-569h-41v193q-69 -67 -171 -67q-66 0 -112 34.5t-51 100.5q-27 -12 -64 -12
q-53 0 -98 28q-6 -66 -52 -110t-130 -44q-76 0 -125 18l9 37q57 -17 116 -17q69 0 104.5 37.5t35.5 95.5q0 53 -32.5 84t-91.5 31q-34 0 -62 -9z" />
    <glyph glyph-name="dvNY_C_YA" horiz-adv-x="1246" 
d="M63 436q35 11 73 11q66 0 110 -32t54 -89q40 -38 98 -38q42 0 68 19q12 57 55 89h-127v36h305v-36h-119q-74 -47 -74 -120q0 -56 35.5 -84t90.5 -28q95 0 155 62q-24 46 -29 117q-1 9 -1 27q89 1 124.5 23.5t35.5 66.5q0 67 -42 109h-885v36h1266v-36h-100v-569h-41v184
q-55 -57 -151 -57q-103 0 -156 67q-70 -68 -176 -68q-67 0 -115 34.5t-53 100.5q-27 -12 -64 -12q-53 0 -98 28q-6 -66 -52 -110t-130 -44q-76 0 -125 18l9 37q57 -17 116 -17q69 0 104.5 37.5t35.5 95.5q0 53 -32.5 84t-91.5 31q-34 0 -62 -9zM965 165q53 0 91.5 21
t58.5 47v336h-195q40 -46 40 -109q0 -54 -41 -88t-117 -34q4 -86 47 -129.5t116 -43.5z" />
    <glyph glyph-name="dvNY_CHA" horiz-adv-x="947" 
d="M74 400l-11 36q35 11 73 11q66 0 110 -32t54 -89q36 -36 88 -36q43 0 74 29q24 20 54 28q-34 8 -62.5 36.5t-28.5 81.5q0 62 42 104h-477v36h967v-36h-161v-119q50 -7 78 -49.5t28 -101.5q0 -81 -40.5 -140t-99.5 -85t-127 -26q-90 0 -153.5 44t-63.5 121q0 22 5 42
q-20 -4 -33 -4q-48 0 -88 25q-6 -66 -52 -109.5t-130 -43.5q-76 0 -125 18l9 37q57 -17 116 -17q69 0 104.5 37.5t35.5 95.5q0 53 -32.5 84t-91.5 31q-34 0 -62 -9zM461 213q0 -59 51.5 -93t123.5 -34q89 0 156.5 55t67.5 157q0 44 -19.5 79.5t-61.5 35.5q-28 0 -47.5 -20
t-19.5 -52q0 -39 29 -76l-34 -17q-37 43 -37 94q0 40 24.5 70t63.5 37v120h-241q-49 -36 -49 -105q0 -47 29 -71.5t94 -33.5l-4 -37h-11q-52 0 -83.5 -28t-31.5 -81z" />
    <glyph glyph-name="dvNY_JA" horiz-adv-x="915" 
d="M350 120l9 36q49 -14 115 -14q76 0 108.5 29.5t32.5 88.5q0 75 -66 121h-33q-6 -51 -40 -81t-85 -30q-52 0 -88 31v-7q0 -72 -46.5 -121.5t-136.5 -49.5q-76 0 -125 18l9 37q57 -17 116 -17q69 0 104.5 37.5t35.5 95.5q0 53 -32.5 84t-91.5 31q-34 0 -62 -9l-11 36
q35 11 73 11q113 0 153 -84q35 -54 100 -54q44 0 69.5 28.5t25.5 79.5h299v152h-793v36h935v-36h-101v-569h-41v381h-177q19 -16 35.5 -49.5t16.5 -71.5q0 -156 -184 -156q-76 0 -124 16z" />
    <glyph glyph-name="dvNY_J_YA" horiz-adv-x="1269" 
d="M63 436q35 11 73 11q113 0 153 -84q35 -54 100 -54q43 0 68.5 26t26.5 76v6h198q103 0 173 -40q46 9 65.5 29t19.5 54q0 67 -42 109h-908v36h1289v-36h-100v-569h-41v184q-55 -57 -151 -57q-92 0 -146 55.5t-60 160.5q-1 9 -1 27h1q-33 11 -99 11h-76q19 -16 35.5 -49.5
t16.5 -71.5q0 -156 -184 -156q-76 0 -124 16l9 36q49 -14 115 -14q76 0 108.5 29.5t32.5 88.5q0 75 -66 121h-33q-4 -50 -38.5 -80.5t-86.5 -30.5t-88 31q2 -77 -45 -127.5t-138 -50.5q-76 0 -125 18l9 37q57 -17 116 -17q69 0 104.5 37.5t35.5 95.5q0 53 -32.5 84t-91.5 31
q-34 0 -62 -9zM988 165q53 0 91.5 21t58.5 47v336h-195q40 -46 40 -109q0 -54 -41 -88t-117 -34q4 -86 47 -129.5t116 -43.5z" />
    <glyph glyph-name="dvNY_SHA" horiz-adv-x="997" 
d="M397 301q24 0 37 4q47 -4 74 -4q185 3 185 149q0 58 -23.5 89.5t-65.5 31.5q-34 0 -54.5 -21.5t-20.5 -59.5q0 -27 10 -47l-39 -15q-14 26 -14 62q0 54 33.5 86.5t84.5 32.5q62 0 97 -43t35 -112q0 -100 -64 -147.5t-174 -42.5l178 -254l-35 -23l-179 257l-27 21
q-15 -3 -36 -3q-51 0 -96 27q-2 -70 -48.5 -118t-134.5 -48q-76 0 -125 18l9 37q57 -17 116 -17q69 0 104.5 37.5t35.5 95.5q0 53 -32.5 84t-91.5 31q-34 0 -62 -9l-11 36q35 11 73 11q61 0 103 -27t57 -76q38 -43 101 -43zM424 569h-434v36h434v-36zM866 0v569h-88v36h229
v-36h-100v-569h-41z" />
    <glyph glyph-name="dvTT_TTA" horiz-adv-x="414" 
d="M41 -68q0 76 56 120t152 44h39v53q-22 -3 -45 -3q-98 0 -150 46.5t-52 122.5t56 119.5t152 43.5h39v91h-298v36h434v-36h-95v-131q-40 2 -63 2q-182 0 -182 -125q0 -62 41.5 -96.5t117.5 -34.5q63 0 121 23l10 -37q-19 -7 -45 -13v-101q-44 2 -66 2q-179 0 -179 -126
q0 -62 41.5 -96.5t117.5 -34.5q63 0 121 23l10 -37q-66 -24 -131 -24q-98 0 -150 46.5t-52 122.5z" />
    <glyph glyph-name="dvTT_TT_YA" horiz-adv-x="851" 
d="M861 569h-101v-569h-41v159q-46 -46 -118 -46q-69 0 -111 41.5t-50 111.5q-2 18 -2 27q61 18 78.5 37t17.5 47q0 61 -81 61h-126q-40 2 -61 2q-182 0 -182 -125q0 -62 41.5 -96.5t117.5 -34.5q63 0 121 23l10 -37q-19 -7 -45 -13v-101q-44 2 -66 2q-179 0 -179 -126
q0 -62 41.5 -96.5t117.5 -34.5q63 0 121 23l10 -37q-66 -24 -131 -24q-98 0 -150 46.5t-52 122.5t56 120t152 44h39v53q-22 -3 -45 -3q-98 0 -150 46.5t-52 122.5t56 119.5t152 43.5h39v91h-298v36h871v-36zM601 150q44 0 75 20t43 44v355h-390v-95h124q62 0 92.5 -27.5
t30.5 -69.5q0 -78 -92 -110q0 -49 31.5 -83t85.5 -34z" />
    <glyph glyph-name="dvTT_TTHA" horiz-adv-x="414" 
d="M256 134q0 -32 -18 -57q175 -23 175 -158q0 -74 -52.5 -115t-136.5 -41q-82 0 -138 38t-56 114q0 59 32 92t91 59q32 14 43 23q19 14 19 55v9q-84 7 -129 52t-45 113q0 76 56 118t152 42h39v91h-298v36h434v-36h-95v-131q-40 2 -63 2q-182 0 -182 -122q0 -61 42 -94.5
t117 -33.5q63 0 121 23l10 -37q-52 -21 -118 -24v-18zM370 -81q0 35 -15 60t-42 38.5t-52.5 19.5t-58.5 9l-18 -9q-58 -22 -84.5 -47.5t-26.5 -74.5q0 -56 40.5 -85t111.5 -29q69 0 107 31t38 87z" />
    <glyph glyph-name="dvTT_YA" horiz-adv-x="808" 
d="M818 569h-100v-567h-41v112q-46 -46 -118 -46q-68 0 -110 40t-51 107q-2 20 -2 33q61 18 78.5 37t17.5 47q0 30 -20.5 47.5t-60.5 17.5q-13 0 -83 -7q-40 2 -65 2q-93 0 -136.5 -42t-43.5 -114q0 -73 44 -116t123 -43q63 0 117 21l10 -35q-52 -24 -127 -24
q-100 0 -155 55.5t-55 141.5t56.5 139.5t161.5 53.5h29v140h-297v36h828v-36zM328 424q38 8 84 8q61 0 91.5 -28t30.5 -72q0 -33 -22 -63t-72 -47q2 -48 33.5 -82.5t85.5 -34.5q44 0 75 20t43 44v400h-349v-145z" />
    <glyph glyph-name="dvTT_VA" horiz-adv-x="420" 
d="M199 -217q-69 0 -109.5 42.5t-40.5 103.5q0 46 24.5 81.5t68.5 51.5q-49 24 -75.5 70t-26.5 104q0 86 56.5 139.5t161.5 53.5h29v140h-297v36h433v-36h-95v-179q-40 2 -65 2q-93 0 -136.5 -42t-43.5 -114q0 -73 44 -116t123 -43q63 0 117 21l10 -35q-17 -7 -27 -10v-290
h-39v78q-33 -58 -112 -58zM199 -179q53 0 81 31.5t31 62.5v129q-30 -5 -61 -5q-20 0 -29 1h-8q-52 0 -86.5 -30.5t-34.5 -80.5q0 -48 28.5 -78t78.5 -30z" />
    <glyph glyph-name="dvTTH_TTHA" horiz-adv-x="472" 
d="M386 -76q0 65 -45 92.5t-127 35.5l-14 -6q-57 -22 -84 -49t-27 -77q0 -56 41 -87.5t111 -31.5q68 0 106.5 33.5t38.5 89.5zM269 120q-3 -16 -15 -34q175 -23 175 -162q0 -75 -53 -118t-136 -43q-81 0 -137.5 40.5t-56.5 116.5q0 59 32.5 94.5t90.5 60.5q30 14 42 23
t16 23q3 7 3 27q-8 0 -26 2q-69 7 -114 47t-45 108q0 59 32.5 94.5t90.5 60.5q41 18 51.5 31t10.5 47v31h-240v36h492v-36h-211v-41q0 -32 -18 -57q77 -10 126 -49.5t49 -112.5q0 -67 -43 -109.5t-113 -50.5q0 -20 -3 -29zM385 309q0 111 -172 128l-14 -6q-57 -22 -84 -49
t-27 -77q0 -56 41 -87.5t111 -31.5q68 0 106.5 33.5t38.5 89.5z" />
    <glyph glyph-name="dvTTH_TTH_YA" horiz-adv-x="926" 
d="M936 569h-100v-563h-41v158q-50 -48 -128 -48q-67 0 -110.5 36t-54.5 101q-4 26 -4 41q65 22 92 43.5t27 48.5q0 57 -96 57q-104 0 -154 -12q61 -43 61 -122q0 -67 -43 -109.5t-113 -50.5q0 -20 -3 -29q-3 -16 -15 -34q175 -23 175 -162q0 -75 -53 -118t-136 -43
q-81 0 -137.5 40.5t-56.5 116.5q0 59 32.5 94.5t90.5 60.5q30 14 42 23t16 23q3 7 3 27q-8 0 -26 2q-69 7 -114 47t-45 108q0 59 32.5 94.5t90.5 60.5q41 18 51.5 31t10.5 47v31h-240v36h946v-36zM386 -76q0 65 -45 92.5t-127 35.5l-14 -6q-57 -22 -84 -49t-27 -77
q0 -56 41 -87.5t111 -31.5q68 0 106.5 33.5t38.5 89.5zM667 153q48 0 83.5 23.5t44.5 47.5v345h-524v-41q0 -32 -18 -57q35 -5 61 -14q64 23 207 23q68 0 102 -26t34 -67q0 -76 -114 -118q3 -52 35 -84t89 -32zM385 309q0 111 -172 128l-14 -6q-57 -22 -84 -49t-27 -77
q0 -56 41 -87.5t111 -31.5q68 0 106.5 33.5t38.5 89.5z" />
    <glyph glyph-name="dvTTH_YA" horiz-adv-x="920" 
d="M845 0h-41v130q-47 -51 -123 -51q-70 0 -114 37.5t-55 105.5q-2 11 -4 33q65 18 91.5 39t26.5 50q0 71 -173 71q-61 0 -132 -17q53 -23 86 -68t33 -110q0 -89 -57 -140t-141 -51q-81 0 -141.5 49t-60.5 142q0 122 132 183q40 18 51 32t11 46v88h-244v36h940v-36h-85v-569
zM681 116q50 0 84 27t39 52v374h-529v-98q0 -28 -15 -53q98 34 204 34q108 0 155 -30t47 -77q0 -79 -113 -115q2 -50 36.5 -82t91.5 -32zM397 220q0 75 -50 116.5t-124 47.5q-6 -4 -20 -10q-120 -45 -120 -154q0 -71 44 -112t116 -41q68 0 111 41.5t43 111.5z" />
    <glyph glyph-name="dvDD_DDA" horiz-adv-x="424" 
d="M212 -237q-99 0 -174 49l21 35q23 -18 66.5 -32t86.5 -14q117 0 117 75q0 26 -18.5 39.5t-64.5 21.5l-95 18q-96 18 -96 95q0 47 41 77q-32 12 -58 29l21 35q23 -18 66.5 -32t86.5 -14q117 0 117 75q0 26 -18.5 39.5t-64.5 21.5l-98 18q-93 17 -93 92q0 48 36.5 73
t95.5 25q55 0 106 -8v88h-303v36h444v-36h-100v-129q-116 11 -148 11q-88 0 -88 -60q0 -26 16.5 -37t49.5 -17l109 -20q99 -19 99 -97q0 -54 -42 -83.5t-118 -29.5q-38 0 -76 9q-38 -30 -38 -66q0 -26 18 -38.5t51 -18.5l106 -20q99 -19 99 -97q0 -54 -42 -83.5t-118 -29.5z
" />
    <glyph glyph-name="dvDD_DD_YA" horiz-adv-x="878" 
d="M212 -237q-99 0 -174 49l21 35q23 -18 66.5 -32t86.5 -14q117 0 117 75q0 26 -18.5 39.5t-64.5 21.5l-95 18q-96 18 -96 95q0 47 41 77q-30 11 -58 29l21 35q23 -18 66.5 -32t86.5 -14q117 0 117 75q0 26 -18.5 39.5t-64.5 21.5l-98 18q-93 17 -93 92q0 48 36.5 73
t95.5 25q55 0 106 -8v88h-303v36h898v-36h-100v-569h-41v169q-46 -46 -118 -46q-74 0 -115.5 42.5t-46.5 116.5q0 4 -0.5 11t-0.5 10q42 12 64.5 27.5t27 27.5t4.5 29q0 28 -21 45.5t-62 17.5q-45 0 -148 -11q-99 12 -145 12q-88 0 -88 -60q0 -26 16.5 -37t49.5 -17l109 -20
q99 -19 99 -97q0 -54 -42 -83.5t-118 -29.5q-38 0 -76 8q-38 -27 -38 -65q0 -26 18 -38.5t51 -18.5l106 -20q99 -19 99 -97q0 -54 -42 -83.5t-118 -29.5zM747 569h-413v-94q75 11 145 11q62 0 93.5 -28.5t31.5 -70.5q0 -78 -92 -110q0 -49 31.5 -83t85.5 -34q44 0 75 20
t43 44v345z" />
    <glyph glyph-name="dvDD_DDHA" horiz-adv-x="424" 
d="M212 107h-7q-56 -13 -94 -56.5t-38 -104.5q0 -70 42.5 -107.5t106.5 -37.5q48 0 77.5 27.5t29.5 68.5q0 28 -17.5 45.5t-43.5 17.5q-36 0 -50 -26l-29 24q27 40 78 40q43 0 73 -27.5t30 -73.5q0 -54 -40 -94t-108 -40q-85 0 -138.5 50.5t-53.5 132.5q0 60 30 104.5
t73 65.5q-53 14 -95 40l21 35q23 -18 66.5 -32t86.5 -14q117 0 117 75q0 26 -18.5 39.5t-64.5 21.5l-98 18q-93 17 -93 92q0 48 36.5 73t95.5 25q55 0 106 -8v88h-303v36h444v-36h-100v-129q-116 11 -148 11q-88 0 -88 -60q0 -26 16.5 -37t49.5 -17l109 -20q99 -19 99 -97
q0 -54 -42 -83.5t-118 -29.5z" />
    <glyph glyph-name="dvDD_YA" horiz-adv-x="878" 
d="M38 76l21 35q68 -51 149 -51q121 0 121 94q0 34 -19 51t-64 25l-98 18q-93 16 -93 108q0 53 37 83t95 30q49 0 106 -6v106h-303v36h898v-36h-100v-569h-41v146q-46 -46 -118 -46q-71 0 -113.5 43.5t-48.5 114.5q-1 7 -1 22q61 18 78.5 37t17.5 47q0 61 -81 61h-109
q-28 0 -89.5 3t-96.5 3q-43 0 -65.5 -20t-22.5 -55t19.5 -50t58.5 -22l97 -18q42 -8 70.5 -35t28.5 -77q0 -62 -43.5 -97t-120.5 -35q-87 0 -170 54zM629 137q44 0 75 20t43 44v368h-413v-108h147q62 0 92.5 -27.5t30.5 -69.5q0 -78 -92 -110q0 -49 31.5 -83t85.5 -34z" />
    <glyph glyph-name="dvDDH_DDHA" horiz-adv-x="443" 
d="M235 -237q-86 0 -138 52.5t-52 135.5q0 69 36 113t85 62q-54 14 -86.5 61.5t-32.5 108.5q0 75 51 124t127 49q54 0 86 -5v105h-321v36h462v-36h-100v-147q-75 10 -117 10q-66 0 -105.5 -37t-39.5 -99q0 -68 43 -110.5t106 -42.5q50 0 76 24t26 61q0 25 -13 40.5t-34 15.5
q-28 0 -50 -26l-27 26q25 38 76 38q38 0 63.5 -27t25.5 -67q0 -50 -38 -86t-105 -37q-62 -1 -106.5 -42t-44.5 -112t41.5 -110.5t105.5 -39.5q49 0 78 26.5t29 69.5q0 28 -17.5 44.5t-43.5 16.5q-32 0 -50 -26l-29 24q27 40 78 40q43 0 73 -26.5t30 -72.5q0 -55 -40 -94.5
t-108 -39.5z" />
    <glyph glyph-name="dvDDH_YA" horiz-adv-x="892" 
d="M311 435v134h-321v36h912v-36h-99v-569h-41v118q-46 -46 -118 -46q-59 0 -99 30t-54 78q-10 37 -10 72q61 18 78.5 37t17.5 47q0 61 -81 61h-259q-65 0 -109 -36t-44 -108q0 -77 48 -125.5t115 -48.5q51 0 80 25t29 69q0 28 -15.5 45.5t-41.5 17.5q-33 0 -49 -29l-29 28
q26 39 77 39q43 0 71 -27t28 -74q0 -56 -40 -94t-110 -38q-87 0 -146.5 62.5t-59.5 149.5q0 84 55 133t133 49h82zM762 569h-410v-136h144q62 0 92.5 -27.5t30.5 -69.5q0 -78 -92 -110q0 -52 30.5 -84.5t86.5 -32.5q44 0 75 20t43 44v396z" />
    <glyph glyph-name="dvDDH_R_YA" horiz-adv-x="892" 
d="M311 435v134h-321v36h912v-36h-99v-569h-41v118q-46 -46 -118 -46q-59 0 -99 30t-54 78q-10 37 -10 72q61 18 78.5 37t17.5 47q0 61 -81 61h-259q-65 0 -109 -36t-44 -108q0 -77 48 -125.5t115 -48.5q51 0 80 25t29 69q0 28 -15.5 45.5t-41.5 17.5q-33 0 -49 -29l-29 28
q26 39 77 39q43 0 71 -27t28 -74q0 -56 -40 -94t-110 -38q-87 0 -146.5 62.5t-59.5 149.5q0 84 55 133t133 49h82zM762 569h-410v-136h144q62 0 92.5 -27.5t30.5 -69.5q0 -78 -92 -110q0 -52 30.5 -84.5t86.5 -32.5q44 0 75 20t43 44v396zM239 -23l-152 -150l-28 28l180 176
l180 -176l-28 -28z" />
    <glyph glyph-name="dvNN_TTA" horiz-adv-x="835" 
d="M213 184q-71 0 -107 43t-36 122v220h-80v36h855v-36h-95v-179q-40 2 -65 2q-93 0 -136.5 -42t-43.5 -114q0 -73 44 -116t123 -43q63 0 117 21l10 -35q-52 -24 -127 -24q-100 0 -155 55.5t-55 141.5t56.5 139.5t161.5 53.5h29v140h-351v-220q0 -80 -37 -122.5t-108 -42.5z
M111 569v-224q0 -123 102 -123q104 0 104 123v224h-206z" />
    <glyph glyph-name="dvNN_TTHA" horiz-adv-x="892" 
d="M213 184q-71 0 -107 43t-36 122v220h-80v36h912v-36h-214v-98q0 -30 -16 -54q77 -14 129 -64t52 -133q0 -89 -57 -140t-141 -51q-81 0 -141.5 49t-60.5 142q0 122 132 183q40 18 51 32t11 46v88h-289v-220q0 -80 -37 -122.5t-108 -42.5zM111 569v-224q0 -123 102 -123
q104 0 104 123v224h-206zM810 220q0 75 -50 116.5t-124 47.5q-6 -4 -20 -10q-120 -45 -120 -154q0 -71 44 -112t116 -41q68 0 111 41.5t43 111.5z" />
    <glyph glyph-name="dvNN_DDA" horiz-adv-x="849" 
d="M463 76l21 35q24 -20 64.5 -35.5t84.5 -15.5q121 0 121 93q0 33 -20.5 50.5t-66.5 26.5l-86 18q-102 20 -102 108q0 53 37.5 83t95.5 30q55 0 106 -8v108h-360v-220q0 -80 -37 -122.5t-108 -42.5t-107 43t-36 122v220h-80v36h869v-36h-100v-149q-101 11 -148 11
q-43 0 -66 -20t-23 -55q0 -34 21.5 -49t62.5 -24l87 -17q43 -9 73.5 -36t30.5 -77q0 -62 -43.5 -96.5t-120.5 -34.5q-95 0 -170 54zM111 569v-224q0 -123 102 -123q104 0 104 123v224h-206z" />
    <glyph glyph-name="dvNN_DDHA" horiz-adv-x="851" 
d="M213 184q-71 0 -107 43t-36 122v220h-80v36h871v-36h-100v-182q-75 10 -115 10q-65 0 -109 -36t-44 -108q0 -78 49 -126t116 -48q50 0 79 25t29 65q0 29 -16.5 47.5t-41.5 18.5q-35 0 -50 -27l-28 26q26 39 77 39q42 0 71 -28.5t29 -75.5q0 -53 -40 -90.5t-109 -37.5
q-88 0 -148 62t-60 150q0 84 55 133t133 49q40 0 82 -6v140h-362v-220q0 -80 -37 -122.5t-108 -42.5zM111 569v-224q0 -123 102 -123q104 0 104 123v224h-206z" />
    <glyph glyph-name="dvNN_NNA" horiz-adv-x="1069" 
d="M213 184q-71 0 -107 43t-36 122v220h-80v36h1089v-36h-100v-569h-41v569h-156v-221q0 -80 -36.5 -122t-107.5 -42t-107.5 42.5t-36.5 121.5v221h41v-225q0 -122 103 -122t103 122v225h-383v-220q0 -80 -37 -122.5t-108 -42.5zM111 569v-224q0 -123 102 -123
q104 0 104 123v224h-206z" />
    <glyph glyph-name="dvNN_MA" horiz-adv-x="919" 
d="M213 184q-71 0 -107 43t-36 122v220h-80v36h939v-36h-100v-569h-41v276h-228v-77h-43q-39 39 -46 93q23 11 48 15v262h41v-258q8 1 27 1h201v257h-430v-220q0 -80 -37 -122.5t-108 -42.5zM111 569v-224q0 -123 102 -123q104 0 104 123v224h-206z" />
    <glyph glyph-name="dvNN_YA" horiz-adv-x="951" 
d="M213 184q-71 0 -107 43t-36 122v220h-80v36h971v-36h-100v-569h-41v184q-55 -57 -151 -57q-92 0 -146 55.5t-60 160.5q-1 9 -1 27q89 1 124.5 23.5t35.5 66.5q0 67 -42 109h-222v-220q0 -80 -37 -122.5t-108 -42.5zM111 569v-224q0 -123 102 -123q104 0 104 123v224h-206
zM670 165q53 0 91.5 21t58.5 47v336h-195q40 -46 40 -109q0 -54 -41 -88t-117 -34q4 -86 47 -129.5t116 -43.5z" />
    <glyph glyph-name="dvNN_VA" horiz-adv-x="925" 
d="M213 184q-71 0 -107 43t-36 122v220h-80v36h945v-36h-100v-569h-40v181q-16 -27 -54 -49.5t-92 -22.5q-80 0 -130.5 51.5t-50.5 127.5q0 82 54.5 130.5t128.5 48.5q35 0 60 -8l-8 -35q-22 5 -47 5q-61 0 -103 -36t-42 -105q0 -61 38 -101t100 -40q64 0 101 34.5t45 70.5
v317h-437v-220q0 -80 -37 -122.5t-108 -42.5zM111 569v-224q0 -123 102 -123q104 0 104 123v224h-206z" />
    <glyph glyph-name="dvT_KA" horiz-adv-x="976" 
d="M649 569v-182q15 26 48.5 45.5t76.5 19.5q73 0 117.5 -45t44.5 -118t-45 -118t-113 -45q-28 0 -45 4l6 37q20 -3 35 -3q53 0 86 33.5t33 91.5q0 55 -32 90t-88 35q-48 0 -80 -28.5t-44 -68.5v-317h-41v193q-41 -66 -130 -66q-74 0 -118.5 45t-44.5 118q0 49 25 88
q-47 6 -96 6q-68 0 -113.5 -35.5t-45.5 -112.5q0 -66 29 -126.5t57 -92.5l-31 -24q-34 36 -65.5 104t-31.5 139q0 88 56 137.5t142 49.5q68 0 128 -12q46 40 110 40q24 0 43 -4l-5 -37q-15 3 -37 3q-53 0 -87.5 -33.5t-34.5 -89.5t32 -90.5t91 -34.5q50 0 82 28.5t45 64.5
v311h-618v36h996v-36h-337z" />
    <glyph glyph-name="dvT_K_YA" horiz-adv-x="1337" 
d="M771 452q92 0 121 -80q64 6 90 27.5t26 60.5q0 67 -42 109h-299v-175q11 21 39.5 39.5t64.5 18.5zM1347 569h-100v-569h-41v184q-55 -57 -151 -57q-92 0 -146 55.5t-60 160.5q-1 9 -1 27q-21 44 -78 44q-38 0 -67.5 -28t-35.5 -66v-320h-41v193q-41 -66 -130 -66
q-74 0 -118.5 45t-44.5 118q0 48 23 85q-57 9 -112 9q-68 0 -113.5 -35.5t-45.5 -112.5q0 -66 29 -126.5t57 -92.5l-31 -24q-34 36 -65.5 104t-31.5 139q0 88 56 137.5t142 49.5q72 0 143 -14q47 42 113 42q24 0 43 -4l-5 -37q-15 3 -37 3q-53 0 -87.5 -33.5t-34.5 -89.5
t32 -90.5t91 -34.5q50 0 82 28.5t45 64.5v311h-636v36h1357v-36zM1056 165q53 0 91.5 21t58.5 47v336h-195q40 -46 40 -109q0 -54 -41 -88t-117 -34q4 -86 47 -129.5t116 -43.5z" />
    <glyph glyph-name="dvT_K_RA" horiz-adv-x="989" 
d="M662 569v-182q15 26 48.5 45.5t76.5 19.5q73 0 117.5 -45t44.5 -118t-45 -118t-113 -45q-28 0 -45 4l6 37q20 -3 35 -3q53 0 86 33.5t33 91.5q0 55 -32 90t-88 35q-48 0 -80 -28.5t-44 -68.5v-317h-41v193q-17 -26 -38 -39l-226 -171l-26 33l158 111q-74 1 -117.5 45.5
t-43.5 117.5q0 47 23 86q-54 8 -107 8q-68 0 -113.5 -35.5t-45.5 -112.5q0 -66 29 -126.5t57 -92.5l-31 -24q-34 36 -65.5 104t-31.5 139q0 88 56 137.5t142 49.5q68 0 139 -14q47 42 112 42q24 0 43 -4l-5 -37q-15 3 -37 3q-53 0 -87.5 -33.5t-34.5 -89.5t32 -90.5
t91 -34.5q50 0 82 28.5t45 64.5v311h-631v36h1009v-36h-337z" />
    <glyph glyph-name="dvT_K_VA" horiz-adv-x="1320" 
d="M1044 147q64 0 101 34.5t45 70.5v317h-528v-182q15 26 48.5 45.5t76.5 19.5q76 0 119 -45q54 60 140 60q35 0 60 -8l-8 -35q-22 5 -47 5q-61 0 -103 -36t-42 -105q0 -61 38 -101t100 -40zM1330 569h-100v-569h-40v181q-16 -27 -54 -49.5t-92 -22.5q-80 0 -130.5 51.5
t-50.5 127.5q0 44 18 82q-33 44 -95 44q-48 0 -80 -28.5t-44 -68.5v-317h-41v193q-41 -66 -130 -66q-74 0 -118.5 45t-44.5 118q0 47 23 86q-54 8 -107 8q-68 0 -113.5 -35.5t-45.5 -112.5q0 -66 29 -126.5t57 -92.5l-31 -24q-34 36 -65.5 104t-31.5 139q0 88 56 137.5
t142 49.5q68 0 139 -14q47 42 112 42q24 0 43 -4l-5 -37q-15 3 -37 3q-53 0 -87.5 -33.5t-34.5 -89.5t32 -90.5t91 -34.5q50 0 82 28.5t45 64.5v311h-631v36h1340v-36z" />
    <glyph glyph-name="dvT_K_SSA" horiz-adv-x="917" 
d="M337 569h-347v36h347v-36zM626 0h-41v133q-13 -21 -42.5 -39t-75.5 -18q-72 0 -116.5 41.5t-44.5 112.5q0 77 67 124q-54 29 -126 29q-69 0 -115.5 -35.5t-46.5 -111.5q0 -66 29 -126.5t57 -92.5l-31 -24q-34 36 -65.5 104t-31.5 139q0 88 57 137t144 49q98 0 167 -46
q25 12 48 17q-20 8 -41 35.5t-21 68.5q0 47 31.5 80t79.5 33t79 -32t31 -80q0 -45 -23.5 -73t-54.5 -39q44 -17 116 -17t130 23v177h-102v36h243v-36h-100v-569h-41v353q-60 -21 -128 -21q-99 0 -164 34q-145 -34 -145 -137q0 -55 33.5 -85t84.5 -30q47 0 77.5 25.5
t40.5 63.5h41v-203zM439 497q0 -35 19 -56.5t43 -30.5q28 5 51.5 26.5t23.5 61.5q0 33 -18 54t-50 21q-33 0 -51 -21.5t-18 -54.5z" />
    <glyph glyph-name="dvT_KHA" horiz-adv-x="1048" 
d="M917 569h-367q52 -60 52 -137q0 -82 -55 -124.5t-128 -42.5q64 -194 245 -194q108 0 191 69q-27 -9 -61 -9q-65 0 -112.5 44.5t-47.5 109.5t44.5 109t111.5 44q26 0 56 -7l-8 -37q-28 6 -49 6q-47 0 -79.5 -31.5t-32.5 -83.5t34.5 -84.5t84.5 -32.5q41 0 74 13.5t47 32.5
v355zM1058 569h-100v-569h-41v155q-44 -56 -108.5 -89t-139.5 -33q-217 0 -292 220l-32 18l7 27q-52 65 -127 65q-61 0 -100 -34.5t-39 -110.5q0 -61 28.5 -116t57.5 -85l-31 -24q-34 33 -65.5 96.5t-31.5 128.5q0 87 49.5 135.5t128.5 48.5q108 0 176 -99h1
q71 0 115.5 31.5t44.5 97.5q0 76 -55 137h-514v36h1068v-36z" />
    <glyph glyph-name="dvT_KH_NA" horiz-adv-x="1051" 
d="M920 569h-367q52 -60 52 -137q0 -82 -55 -124.5t-128 -42.5q64 -194 245 -194q109 0 191 69q-27 -9 -61 -9q-65 0 -112.5 44.5t-47.5 109.5t44.5 109t111.5 44q26 0 56 -7l-8 -37q-28 6 -49 6q-47 0 -79.5 -31.5t-32.5 -83.5t34.5 -84.5t84.5 -32.5q41 0 74 13.5t47 32.5
v355zM1061 569h-100v-569h-41v155q-51 -66 -140 -103l-260 -108l26 -71l-40 -14q-37 26 -65 74l16 34l190 69q-196 9 -267 217l-32 18l6 26q-63 59 -130 59q-60 0 -99.5 -35.5t-39.5 -112.5q0 -98 86 -191l-31 -24q-97 100 -97 215q0 88 50 137.5t128 49.5q98 0 183 -92
q70 1 114 32t44 97q0 76 -55 137h-517v36h1071v-36z" />
    <glyph glyph-name="dvT_KH_RA" horiz-adv-x="1051" 
d="M920 569h-367q52 -60 52 -137q0 -82 -55 -124.5t-128 -42.5q64 -194 245 -194q109 0 191 69q-27 -9 -61 -9q-65 0 -112.5 44.5t-47.5 109.5t44.5 109t111.5 44q26 0 56 -7l-8 -37q-28 6 -49 6q-47 0 -79.5 -31.5t-32.5 -83.5t34.5 -84.5t84.5 -32.5q41 0 74 13.5t47 32.5
v355zM1061 569h-100v-569h-41v154q-53 -67 -140 -102l-320 -132l-20 41l211 75q-199 8 -271 217l-32 18l6 26q-63 59 -130 59q-60 0 -99.5 -35.5t-39.5 -112.5q0 -98 86 -191l-31 -24q-97 100 -97 215q0 88 50 137.5t128 49.5q98 0 183 -92q70 1 114 32t44 97q0 76 -55 137
h-517v36h1071v-36z" />
    <glyph glyph-name="dvT_TA" horiz-adv-x="524" 
d="M393 0v367q-61 4 -93 4q-28 0 -48.5 -2t-49 -11t-47 -24.5t-31.5 -46.5t-13 -74q0 -100 83 -197l-31 -24q-94 102 -94 221q0 64 23.5 104.5t58.5 55.5h-121v38h176q113 0 187 -6v164h-403v36h544v-36h-100v-569h-41z" />
    <glyph glyph-name="dvT_T" horiz-adv-x="311" 
d="M321 569h-331v36h331v-36zM393 405l-4 -38q-61 4 -89 4t-48.5 -2t-49 -11t-47 -24.5t-31.5 -46.5t-13 -74q0 -100 83 -197l-31 -24q-94 102 -94 221q0 64 23.5 104.5t58.5 55.5h-121v38h176q113 0 187 -6z" />
    <glyph glyph-name="dvT_T_YA" horiz-adv-x="823" 
d="M833 569h-100v-569h-41v184q-55 -57 -151 -57q-92 0 -146 55.5t-60 160.5q0 1 -0.5 4t-0.5 4q-32 6 -69 6q-64 0 -110 -37.5t-46 -122.5q0 -93 75 -181l-31 -24q-86 93 -86 205q0 61 24 103t58 57h-121v38h176q124 0 183 -22q59 7 83 28.5t24 58.5q0 67 -42 109h-462v36
h843v-36zM542 165q53 0 91.5 21t58.5 47v336h-195q40 -46 40 -109q0 -54 -41 -88t-117 -34q4 -86 47 -129.5t116 -43.5z" />
    <glyph glyph-name="dvT_T_VA" horiz-adv-x="795" 
d="M805 569h-100v-569h-40v181q-16 -27 -54 -49.5t-92 -22.5q-80 0 -130.5 51.5t-50.5 127.5q0 46 18 81q-48 2 -56 2q-28 0 -48.5 -2t-49 -11t-47 -24.5t-31.5 -46.5t-13 -74q0 -100 83 -197l-31 -24q-94 102 -94 221q0 64 23.5 104.5t58.5 55.5h-121v38h176q106 0 174 -5
q53 61 141 61q35 0 60 -8l-8 -35q-22 5 -47 5q-61 0 -103 -36t-42 -105q0 -61 38 -101t100 -40q64 0 101 34.5t45 70.5v317h-675v36h815v-36z" />
    <glyph glyph-name="dvT_THA" horiz-adv-x="834" 
d="M318 569h-328v36h328v-36zM577 490q0 -30 -7 -51.5t-27.5 -44t-64 -36t-109.5 -17.5q3 -90 46 -133t117 -43q64 0 107 28.5t64 70.5v305h-68v36h209v-36h-100v-569h-41v203q-58 -76 -172 -76q-89 0 -147 57t-58 178v12q-27 10 -81 10q-68 0 -113.5 -35.5t-45.5 -112.5
q0 -66 29 -126.5t57 -92.5l-31 -24q-34 36 -65.5 104t-31.5 139q0 88 56 137.5t142 49.5q102 0 151 -42q89 9 115.5 35t26.5 74q0 81 -59 81q-27 0 -41.5 -16.5t-14.5 -46.5q0 -17 5 -34l-40 -10q-7 17 -7 42q0 46 27 74.5t71 28.5q48 0 74.5 -32.5t26.5 -86.5z" />
    <glyph glyph-name="dvT_NA" horiz-adv-x="518" 
d="M528 569h-100v-569h-41v330l-125 -104l48 -63l-33 -28q-52 19 -85 51l6 37l189 154q-65 7 -139 7q-71 0 -116.5 -35.5t-45.5 -114.5q0 -65 29 -125t57 -92l-31 -24q-35 37 -66 104.5t-31 136.5q0 91 56 140t145 49q86 0 142 -7v153h-397v36h538v-36z" />
    <glyph glyph-name="dvT_N_YA" horiz-adv-x="828" 
d="M838 569h-100v-569h-41v184q-55 -57 -151 -57q-60 0 -104 24l-125 -80l42 -69l-36 -24q-48 22 -80 62l8 37l157 97q-62 57 -68 169q-1 6 -1 20q-42 21 -94 21q-68 0 -113.5 -35.5t-45.5 -112.5q0 -66 29 -126.5t57 -92.5l-31 -24q-34 36 -65.5 104t-31.5 139
q0 88 56 137.5t142 49.5t151 -50q58 7 82 28.5t24 58.5q0 67 -42 109h-467v36h848v-36zM547 165q53 0 91.5 21t58.5 47v336h-195q40 -46 40 -109q0 -54 -41 -88t-117 -34q4 -86 47 -129.5t116 -43.5z" />
    <glyph glyph-name="dvT_PA" horiz-adv-x="751" 
d="M761 605v-36h-100v-569h-41v226q-66 -32 -129 -32q-142 0 -142 148v34q-53 8 -105 8q-68 0 -113.5 -35.5t-45.5 -112.5q0 -66 29 -126.5t57 -92.5l-31 -24q-34 36 -65.5 104t-31.5 139q0 88 56 137.5t142 49.5q59 0 108 -8v154h-359v36h771zM620 569h-230v-219
q0 -60 20.5 -89t80.5 -29q63 0 129 36v301z" />
    </font>
</defs>
</svg>
