<?xml version="1.0" encoding="UTF-8"?>
<svg width="392px" height="106px" viewBox="0 0 392 106" version="1.1" xmlns="http://www.w3.org/2000/svg" xmlns:xlink="http://www.w3.org/1999/xlink">
    <!-- Generator: Sketch 55.2 (78181) - https://sketchapp.com -->
    <title>LOGO</title>
    <desc>Created with Sketch.</desc>
    <defs>
        <polygon id="path-1" points="0 0 380 0 370 90 20 100"></polygon>
        <filter x="-2.5%" y="-9.0%" width="104.9%" height="118.0%" filterUnits="objectBoundingBox" id="filter-2">
            <feMorphology radius="1" operator="dilate" in="SourceAlpha" result="shadowSpreadOuter1"></feMorphology>
            <feOffset dx="0" dy="0" in="shadowSpreadOuter1" result="shadowOffsetOuter1"></feOffset>
            <feGaussianBlur stdDeviation="2" in="shadowOffsetOuter1" result="shadowBlurOuter1"></feGaussianBlur>
            <feColorMatrix values="0 0 0 0 0   0 0 0 0 0   0 0 0 0 0  0 0 0 0.5 0" type="matrix" in="shadowBlurOuter1"></feColorMatrix>
        </filter>
    </defs>
    <g id="DEV:Log/Sign" stroke="none" stroke-width="1" fill="none" fill-rule="evenodd">
        <g id="NN_SITE-LOG_IN-DESKTOP" transform="translate(-587.000000, 0.000000)">
            <g id="LOGO" transform="translate(593.000000, 0.000000)">
                <g id="LOGO_BG">
                    <use fill="black" fill-opacity="1" filter="url(#filter-2)" xlink:href="#path-1"></use>
                    <use fill="#FED500" fill-rule="evenodd" xlink:href="#path-1"></use>
                </g>
                <g id="Logo-/-NN-White" transform="translate(40.000000, 22.000000)" fill="#E8357D">
                    <g id="LOGO-NN-001">
                        <polygon id="Shape" fill-rule="nonzero" points="276.985075 2.05789474 266.955224 2.05789474 266.955224 40.7105263 276.985075 40.7105263 276.985075 20.4894737 288.716418 40.7105263 299.462687 40.8"></polygon>
                        <path d="M249.313433,1.96842105 C240.985075,1.96842105 234.268657,7.87368421 234.268657,15.2105263 L234.268657,27.3789474 C234.268657,34.7157895 240.985075,40.6210526 249.313433,40.6210526 C257.641791,40.6210526 264.358209,34.7157895 264.358209,27.3789474 L264.358209,26.3947368 L264.358209,21.0263158 L264.358209,20.4 L249.402985,20.4 L249.402985,28.1842105 L254.328358,28.1842105 C253.61194,30.0631579 251.641791,31.4052632 249.223881,31.4052632 C246.537313,31.4052632 244.298507,29.2578947 244.298507,26.4842105 L244.298507,15.9263158 C244.298507,13.2421053 246.447761,11.0052632 249.223881,11.0052632 C251.910448,11.0052632 254.328358,13.1526316 254.328358,15.9263158 L254.328358,17 L264.358209,17 L264.358209,15.3 C264.358209,7.96315789 257.641791,1.96842105 249.313433,1.96842105 Z" id="Shape" fill-rule="nonzero"></path>
                        <polygon id="Shape" fill-rule="nonzero" points="221.731343 22.0105263 209.641791 1.96842105 199.701493 1.96842105 199.701493 40.8 209.731343 40.8 209.731343 20.4894737 221.910448 40.8 231.761194 40.8 231.761194 1.96842105 221.731343 1.96842105"></polygon>
                        <polygon id="Rectangle-path" fill-rule="nonzero" points="187.074627 13.6894737 197.104478 13.6894737 197.104478 40.7105263 187.074627 40.7105263"></polygon>
                        <polygon id="Shape" fill-rule="nonzero" points="77.641791 40.8 88.3880597 40.8 100.119403 20.4 100.119403 40.8 110.149254 40.8 110.149254 1.96842105 100.119403 1.96842105"></polygon>
                        <path d="M172.925373,1.96842105 L155.820896,1.96842105 L155.820896,18.3421053 L165.850746,36.6842105 L165.850746,27.7368421 L172.656716,27.7368421 C180.626866,27.7368421 185.014925,23.1736842 185.014925,14.6736842 C185.014925,6.62105263 180.626866,1.96842105 172.925373,1.96842105 Z M169.880597,18.7894737 L165.850746,18.7894737 L165.850746,10.6473684 L170.686567,10.6473684 C172.746269,10.6473684 174.447761,12.5263158 174.447761,14.9421053 C174.447761,17.2684211 172.567164,18.7894737 169.880597,18.7894737 Z" id="Shape" fill-rule="nonzero"></path>
                        <polygon id="Shape" fill-rule="nonzero" points="133.970149 2.05789474 133.970149 21.8315789 122.776119 2.05789474 112.835821 2.05789474 112.835821 40.8 122.776119 40.8 122.776119 20.4894737 133.970149 40.7105263 133.970149 40.8 144 40.8 144 20.4894737 155.104478 40.7105263 155.104478 40.8 160.119403 40.8 165.134328 40.8 143.910448 2.05789474"></polygon>
                        <polygon id="Shape" fill-rule="nonzero" points="74.4179104 17.5368421 74.5074627 1.96842105 64.4776119 1.96842105 64.4776119 22.0105263 52.3880597 1.96842105 42.4477612 1.96842105 42.4477612 40.8 52.4776119 40.8 52.4776119 20.4894737 62.7761194 37.6684211"></polygon>
                        <polygon id="Shape" fill-rule="nonzero" points="86.4179104 1.96842105 58.2985075 50.7315789 68.9552239 50.7315789 97.0746269 1.96842105"></polygon>
                        <polygon id="Shape" fill-rule="nonzero" points="22.4776119 22.0105263 10.3880597 1.96842105 0.537313433 1.96842105 0.537313433 40.8 10.4776119 40.8 10.4776119 20.4894737 22.7462687 40.8 32.5074627 40.8 32.5074627 13.6 22.4776119 13.6"></polygon>
                        <path d="M33.3134328,5.99473684 C33.3134328,2.77368421 30.7164179,0.178947368 27.4925373,0.178947368 C24.2686567,0.178947368 21.6716418,2.77368421 21.6716418,5.99473684 C21.6716418,9.21578947 24.2686567,11.8105263 27.4925373,11.8105263 C30.7164179,11.8105263 33.3134328,9.21578947 33.3134328,5.99473684 Z" id="Shape" fill-rule="nonzero"></path>
                        <path d="M197.910448,5.99473684 C197.910448,2.77368421 195.313433,0.178947368 192.089552,0.178947368 C188.865672,0.178947368 186.268657,2.77368421 186.268657,5.99473684 C186.268657,9.21578947 188.865672,11.8105263 192.089552,11.8105263 C195.313433,11.8105263 197.910448,9.21578947 197.910448,5.99473684 Z" id="Shape" fill-rule="nonzero"></path>
                    </g>
                </g>
            </g>
        </g>
    </g>
</svg>