<?xml version="1.0" encoding="UTF-8"?>
<svg width="126px" height="125px" viewBox="0 0 126 125" version="1.1" xmlns="http://www.w3.org/2000/svg" xmlns:xlink="http://www.w3.org/1999/xlink">
    <!-- Generator: Sketch 53 (72520) - https://sketchapp.com -->
    <title>yegna-logo</title>
    <desc>Created with Sketch.</desc>
    <g id="Symbols" stroke="none" stroke-width="1" fill="none" fill-rule="evenodd">
        <g id="navbar-top-desktop" transform="translate(-150.000000, -36.000000)">
            <g id="navbar-top">
                <g id="yegna-logo" transform="translate(150.000000, 36.000000)">
                    <circle id="Oval" fill="#FFFFFF" cx="62" cy="64" r="59"></circle>
                    <path d="M114.273477,64.4683999 C113.602187,77.2960262 108.841125,88.4414852 100.11879,97.5965265 C93.4169696,104.63785 85.135514,109.439953 75.5048325,111.875132 C72.4895674,112.636951 69.4587939,113.105933 66.5033467,113.266663 C65.6902664,113.312901 64.8794015,113.343726 64.03752,113.374551 L62.8832562,113.420788 C49.2602839,113.235838 37.4384949,108.557035 27.7413491,99.5142852 C19.9052045,92.2043437 14.8251141,83.106549 12.6450841,72.4719052 C11.8497276,68.5879483 11.5284834,64.6071127 11.6946442,60.6438914 C12.1310933,50.2272247 15.4232931,40.7771437 21.4781936,32.5534595 C27.8587694,23.8872155 36.3218942,17.7266082 46.6349428,14.2389734 C50.3237131,12.9927605 54.1143955,12.202318 57.9006468,11.8896639 C59.5622551,11.753153 61.2017086,11.6848975 62.8212228,11.6848975 C74.5987022,11.6848975 85.2817356,15.2958325 94.6376979,22.4516487 C100.389078,26.8508244 105.063736,32.4543789 108.524312,39.1081871 C111.116421,44.090837 112.868864,49.5050377 113.7329,55.1988656 C114.244675,58.5786127 114.421914,61.610477 114.273477,64.4683999 L114.273477,64.4683999 Z M125.946829,60.1000493 C125.926889,59.9767491 125.902519,59.8534489 125.898088,59.7301487 C125.669894,54.1089798 124.666282,48.5450574 122.918271,43.1881033 C119.99384,34.2158106 115.195115,26.2277179 108.657241,19.4506095 C100.271658,10.7557423 90.051659,4.84393715 78.2808261,1.88473191 C74.1423138,0.843285422 69.8819502,0.237793278 65.628233,0.0748608469 C65.5684151,0.0594483196 65.5063817,0.0418340027 65.4465638,0.028623265 L60.8693869,0 L60.4595236,0.0528429508 C60.3731199,0.0682554781 60.2867163,0.0880715846 60.2003127,0.0924751638 C53.8773394,0.352286338 47.6673554,1.55446347 41.7387371,3.66597971 C32.5555821,6.93783908 24.4690885,12.1230536 17.7030197,19.078507 C9.88681438,27.1128373 4.53422029,36.6884203 1.79145891,47.5410414 C0.792278475,51.4954555 0.209607843,55.5005108 0.0545244053,59.443916 C-0.6300582,77.1110759 5.13461474,92.5742443 17.1912443,105.410678 C25.5125785,114.266276 35.9053843,120.270556 48.0882962,123.253981 C51.67737,124.132495 55.4082344,124.682942 59.176762,124.887709 C60.5437117,124.96257 61.8685674,125 63.1624063,125 C65.382315,125 67.5091736,124.889911 69.5895071,124.669732 C76.9316002,123.8925 83.9679573,121.89988 90.5080474,118.746917 C96.7424017,115.741475 102.354207,111.81128 107.186163,107.070827 C116.116754,98.3055027 121.976693,87.7060875 124.599818,75.5654196 C125.350865,72.0887938 125.791745,68.5285 125.913596,64.9814169 C125.911381,64.9990312 125.911381,65.0166455 125.922458,64.9858205 C125.940182,64.9263722 125.95569,64.864722 125.968983,64.8052737 L126,60.5249947 L125.946829,60.1000493 Z" id="Fill-1" fill="#000000"></path>
                    <path d="M64.8134147,40.9679472 C64.4375018,37.8882416 63.4484927,35.1355449 61.8710009,32.7837697 C59.6244735,29.4330501 56.4605395,26.9916836 52.1979551,25.3230431 C49.0049326,24.0687631 45.7470204,23.703678 42.5159591,24.2389868 C39.754789,24.6959031 37.1547244,25.7418831 34.7873679,27.3500493 C28.3230077,31.7445091 25.4029696,37.9599148 26.1010936,45.8215631 C26.3830283,48.9662224 27.5443308,52.0190504 29.5536751,54.8949355 L30.7530164,56.6083716 C32.2208669,58.7025714 33.7357066,60.8684443 35.1946069,63.0163989 C36.2485057,64.57305 37.4299464,66.4007153 38.0631807,68.4232419 C38.7053653,70.4704061 39.0812783,72.7773855 39.2446214,75.6823877 C39.3744009,77.9647295 39.4527161,80.2963466 39.5265561,82.5495711 L39.5914459,84.4130729 C39.6451477,85.980923 39.6921368,87.5487731 39.7436011,89.1188629 C39.7838775,90.4694538 39.8263914,91.8200447 39.8733806,93.1706355 C39.9047066,94.1023864 40.2604814,94.9311072 40.9071412,95.5716859 L41.9901285,96.6445433 C43.7936156,98.4341322 45.5971027,100.223721 47.4073026,102.01107 C47.6042094,102.203692 47.8055913,102.355997 48.0024981,102.503823 C48.0852885,102.566537 48.172554,102.631491 48.2642946,102.703164 L49.8977259,104 L50.1237212,101.740056 C50.1416218,101.578792 50.1528097,101.457843 50.1528097,101.339134 C50.1460969,99.9751049 50.1460969,98.6110753 50.1438594,97.2492855 C50.1416218,94.0172746 50.1371466,90.6755141 50.0677818,87.3830289 C49.9961793,84.1129416 49.8328362,80.5763198 49.5464263,76.2580127 C49.3718953,73.5859482 49.1145739,71.2005763 48.7677495,68.9675098 C48.071863,64.5170554 46.3847299,60.4137677 43.7511016,56.7763556 C41.8715369,54.1804438 39.9539333,51.4523846 38.0497552,48.6638513 C36.7474854,46.7555537 36.2664063,44.6859916 36.5819047,42.3319767 C36.9063534,39.8995693 38.1795347,37.7583341 40.1597904,36.3002335 C42.151234,34.8354136 44.5879555,34.2597886 47.0224393,34.6763888 C51.7146385,35.4804719 54.9770259,39.8032585 54.4444825,44.5157679 C54.023818,48.2562103 51.3051619,51.3538341 47.680287,52.2251107 C47.1835449,52.3460592 46.664427,52.431171 46.113983,52.5230023 C45.8409986,52.567798 45.5657767,52.6148335 45.2860795,52.6641088 L43.733201,52.9485616 L44.6461325,54.617202 C44.7669616,54.8389408 44.8788405,55.0472409 45.0019072,55.2488216 L48.4835772,61.1058616 C49.1951267,62.304147 50.0498811,62.6333955 51.3499134,62.2033566 C57.6084165,60.1360343 61.8821887,55.9341961 64.0593512,49.7143108 C64.9678075,47.1183991 65.2161786,44.2559528 64.8134147,40.9679472" id="Fill-4" fill="#000000"></path>
                    <path d="M90.8666677,73.8819778 C88.5569147,72.3193368 85.7948716,71.5164328 82.420261,71.4257824 C81.2456243,71.3955656 79.9963377,71.3286569 78.8238965,71.0567056 C74.42834,70.0358089 71.6092118,65.7428627 72.412795,61.2858825 C72.8694762,58.7411949 74.5139677,56.4555087 76.8127428,55.171294 C79.0149122,53.941038 81.5266589,53.7489454 83.8891059,54.631708 C84.6729289,54.9230845 85.4501652,55.2252526 86.2383794,55.5338958 L88.1177981,56.2612577 L93.2620484,49.743059 L93.7472722,49.0610223 L93.1347046,48.2171098 L93.0161432,48.1156676 C92.9261243,48.0444423 92.838301,47.9753753 92.7526732,47.9084666 C90.6954122,46.3393505 88.3022271,45.2105366 85.6258118,44.5457667 C85.6323985,43.5766703 85.6302029,42.6097322 85.6302029,41.6406357 L85.6302029,40.8247817 L92.0369133,40.8247817 L92.0369133,31 L69.0052507,31 L69.0052507,40.7988816 L75.4734373,40.7988816 L75.4734373,41.498185 C75.4756329,42.4910233 75.4778285,43.4817031 75.4800241,44.472383 C75.4822197,44.6882174 75.4734373,44.811243 75.464655,44.88031 C75.4009831,44.9126852 75.2846172,44.9580104 75.0826236,45.0249191 C65.867763,48.0811341 60.4205223,57.2799961 62.4075246,66.4227411 C63.9663884,73.5927597 68.4212257,78.3993917 75.6512795,80.7066614 C77.9983574,81.4556068 80.4025205,81.4771902 82.7298382,81.4987737 L82.9274406,81.500932 C84.5609542,81.5160404 85.7004616,82.2067105 86.414026,83.6117924 C87.1144169,84.9909742 86.9673128,86.2902973 85.9639315,87.5831453 C85.6916793,87.9349554 85.3996668,88.2694987 85.1054587,88.6018836 L85.0242221,88.6946924 C84.5455851,89.2407535 84.4972823,89.8990484 84.8837048,90.5012263 C85.5577487,91.5458648 86.2274014,92.5926616 86.8948586,93.6416168 L88.4625046,96.0913372 C88.5854573,96.2812715 88.9565107,96.8597076 89.6744663,96.9805749 C89.7578984,96.993525 89.8413306,97 89.9247627,97 C90.3155764,97 90.7085857,96.8489159 91.0928127,96.5489061 L91.2289388,96.4409889 C91.8502888,95.9553615 92.4935945,95.4524674 93.0798151,94.8632395 C95.9472461,91.9840086 97.2536178,88.4400078 96.9594097,84.3262043 C96.647637,79.9210242 94.5969627,76.4072403 90.8666677,73.8819778" id="Fill-6" fill="#000000"></path>
                </g>
            </g>
        </g>
    </g>
</svg>