<?xml version="1.0" encoding="utf-8"?>
<!-- Generator: Adobe Illustrator 17.0.0, SVG Export Plug-In . SVG Version: 6.00 Build 0)  -->
<!DOCTYPE svg PUBLIC "-//W3C//DTD SVG 1.1//EN" "http://www.w3.org/Graphics/SVG/1.1/DTD/svg11.dtd">
<svg version="1.1" id="Layer_1" xmlns="http://www.w3.org/2000/svg" xmlns:xlink="http://www.w3.org/1999/xlink" x="0px" y="0px"
	 width="41.006px" height="28.97px" viewBox="0 0 41.006 28.97" enable-background="new 0 0 41.006 28.97" xml:space="preserve">
<g>
	<defs>
		<rect id="SVGID_1_" x="0.208" y="0" width="40.799" height="28.97"/>
	</defs>
	<clipPath id="SVGID_2_">
		<use xlink:href="#SVGID_1_"  overflow="visible"/>
	</clipPath>
	<path clip-path="url(#SVGID_2_)" fill="#EC008C" d="M20.623,0C9.366,0,0.24,6.109,0.24,13.645c0,3.149,1.598,6.047,4.277,8.356
		l-4.31,6.969l11.783-2.965c2.622,0.82,5.545,1.282,8.632,1.282c11.257,0,20.383-6.109,20.383-13.643
		C41.006,6.109,31.879,0,20.623,0"/>
	<path clip-path="url(#SVGID_2_)" fill="#FFFFFF" d="M31.836,10.83H10.884c-0.743,0-1.347-0.604-1.347-1.347
		c0-0.746,0.604-1.35,1.347-1.35h20.952c0.743,0,1.347,0.604,1.347,1.35C33.183,10.226,32.579,10.83,31.836,10.83"/>
	<path clip-path="url(#SVGID_2_)" fill="#FFFFFF" d="M28.47,17.688H10.885c-0.743,0-1.347-0.604-1.347-1.347
		c0-0.746,0.604-1.35,1.347-1.35H28.47c0.743,0,1.347,0.604,1.347,1.35C29.817,17.084,29.213,17.688,28.47,17.688"/>
</g>
</svg>
