<?xml version="1.0" encoding="utf-8"?>
<!-- Generator: Adobe Illustrator 17.0.0, SVG Export Plug-In . SVG Version: 6.00 Build 0)  -->
<!DOCTYPE svg PUBLIC "-//W3C//DTD SVG 1.1//EN" "http://www.w3.org/Graphics/SVG/1.1/DTD/svg11.dtd">
<svg version="1.1" id="Layer_1" xmlns="http://www.w3.org/2000/svg" xmlns:xlink="http://www.w3.org/1999/xlink" x="0px" y="0px"
	 width="43.435px" height="23.675px" viewBox="0 0 43.435 23.675" enable-background="new 0 0 43.435 23.675" xml:space="preserve">
<g>
	<path fill="#EB008B" d="M2.071,5.069h39.294c1.138,0,2.058-1.121,2.069-2.51V2.51c-0.011-1.383-0.922-2.498-2.053-2.509H2.055
		C0.917,0.012,0,1.14,0,2.534C0,3.935,0.926,5.069,2.071,5.069z"/>
	<path fill="#EB008B" d="M2.071,14.697h39.294c1.138,0,2.058-1.121,2.069-2.51v-0.049c-0.011-1.389-0.931-2.511-2.069-2.511H2.071
		C0.926,9.627,0,10.761,0,12.162S0.926,14.697,2.071,14.697z"/>
	<path fill="#EB008B" d="M43.434,21.163v-0.049c-0.011-1.389-0.931-2.511-2.069-2.511H2.071C0.926,18.604,0,19.738,0,21.139
		s0.926,2.535,2.071,2.535h39.294C42.503,23.674,43.423,22.553,43.434,21.163z"/>
</g>
</svg>
