<?xml version="1.0" encoding="utf-8"?>
<!-- Generator: Adobe Illustrator 17.0.0, SVG Export Plug-In . SVG Version: 6.00 Build 0)  -->
<!DOCTYPE svg PUBLIC "-//W3C//DTD SVG 1.1//EN" "http://www.w3.org/Graphics/SVG/1.1/DTD/svg11.dtd">
<svg version="1.1" id="Layer_1" xmlns="http://www.w3.org/2000/svg" xmlns:xlink="http://www.w3.org/1999/xlink" x="0px" y="0px"
	 width="58.656px" height="56.122px" viewBox="0 0 58.656 56.122" enable-background="new 0 0 58.656 56.122" xml:space="preserve">
<g>
	<defs>
		<rect id="SVGID_1_" x="0.452" y="0.038" width="57.753" height="56.046"/>
	</defs>
	<clipPath id="SVGID_2_">
		<use xlink:href="#SVGID_1_"  overflow="visible"/>
	</clipPath>
	<path clip-path="url(#SVGID_2_)" fill="#FFE72D" d="M46.604,31.67c-0.156,0.101-0.171,0.046-0.253-0.01
		c-0.862-0.595-1.826-0.96-2.854-1.083l-0.827-0.1c-0.833-0.101-1.666-0.203-2.5-0.287c-0.272-0.027-0.543-0.056-0.815-0.085
		c-0.949-0.103-1.932-0.209-2.903-0.227c-2.579-0.048-5.128-0.046-7.576,0.006c-0.413,0.009-0.815-0.044-1.229-0.163
		c-0.625-0.179-1.194-0.486-1.668-0.763l-1.041-0.609c-2.127-1.243-4.326-2.528-6.505-3.765c-0.535-0.304-1.102-0.563-1.651-0.813
		c-0.299-0.136-0.598-0.272-0.892-0.416c-0.722-0.351-1.441-0.708-2.16-1.065l-3.943-1.953c-0.035-0.018-0.074-0.032-0.112-0.043
		c-0.028-0.008-0.056-0.014-0.084-0.021c-0.67-0.15-1.285-0.424-1.819-0.809c-0.384-0.277-0.792-0.295-1.188-0.055
		c-0.187,0.114-0.39,0.098-0.543-0.038l-0.068-0.057c-0.177-0.15-0.267-0.238-0.226-0.46c0.183-0.989,0.343-1.999,0.497-2.975
		c0.051-0.326,0.103-0.652,0.155-0.977l0.075-0.006l0.038-0.137c0.059-0.208,0.099-0.376,0.132-0.513
		c0.122-0.506,0.122-0.506,0.784-0.666c0.116-0.028,0.25-0.061,0.404-0.1c1.471-0.376,3.005-0.285,4.489-0.198l0.078,0.004
		c0.632,0.038,1.265,0.073,1.898,0.109c1.601,0.09,3.257,0.183,4.884,0.301c0.88,0.063,1.772,0.199,2.635,0.331l0.336,0.051
		c0.855,0.129,1.774,0.235,2.7,0.137c0.719-0.077,1.357-0.125,1.966,0.134c0.946,0.399,1.856,0.836,2.543,1.172
		c0.856,0.418,1.708,0.842,2.56,1.266c1.406,0.698,2.858,1.421,4.301,2.104c1.041,0.492,2.112,0.963,3.147,1.419
		c0.874,0.384,1.777,0.781,2.657,1.189c2.48,1.151,4.414,2.245,6.087,3.446c0.22,0.158,0.274,0.271,0.231,0.483
		c-0.063,0.315-0.115,0.633-0.167,0.951c-0.054,0.324-0.107,0.649-0.173,0.971c-0.28,1.372-0.505,2.415-0.732,3.381
		C47.181,31.12,46.95,31.444,46.604,31.67 M41.733,49.04c-0.226,0.599-0.527,1.186-0.818,1.753l-0.229,0.451
		c-0.025,0.047-0.128,0.12-0.242,0.152c-1.946,0.543-3.903,0.754-5.561,0.888c-3.814,0.31-7.568,1.088-10.787,1.794
		c-0.707,0.155-1.417,0.299-2.126,0.444l-0.798,0.163c-0.007,0.001-0.014,0.002-0.021,0.003l0.009-0.029l0.152-0.53
		c0.343-1.184,0.685-2.369,1.026-3.554c0.782-2.713,1.591-5.518,2.409-8.27c0.7-2.354,1.441-4.738,2.157-7.044
		c0.281-0.906,0.562-1.812,0.842-2.719c0.073-0.238,0.152-0.476,0.231-0.713c0.102-0.307,0.204-0.614,0.295-0.925
		c0.043-0.146,0.082-0.175,0.229-0.173c0.899,0.015,1.798,0.024,2.698,0.034c1.818,0.02,3.699,0.04,5.546,0.101
		c1.72,0.056,3.532,0.187,5.386,0.391c0.934,0.102,1.877,0.358,2.688,0.591l0.153,0.044c0.566,0.164,0.642,0.333,0.455,1.005
		c-0.114,0.409-0.204,0.829-0.291,1.236c-0.046,0.215-0.092,0.429-0.141,0.643c-0.105,0.45-0.211,0.9-0.317,1.35
		c-0.194,0.822-0.388,1.643-0.572,2.471c-0.35,1.57-0.711,3.193-1.03,4.797c-0.075,0.374-0.145,0.749-0.216,1.124
		C42.576,46.024,42.283,47.581,41.733,49.04 M25.828,36.062c-1.01,3.377-2.035,6.839-3.048,10.292
		c-0.549,1.873-1.088,3.749-1.628,5.624l-0.747,2.596l-0.715-0.523c-0.623-0.456-1.228-0.899-1.839-1.335
		c-3.55-2.527-7.283-4.837-10.787-6.957c-1.602-0.968-3.33-2.001-5.284-3.157c-0.125-0.073-0.128-0.1-0.092-0.23l0.171-0.608
		c0.27-0.962,0.55-1.956,0.797-2.941c0.398-1.586,0.785-3.203,1.159-4.766l0.283-1.182c0.144-0.599,0.285-1.199,0.426-1.8
		c0.225-0.961,0.451-1.921,0.688-2.879c0.46-1.853,0.929-3.703,1.398-5.554l0.535-2.113c0.02-0.079,0.043-0.157,0.069-0.244
		c0.179,0.074,0.356,0.146,0.53,0.217C8.23,20.7,8.698,20.891,9.16,21.097l0.326,0.146c1.285,0.572,2.614,1.165,3.904,1.78
		c1.388,0.663,2.509,1.232,3.528,1.793c2.31,1.272,4.612,2.559,6.914,3.847l2.654,1.482c0.09,0.051,0.18,0.103,0.269,0.156
		c0.182,0.106,0.37,0.217,0.567,0.31c0.136,0.065,0.164,0.102,0.105,0.291C26.895,32.59,26.344,34.336,25.828,36.062 M49.422,25.606
		l0.061-0.346c0.033-0.184-0.008-0.455-0.147-0.594l-0.248-0.25c-0.378-0.384-0.769-0.781-1.217-1.093
		c-1.6-1.112-3.384-1.93-5.11-2.721c-0.373-0.172-0.746-0.343-1.118-0.517c-0.981-0.46-1.96-0.924-2.939-1.388
		c-0.631-0.299-1.262-0.599-1.893-0.897c-0.627-0.295-1.254-0.59-1.881-0.884c-0.863-0.405-1.726-0.811-2.588-1.219
		c-1.125-0.534-2.4-1.138-3.627-1.741c-0.532-0.262-1.108-0.528-1.72-0.703c-0.483-0.139-0.942-0.208-1.401-0.211
		c-1.092-0.008-2.223-0.114-3.221-0.207c-0.451-0.043-0.91-0.105-1.354-0.166c-0.634-0.087-1.29-0.177-1.941-0.21
		c-2.138-0.107-4.314-0.177-6.418-0.244l-2.126-0.071c-1.032-0.04-2.1-0.081-3.151,0.159c-1.185,0.27-1.676,0.802-1.947,2.105
		c-0.106,0.514-0.209,1.029-0.311,1.544c-0.157,0.785-0.313,1.57-0.484,2.353c-0.207,0.951,0.028,1.493,0.84,1.932
		c0.156,0.085,0.298,0.159,0.454,0.209c0.119,0.039,0.135,0.055,0.095,0.189C5.842,21.26,5.708,21.743,5.596,22.2
		c-0.471,1.915-0.936,3.83-1.401,5.746l-0.113,0.468c-0.394,1.625-0.787,3.252-1.177,4.878l-1.531,6.385l0.006,0.135L1.222,40.36
		c-0.215,0.744-0.429,1.488-0.631,2.236c-0.045,0.165,0.014,0.442,0.157,0.552c0.126,0.098,0.251,0.197,0.377,0.296
		c0.448,0.354,0.911,0.721,1.419,0.999c4.007,2.204,8.132,4.781,12.981,8.109c1.019,0.699,2.014,1.476,2.976,2.227l0.721,0.561
		c0.326,0.253,0.651,0.424,0.994,0.522c0.463,0.133,0.949,0.13,1.486-0.009c2.021-0.524,3.997-0.996,5.874-1.404
		c2.123-0.461,4.317-0.696,6.439-0.923c0.491-0.053,0.983-0.106,1.474-0.161c1.685-0.19,3.641-0.436,5.537-0.955
		c0.175-0.048,0.391-0.159,0.474-0.326c0.359-0.724,0.679-1.379,0.952-2.062c0.585-1.466,0.906-3.024,1.218-4.53l0.408-1.944
		c0.31-1.469,0.619-2.938,0.937-4.406c0.094-0.432,0.199-0.863,0.303-1.294c0.095-0.393,0.19-0.786,0.277-1.181
		c0.185-0.833,0.356-1.669,0.527-2.505l0.086-0.419c0.122-0.594,0.457-0.976,1.051-1.202c0.289-0.109,0.647-0.392,0.744-0.701
		c0.301-0.954,0.566-1.958,0.812-3.069C49.047,27.721,49.237,26.646,49.422,25.606"/>
	<path clip-path="url(#SVGID_2_)" fill="none" stroke="#FFE72D" stroke-width="0.25" stroke-miterlimit="10" d="M46.604,31.67
		c-0.156,0.101-0.171,0.046-0.253-0.01c-0.862-0.595-1.826-0.96-2.854-1.083l-0.827-0.1c-0.833-0.101-1.666-0.203-2.5-0.287
		c-0.272-0.027-0.543-0.056-0.815-0.085c-0.949-0.103-1.932-0.209-2.903-0.227c-2.579-0.048-5.128-0.046-7.576,0.006
		c-0.413,0.009-0.815-0.044-1.229-0.163c-0.625-0.179-1.194-0.486-1.668-0.763l-1.041-0.609c-2.127-1.243-4.326-2.528-6.505-3.765
		c-0.535-0.304-1.102-0.563-1.651-0.813c-0.299-0.136-0.598-0.272-0.892-0.416c-0.722-0.351-1.441-0.708-2.16-1.065l-3.943-1.953
		c-0.035-0.018-0.074-0.032-0.112-0.043c-0.028-0.008-0.056-0.014-0.084-0.021c-0.67-0.15-1.285-0.424-1.819-0.809
		c-0.384-0.277-0.792-0.295-1.188-0.055c-0.187,0.114-0.39,0.098-0.543-0.038l-0.068-0.057c-0.177-0.15-0.267-0.238-0.226-0.46
		c0.183-0.989,0.343-1.999,0.497-2.975c0.051-0.326,0.103-0.652,0.155-0.977l0.075-0.006l0.038-0.137
		c0.059-0.208,0.099-0.376,0.132-0.513c0.122-0.506,0.122-0.506,0.784-0.666c0.116-0.028,0.25-0.061,0.404-0.1
		c1.471-0.376,3.005-0.285,4.489-0.198l0.078,0.004c0.632,0.038,1.265,0.073,1.898,0.109c1.601,0.09,3.257,0.183,4.884,0.301
		c0.88,0.063,1.772,0.199,2.635,0.331l0.336,0.051c0.855,0.129,1.774,0.235,2.7,0.137c0.719-0.077,1.357-0.125,1.966,0.134
		c0.946,0.399,1.856,0.836,2.543,1.172c0.856,0.418,1.708,0.842,2.56,1.266c1.406,0.698,2.858,1.421,4.301,2.104
		c1.041,0.492,2.112,0.963,3.147,1.419c0.874,0.384,1.777,0.781,2.657,1.189c2.48,1.151,4.414,2.245,6.087,3.446
		c0.22,0.158,0.274,0.271,0.231,0.483c-0.063,0.315-0.115,0.633-0.167,0.951c-0.054,0.324-0.107,0.649-0.173,0.971
		c-0.28,1.372-0.505,2.415-0.732,3.381C47.181,31.12,46.95,31.444,46.604,31.67z M41.733,49.04
		c-0.226,0.599-0.527,1.186-0.818,1.753l-0.229,0.451c-0.025,0.047-0.128,0.12-0.242,0.152c-1.946,0.543-3.903,0.754-5.561,0.888
		c-3.814,0.31-7.568,1.088-10.787,1.794c-0.707,0.155-1.417,0.299-2.126,0.444l-0.798,0.163c-0.007,0.001-0.014,0.002-0.021,0.003
		l0.009-0.029l0.152-0.53c0.343-1.184,0.685-2.369,1.026-3.554c0.782-2.713,1.591-5.518,2.409-8.27
		c0.7-2.354,1.441-4.738,2.157-7.044c0.281-0.906,0.562-1.812,0.842-2.719c0.073-0.238,0.152-0.476,0.231-0.713
		c0.102-0.307,0.204-0.614,0.295-0.925c0.043-0.146,0.082-0.175,0.229-0.173c0.899,0.015,1.798,0.024,2.698,0.034
		c1.818,0.02,3.699,0.04,5.546,0.101c1.72,0.056,3.532,0.187,5.386,0.391c0.934,0.102,1.877,0.358,2.688,0.591l0.153,0.044
		c0.566,0.164,0.642,0.333,0.455,1.005c-0.114,0.409-0.204,0.829-0.291,1.236c-0.046,0.215-0.092,0.429-0.141,0.643
		c-0.105,0.45-0.211,0.9-0.317,1.35c-0.194,0.822-0.388,1.643-0.572,2.471c-0.35,1.57-0.711,3.193-1.03,4.797
		c-0.075,0.374-0.145,0.749-0.216,1.124C42.576,46.024,42.283,47.581,41.733,49.04z M25.828,36.062
		c-1.01,3.377-2.035,6.839-3.048,10.292c-0.549,1.873-1.088,3.749-1.628,5.624l-0.747,2.596l-0.715-0.523
		c-0.623-0.456-1.228-0.899-1.839-1.335c-3.55-2.527-7.283-4.837-10.787-6.957c-1.602-0.968-3.33-2.001-5.284-3.157
		c-0.125-0.073-0.128-0.1-0.092-0.23l0.171-0.608c0.27-0.962,0.55-1.956,0.797-2.941c0.398-1.586,0.785-3.203,1.159-4.766
		l0.283-1.182c0.144-0.599,0.285-1.199,0.426-1.8c0.225-0.961,0.451-1.921,0.688-2.879c0.46-1.853,0.929-3.703,1.398-5.554
		l0.535-2.113c0.02-0.079,0.043-0.157,0.069-0.244c0.179,0.074,0.356,0.146,0.53,0.217C8.23,20.7,8.698,20.891,9.16,21.097
		l0.326,0.146c1.285,0.572,2.614,1.165,3.904,1.78c1.388,0.663,2.509,1.232,3.528,1.793c2.31,1.272,4.612,2.559,6.914,3.847
		l2.654,1.482c0.09,0.051,0.18,0.103,0.269,0.156c0.182,0.106,0.37,0.217,0.567,0.31c0.136,0.065,0.164,0.102,0.105,0.291
		C26.895,32.59,26.344,34.336,25.828,36.062z M49.422,25.606l0.061-0.346c0.033-0.184-0.008-0.455-0.147-0.594l-0.248-0.25
		c-0.378-0.384-0.769-0.781-1.217-1.093c-1.6-1.112-3.384-1.93-5.11-2.721c-0.373-0.172-0.746-0.343-1.118-0.517
		c-0.981-0.46-1.96-0.924-2.939-1.388c-0.631-0.299-1.262-0.599-1.893-0.897c-0.627-0.295-1.254-0.59-1.881-0.884
		c-0.863-0.405-1.726-0.811-2.588-1.219c-1.125-0.534-2.4-1.138-3.627-1.741c-0.532-0.262-1.108-0.528-1.72-0.703
		c-0.483-0.139-0.942-0.208-1.401-0.211c-1.092-0.008-2.223-0.114-3.221-0.207c-0.451-0.043-0.91-0.105-1.354-0.166
		c-0.634-0.087-1.29-0.177-1.941-0.21c-2.138-0.107-4.314-0.177-6.418-0.244l-2.126-0.071c-1.032-0.04-2.1-0.081-3.151,0.159
		c-1.185,0.27-1.676,0.802-1.947,2.105c-0.106,0.514-0.209,1.029-0.311,1.544c-0.157,0.785-0.313,1.57-0.484,2.353
		c-0.207,0.951,0.028,1.493,0.84,1.932c0.156,0.085,0.298,0.159,0.454,0.209c0.119,0.039,0.135,0.055,0.095,0.189
		C5.842,21.26,5.708,21.743,5.596,22.2c-0.471,1.915-0.936,3.83-1.401,5.746l-0.113,0.468c-0.394,1.625-0.787,3.252-1.177,4.878
		l-1.531,6.385l0.006,0.135L1.222,40.36c-0.215,0.744-0.429,1.488-0.631,2.236c-0.045,0.165,0.014,0.442,0.157,0.552
		c0.126,0.098,0.251,0.197,0.377,0.296c0.448,0.354,0.911,0.721,1.419,0.999c4.007,2.204,8.132,4.781,12.981,8.109
		c1.019,0.699,2.014,1.476,2.976,2.227l0.721,0.561c0.326,0.253,0.651,0.424,0.994,0.522c0.463,0.133,0.949,0.13,1.486-0.009
		c2.021-0.524,3.997-0.996,5.874-1.404c2.123-0.461,4.317-0.696,6.439-0.923c0.491-0.053,0.983-0.106,1.474-0.161
		c1.685-0.19,3.641-0.436,5.537-0.955c0.175-0.048,0.391-0.159,0.474-0.326c0.359-0.724,0.679-1.379,0.952-2.062
		c0.585-1.466,0.906-3.024,1.218-4.53l0.408-1.944c0.31-1.469,0.619-2.938,0.937-4.406c0.094-0.432,0.199-0.863,0.303-1.294
		c0.095-0.393,0.19-0.786,0.277-1.181c0.185-0.833,0.356-1.669,0.527-2.505l0.086-0.419c0.122-0.594,0.457-0.976,1.051-1.202
		c0.289-0.109,0.647-0.392,0.744-0.701c0.301-0.954,0.566-1.958,0.812-3.069C49.047,27.721,49.237,26.646,49.422,25.606z"/>
	<path clip-path="url(#SVGID_2_)" fill="#FFE72D" d="M56.693,11.12c-0.737,0.123-1.474,0.248-2.212,0.374
		c-1.707,0.29-3.474,0.59-5.215,0.851c-1.988,0.297-4.015,0.571-5.975,0.836c-0.997,0.134-1.995,0.269-2.992,0.408
		c-1.173,0.163-2.16,0.304-3.158,0.464c-0.077,0.013-0.131,0.014-0.167,0.003c-0.023-0.006-0.067-0.019-0.128-0.181
		c-0.732-1.944-1.192-4.006-1.638-6.009c-0.204-0.913-0.41-1.824-0.62-2.748l-0.251-1.106l0.06-0.017
		c0.156-0.043,0.314-0.086,0.469-0.138c2-0.674,4.12-0.871,6.17-1.062L41.2,2.78c1.687-0.157,3.397-0.364,5.05-0.565
		c1.101-0.134,2.202-0.267,3.304-0.388c0.895-0.098,1.81-0.17,2.695-0.239c0.518-0.041,1.036-0.082,1.553-0.127
		c0.251-0.023,0.496-0.07,0.787-0.135c0.228-0.05,0.382,0.015,0.474,0.214c0.121,0.263,0.244,0.543,0.295,0.826
		c0.425,2.351,0.841,4.704,1.257,7.056l0.292,1.652C56.836,11.091,56.765,11.108,56.693,11.12 M58.08,11.305
		c0.003-0.403-0.043-0.822-0.138-1.245c-0.053-0.234-0.13-0.463-0.204-0.684c-0.086-0.257-0.167-0.5-0.214-0.751
		c-0.158-0.841-0.303-1.684-0.449-2.527c-0.167-0.963-0.333-1.926-0.517-2.886c-0.138-0.724-0.34-1.473-0.601-2.227
		c-0.217-0.629-0.657-0.889-1.36-0.807L53.304,0.33c-4.276,0.503-8.698,1.022-13.052,1.484c-1.998,0.213-4.132,0.49-6.197,1.075
		l-0.086,0.023c-0.211,0.055-0.526,0.138-0.528,0.504c-0.166,0.734-0.053,1.395,0.094,2l1.584,6.511
		c0.056,0.231,0.109,0.463,0.162,0.694c0.122,0.528,0.247,1.074,0.407,1.603c0.17,0.564,0.407,0.852,0.794,0.963
		c0.193,0.055,0.43,0.067,0.744,0.036c0.18-0.018,0.358-0.049,0.536-0.079l0.144-0.025c0.487-0.081,0.973-0.166,1.459-0.251
		c1.044-0.182,2.123-0.37,3.188-0.518c1.047-0.146,2.115-0.275,3.148-0.4c1.26-0.153,2.563-0.31,3.841-0.5
		c1.739-0.258,3.499-0.565,5.201-0.861c0.729-0.127,1.458-0.254,2.187-0.378c0.086-0.014,0.171-0.034,0.255-0.053
		c0.061-0.013,0.121-0.027,0.181-0.039C57.81,12.033,58.077,11.729,58.08,11.305"/>
	<path clip-path="url(#SVGID_2_)" fill="none" stroke="#FFE72D" stroke-width="0.25" stroke-miterlimit="10" d="M56.693,11.12
		c-0.737,0.123-1.474,0.248-2.212,0.374c-1.707,0.29-3.474,0.59-5.215,0.851c-1.988,0.297-4.015,0.571-5.975,0.836
		c-0.997,0.134-1.995,0.269-2.992,0.408c-1.173,0.163-2.16,0.304-3.158,0.464c-0.077,0.013-0.131,0.014-0.167,0.003
		c-0.023-0.006-0.067-0.019-0.128-0.181c-0.732-1.944-1.192-4.006-1.638-6.009c-0.204-0.913-0.41-1.824-0.62-2.748l-0.251-1.106
		l0.06-0.017c0.156-0.043,0.314-0.086,0.469-0.138c2-0.674,4.12-0.871,6.17-1.062L41.2,2.78c1.687-0.157,3.397-0.364,5.05-0.565
		c1.101-0.134,2.202-0.267,3.304-0.388c0.895-0.098,1.81-0.17,2.695-0.239c0.518-0.041,1.036-0.082,1.553-0.127
		c0.251-0.023,0.496-0.07,0.787-0.135c0.228-0.05,0.382,0.015,0.474,0.214c0.121,0.263,0.244,0.543,0.295,0.826
		c0.425,2.351,0.841,4.704,1.257,7.056l0.292,1.652C56.836,11.091,56.765,11.108,56.693,11.12z M58.08,11.305
		c0.003-0.403-0.043-0.822-0.138-1.245c-0.053-0.234-0.13-0.463-0.204-0.684c-0.086-0.257-0.167-0.5-0.214-0.751
		c-0.158-0.841-0.303-1.684-0.449-2.527c-0.167-0.963-0.333-1.926-0.517-2.886c-0.138-0.724-0.34-1.473-0.601-2.227
		c-0.217-0.629-0.657-0.889-1.36-0.807L53.304,0.33c-4.276,0.503-8.698,1.022-13.052,1.484c-1.998,0.213-4.132,0.49-6.197,1.075
		l-0.086,0.023c-0.211,0.055-0.526,0.138-0.528,0.504c-0.166,0.734-0.053,1.395,0.094,2l1.584,6.511
		c0.056,0.231,0.109,0.463,0.162,0.694c0.122,0.528,0.247,1.074,0.407,1.603c0.17,0.564,0.407,0.852,0.794,0.963
		c0.193,0.055,0.43,0.067,0.744,0.036c0.18-0.018,0.358-0.049,0.536-0.079l0.144-0.025c0.487-0.081,0.973-0.166,1.459-0.251
		c1.044-0.182,2.123-0.37,3.188-0.518c1.047-0.146,2.115-0.275,3.148-0.4c1.26-0.153,2.563-0.31,3.841-0.5
		c1.739-0.258,3.499-0.565,5.201-0.861c0.729-0.127,1.458-0.254,2.187-0.378c0.086-0.014,0.171-0.034,0.255-0.053
		c0.061-0.013,0.121-0.027,0.181-0.039C57.81,12.033,58.077,11.729,58.08,11.305z"/>
	<path clip-path="url(#SVGID_2_)" fill="#FFE72D" d="M44.555,24.955c-0.027-0.008-0.054-0.013-0.078-0.016
		c-0.503-0.054-1.007-0.092-1.511-0.129l-3.449-0.267c-2.968-0.23-5.935-0.459-8.902-0.695l-0.174-0.013
		c-0.398-0.027-0.78-0.073-1.08-0.27c-1.327-0.867-2.898-1.881-4.498-2.828c-1.248-0.739-2.632-1.505-4.355-2.409
		c-1.165-0.612-2.151-1.074-3.102-1.455c-0.217-0.087-0.439-0.16-0.661-0.233c-0.487-0.159-0.947-0.309-1.356-0.606
		c-0.102-0.075-0.206-0.127-0.309-0.157c-0.184-0.052-0.461-0.058-0.744,0.212l-0.119,0.114l0.209,0.207
		c0.061,0.062,0.115,0.116,0.172,0.167c0.586,0.516,1.306,0.774,1.996,0.976c0.903,0.263,1.648,0.523,2.351,0.934
		c0.868,0.509,1.745,1.004,2.621,1.5l0.931,0.527c0.318,0.181,0.639,0.359,0.959,0.537c0.672,0.374,1.367,0.76,2.033,1.167
		c0.805,0.492,1.601,1.032,2.372,1.555l0.39,0.264c0.43,0.291,0.882,0.505,1.343,0.637c0.52,0.15,1.071,0.199,1.638,0.148
		c0.341-0.031,0.69-0.011,0.987,0.012l1.297,0.101c2.236,0.174,4.549,0.353,6.822,0.551c0.73,0.064,1.472,0.156,2.188,0.244
		c0.479,0.059,0.958,0.118,1.438,0.17c0.146,0.016,0.427,0.027,0.669-0.078c0.175-0.076,0.3-0.327,0.307-0.514
		C44.948,25.112,44.657,24.984,44.555,24.955"/>
	<path clip-path="url(#SVGID_2_)" fill="none" stroke="#FFE72D" stroke-width="0.25" stroke-miterlimit="10" d="M44.555,24.955
		c-0.027-0.008-0.054-0.013-0.078-0.016c-0.503-0.054-1.007-0.092-1.511-0.129l-3.449-0.267c-2.968-0.23-5.935-0.459-8.902-0.695
		l-0.174-0.013c-0.398-0.027-0.78-0.073-1.08-0.27c-1.327-0.867-2.898-1.881-4.498-2.828c-1.248-0.739-2.632-1.505-4.355-2.409
		c-1.165-0.612-2.151-1.074-3.102-1.455c-0.217-0.087-0.439-0.16-0.661-0.233c-0.487-0.159-0.947-0.309-1.356-0.606
		c-0.102-0.075-0.206-0.127-0.309-0.157c-0.184-0.052-0.461-0.058-0.744,0.212l-0.119,0.114l0.209,0.207
		c0.061,0.062,0.115,0.116,0.172,0.167c0.586,0.516,1.306,0.774,1.996,0.976c0.903,0.263,1.648,0.523,2.351,0.934
		c0.868,0.509,1.745,1.004,2.621,1.5l0.931,0.527c0.318,0.181,0.639,0.359,0.959,0.537c0.672,0.374,1.367,0.76,2.033,1.167
		c0.805,0.492,1.601,1.032,2.372,1.555l0.39,0.264c0.43,0.291,0.882,0.505,1.343,0.637c0.52,0.15,1.071,0.199,1.638,0.148
		c0.341-0.031,0.69-0.011,0.987,0.012l1.297,0.101c2.236,0.174,4.549,0.353,6.822,0.551c0.73,0.064,1.472,0.156,2.188,0.244
		c0.479,0.059,0.958,0.118,1.438,0.17c0.146,0.016,0.427,0.027,0.669-0.078c0.175-0.076,0.3-0.327,0.307-0.514
		C44.948,25.112,44.657,24.984,44.555,24.955z"/>
	<path clip-path="url(#SVGID_2_)" fill="#FFE72D" d="M26.294,16.671c0.703,0.331,1.457,0.748,2.373,1.313
		c1.078,0.664,2.162,1.36,3.21,2.034l0.978,0.628c0.26,0.166,0.463,0.314,0.635,0.458c0.013,0.017,0.027,0.073,0.032,0.074
		c-0.1,0.173-0.547,0.312-0.793,0.241c-1.023-0.333-1.913-0.905-2.81-1.51l-1.014-0.687c-0.884-0.598-1.768-1.197-2.66-1.784
		c-0.295-0.195-0.61-0.366-0.914-0.531c-0.158-0.086-0.316-0.172-0.472-0.262c-0.028-0.016-0.055-0.034-0.082-0.053
		C25.233,16.377,25.721,16.403,26.294,16.671 M23.53,16.958c0.095,0.067,0.198,0.109,0.297,0.151
		c0.076,0.031,0.153,0.062,0.221,0.106l0.55,0.359c1.611,1.049,3.276,2.133,4.903,3.216c0.201,0.133,0.399,0.27,0.591,0.404
		c0.587,0.407,1.094,0.759,1.497,0.884l0.067,0.02c1.45,0.416,2.131,0.183,2.699-0.922c0.151-0.294,0.079-0.535-0.214-0.718
		c-0.236-0.146-0.478-0.283-0.72-0.42c-0.3-0.17-0.611-0.346-0.901-0.537c-0.681-0.448-1.354-0.907-2.028-1.366
		c-0.479-0.327-0.958-0.653-1.439-0.976l-0.118-0.079c-0.876-0.588-1.786-1.198-2.861-1.455c-0.549-0.132-1.265-0.232-1.926,0.167
		l-0.05,0.031c-0.199,0.121-0.306,0.176-0.481,0.107l-0.038-0.013c-0.152-0.044-0.308,0.005-0.408,0.125
		c-0.107,0.131-0.125,0.312-0.045,0.473C23.225,16.715,23.4,16.866,23.53,16.958"/>
	<path clip-path="url(#SVGID_2_)" fill="none" stroke="#FFE72D" stroke-width="0.25" stroke-miterlimit="10" d="M26.294,16.671
		c0.703,0.331,1.457,0.748,2.373,1.313c1.078,0.664,2.162,1.36,3.21,2.034l0.978,0.628c0.26,0.166,0.463,0.314,0.635,0.458
		c0.013,0.017,0.027,0.073,0.032,0.074c-0.1,0.173-0.547,0.312-0.793,0.241c-1.023-0.333-1.913-0.905-2.81-1.51l-1.014-0.687
		c-0.884-0.598-1.768-1.197-2.66-1.784c-0.295-0.195-0.61-0.366-0.914-0.531c-0.158-0.086-0.316-0.172-0.472-0.262
		c-0.028-0.016-0.055-0.034-0.082-0.053C25.233,16.377,25.721,16.403,26.294,16.671z M23.53,16.958
		c0.095,0.067,0.198,0.109,0.297,0.151c0.076,0.031,0.153,0.062,0.221,0.106l0.55,0.359c1.611,1.049,3.276,2.133,4.903,3.216
		c0.201,0.133,0.399,0.27,0.591,0.404c0.587,0.407,1.094,0.759,1.497,0.884l0.067,0.02c1.45,0.416,2.131,0.183,2.699-0.922
		c0.151-0.294,0.079-0.535-0.214-0.718c-0.236-0.146-0.478-0.283-0.72-0.42c-0.3-0.17-0.611-0.346-0.901-0.537
		c-0.681-0.448-1.354-0.907-2.028-1.366c-0.479-0.327-0.958-0.653-1.439-0.976l-0.118-0.079c-0.876-0.588-1.786-1.198-2.861-1.455
		c-0.549-0.132-1.265-0.232-1.926,0.167l-0.05,0.031c-0.199,0.121-0.306,0.176-0.481,0.107l-0.038-0.013
		c-0.152-0.044-0.308,0.005-0.408,0.125c-0.107,0.131-0.125,0.312-0.045,0.473C23.225,16.715,23.4,16.866,23.53,16.958z"/>
	<path clip-path="url(#SVGID_2_)" fill="#FFE72D" d="M47.674,6.941c-0.82,1.061-1.666,2.157-2.282,3.421l-1.881-2.424
		c0.412,0.016,0.77,0.188,1.195,0.416c0.246,0.132,0.408,0.219,0.55,0.26c0.369,0.105,0.542-0.109,0.924-0.577
		c0.72-0.886,1.627-1.755,2.456-2.37C48.321,6.103,47.994,6.526,47.674,6.941 M50.712,3.744l0.023-0.205L50.533,3.57
		c-0.034,0.006-0.07,0.007-0.105,0.01c-0.099,0.006-0.211,0.013-0.311,0.071c-1.664,0.967-3.133,2.18-4.368,3.607
		c-0.329,0.38-0.351,0.387-0.488,0.348c-0.086-0.025-0.191-0.071-0.334-0.134l-0.079-0.034C44.436,7.26,43.914,7.115,43.4,7.004
		c-0.375-0.081-0.717,0.078-0.895,0.416c-0.112,0.213-0.179,0.549,0.133,0.938l0.05,0.063c0.094,0.12,0.193,0.245,0.322,0.34
		c0.391,0.289,0.653,0.681,0.93,1.095c0.056,0.084,0.113,0.169,0.171,0.253c0.265,0.385,0.559,0.755,0.844,1.112
		c0.125,0.157,0.25,0.313,0.372,0.472l0.072,0.093l0.295-0.119l0.086-0.141c0.05-0.078,0.099-0.157,0.136-0.241
		c0.053-0.124,0.101-0.249,0.15-0.375c0.066-0.171,0.132-0.342,0.211-0.507c0.565-1.187,1.377-2.211,2.303-3.332l0.126-0.152
		c0.707-0.855,1.438-1.738,1.947-2.768c0.049-0.1,0.052-0.209,0.054-0.304C50.708,3.812,50.708,3.777,50.712,3.744"/>
	<path clip-path="url(#SVGID_2_)" fill="none" stroke="#FFE72D" stroke-width="0.25" stroke-miterlimit="10" d="M47.674,6.941
		c-0.82,1.061-1.666,2.157-2.282,3.421l-1.881-2.424c0.412,0.016,0.77,0.188,1.195,0.416c0.246,0.132,0.408,0.219,0.55,0.26
		c0.369,0.105,0.542-0.109,0.924-0.577c0.72-0.886,1.627-1.755,2.456-2.37C48.321,6.103,47.994,6.526,47.674,6.941z M50.712,3.744
		l0.023-0.205L50.533,3.57c-0.034,0.006-0.07,0.007-0.105,0.01c-0.099,0.006-0.211,0.013-0.311,0.071
		c-1.664,0.967-3.133,2.18-4.368,3.607c-0.329,0.38-0.351,0.387-0.488,0.348c-0.086-0.025-0.191-0.071-0.334-0.134l-0.079-0.034
		C44.436,7.26,43.914,7.115,43.4,7.004c-0.375-0.081-0.717,0.078-0.895,0.416c-0.112,0.213-0.179,0.549,0.133,0.938l0.05,0.063
		c0.094,0.12,0.193,0.245,0.322,0.34c0.391,0.289,0.653,0.681,0.93,1.095c0.056,0.084,0.113,0.169,0.171,0.253
		c0.265,0.385,0.559,0.755,0.844,1.112c0.125,0.157,0.25,0.313,0.372,0.472l0.072,0.093l0.295-0.119l0.086-0.141
		c0.05-0.078,0.099-0.157,0.136-0.241c0.053-0.124,0.101-0.249,0.15-0.375c0.066-0.171,0.132-0.342,0.211-0.507
		c0.565-1.187,1.377-2.211,2.303-3.332l0.126-0.152c0.707-0.855,1.438-1.738,1.947-2.768c0.049-0.1,0.052-0.209,0.054-0.304
		C50.708,3.812,50.708,3.777,50.712,3.744z"/>
	<path clip-path="url(#SVGID_2_)" fill="#FFE72D" d="M53.677,8.816l0.05-0.175l-0.178-0.025c-0.469-0.067-0.757,0.188-1.012,0.414
		c-0.058,0.051-0.117,0.103-0.177,0.15c-0.129,0.101-0.084,0.343-0.017,0.436c0.037,0.051,0.098,0.09,0.175,0.113
		c0.054,0.015,0.113,0.021,0.166,0.017C53.102,9.713,53.538,9.304,53.677,8.816"/>
	<path clip-path="url(#SVGID_2_)" fill="none" stroke="#FFE72D" stroke-width="0.25" stroke-miterlimit="10" d="M53.677,8.816
		l0.05-0.175l-0.178-0.025c-0.469-0.067-0.757,0.188-1.012,0.414c-0.058,0.051-0.117,0.103-0.177,0.15
		c-0.129,0.101-0.084,0.343-0.017,0.436c0.037,0.051,0.098,0.09,0.175,0.113c0.054,0.015,0.113,0.021,0.166,0.017
		C53.102,9.713,53.538,9.304,53.677,8.816z"/>
	<path clip-path="url(#SVGID_2_)" fill="#FFE72D" d="M38.034,6.559l0.042-0.158l-0.012-0.004c0.007-0.033,0.011-0.069,0.009-0.106
		c-0.004-0.079-0.021-0.156-0.038-0.234L37.98,5.778l-0.181,0.083c-0.025,0.011-0.053,0.02-0.081,0.03
		c-0.089,0.029-0.2,0.067-0.265,0.164c-0.101,0.151-0.182,0.34-0.234,0.545c-0.03,0.116,0.039,0.399,0.187,0.442l0.052,0.006
		c0.099-0.004,0.284-0.028,0.418-0.142c0.086-0.072,0.113-0.181,0.136-0.268C38.019,6.611,38.025,6.584,38.034,6.559"/>
	<path clip-path="url(#SVGID_2_)" fill="none" stroke="#FFE72D" stroke-width="0.25" stroke-miterlimit="10" d="M38.034,6.559
		l0.042-0.158l-0.012-0.004c0.007-0.033,0.011-0.069,0.009-0.106c-0.004-0.079-0.021-0.156-0.038-0.234L37.98,5.778l-0.181,0.083
		c-0.025,0.011-0.053,0.02-0.081,0.03c-0.089,0.029-0.2,0.067-0.265,0.164c-0.101,0.151-0.182,0.34-0.234,0.545
		c-0.03,0.116,0.039,0.399,0.187,0.442l0.052,0.006c0.099-0.004,0.284-0.028,0.418-0.142c0.086-0.072,0.113-0.181,0.136-0.268
		C38.019,6.611,38.025,6.584,38.034,6.559z"/>
	<path clip-path="url(#SVGID_2_)" fill="#FFE72D" d="M52.853,9.8l0.087,0.139c0.017,0.028,0.034,0.063,0.051,0.098
		c0.058,0.117,0.112,0.228,0.224,0.26l0.043,0.007c0.129,0.008,0.246-0.049,0.369-0.109c0.05-0.024,0.104-0.051,0.164-0.075
		l0.155-0.064L53.613,9.35L52.853,9.8z"/>
	<path clip-path="url(#SVGID_2_)" fill="none" stroke="#FFE72D" stroke-width="0.25" stroke-miterlimit="10" d="M52.853,9.8
		l0.087,0.139c0.017,0.028,0.034,0.063,0.051,0.098c0.058,0.117,0.112,0.228,0.224,0.26l0.043,0.007
		c0.129,0.008,0.246-0.049,0.369-0.109c0.05-0.024,0.104-0.051,0.164-0.075l0.155-0.064L53.613,9.35L52.853,9.8z"/>
	<path clip-path="url(#SVGID_2_)" fill="#FFE72D" d="M38.925,6.503c-0.349-0.16-0.65-0.139-0.837,0.129
		c-0.036,0.051-0.042,0.116-0.016,0.19c0.027,0.079,0.152,0.31,0.311,0.355l0.02,0.005c0.172,0.033,0.479,0.012,0.609-0.495
		l0.032-0.129L38.925,6.503z"/>
	<path clip-path="url(#SVGID_2_)" fill="none" stroke="#FFE72D" stroke-width="0.25" stroke-miterlimit="10" d="M38.925,6.503
		c-0.349-0.16-0.65-0.139-0.837,0.129c-0.036,0.051-0.042,0.116-0.016,0.19c0.027,0.079,0.152,0.31,0.311,0.355l0.02,0.005
		c0.172,0.033,0.479,0.012,0.609-0.495l0.032-0.129L38.925,6.503z"/>
</g>
</svg>
