<?xml version="1.0" encoding="utf-8"?>
<!-- Generator: Adobe Illustrator 17.0.0, SVG Export Plug-In . SVG Version: 6.00 Build 0)  -->
<!DOCTYPE svg PUBLIC "-//W3C//DTD SVG 1.1//EN" "http://www.w3.org/Graphics/SVG/1.1/DTD/svg11.dtd">
<svg version="1.1" id="Layer_1" xmlns="http://www.w3.org/2000/svg" xmlns:xlink="http://www.w3.org/1999/xlink" x="0px" y="0px"
	 width="58.656px" height="47.219px" viewBox="0 0 58.656 47.219" enable-background="new 0 0 58.656 47.219" xml:space="preserve">
<g>
	<defs>
		<rect id="SVGID_1_" x="0.452" y="0.038" width="57.753" height="47.181"/>
	</defs>
	<clipPath id="SVGID_2_">
		<use xlink:href="#SVGID_1_"  overflow="visible"/>
	</clipPath>
	<path clip-path="url(#SVGID_2_)" fill="#FFFFFF" d="M21.97,33.101c-6.363,0-11.541-5.179-11.541-11.541
		c0-6.365,5.179-11.544,11.541-11.544c6.365,0,11.544,5.179,11.544,11.544C33.514,27.922,28.335,33.101,21.97,33.101 M58.204,40.538
		L42.051,29.296c0.043-0.112,0.091-0.225,0.134-0.337c0.844-2.308,1.304-4.801,1.304-7.399c0-2.6-0.461-5.093-1.304-7.402
		c-0.121-0.329-0.249-0.653-0.386-0.975c-1.36-3.219-3.484-6.039-6.14-8.229c-0.265-0.22-0.536-0.434-0.814-0.64
		c-0.552-0.412-1.125-0.801-1.716-1.16c-0.295-0.179-0.594-0.353-0.9-0.52c-0.916-0.495-1.869-0.929-2.86-1.291
		c-2.306-0.844-4.799-1.307-7.399-1.307c-11.884,0-21.519,9.635-21.519,21.522c0,2.97,0.603,5.8,1.692,8.376
		c0.27,0.643,0.576,1.269,0.905,1.88c0.166,0.305,0.34,0.605,0.52,0.902c0.359,0.589,0.747,1.162,1.16,1.716
		c0.206,0.276,0.418,0.546,0.637,0.811c2.193,2.656,5.013,4.78,8.229,6.14c0.324,0.137,0.648,0.265,0.977,0.386
		c2.308,0.844,4.799,1.307,7.399,1.307c6.226,0,11.831-2.648,15.759-6.871l15.826,11.011L58.204,40.538z"/>
</g>
</svg>
