<?xml version="1.0" encoding="UTF-8"?>
<svg width="35px" height="35px" viewBox="0 0 35 35" version="1.1" xmlns="http://www.w3.org/2000/svg" xmlns:xlink="http://www.w3.org/1999/xlink">
    <!-- Generator: Sketch 52.2 (67145) - http://www.bohemiancoding.com/sketch -->
    <title>Icon / Language White@3x</title>
    <desc>Created with Sketch.</desc>
    <g id="Symbols" stroke="none" stroke-width="1" fill="none" fill-rule="evenodd">
        <g id="Desktop-/-Common-Assets-/-Main-Nav" transform="translate(-1191.000000, -23.000000)">
            <g id="Icon-/-Language-White" transform="translate(1191.000000, 23.000000)">
                <g id="ICON-LANGUAGE-001">
                    <path d="M30.345,26.11 C33.11,23.345 34.79,19.705 34.79,15.715 C34.79,7.105 26.985,0.105 17.395,0.105 C7.805,0.105 0,7.105 0,15.715 C0,24.325 7.805,31.325 17.395,31.325 C19.46,31.325 21.455,31.01 23.31,30.38 L34.79,35 L30.345,26.11 Z" id="Shape" fill="#FFFFFF" fill-rule="nonzero"></path>
                    <g id="TFeASo.tif" transform="translate(7.350000, 6.300000)" fill="#00B1AA" fill-rule="nonzero">
                        <path d="M10.15,0.21 C15.54,0.21 19.95,4.585 19.95,10.01 C19.95,15.4 15.575,19.81 10.15,19.81 C4.76,19.81 0.315,15.4 0.35,10.01 C0.35,4.585 4.76,0.21 10.15,0.21 Z M17.57,6.055 C17.535,6.055 17.535,6.055 17.5,6.055 C17.5,6.3 17.5,6.545 17.5,6.755 C17.535,7.21 17.36,7.56 17.045,7.875 C16.835,8.085 16.555,8.26 16.31,8.4 C16.17,8.505 15.995,8.575 15.82,8.68 C15.505,8.89 15.435,9.065 15.54,9.415 C15.61,9.625 15.645,9.87 15.75,10.08 C15.925,10.5 15.925,10.885 15.82,11.305 C15.47,12.565 14.805,13.685 14.035,14.7 C13.895,14.91 13.72,15.085 13.51,15.26 C13.195,15.54 12.95,15.47 12.81,15.085 C12.705,14.77 12.635,14.455 12.6,14.105 C12.53,13.44 12.565,12.775 12.495,12.11 C12.425,11.13 12.215,10.185 11.375,9.52 C11.34,9.485 11.34,9.485 11.305,9.45 C11.235,9.415 11.2,9.345 11.13,9.31 C10.325,9.03 9.555,8.75 8.75,8.47 C8.47,8.365 8.295,8.225 8.26,7.945 C8.085,7.105 8.785,6.335 9.625,6.37 C9.94,6.405 10.01,6.37 10.01,6.02 C10.01,5.775 9.975,5.53 9.975,5.285 C9.87,4.585 9.52,4.305 8.82,4.305 C8.54,4.305 8.26,4.375 8.015,4.375 C7.63,4.375 7.385,4.55 7.28,4.935 C7.175,5.285 7.105,5.635 7,5.985 C6.93,6.265 6.86,6.58 6.79,6.86 C6.685,7.105 6.51,7.14 6.3,7 C6.125,6.86 5.95,6.65 5.95,6.405 C5.915,6.195 5.88,5.985 5.88,5.775 C5.845,5.46 5.81,5.145 5.775,4.795 C5.53,5.215 5.355,5.53 5.145,5.88 C4.795,6.51 4.235,6.72 3.605,6.86 C3.325,6.93 3.15,6.755 3.15,6.475 C3.15,6.265 3.15,6.09 3.185,5.88 C3.22,5.705 3.255,5.495 3.29,5.285 C2.835,5.705 2.17,7.35 1.995,8.4 C1.75,9.66 1.89,11.48 2.1,11.76 C2.135,11.48 2.205,11.2 2.275,10.92 C2.345,10.675 2.415,10.43 2.52,10.185 C2.555,10.08 2.66,9.975 2.8,10.08 C3.15,10.325 3.535,10.57 3.885,10.85 C4.165,11.095 4.445,11.235 4.76,11.375 C5.005,11.48 5.215,11.55 5.46,11.655 C5.6,11.725 5.74,11.795 5.845,11.9 C6.02,12.04 6.02,12.18 5.88,12.32 C5.81,12.39 5.74,12.425 5.67,12.495 C5.32,12.81 4.97,13.125 4.795,13.545 C4.515,14.175 4.27,14.805 4.025,15.47 C3.99,15.54 4.06,15.645 4.095,15.715 C6.405,18.025 9.135,18.865 12.285,18.06 C16.695,16.94 19.32,12.6 18.375,8.155 C18.2,7.42 17.92,6.72 17.57,6.055 Z" id="Shape"></path>
                    </g>
                </g>
            </g>
        </g>
    </g>
</svg>