<?xml version="1.0" encoding="UTF-8"?>
<svg width="100px" height="100px" viewBox="0 0 100 100" version="1.1" xmlns="http://www.w3.org/2000/svg" xmlns:xlink="http://www.w3.org/1999/xlink">
    <!-- Generator: Sketch 52.5 (67469) - http://www.bohemiancoding.com/sketch -->
    <title>ICON-LANGUAGE-002</title>
    <desc>Created with Sketch.</desc>
    <g id="Symbols" stroke="none" stroke-width="1" fill="none" fill-rule="evenodd">
        <g id="Icon-/-Language-Colour" fill-rule="nonzero">
            <g id="ICON-LANGUAGE-002">
                <path d="M86.7,74.6 C94.6,66.7 99.4,56.3 99.4,44.9 C99.4,20.3 77.1,0.3 49.7,0.3 C22.3,0.3 0,20.3 0,44.9 C0,69.5 22.3,89.5 49.7,89.5 C55.6,89.5 61.3,88.6 66.6,86.8 L99.4,100 L86.7,74.6 Z" id="Shape" fill="#00B1AA"></path>
                <g id="TFeASo.tif" transform="translate(21.000000, 18.000000)" fill="#FFFFFF">
                    <path d="M29,0.6 C44.4,0.6 57,13.1 57,28.6 C57,44 44.5,56.6 29,56.6 C13.6,56.6 0.9,44 1,28.6 C1,13.1 13.6,0.6 29,0.6 Z M50.2,17.3 C50.1,17.3 50.1,17.3 50,17.3 C50,18 50,18.7 50,19.3 C50.1,20.6 49.6,21.6 48.7,22.5 C48.1,23.1 47.3,23.6 46.6,24 C46.2,24.3 45.7,24.5 45.2,24.8 C44.3,25.4 44.1,25.9 44.4,26.9 C44.6,27.5 44.7,28.2 45,28.8 C45.5,30 45.5,31.1 45.2,32.3 C44.2,35.9 42.3,39.1 40.1,42 C39.7,42.6 39.2,43.1 38.6,43.6 C37.7,44.4 37,44.2 36.6,43.1 C36.3,42.2 36.1,41.3 36,40.3 C35.8,38.4 35.9,36.5 35.7,34.6 C35.5,31.8 34.9,29.1 32.5,27.2 C32.4,27.1 32.4,27.1 32.3,27 C32.1,26.9 32,26.7 31.8,26.6 C29.5,25.8 27.3,25 25,24.2 C24.2,23.9 23.7,23.5 23.6,22.7 C23.1,20.3 25.1,18.1 27.5,18.2 C28.4,18.3 28.6,18.2 28.6,17.2 C28.6,16.5 28.5,15.8 28.5,15.1 C28.2,13.1 27.2,12.3 25.2,12.3 C24.4,12.3 23.6,12.5 22.9,12.5 C21.8,12.5 21.1,13 20.8,14.1 C20.5,15.1 20.3,16.1 20,17.1 C19.8,17.9 19.6,18.8 19.4,19.6 C19.1,20.3 18.6,20.4 18,20 C17.5,19.6 17,19 17,18.3 C16.9,17.7 16.8,17.1 16.8,16.5 C16.7,15.6 16.6,14.7 16.5,13.7 C15.8,14.9 15.3,15.8 14.7,16.8 C13.7,18.6 12.1,19.2 10.3,19.6 C9.5,19.8 9,19.3 9,18.5 C9,17.9 9,17.4 9.1,16.8 C9.2,16.3 9.3,15.7 9.4,15.1 C8.1,16.3 6.2,21 5.7,24 C5,27.6 5.4,32.8 6,33.6 C6.1,32.8 6.3,32 6.5,31.2 C6.7,30.5 6.9,29.8 7.2,29.1 C7.3,28.8 7.6,28.5 8,28.8 C9,29.5 10.1,30.2 11.1,31 C11.9,31.7 12.7,32.1 13.6,32.5 C14.3,32.8 14.9,33 15.6,33.3 C16,33.5 16.4,33.7 16.7,34 C17.2,34.4 17.2,34.8 16.8,35.2 C16.6,35.4 16.4,35.5 16.2,35.7 C15.2,36.6 14.2,37.5 13.7,38.7 C12.9,40.5 12.2,42.3 11.5,44.2 C11.4,44.4 11.6,44.7 11.7,44.9 C18.3,51.5 26.1,53.9 35.1,51.6 C47.7,48.4 55.2,36 52.5,23.3 C52,21.2 51.2,19.2 50.2,17.3 Z" id="Shape"></path>
                </g>
            </g>
        </g>
    </g>
</svg>