<?xml version="1.0" encoding="utf-8"?>
<!-- Generator: Adobe Illustrator 17.0.0, SVG Export Plug-In . SVG Version: 6.00 Build 0)  -->
<!DOCTYPE svg PUBLIC "-//W3C//DTD SVG 1.1//EN" "http://www.w3.org/Graphics/SVG/1.1/DTD/svg11.dtd">
<svg version="1.1" id="Layer_1" xmlns="http://www.w3.org/2000/svg" xmlns:xlink="http://www.w3.org/1999/xlink" x="0px" y="0px"
	 width="58.656px" height="56.122px" viewBox="0 0 58.656 56.122" enable-background="new 0 0 58.656 56.122" xml:space="preserve">
<path fill="#EB008B" d="M57.22,4.588c-1.57-1.341-3.761-2.257-5.625-3.173c1.046-0.653,2.551-0.425,3.663,0.066
	C56.729,2.167,57.71,3.149,57.22,4.588 M56.926,5.471c-0.098,0.13-0.196,0.262-0.261,0.392c-1.963-1.145-3.991-2.224-5.855-3.532
	c0.131-0.196,0.262-0.392,0.393-0.556c1.798,1.21,3.728,2.748,5.789,3.467C56.926,5.307,56.893,5.405,56.926,5.471 M39.1,33.468
	c-0.359-0.294-0.851-0.491-1.21-0.524h-0.131c3.369-3.369,5.266-8.209,7.686-12.232c3.01-5.037,6.214-10.041,9.715-14.751
	c0.359,0.164,0.719,0.327,1.111,0.458C50.156,15.086,44.203,24.147,39.1,33.468 M55.029,25.324
	c-1.21,8.831-3.925,17.465-5.036,26.264c-0.131-0.066-0.262-0.098-0.458-0.033c-8.7,4.383-18.25,4.449-27.343,1.08
	c-8.21-3.042-14.195-8.831-21.162-13.868c4.219-4.481,7.817-9.681,11.775-14.359c2.388-2.812,6.705-6.149,7.522-9.976
	c2.388,4.841,7.817,10.892,13.541,11.12c-0.982,1.57-1.963,3.14-2.911,4.71c-0.098,0.066-0.229,0.098-0.327,0.164
	c-0.196,0.098-0.196,0.327-0.098,0.458c-0.033,0.032-0.066,0.098-0.066,0.163c-0.621,2.421-1.079,4.907-1.373,7.393
	c-0.131,0-0.229,0.032-0.328,0.163c-1.962,2.355-3.107,5.822-4.219,8.668c-0.163,0.392,0.491,0.687,0.688,0.294
	c0.785-1.472,1.57-2.944,2.354-4.415c0.524-0.949,1.112-1.897,1.57-2.911c0.131,0.098,0.261,0.164,0.425,0.164
	c3.532-0.458,6.509-2.486,9.059-4.906c0.262,0.164,0.622,0.131,0.818-0.196c2.06-3.042,4.055-6.149,6.051-9.289
	c0.131,0.196,0.294,0.327,0.589,0.36C49.174,26.567,52.15,26.337,55.029,25.324 M51.889,7.597c-0.294-0.392-0.556-0.785-0.818-1.177
	c0.131-0.229,0.262-0.458,0.392-0.687c0.458,0.785,0.949,1.57,1.537,2.289c-0.13,0.164-0.261,0.36-0.392,0.524
	C52.38,8.218,52.118,7.891,51.889,7.597 M51.758,8.807c-0.163-0.196-0.359-0.426-0.523-0.622c-0.229-0.327-0.426-0.654-0.589-1.013
	c0.065-0.131,0.163-0.262,0.229-0.393c0.426,0.72,0.916,1.505,1.505,2.061c-0.098,0.13-0.164,0.229-0.262,0.36
	C51.987,9.134,51.824,8.905,51.758,8.807 M50.09,8.087c0.098-0.196,0.229-0.392,0.327-0.589c0.328,0.589,0.982,1.733,1.472,1.962
	c-0.131,0.164-0.229,0.328-0.36,0.491C51.006,9.362,50.515,8.807,50.09,8.087 M49.404,9.264c0.163-0.294,0.327-0.555,0.49-0.85
	c0.36,0.687,0.817,1.373,1.439,1.831c-0.164,0.229-0.36,0.49-0.524,0.719C50.352,10.409,49.828,9.886,49.404,9.264 M48.913,10.115
	c0.098-0.196,0.229-0.36,0.327-0.556c0.392,0.622,0.85,1.243,1.439,1.669c-0.164,0.229-0.327,0.425-0.458,0.654
	C49.763,11.293,49.305,10.703,48.913,10.115 M48.324,11.096c0.131-0.229,0.262-0.425,0.393-0.653c0.359,0.621,0.785,1.21,1.308,1.7
	c-0.164,0.229-0.327,0.426-0.458,0.654C49.109,12.208,48.684,11.685,48.324,11.096 M47.801,11.914
	c0.098-0.164,0.196-0.36,0.328-0.523c0.327,0.589,0.719,1.21,1.242,1.602c-0.131,0.164-0.229,0.328-0.359,0.524
	c0-0.033,0-0.033-0.033-0.066C48.553,12.961,48.161,12.47,47.801,11.914 M46.918,14.53c-0.131-0.163-0.262-0.359-0.36-0.556
	c0.164-0.261,0.328-0.523,0.49-0.785c0.164,0.262,0.328,0.49,0.524,0.72c0.196,0.229,0.457,0.654,0.785,0.49
	c0.131-0.066,0.065-0.262-0.066-0.294c-0.229-0.032-0.654-0.687-0.752-0.818c-0.098-0.13-0.163-0.294-0.261-0.425
	c0.131-0.196,0.229-0.392,0.359-0.589c0.328,0.556,0.688,1.047,1.21,1.439c0.032,0.032,0.032,0,0.066,0.032
	c-0.392,0.556-0.786,1.112-1.178,1.669C47.474,15.086,47.146,14.824,46.918,14.53 M46.067,14.76
	c0.098-0.164,0.196-0.328,0.327-0.524c0.295,0.524,0.688,1.047,1.178,1.341h0.032c-0.131,0.196-0.262,0.36-0.392,0.556
	C46.787,15.708,46.394,15.25,46.067,14.76 M45.479,15.708c0.13-0.196,0.262-0.393,0.392-0.622c0.327,0.49,0.687,0.949,1.177,1.309
	c-0.131,0.196-0.261,0.392-0.425,0.621C46.296,16.558,45.871,16.133,45.479,15.708 M45.053,16.362
	c0.098-0.163,0.197-0.294,0.295-0.457c0.327,0.457,0.687,0.949,1.144,1.308c-0.098,0.164-0.229,0.328-0.327,0.458
	C45.805,17.212,45.413,16.787,45.053,16.362 M45.184,18.651c-0.36-0.294-0.687-0.589-1.014-0.915
	c0.098-0.164,0.196-0.328,0.294-0.49c0.294,0.359,0.654,0.687,1.047,0.85c0.131,0.033,0.262-0.098,0.131-0.196
	c-0.36-0.327-0.688-0.589-1.014-0.915c0.098-0.13,0.164-0.294,0.262-0.426c0.327,0.458,0.687,0.916,1.145,1.276
	c-0.196,0.294-0.392,0.621-0.59,0.915c0-0.032-0.032-0.065-0.065-0.13C45.315,18.586,45.217,18.586,45.184,18.651 M43.68,18.488
	c0.131-0.196,0.229-0.36,0.36-0.556c0.36,0.392,0.719,0.752,1.111,1.079c0.033,0.032,0.066,0.032,0.098,0.032
	c-0.098,0.131-0.163,0.262-0.261,0.392c0,0.033-0.033,0.066-0.033,0.066c0-0.032-0.032-0.066-0.065-0.066
	C44.432,19.306,44.04,18.881,43.68,18.488 M43.157,19.306L43.157,19.306c0.131-0.196,0.261-0.392,0.392-0.621
	c0.196,0.229,0.392,0.425,0.589,0.621c0.229,0.229,0.425,0.426,0.752,0.36c-0.196,0.327-0.392,0.621-0.556,0.949
	C43.974,20.156,43.516,19.731,43.157,19.306 M42.699,19.992c0.065-0.098,0.131-0.196,0.196-0.327
	c0.36,0.458,0.687,1.013,1.111,1.439c-0.065,0.098-0.131,0.196-0.196,0.294c0-0.032,0-0.066-0.032-0.131
	C43.516,20.81,43.091,20.385,42.699,19.992 M42.11,20.843c0.098-0.164,0.196-0.294,0.294-0.458c0.327,0.392,0.654,0.786,1.079,1.112
	c0.098,0.066,0.196,0.066,0.262,0c-0.131,0.196-0.229,0.392-0.36,0.589c-0.032-0.032-0.066-0.032-0.098-0.032
	C42.895,21.693,42.502,21.268,42.11,20.843 M41.422,21.889c0.131-0.196,0.295-0.425,0.426-0.654c0.196,0.196,0.36,0.426,0.556,0.622
	c0.196,0.229,0.457,0.556,0.785,0.621c-0.164,0.262-0.328,0.556-0.491,0.818C42.306,22.838,41.816,22.38,41.422,21.889
	 M40.769,22.87c0.163-0.229,0.294-0.457,0.457-0.687c0.328,0.556,0.752,1.112,1.309,1.439c-0.098,0.196-0.229,0.36-0.327,0.556
	c-0.033-0.032-0.033-0.066-0.066-0.098c-0.066-0.066-0.131-0.066-0.196-0.032C41.554,23.655,41.161,23.263,40.769,22.87
	 M40.736,24.833c-0.261-0.229-0.457-0.524-0.719-0.752c-0.033-0.032-0.033-0.032-0.066-0.032c0.196-0.295,0.392-0.556,0.589-0.85
	c0.426,0.523,0.884,1.013,1.374,1.471c-0.131,0.262-0.294,0.49-0.426,0.752C41.226,25.356,40.899,24.996,40.736,24.833
	 M40.213,25.488c-0.262-0.229-0.491-0.491-0.72-0.752c0-0.033-0.032,0-0.065-0.033c0.098-0.13,0.164-0.229,0.262-0.359
	c0.261,0.425,0.653,0.817,1.013,1.145c0.164,0.131,0.328,0.261,0.49,0.327c-0.065,0.098-0.098,0.164-0.163,0.262h-0.066
	C40.736,26.011,40.409,25.684,40.213,25.488 M39.885,26.337c-0.359-0.261-0.687-0.523-1.013-0.785
	c0.098-0.163,0.229-0.294,0.327-0.458c0.328,0.393,0.654,0.752,1.047,1.08c0.164,0.13,0.36,0.327,0.589,0.392
	c-0.065,0.131-0.13,0.229-0.196,0.36C40.409,26.665,40.147,26.501,39.885,26.337 M38.446,26.141L38.446,26.141
	c0.066-0.098,0.131-0.196,0.196-0.294c0.524,0.49,1.145,1.08,1.799,1.341c-0.065,0.098-0.131,0.229-0.196,0.328
	C39.657,27.057,39.002,26.665,38.446,26.141 M37.825,29.314c-0.392-0.261-0.752-0.589-1.079-0.883
	c0.098-0.13,0.196-0.294,0.294-0.425c0.654,0.523,1.308,1.047,1.995,1.57c-0.098,0.131-0.164,0.294-0.262,0.426
	C38.479,29.739,38.152,29.543,37.825,29.314 M36.19,29.183c0.131-0.163,0.262-0.327,0.36-0.49c0.589,0.589,1.308,1.275,2.06,1.57
	c-0.098,0.131-0.164,0.262-0.262,0.393C37.661,30.164,36.909,29.707,36.19,29.183 M36.778,30.884
	c-0.392-0.262-0.785-0.556-1.177-0.85h-0.033c0.164-0.196,0.328-0.425,0.491-0.621c0.719,0.523,1.439,1.079,2.224,1.471
	c-0.164,0.229-0.294,0.491-0.458,0.719C37.498,31.309,37.105,31.113,36.778,30.884 M36.778,33.108v-0.196
	c-0.032-0.491-0.262-0.981-0.654-1.309c-0.425-0.359-0.981-0.457-1.537-0.359c0.066-0.098,0.164-0.196,0.23-0.294
	c0.654,0.261,1.308,0.621,1.896,1.013c0.098,0.066,0.197-0.098,0.098-0.163c-0.589-0.426-1.21-0.72-1.896-0.982
	c0.163-0.196,0.327-0.425,0.49-0.654v0.033c0.654,0.589,1.406,1.243,2.224,1.603C37.4,32.225,37.105,32.65,36.778,33.108
	 M31.251,31.146c0.033-0.066,0.098-0.131,0.131-0.196c0.425-0.066,0.85-0.131,1.21,0c0.491,0.196,0.491,0.621,0.426,1.079
	c-0.032,0.36,0.425,0.556,0.719,0.392c0.098,0.032,0.229,0,0.36-0.098c0.392-0.328,1.014-0.294,1.341,0.13
	c0.131,0.164,0.196,0.392,0.196,0.622c0,0.261-0.163,0.49-0.163,0.752c0.032,0.261,0.163,0.392,0.359,0.457
	c0.098,0.262,0.458,0.36,0.654,0.066c0.294-0.425,0.817-0.523,1.309-0.36c0.131,0.033,0.261,0.098,0.392,0.164
	c-1.178,0.949-2.323,1.93-3.532,2.748c-0.098-0.654-0.687-1.309-1.21-1.635c-0.752-0.491-1.635-0.654-2.486-0.36
	C31.088,33.664,31.186,32.421,31.251,31.146 M37.857,27.319c0.49,0.523,1.047,1.047,1.701,1.373
	c-0.098,0.196-0.229,0.392-0.327,0.556c-0.654-0.524-1.309-1.047-1.963-1.537c0.328-0.426,0.622-0.85,0.949-1.276
	c0.524,0.524,1.145,1.08,1.831,1.407c-0.098,0.164-0.196,0.328-0.294,0.49c-0.589-0.392-1.177-0.752-1.668-1.275
	C37.923,26.927,37.695,27.155,37.857,27.319 M53.721,6.746c-0.196-0.425-0.524-0.785-0.785-1.177
	c-0.262-0.392-0.491-0.785-0.688-1.177c0.033-0.066,0.033-0.098,0.033-0.164c0.098,0.066,0.196,0.131,0.294,0.196
	c0.36,0.523,0.719,1.047,1.111,1.57c0.131,0.164,0.229,0.392,0.392,0.524c-0.261,0.359-0.523,0.719-0.785,1.079
	c-0.032-0.032-0.098-0.032-0.131,0c-0.556-0.72-1.047-1.439-1.537-2.191c0.131-0.196,0.229-0.425,0.36-0.621
	c0.392,0.751,0.817,1.602,1.439,2.158C53.589,7.074,53.786,6.91,53.721,6.746 M50.45,2.821c0.425,0.36,0.85,0.72,1.308,1.047
	c-0.065,0.032-0.131,0.066-0.196,0.13c-6.018,8.798-12.101,17.957-17.563,27.114c-0.131-0.327-0.36-0.654-0.654-0.85
	c-0.392-0.261-0.817-0.359-1.243-0.327C38.512,21.137,44.334,11.848,50.45,2.821 M56.239,0.695c-1.668-0.883-3.631-1.014-4.873,0.13
	c-0.098-0.032-0.229-0.032-0.327,0.066c-4.121,3.369-6.705,8.798-9.616,13.181c-2.354,3.565-4.742,7.097-7.032,10.695
	c-0.032,0-0.066-0.032-0.098-0.032c-5.626-0.328-10.4-6.901-13.508-11.022c-0.098-0.131-0.229-0.164-0.36-0.164
	c-0.032-0.066-0.131-0.066-0.196-0.032C16.337,17.212,12.902,21.693,9.5,25.88c-3.205,3.957-6.802,7.882-9.419,12.265
	c-0.229,0.359,0.066,0.752,0.392,0.817c-0.032,0.131-0.032,0.262,0.066,0.392c11.022,13.672,33.197,22.078,49.387,12.952
	c0.066-0.032,0.098-0.065,0.131-0.131c0.229,0.164,0.687,0.066,0.817-0.262c3.336-8.046,4.317-17.792,5.462-26.394
	c0.032-0.294-0.098-0.524-0.262-0.687c0.294-0.229,0-0.752-0.392-0.687c-3.14,0.555-6.279,0.948-9.485,0.687
	c3.958-6.313,7.85-12.691,11.677-19.036c0.066-0.098,0.066-0.196,0.066-0.294C59.771,4.228,57.678,1.48,56.239,0.695"/>
<path fill="#EB008B" d="M14.93,28.66L14.93,28.66c0.065,0.066,0.065,0.131,0.065,0.229c-0.13,0.033-0.196,0.196-0.098,0.294
	c0.033,0.033,0.098,0.098,0.164,0.131c0,0.098,0.032,0.196,0.032,0.294c-0.163-0.098-0.359-0.164-0.523-0.262
	c-0.066-0.032-0.098-0.032-0.131,0c0-0.032,0-0.032-0.032-0.065c-0.49-0.458-1.079-0.85-1.635-1.244
	c0.032-0.032,0.032-0.098,0.066-0.131c0,0.032,0.032,0.066,0.065,0.066c0.589,0.36,1.145,0.785,1.767,1.047
	c0.13,0.065,0.294-0.098,0.164-0.196c-0.524-0.458-1.145-0.786-1.733-1.145h-0.066c0.066-0.066,0.164-0.131,0.262-0.164
	C13.851,27.908,14.374,28.3,14.93,28.66 M13.654,30.23c-0.163-0.098-0.294,0.098-0.261,0.229c-0.294-0.164-0.556-0.294-0.85-0.426
	c0.098,0,0.163-0.032,0.261-0.065c0.131-0.033,0.164-0.196,0.098-0.294c0,0,0-0.033,0.033-0.033c0.327,0.196,0.654,0.36,0.981,0.426
	c0.032,0,0.098,0,0.13-0.033c0,0,0,0.033,0.033,0.033c0.327,0.163,0.687,0.425,1.079,0.555c0,0.131,0,0.229,0.032,0.328
	C14.767,30.655,14.145,30.491,13.654,30.23 M14.57,31.342c-0.426-0.196-0.916-0.294-1.373-0.426
	c-0.098-0.032-0.164,0.066-0.164,0.131c0-0.033-0.033-0.066-0.066-0.066c-0.49-0.196-0.949-0.425-1.407-0.654
	c0.131-0.065,0.295-0.098,0.426-0.131c0.49,0.262,1.013,0.523,1.537,0.654c0.098,0.032,0.164-0.066,0.164-0.131
	c0.392,0.229,0.817,0.458,1.243,0.556C14.799,31.244,14.701,31.276,14.57,31.342 M11.561,31.571
	c-0.327-0.13-0.523-0.359-0.555-0.589c0.49,0.262,0.949,0.49,1.471,0.654c0.13,0.032,0.196-0.131,0.098-0.196
	c-0.458-0.294-0.981-0.524-1.505-0.752c0.033-0.066,0.098-0.13,0.164-0.196c0.524,0.294,1.079,0.556,1.668,0.719
	c0.098,0.033,0.164-0.065,0.164-0.13c0,0.032,0.033,0.066,0.066,0.066c0.327,0.131,0.621,0.229,0.949,0.327
	C13.262,31.734,12.347,31.898,11.561,31.571 M15.127,30.263c-0.294-0.164-0.622-0.262-0.884-0.393h-0.098
	c0-0.032-0.032-0.065-0.065-0.065c-0.392-0.196-0.785-0.392-1.145-0.622c-0.164-0.196-0.229-0.457-0.229-0.719
	c0.491,0.392,0.982,0.817,1.537,1.111c0.033,0.033,0.066,0.033,0.098,0c0,0.033,0.033,0.066,0.066,0.099
	c0.23,0.131,0.458,0.294,0.72,0.425V30.263z M17.939,22.445c-0.719-0.196-1.439,0.098-1.766,0.752c-0.294,0.589-0.196,1.177,0,1.766
	c-0.982-0.196-2.061,0.654-1.897,1.669c-0.229-0.098-0.49-0.131-0.785-0.131c-1.407,0.033-2.093,1.733-1.472,2.846
	c-1.275-0.098-2.682,1.047-2.06,2.42c0.981,2.061,4.153,1.21,5.429,0.033c0.033-0.033,0.066-0.098,0.098-0.164
	c0.131,0.032,0.262-0.032,0.294-0.196c0.393-1.309,0.131-3.827-1.242-4.677c0.13-0.621,0.981-1.177,1.602-0.915
	c0.164,0.065,0.36,0.065,0.524-0.066c0.065-0.066,0.098-0.098,0.098-0.196V25.52c0.032-0.032,0.065-0.098,0.065-0.164
	c-0.065-0.425-0.13-1.046,0-1.439c0.393-1.21,1.505-0.131,1.865,0.458c0.556,0.949,0.719,1.995,0.915,3.042
	c-0.523,0.229-1.079,0.392-1.668,0.49c-0.589,0.098-1.309,0.032-1.831,0.36c-0.328,0.229-0.36,0.719,0,0.949
	c0.654,0.392,1.57,0.098,2.224-0.164c0.524-0.229,1.014-0.556,1.439-0.916c0.164,0.36,0.752,0.229,0.752-0.196
	C20.654,26.207,19.869,23.002,17.939,22.445"/>
<path fill="#EB008B" d="M23.532,24.8c-3.401,5.462-6.116,11.415-8.504,17.367c-0.163,0.36,0.458,0.622,0.654,0.262
	c2.846-5.756,5.92-11.382,8.766-17.106C24.743,24.735,23.892,24.212,23.532,24.8"/>
<path fill="#EB008B" d="M26.508,26.665c-1.341,3.108-2.65,6.247-3.991,9.355c-1.047,2.42-2.126,7.358-4.252,8.994
	c-0.36,0.262,0.098,0.85,0.458,0.622c2.191-1.505,3.172-5.462,4.219-7.784c1.635-3.532,3.14-7.131,4.579-10.761
	C27.784,26.501,26.737,26.044,26.508,26.665"/>
</svg>
