<?xml version="1.0" encoding="UTF-8"?>
<svg width="70px" height="21px" viewBox="0 0 70 21" version="1.1" xmlns="http://www.w3.org/2000/svg" xmlns:xlink="http://www.w3.org/1999/xlink">
    <!-- Generator: Sketch 46.2 (44496) - http://www.bohemiancoding.com/sketch -->
    <title>bbm_share</title>
    <desc>Created with Sketch.</desc>
    <defs></defs>
    <g id="Page-1" stroke="none" stroke-width="1" fill="none" fill-rule="evenodd">
        <g id="bbm_share">
            <g id="Group">
                <path d="M28.5958603,14.8602846 C30.5165589,14.8602846 32.0188875,13.7953428 32.0188875,11.8556274 C32.0188875,10.1821475 30.7447607,9.49754204 29.3184994,8.77490298 C28.1584735,8.18538163 27.3597671,7.86209573 27.3597671,7.21552393 C27.3597671,6.60698577 27.8351876,6.2076326 28.6338939,6.2076326 C29.3755498,6.2076326 30.2503234,6.51190168 31.0870634,7.00633894 L31.7336352,5.33285899 C30.8208279,4.76235446 29.6988357,4.43906856 28.6529107,4.43906856 C26.7702458,4.43906856 25.3439845,5.54204398 25.3439845,7.36765847 C25.3439845,9.07917206 26.6751617,9.78279431 28.0633894,10.4293661 C29.2043984,10.9808538 30.0221216,11.2851229 30.0221216,11.9887451 C30.0221216,12.6733506 29.4706339,13.0917206 28.6148771,13.0917206 C27.7210867,13.0917206 26.7131953,12.7113842 25.7433376,12.0267788 L25.0206986,13.6622251 C26.0856404,14.4419146 27.3978008,14.8602846 28.5958603,14.8602846 Z M33.9776197,14.6701164 L36.1265201,14.6701164 L36.1265201,8.5847348 C36.1265201,7.19650712 36.9252264,6.34075032 38.0662354,6.34075032 C39.2072445,6.34075032 39.8538163,7.13945666 39.8538163,8.52768435 L39.8538163,14.6701164 L42.0217335,14.6701164 L42.0217335,7.938163 C42.0217335,5.80827943 40.8807245,4.40103493 38.8839586,4.40103493 C37.5147477,4.40103493 36.7160414,5.18072445 36.1265201,6.07451488 L36.1265201,0.939974127 L33.9776197,0.939974127 L33.9776197,14.6701164 Z M46.9280724,14.8602846 C45.2545925,14.8602846 43.8093144,13.7382924 43.8093144,11.798577 L43.8093144,11.6844761 C43.8093144,9.51655886 45.2926261,8.45161708 47.4225097,8.45161708 C48.3923674,8.45161708 49.0769728,8.60375162 49.7425614,8.85097025 L49.7425614,8.45161708 C49.7425614,7.10142303 48.9818887,6.37878396 47.5366106,6.37878396 C46.5667529,6.37878396 45.825097,6.60698577 45.0073739,6.94928849 L44.5890039,5.18072445 C45.5398448,4.74333765 46.4906856,4.4771022 47.8598965,4.4771022 C50.5032342,4.4771022 51.8534282,5.8843467 51.8534282,8.41358344 L51.8534282,14.6701164 L49.7425614,14.6701164 L49.7425614,13.4340233 C49.1340233,14.2707633 48.2402329,14.8602846 46.9280724,14.8602846 Z M47.5746442,13.2438551 C48.8297542,13.2438551 49.7615783,12.4451488 49.7615783,11.3041397 L49.7615783,10.2772316 C49.2861578,10.0680466 48.6205692,9.91591203 47.8789133,9.91591203 C46.6428202,9.91591203 45.9201811,10.5244502 45.9201811,11.5703752 L45.9201811,11.6844761 C45.9201811,12.6923674 46.6238034,13.2438551 47.5746442,13.2438551 Z M59.4221216,6.77813713 L59.4221216,4.43906856 C57.8817594,4.38201811 56.9119017,5.25679172 56.360414,6.56895213 L56.360414,4.5912031 L54.2115136,4.5912031 L54.2115136,14.6701164 L56.360414,14.6701164 L56.360414,10.2391979 C56.360414,7.91914618 57.5584735,6.77813713 59.3080207,6.77813713 L59.4221216,6.77813713 Z M65.2983182,14.8793014 C62.712031,14.8793014 60.6582147,12.9015524 60.6582147,9.74476067 L60.6582147,9.59262613 C60.6582147,6.56895213 62.5028461,4.42005175 64.9940492,4.42005175 C67.7324709,4.42005175 69.1967658,6.70206986 69.1967658,9.70672704 C69.1967658,9.95394567 69.1967658,10.2201811 69.177749,10.4673997 L62.826132,10.4673997 C63.0353169,12.1979301 64.0812419,13.0536869 65.3743855,13.0536869 C66.3822768,13.0536869 67.0668823,12.7113842 67.8085382,12.007762 L68.8164295,13.357956 C67.9226391,14.3087969 66.8386805,14.8793014 65.2983182,14.8793014 Z M62.8071151,8.96507115 L67.0858991,8.96507115 C66.990815,7.34864166 66.2491591,6.2076326 64.9940492,6.2076326 C63.8150065,6.2076326 62.9592497,7.23454075 62.8071151,8.96507115 Z" id="share" fill="#008BC0"></path>
                <g id="BBM_Social-Media-Icon_Add-Us">
                    <path d="M19.7530202,3.71280724 L19.7530202,12.5902402 C19.7530202,14.3026177 18.3693186,15.6906718 16.6623105,15.6906718 L7.40205726,15.6906718 L5.88615783,17.0103813 L14.9002981,17.0103813 L18.5565207,20.1940492 L18.5596459,16.987025 C19.9408473,16.8109906 21.0090556,15.6282838 21.0090556,14.1946144 L21.0090556,6.0594103 C21.0090556,5.0793861 20.5102667,4.21708393 19.7530202,3.71280724" id="Fill-1" fill="#008BC0"></path>
                    <path d="M16.6496084,15.6960281 C18.3566395,15.6960281 19.7412678,14.3175175 19.7412678,12.6162907 L19.7412678,3.07973741 C19.7412678,1.37851058 18.3566395,0 16.6496084,0 L3.09103423,0 C1.38384692,0 0,1.37851058 0,3.07973741 L0,12.6162907 C0,14.1872168 1.18037219,15.4824407 2.70612007,15.6708086 L2.71002703,19.7412678 L7.38822663,15.6960281 L16.6496084,15.6960281" id="Fill-2" fill="#AAB0B0"></path>
                    <path d="M16.5554135,0.905562743 L3.09545391,0.905562743 C1.88641578,0.905562743 0.905562743,1.89096648 0.905562743,3.10561398 L0.905562743,12.6564983 C0.905562743,13.8716156 1.88641578,14.856393 3.09545391,14.856393 L3.63552316,14.856393 L3.6387963,17.7490298 L6.95542934,14.856393 L16.5554135,14.856393 C17.7649192,14.856393 18.7451488,13.8716156 18.7451488,12.6564983 L18.7451488,3.10561398 C18.7451488,1.89096648 17.7649192,0.905562743 16.5554135,0.905562743" id="Fill-3" fill="#000000"></path>
                    <path d="M7.87839586,4.66921236 C7.87839586,4.28673031 7.64412182,3.80336352 6.65790367,3.80336352 L5.14047542,3.80336352 L4.70892626,5.79560155 L6.29122071,5.79560155 C7.52666991,5.79560155 7.87839586,5.21182144 7.87839586,4.66921236" id="Fill-4" fill="#FFFFFE"></path>
                    <path d="M11.9534282,4.66921236 C11.9534282,4.28673031 11.7196794,3.80336352 10.7336502,3.80336352 L9.21554327,3.80336352 L8.7839586,5.79560155 L10.3660157,5.79560155 C11.602175,5.79560155 11.9534282,5.21182144 11.9534282,4.66921236" id="Fill-5" fill="#FFFFFE"></path>
                    <path d="M7.33505821,7.65827973 C7.33505821,7.27603888 7.10078417,6.79172057 6.11456602,6.79172057 L4.59698034,6.79172057 L4.16558862,8.7839586 L5.74709585,8.7839586 C6.98317482,8.7839586 7.33505821,8.19929029 7.33505821,7.65827973" id="Fill-6" fill="#FFFFFE"></path>
                    <path d="M11.4100906,7.65827973 C11.4100906,7.27603888 11.1751867,6.79172057 10.1908579,6.79172057 L8.67264245,6.79172057 L8.24062096,8.7839586 L9.82275796,8.7839586 C11.0583646,8.7839586 11.4100906,8.19929029 11.4100906,7.65827973" id="Fill-7" fill="#FFFFFE"></path>
                    <path d="M15.6662354,6.39049189 C15.6662354,6.00825104 15.4311742,5.52393273 14.446373,5.52393273 L12.9287873,5.52393273 L12.4967658,7.51617076 L14.0781156,7.51617076 C15.3143521,7.51617076 15.6662354,6.93275879 15.6662354,6.39049189" id="Fill-8" fill="#FFFFFE"></path>
                    <path d="M15.0323415,9.56022159 C15.0323415,9.17695983 14.7980209,8.69340233 13.8122367,8.69340233 L12.2943494,8.69340233 L11.8628719,10.6856404 L13.4446935,10.6856404 C14.6810181,10.6856404 15.0323415,10.1010011 15.0323415,9.56022159" id="Fill-9" fill="#FFFFFE"></path>
                    <path d="M10.8667529,10.828651 C10.8667529,10.4450329 10.6322748,9.96119017 9.64790784,9.96119017 L8.12876077,9.96119017 L7.69728331,11.9534282 L9.27910485,11.9534282 C10.5154295,11.9534282 10.8667529,11.3698322 10.8667529,10.828651" id="Fill-10" fill="#FFFFFE"></path>
                </g>
            </g>
        </g>
    </g>
</svg>