<?xml version="1.0" encoding="UTF-8"?>
<svg width="80px" height="61px" viewBox="0 0 80 61" version="1.1" xmlns="http://www.w3.org/2000/svg" xmlns:xlink="http://www.w3.org/1999/xlink">
    <!-- Generator: Sketch 46.2 (44496) - http://www.bohemiancoding.com/sketch -->
    <title>Play Button</title>
    <desc>Created with Sketch.</desc>
    <defs></defs>
    <g id="Components" stroke="none" stroke-width="1" fill="none" fill-rule="evenodd">
        <g id="components/video-player" transform="translate(-140.000000, -85.000000)">
            <g id="Freebasics-player">
                <g transform="translate(15.000000, 21.000000)">
                    <g id="Play-Button" transform="translate(125.000000, 64.000000)">
                        <path d="M79.8488987,30.1385447 L79.8488987,41.3389354 C79.8488987,54.1680074 77.2790955,57.6294132 68.583033,59.6661811 C65.4202894,60.2770893 49.8069854,60.2770893 39.9238564,60.2770893 C30.0419133,60.2770893 14.4274234,60.2770893 11.2658657,59.6661811 C2.56861739,57.6294132 0,54.1680074 0,41.3389354 L0,30.1385447 L0,18.9381539 C0,6.1090819 2.56861739,2.6476761 11.2658657,0.61090819 C14.4274234,0 30.0419133,0 39.9238564,0 C49.8069854,0 65.4202894,0 68.583033,0.61090819 C77.2790955,2.6476761 79.8488987,6.1090819 79.8488987,18.9381539 L79.8488987,30.1385447 Z" id="Fill-1" fill-opacity="0.469999999" fill="#FFFFFF"></path>
                        <g id="Play-icon" transform="translate(32.018776, 18.327246)">
                            <polygon id="Fill-1" fill="#FFFFFF" points="0 0.000366544914 0 23.4176993 21.9387912 11.8104437"></polygon>
                            <polygon id="Fill-2" fill="#CCCCCC" points="19.5666742 13.2366699 21.9396213 11.8108102 -0.000355764181 0.000733089828"></polygon>
                        </g>
                    </g>
                </g>
            </g>
        </g>
    </g>
</svg>