<svg xmlns="http://www.w3.org/2000/svg" width="24" height="24" viewBox="0 0 24 24">
    <path fill="#1DA1F3" fill-rule="evenodd" d="M19.991 6.815a.858.858 0 0 0-.228.64c.005.062.094 1.541-.384 3.426a12.313 12.313 0 0 1-2.165 4.467c-2.319 3.044-5.252 4.467-9.508 4.611-1.33.05-2.615-.245-3.673-.61.27-.058.541-.129.81-.213 2.3-.725 2.875-1.993 2.933-2.136a.845.845 0 0 0-.032-.712.854.854 0 0 0-.565-.437c-.01-.003-1.064-.249-1.974-.756a6.648 6.648 0 0 1-.557-.342c.646-.146 1.313-.39 1.74-.8a.85.85 0 0 0 .022-1.202.842.842 0 0 0-.485-.238c-.023-.007-1.32-.297-2.422-1.284a3.824 3.824 0 0 1-.555-.614c.93.123 1.555.137 1.582.137.497-.013.857-.36.867-.832a.834.834 0 0 0-.389-.712c-.019-.016-.029-.038-.05-.05-.702-.469-1.813-1.619-2.086-2.71a3.594 3.594 0 0 1-.093-1.025A15.956 15.956 0 0 0 5.77 7.62c2.662 1.492 5.8 1.553 5.932 1.555.226-.012.503-.112.667-.31a.851.851 0 0 0 .176-.717c-.024-.118-.569-2.907 2.194-4.176 2.004-.917 4.113.836 4.132.852.162.14.377.21.586.205a6.548 6.548 0 0 0 1.534-.265c-.067.4.165.792.553.933-.023.024-.04.05-.064.075-.328.336-1.027.745-1.268.874a.866.866 0 0 0-.22.17zm2.966-2.69l.216-.705a.847.847 0 0 0-.298-.925.842.842 0 0 0-.972-.04c-.006.004-.655.416-1.27.636-.34.122-.707.184-.953.213-.816-.59-3.175-2.013-5.65-.877-2.545 1.168-3.232 3.377-3.25 4.972-1.028-.123-2.716-.442-4.18-1.262C4.397 4.903 2.946 3.16 2.931 3.142a.848.848 0 0 0-1.443.22c-.029.07-.7 1.753-.265 3.497.167.67.52 1.31.936 1.88a18.804 18.804 0 0 1-.392-.094.848.848 0 0 0-1.054.907c.016.164.2 1.638 1.655 2.943.328.295.667.535.997.74-.19.018-.379.033-.556.037a.85.85 0 0 0-.757 1.194c.08.182.572 1.14 2.326 2.115.34.19.69.347 1.013.476a5.204 5.204 0 0 1-1.06.458c-1.57.492-3.414.394-3.432.394a.851.851 0 0 0-.528 1.551c.136.092 3.283 2.205 7.055 2.205.112 0 .225-.002.338-.006 4.814-.164 8.145-1.792 10.802-5.282a14.006 14.006 0 0 0 2.461-5.078c.374-1.475.442-2.733.446-3.419.368-.224.875-.564 1.222-.919a5.932 5.932 0 0 0 1.14-1.673.85.85 0 0 0-.45-1.115.827.827 0 0 0-.428-.048z"/>
</svg>
