<?xml version="1.0" encoding="UTF-8"?>
<svg width="148px" height="148px" viewBox="0 0 148 148" version="1.1" xmlns="http://www.w3.org/2000/svg" xmlns:xlink="http://www.w3.org/1999/xlink">
    <!-- Generator: Sketch 55.2 (78181) - https://sketchapp.com -->
    <title>Shape</title>
    <desc>Created with Sketch.</desc>
    <g id="Page-1" stroke="none" stroke-width="1" fill="none" fill-rule="evenodd">
        <g id="comment" fill="#003CDC" fill-rule="nonzero">
            <path d="M136.514,112.571 C143.684,100.982 147.458,87.695 147.458,73.997 C147.458,33.491 114.506,0.539 74,0.539 C33.494,0.539 0.542,33.491 0.542,73.997 C0.542,114.503 33.494,147.458 74,147.458 C87.698,147.458 100.985,143.681 112.574,136.514 L141.395,147.182 C141.905,147.368 142.433,147.461 142.958,147.461 C144.131,147.461 145.28,147.002 146.141,146.144 C147.383,144.902 147.791,143.051 147.182,141.401 L136.514,112.571 Z M113.597,127.295 C112.253,126.797 110.75,126.974 109.55,127.766 C98.987,134.762 86.696,138.458 74,138.458 C38.456,138.458 9.542,109.541 9.542,73.997 C9.542,38.453 38.459,9.539 74,9.539 C109.541,9.539 138.458,38.456 138.458,73.997 C138.458,86.693 134.762,98.987 127.766,109.547 C126.971,110.741 126.797,112.244 127.295,113.594 L135.344,135.341 L113.597,127.295 Z M43.673,66.419 C39.485,66.419 36.092,69.812 36.092,74 C36.092,78.188 39.488,81.581 43.673,81.581 C47.858,81.581 51.254,78.188 51.254,74 C51.254,69.812 47.855,66.419 43.673,66.419 Z M73.997,66.419 C69.809,66.419 66.419,69.812 66.419,74 C66.419,78.188 69.812,81.581 73.997,81.581 C78.185,81.581 81.578,78.188 81.578,74 C81.578,69.812 78.188,66.419 73.997,66.419 Z M104.324,66.419 C100.139,66.419 96.746,69.812 96.746,74 C96.746,78.188 100.142,81.581 104.324,81.581 C108.512,81.581 111.905002,78.188 111.905002,74 C111.908,69.812 108.515,66.419 104.324,66.419 Z" id="Shape"></path>
        </g>
    </g>
</svg>