<?xml version="1.0" encoding="UTF-8"?>
<svg width="360px" height="160px" viewBox="0 0 360 160" version="1.1" xmlns="http://www.w3.org/2000/svg" xmlns:xlink="http://www.w3.org/1999/xlink">
    <!-- Generator: Sketch 55 (78076) - https://sketchapp.com -->
    <title>My Future banner — Eng Copy@3x</title>
    <desc>Created with Sketch.</desc>
    <defs>
        <rect id="path-1" x="0" y="0" width="360" height="160"></rect>
    </defs>
    <g id="My-Future-banner-—-Eng-Copy" stroke="none" stroke-width="1" fill="none" fill-rule="evenodd">
        <rect id="Rectangle" fill="#FFDB00" x="0" y="0" width="360" height="160"></rect>
        <g id="Group-748" opacity="0.63109189">
            <mask id="mask-2" fill="white">
                <use xlink:href="#path-1"></use>
            </mask>
            <g id="Mask"></g>
            <g mask="url(#mask-2)" fill="#EFC803">
                <g transform="translate(-99.000000, -263.000000)">
                    <path d="M105.8004,261.136857 C105.71237,260.359613 110.673304,250.665817 111.329003,250.592444 C111.983879,250.507979 118.676615,258.491155 118.772872,259.240245 C118.877356,259.988481 114.269364,270.268409 113.579111,270.361405 C112.889681,270.46464 105.87938,261.914954 105.8004,261.136857" id="Fill-317"></path>
                    <path d="M124.765642,259.480499 C124.636503,258.760435 129.793778,247.691999 130.386492,247.626761 C130.97755,247.552553 136.626546,254.796413 136.737473,255.435745 C136.857506,256.073446 133.407181,267.234846 132.754037,267.393864 C132.103376,267.563482 124.886503,260.202194 124.765642,259.480499" id="Fill-319"></path>
                    <path d="M143.732583,258.169169 C143.574746,257.523681 146.982127,246.811398 147.698466,246.640704 C148.412204,246.459238 156.586797,254.468592 156.700405,255.209371 C156.82442,255.948492 151.775356,265.332511 151.153546,265.418687 C150.532603,265.513977 143.880881,258.817143 143.732583,258.169169" id="Fill-323"></path>
                    <path d="M161.694631,255.018154 C161.60283,254.328607 165.899474,244.716858 166.593561,244.660971 C167.285931,244.595221 173.626227,253.583994 173.669983,254.257926 C173.723176,254.931858 169.262662,263.393813 168.626917,263.442303 C167.991171,263.501478 161.777853,255.708523 161.694631,255.018154" id="Fill-325"></path>
                    <path d="M99.8117635,288.815633 C99.7237281,288.038389 104.684976,278.344593 105.340717,278.27122 C105.994812,278.186755 112.688795,286.170785 112.784235,286.919874 C112.888726,287.667257 108.281264,297.948039 107.590145,298.040182 C106.900672,298.143416 99.8907486,289.594584 99.8117635,288.815633" id="Fill-359"></path>
                    <path d="M119.775142,288.147808 C119.645175,287.427744 124.802454,276.359316 125.395169,276.294078 C125.987056,276.219054 131.636056,283.463725 131.746983,284.103057 C131.866188,284.740757 128.416689,295.90215 127.763544,296.061168 C127.112882,296.230786 119.895175,288.869502 119.775142,288.147808" id="Fill-361"></path>
                    <path d="M137.743947,285.847935 C137.586109,285.202447 140.993499,274.490174 141.70984,274.31948 C142.423579,274.138015 150.598191,282.147361 150.7118,282.888139 C150.834948,283.627259 145.785872,293.01127 145.16406,293.097446 C144.543115,293.193565 137.892245,286.495908 137.743947,285.847935" id="Fill-365"></path>
                    <path d="M156.704101,282.696118 C156.612293,282.00657 160.909245,272.394821 161.602523,272.339756 C162.295802,272.273185 168.635693,281.261958 168.679452,281.936711 C168.732649,282.610643 164.272674,291.072599 163.636025,291.121089 C163.001092,291.179442 156.787329,283.386487 156.704101,282.696118" id="Fill-367"></path>
                    <path d="M191.638157,280.272433 C191.526253,279.566555 196.686259,268.432441 197.415705,268.38555 C198.143494,268.326099 204.584175,278.011614 204.61153,278.725866 C204.648831,279.43928 199.773144,288.084818 199.136536,288.155155 C198.500757,288.236377 191.740943,280.979986 191.638157,280.272433" id="Fill-369"></path>
                    <path d="M210.601685,277.476244 C210.503418,276.78805 215.982014,266.438018 216.682927,266.408355 C217.3821,266.368521 223.545956,275.289618 223.575523,275.983745 C223.614655,276.677871 218.755227,285.120961 218.113449,285.189611 C217.47254,285.267584 210.692125,278.165286 210.601685,277.476244" id="Fill-371"></path>
                    <path d="M229.567248,276.777709 C229.416949,276.117583 235.248922,264.492741 236.073318,264.431571 C236.896814,264.357657 244.538678,274.435409 244.535978,275.109978 C244.543178,275.785397 238.604106,283.145333 237.960609,283.21245 C237.317112,283.288913 229.709448,277.439534 229.567248,276.777709" id="Fill-373"></path>
                    <path d="M249.528035,273.753424 C249.425432,273.157122 254.550213,263.487324 255.159584,263.442937 C255.768063,263.389336 261.447791,270.584316 261.503107,271.215793 C261.567345,271.846432 257.067102,280.164502 256.491635,280.246577 C255.91706,280.337865 249.622608,274.350563 249.528035,273.753424" id="Fill-375"></path>
                    <path d="M173.672,281.661646 C173.568506,281.066182 178.694176,271.395546 179.303546,271.351158 C179.911132,271.297558 185.590856,278.492538 185.647065,279.124014 C185.710411,279.755491 181.211063,288.072723 180.635596,288.154799 C180.061021,288.246086 173.766573,282.258785 173.672,281.661646" id="Fill-377"></path>
                    <path d="M265.499882,272.19335 C265.329722,271.517815 271.130048,259.583933 271.982598,259.489376 C272.833395,259.381188 281.470292,269.660733 281.465907,270.363528 C281.470292,271.066323 274.91039,278.204163 274.264837,278.269757 C273.620162,278.346425 265.663024,272.871441 265.499882,272.19335" id="Fill-379"></path>
                    <path d="M287.458084,269.556333 C287.301365,268.942491 292.398347,257.529927 293.132406,257.511538 C293.864664,257.481765 299.430003,267.649131 299.431805,268.182412 C299.439911,268.716569 295.778622,275.204383 295.292252,275.303333 C294.806782,275.41104 287.607598,270.172802 287.458084,269.556333" id="Fill-381"></path>
                    <path d="M411.219276,254.901264 C411.174095,254.171333 403.315172,244.588437 402.705656,244.661022 C402.095287,244.723821 398.201203,253.066241 398.244679,253.712985 C398.280483,254.361359 404.452368,264.426255 405.144574,264.431148 C405.837632,264.445828 411.274687,255.631195 411.219276,254.901264" id="Fill-385"></path>
                    <path d="M392.255653,256.832459 C392.251433,256.178214 386.48647,246.644235 385.768276,246.637693 C385.050082,246.619701 379.212539,256.102158 379.280899,256.838183 C379.339131,257.575026 386.342156,265.473394 386.951481,265.419419 C387.561651,265.375257 392.269156,257.486703 392.255653,256.832459" id="Fill-387"></path>
                    <path d="M375.286471,257.624783 C375.208317,256.931328 368.613043,248.514211 367.918346,248.615632 C367.220176,248.706334 363.190068,258.895431 363.313377,259.562501 C363.427133,260.232044 369.897363,267.490653 370.535615,267.395829 C371.176473,267.310899 375.375913,258.31659 375.286471,257.624783" id="Fill-389"></path>
                    <path d="M357.321368,260.866057 C357.268322,260.147627 349.684466,250.466522 348.965035,250.593007 C348.243118,250.707686 344.211656,261.717718 344.350072,262.4235 C344.477713,263.131812 351.211183,270.443445 351.846901,270.361652 C352.483447,270.29082 357.384359,261.583645 357.321368,260.866057" id="Fill-391"></path>
                    <path d="M338.357027,262.050567 C338.289208,261.351874 330.489092,252.439259 329.801333,252.570264 C329.111834,252.690994 325.249599,262.869133 325.386107,263.558408 C325.513921,264.248538 332.255008,271.429834 332.895816,271.350203 C333.537493,271.280848 338.43528,262.748403 338.357027,262.050567" id="Fill-397"></path>
                    <path d="M319.39386,265.181148 C319.37766,264.5021 310.838794,254.424847 310.022526,254.54699 C309.203558,254.657176 304.258251,266.19844 304.426545,266.857843 C304.585838,267.518955 312.175242,273.404043 312.818717,273.327169 C313.463091,273.259692 319.419059,265.859343 319.39386,265.181148" id="Fill-399"></path>
                    <path d="M95.8193395,317.482937 C95.7313041,316.705693 100.69173,307.011897 101.34747,306.938524 C102.002388,306.854059 108.696371,314.838089 108.791811,315.587178 C108.896302,316.334561 104.288018,326.615343 103.597721,326.707486 C102.908248,326.81072 95.8975018,318.261034 95.8193395,317.482937" id="Fill-401"></path>
                    <path d="M114.784581,315.826579 C114.655451,315.107331 119.812387,304.03808 120.405062,303.972842 C120.996082,303.898633 126.644707,311.142494 126.756454,311.781826 C126.875651,312.419527 123.425553,323.580926 122.772452,323.739944 C122.121833,323.909563 114.905434,316.548274 114.784581,315.826579" id="Fill-403"></path>
                    <path d="M450.148217,277.273998 C450.019087,276.554749 455.176023,265.485498 455.768698,265.42026 C456.360545,265.346052 462.008342,272.589912 462.12009,273.23006 C462.239287,273.866945 458.790017,285.029161 458.136915,285.187363 C457.486297,285.356981 450.26907,277.995693 450.148217,277.273998" id="Fill-405"></path>
                    <path d="M132.753417,313.526722 C132.595579,312.881234 136.00296,302.16895 136.7193,301.998256 C137.433037,301.816791 145.608497,309.826145 145.721238,310.566923 C145.845253,311.306044 140.796189,320.690064 140.174379,320.77624 C139.553436,320.87153 132.902582,314.174695 132.753417,313.526722" id="Fill-407"></path>
                    <path d="M150.715465,310.375259 C150.623657,309.685741 154.920609,300.074408 155.613887,300.018523 C156.306307,299.952777 162.647057,308.941161 162.690816,309.615885 C162.744013,310.288966 158.284038,318.750555 157.647389,318.799865 C157.011598,318.858215 150.797835,311.065598 150.715465,310.375259" id="Fill-409"></path>
                    <path d="M186.647627,307.950876 C186.535723,307.244968 191.695732,296.111219 192.42435,296.064326 C193.152968,296.004872 199.593654,305.689961 199.621009,306.404242 C199.657481,307.117687 194.78179,315.763592 194.146011,315.833931 C193.510231,315.915157 186.750412,308.658458 186.647627,307.950876" id="Fill-411"></path>
                    <path d="M205.611177,304.166139 C205.512041,303.477914 210.991497,293.128274 211.691539,293.098609 C212.39158,293.057926 218.555425,301.979416 218.584992,302.673573 C218.624125,303.367731 213.763836,311.811193 213.122928,311.879846 C212.481151,311.95867 205.701617,304.856058 205.611177,304.166139" id="Fill-413"></path>
                    <path d="M223.578646,304.456483 C223.427438,303.796356 229.260647,292.171508 230.085091,292.110338 C230.908635,292.037274 238.55004,302.114181 238.54734,302.788751 C238.555441,303.464169 232.616025,310.824959 231.971591,310.891226 C231.328957,310.967689 223.719953,305.118308 223.578646,304.456483" id="Fill-415"></path>
                    <path d="M243.539425,301.4322 C243.43593,300.836736 248.5616,291.166938 249.17097,291.121713 C249.778556,291.068113 255.458281,298.263092 255.514489,298.894569 C255.577835,299.526046 251.078487,307.843278 250.50302,307.925353 C249.928445,308.016641 243.633997,302.029339 243.539425,301.4322" id="Fill-417"></path>
                    <path d="M168.681444,309.340422 C168.578841,308.74412 173.703623,299.074322 174.312993,299.029935 C174.921472,298.976335 180.6012,306.171314 180.656516,306.802791 C180.720754,307.43343 176.220511,315.7515 175.645044,315.833575 C175.070469,315.924863 168.776017,309.937561 168.681444,309.340422" id="Fill-419"></path>
                    <path d="M261.507495,300.860086 C261.33645,300.18458 267.13708,288.252072 267.990552,288.156666 C268.841393,288.049335 277.478745,298.32758 277.473482,299.030344 C277.478745,299.733108 270.918498,306.870635 270.272911,306.937079 C269.628202,307.012892 261.669769,301.538147 261.507495,300.860086" id="Fill-421"></path>
                    <path d="M282.467594,297.23511 C282.309963,296.620393 287.408211,285.208707 288.142323,285.190318 C288.873732,285.159669 294.440371,295.327909 294.441271,295.86119 C294.450279,296.394471 290.788728,302.883159 290.301422,302.98211 C289.815917,303.089817 282.616218,297.85158 282.467594,297.23511" id="Fill-423"></path>
                    <path d="M426.189848,278.295028 C426.102281,277.517735 419.137812,269.286621 418.487195,269.374504 C417.834941,269.450441 413.142313,278.830857 413.216786,279.582553 C413.283075,280.335102 420.035582,289.221498 420.724663,289.143854 C421.414563,289.079008 426.287236,279.070615 426.189848,278.295028" id="Fill-425"></path>
                    <path d="M407.226865,281.591934 C407.181684,280.861973 399.322753,271.278682 398.713236,271.351271 C398.102867,271.414072 394.208779,279.756836 394.252255,280.403606 C394.287207,281.052007 400.459097,291.117317 401.152156,291.121395 C401.845215,291.136891 407.281423,282.321079 407.226865,281.591934" id="Fill-427"></path>
                    <path d="M387.265123,284.51123 C387.260903,283.856985 381.496783,274.323009 380.777745,274.316467 C380.059551,274.299293 374.222009,283.781747 374.290368,284.516954 C374.3486,285.253797 381.352469,293.15298 381.961795,293.098187 C382.571965,293.054025 387.278626,285.165474 387.265123,284.51123" id="Fill-429"></path>
                    <path d="M368.299755,284.314636 C368.220739,283.62121 361.626796,275.205274 360.93128,275.305866 C360.234027,275.396564 356.203334,285.585231 356.326633,286.253097 C356.440382,286.921787 362.911026,294.180089 363.549233,294.086093 C364.190046,294.000342 368.388323,285.007238 368.299755,284.314636" id="Fill-431"></path>
                    <path d="M351.332731,288.545231 C351.27886,287.82683 343.695464,278.146131 342.976077,278.271767 C342.255033,278.387284 338.223816,289.396856 338.361394,290.102609 C338.489856,290.810891 345.222918,298.122218 345.858597,298.040428 C346.495105,297.9696 351.395719,289.261945 351.332731,288.545231" id="Fill-433"></path>
                    <path d="M445.154701,278.659556 C445.10083,277.941969 437.518262,268.260021 436.798047,268.386506 C436.077003,268.501185 432.045785,279.511217 432.183364,280.216999 C432.311826,280.925311 439.044887,288.236944 439.680566,288.155151 C440.317074,288.08432 445.217689,279.377144 445.154701,278.659556" id="Fill-437"></path>
                    <path d="M332.368411,289.728911 C332.300596,289.03025 324.500122,280.118041 323.812407,280.24904 C323.122954,280.369764 319.260971,290.548296 319.397471,291.236683 C319.526146,291.926782 326.266792,299.108606 326.907557,299.02898 C327.549192,298.959627 332.44579,290.426716 332.368411,289.728911" id="Fill-439"></path>
                    <path d="M314.403329,292.859925 C314.386231,292.18173 305.847878,282.103623 305.031659,282.225767 C304.21364,282.335952 299.26773,293.877216 299.436013,294.536619 C299.596197,295.197731 307.185145,301.082819 307.827681,301.005946 C308.472017,300.938468 314.428527,293.538119 314.403329,292.859925" id="Fill-441"></path>
                    <path d="M89.8307028,345.161713 C89.742673,344.384469 94.7036069,334.68982 95.3593058,334.6173 C96.014182,334.532836 102.706918,342.516012 102.803175,343.265101 C102.907659,344.013337 98.299667,354.293266 97.6085916,354.386262 C96.9199844,354.489496 89.9096829,345.939811 89.8307028,345.161713" id="Fill-443"></path>
                    <path d="M109.794081,344.493883 C109.664114,343.773819 114.822221,332.705384 115.414108,332.640146 C116.005995,332.565937 121.654996,339.809798 121.765923,340.44913 C121.885128,341.086831 118.435628,352.248231 117.782483,352.407248 C117.131822,352.576867 109.914114,345.215578 109.794081,344.493883" id="Fill-445"></path>
                    <path d="M445.157687,303.964247 C445.028557,303.244998 450.185493,292.175747 450.778168,292.110509 C451.369188,292.036301 457.017813,299.280161 457.12956,299.919493 C457.248757,300.557194 453.798659,311.718594 453.145558,311.877611 C452.494939,312.04723 445.27854,304.685941 445.157687,303.964247" id="Fill-447"></path>
                    <path d="M126.76478,343.182553 C126.606943,342.537065 130.014324,331.824782 130.730663,331.654088 C131.444401,331.472622 139.618994,339.481977 139.732602,340.222755 C139.856617,340.961876 134.807553,350.345896 134.185743,350.432071 C133.563932,350.527362 126.913078,343.830527 126.76478,343.182553" id="Fill-449"></path>
                    <path d="M145.724935,339.042198 C145.633127,338.352651 149.930073,328.740902 150.624209,328.685836 C151.316628,328.619265 157.65737,337.608038 157.70027,338.282792 C157.754325,338.956724 153.293498,347.418679 152.657708,347.467169 C152.021917,347.525522 145.808162,339.732567 145.724935,339.042198" id="Fill-451"></path>
                    <path d="M181.657123,335.629983 C181.544383,334.924105 186.705537,323.790823 187.434199,323.743095 C188.162033,323.684481 194.603113,333.369163 194.630469,334.083415 C194.667772,334.796829 189.791784,343.442371 189.155136,343.512708 C188.519318,343.59393 181.759086,336.337536 181.657123,335.629983" id="Fill-453"></path>
                    <path d="M200.620647,331.845261 C200.521504,331.157067 206.001328,320.807891 206.701416,320.77738 C207.400635,320.737546 213.564893,329.658636 213.594462,330.352762 C213.633597,331.046889 208.773852,339.489973 208.132032,339.558622 C207.491081,339.637443 200.710223,332.534302 200.620647,331.845261" id="Fill-455"></path>
                    <path d="M218.588116,331.146734 C218.436908,330.486608 224.269218,318.861766 225.094562,318.800596 C225.918105,318.726682 233.559512,328.804434 233.556812,329.479003 C233.564012,330.154421 227.625496,337.514358 226.981062,337.581475 C226.337528,337.657937 218.729423,331.808559 218.588116,331.146734" id="Fill-457"></path>
                    <path d="M237.550762,328.122449 C237.448159,327.526147 242.572941,317.856349 243.182311,317.811961 C243.79079,317.758361 249.470518,324.953341 249.525834,325.584818 C249.590072,326.215457 245.089829,334.533526 244.515254,334.615602 C243.939787,334.706889 237.645335,328.719588 237.550762,328.122449" id="Fill-459"></path>
                    <path d="M163.690914,337.019198 C163.588311,336.423734 168.713092,326.753936 169.322463,326.708711 C169.930941,326.655111 175.610669,333.850091 175.665986,334.481567 C175.730224,335.113044 171.229981,343.430276 170.654513,343.512351 C170.079938,343.603639 163.785487,337.616337 163.690914,337.019198" id="Fill-461"></path>
                    <path d="M255.518859,328.538866 C255.347813,327.863361 261.148443,315.930861 262.001916,315.835456 C262.85188,315.727273 271.489231,326.006362 271.484845,326.709125 C271.490108,327.411889 264.929861,334.549412 264.283398,334.615855 C263.639565,334.691668 255.681132,329.216927 255.518859,328.538866" id="Fill-463"></path>
                    <path d="M277.477064,325.901838 C277.319433,325.288025 282.41678,313.876006 283.150892,313.857618 C283.883202,313.827847 289.448939,323.994727 289.450741,324.527983 C289.459748,325.062114 285.798198,331.549619 285.310892,331.64944 C284.825387,331.756266 277.625688,326.518278 277.477064,325.901838" id="Fill-465"></path>
                    <path d="M420.201187,305.973417 C420.113615,305.196157 413.14872,296.966241 412.498063,297.053266 C411.846587,297.130054 407.153672,306.510077 407.22815,307.261741 C407.293625,308.014259 414.047363,316.899428 414.736486,316.822641 C415.426429,316.756945 420.2994,306.749824 420.201187,305.973417" id="Fill-467"></path>
                    <path d="M401.238229,309.27071 C401.192195,308.540749 393.333273,298.957459 392.724609,299.030047 C392.113388,299.092848 388.219305,307.435612 388.263633,308.082382 C388.298584,308.729968 394.470468,318.795277 395.162674,318.800171 C395.856585,318.815667 401.292787,309.999856 401.238229,309.27071" id="Fill-469"></path>
                    <path d="M382.274592,311.201479 C382.270373,310.547235 376.506253,301.01326 375.787215,301.006718 C375.069021,300.988726 369.231479,310.471179 369.299838,311.207204 C369.35807,311.944046 376.361095,319.843228 376.971265,319.788435 C377.58059,319.744274 382.288095,311.855723 382.274592,311.201479" id="Fill-471"></path>
                    <path d="M363.309225,312.982328 C363.230209,312.288872 356.636266,303.872573 355.94075,303.97317 C355.242629,304.063872 351.212804,314.252977 351.336104,314.920048 C351.449852,315.589591 357.920496,322.848206 358.557835,322.753381 C359.198647,322.668451 363.397793,313.674135 363.309225,312.982328" id="Fill-473"></path>
                    <path d="M345.344079,317.212138 C345.291034,316.49455 337.707163,306.812603 336.987731,306.939087 C336.265813,307.053766 332.235172,318.063798 332.372759,318.76958 C332.5004,319.477892 339.233883,326.789525 339.870431,326.707732 C340.50615,326.636901 345.4079,317.929725 345.344079,317.212138" id="Fill-475"></path>
                    <path d="M438.167959,305.349805 C438.114088,304.631375 430.530691,294.95027 429.811305,295.076754 C429.09026,295.191433 425.059043,306.201466 425.196621,306.907248 C425.325083,307.61556 432.057316,314.927192 432.693824,314.845399 C433.329503,314.774568 438.230947,306.067392 438.167959,305.349805" id="Fill-479"></path>
                    <path d="M326.379775,318.39664 C326.31109,317.697948 318.511485,308.785339 317.823771,308.916344 C317.134317,309.037074 313.272335,319.216062 313.408834,319.90448 C313.537509,320.59461 320.278155,327.776756 320.918921,327.696269 C321.559687,327.626914 326.457154,319.094476 326.379775,318.39664" id="Fill-481"></path>
                    <path d="M309.412799,321.527229 C309.3966,320.849034 300.857733,310.770927 300.041465,310.893071 C299.223397,311.003256 294.27719,322.54452 294.445483,323.203923 C294.604777,323.865035 302.195081,329.750123 302.837656,329.67325 C303.482031,329.605772 309.437998,322.205423 309.412799,321.527229" id="Fill-483"></path>
                    <path d="M355.328142,341.528305 C355.199011,340.808241 360.355947,329.739813 360.948622,329.674575 C361.539642,329.599551 367.188266,336.844222 367.300014,337.483554 C367.419211,338.121255 363.969941,349.282647 363.31684,349.441665 C362.666221,349.611283 355.448994,342.25 355.328142,341.528305" id="Fill-489"></path>
                    <path d="M91.8275508,372.205512 C91.715647,371.499634 96.8756561,360.365519 97.6042743,360.318628 C98.3328924,360.259177 104.77275,369.944693 104.800933,370.658944 C104.837405,371.372358 99.9617146,380.017897 99.3259352,380.088233 C98.6893268,380.169455 91.9303366,372.913064 91.8275508,372.205512" id="Fill-495"></path>
                    <path d="M110.791101,370.397496 C110.691959,369.709272 116.171782,359.359631 116.871871,359.329967 C117.571959,359.289283 123.736217,368.210774 123.764916,368.904931 C123.804052,369.599088 118.944307,378.042551 118.303356,378.111204 C117.661536,378.190027 110.881548,371.087416 110.791101,370.397496" id="Fill-497"></path>
                    <path d="M128.75857,368.710788 C128.607362,368.050662 134.440571,356.425819 135.265015,356.364649 C136.088559,356.290736 143.729965,366.368488 143.727264,367.043057 C143.735365,367.718475 137.79595,375.078411 137.151515,375.145529 C136.508881,375.221991 128.899877,369.372613 128.75857,368.710788" id="Fill-499"></path>
                    <path d="M147.721243,365.686502 C147.617748,365.090201 152.743418,355.420403 153.352789,355.376015 C153.960374,355.322415 159.640099,362.517395 159.696307,363.148871 C159.759653,363.77951 155.260305,372.09758 154.684838,372.179655 C154.110264,372.270943 147.815816,366.283641 147.721243,365.686502" id="Fill-501"></path>
                    <path d="M165.689313,365.114956 C165.518268,364.439422 171.318898,352.50554 172.17237,352.410982 C173.023211,352.302794 181.660563,362.58234 181.6553,363.285134 C181.660563,363.987929 175.100316,371.125769 174.454729,371.191363 C173.81002,371.268032 165.851587,365.793047 165.689313,365.114956" id="Fill-505"></path>
                    <path d="M187.647518,363.466468 C187.489887,362.852626 192.588135,351.440064 193.321346,351.421675 C194.053656,351.391027 199.620295,361.559266 199.621196,362.092547 C199.630203,362.626704 195.968652,369.114517 195.481346,369.213467 C194.995841,369.321174 187.796142,364.082937 187.647518,363.466468" id="Fill-507"></path>
                    <path d="M330.371666,343.537858 C330.284099,342.760565 323.31963,334.529451 322.669013,334.617333 C322.016759,334.693271 317.324131,344.07454 317.398604,344.825383 C317.464893,345.577932 324.2174,354.464327 324.906481,354.386683 C325.596381,354.321838 330.469054,344.314298 330.371666,343.537858" id="Fill-509"></path>
                    <path d="M311.408683,346.834342 C311.36265,346.104411 303.504571,336.521515 302.895054,336.5941 C302.284685,336.656899 298.390597,344.99932 298.434073,345.646063 C298.469025,346.294438 304.640915,356.359333 305.333974,356.364226 C306.027033,356.378907 311.463241,347.564273 311.408683,346.834342" id="Fill-511"></path>
                    <path d="M292.445047,348.765537 C292.440827,348.111293 286.676708,338.577314 285.95767,338.570771 C285.239476,338.55278 279.401933,348.035237 279.470293,348.771262 C279.528525,349.508105 286.53155,357.406472 287.141719,357.352497 C287.751045,357.308336 292.45855,349.419782 292.445047,348.765537" id="Fill-513"></path>
                    <path d="M274.477786,350.545994 C274.398769,349.852567 267.804826,341.436631 267.10931,341.537223 C266.411189,341.627921 262.381364,351.816588 262.504664,352.484454 C262.618413,353.153145 269.089056,360.411447 269.727264,360.317451 C270.368076,360.232525 274.566353,351.238596 274.477786,350.545994" id="Fill-515"></path>
                    <path d="M256.512656,352.799136 C256.458785,352.080705 248.875388,342.399601 248.156002,342.526085 C247.434957,342.640764 243.40374,353.650796 243.541318,354.356579 C243.66978,355.06489 250.402842,362.376523 251.038521,362.29473 C251.675029,362.223899 256.575643,353.516723 256.512656,352.799136" id="Fill-517"></path>
                    <path d="M386.266428,336.983089 C386.213382,336.264689 378.629511,326.583989 377.910079,326.709625 C377.188161,326.825143 373.15752,337.834714 373.295107,338.540467 C373.422748,339.248749 380.156231,346.560076 380.79195,346.478286 C381.428498,346.407458 386.330248,337.699804 386.266428,336.983089" id="Fill-519"></path>
                    <path d="M395.252384,335.597139 C395.123245,334.877075 400.28052,323.808646 400.873234,323.743408 C401.464293,323.668385 407.113288,330.913056 407.224215,331.552388 C407.344248,332.190088 403.893924,343.351481 403.240779,343.510499 C402.590118,343.680117 395.373245,336.318833 395.252384,335.597139" id="Fill-521"></path>
                    <path d="M427.188792,332.040451 C427.134921,331.32205 419.552353,321.641351 418.832138,321.766987 C418.111094,321.881661 414.079876,332.892076 414.217455,333.597828 C414.345917,334.306111 421.078978,341.617438 421.714657,341.535648 C422.351165,341.46482 427.25178,332.757165 427.188792,332.040451" id="Fill-523"></path>
                    <path d="M432.182308,330.6545 C432.053178,329.934437 437.210114,318.866008 437.802789,318.80077 C438.393809,318.725746 444.042433,325.970417 444.15418,326.609749 C444.273378,327.24745 440.824108,338.408843 440.171006,338.56786 C439.520388,338.737479 432.303161,331.375379 432.182308,330.6545" id="Fill-525"></path>
                    <path d="M462.122504,327.097415 C462.069458,326.379828 454.485578,316.69788 453.766146,316.824364 C453.044226,316.939043 449.01358,327.949076 449.151168,328.655701 C449.278809,329.363169 456.0123,336.674802 456.64802,336.593009 C457.284569,336.522178 462.185496,327.815002 462.122504,327.097415" id="Fill-527"></path>
                    <path d="M348.338413,342.914256 C348.284542,342.195855 340.701975,332.515156 339.981759,332.640792 C339.260715,332.756309 335.229497,343.765881 335.367076,344.471633 C335.495538,345.179916 342.228599,352.491243 342.864279,352.409453 C343.500787,352.338625 348.401401,343.63097 348.338413,342.914256" id="Fill-531"></path>
                    <path d="M238.546441,354.971326 C238.478626,354.272634 230.678152,345.360027 229.990437,345.491888 C229.300984,345.611762 225.439001,355.790748 225.575501,356.479165 C225.704176,357.169295 232.444822,364.35144 233.085588,364.271809 C233.727223,364.202454 238.62382,355.669162 238.546441,354.971326" id="Fill-533"></path>
                    <path d="M219.583254,358.102754 C219.566155,357.423706 211.027802,347.346453 210.211583,347.468597 C209.393564,347.578782 204.447654,359.120046 204.615938,359.779449 C204.776122,360.440561 212.365069,366.325649 213.007606,366.248776 C213.651942,366.181298 219.608451,358.780949 219.583254,358.102754" id="Fill-535"></path>
                    <path d="M100.811127,395.89733 C100.68116,395.177266 105.838439,384.108838 106.431154,384.0436 C107.023041,383.968576 112.672041,391.213247 112.782968,391.852579 C112.902173,392.490279 109.452674,403.651672 108.799529,403.81069 C108.148867,403.980308 100.93116,396.619024 100.811127,395.89733" id="Fill-539"></path>
                    <path d="M437.172869,356.356216 C437.042902,355.636152 442.201009,344.567716 442.792896,344.502478 C443.384783,344.42827 449.033784,351.67213 449.144711,352.311462 C449.263916,352.949163 445.814416,364.110563 445.161271,364.269581 C444.510609,364.439199 437.292902,357.077911 437.172869,356.356216" id="Fill-541"></path>
                    <path d="M119.778038,394.585984 C119.6202,393.940497 123.027582,383.228224 123.743921,383.05753 C124.457659,382.876064 132.632252,390.885411 132.74586,391.626189 C132.869875,392.365309 127.819943,401.750149 127.198133,401.835496 C126.57719,401.931614 119.926336,395.233958 119.778038,394.585984" id="Fill-543"></path>
                    <path d="M138.738192,391.434167 C138.646384,390.74462 142.943336,381.132871 143.637472,381.077806 C144.329893,381.011234 150.669784,390.000007 150.713543,390.674761 C150.76674,391.348693 146.306765,399.810648 145.670116,399.859139 C145.035183,399.917491 138.82142,392.124537 138.738192,391.434167" id="Fill-545"></path>
                    <path d="M172.674142,389.010483 C172.562238,388.304605 177.722243,377.170491 178.45169,377.1236 C179.179479,377.064148 185.62016,386.749664 185.647514,387.463915 C185.684816,388.177329 180.809129,396.822868 180.172521,396.893205 C179.536742,396.974427 172.776927,389.718035 172.674142,389.010483" id="Fill-547"></path>
                    <path d="M191.637669,385.225766 C191.539403,384.537572 197.017999,374.188388 197.718911,374.157877 C198.418085,374.118043 204.58194,383.03914 204.611507,383.733267 C204.65064,384.427393 199.791212,392.870483 199.149434,392.939133 C198.508525,393.017106 191.72811,385.914808 191.637669,385.225766" id="Fill-549"></path>
                    <path d="M210.603233,383.538704 C210.452934,382.878578 216.284907,371.253735 217.109303,371.192565 C217.932799,371.118651 225.574663,381.196404 225.571963,381.870972 C225.579163,382.546391 219.640991,389.906327 218.996594,389.973444 C218.353097,390.049907 210.745432,384.200529 210.603233,383.538704" id="Fill-551"></path>
                    <path d="M231.562126,380.514418 C231.459523,379.918117 236.584304,370.248318 237.193675,370.203931 C237.802154,370.150331 243.481882,377.34531 243.537198,377.976787 C243.601436,378.607426 239.101193,386.925496 238.525726,387.007571 C237.951151,387.098859 231.656699,381.111557 231.562126,380.514418" id="Fill-553"></path>
                    <path d="M155.706091,390.399695 C155.602596,389.804231 160.728267,380.133596 161.337637,380.089208 C161.945223,380.035608 167.624947,387.230588 167.681156,387.862064 C167.744502,388.493541 163.245154,396.810773 162.669687,396.892848 C162.095112,396.984136 155.800664,390.996834 155.706091,390.399695" id="Fill-555"></path>
                    <path d="M248.532116,380.930836 C248.361071,380.255331 254.161701,368.322831 255.014297,368.227425 C255.865138,368.119242 264.50249,378.398331 264.498104,379.101095 C264.50249,379.803858 257.943119,386.941381 257.296656,387.007824 C256.651946,387.083638 248.69439,381.608896 248.532116,380.930836" id="Fill-557"></path>
                    <path d="M270.490281,377.30528 C270.333562,376.691467 275.430544,365.279448 276.164603,365.26106 C276.896861,365.231288 282.4622,375.398169 282.464002,375.931425 C282.472108,376.465556 278.810819,382.953061 278.324449,383.052882 C277.838979,383.159708 270.639795,377.92172 270.490281,377.30528" id="Fill-559"></path>
                    <path d="M412.216339,359.353914 C412.128766,358.576654 405.163871,350.346738 404.513214,350.433764 C403.861739,350.509698 399.168823,359.890574 399.243301,360.641385 C399.308776,361.394756 406.062514,370.279926 406.751638,370.203138 C407.44158,370.137442 412.314551,360.130321 412.216339,359.353914" id="Fill-561"></path>
                    <path d="M393.253367,362.651207 C393.208186,361.921246 385.349263,352.337956 384.739747,352.410544 C384.129378,352.473345 380.235294,360.816109 380.27877,361.462879 C380.314574,362.110465 386.486459,372.175774 387.178664,372.180668 C387.871723,372.196164 393.308778,363.380353 393.253367,362.651207" id="Fill-563"></path>
                    <path d="M375.28785,364.581981 C375.28363,363.927736 369.519511,354.393757 368.800473,354.387215 C368.082279,354.369223 362.244736,363.85168 362.313096,364.587705 C362.371328,365.324548 369.374353,373.222916 369.983678,373.168941 C370.593848,373.124779 375.301353,365.236225 375.28785,364.581981" id="Fill-565"></path>
                    <path d="M356.322483,365.374305 C356.243467,364.68085 349.648655,356.263733 348.954007,356.365154 C348.255886,356.455856 344.226061,366.644953 344.349361,367.312023 C344.46311,367.981566 350.932885,375.240175 351.571092,375.145351 C352.211905,375.060421 356.41105,366.066112 356.322483,365.374305" id="Fill-567"></path>
                    <path d="M338.357353,369.604107 C338.304307,368.88652 330.720427,359.204572 330.000994,359.331056 C329.279075,359.445735 325.248429,370.455768 325.386016,371.16155 C325.513658,371.869862 332.247149,379.181495 332.882869,379.099701 C333.519417,379.02887 338.420344,370.321694 338.357353,369.604107" id="Fill-569"></path>
                    <path d="M469.109247,353.787664 C469.055376,353.069233 461.471979,343.388129 460.752592,343.514613 C460.031548,343.629292 456.000331,354.639324 456.137909,355.345106 C456.266371,356.053418 462.999433,363.365051 463.635112,363.283258 C464.27162,363.212427 469.172234,354.504408 469.109247,353.787664" id="Fill-571"></path>
                    <path d="M431.181201,356.753247 C431.128155,356.034816 423.544284,346.353712 422.824852,346.480196 C422.102934,346.594875 418.072293,357.604907 418.20988,358.310689 C418.337521,359.019001 425.071004,366.330634 425.707552,366.248841 C426.343271,366.17801 431.245021,357.470834 431.181201,356.753247" id="Fill-573"></path>
                    <path d="M319.393012,370.788609 C319.325192,370.089917 311.525077,361.177308 310.837317,361.308313 C310.147819,361.429043 306.285584,371.607175 306.422092,372.296449 C306.549906,372.986579 313.290993,380.168725 313.93267,380.088239 C314.573478,380.018883 319.471265,371.486446 319.393012,370.788609" id="Fill-575"></path>
                    <path d="M301.427951,373.919198 C301.411751,373.241003 292.872885,363.162897 292.056617,363.28504 C291.237649,363.395225 286.292342,374.93649 286.460636,375.595893 C286.619929,376.257004 294.209333,382.142093 294.852808,382.065219 C295.497182,381.997741 301.45315,374.597392 301.427951,373.919198" id="Fill-577"></path>
                    <path d="M96.818672,422.587573 C96.6895416,421.868325 101.846478,410.799074 102.439153,410.733836 C103.030172,410.659628 108.678797,417.903488 108.790544,418.543635 C108.909741,419.180521 105.460471,430.341921 104.80737,430.500938 C104.156752,430.670557 96.9395247,423.309268 96.818672,422.587573" id="Fill-581"></path>
                    <path d="M433.180445,385.023525 C433.050478,384.303462 438.207757,373.235033 438.800472,373.169795 C439.392359,373.094771 445.040531,380.339442 445.152286,380.978774 C445.271492,381.616475 441.821992,392.777868 441.168847,392.936885 C440.518185,393.106504 433.300478,385.744404 433.180445,385.023525" id="Fill-583"></path>
                    <path d="M114.787508,421.276244 C114.62967,420.630756 118.037051,409.918472 118.753391,409.747778 C119.467128,409.566313 127.642588,417.575667 127.755329,418.316445 C127.879344,419.055566 122.83028,428.439586 122.20847,428.525762 C121.587527,428.621052 114.936673,421.924217 114.787508,421.276244" id="Fill-585"></path>
                    <path d="M133.747662,418.124781 C133.655854,417.435263 137.952806,407.82393 138.646084,407.768045 C139.338504,407.702299 145.679254,416.690683 145.723013,417.365407 C145.77621,418.03931 141.316235,426.500077 140.679586,426.549387 C140.044653,426.607737 133.830031,418.81512 133.747662,418.124781" id="Fill-587"></path>
                    <path d="M168.681718,415.700731 C168.569814,414.994854 173.729819,403.860739 174.459266,403.813848 C175.187054,403.754397 181.627736,413.439913 181.65509,414.153327 C181.692391,414.867578 176.816704,423.513117 176.180096,423.583453 C175.544317,423.664675 168.784503,416.408284 168.681718,415.700731" id="Fill-589"></path>
                    <path d="M187.645268,412.904189 C187.546132,412.215964 193.025588,401.866324 193.72563,401.836659 C194.425671,401.795976 200.589516,410.717466 200.619083,411.411623 C200.658216,412.10578 195.797927,420.549243 195.157019,420.617896 C194.515242,420.696719 187.735708,413.594108 187.645268,412.904189" id="Fill-591"></path>
                    <path d="M205.612736,412.206005 C205.461537,411.545878 211.294397,399.92103 212.118791,399.85986 C212.942286,399.786796 220.583233,409.863703 220.581433,410.538272 C220.588633,411.213691 214.649574,418.574481 214.005178,418.640748 C213.362583,418.717211 205.754035,412.86783 205.612736,412.206005" id="Fill-593"></path>
                    <path d="M225.573516,409.181722 C225.470021,408.586258 230.595691,398.91646 231.205061,398.871235 C231.812647,398.817635 237.492372,406.012614 237.54858,406.644091 C237.611926,407.275567 233.112578,415.5928 232.537111,415.674875 C231.962536,415.766163 225.668088,409.778861 225.573516,409.181722" id="Fill-595"></path>
                    <path d="M150.715535,418.078472 C150.612932,417.48217 155.738605,407.812372 156.347084,407.767984 C156.955563,407.714384 162.635291,414.909364 162.690607,415.54084 C162.754845,416.17148 158.254602,424.489549 157.680027,424.571625 C157.10456,424.662912 150.810108,418.675611 150.715535,418.078472" id="Fill-597"></path>
                    <path d="M243.541586,408.610176 C243.370541,407.934642 249.171171,396.00076 250.024643,395.906202 C250.875484,395.798014 259.512836,406.076708 259.507573,406.780354 C259.512836,407.483149 252.952589,414.620989 252.307002,414.686583 C251.662293,414.763252 243.70386,409.287415 243.541586,408.610176" id="Fill-599"></path>
                    <path d="M263.503579,404.984632 C263.345947,404.369915 268.444196,392.958229 269.178307,392.93984 C269.910618,392.909191 275.476355,403.077431 275.477256,403.610712 C275.486264,404.144868 271.824713,410.632681 271.337407,410.731632 C270.851902,410.839339 263.652203,405.601102 263.503579,404.984632" id="Fill-601"></path>
                    <path d="M407.225833,387.033078 C407.138265,386.255785 400.173797,378.024671 399.52318,378.112553 C398.870926,378.188491 394.178298,387.568907 394.252771,388.320603 C394.31906,389.073152 401.071567,397.959547 401.760648,397.881903 C402.450548,397.817058 407.323221,387.808664 407.225833,387.033078" id="Fill-603"></path>
                    <path d="M387.264744,390.329984 C387.219563,389.600022 379.360632,380.016732 378.751115,380.08932 C378.140746,380.152122 374.246658,388.494885 374.290134,389.141656 C374.325085,389.790057 380.497828,399.855366 381.190035,399.859444 C381.883094,399.874941 387.319302,391.059129 387.264744,390.329984" id="Fill-605"></path>
                    <path d="M370.297319,392.260312 C370.2931,391.606096 364.52898,382.072531 363.809942,382.065989 C363.091748,382.048816 357.254206,391.530861 357.322565,392.266854 C357.380797,393.002848 364.384666,400.90169 364.993992,400.847717 C365.604162,400.80274 370.310823,392.914528 370.297319,392.260312" id="Fill-607"></path>
                    <path d="M352.330032,393.052686 C352.251016,392.35926 345.657087,383.943323 344.961572,384.043916 C344.264321,384.134613 340.233637,394.32328 340.356937,394.991146 C340.470685,395.659837 346.941314,402.918139 347.57952,402.824143 C348.220331,402.738392 352.419467,393.745288 352.330032,393.052686" id="Fill-609"></path>
                    <path d="M334.364928,396.294356 C334.311057,395.575925 326.727661,385.894821 326.008274,386.021305 C325.28723,386.135984 321.256013,397.146016 321.393591,397.851798 C321.522053,398.56011 328.255114,405.871743 328.890794,405.78995 C329.527302,405.719119 334.427916,397.0111 334.364928,396.294356" id="Fill-611"></path>
                    <path d="M463.12061,380.477912 C463.066739,379.760325 455.483343,370.078377 454.763957,370.204861 C454.042084,370.31954 450.011695,381.329573 450.149274,382.036198 C450.276907,382.743667 457.009968,390.055299 457.646476,389.973506 C458.282155,389.902675 463.183598,381.195499 463.12061,380.477912" id="Fill-613"></path>
                    <path d="M427.188792,385.42012 C427.134921,384.702563 419.552353,375.021021 418.832138,375.1475 C418.111094,375.262174 414.079876,386.271745 414.217455,386.97834 C414.345917,387.685779 421.078978,394.997105 421.714657,394.916159 C422.351165,394.844488 427.25178,386.137677 427.188792,385.42012" id="Fill-615"></path>
                    <path d="M314.402502,398.466546 C314.334682,397.767854 306.533712,388.855247 305.846823,388.987108 C305.156457,389.106982 301.294229,399.285968 301.431606,399.974385 C301.55942,400.664515 308.300495,407.84666 308.941301,407.767029 C309.582977,407.697674 314.479885,399.164382 314.402502,398.466546" id="Fill-617"></path>
                    <path d="M296.43742,401.597974 C296.421222,400.91978 287.881969,390.841673 287.065749,390.963816 C286.247731,391.074002 281.301821,402.615266 281.470104,403.274669 C281.630288,403.936635 289.219236,409.820869 289.861772,409.743995 C290.506108,409.676518 296.462618,402.276169 296.43742,401.597974" id="Fill-619"></path>
                    <path d="M426.193672,412.702296 C426.064542,411.983048 431.221478,400.913797 431.814153,400.848559 C432.405173,400.77435 438.053797,408.018211 438.165545,408.657543 C438.284742,409.295244 434.834644,420.456644 434.181543,420.615661 C433.530924,420.78528 426.314525,413.423991 426.193672,412.702296" id="Fill-625"></path>
                    <path d="M259.511155,433.651936 C259.353523,433.037219 264.451771,421.625533 265.184982,421.607144 C265.917293,421.576495 271.48303,431.744735 271.484832,432.278016 C271.493839,432.811297 267.832288,439.299985 267.344982,439.398936 C266.859478,439.506643 259.659778,434.268406 259.511155,433.651936" id="Fill-643"></path>
                    <path d="M402.235278,414.712315 C402.147706,413.935055 395.182811,405.70429 394.532972,405.791316 C393.880678,405.868104 389.187763,415.248121 389.262241,415.999785 C389.327715,416.752302 396.081454,425.63832 396.770577,425.56068 C397.460519,425.495837 402.333491,415.487869 402.235278,414.712315" id="Fill-645"></path>
                    <path d="M383.272319,418.00876 C383.226286,417.278799 375.368208,407.695508 374.758691,407.768097 C374.147469,407.830898 370.254234,416.173662 370.29771,416.820432 C370.332661,417.468018 376.504552,427.533327 377.196758,427.538221 C377.89067,427.553717 383.326878,418.737905 383.272319,418.00876" id="Fill-647"></path>
                    <path d="M364.308683,419.939529 C364.304463,419.285285 358.540344,409.75131 357.821306,409.744767 C357.103112,409.726776 351.26557,419.209229 351.333929,419.945253 C351.392161,420.682096 358.395186,428.581278 359.005356,428.526485 C359.614681,428.482323 364.322186,420.593773 364.308683,419.939529" id="Fill-649"></path>
                    <path d="M345.343316,421.720378 C345.2643,421.026922 338.670357,412.610623 337.974841,412.71122 C337.27672,412.801921 333.246895,422.991027 333.370195,423.658097 C333.483943,424.327641 339.954587,431.586256 340.592794,431.491431 C341.232738,431.406501 345.431884,422.412185 345.343316,421.720378" id="Fill-651"></path>
                    <path d="M328.376292,423.973132 C328.322421,423.255545 320.739025,413.573597 320.019638,413.700081 C319.298594,413.81476 315.267376,424.824793 315.404955,425.531418 C315.533417,426.238886 322.265649,433.550519 322.902157,433.468726 C323.537837,433.397895 328.43928,424.690719 328.376292,423.973132" id="Fill-653"></path>
                    <path d="M458.13008,409.145216 C458.076209,408.426786 450.493641,398.745681 449.774255,398.872165 C449.052382,398.986844 445.021164,409.996877 445.158743,410.702659 C445.287205,411.410971 452.020266,418.722604 452.655945,418.64081 C453.292453,418.569979 458.193068,409.862803 458.13008,409.145216" id="Fill-655"></path>
                    <path d="M421.200156,414.087855 C421.146285,413.370267 413.562888,403.68832 412.843502,403.814804 C412.122457,403.929483 408.09124,414.939515 408.228818,415.645297 C408.35728,416.353609 415.090342,423.665242 415.726021,423.583449 C416.362529,423.512618 421.263143,414.805442 421.200156,414.087855" id="Fill-657"></path>
                    <path d="M309.411972,425.157209 C309.344157,424.458548 301.543682,415.546339 300.855968,415.677338 C300.166514,415.798063 296.304532,425.976595 296.441031,426.664981 C296.569706,427.35508 303.310352,434.536905 303.951118,434.457278 C304.591884,434.387069 309.48935,425.855014 309.411972,425.157209" id="Fill-659"></path>
                    <path d="M290.448784,429.276751 C290.432585,428.598556 281.893718,418.520449 281.07745,418.642593 C280.259382,418.752778 275.313175,430.294042 275.481468,430.953445 C275.640762,431.614557 283.231066,437.499645 283.873641,437.422772 C284.518015,437.355294 290.473983,429.954945 290.448784,429.276751" id="Fill-661"></path>
                </g>
            </g>
        </g>
    </g>
</svg>