<?xml version="1.0" encoding="UTF-8"?>
<svg width="153px" height="132px" viewBox="0 0 153 132" version="1.1" xmlns="http://www.w3.org/2000/svg" xmlns:xlink="http://www.w3.org/1999/xlink">
    <!-- Generator: Sketch 47.1 (45422) - http://www.bohemiancoding.com/sketch -->
    <title>Artboard</title>
    <desc>Created with Sketch.</desc>
    <defs>
        <polygon id="path-1" points="0.06 0.39 0.06 132.00028 152.841462 132.00028 152.841462 0.39"></polygon>
    </defs>
    <g id="Page-1" stroke="none" stroke-width="1" fill="none" fill-rule="evenodd">
        <g id="Artboard">
            <g id="attention-construction-triangular-hand-drawn-signal">
                <g id="Group-3">
                    <mask id="mask-2" fill="white">
                        <use xlink:href="#path-1"></use>
                    </mask>
                    <g id="Clip-2"></g>
                    <path d="M152.715,106.683 C151.094,88.57 134.699,71.789 123.727,58.437 C110.438,42.257 102.332,22.039 86.957,7.593 C56.625,-20.903 31.391,43.035 22.508,62.41 C15.551,77.585 3.688,93.679 0.43,109.949 C-3.742,130.781 23.465,129.824 36.75,130.152 C63.09,134.074 89.277,130.917 116.191,128.386 C131.867,126.91 154.746,129.363 152.715,106.683 Z M132.938,119.882 C122.066,121.011 111.148,121.07 100.25,122.48 C73.312,125.956 46.398,125.769 19.637,120.718 C18.277,120.464 17.238,121.07 16.656,121.96 C1.699,118.175 11.957,99.652 17.195,90.8 C22.906,81.144 27.027,70.515 31.73,60.355 C37.832,47.175 44.387,34.132 52.719,22.203 C56.746,16.441 62.023,10.285 68.945,8.124 C78.191,5.242 87.84,19.46 92.203,25.488 C99.641,35.773 105.02,47.371 112.836,57.386 C122.332,69.546 132.531,80.988 140.133,94.507 C145.363,103.804 150.312,118.074 132.938,119.882 Z" id="Fill-1" fill="#FFFFFF" mask="url(#mask-2)"></path>
                </g>
                <path d="M82.766,96.089 C80.168,92.953 76.113,90.894 72.227,89.925 C69.254,89.183 63.574,88.773 62.527,92.515 C62.508,92.593 62.516,92.671 62.504,92.749 C59.129,96.503 58.223,102.742 59.586,107.386 C61.82,114.988 70.102,118.882 77.262,115.312 C85.469,111.222 89.094,103.738 82.766,96.089 Z" id="Fill-4" fill="#FFFFFF"></path>
                <path d="M89.801,36.117 C87.98,25.652 77,14.144 66.438,24.042 C53.504,36.171 56.09,95.074 78.668,83.386 C80.047,84.816 83.105,84.792 83.996,82.277 C88.91,68.414 92.34,50.746 89.801,36.117 Z" id="Fill-5" fill="#FFFFFF"></path>
            </g>
        </g>
    </g>
</svg>