<?xml version="1.0" encoding="utf-8"?>
<!-- Generator: Adobe Illustrator 17.0.0, SVG Export Plug-In . SVG Version: 6.00 Build 0)  -->
<!DOCTYPE svg PUBLIC "-//W3C//DTD SVG 1.1//EN" "http://www.w3.org/Graphics/SVG/1.1/DTD/svg11.dtd">
<svg version="1.1" id="Layer_1" xmlns="http://www.w3.org/2000/svg" xmlns:xlink="http://www.w3.org/1999/xlink" x="0px" y="0px"
	 width="320px" height="60px" viewBox="0 0 320 60" enable-background="new 0 0 320 60" xml:space="preserve">
<g>
	<path fill="#FFFFFF" d="M28.883,15.573c3.444,0,6.237-2.792,6.237-6.237c0-0.019-0.003-0.037-0.003-0.056s0.003-0.037,0.003-0.056
		c0-3.444-2.792-6.237-6.237-6.237s-6.236,2.792-6.236,6.237c0,0.019,0.003,0.037,0.003,0.056s-0.003,0.037-0.003,0.056
		C22.647,12.782,25.438,15.573,28.883,15.573z"/>
	<polygon fill="#FFFFFF" points="284.782,4.998 284.782,46.376 295.479,46.376 295.479,24.693 308,46.36 319.462,46.391 
		295.479,4.998 	"/>
	<path fill="#FFFFFF" d="M281.981,20.981V19.12c0-7.844-7.176-14.202-16.029-14.202c-8.853,0-16.029,6.358-16.029,14.202v13.024
		c0,7.845,7.176,14.202,16.029,14.202c8.852,0,16.029-6.357,16.029-14.202v-1.01v-5.717v-0.715h-15.938v8.342h5.26
		c-0.775,2.005-2.827,3.44-5.411,3.44c-2.889,0-5.233-2.343-5.233-5.233V19.849c0-2.889,2.345-5.231,5.233-5.231
		c2.889,0,5.412,2.343,5.412,5.231v1.13L281.981,20.981L281.981,20.981z"/>
	<polygon fill="#FFFFFF" points="236.653,46.378 247.121,46.378 247.121,4.918 236.424,4.918 236.424,26.295 223.519,4.918 
		212.93,4.918 212.93,46.378 223.591,46.378 223.591,24.702 	"/>
	<rect x="199.418" y="17.446" fill="#FFFFFF" width="10.697" height="28.933"/>
	<polygon fill="#FFFFFF" points="117.218,46.397 117.218,4.903 106.521,4.903 82.476,46.397 93.93,46.397 106.521,24.598 
		106.521,46.397 	"/>
	<path fill="#FFFFFF" d="M176.711,32.491h7.299c8.537,0,13.174-4.902,13.174-14.009c0-8.66-4.639-13.562-12.927-13.562h-18.311
		v17.491l10.763,19.641v-9.561H176.711z M176.711,14.152h5.134c2.227,0,4.021,1.974,4.021,4.585c0,2.483-1.98,4.139-4.886,4.139
		h-4.269V14.152z"/>
	<polygon fill="#FFFFFF" points="142.634,5 142.634,26.098 130.719,5 120.021,5 120.021,46.378 130.719,46.378 130.719,24.696 
		142.634,46.362 142.634,46.378 153.331,46.378 153.331,24.696 165.232,46.335 165.232,46.378 170.62,46.378 175.983,46.394 
		153.311,5 	"/>
	<polygon fill="#FFFFFF" points="68.365,26.295 55.46,4.919 44.871,4.919 44.871,46.378 55.532,46.378 55.532,24.702 66.586,43.077 
		79.046,21.546 79.062,4.919 68.365,4.919 	"/>
	<polygon fill="#FFFFFF" points="61.744,57.039 73.155,57.039 103.266,4.918 91.855,4.918 	"/>
	<polygon fill="#FFFFFF" points="0.04,4.93 0.04,46.39 10.701,46.39 10.701,24.713 23.762,46.39 34.232,46.39 34.232,17.35 
		23.534,17.35 23.534,26.307 10.629,4.93 	"/>
	<circle fill="#FFFFFF" cx="204.766" cy="9.226" r="6.237"/>
</g>
</svg>
