<svg id="Layer_1" data-name="Layer 1" xmlns="http://www.w3.org/2000/svg" viewBox="0 0 97.56 28.46"><defs><style>.cls-1{fill:#fff;}.cls-2{fill:#00e59e;}</style></defs><title>Tujibebe_Logo_Web</title><path class="cls-1" d="M13.51,11.61c.18,0,.46-.1.84-.16a8.84,8.84,0,0,1,1.17-.08,6.38,6.38,0,0,1,1,.08,1.84,1.84,0,0,1,.78.32,1.48,1.48,0,0,1,.49.65A2.69,2.69,0,0,1,18,13.49V19a2,2,0,0,0,.53,1.54,2.24,2.24,0,0,0,1.53.47,3.76,3.76,0,0,0,1-.11,3.34,3.34,0,0,0,.6-.21V11.61a7.69,7.69,0,0,1,.83-.16,9,9,0,0,1,1.18-.08,6.56,6.56,0,0,1,1,.08,1.84,1.84,0,0,1,.78.32,1.56,1.56,0,0,1,.49.65,2.89,2.89,0,0,1,.17,1.07v7.86a2.16,2.16,0,0,1-1.11,2,7.4,7.4,0,0,1-2.21.89,12.15,12.15,0,0,1-2.78.3,10.36,10.36,0,0,1-2.63-.32,5.84,5.84,0,0,1-2.07-1A4.28,4.28,0,0,1,14,21.52,6,6,0,0,1,13.51,19Z" transform="translate(-0.66 -0.4)"/><path class="cls-1" d="M27.49,26a2.22,2.22,0,0,0,.84-1,4.15,4.15,0,0,0,.26-1.52V11.61l.86-.14a7.34,7.34,0,0,1,1.15-.1,6.6,6.6,0,0,1,1,.08,1.85,1.85,0,0,1,.77.32,1.41,1.41,0,0,1,.49.65,2.69,2.69,0,0,1,.17,1.07V23.94a7,7,0,0,1-.26,2,4.91,4.91,0,0,1-.75,1.54,3.3,3.3,0,0,1-2.76,1.36,2.39,2.39,0,0,1-1.82-.69,2.55,2.55,0,0,1-.69-1.76Z" transform="translate(-0.66 -0.4)"/><path class="cls-2" d="M28.38,7.53a2.3,2.3,0,0,1,.67-1.69,2.65,2.65,0,0,1,3.57,0,2.34,2.34,0,0,1,.67,1.69,2.36,2.36,0,0,1-.67,1.69,2.68,2.68,0,0,1-3.57,0A2.32,2.32,0,0,1,28.38,7.53Z" transform="translate(-0.66 -0.4)"/><path class="cls-2" d="M35.27,5A2.31,2.31,0,0,1,36,3.3a2.64,2.64,0,0,1,3.56,0A2.31,2.31,0,0,1,40.19,5a2.32,2.32,0,0,1-.68,1.69,2.67,2.67,0,0,1-3.56,0A2.32,2.32,0,0,1,35.27,5Z" transform="translate(-0.66 -0.4)"/><path class="cls-2" d="M42.17,2.77a2.32,2.32,0,0,1,.67-1.69,2.68,2.68,0,0,1,3.57,0,2.32,2.32,0,0,1,.67,1.69,2.32,2.32,0,0,1-.67,1.69,2.65,2.65,0,0,1-3.57,0A2.32,2.32,0,0,1,42.17,2.77Z" transform="translate(-0.66 -0.4)"/><path class="cls-1" d="M40,24.07l-.85.15a7.43,7.43,0,0,1-1.15.09,6.6,6.6,0,0,1-1-.08,1.82,1.82,0,0,1-.78-.32,1.46,1.46,0,0,1-.48-.65,2.68,2.68,0,0,1-.18-1.07V9.1L36.37,9a6.3,6.3,0,0,1,1.15-.1,6.38,6.38,0,0,1,1,.08,1.84,1.84,0,0,1,.78.32,1.41,1.41,0,0,1,.49.65A2.69,2.69,0,0,1,40,11Z" transform="translate(-0.66 -0.4)"/><path class="cls-1" d="M42.38,6.9a8.46,8.46,0,0,1,2-.26,5.56,5.56,0,0,1,1,.08,1.83,1.83,0,0,1,.78.31,1.42,1.42,0,0,1,.47.65,2.91,2.91,0,0,1,.16,1.07v2.59A6.11,6.11,0,0,1,48.13,11a7.42,7.42,0,0,1,1.3-.11,6.49,6.49,0,0,1,2.41.45,6,6,0,0,1,3.38,3.44,8,8,0,0,1,.5,2.93,8.13,8.13,0,0,1-.51,3,5.86,5.86,0,0,1-1.44,2.12,6,6,0,0,1-2.26,1.28,10.49,10.49,0,0,1-5.91,0,7.62,7.62,0,0,1-2.06-1A2.49,2.49,0,0,1,42.38,21ZM48.56,21a2.31,2.31,0,0,0,1.89-.83,3.87,3.87,0,0,0,.67-2.47,3.77,3.77,0,0,0-.68-2.48,2.29,2.29,0,0,0-1.85-.82,3.47,3.47,0,0,0-.91.1,4.84,4.84,0,0,0-.83.32v5.76a2.68,2.68,0,0,0,.7.3A3.63,3.63,0,0,0,48.56,21Z" transform="translate(-0.66 -0.4)"/><path class="cls-1" d="M64.17,24.52a9.26,9.26,0,0,1-2.89-.44A6.52,6.52,0,0,1,59,22.78a6.19,6.19,0,0,1-1.56-2.2,7.75,7.75,0,0,1-.57-3.09,7.15,7.15,0,0,1,.57-3,5.92,5.92,0,0,1,1.49-2.07A6,6,0,0,1,61,11.25a7.72,7.72,0,0,1,2.43-.39,7.11,7.11,0,0,1,2.55.43,6.05,6.05,0,0,1,2,1.16,5.09,5.09,0,0,1,1.3,1.77,5.5,5.5,0,0,1,.46,2.24,1.84,1.84,0,0,1-.5,1.38,2.51,2.51,0,0,1-1.4.6l-6.53,1a2.22,2.22,0,0,0,1.19,1.31,4.69,4.69,0,0,0,2.06.43,7.58,7.58,0,0,0,2-.27,6.51,6.51,0,0,0,1.57-.65,2.19,2.19,0,0,1,.71.74,1.84,1.84,0,0,1,.29,1,1.87,1.87,0,0,1-1.11,1.77,5.89,5.89,0,0,1-1.9.61A12.75,12.75,0,0,1,64.17,24.52Zm-.74-10.38a2.58,2.58,0,0,0-1.09.21,2.27,2.27,0,0,0-.76.54,2.21,2.21,0,0,0-.43.74,2.67,2.67,0,0,0-.17.83l4.51-.74a2,2,0,0,0-2.06-1.58Z" transform="translate(-0.66 -0.4)"/><path class="cls-1" d="M70.88,6.9a7.73,7.73,0,0,1,.85-.17,7.62,7.62,0,0,1,1.18-.09,5.6,5.6,0,0,1,1,.08,1.83,1.83,0,0,1,.78.31,1.42,1.42,0,0,1,.47.65,2.91,2.91,0,0,1,.16,1.07v2.59A6.11,6.11,0,0,1,76.63,11a7.42,7.42,0,0,1,1.3-.11,6.49,6.49,0,0,1,2.41.45,6,6,0,0,1,2,1.31,6.13,6.13,0,0,1,1.38,2.13,8,8,0,0,1,.5,2.93,7.92,7.92,0,0,1-.52,3,5.62,5.62,0,0,1-1.44,2.12A5.92,5.92,0,0,1,80,24.08a10.49,10.49,0,0,1-5.91,0,7.62,7.62,0,0,1-2.06-1A2.49,2.49,0,0,1,70.88,21ZM77.06,21A2.31,2.31,0,0,0,79,20.15a3.87,3.87,0,0,0,.67-2.47,3.82,3.82,0,0,0-.68-2.48,2.29,2.29,0,0,0-1.85-.82,3.47,3.47,0,0,0-.91.1,5.26,5.26,0,0,0-.84.32v5.76a3,3,0,0,0,.7.3A3.76,3.76,0,0,0,77.06,21Z" transform="translate(-0.66 -0.4)"/><path class="cls-1" d="M92.67,24.52a9.26,9.26,0,0,1-2.89-.44,6.65,6.65,0,0,1-2.33-1.3,6,6,0,0,1-1.55-2.2,7.75,7.75,0,0,1-.57-3.09,7.15,7.15,0,0,1,.57-3,5.8,5.8,0,0,1,1.49-2.07,5.93,5.93,0,0,1,2.11-1.18,7.72,7.72,0,0,1,2.43-.39,7.18,7.18,0,0,1,2.55.43,6.05,6.05,0,0,1,2,1.16,5.09,5.09,0,0,1,1.3,1.77,5.5,5.5,0,0,1,.46,2.24,1.84,1.84,0,0,1-.5,1.38,2.54,2.54,0,0,1-1.4.6l-6.53,1A2.22,2.22,0,0,0,91,20.73a4.69,4.69,0,0,0,2.06.43,7.58,7.58,0,0,0,2-.27,6.69,6.69,0,0,0,1.57-.65,2.19,2.19,0,0,1,.71.74,1.84,1.84,0,0,1,.29,1,1.87,1.87,0,0,1-1.11,1.77,5.89,5.89,0,0,1-1.9.61A12.75,12.75,0,0,1,92.67,24.52Zm-.74-10.38a2.58,2.58,0,0,0-1.09.21,2.27,2.27,0,0,0-.76.54,2.21,2.21,0,0,0-.43.74,2.67,2.67,0,0,0-.17.83L94,15.72a2,2,0,0,0-2.06-1.58Z" transform="translate(-0.66 -0.4)"/><path class="cls-1" d="M15.06,6.87c-.06-.35-.1-.61-.14-.79H2.64a2.55,2.55,0,0,0-1,.16A1.34,1.34,0,0,0,1,6.69a1.58,1.58,0,0,0-.3.71,5.69,5.69,0,0,0-.07,1A7.45,7.45,0,0,0,.74,9.42c.06.35.11.61.14.79H5.53v12a3.1,3.1,0,0,0,.16,1.11,1.4,1.4,0,0,0,.47.66,1.84,1.84,0,0,0,.78.33A5.65,5.65,0,0,0,8,24.4a10.29,10.29,0,0,0,1.23-.08c.41-.06.72-.11.91-.16V10.21h3a2.81,2.81,0,0,0,1-.16,1.53,1.53,0,0,0,.6-.45,1.62,1.62,0,0,0,.3-.72,5.47,5.47,0,0,0,.08-1A6.2,6.2,0,0,0,15.06,6.87Z" transform="translate(-0.66 -0.4)"/></svg>