<?xml version="1.0" encoding="UTF-8"?>
<svg width="22px" height="9px" viewBox="0 0 22 9" version="1.1" xmlns="http://www.w3.org/2000/svg" xmlns:xlink="http://www.w3.org/1999/xlink">
    <!-- Generator: Sketch 59.1 (86144) - https://sketch.com -->
    <title>Group 2</title>
    <desc>Created with Sketch.</desc>
    <g id="Page-1" stroke="none" stroke-width="1" fill="none" fill-rule="evenodd">
        <g id="Group-2">
            <g id="Group" transform="translate(16.000000, 0.000000)" fill="#8207FF" fill-rule="nonzero">
                <g id="chevron-down3x-copy">
                    <g id="chevron-down-copy" transform="translate(3.059728, 4.397076) scale(-1, 1) rotate(90.000000) translate(-3.059728, -4.397076) translate(-0.940272, 1.897076)">
                        <path d="M0.218351435,0.246210368 C0.519062501,-0.0539143676 0.937712998,-0.0774667571 1.30532538,0.246210368 L4.0006897,2.7676619 L6.69605403,0.246210368 C7.06366641,-0.0774667571 7.48300661,-0.0539143676 7.78164857,0.246210368 C8.08235963,0.545662177 8.06304791,1.05170209 7.78164857,1.33298491 C7.50162863,1.61426774 4.54348697,4.36249513 4.54348697,4.36249513 C4.4011576,4.5064182 4.20498133,4.58771224 4,4.58771224 C3.79501867,4.58771224 3.5988424,4.5064182 3.45651303,4.36249513 C3.45651303,4.36249513 0.499750781,1.61426774 0.218351435,1.33298491 C-0.0630479115,1.05170209 -0.0823596313,0.545662177 0.218351435,0.246210368 Z" id="Path"></path>
                    </g>
                </g>
            </g>
            <g id="Group-Copy">
                <g id="chevron-down3x-copy">
                    <g id="chevron-down-copy" transform="translate(3.059728, 4.397076) scale(-1, 1) rotate(90.000000) translate(-3.059728, -4.397076) translate(-0.940272, 1.897076)"></g>
                </g>
            </g>
            <path d="M-0.921963764,2.34332957 C-0.621252698,2.04320483 -0.202602201,2.01965244 0.165010181,2.34332957 L2.8603745,4.8647811 L5.55573883,2.34332957 C5.92335121,2.01965244 6.34269141,2.04320483 6.64133337,2.34332957 C6.94204443,2.64278138 6.92273271,3.14882129 6.64133337,3.43010411 C6.36131343,3.71138694 3.40317177,6.45961433 3.40317177,6.45961433 C3.2608424,6.6035374 3.06466613,6.68483144 2.8596848,6.68483144 C2.65470347,6.68483144 2.4585272,6.6035374 2.31619783,6.45961433 C2.31619783,6.45961433 -0.640564418,3.71138694 -0.921963764,3.43010411 C-1.20336311,3.14882129 -1.22267483,2.64278138 -0.921963764,2.34332957 Z" id="Path" fill="#FF4289" fill-rule="nonzero" transform="translate(2.859685, 4.397076) scale(-1, 1) rotate(90.000000) translate(-2.859685, -4.397076) "></path>
        </g>
    </g>
</svg>