<?xml version="1.0" encoding="UTF-8"?>
<svg width="6px" height="9px" viewBox="0 0 6 9" version="1.1" xmlns="http://www.w3.org/2000/svg" xmlns:xlink="http://www.w3.org/1999/xlink">
    <!-- Generator: Sketch 59.1 (86144) - https://sketch.com -->
    <title>chevron-down copy@3x</title>
    <desc>Created with Sketch.</desc>
    <g id="Page-1" stroke="none" stroke-width="1" fill="none" fill-rule="evenodd">
        <g id="MOBILE-LANDING-PAGE" transform="translate(-173.000000, -295.000000)" fill="#FF4289" fill-rule="nonzero">
            <g id="service-name--copy" transform="translate(1.000000, 231.000000)">
                <g id="Readmore" transform="translate(127.000000, 61.000000)">
                    <g id="chevron-down-copy" transform="translate(48.000000, 7.397076) scale(-1, 1) rotate(90.000000) translate(-48.000000, -7.397076) translate(44.000000, 4.956804)">
                        <path d="M0.218351435,0.246210368 C0.519062501,-0.0539143676 0.937712998,-0.0774667571 1.30532538,0.246210368 L4.0006897,2.7676619 L6.69605403,0.246210368 C7.06366641,-0.0774667571 7.48300661,-0.0539143676 7.78164857,0.246210368 C8.08235963,0.545662177 8.06304791,1.05170209 7.78164857,1.33298491 C7.50162863,1.61426774 4.54348697,4.36249513 4.54348697,4.36249513 C4.4011576,4.5064182 4.20498133,4.58771224 4,4.58771224 C3.79501867,4.58771224 3.5988424,4.5064182 3.45651303,4.36249513 C3.45651303,4.36249513 0.499750781,1.61426774 0.218351435,1.33298491 C-0.0630479115,1.05170209 -0.0823596313,0.545662177 0.218351435,0.246210368 Z" id="Path"></path>
                    </g>
                </g>
            </g>
        </g>
    </g>
</svg>