<svg height="128" viewBox="0 0 89 128" width="89" xmlns="http://www.w3.org/2000/svg"><g fill="none" fill-rule="evenodd" transform="translate(3 4)"><path d="m22.0512673 0c-8.0316595 30.8094892-21.01536904 104.376057-22.0512673 107.939856 3.83139421-.330695 7.61840352.792317 11.3351994 1.778645 11.6218206 3.084404 23.5322683 4.928387 35.4161352 6.766863 5.4182168.838128 10.8364336 1.676507 16.2546505 2.514636 2.9191216-17.617474 11.39463-63.9548741 12.216879-67.9357349 2.5923786-12.5506512 5.1847573-25.1015527 7.7771359-37.6522039-.9777214-1.4967656-3.0773526-2.1228587-4.8437208-2.4119981l-9.5530332-1.56285459c-10.6924962-1.74910541-21.4060563-3.50296723-31.870359-6.30824493-2.7375699-.73373808-5.4814089-1.54357864-8.3097546-1.72757642-2.1678384-.14093979-3.8700116-.99333766-6.3718651-1.40138716" fill="#003dd4"/><path d="m22.0512673 0c-8.0316595 30.8094892-21.01536904 104.376057-22.0512673 107.939856 3.83139421-.330695 7.61840352.792317 11.3351994 1.778645 11.6218206 3.084404 23.5322683 4.928387 35.4161352 6.766863 5.4182168.838128 10.8364336 1.676507 16.2546505 2.514636 2.9191216-17.617474 11.39463-63.9548741 12.216879-67.9357349 2.5923786-12.5506512 5.1847573-25.1015527 7.7771359-37.6522039-.9777214-1.4967656-3.0773526-2.1228587-4.8437208-2.4119981l-9.5530332-1.56285459c-10.6924962-1.74910541-21.4060563-3.50296723-31.870359-6.30824493-2.7375699-.73373808-5.4814089-1.54357864-8.3097546-1.72757642-2.1678384-.14093979-3.8700116-.99333766-6.3718651-1.40138716z" stroke="#fff" stroke-linejoin="round" stroke-width="4.058275"/><g transform="translate(44 14)"><path d="m.18552836.19883571 16.63437314 2.77864286" fill="#fff"/><path d="m.18552836.19883571 16.63437314 2.77864286" stroke="#fff" stroke-linecap="round" stroke-linejoin="round" stroke-width="3.9"/></g><path d="m23.452947 18 48.547053 10.5777287-13.7117386 74.4222713-49.2882614-9.8223917z" fill="#ffdb00"/><path d="m23.452947 18 48.547053 10.5777287-13.7117386 74.4222713-49.2882614-9.8223917z" stroke="#ffdb00" stroke-linecap="round" stroke-linejoin="round" stroke-width="2.7612"/><path d="m23.2989882 20 48.7010118 10.162161-12.4232718 56.837839-47.5767282-8.6167346z" fill="#fff"/><path d="m61.3923268 59.5648828c-1.1390163-.8354164-2.4533961-1.5149441-3.8582393-1.5623245-2.2552958-.0758577-4.3216827 1.5448945-5.3634629 3.5766037-1.0417803 2.0317092-1.2241583 4.4036733-1.1588505 6.6931514.1591575 5.5793446 1.4532193 11.5919863 4.2537142 16.5544042 1.2002121 2.12647 3.8676726 2.8101711 5.9224493 1.523291 4.2679852-2.6726944 8.1400117-5.9976666 11.4370877-9.8332666 2.6464169-3.0782506 5.0412779-6.8225267 4.2058219-11.0526357-.50287-2.5455284-2.4144533-4.6773993-4.9612154-4.9228934-1.0708059-.1031075-1.9631038.1011436-3.013108.3397638-2.6045716.5918863-4.4111786 2.9260443-5.9947716 5.1067685-.4099879.5646365-.8402937 1.1975203-.7841773 1.8966875.0858676 1.063235 1.4009731 1.7147763 2.3810737 1.3298416.9801007-.3849348 1.5342494-1.5137167 1.5190109-2.5801431-.0154803-1.0666719-.4985161-2.0709883-1.0819324-2.958204-1.0741923-1.6337633-1.9350457-2.960659-3.5034003-4.1110444" fill="#db007e"/><path d="m61.3923268 59.5648828c-1.1390163-.8354164-2.4533961-1.5149441-3.8582393-1.5623245-2.2552958-.0758577-4.3216827 1.5448945-5.3634629 3.5766037-1.0417803 2.0317092-1.2241583 4.4036733-1.1588505 6.6931514.1591575 5.5793446 1.4532193 11.5919863 4.2537142 16.5544042 1.2002121 2.12647 3.8676726 2.8101711 5.9224493 1.523291 4.2679852-2.6726944 8.1400117-5.9976666 11.4370877-9.8332666 2.6464169-3.0782506 5.0412779-6.8225267 4.2058219-11.0526357-.50287-2.5455284-2.4144533-4.6773993-4.9612154-4.9228934-1.0708059-.1031075-1.9631038.1011436-3.013108.3397638-2.6045716.5918863-4.4111786 2.9260443-5.9947716 5.1067685-.4099879.5646365-.8402937 1.1975203-.7841773 1.8966875.0858676 1.063235 1.4009731 1.7147763 2.3810737 1.3298416.9801007-.3849348 1.5342494-1.5137167 1.5190109-2.5801431-.0154803-1.0666719-.4985161-2.0709883-1.0819324-2.958204-1.0741923-1.6337633-1.9350457-2.960659-3.5034003-4.1110444z" stroke="#003cdc" stroke-linejoin="round" stroke-width="2.909075"/><path d="m42.0138033 74.3708158c-.5305081-.1298689-1.1007089-.174844-1.6100985.0274108-.8180258.3244061-1.3185099 1.2449315-1.3920432 2.156941-.0735333.9120094.2106766 1.8147045.5712186 2.6484733.8785825 2.0321284 2.2271164 4.0461604 3.9598552 5.4377266.742457.5963856 1.7973667.4313882 2.3428868-.3643247 1.1330229-1.6526346 2.0283985-3.4835728 2.6431264-5.4129771.4933599-1.5488459.7986883-3.3034063-.1234036-4.7319638-.5546799-.859849-1.5523406-1.3471234-2.499622-1.0394832-.3984536.1296027-.6874978.3443654-1.027939.5963855-.8444876.6253931-1.1470171 1.7683988-1.3922976 2.8198577-.0636101.2722456-.1244214.5729665-.0012722.8217931.1872681.3784294.7539067.4132917 1.0475309.1178933.294133-.2948662.3261925-.797842.1636051-1.1885131-.1628418-.3906711-.4834366-.6855373-.8228601-.9213238-.6249055-.4343156-1.1281885-.7890598-1.8586868-.9678956" fill="#db007e"/><path d="m42.0138033 74.3708158c-.5305081-.1298689-1.1007089-.174844-1.6100985.0274108-.8180258.3244061-1.3185099 1.2449315-1.3920432 2.156941-.0735333.9120094.2106766 1.8147045.5712186 2.6484733.8785825 2.0321284 2.2271164 4.0461604 3.9598552 5.4377266.742457.5963856 1.7973667.4313882 2.3428868-.3643247 1.1330229-1.6526346 2.0283985-3.4835728 2.6431264-5.4129771.4933599-1.5488459.7986883-3.3034063-.1234036-4.7319638-.5546799-.859849-1.5523406-1.3471234-2.499622-1.0394832-.3984536.1296027-.6874978.3443654-1.027939.5963855-.8444876.6253931-1.1470171 1.7683988-1.3922976 2.8198577-.0636101.2722456-.1244214.5729665-.0012722.8217931.1872681.3784294.7539067.4132917 1.0475309.1178933.294133-.2948662.3261925-.797842.1636051-1.1885131-.1628418-.3906711-.4834366-.6855373-.8228601-.9213238-.6249055-.4343156-1.1281885-.7890598-1.8586868-.9678956z" stroke="#003cdc" stroke-linejoin="round" stroke-width="1.625"/><path d="m38.0878797 90-25.0878797-5.2498849.9123674-4.7501151 25.0876326 5.2498849z" fill="#fff"/><g fill="#003cdc"><path d="m66.9732549 39-39.9732549-8.626275 1.026467-5.373725 39.973533 8.626275z"/><path d="m64.9732549 47-39.9732549-8.626275 1.026467-5.373725 39.973533 8.626275z"/><path d="m62.9732549 55-39.9732549-8.626275 1.026467-5.373725 39.973533 8.626275z"/><path d="m45.9756907 60-23.9756907-4.8198694 1.0240319-5.1801306 23.9759681 4.8198694z"/></g></g></svg>