<?xml version="1.0" encoding="UTF-8"?>
<svg width="344px" height="40px" viewBox="0 0 344 40" version="1.1" xmlns="http://www.w3.org/2000/svg" xmlns:xlink="http://www.w3.org/1999/xlink">
    <!-- Generator: Sketch 43.2 (39069) - http://www.bohemiancoding.com/sketch -->
    <title>big_button@1,5x</title>
    <desc>Created with Sketch.</desc>
    <defs>
        <path d="M343.401759,0.354102691 C343.004759,0.00610269102 341.298759,-0.028897309 333.197759,0.015102691 C311.875759,0.130102691 264.085759,0.309102691 213.049759,0.357102691 C139.867759,0.425102691 31.9817586,-0.068897309 5.29475858,0.425102691 C3.34375858,0.461102691 1.76875858,0.607102691 0.777758578,1.57710269 C-0.232241422,2.56510269 0.019758578,5.11110269 0.048758578,8.83310269 C0.108758578,16.4001027 0.269758578,24.3571027 0.434758578,30.5181027 C0.566758578,35.4311027 4.77775858,38.2381027 9.77875858,38.2171027 C51.7797586,38.0451027 164.499759,40.3551027 200.398759,39.8571027 C205.638759,39.7841027 252.351759,39.7921027 278.851759,39.5421027 C295.834759,39.3811027 315.094759,38.5241027 343.851759,39.0281027 C343.851759,39.0281027 344.060759,16.8731027 343.822759,5.49910269 C343.740759,1.58010269 343.943759,0.829102691 343.401759,0.354102691" id="path-1"></path>
    </defs>
    <g id="Templates" stroke="none" stroke-width="1" fill="none" fill-rule="evenodd">
        <g id="templates/log-in" transform="translate(-8.000000, -472.000000)">
            <g id="buttons" transform="translate(8.000000, 472.000000)">
                <g id="big_button">
                    <use fill="#7300FF" fill-rule="evenodd" xlink:href="#path-1"></use>
                    <path stroke="#7300FF" stroke-width="1" d="M343.356291,38.5194432 C327.638719,38.2502885 315.576089,38.3417019 297.142188,38.7194177 C284.321647,38.9821141 283.4512,38.9984772 278.847019,39.0421252 C270.9356,39.1167612 260.80582,39.1729541 248.45918,39.2166842 C242.111672,39.2391662 235.513225,39.257386 227.554675,39.2757019 C225.439924,39.2805688 213.232811,39.3070078 210.415396,39.3140256 C204.638708,39.3284145 201.544072,39.3410985 200.391794,39.3571512 C184.716991,39.574596 160.074975,39.3481648 102.676326,38.5979711 C101.522635,38.5828897 101.522635,38.5828897 100.369095,38.5678029 C46.3032612,37.8606405 26.1634961,37.6500007 9.77671102,37.7171069 C4.7330976,37.7382858 1.05227769,34.8854128 0.93457821,30.5046738 C0.746882426,23.4962269 0.603380278,15.7198271 0.548742861,8.82913823 C0.545023123,8.35172852 0.538468086,7.92253432 0.525549959,7.22787816 C0.456741116,3.52776835 0.551122792,2.49824987 1.12739779,1.9345274 C1.8717354,1.20596287 2.98991248,0.967716999 5.30398305,0.925017593 C19.4832364,0.662547059 46.0731698,0.653903775 125.283454,0.783302125 C132.22932,0.79464893 136.554974,0.801605868 141.089201,0.808636584 C172.705156,0.857659886 193.948006,0.874852069 213.050223,0.857102475 C256.97736,0.81578845 305.169428,0.666280494 333.200455,0.515095419 C341.027452,0.472583646 342.843454,0.529610065 343.072171,0.730097542 L343.072212,0.730133057 C343.263274,0.897576862 343.296009,1.14759271 343.298332,2.91299239 C343.299784,4.01715946 343.30422,4.61830411 343.322868,5.50956225 C343.394315,8.92399183 343.430054,13.51049 343.435798,18.9791277 C343.44061,23.5601064 343.424317,28.4701638 343.394197,33.3436414 C343.384918,34.8450588 343.374976,36.2318107 343.365034,37.4706074 C343.361897,37.8614356 343.358963,38.2120635 343.356291,38.5194432 L343.356291,38.5194432 Z"></path>
                </g>
            </g>
        </g>
    </g>
</svg>