<?xml version="1.0" encoding="UTF-8"?>
<svg width="33px" height="32px" viewBox="0 0 33 32" version="1.1" xmlns="http://www.w3.org/2000/svg" xmlns:xlink="http://www.w3.org/1999/xlink">
    <!-- Generator: Sketch 53 (72520) - https://sketchapp.com -->
    <title>Fill 8 Copy 2</title>
    <desc>Created with Sketch.</desc>
    <g id="Symbols" stroke="none" stroke-width="1" fill="none" fill-rule="evenodd">
        <g id="navbar-top-desktop" transform="translate(-1176.000000, -94.000000)" fill="#000000">
            <g id="navbar-top">
                <g id="menu" transform="translate(314.000000, 91.000000)">
                    <g id="search" transform="translate(862.000000, 3.000000)">
                        <path d="M18.587278,6.16611916 C20.0607446,7.79750673 20.880677,10.2299349 20.8493266,13.2460481 C20.7950664,18.3954204 17.6986161,21.4701463 12.5981548,21.4359556 C7.84013585,21.404207 4.17696767,17.7934188 4.23243367,13.1898776 C4.28910547,8.54481899 8.88675533,3.83626328 13.313184,3.88877051 C13.3638269,3.88999161 13.4120582,3.8960971 13.4627011,3.8985393 C15.2906678,4.19770842 17.0969305,5.01096001 18.587278,6.16611916 M32.3898739,28.2191576 C30.13506,25.3788826 27.1953615,22.9354645 23.6129808,20.8766925 C25.7725378,18.2183611 26.5201232,14.6735122 25.6061398,10.5974855 C23.9554231,3.23304063 17.3043251,-1.23617979 10.2782287,0.302404292 C2.53469148,1.99851007 -1.30331521,8.33234786 0.398044333,16.6089533 C1.82207383,23.5289184 7.97518352,27.1104002 15.5595574,25.433832 C16.8328641,25.1517582 17.998856,24.7658911 19.0551218,24.2884416 C19.9666936,24.8745689 20.8855001,25.4558118 21.6813167,26.1078783 C23.8071118,27.8467226 25.8038882,29.6600538 27.7524332,31.497807 C28.397527,32.105914 29.0739712,32.1828433 30.1543526,31.6125903 C30.7813596,31.2816726 31.4758905,30.9715136 31.9762904,30.5734355 C32.4791018,30.1729152 32.7793417,29.6734859 33,29.4158341 C32.7082006,28.832149 32.6117379,28.4975681 32.3898739,28.2191576" id="Fill-8-Copy-2"></path>
                    </g>
                </g>
            </g>
        </g>
    </g>
</svg>