<?xml version="1.0" encoding="UTF-8"?>
<svg width="22px" height="11px" viewBox="0 0 22 11" version="1.1" xmlns="http://www.w3.org/2000/svg" xmlns:xlink="http://www.w3.org/1999/xlink">
    <!-- Generator: Sketch 53.1 (72631) - https://sketchapp.com -->
    <title>Fill 1</title>
    <desc>Created with Sketch.</desc>
    <g id="Yegna-UI" stroke="none" stroke-width="1" fill="none" fill-rule="evenodd">
        <g id="Yegna-D-1-Home" transform="translate(-1238.000000, -1531.000000)" fill="#8208FF">
            <g id="sidebar" transform="translate(957.000000, 861.000000)">
                <g id="card-character" transform="translate(3.000000, 113.000000)">
                    <g id="link-read-more" transform="translate(185.000000, 549.000000)">
                        <path d="M114.796334,13.2129589 C114.574211,12.9217563 114.314036,12.6455097 114.028197,12.4317264 C113.950321,12.3736619 113.859171,12.3059199 113.761826,12.2320195 L113.758287,12.0859783 L113.574217,12.0903771 C112.166261,11.021461 109.366277,8.85019773 108.829997,8.41295387 C108.070709,7.79095907 107.888409,8.03905318 107.815843,8.10151659 C107.642393,8.25107686 107.533544,10.061636 107.514075,12.1642775 L107.464518,12.166037 L107.464518,12.1651572 L107.340625,12.1686763 L107.340625,12.1677965 L107.216732,12.1704358 L107.216732,12.1695561 L107.092839,12.1721954 L106.968946,12.1748347 L106.968946,12.1739549 L106.845052,12.177474 L106.845052,12.1765942 L106.721159,12.1801133 L106.721159,12.1792335 L106.597266,12.1827526 L106.597266,12.1818728 L106.473373,12.1853919 L106.473373,12.1845121 L106.34948,12.1871514 L106.225587,12.1897907 L106.225587,12.1889109 L106.101694,12.19243 L106.101694,12.1906705 L105.977801,12.1941895 L105.977801,12.1915502 L105.854793,12.1950693 L105.854793,12.19243 L105.730015,12.1950693 L105.730015,12.1933098 L105.606122,12.1959491 L105.606122,12.1941895 L105.483113,12.1968288 L105.482228,12.1941895 L105.358335,12.1977086 L105.358335,12.1950693 L105.234442,12.1985884 L105.234442,12.1959491 L105.110549,12.1994681 L105.110549,12.1968288 L104.986656,12.1994681 L104.986656,12.1977086 L104.862763,12.2003479 L104.862763,12.1985884 L104.73887,12.2012277 L104.73887,12.1985884 L104.614977,12.2021074 L104.614977,12.1994681 L104.491084,12.2029872 L104.491084,12.2003479 L104.367191,12.203867 L104.367191,12.2012277 L104.243298,12.203867 L104.243298,12.2021074 L104.119405,12.2047467 L104.119405,12.2021074 L103.995511,12.2047467 L103.995511,12.2029872 L103.871618,12.2056265 L103.871618,12.203867 L103.747725,12.2065063 L103.747725,12.2047467 L103.623832,12.2065063 L103.623832,12.2047467 L103.499939,12.207386 L103.499939,12.2056265 L103.376046,12.2082658 L103.376046,12.2056265 L103.252153,12.2091456 L103.252153,12.2065063 L103.12826,12.2100253 L103.12826,12.207386 L103.004367,12.2109051 L103.004367,12.2082658 L102.880474,12.2109051 L102.880474,12.2091456 L102.756581,12.2117849 L102.756581,12.2100253 L102.632687,12.2126646 L102.632687,12.2100253 L102.508794,12.2135444 L102.508794,12.2109051 L102.384901,12.2144242 L102.384901,12.2117849 L102.261008,12.2153039 L102.261008,12.2126646 L102.137115,12.2153039 L102.137115,12.2135444 L102.013222,12.2161837 L102.013222,12.2135444 L101.889329,12.2170635 L101.889329,12.2144242 L101.765436,12.2179432 L101.765436,12.2153039 L101.641543,12.218823 L101.641543,12.2161837 L101.51765,12.218823 L101.51765,12.2170635 L101.392872,12.2197028 L101.392872,12.2179432 L101.269864,12.2205825 L101.269864,12.2179432 L101.14597,12.2214623 L101.14597,12.218823 L101.022077,12.2223421 L101.022077,12.2197028 L100.898184,12.2232218 L100.898184,12.2205825 L100.773406,12.2232218 L100.773406,12.2214623 L100.650398,12.2241016 L100.650398,12.2223421 L100.526505,12.2249814 L100.526505,12.2223421 L100.402612,12.2258611 L100.401727,12.2232218 L100.278719,12.2267409 L100.278719,12.2241016 L100.154826,12.2276207 L100.154826,12.2249814 L100.030048,12.2276207 L100.030048,12.2249814 L99.9070396,12.2285004 L99.9070396,12.2258611 L99.7822615,12.2285004 L99.7822615,12.2258611 L99.6583685,12.2285004 L99.6583685,12.2258611 L99.5344754,12.2293802 L99.5344754,12.2258611 L99.4096973,12.2293802 L99.4096973,12.2267409 L99.2866892,12.2293802 L99.2866892,12.2267409 L99.1619112,12.23026 L99.1619112,12.2267409 L99.0380181,12.23026 L99.0380181,12.2276207 L98.914125,12.23026 L98.914125,12.2276207 L98.789347,12.2311397 L98.789347,12.2276207 L98.6654539,12.2311397 L98.6654539,12.2285004 L98.5415608,12.2311397 L98.5415608,12.2285004 L98.4176677,12.2320195 L98.4176677,12.2285004 L98.2937746,12.2320195 L98.2937746,12.2293802 L98.1698815,12.2320195 L98.1698815,12.2293802 L98.0451035,12.2328993 L98.0451035,12.2293802 L97.9220953,12.2328993 L97.9212104,12.23026 L97.7973173,12.2328993 L97.7973173,12.23026 L97.6725393,12.233779 L97.6725393,12.23026 L97.5495311,12.233779 L97.5495311,12.2311397 L97.4247531,12.233779 L97.4247531,12.2311397 L97.30086,12.233779 L97.30086,12.2311397 L97.1769669,12.2346588 L97.1769669,12.2320195 L97.0521889,12.2346588 L97.0521889,12.2320195 L96.9291807,12.2346588 L96.9291807,12.2320195 L96.8044027,12.2355386 L96.8044027,12.2328993 L96.6805096,12.2355386 L96.6805096,12.2328993 L96.5566165,12.2355386 L96.5566165,12.2328993 L96.4327235,12.2364183 L96.4327235,12.2328993 L96.3079454,12.2364183 L96.3079454,12.233779 L96.1840523,12.2364183 L96.1840523,12.233779 L96.0601592,12.2372981 L96.0601592,12.233779 L95.9362662,12.2372981 L95.9362662,12.2346588 L95.8123731,12.2372981 L95.8123731,12.2346588 L95.687595,12.2381779 L95.687595,12.2346588 L95.5645869,12.2381779 L95.5645869,12.2355386 L95.4398089,12.2381779 L95.4398089,12.2346588 L95.3150308,12.2381779 L95.3150308,12.233779 L95.1911377,12.2372981 L95.1902528,12.2328993 L95.0663597,12.2364183 L95.0654747,12.2328993 L94.9415817,12.2355386 L94.9406967,12.2320195 L94.8168036,12.2346588 L94.8168036,12.2311397 L94.6920256,12.233779 L94.6920256,12.23026 L94.5681325,12.233779 L94.5681325,12.2293802 L94.4433545,12.2328993 L94.4433545,12.2285004 L94.3185764,12.2320195 L94.3185764,12.2285004 L94.1946833,12.2311397 L94.1946833,12.2276207 L94.0699053,12.23026 L94.0699053,12.2267409 L93.9451273,12.2293802 L93.9451273,12.2258611 L93,12.248735 L93.0566368,14.5546026 L93.179645,14.5510835 L93.179645,14.5590014 L93.3026531,14.5554824 L93.3026531,14.5634003 L93.4265462,14.560761 L93.4265462,14.5677991 L93.5486694,14.5651598 L93.5486694,14.5721979 L93.6716775,14.5695586 L93.6716775,14.5774765 L93.7955706,14.5739574 L93.7955706,14.5818753 L93.9176938,14.5783563 L93.9176938,14.5862742 L94.0407019,14.5836349 L94.0415869,14.5897932 L94.164595,14.5871539 L94.164595,14.5950718 L94.2867182,14.5915528 L94.2867182,14.5994707 L94.4097263,14.5959516 L94.4106113,14.6038695 L94.5336194,14.6003504 L94.5336194,14.6082683 L94.6557426,14.605629 L94.6566276,14.6126672 L94.7796357,14.6100279 L94.7796357,14.6144267 L94.9035288,14.6109076 L94.9035288,14.6153065 L95.0265369,14.6126672 L95.0265369,14.617066 L95.15043,14.6144267 L95.15043,14.6188255 L95.2725532,14.6153065 L95.2725532,14.6205851 L95.3964463,14.617066 L95.3964463,14.6214648 L95.5203394,14.6188255 L95.5203394,14.6232244 L95.6433475,14.6197053 L95.6433475,14.6241041 L95.7672406,14.6214648 L95.7672406,14.6249839 L95.8902487,14.6232244 L95.8902487,14.6267434 L96.0132569,14.6241041 L96.0132569,14.628503 L96.1371499,14.6249839 L96.1371499,14.6302625 L96.261043,14.6267434 L96.261043,14.6311423 L96.3840512,14.628503 L96.3840512,14.6329018 L96.5070593,14.6302625 L96.5079443,14.6346613 L96.6309524,14.6311423 L96.6309524,14.6355411 L96.7539605,14.6329018 L96.7539605,14.6373006 L96.8778536,14.6346613 L96.8778536,14.6390602 L97.0017467,14.6355411 L97.0017467,14.6408197 L97.1238699,14.6373006 L97.1238699,14.6416995 L97.247763,14.6390602 L97.247763,14.643459 L97.3716561,14.6408197 L97.3716561,14.6452185 L97.4946642,14.6416995 L97.4946642,14.6460983 L97.6185573,14.643459 L97.6185573,14.6478578 L97.7415654,14.6452185 L97.7415654,14.6496174 L97.8645736,14.6460983 L97.8645736,14.6513769 L97.9884666,14.6478578 L97.9884666,14.6522566 L98.1114748,14.6496174 L98.1114748,14.6540162 L98.2353679,14.6504971 L98.2353679,14.6557757 L98.358376,14.6522566 L98.358376,14.6566555 L98.4813841,14.6540162 L98.4813841,14.658415 L98.6052772,14.6557757 L98.6052772,14.6601745 L98.7291703,14.6566555 L98.7291703,14.6610543 L98.8521784,14.658415 L98.8521784,14.6619341 L98.9751866,14.6601745 L98.9751866,14.6636936 L99.0990797,14.6610543 L99.0990797,14.6654531 L99.2220878,14.6619341 L99.2220878,14.6663329 L99.3459809,14.6636936 L99.3459809,14.6663329 L99.469874,14.6636936 L99.469874,14.6672127 L99.5928821,14.6636936 L99.5928821,14.6672127 L99.7167752,14.6636936 L99.7167752,14.6672127 L99.8406683,14.6645734 L99.8406683,14.6672127 L99.9636764,14.6645734 L99.9636764,14.6672127 L100.08757,14.6645734 L100.08757,14.6680924 L100.211463,14.6645734 L100.211463,14.6680924 L100.334471,14.6645734 L100.334471,14.6680924 L100.458364,14.6645734 L100.458364,14.6680924 L100.582257,14.6654531 L100.582257,14.6680924 L100.705265,14.6654531 L100.705265,14.6680924 L100.829158,14.6654531 L100.829158,14.6689722 L100.952166,14.6654531 L100.952166,14.6689722 L101.076059,14.6654531 L101.076059,14.6689722 L101.199952,14.6663329 L101.199952,14.6689722 L101.322961,14.6663329 L101.322961,14.6689722 L101.446854,14.6663329 L101.446854,14.669852 L101.570747,14.6663329 L101.570747,14.669852 L101.693755,14.6663329 L101.693755,14.669852 L101.817648,14.6663329 L101.817648,14.669852 L101.941541,14.6672127 L101.941541,14.669852 L102.064549,14.6672127 L102.064549,14.669852 L102.188442,14.6672127 L102.188442,14.6707317 L102.312335,14.6672127 L102.312335,14.6707317 L102.435344,14.6672127 L102.435344,14.6707317 L102.559237,14.6680924 L102.559237,14.6707317 L102.68313,14.6680924 L102.68313,14.6707317 L102.806138,14.6680924 L102.806138,14.6716115 L102.929146,14.6680924 L102.930031,14.6716115 L103.052154,14.6680924 L103.053039,14.6716115 L103.176047,14.6680924 L103.176932,14.6716115 L103.29994,14.6689722 L103.300825,14.6716115 L103.422948,14.6689722 L103.423833,14.6724913 L103.546841,14.6689722 L103.547726,14.6724913 L103.670735,14.6689722 L103.67162,14.6724913 L103.793743,14.6689722 L103.794628,14.6724913 L103.917636,14.669852 L103.918521,14.6724913 L104.041529,14.669852 L104.041529,14.6724913 L104.164537,14.669852 L104.164537,14.673371 L104.28843,14.669852 L104.28843,14.673371 L104.412323,14.669852 L104.412323,14.673371 L104.535331,14.669852 L104.535331,14.673371 L104.659224,14.6707317 L104.659224,14.673371 L104.783117,14.6707317 L104.783117,14.6742508 L104.906126,14.6707317 L104.906126,14.6742508 L105.030019,14.6707317 L105.030019,14.6742508 L105.153912,14.6707317 L105.153912,14.6742508 L105.27692,14.6716115 L105.27692,14.673371 L105.400813,14.6707317 L105.400813,14.6716115 L105.523821,14.6689722 L105.523821,14.6707317 L105.647714,14.6672127 L105.647714,14.6689722 L105.771607,14.6654531 L105.771607,14.6672127 L105.894615,14.6636936 L105.894615,14.6654531 L106.018509,14.6628138 L106.018509,14.6636936 L106.142402,14.6610543 L106.142402,14.6619341 L106.26541,14.6601745 L106.26541,14.6610543 L106.389303,14.658415 L106.389303,14.6601745 L106.513196,14.6566555 L106.513196,14.658415 L106.636204,14.6557757 L106.636204,14.6566555 L106.760097,14.6540162 L106.760097,14.6548959 L106.88399,14.6522566 L106.88399,14.6540162 L107.006998,14.6504971 L107.006998,14.6522566 L107.130891,14.6487376 L107.130891,14.6504971 L107.254785,14.6478578 L107.254785,14.6487376 L107.377793,14.6460983 L107.377793,14.6469781 L107.501686,14.6443388 L107.501686,14.6460983 L107.533544,14.6452185 C107.590181,16.921174 107.760091,18.9296805 108.070709,18.9912642 C109.257428,19.2270415 114.403416,14.6144267 114.708724,14.3135466 C115.060934,13.9677984 115.098102,13.6070943 114.796334,13.2129589" id="Fill-1"></path>
                    </g>
                </g>
            </g>
        </g>
    </g>
</svg>