<?xml version="1.0" encoding="UTF-8"?>
<svg width="37px" height="33px" viewBox="0 0 37 33" version="1.1" xmlns="http://www.w3.org/2000/svg" xmlns:xlink="http://www.w3.org/1999/xlink">
    <!-- Generator: Sketch 53 (72520) - https://sketchapp.com -->
    <title>icon-cast</title>
    <desc>Created with Sketch.</desc>
    <g id="Symbols" stroke="none" stroke-width="1" fill="none" fill-rule="evenodd">
        <g id="navbar-top-desktop" transform="translate(-593.000000, -93.000000)" fill="#000000">
            <g id="navbar-top">
                <g id="menu" transform="translate(314.000000, 91.000000)">
                    <g id="cast" transform="translate(279.000000, 2.000000)">
                        <path class="cast" d="M30.2467835,0 L30.7491979,0 C31.8991153,0.514056821 32.1197459,1.03056153 31.6628966,2.25450634 C31.3655248,3.05129441 31.0393752,3.83706698 30.7000356,4.61671983 C30.0417409,6.13073956 29.3726545,7.63986351 28.6939754,9.14409168 C28.4793402,9.61775833 28.2407233,10.0840813 27.9757267,10.5320451 C27.5908222,11.1856316 27.7395081,11.5356798 28.476942,11.6311475 C28.5237061,11.6372673 28.5728684,11.6446109 28.6208316,11.6458349 C30.780374,11.7082561 32.9435136,11.6813293 35.087468,12.0705437 C35.7925268,12.1990579 36.473604,12.2822862 37,12.8330613 L37,13.859951 C36.5419516,14.5098657 35.8824578,14.8036125 35.1522183,15.0104592 C34.5095116,15.191603 33.8644068,15.3923299 33.2588716,15.6713894 C31.9962407,16.2539871 30.7635869,16.9039018 29.5093496,17.5073066 C28.793499,17.852459 28.5872573,18.3432609 28.9949444,19.0384615 C29.7527627,20.3333951 30.6196973,21.5426526 31.8487539,22.4336844 C32.7144894,23.0603442 33.4675114,23.8057266 34.0346761,24.7322528 C34.4123862,25.3442252 34.2457141,26.3172613 33.686943,26.7713449 C33.2252973,27.145872 32.6041741,27.1948298 32.0849726,26.9218901 C31.6820819,26.7089237 31.277992,26.4873897 30.8535178,26.3319487 C29.4026315,25.8032045 27.9421525,25.2989392 26.4852708,24.7885543 C26.4337103,24.771419 26.3725573,24.7861064 26.2790291,24.7861064 C26.2058852,25.8338031 26.2922189,26.8411097 26.9505137,27.678288 C27.8714068,28.8496031 28.1244126,30.2803946 28.4841365,31.6585565 C28.6987718,32.4822713 27.8174482,33.1346339 27.0332502,32.8078407 C26.5692063,32.6144574 26.1615193,32.3231585 25.9229024,31.8641792 C25.5355997,31.1175729 25.0163982,30.4958089 24.3760897,29.9658408 C24.2381955,29.8520139 24.1134913,29.7149321 24.0007778,29.5729545 C22.8604531,28.1446109 21.715332,26.7187152 20.5905953,25.2769082 C20.1517322,24.7151176 19.8159899,24.6967584 19.4119001,25.2756843 C19.3771267,25.325866 19.3459507,25.3784957 19.3147746,25.4299013 C18.0341576,27.5779245 16.7499433,29.7234997 15.4777198,31.8764187 C15.209126,32.3317261 14.9177496,32.7503153 14.4405159,33 L13.8661568,33 C13.8169945,32.9718493 13.7690313,32.9375788 13.7162718,32.9179957 C13.1634961,32.711149 12.84574,32.3194867 12.8409437,31.7099622 C12.8385455,31.3329872 12.8505363,30.9523403 12.9008977,30.5790372 C13.0675698,29.3477487 13.2714133,28.120132 13.4272936,26.8863957 C13.5124283,26.2083302 13.2330427,25.9880202 12.604725,26.236481 C11.1802184,26.8007195 9.76650355,27.3967807 8.34799235,27.9806023 C6.29037171,28.8287961 4.24474187,29.71738 2.16673688,30.5141681 C0.918494993,30.9927305 0.471238293,30.7246866 0,29.4799347 L0,29.2596247 C0.175065625,28.6819227 0.585150857,28.3086195 1.04799559,27.9720347 C1.56479891,27.5962837 2.07200959,27.2058453 2.57442396,26.811735 C5.17522766,24.7763148 7.66331789,22.5879015 10.4283955,20.7740153 C10.7725314,20.5475855 10.7053829,19.9503004 10.300094,19.7936355 C9.89000875,19.6357466 9.45714101,19.5317113 9.02547234,19.4509309 C8.40315001,19.3334322 7.76164242,19.3089533 7.14891273,19.1547363 C5.68963282,18.785105 4.23514924,18.3836511 2.79145737,17.9491507 C2.28544577,17.7961576 1.80221668,17.5379052 1.33937194,17.2735331 C0.92808763,17.0409836 0.687072625,16.6750241 0.780600836,16.1475039 C0.872929967,15.6309992 1.23625109,15.4339441 1.67631332,15.323789 C3.61522507,14.8329872 5.58171566,14.6028855 7.57938231,14.7008011 C8.03143533,14.7240561 8.48588651,14.7766857 8.93554137,14.7583265 C9.48232168,14.7350716 10.0255047,14.6432757 10.5722851,14.5943179 C11.2365752,14.5355686 11.9092588,14.525777 12.5687526,14.4254135 C13.0244029,14.3556487 13.1862786,14.082709 13.1598989,13.6102663 C13.1443109,13.3446703 13.0987458,13.0766264 13.0327964,12.818374 C12.7174385,11.6176841 12.3757008,10.423114 12.0735327,9.21997626 C11.6622484,7.58723388 11.445215,5.91899711 11.2833393,4.24708849 C11.2137927,3.53597656 11.1958065,2.81629701 11.2257835,2.10396113 C11.234177,1.90568207 11.459604,1.59602403 11.640665,1.54706624 C12.2462002,1.38183369 12.9044949,1.38305764 13.326571,1.92771308 C13.7102764,2.42218678 13.9692776,3.02191974 14.2738439,3.58126252 C14.5448359,4.07696017 14.7738601,4.59836066 15.0760281,5.07325124 C15.4117704,5.60321935 15.8530317,6.06464654 16.1695887,6.60318226 C16.8446706,7.75369038 17.4729883,8.93479712 18.115695,10.1048884 C18.5557572,10.9065722 19.1457044,10.9077962 19.6948828,10.1819969 C20.0462132,9.71689786 20.5090579,9.33625102 20.9359303,8.93479712 C21.1805425,8.7046955 21.4767152,8.53089533 21.7117348,8.29100215 C22.1086301,7.88587642 22.4779467,7.45259996 22.8556567,7.02666716 C23.9779953,5.75621245 25.1231163,4.51146057 26.4636873,3.46743565 C27.2610753,2.84811958 28.0260881,2.18351754 28.7887027,1.51769157 C29.048903,1.28881389 29.2431539,0.985275573 29.4841689,0.733142942 C29.7275821,0.477338476 29.9913796,0.243565017 30.2467835,0" id="icon-cast"></path>
                    </g>
                </g>
            </g>
        </g>
    </g>
</svg>
