<?xml version="1.0" encoding="UTF-8"?>
<svg width="36px" height="25px" viewBox="0 0 36 25" version="1.1" xmlns="http://www.w3.org/2000/svg" xmlns:xlink="http://www.w3.org/1999/xlink">
    <!-- Generator: Sketch 53 (72520) - https://sketchapp.com -->
    <title>icon-burger</title>
    <desc>Created with Sketch.</desc>
    <g id="Symbols" stroke="none" stroke-width="1" fill="none" fill-rule="evenodd">
        <g id="navbar-top-desktop" transform="translate(-314.000000, -97.000000)" fill="#000000">
            <g id="navbar-top">
                <g id="menu" transform="translate(314.000000, 91.000000)">
                    <g transform="translate(0.000000, 6.000000)" id="icon-burger">
                        <g>
                            <polygon id="Fill-1" points="32.0620788 0.950501587 32.0620788 0.954120635 31.7835047 0.96135873 31.7835047 0.964977778 31.5049306 0.972215873 31.5049306 0.975834921 31.2263565 0.983073016 31.2263565 0.986692063 30.9477824 0.993930159 30.9477824 0.997549206 30.6692083 1.0047873 30.6692083 1.00840635 30.3906341 1.01564444 30.3918349 1.01926349 30.1108593 1.02650159 30.1108593 1.03012063 29.8334859 1.03735873 29.8334859 1.04097778 29.5549118 1.04821587 29.5549118 1.05183492 29.2763377 1.05907302 29.2763377 1.06269206 28.9989644 1.06993016 28.9989644 1.07354921 28.7191895 1.0807873 28.7191895 1.08440635 28.4406154 1.09164444 28.4406154 1.09526349 28.1620413 1.10129524 28.1620413 1.10612063 27.8846679 1.11335873 27.8846679 1.11577143 27.6048931 1.12421587 27.6048931 1.12783492 27.3263189 1.13386667 27.3263189 1.13869206 27.0489456 1.14593016 27.0489456 1.14834286 26.7691707 1.15558095 26.7703715 1.16040635 26.4905966 1.1664381 26.4905966 1.17005714 26.2120225 1.17729524 26.2120225 1.18091429 25.9334484 1.18815238 25.9334484 1.19177143 25.656075 1.20021587 25.656075 1.20262857 25.3775009 1.20986667 25.3775009 1.21348571 25.0977261 1.22072381 25.0977261 1.22434286 24.819152 1.23158095 24.819152 1.2352 24.5417786 1.2424381 24.5417786 1.24605714 24.2632045 1.25329524 24.2632045 1.25691429 23.9834296 1.26415238 23.9834296 1.26777143 23.7060563 1.27500952 23.7060563 1.27862857 23.4274822 1.28586667 23.4274822 1.28948571 23.1489081 1.29672381 23.1489081 1.30034286 22.870334 1.30758095 22.870334 1.3112 22.5905591 1.3184381 22.5917598 1.32205714 22.3131857 1.32929524 22.3131857 1.33291429 22.0346116 1.34015238 22.0346116 1.34377143 21.7560375 1.35100952 21.7560375 1.35462857 21.4762627 1.36186667 21.4762627 1.36548571 21.4114221 1.36789841 21.4114221 1.36427937 21.1316473 1.37272381 21.1316473 1.36910476 20.8530732 1.37754921 20.8530732 1.37513651 20.5732983 1.3823746 20.5732983 1.3799619 20.2947242 1.3872 20.2947242 1.3847873 20.0149493 1.3920254 20.0149493 1.39081905 19.7363752 1.39685079 19.7363752 1.3944381 19.4553996 1.40167619 19.4553996 1.40046984 19.1768255 1.40770794 19.1756248 1.40408889 18.8970507 1.41253333 18.8970507 1.41012063 18.6172758 1.41735873 18.6172758 1.41494603 18.3387017 1.42339048 18.3387017 1.41977143 18.0589268 1.42700952 18.0589268 1.42459683 17.7803527 1.43304127 17.7803527 1.43062857 17.4993771 1.43666032 17.4993771 1.43424762 17.220803 1.44269206 17.220803 1.44027937 16.9410281 1.44631111 16.9410281 1.44510476 16.6612533 1.45234286 16.6612533 1.44993016 16.3826792 1.45716825 16.3826792 1.45475556 16.1029043 1.4632 16.1029043 1.45958095 15.8243302 1.46681905 15.8243302 1.4656127 15.5433546 1.47285079 15.5433546 1.4704381 15.2647805 1.47767619 15.2647805 1.47526349 14.9850056 1.48250159 14.9850056 1.48008889 14.7064315 1.48732698 14.7052308 1.48491429 14.4266567 1.49215238 14.4266567 1.48973968 14.1468818 1.49818413 14.1468818 1.49456508 13.8683077 1.50180317 13.8683077 1.49939048 13.5885328 1.50783492 13.5885328 1.50542222 13.308758 1.51266032 13.308758 1.51024762 13.0289831 1.51748571 13.0289831 1.51507302 12.750409 1.52231111 12.7492083 1.52110476 12.4706341 1.52713651 12.4706341 1.52472381 12.1908593 1.5319619 12.1908593 1.52954921 11.9110844 1.5367873 11.9110844 1.5319619 11.6313096 1.54040635 11.6313096 1.53558095 11.350334 1.54281905 11.350334 1.54040635 11.0717598 1.54764444 11.0717598 1.54281905 10.791985 1.55126349 10.791985 1.5464381 10.5110094 1.55367619 10.5110094 1.55005714 10.2324353 1.55729524 10.2324353 1.55367619 9.95266041 1.56212063 9.95266041 1.55729524 9.67288555 1.56453333 9.6716848 1.56091429 9.39311069 1.56815238 9.39311069 1.56332698 9.11333583 1.57177143 9.11333583 1.56815238 8.83236023 1.57539048 8.83236023 1.57177143 8.55258537 1.57900952 8.55258537 1.57539048 8.27281051 1.58262857 8.27281051 1.57780317 7.99303565 1.58624762 7.99303565 1.58262857 7.71326079 1.58986667 7.71326079 1.58624762 7.43348593 1.59348571 7.43348593 1.58866032 7.15371107 1.59710476 7.15371107 1.59227937 6.87513696 1.59951746 6.87513696 1.59710476 6.5953621 1.60434286 6.59416135 1.59951746 6.31438649 1.6079619 6.31438649 1.60313651 6.03461163 1.6103746 6.03461163 1.60675556 5.75483677 1.61399365 5.75483677 1.6103746 5.47506191 1.6176127 5.47386116 1.61399365 5.19528705 1.62123175 5.19528705 1.6176127 4.9155122 1.62485079 4.9155122 1.6200254 4.63573734 1.62846984 4.63573734 1.6224381 4.35476173 1.62967619 4.35476173 1.62364444 4.07378612 1.63088254 4.07378612 1.62364444 3.79281051 1.63088254 3.79281051 1.62364444 3.51303565 1.63088254 3.5118349 1.62364444 3.23206004 1.63088254 3.23085929 1.62364444 2.95108443 1.63088254 2.95108443 1.62364444 2.67010882 1.63088254 2.67010882 1.62364444 2.38913321 1.63088254 2.38913321 1.62485079 2.1081576 1.63088254 2.1081576 1.62485079 0.600015009 1.66466032 0.609621013 2.08446984 0.72849531 7.41291429 1.00586867 7.40567619 1.00706942 7.42618413 1.28324203 7.41773968 1.28444278 7.43824762 1.56181614 7.43100952 1.56181614 7.45031111 1.83918949 7.44307302 1.84039024 7.46358095 2.11656285 7.45634286 2.1177636 7.47685079 2.39513696 7.4696127 2.39513696 7.48891429 2.67251032 7.48046984 2.67251032 7.50218413 2.94988368 7.49373968 2.95108443 7.51424762 3.22725704 7.50580317 3.22845779 7.52631111 3.50583114 7.51907302 3.50583114 7.53354921 3.78440525 7.52510476 3.785606 7.5359619 4.06297936 7.52872381 4.06418011 7.5383746 4.34155347 7.53113651 4.34155347 7.5407873 4.61892683 7.53354921 4.61892683 7.5432 4.89870169 7.53475556 4.89870169 7.5456127 5.1772758 7.5383746 5.1772758 7.54681905 5.45584991 7.5407873 5.45584991 7.5504381 5.73322326 7.5432 5.73322326 7.55285079 6.01179737 7.5456127 6.01179737 7.55526349 6.29037148 7.54681905 6.29037148 7.55767619 6.56894559 7.5504381 6.56894559 7.56008889 6.8475197 7.55285079 6.8475197 7.56250159 7.12489306 7.55526349 7.12489306 7.56491429 7.40466792 7.55767619 7.40466792 7.56732698 7.68204128 7.55888254 7.68324203 7.56973968 7.96061538 7.56129524 7.96061538 7.57215238 8.23918949 7.56491429 8.23918949 7.57456508 8.5177636 7.56732698 8.5177636 7.57697778 8.79633771 7.56853333 8.79633771 7.57939048 9.07491182 7.57094603 9.07491182 7.58059683 9.35228518 7.57335873 9.35228518 7.58421587 9.63206004 7.57697778 9.63206004 7.58662857 9.9094334 7.57939048 9.91063415 7.58904127 10.1880075 7.58059683 10.1880075 7.59024762 10.4665816 7.58421587 10.4665816 7.59386667 10.7451557 7.58662857 10.7451557 7.59627937 11.0237298 7.58904127 11.0237298 7.59627937 11.3023039 7.58904127 11.3023039 7.59386667 11.580878 7.58662857 11.580878 7.59145397 11.8594522 7.58542222 11.8594522 7.59024762 12.139227 7.58180317 12.139227 7.58783492 12.4178011 7.58059683 12.4178011 7.58662857 12.6951745 7.57939048 12.6963752 7.58421587 12.9749493 7.57697778 12.9749493 7.58180317 13.2523227 7.57456508 13.2523227 7.57939048 13.5332983 7.57215238 13.5332983 7.57818413 13.8106717 7.56973968 13.8106717 7.57577143 14.0892458 7.56853333 14.0892458 7.57335873 14.3678199 7.56612063 14.3678199 7.57094603 14.646394 7.56491429 14.646394 7.56973968 14.9261689 7.56129524 14.9261689 7.56732698 15.204743 7.55888254 15.204743 7.56612063 15.4833171 7.55767619 15.4833171 7.56370794 15.7606904 7.55526349 15.7618912 7.56129524 16.041666 7.55405714 16.041666 7.55888254 16.3190394 7.55164444 16.3190394 7.55767619 16.5976135 7.54923175 16.5976135 7.55526349 16.8761876 7.54681905 16.8761876 7.55285079 17.1547617 7.5456127 17.1547617 7.5504381 17.4345366 7.5432 17.4345366 7.54923175 17.7131107 7.5407873 17.7131107 7.5456127 17.9916848 7.5383746 17.9916848 7.5456127 18.2702589 7.53716825 18.2702589 7.5432 18.5476323 7.53475556 18.5476323 7.5407873 18.8286079 7.53354921 18.8286079 7.5383746 19.1059812 7.53113651 19.1059812 7.5359619 19.3845553 7.52872381 19.3857561 7.53475556 19.6631295 7.52631111 19.6631295 7.53234286 19.9417036 7.52510476 19.9417036 7.52993016 20.2214784 7.52269206 20.2214784 7.52751746 20.5000525 7.52027937 20.5000525 7.52510476 20.7786266 7.51786667 20.7786266 7.52389841 21.0572008 7.51666032 22.6662064 7.47323175 22.9459812 7.46599365 22.9459812 7.4647873 23.2257561 7.45754921 23.5043302 7.44910476 23.7841051 7.44186667 24.0626792 7.43462857 24.0626792 7.43342222 24.342454 7.42618413 24.6210281 7.41773968 24.9020038 7.41050159 24.9020038 7.40929524 25.1805779 7.40205714 25.4603527 7.39481905 25.7389268 7.3863746 26.0187017 7.37913651 26.0187017 7.37793016 26.2972758 7.37069206 26.5770507 7.36224762 26.8568255 7.35380317 27.1366004 7.34656508 27.4151745 7.33932698 27.6949493 7.33088254 27.6949493 7.32967619 27.9735235 7.32364444 27.9735235 7.3224381 28.2532983 7.3152 28.5330732 7.3079619 28.812848 7.29831111 29.0914221 7.29107302 29.371197 7.28383492 29.6497711 7.27539048 29.6497711 7.27539048 29.929546 7.26694603 30.2081201 7.25970794 30.4890957 7.25246984 30.7676698 7.24281905 31.0474447 7.23558095 31.3260188 7.22834286 31.6057936 7.22110476 31.6057936 7.21989841 31.8855685 7.21145397 32.1641426 7.20421587 32.4451182 7.19697778 32.4859437 7.19456508 32.4871445 7.21507302 32.7717223 7.20783492 32.7729231 7.23799365 34.3867317 7.19335873 34.3843302 7.12339048 34.6544991 7.11615238 34.6508968 6.96897778 34.9174634 6.96173968 34.7841801 0.983073016 33.9772758 1.00599365 33.976075 0.962565079 33.7023039 0.969803175 33.7011032 0.905866667"></polygon>
                            <polygon id="Fill-2" points="24.4660113 9.86204444 24.4660113 9.8560127 24.1886379 9.86325079 24.1886379 9.85721905 23.908863 9.86566349 23.908863 9.85963175 23.6302889 9.86807619 23.6302889 9.86204444 23.3517148 9.86928254 23.3517148 9.86445714 23.0731407 9.87169524 23.0731407 9.86686984 22.7945666 9.87410794 22.7945666 9.86807619 22.5159925 9.87652063 22.5159925 9.87048889 22.2362176 9.87772698 22.2362176 9.87290159 21.9576435 9.87893333 21.9576435 9.87410794 21.6790694 9.88134603 21.6790694 9.87772698 21.4004953 9.88375873 21.4004953 9.87772698 21.1219212 9.88617143 21.1219212 9.88013968 20.8421463 9.88858413 20.8421463 9.88255238 20.564773 9.88979048 20.564773 9.88496508 20.2861989 9.89220317 20.2849981 9.88737778 20.0076248 9.89461587 20.0076248 9.88858413 19.7278499 9.89702857 19.7278499 9.89099683 19.4492758 9.89944127 19.4492758 9.89340952 19.1707017 9.89944127 19.1707017 9.89461587 18.8921276 9.90185397 18.8921276 9.89823492 18.6135535 9.90426667 18.6135535 9.89944127 18.3337786 9.90667937 18.3337786 9.90064762 18.0564053 9.90909206 18.0552045 9.90306032 17.7766304 9.91029841 17.7766304 9.90547302 17.499257 9.91271111 17.499257 9.90788571 17.2194822 9.91512381 17.2194822 9.91029841 16.9409081 9.91753651 16.9409081 9.91150476 16.662334 9.91994921 16.662334 9.91391746 16.3837598 9.92115556 16.3837598 9.91512381 16.1051857 9.9223619 16.1051857 9.91874286 15.8266116 9.92598095 15.8266116 9.91994921 15.5468368 9.9271873 15.5468368 9.92115556 15.2694634 9.9296 15.2694634 9.92356825 14.9908893 9.9320127 14.9896886 9.92598095 14.7123152 9.93321905 13.1021088 9.97544127 13.1021088 9.97664762 12.822334 9.98509206 12.5437598 9.99233016 12.2651857 10.0007746 11.9854109 10.0080127 11.7068368 10.0164571 11.4270619 10.0236952 11.4270619 10.0249016 11.1472871 10.0309333 11.1472871 10.0321397 10.8675122 10.0405841 10.5877373 10.0478222 10.3091632 10.0562667 10.0293884 10.0635048 9.75081426 10.0719492 9.4710394 10.0791873 9.4710394 10.0803937 9.19126454 10.0876317 8.91148968 10.0948698 8.63291557 10.1033143 8.35314071 10.1117587 8.0745666 10.1189968 7.79479174 10.1274413 7.51501689 10.1346794 7.51501689 10.1358857 7.23524203 10.1431238 6.95546717 10.1503619 6.67689306 10.1588063 6.3971182 10.1672508 6.11854409 10.1744889 5.83876923 10.1829333 5.83876923 10.1829333 5.56019512 10.1901714 5.56019512 10.1913778 5.27921951 10.1986159 5.0006454 10.205854 4.72087054 10.2142984 4.44229644 10.2227429 4.16252158 10.229981 3.88394747 10.237219 3.88394747 10.2384254 3.60417261 10.2468698 3.32439775 10.2541079 3.28237148 10.2553143 3.28237148 10.2348063 2.99659287 10.2432508 2.99539212 10.2130921 1.38278424 10.2565206 1.38398499 10.3276952 1.11501689 10.333727 1.11741839 10.4821079 0.850851782 10.4881397 0.860457786 10.9248381 0.985335835 16.4668063 1.7910394 16.4450921 1.79224015 16.4873143 2.06601126 16.4788698 2.06841276 16.5440127 3.70743715 16.4993778 3.70743715 16.4969651 3.98481051 16.489727 3.98481051 16.4849016 4.26338462 16.4776635 4.26338462 16.4752508 4.54315947 16.4668063 4.54315947 16.4631873 4.82173358 16.4571556 4.82173358 16.4523302 5.09910694 16.4450921 5.09910694 16.4426794 5.37768105 16.4354413 5.37768105 16.4306159 5.65745591 16.4245841 5.65745591 16.4209651 5.93482927 16.413727 5.93482927 16.4101079 6.21460413 16.4028698 6.21340338 16.3992508 6.49197749 16.3920127 6.49197749 16.3883937 6.77055159 16.3811556 6.77055159 16.3775365 7.05032645 16.3702984 7.05032645 16.3666794 7.32769981 16.3594413 7.32769981 16.3558222 7.60627392 16.3485841 7.60627392 16.3449651 7.88484803 16.337727 7.88484803 16.3341079 8.16462289 16.3268698 8.16462289 16.3232508 8.44199625 16.3160127 8.44199625 16.3123937 8.72057036 16.3051556 8.72057036 16.3015365 8.99914447 16.2942984 8.99914447 16.2906794 9.27771857 16.2834413 9.27771857 16.2798222 9.55629268 16.2725841 9.55629268 16.2689651 9.83486679 16.261727 9.83486679 16.2581079 10.1134409 16.2508698 10.1122402 16.2472508 10.392015 16.2400127 10.392015 16.2363937 10.6705891 16.2291556 10.6705891 16.2267429 10.9491632 16.2195048 10.9491632 16.2146794 11.2277373 16.2074413 11.2277373 16.2050286 11.5063114 16.1965841 11.5063114 16.1929651 11.7848856 16.185727 11.7848856 16.1821079 12.0634597 16.1748698 12.0634597 16.1724571 12.3420338 16.165219 12.3420338 16.1603937 12.6194071 16.1531556 12.6194071 16.1507429 12.8979812 16.1422984 12.8979812 16.1398857 13.1777561 16.1314413 13.1777561 16.1290286 13.4551295 16.1205841 13.4551295 16.1181714 13.7349043 16.109727 13.7337036 16.1073143 14.0122777 16.1000762 14.0122777 16.0964571 14.2920525 16.0880127 14.2920525 16.0856 14.3568931 16.0831873 14.3568931 16.0856 14.6366679 16.0771556 14.6366679 16.0807746 14.9164428 16.0735365 14.9164428 16.0759492 15.1950169 16.0675048 15.1950169 16.0699175 15.4747917 16.0626794 15.4747917 16.0650921 15.7545666 16.0566476 15.7545666 16.0602667 16.0331407 16.0530286 16.0331407 16.0554413 16.3129156 16.0469968 16.3129156 16.0506159 16.5926904 16.0433778 16.5926904 16.0445841 16.8724653 16.037346 16.8724653 16.0409651 17.1510394 16.033727 17.1510394 16.0349333 17.4308143 16.0276952 17.4308143 16.0301079 17.7093884 16.0228698 17.7105891 16.0252825 17.9891632 16.0180444 17.9891632 16.0204571 18.2689381 16.0120127 18.2689381 16.0144254 18.5487129 16.0071873 18.5487129 16.0108063 18.8284878 16.0023619 18.8284878 16.0047746 19.1070619 15.9975365 19.1070619 16.0011556 19.3868368 15.9927111 19.3868368 15.9951238 19.6654109 15.9878857 19.6666116 15.9902984 19.9451857 15.9830603 19.9451857 15.985473 20.2249606 15.9782349 20.2249606 15.9806476 20.5047355 15.9722032 20.5047355 15.9746159 20.7845103 15.9673778 20.7845103 15.9697905 21.0630844 15.9625524 21.0630844 15.9649651 21.3428593 15.957727 21.3428593 15.9601397 21.6214334 15.9529016 21.6214334 15.9553143 21.9012083 15.9480762 21.9012083 15.9504889 22.1809831 15.9432508 22.1809831 15.9456635 22.460758 15.937219 22.460758 15.9396317 22.7405328 15.9323937 22.7405328 15.9360127 23.0191069 15.9275683 23.0191069 15.929981 23.2988818 15.9227429 23.2988818 15.9251556 23.5774559 15.9179175 23.5774559 15.9215365 23.8572308 15.9142984 23.8572308 15.9167111 24.1370056 15.909473 24.1370056 15.9142984 24.4179812 15.905854 24.4179812 15.9106794 24.6977561 15.9034413 24.6977561 15.9070603 24.977531 15.8986159 24.977531 15.9034413 25.2573058 15.8949968 25.2573058 15.8998222 25.5370807 15.8925841 25.5370807 15.8962032 25.8168555 15.8889651 25.8168555 15.8925841 26.0966304 15.8841397 26.0966304 15.8889651 26.3752045 15.881727 26.3764053 15.885346 26.6561801 15.8781079 26.6561801 15.881727 26.935955 15.8744889 26.935955 15.8793143 27.2157298 15.8708698 27.2157298 15.8744889 27.4967054 15.8672508 27.4967054 15.8708698 27.7752795 15.8636317 27.7752795 15.8684571 28.0550544 15.8600127 28.0550544 15.8636317 28.3348293 15.8576 28.3348293 15.8600127 28.6146041 15.853981 28.6146041 15.8576 28.894379 15.8503619 28.894379 15.853981 29.1741538 15.8467429 29.1741538 15.8503619 29.4539287 15.8431238 29.4539287 15.8467429 29.7349043 15.8395048 29.7349043 15.8431238 30.0146792 15.8358857 30.0146792 15.8395048 30.294454 15.8322667 30.294454 15.8358857 30.5730281 15.8286476 30.5742289 15.8322667 30.8540038 15.8262349 30.8540038 15.8286476 31.1337786 15.8214095 31.1337786 15.8274413 31.4135535 15.8189968 31.4147542 15.8274413 31.6945291 15.8189968 31.6957298 15.8274413 31.9755047 15.8189968 31.9767054 15.8274413 32.2564803 15.8189968 32.2564803 15.8274413 32.5374559 15.8189968 32.5374559 15.8274413 32.8184315 15.8189968 32.8184315 15.8262349 33.0994071 15.8177905 33.0994071 15.8262349 33.379182 15.8177905 33.379182 15.8262349 33.6601576 15.8177905 33.6601576 15.8262349 35.1683002 15.785219 35.0398199 10.0369651 34.7624465 10.0442032 34.7624465 10.0249016 34.4850732 10.0309333 34.4850732 10.0116317 34.2076998 10.0188698 34.2064991 9.9983619 33.9291257 10.0068063 33.9291257 9.98750476 33.6517523 9.99474286 33.6517523 9.97423492 33.374379 9.98147302 33.3731782 9.96096508 33.0958049 9.96820317 33.0958049 9.94890159 32.8184315 9.95613968 32.8184315 9.93563175 32.5410582 9.94286984 32.5410582 9.9223619 32.2624841 9.9320127 32.2624841 9.91633016 31.9839099 9.92356825 31.9839099 9.91391746 31.7053358 9.92115556 31.7053358 9.91150476 31.4279625 9.91994921 31.4267617 9.90909206 31.1493884 9.91753651 31.1493884 9.90667937 30.8696135 9.91391746 30.8696135 9.90426667 30.5922402 9.91150476 30.5922402 9.90185397 30.313666 9.91029841 30.313666 9.89944127 30.0350919 9.90788571 30.0350919 9.89823492 29.7565178 9.90547302 29.7565178 9.89461587 29.4779437 9.90185397 29.4779437 9.89220317 29.2005704 9.89944127 29.1993696 9.88979048 28.9219962 9.89823492 28.9219962 9.88858413 28.6434221 9.89461587 28.6434221 9.88617143 28.364848 9.89220317 28.364848 9.88375873 28.0862739 9.88979048 28.0862739 9.88013968 27.8076998 9.88858413 27.8076998 9.87772698 27.5291257 9.88617143 27.5291257 9.87652063 27.2505516 9.88375873 27.2505516 9.87290159 26.9731782 9.88013968 26.9731782 9.87048889 26.6946041 9.87772698 26.6946041 9.86807619 26.41603 9.87652063 26.41603 9.86686984 26.1362552 9.87410794 26.1362552 9.86445714 25.8588818 9.87169524 25.8588818 9.86204444 25.5815084 9.86928254 25.5803077 9.8584254 25.3029343 9.86686984 25.3017336 9.8560127 25.0231595 9.86445714 25.0231595 9.85480635 24.7457861 9.86204444 24.7445854 9.8536"></polygon>
                            <polygon id="Fill-3" points="32.0620788 18.235073 32.0620788 18.2386921 31.7835047 18.2447238 31.7835047 18.2495492 31.5049306 18.2567873 31.5049306 18.2592 31.2263565 18.2664381 31.2263565 18.2712635 30.9477824 18.2772952 30.9477824 18.2821206 30.6692083 18.2893587 30.6692083 18.2917714 30.3906341 18.2990095 30.3918349 18.3038349 30.1108593 18.3098667 30.1108593 18.3134857 29.8334859 18.3207238 29.8334859 18.3243429 29.5549118 18.331581 29.5549118 18.3352 29.2763377 18.3424381 29.2763377 18.3460571 28.9989644 18.3532952 28.9989644 18.3569143 28.7191895 18.3641524 28.7191895 18.3677714 28.4406154 18.3750095 28.4406154 18.3786286 28.1620413 18.3858667 28.1620413 18.3894857 27.8846679 18.3967238 27.8846679 18.4003429 27.6048931 18.407581 27.6048931 18.4112 27.3263189 18.4184381 27.3263189 18.4220571 27.0489456 18.4292952 27.0489456 18.4329143 26.7691707 18.4401524 26.7703715 18.4437714 26.4905966 18.4510095 26.4905966 18.4546286 26.2120225 18.4618667 26.2120225 18.4654857 25.9334484 18.4727238 25.9334484 18.4763429 25.656075 18.483581 25.656075 18.4872 25.3775009 18.4944381 25.3775009 18.4980571 25.0977261 18.5052952 25.0977261 18.5089143 24.819152 18.514946 24.819152 18.5197714 24.5417786 18.5270095 24.5417786 18.5294222 24.2632045 18.5378667 24.2632045 18.5414857 23.9834296 18.5475175 23.9834296 18.5523429 23.7060563 18.559581 23.7060563 18.5619937 23.4274822 18.5692317 23.4274822 18.5740571 23.1489081 18.5800889 23.1489081 18.5837079 22.870334 18.590946 22.870334 18.5945651 22.5905591 18.6018032 22.5917598 18.6054222 22.3131857 18.6126603 22.3131857 18.6162794 22.0346116 18.6235175 22.0346116 18.6283429 21.7560375 18.6343746 21.7560375 18.6379937 21.4762627 18.6452317 21.4762627 18.6488508 21.4114221 18.6512635 21.4114221 18.6488508 21.1316473 18.6560889 21.1316473 18.6524698 20.8530732 18.6609143 20.8530732 18.6585016 20.5732983 18.6657397 20.5732983 18.663327 20.2947242 18.6717714 20.2947242 18.6681524 20.0149493 18.6765968 20.0149493 18.6741841 19.7363752 18.6814222 19.7363752 18.6790095 19.4553996 18.6862476 19.4553996 18.6838349 19.1768255 18.691073 19.1756248 18.6886603 18.8970507 18.6971048 18.8970507 18.6934857 18.6172758 18.7007238 18.6172758 18.6983111 18.3387017 18.7067556 18.3387017 18.7043429 18.0589268 18.711581 18.0589268 18.7079619 17.7803527 18.7164063 17.7803527 18.7139937 17.4993771 18.7212317 17.4993771 18.718819 17.220803 18.7272635 17.220803 18.7236444 16.9410281 18.7308825 16.9410281 18.7296762 16.6612533 18.7369143 16.6612533 18.7332952 16.3826792 18.7405333 16.3826792 18.739327 16.1029043 18.7465651 16.1029043 18.742946 15.8243302 18.7513905 15.8243302 18.7489778 15.5433546 18.7562159 15.5433546 18.7538032 15.2647805 18.7610413 15.2647805 18.7586286 14.9850056 18.767073 14.9850056 18.763454 14.7064315 18.7718984 14.7052308 18.7694857 14.4266567 18.7767238 14.4266567 18.7731048 14.1468818 18.7815492 14.1468818 18.7791365 13.8683077 18.7863746 13.8683077 18.7827556 13.5885328 18.7912 13.5885328 18.7887873 13.308758 18.7960254 13.308758 18.794819 13.0289831 18.8020571 13.0289831 18.7984381 12.750409 18.8056762 12.7492083 18.8044698 12.4706341 18.8117079 12.4706341 18.8092952 12.1908593 18.8165333 12.1908593 18.8129143 11.9110844 18.8201524 11.9110844 18.8165333 11.6313096 18.8249778 11.6313096 18.8201524 11.350334 18.8273905 11.350334 18.8237714 11.0717598 18.8310095 11.0717598 18.8261841 10.791985 18.8346286 10.791985 18.8310095 10.5110094 18.8382476 10.5110094 18.8346286 10.2324353 18.8418667 10.2324353 18.8370413 9.95266041 18.8454857 9.95266041 18.8406603 9.67288555 18.8491048 9.6716848 18.8454857 9.39311069 18.8527238 9.39311069 18.8478984 9.11333583 18.8563429 9.11333583 18.8515175 8.83236023 18.8599619 8.83236023 18.8551365 8.55258537 18.863581 8.55258537 18.8599619 8.27281051 18.8672 8.27281051 18.8623746 7.99303565 18.870819 7.99303565 18.8659937 7.71326079 18.8732317 7.71326079 18.8696127 7.43348593 18.8780571 7.43348593 18.8732317 7.15371107 18.8816762 7.15371107 18.8768508 6.87513696 18.8840889 6.87513696 18.8804698 6.5953621 18.8877079 6.59416135 18.8840889 6.31438649 18.891327 6.31438649 18.8877079 6.03461163 18.894946 6.03461163 18.891327 5.75483677 18.8985651 5.75483677 18.8937397 5.47506191 18.9021841 5.47386116 18.8985651 5.19528705 18.9058032 5.19528705 18.9021841 4.9155122 18.9082159 4.9155122 18.9045968 4.63573734 18.9130413 4.63573734 18.9070095 4.35476173 18.9142476 4.35476173 18.9070095 4.07378612 18.9142476 4.07378612 18.9070095 3.79281051 18.9142476 3.79281051 18.9070095 3.51303565 18.9142476 3.5118349 18.9070095 3.23206004 18.9142476 3.23085929 18.9070095 2.95108443 18.9142476 2.95108443 18.9082159 2.67010882 18.915454 2.67010882 18.9082159 2.38913321 18.915454 2.38913321 18.9082159 2.1081576 18.915454 2.1081576 18.9082159 0.600015009 18.9492317 0.609621013 19.3690413 0.72849531 24.6974857 1.00586867 24.6890413 1.00706942 24.7095492 1.28324203 24.7023111 1.28444278 24.722819 1.56181614 24.7143746 1.56181614 24.7348825 1.83918949 24.7276444 1.84039024 24.746946 2.11656285 24.7397079 2.1177636 24.7602159 2.39513696 24.7529778 2.39513696 24.7734857 2.67251032 24.7650413 2.67251032 24.7855492 2.94988368 24.7771048 2.95108443 24.798819 3.22725704 24.7903746 3.22845779 24.8108825 3.50583114 24.8024381 3.50583114 24.8181206 3.78440525 24.8096762 3.785606 24.819327 4.06297936 24.8120889 4.06418011 24.8217397 4.34155347 24.8145016 4.34155347 24.8253587 4.61892683 24.8169143 4.61892683 24.8277714 4.89870169 24.819327 4.89870169 24.8301841 5.1772758 24.8217397 5.1772758 24.8313905 5.45584991 24.8241524 5.45584991 24.8338032 5.73322326 24.8265651 5.73322326 24.8362159 6.01179737 24.8289778 6.01179737 24.8398349 6.29037148 24.8301841 6.29037148 24.8422476 6.56894559 24.8338032 6.56894559 24.843454 6.8475197 24.8362159 6.8475197 24.8458667 7.12489306 24.8398349 7.12489306 24.8482794 7.40466792 24.8422476 7.40466792 24.8518984 7.68204128 24.843454 7.68324203 24.8531048 7.96061538 24.8458667 7.96061538 24.8555175 8.23918949 24.8482794 8.23918949 24.8579302 8.5177636 24.8506921 8.5177636 24.8615492 8.79633771 24.8531048 8.79633771 24.8639619 9.07491182 24.8555175 9.07491182 24.8651683 9.35228518 24.8579302 9.35228518 24.867581 9.63206004 24.8603429 9.63206004 24.8699937 9.9094334 24.8627556 9.91063415 24.8724063 10.1880075 24.8639619 10.1880075 24.874819 10.4665816 24.867581 10.4665816 24.8772317 10.7451557 24.8699937 10.7451557 24.8796444 11.0237298 24.8724063 11.0237298 24.8808508 11.3023039 24.8724063 11.3023039 24.8784381 11.580878 24.8712 11.580878 24.8760254 11.8594522 24.8687873 11.8594522 24.8736127 12.139227 24.8663746 12.139227 24.8724063 12.4178011 24.8639619 12.4178011 24.8699937 12.6951745 24.8627556 12.6963752 24.867581 12.9749493 24.8603429 12.9749493 24.8651683 13.2523227 24.8579302 13.2523227 24.8639619 13.5332983 24.8555175 13.5332983 24.8627556 13.8106717 24.8543111 13.8106717 24.8603429 14.0892458 24.8518984 14.0892458 24.8567238 14.3678199 24.8506921 14.3678199 24.8555175 14.646394 24.8482794 14.646394 24.8531048 14.9261689 24.8458667 14.9261689 24.8518984 15.204743 24.843454 15.204743 24.8494857 15.4833171 24.8422476 15.4833171 24.847073 15.7606904 24.8398349 15.7618912 24.8446603 16.041666 24.8374222 16.041666 24.8422476 16.3190394 24.8350095 16.3190394 24.8410413 16.5976135 24.8338032 16.5976135 24.8398349 16.8761876 24.8301841 16.8761876 24.8362159 17.1547617 24.8301841 17.1547617 24.8350095 17.4345366 24.8277714 17.4345366 24.8325968 17.7131107 24.8253587 17.7131107 24.8301841 17.9916848 24.822946 17.9916848 24.8289778 18.2702589 24.8205333 18.2702589 24.8265651 18.5476323 24.819327 18.5476323 24.8241524 18.8286079 24.8169143 18.8286079 24.8217397 19.1059812 24.8145016 19.1059812 24.819327 19.3845553 24.8120889 19.3857561 24.819327 19.6631295 24.8108825 19.6631295 24.8157079 19.9417036 24.8084698 19.9417036 24.8145016 20.2214784 24.8072635 20.2214784 24.8120889 20.5000525 24.8048508 20.5000525 24.8096762 20.7786266 24.8024381 20.7786266 24.8084698 21.0572008 24.8000254 22.6662064 24.7578032 22.6662064 24.7565968 22.9459812 24.7493587 23.2257561 24.7421206 23.2257561 24.7409143 23.5043302 24.7336762 23.7841051 24.7252317 24.0626792 24.7179937 24.342454 24.7107556 24.342454 24.7095492 24.6210281 24.7023111 24.6210281 24.7011048 24.9020038 24.6938667 25.1805779 24.6866286 25.1805779 24.6854222 25.4603527 24.6781841 25.7389268 24.6697397 26.0187017 24.6625016 26.2972758 24.6552635 26.2972758 24.6540571 26.5770507 24.646819 26.5770507 24.6456127 26.8568255 24.6383746 27.1366004 24.6311365 27.1366004 24.6299302 27.4151745 24.6226921 27.6949493 24.6142476 27.9735235 24.6070095 28.2532983 24.5997714 28.2532983 24.5985651 28.5330732 24.591327 28.812848 24.5828825 29.0914221 24.5744381 29.371197 24.5672 29.6497711 24.5587556 29.929546 24.5515175 29.929546 24.5503111 30.2081201 24.5442794 30.2081201 24.543073 30.4890957 24.5358349 30.7676698 24.5273905 31.0474447 24.518946 31.3260188 24.5117079 31.6057936 24.5044698 31.8855685 24.4960254 31.8855685 24.494819 32.1641426 24.4887873 32.1641426 24.487581 32.4451182 24.4803429 32.4859437 24.4791365 32.4871445 24.4984381 32.7717223 24.4912 32.7729231 24.5213587 34.3867317 24.4779302 34.3843302 24.4079619 34.6544991 24.3995175 34.6508968 24.2523429 34.9174634 24.2451048 34.7841801 18.2664381 33.9772758 18.2893587 33.976075 18.2471365 33.7023039 18.2543746 33.7011032 18.1904381"></polygon>
                        </g>
                    </g>
                </g>
            </g>
        </g>
    </g>
</svg>