<?xml version="1.0" encoding="UTF-8"?>
<svg width="36px" height="32px" viewBox="0 0 36 32" version="1.1" xmlns="http://www.w3.org/2000/svg" xmlns:xlink="http://www.w3.org/1999/xlink">
    <!-- Generator: Sketch 53 (72520) - https://sketchapp.com -->
    <title>Group 3</title>
    <desc>Created with Sketch.</desc>
    <g id="Symbols" stroke="none" stroke-width="1" fill="none" fill-rule="evenodd">
        <g id="navbar-top-desktop" transform="translate(-718.000000, -93.000000)" fill="#000000">
            <g id="navbar-top">
                <g id="menu" transform="translate(314.000000, 91.000000)">
                    <g id="listen" transform="translate(404.000000, 2.000000)">
                        <g id="Group-3">
                            <path d="M35.8718161,17.0630194 C35.3043034,7.45711355 28.0201105,0 18.2466509,0 C18.2243955,0 18.2032528,0.0122851953 18.1798847,0.0145188672 C18.1554037,0.0122851953 18.1353739,0 18.1108929,0 C17.6869275,0 17.2729771,0.00781785155 16.8579138,0.0413229296 C16.8223052,0.0435566015 16.7967115,0.0290377343 16.75999,0.0335050781 C16.6887728,0.0424397656 16.6186682,0.0569586327 16.547451,0.0670101562 C16.5185189,0.070360664 16.4918125,0.070360664 16.465106,0.0737111718 C16.4528655,0.0759448437 16.4461889,0.0826458593 16.4339484,0.0848795311 C9.4880376,1.06211098 3.344434,5.1218096 1.22794532,12.1735117 C-0.364428662,17.4851834 -1.30471938,27.2965871 4.25690547,30.6884179 C8.23728403,33.1164192 13.1446001,32.2542218 12.5871023,27.2586147 C11.8860571,20.9786462 11.8014866,14.1134557 5.36299892,16.9256486 C6.01396942,10.0403551 10.6976187,5.05368261 18.0641566,4.83366593 C18.1053291,4.8325491 18.1387122,4.81356288 18.1798847,4.8079787 C18.2199444,4.81356288 18.2533275,4.8325491 18.2945,4.83366593 C25.6298803,5.05256577 30.3291084,10.0325372 30.9923193,16.9021951 C28.9325819,15.9640529 26.7404249,15.6301189 25.3105153,17.7219526 C24.0987087,19.4943713 24.0152509,25.0930698 23.7715543,27.2586147 C23.6291197,28.5262235 23.2218459,29.7178874 24.1276407,30.7978678 C26.1183864,33.1756115 31.2404671,31.5707182 33.1499805,29.8954643 C36.7687088,26.7225334 35.9385823,21.3740061 35.8718161,17.0630194" id="icon-listen"></path>
                        </g>
                    </g>
                </g>
            </g>
        </g>
    </g>
</svg>