<?xml version="1.0" encoding="UTF-8"?>
<svg width="30px" height="20px" viewBox="0 0 30 20" version="1.1" xmlns="http://www.w3.org/2000/svg" xmlns:xlink="http://www.w3.org/1999/xlink">
    <!-- Generator: Sketch 53.1 (72631) - https://sketchapp.com -->
    <title>Fill 1</title>
    <desc>Created with Sketch.</desc>
    <g id="Yegna-UI" stroke="none" stroke-width="1" fill="none" fill-rule="evenodd">
        <g id="Yegna-D-1-Home" transform="translate(-150.000000, -2263.000000)" fill="#8208FF">
            <g id="section-news" transform="translate(150.000000, 2211.000000)">
                <g id="title" transform="translate(0.000000, 45.000000)">
                    <g id="Group-3" transform="translate(0.000000, 7.000000)">
                        <path d="M17.4734319,16.6278432 C16.3247582,14.44228 15.5269062,12.2498746 14.7504339,10.054537 C13.9681308,7.84453769 13.2771773,5.60032787 12.5434644,3.36296015 C12.4297632,3.41476464 12.3782576,3.42258419 12.3520188,3.45288493 C11.2985821,4.68446349 10.2179348,5.89649319 9.19948298,7.15837249 C7.6892978,9.03017641 6.12177613,10.8462661 4.40070924,12.5255137 C4.29672609,12.6252129 4.21217905,12.7454384 4.10236507,12.8764158 C4.21995349,12.9536338 4.28603624,13.0220549 4.36669606,13.0464909 C6.16453555,13.6075434 7.96043144,14.1715282 9.76410176,14.7159641 C10.8680724,15.0492723 11.9827329,15.3444601 13.0896189,15.6689713 C13.4278071,15.7676931 13.7485028,15.941678 14.0905782,16.0198735 C14.9564566,16.2163396 15.8291376,16.3825049 16.7018186,16.5516026 C16.9097849,16.5916778 17.1245538,16.5946101 17.4734319,16.6278432 M30,7.10656799 C29.9290582,7.47115434 29.7978645,7.8787482 29.4791124,8.22280824 C28.0155739,9.81115361 26.5287121,11.3809276 25.1166792,13.0152128 C24.1293252,14.1588214 23.2362363,15.3855128 22.3237113,16.5926552 C21.5861112,17.5691211 20.8893269,18.5758877 20.1633885,19.5611505 C19.8368619,20.0039324 19.4802095,20.1182932 18.9515475,19.8739324 C17.3470972,19.1330304 15.6386638,18.7273914 13.9554973,18.2416021 C11.1625293,17.4352114 8.36761779,16.6327304 5.57270623,15.8341592 C5.23160263,15.7364149 4.87689376,15.6885202 4.53481835,15.5937082 C3.83123143,15.399197 3.13347535,15.1841594 2.43086024,14.9867159 C1.87595951,14.8313024 1.32203059,14.6710017 0.759355416,14.5507762 C0.440603333,14.4833326 0.185018583,14.4207762 0.0470222548,14.0600996 C-0.0909740738,13.7004005 0.0994997319,13.5205509 0.298719784,13.3055134 C1.50667356,11.9996492 2.7253172,10.7035593 3.91383487,9.382056 C5.6242119,7.47897389 7.31709644,5.56025269 9.00803737,3.6395766 C9.94582932,2.57318596 10.8709878,1.495066 11.7903155,0.412058819 C12.1304473,0.012284509 12.4725227,-0.11185079 12.9972974,0.107096509 C14.3063189,0.652509872 15.6386638,1.14025408 16.9651778,1.64168249 C17.2751836,1.75897569 17.6055974,1.82348695 17.9185186,1.93687037 C19.3140308,2.443186 20.7114866,2.94754674 22.1001961,3.47634357 C23.1915333,3.89273442 24.2566317,4.38341095 25.3586587,4.76754617 C26.633667,5.21228287 27.9388013,5.57295945 29.2274149,5.97957587 C29.7240073,6.13694424 29.9883383,6.51423735 30,7.10656799" id="Fill-1"></path>
                    </g>
                </g>
            </g>
        </g>
    </g>
</svg>