<?xml version="1.0" encoding="UTF-8"?>
<svg width="34px" height="30px" viewBox="0 0 34 30" version="1.1" xmlns="http://www.w3.org/2000/svg" xmlns:xlink="http://www.w3.org/1999/xlink">
    <!-- Generator: Sketch 53.1 (72631) - https://sketchapp.com -->
    <title>Fill 6 Copy 2</title>
    <desc>Created with Sketch.</desc>
    <g id="Yegna-UI" stroke="none" stroke-width="1" fill="none" fill-rule="evenodd">
        <g id="Yegna-D-1-Home" transform="translate(-957.000000, -907.000000)" fill="#8208FF">
            <g id="sidebar" transform="translate(957.000000, 861.000000)">
                <g id="title" transform="translate(0.000000, 43.000000)">
                    <path class="cast" d="M27.7943416,3 L28.2560197,3 C29.3127005,3.46732438 29.5154422,3.93687412 29.0956347,5.04955122 C28.8223742,5.77390401 28.5226691,6.48824271 28.2108436,7.19701803 C27.6059241,8.5733996 26.9910879,9.94533047 26.3674369,11.3128106 C26.1702045,11.7434167 25.950935,12.1673466 25.7074246,12.5745865 C25.3537285,13.168756 25.4903588,13.4869817 26.1680008,13.5737705 C26.2109732,13.5793339 26.2561493,13.5860099 26.3002236,13.5871226 C28.284668,13.6438691 30.2724179,13.6193903 32.2425382,13.9732216 C32.89043,14.0900527 33.5162848,14.1657147 34,14.6664194 L34,15.5999555 C33.5790906,16.190787 32.9730693,16.4578295 32.3020384,16.645872 C31.7114431,16.8105482 31.1186441,16.9930272 30.5622063,17.2467176 C29.4019509,17.7763519 28.269242,18.3671834 27.1166996,18.9157333 C26.458891,19.2295082 26.2693716,19.6756917 26.644003,20.3076923 C27.3403766,21.4849047 28.1370192,22.5842297 29.2664225,23.3942586 C30.0619632,23.9639493 30.7539294,24.6415696 31.2751078,25.4838662 C31.6221927,26.0402047 31.4690346,26.924783 30.9555692,27.3375862 C30.5313543,27.6780654 29.9605924,27.7225725 29.4834883,27.4744455 C29.1132644,27.2808397 28.7419386,27.0794451 28.3518813,26.9381352 C27.0186343,26.4574586 25.6765726,25.9990357 24.3378164,25.5350493 C24.2904365,25.5194718 24.2342418,25.532824 24.148297,25.532824 C24.0810837,26.4852756 24.1604174,27.4010088 24.7653369,28.16208 C25.611563,29.226912 25.8440548,30.5276315 26.1746119,31.7805059 C26.3718443,32.5293376 25.5619795,33.1223945 24.841365,32.8253097 C24.4149464,32.6495067 24.040315,32.3846896 23.8210455,31.9674357 C23.4651457,31.2887026 22.9880416,30.7234627 22.39965,30.2416735 C22.2729364,30.1381945 22.1583433,30.0135747 22.0547688,29.8845041 C21.0069028,28.5860099 19.9546294,27.2897411 18.9210876,25.9790075 C18.517808,25.4682887 18.209288,25.4515985 17.8379622,25.9778948 C17.8060084,26.0235146 17.7773601,26.0713597 17.7487118,26.1180921 C16.5719286,28.0708404 15.3918398,30.0213634 14.2227695,31.9785624 C13.9759536,32.3924783 13.7082024,32.7730139 13.2696633,33 L12.7418738,33 C12.6966977,32.9744084 12.6526234,32.9432535 12.6041417,32.9254506 C12.0961856,32.7374082 11.8041935,32.3813515 11.7997861,31.8272383 C11.7975824,31.4845338 11.808601,31.1384912 11.854879,30.7991247 C12.0080371,29.6797715 12.1953528,28.5637564 12.3385942,27.4421779 C12.416826,26.8257548 12.1600933,26.6254729 11.5827203,26.8513463 C10.2737142,27.3642905 8.97462488,27.9061642 7.67112811,28.4369112 C5.78034158,29.2079964 3.90057361,30.0158 1.99105551,30.7401528 C0.844022426,31.1752096 0.433029783,30.9315333 0,29.7999407 L0,29.5996588 C0.160871115,29.0744752 0.537706193,28.7351087 0.963022977,28.4291225 C1.43792332,28.0875306 1.90400881,27.7325866 2.36568688,27.3743046 C4.75561461,25.5239226 7.04196779,23.5344559 9.58284992,21.8854684 C9.89908287,21.6796232 9.83737888,21.1366367 9.46495123,20.9942141 C9.08811615,20.8506787 8.69034579,20.7561012 8.29367729,20.6826645 C7.72181353,20.5758475 7.13232006,20.5535939 6.56927115,20.4133966 C5.22831124,20.0773681 3.89175876,19.7124101 2.56512299,19.3174097 C2.10013935,19.1783251 1.656091,18.9435502 1.23077422,18.7032119 C0.852837282,18.4918033 0.631364034,18.1591128 0.717308876,17.679549 C0.802151862,17.2099993 1.13601452,17.0308582 1.54039602,16.9307173 C3.32209871,16.4845338 5.12914412,16.2753505 6.9648378,16.3643647 C7.38023787,16.3855055 7.79784166,16.4333506 8.21103801,16.4166605 C8.71348478,16.3955196 9.21262598,16.3120688 9.71507275,16.2675618 C10.3255015,16.2141533 10.9436433,16.2052518 11.5496646,16.1140123 C11.9683702,16.0505897 12.1171209,15.8024627 12.0928801,15.3729694 C12.0785559,15.1315184 12.0366854,14.8878421 11.9760832,14.6530673 C11.6862948,13.561531 11.3722656,12.4755582 11.0945977,11.3817966 C10.7166607,9.89748535 10.5172246,8.38090646 10.3684739,6.86098954 C10.3045662,6.21452415 10.2880384,5.56027001 10.3155848,4.91269194 C10.3232978,4.73243825 10.5304469,4.45093094 10.6968273,4.40642386 C11.2532651,4.25621245 11.8581845,4.25732512 12.2460382,4.75246643 C12.5986324,5.20198798 12.8366335,5.74719976 13.1165052,6.2556932 C13.3655248,6.70632742 13.5759795,7.18032787 13.8536475,7.61204658 C14.1621674,8.09383577 14.5676508,8.51331504 14.858541,9.00289296 C15.4788865,10.0488094 16.0562595,11.1225428 16.6468548,12.1862621 C17.0512363,12.9150656 17.59335,12.9161783 18.0980005,12.2563608 C18.4208445,11.8335435 18.8461613,11.4875009 19.2384224,11.1225428 C19.4632012,10.9133595 19.7353599,10.7553594 19.9513238,10.5372747 C20.3160385,10.1689786 20.6554104,9.77509087 21.0024954,9.38787924 C22.0338335,8.23292041 23.0861069,7.10132779 24.317983,6.15221423 C25.0507178,5.58919961 25.7537026,4.98501595 26.4544836,4.37971961 C26.6935865,4.17164899 26.8720874,3.89570507 27.0935606,3.66649358 C27.3172376,3.43394407 27.5596461,3.22142274 27.7943416,3" id="Fill-6-Copy-2"></path>
                </g>
            </g>
        </g>
    </g>
</svg>
