<?xml version="1.0" encoding="UTF-8"?>
<svg width="28px" height="28px" viewBox="0 0 28 28" version="1.1" xmlns="http://www.w3.org/2000/svg" xmlns:xlink="http://www.w3.org/1999/xlink">
    <!-- Generator: Sketch 53.1 (72631) - https://sketchapp.com -->
    <title>icon-listen</title>
    <desc>Created with Sketch.</desc>
    <g id="Yegna-UI" stroke="none" stroke-width="1" fill="none" fill-rule="evenodd">
        <g id="Yegna-D-1-Home" transform="translate(-153.000000, -1689.000000)" fill="#8208FF">
            <g id="section-listen" transform="translate(151.000000, 1639.000000)">
                <g id="title" transform="translate(2.000000, 47.000000)">
                    <path d="M27.9003014,17.930142 C27.4589026,9.52497435 21.7934192,3 14.1918396,3 C14.1745298,3 14.1580855,3.01074955 14.1399103,3.01270401 C14.1208696,3.01074955 14.1052908,3 14.08625,3 C13.7564992,3 13.4345377,3.00684062 13.1117107,3.03615756 C13.0840151,3.03811203 13.0641089,3.02540802 13.0355478,3.02931694 C12.9801566,3.03713479 12.9256309,3.0498388 12.8702396,3.05863389 C12.847737,3.06156558 12.8269652,3.06156558 12.8061935,3.06449728 C12.7966732,3.06645174 12.7914802,3.07231513 12.7819599,3.07426959 C7.3795848,3.9293471 2.60122645,7.4815834 0.955068581,13.6518227 C-0.283444515,18.2995355 -1.01478174,26.8845137 3.31092647,29.8523656 C6.40677647,31.9768668 10.2235778,31.2224441 9.78996842,26.8512879 C9.24471109,21.3563154 9.17893401,15.3492738 4.17122138,17.8099425 C4.67753177,11.7853107 8.32037008,7.42197228 14.0498996,7.22945769 C14.0819226,7.22848046 14.1078872,7.21186752 14.1399103,7.20698137 C14.1710679,7.21186752 14.1970325,7.22848046 14.2290555,7.22945769 C19.9343514,7.42099505 23.5893065,11.7784701 24.1051373,17.7894207 C22.5031193,16.9685463 20.7981082,16.6763541 19.6859564,18.5067086 C18.7434401,20.0575749 18.6785285,24.9564361 18.4889867,26.8512879 C18.3782042,27.9604455 18.0614357,29.0031515 18.7659428,29.9481343 C20.3143005,32.02866 24.298141,30.6243785 25.7833182,29.1585313 C28.5978846,26.3822168 27.9522307,21.7022554 27.9003014,17.930142" id="icon-listen"></path>
                </g>
            </g>
        </g>
    </g>
</svg>