<?xml version="1.0" encoding="UTF-8"?>
<svg width="21px" height="26px" viewBox="0 0 21 26" version="1.1" xmlns="http://www.w3.org/2000/svg" xmlns:xlink="http://www.w3.org/1999/xlink">
    <!-- Generator: Sketch 53.1 (72631) - https://sketchapp.com -->
    <title>Group 3</title>
    <desc>Created with Sketch.</desc>
    <defs>
        <polygon id="path-1" points="0 0 21 0 21 26 0 26"></polygon>
    </defs>
    <g id="Symbols" stroke="none" stroke-width="1" fill="none" fill-rule="evenodd">
        <g id="footer-mobile" transform="translate(-254.000000, -11.000000)">
            <g id="footer-buttons">
                <g>
                    <g id="Group-3" transform="translate(254.000000, 11.000000)">
                        <mask id="mask-2" fill="white">
                            <use xlink:href="#path-1"></use>
                        </mask>
                        <g id="Clip-2"></g>
                        <path d="M7.95198734,14.0718506 L7.95119362,14.0718506 L7.9575434,14.3030254 L7.95595595,14.3030254 L7.96151201,14.5342001 L7.96071829,14.5342001 L7.96627435,14.7661559 L7.96548063,14.7661559 L7.97024296,14.9973307 L7.96944924,14.9973307 L7.9750053,15.2277244 L7.97421158,15.2277244 L7.97976764,15.4588992 L7.97897391,15.4588992 L7.98452997,15.690855 L7.98373625,15.690855 L7.98929231,15.9220297 L7.98849859,15.9220297 L7.99405465,16.1539855 L7.99326092,16.1539855 L7.99881698,16.3851603 L7.99802326,16.3851603 L8.0027856,16.616335 L8.00119815,16.616335 L8.00596049,16.8482908 L8.00119815,16.8482908 L8.00754793,17.0794656 L8.0027856,17.0794656 L8.00913538,17.3098593 L8.00437304,17.3098593 L8.0099291,17.5410341 L8.00596049,17.5418151 L8.01151655,17.7729899 L8.00675421,17.7729899 L8.01310399,18.0041646 L8.00834166,18.0041646 L8.01469144,18.2361204 L8.0099291,18.2361204 L8.01548516,18.4672952 L8.01151655,18.4672952 L8.01707261,18.6984699 L8.01231027,18.6992509 L8.01866005,18.9304257 L8.01389772,18.9304257 L8.0202475,19.1616005 L8.01548516,19.1616005 L8.02104122,19.3927752 L8.01707261,19.3927752 L8.02262867,19.62395 L8.01786633,19.62395 L8.02421611,19.8551248 L8.01945378,19.8551248 L8.02580356,20.0862995 L8.02104122,20.0870805 L8.02659728,20.3182553 L8.02262867,20.3182553 L8.02818473,20.5502111 L8.02342239,20.5502111 L8.02977217,20.7813858 L8.02500983,20.7813858 L8.03056589,21.0125606 L8.02659728,21.0125606 L8.03215334,21.2437354 L8.02818473,21.2445164 L8.03374079,21.4749101 L8.02897845,21.4749101 L8.03453451,21.7060849 L8.03056589,21.7060849 L8.03532823,21.9380407 L8.03215334,21.9380407 L8.03691568,22.1692154 L8.03294706,22.1692154 L8.03850312,22.4003902 L8.03453451,22.4003902 L8.04009057,22.632346 L8.03532823,22.632346 L8.04088429,22.8635207 L8.03691568,22.8635207 L8.04247174,23.0946955 L8.03850312,23.0946955 L8.04405918,23.3266513 L8.03929684,23.3266513 L8.04564663,23.557826 L8.04088429,23.557826 L8.04644035,23.7882198 L8.04247174,23.7882198 L8.04802779,24.0201756 L8.04326546,24.0201756 L8.04961524,24.2513503 L8.0448529,24.2513503 L8.05120269,24.4833061 L8.04644035,24.4833061 L8.05199641,24.7144809 L8.04802779,24.7144809 L8.05358385,24.9456556 L8.04882152,24.9456556 L8.0551713,25.1776114 L8.05040896,25.1776114 L8.05675875,25.4087862 L8.05199641,25.4087862 L8.05755247,25.6399609 L8.05358385,25.6399609 L8.05913991,25.8711357 L8.05437758,25.8711357 L8.0551713,25.8945656 C9.61404281,25.8680117 11.1713269,25.9297104 12.7317858,26 L12.7262298,25.7703872 L12.7317858,25.7703872 L12.7270235,25.5407744 L12.7317858,25.5407744 L12.7270235,25.3095997 L12.7325796,25.3095997 L12.7270235,25.0792059 L12.7325796,25.0784249 L12.7278172,24.8480311 L12.7333733,24.8480311 L12.7278172,24.6176374 L12.7333733,24.6168564 L12.7286109,24.3864626 L12.7333733,24.3864626 L12.7286109,24.1560688 L12.734167,24.1552878 L12.7294047,23.9248941 L12.734167,23.9248941 L12.7294047,23.6945003 L12.7349607,23.6937193 L12.7294047,23.4633255 L12.7349607,23.4633255 L12.7301984,23.2321508 L12.7349607,23.2321508 L12.7301984,23.002538 L12.7357544,23.002538 L12.7301984,22.7713632 L12.7357544,22.7713632 L12.7309921,22.5409694 L12.7365482,22.5401884 L12.7309921,22.3097947 L12.7365482,22.3097947 L12.7309921,22.0794009 L12.7365482,22.0786199 L12.7309921,21.8482261 L12.7373419,21.8482261 L12.7309921,21.6170514 L12.7373419,21.6170514 L12.7317858,21.3866576 L12.7373419,21.3866576 L12.7317858,21.1554828 L12.7381356,21.1554828 L12.7317858,20.9250891 L12.7381356,20.9250891 L12.7325796,20.6939143 L12.7389293,20.6939143 L12.7325796,20.4643015 L12.7389293,20.4635205 L12.7333733,20.2331267 L12.7389293,20.2331267 L12.7333733,20.001952 L12.7397231,20.001952 L12.7333733,19.7715582 L12.7397231,19.7715582 L12.734167,19.5403834 L12.7405168,19.5403834 L12.734167,19.3099897 L12.7405168,19.3099897 L12.7349607,19.0788149 L12.7405168,19.0788149 L12.7349607,18.8484211 L12.7413105,18.8476401 L12.7349607,18.6172464 L12.7413105,18.6172464 L12.7357544,18.3868526 L12.7421042,18.3860716 L12.7357544,18.1556778 L12.7405168,18.1556778 L12.734167,17.925284 L12.7373419,17.925284 L12.7317858,17.6948903 L12.734167,17.6948903 L12.7294047,17.4644965 L12.7309921,17.4637155 L12.7262298,17.2333217 L12.7286109,17.2333217 L12.7230549,17.002147 L12.7262298,17.002147 L12.71988,16.7717532 L12.7230549,16.7717532 L12.7167051,16.5405784 L12.71988,16.5405784 L12.7135302,16.3101847 L12.7167051,16.3101847 L12.711149,16.0790099 L12.7135302,16.0790099 L12.7079741,15.8486161 L12.7103553,15.8486161 L12.7047993,15.6174413 L12.7079741,15.6174413 L12.7016244,15.3878286 L12.7047993,15.3878286 L12.6984495,15.1566538 L12.7016244,15.1566538 L12.6960683,14.92626 L12.6984495,14.92626 L12.6936871,14.6950853 L12.6960683,14.6950853 L12.6905122,14.4646915 L12.6928934,14.4646915 L12.6873374,14.2335167 L12.6897185,14.2335167 L12.6841625,14.003123 L12.6873374,14.003123 L12.6857499,13.9422053 C17.0305883,13.8359898 20.865063,13.5196865 20.9833277,12.9386256 C21.4333685,10.7237214 12.6278081,1.11356767 12.0531529,0.542659711 C11.3927755,-0.113376792 10.7046179,-0.182885421 9.95216871,0.379431581 C9.39497533,0.795702362 8.86953086,1.27991978 8.46076363,1.81568292 C8.35043617,1.96016715 8.22026563,2.12886225 8.07898298,2.31083428 L7.79959257,2.31786325 L7.8075298,2.66228241 C5.76766229,5.2903334 1.62363574,10.5198815 0.789433115,11.5211182 C-0.399563586,12.9386256 0.0742889039,13.2791398 0.194934764,13.4150331 C0.480674959,13.7399274 3.93575015,13.9422053 7.94960617,13.9781311 L7.95198734,14.0718506 Z" id="Fill-1" fill="#000000" mask="url(#mask-2)"></path>
                    </g>
                </g>
            </g>
        </g>
    </g>
</svg>